<svg width="937" height="398" viewBox="0 0 937 398" fill="none" xmlns="http://www.w3.org/2000/svg">
<path d="M111 117L787 397H111V117Z" fill="#D9D9D9"/>
<rect x="160.623" width="155" height="31" transform="rotate(23 160.623 0)" fill="#B0A79E"/>
<rect x="123.113" y="88.3685" width="155" height="31" transform="rotate(23 123.113 88.3685)" fill="#B0A79E"/>
<rect x="154.954" y="31.2708" width="15" height="65" transform="rotate(23 154.954 31.2708)" fill="#807973"/>
<rect x="270.017" y="80.1122" width="15" height="65" transform="rotate(23 270.017 80.1122)" fill="#807973"/>
<rect x="141.868" y="44.1842" width="155" height="31" transform="rotate(23 141.868 44.1842)" fill="#B0A79E"/>
<rect x="687.623" y="220" width="155" height="31" transform="rotate(23 687.623 220)" fill="#B0A79E"/>
<rect x="650.113" y="308.368" width="155" height="31" transform="rotate(23 650.113 308.368)" fill="#B0A79E"/>
<rect x="681.954" y="251.271" width="15" height="65" transform="rotate(23 681.954 251.271)" fill="#807973"/>
<rect x="797.017" y="300.112" width="15" height="65" transform="rotate(23 797.017 300.112)" fill="#807973"/>
<rect x="668.868" y="264.184" width="155" height="31" transform="rotate(23 668.868 264.184)" fill="#B0A79E"/>
<path d="M255 176.5H43" stroke="black"/>
<path d="M782 397.5L43 397.5" stroke="black"/>
<path d="M918.063 389.841L897.216 362.176L883.68 394.063L918.063 389.841ZM801.828 343.762L892.037 382.053L894.382 376.53L804.172 338.238L801.828 343.762Z" fill="#52A51F"/>
<line x1="43.5" y1="177" x2="43.5" y2="398" stroke="black"/>
<path d="M845.119 310.521C845.456 309.729 845.323 309.205 844.72 308.949C843.96 308.626 842.972 308.75 841.758 309.319C840.543 309.888 839.263 311.01 837.917 312.683C837.872 312.701 837.82 312.735 837.761 312.785C837.702 312.835 837.666 312.876 837.653 312.908C837.639 312.939 837.594 312.958 837.517 312.962C837.441 312.967 837.386 312.963 837.355 312.949C837.323 312.936 837.26 312.909 837.164 312.869C837.069 312.828 836.943 312.775 836.784 312.707L836.118 312.425C836.009 312.154 835.974 311.971 836.015 311.876C836.109 311.654 836.431 311.248 836.98 310.658C837.53 310.068 838.26 309.406 839.171 308.67C840.082 307.934 841.123 307.422 842.293 307.133C843.463 306.844 844.609 306.919 845.732 307.359C847.064 307.924 847.932 308.741 848.339 309.812C848.745 310.882 848.748 311.931 848.35 312.959C848.121 313.498 847.898 313.89 847.682 314.135C847.601 314.325 847.068 314.921 846.081 315.924C845.094 316.927 844.004 318.129 842.81 319.53C841.617 320.932 840.733 322.221 840.158 323.399C839.795 324.255 839.578 324.986 839.508 325.592C839.341 327.13 840.051 328.235 841.636 328.908C842.808 329.406 844.131 329.331 845.603 328.684C847.075 328.037 848.399 327.121 849.575 325.937C850.751 324.753 851.769 323.632 852.629 322.576C853.489 321.519 854.033 320.721 854.262 320.182C854.572 319.453 854.714 318.765 854.689 318.119C854.664 317.472 854.554 316.939 854.358 316.519C854.162 316.099 853.998 315.693 853.865 315.3C853.733 314.907 853.754 314.505 853.929 314.093C854.225 313.395 854.802 312.873 855.66 312.527C856.518 312.18 857.296 312.155 857.993 312.451C858.595 312.706 859.013 313.22 859.246 313.993C859.48 314.765 859.343 315.792 858.836 317.074C858.473 317.929 857.725 319.164 856.591 320.778C855.457 322.392 854.029 324.124 852.308 325.975C850.587 327.826 848.661 329.234 846.53 330.2C844.4 331.166 842.376 331.261 840.461 330.486C838.432 329.625 837.037 328.415 836.277 326.858C835.535 325.346 835.587 323.591 836.435 321.594C836.852 320.611 837.41 319.651 838.107 318.712C838.805 317.774 840.242 316.195 842.418 313.976C843.977 312.244 844.877 311.092 845.119 310.521Z" fill="black"/>
<path d="M875.161 325.125C875.336 324.713 875.692 324.49 876.23 324.457L906.519 337.314C906.887 337.769 906.99 338.187 906.829 338.567C906.681 338.916 906.331 339.123 905.779 339.188L890.638 332.817L875.518 326.399C875.078 326.025 874.959 325.601 875.161 325.125ZM871.245 334.35C871.447 333.874 871.835 333.665 872.41 333.722L902.651 346.558C902.96 347.064 903.048 347.475 902.913 347.792C902.738 348.204 902.366 348.42 901.796 348.44L871.507 335.583C871.157 335.173 871.07 334.762 871.245 334.35Z" fill="black"/>
<path d="M926.716 328.996C925.575 328.511 924.48 328.271 923.431 328.275C922.382 328.278 921.618 328.403 921.14 328.649L920.442 328.97C920.506 328.997 920.578 329.046 920.66 329.118C920.741 329.191 920.889 329.328 921.102 329.531C921.315 329.733 921.493 329.977 921.634 330.261C921.775 330.546 921.857 330.88 921.881 331.264C921.905 331.649 921.823 332.063 921.635 332.506C921.325 333.236 920.832 333.737 920.154 334.011C919.477 334.284 918.774 334.266 918.045 333.957C917.316 333.647 916.808 333.17 916.521 332.524C916.233 331.879 916.236 331.169 916.527 330.394C917.321 328.524 918.673 327.321 920.584 326.785C922.495 326.25 924.353 326.234 926.159 326.739C926.223 326.766 926.397 326.84 926.682 326.961C926.968 327.082 927.196 327.16 927.368 327.196L927.558 327.277C929.238 327.99 930.609 328.815 931.67 329.752C932.732 330.689 933.409 331.649 933.702 332.634C933.995 333.619 934.158 334.511 934.193 335.312C934.227 336.112 934.067 336.886 933.712 337.633C932.851 339.662 931.273 340.956 928.978 341.516C925.096 342.375 922.22 344.128 920.348 346.775C919.867 347.469 919.37 348.418 918.859 349.622L918.516 350.431C918.26 351.033 918.064 351.361 917.929 351.416C917.794 351.471 917.497 351.42 917.04 351.263C916.583 351.107 916.333 350.945 916.292 350.777C916.251 350.61 916.318 350.321 916.493 349.909L917.118 348.435C918.137 346.211 919.243 344.398 920.437 342.997C921.63 341.595 922.683 340.658 923.594 340.185C924.506 339.711 925.402 339.231 926.282 338.744C927.162 338.257 927.836 337.683 928.304 337.021C928.489 336.763 928.769 336.19 929.146 335.302L929.409 334.684C929.637 334.145 929.794 333.688 929.879 333.312C929.963 332.937 929.957 332.466 929.86 331.901C929.763 331.337 929.477 330.822 929 330.358C928.524 329.894 927.762 329.44 926.716 328.996ZM911.422 356.566C911.799 355.679 912.38 355.103 913.166 354.838C913.952 354.573 914.757 354.615 915.581 354.965C916.283 355.338 916.803 355.876 917.14 356.581C917.477 357.285 917.457 358.081 917.08 358.968C916.677 359.919 916.104 360.518 915.364 360.765C914.623 361.012 913.856 360.967 913.064 360.63C912.271 360.294 911.707 359.774 911.369 359.07C911.032 358.365 911.05 357.531 911.422 356.566Z" fill="black"/>
<path d="M4.82742 257.597C4.86358 257.597 6.16535 257.506 8.73274 257.325C11.3001 257.145 12.62 257.036 12.6923 257C13.1262 257 13.3432 257.163 13.3432 257.488C13.3432 257.886 12.6923 260.616 11.3905 265.679C10.0164 271.03 9.32939 273.76 9.32939 273.869C9.32939 273.941 9.45595 273.851 9.70907 273.598C11.9149 271.645 14.2653 270.669 16.7604 270.669C18.713 270.669 20.286 271.157 21.4793 272.133C22.6726 273.109 23.2873 274.538 23.3235 276.418C23.3235 278.262 22.6364 281.119 21.2623 284.988C19.8882 288.857 19.2012 291.172 19.2012 291.931C19.2373 292.437 19.3277 292.781 19.4724 292.962C19.617 293.142 19.8882 293.233 20.286 293.233C21.2985 293.233 22.2387 292.69 23.1065 291.606C23.9744 290.521 24.6795 289.038 25.2219 287.158C25.3304 286.76 25.4389 286.525 25.5473 286.453C25.6558 286.38 25.9451 286.344 26.4152 286.344C27.1384 286.344 27.5 286.489 27.5 286.778C27.5 286.814 27.4277 287.085 27.283 287.592C26.7045 289.725 25.7824 291.479 24.5168 292.853C23.2873 294.408 21.8228 295.185 20.1233 295.185H19.8521C18.1525 295.185 16.9231 294.697 16.1637 293.721C15.4043 292.745 15.0247 291.714 15.0247 290.629C15.0247 290.051 15.6755 287.917 16.9773 284.229C18.2791 280.54 18.9481 277.774 18.9842 275.93C18.9842 273.797 18.1887 272.73 16.5976 272.73H16.3264C13.3251 272.73 10.7216 274.502 8.51578 278.045L8.13609 278.751L6.29191 286.073C5.13478 290.774 4.46581 293.341 4.28501 293.775C3.81492 294.751 3.0194 295.24 1.89842 295.24C1.39218 295.24 0.958251 295.077 0.596647 294.751C0.235043 294.426 0.0361604 294.101 0 293.775C0 293.269 1.31986 287.773 3.95957 277.286L7.97337 261.231C7.97337 260.761 7.84681 260.471 7.59369 260.363C7.34057 260.254 6.63544 260.164 5.4783 260.092H4.33925C4.12229 259.875 4.01381 259.73 4.01381 259.658C4.01381 259.585 4.04997 259.242 4.12229 258.627C4.30309 257.94 4.53813 257.597 4.82742 257.597Z" fill="black"/>
</svg>
