<svg width="671" height="734" viewBox="0 0 671 734" fill="none" xmlns="http://www.w3.org/2000/svg">
<rect x="317" width="333" height="129" rx="10" fill="#974022"/>
<rect x="317" y="463" width="333" height="129" rx="10" fill="#974022"/>
<line x1="317" y1="64.5" x2="217" y2="64.5" stroke="black"/>
<line x1="317" y1="528.5" x2="217" y2="528.5" stroke="black"/>
<line x1="217.5" y1="64" x2="217.5" y2="528" stroke="black"/>
<path d="M0.210722 307.175C0.0702405 307.063 0 306.965 0 306.88C0 306.824 2.37413 301.907 7.12239 292.13C11.8706 282.352 14.301 277.407 14.4134 277.295C14.4976 277.098 14.891 277 15.5934 277C16.2396 277 16.633 277.098 16.7734 277.295C16.8577 277.407 19.274 282.352 24.0223 292.13C28.7705 301.907 31.1587 306.824 31.1868 306.88C31.1868 306.965 31.1165 307.063 30.9761 307.175H0.210722ZM19.4285 292.678L14.2448 282.057L3.83513 303.298L14.2026 303.34H24.6123C24.6123 303.284 22.8844 299.73 19.4285 292.678Z" fill="black"/>
<path d="M34.0526 295.08C34.0526 294.687 34.2633 294.012 34.6848 293.057C35.1062 292.102 35.7805 291.104 36.7077 290.065C37.6349 289.025 38.6744 288.519 39.8264 288.548C40.9783 288.548 41.9055 288.871 42.6079 289.517C43.3103 290.163 43.6756 291.062 43.7037 292.214C43.6475 292.748 43.6053 293.043 43.5772 293.099C43.5772 293.183 43.3525 293.83 42.9029 295.038C42.4534 296.246 41.9898 297.609 41.5122 299.126C41.0345 300.643 40.8097 301.851 40.8378 302.75C40.8378 303.958 41.0345 304.801 41.4279 305.279C41.8212 305.756 42.4112 306.009 43.1979 306.037C43.8441 306.037 44.4482 305.883 45.0101 305.574C45.5721 305.265 46.0075 304.942 46.3166 304.605C46.6257 304.267 47.005 303.804 47.4545 303.214C47.4545 303.186 47.5247 302.905 47.6652 302.371C47.8057 301.837 48.0024 301.008 48.2552 299.884C48.5081 298.761 48.775 297.721 49.056 296.766C50.1236 292.551 50.7137 290.346 50.826 290.149C51.1913 289.39 51.7954 289.011 52.6382 289.011C53.0035 289.011 53.2985 289.109 53.5233 289.306C53.748 289.503 53.9026 289.671 53.9869 289.812C54.0712 289.952 54.0993 290.079 54.0712 290.191C54.0712 290.556 53.3828 293.507 52.0061 299.041C50.6294 304.576 49.8427 307.611 49.646 308.145C48.8593 310.477 47.4966 312.331 45.558 313.708C43.6194 315.084 41.6807 315.787 39.7421 315.815C38.4778 315.815 37.368 315.506 36.4127 314.888C35.4574 314.27 34.9798 313.342 34.9798 312.106C34.9798 311.488 35.0781 310.968 35.2748 310.547C35.4715 310.125 35.7384 309.816 36.0755 309.62C36.4127 309.423 36.6937 309.283 36.9184 309.198C37.1432 309.114 37.382 309.072 37.6349 309.072C38.8711 309.072 39.4892 309.662 39.4892 310.842C39.4892 311.404 39.3207 311.895 38.9835 312.317C38.6463 312.738 38.3232 313.019 38.0142 313.16C37.7051 313.3 37.5225 313.371 37.4663 313.371L37.3399 313.413C37.3961 313.553 37.663 313.722 38.1406 313.918C38.6182 314.115 39.0959 314.213 39.5735 314.213H39.9107C40.3883 314.213 40.7536 314.185 41.0064 314.129C41.9336 313.876 42.7905 313.342 43.5772 312.528C44.3639 311.713 44.968 310.842 45.3894 309.915C45.8109 308.988 46.134 308.201 46.3587 307.555C46.5835 306.908 46.6959 306.487 46.6959 306.29L46.443 306.459C46.2745 306.571 46.0075 306.726 45.6423 306.922C45.277 307.119 44.9118 307.288 44.5465 307.428C43.9846 307.569 43.4367 307.639 42.9029 307.639C41.6105 307.639 40.4726 307.33 39.4892 306.712C38.5059 306.094 37.8596 305.096 37.5506 303.719C37.5225 303.523 37.5084 303.087 37.5084 302.413C37.5084 300.812 38.0001 298.718 38.9835 296.134C39.9669 293.549 40.4585 291.905 40.4585 291.203C40.4585 291.175 40.4585 291.146 40.4585 291.118C40.4585 290.865 40.4585 290.697 40.4585 290.613C40.4585 290.528 40.4024 290.43 40.29 290.318C40.1776 290.205 40.0231 290.149 39.8264 290.149H39.6578C39.0116 290.149 38.4216 290.416 37.8877 290.95C37.3539 291.484 36.9325 292.06 36.6234 292.678C36.3144 293.296 36.0755 293.886 35.907 294.448C35.7384 295.01 35.626 295.319 35.5698 295.375C35.5136 295.431 35.2888 295.459 34.8955 295.459H34.3055C34.1369 295.291 34.0526 295.164 34.0526 295.08Z" fill="black"/>
<path d="M67.886 292.551C67.886 292.186 68.0827 291.905 68.4761 291.708H95.322C95.7434 291.933 95.9542 292.214 95.9542 292.551C95.9542 292.86 95.7575 293.127 95.3641 293.352L81.9622 293.394H68.5604C68.1108 293.254 67.886 292.973 67.886 292.551ZM67.886 300.727C67.886 300.306 68.1108 300.025 68.5604 299.884H95.3641C95.7575 300.165 95.9542 300.446 95.9542 300.727C95.9542 301.093 95.7434 301.373 95.322 301.57H68.4761C68.0827 301.373 67.886 301.093 67.886 300.727Z" fill="black"/>
<path d="M113.562 297.187C113.562 297.187 113.562 297.005 113.562 296.639C113.562 296.274 113.759 295.993 114.152 295.796H138.638C139.059 296.021 139.27 296.302 139.27 296.639C139.27 296.976 139.059 297.257 138.638 297.482H114.152C113.759 297.285 113.562 297.005 113.562 296.639V297.187Z" fill="black"/>
<path d="M148.163 287.663C147.404 287.663 146.814 287.424 146.392 286.946C145.971 286.468 145.746 285.85 145.718 285.092C145.718 283.546 146.392 282.17 147.741 280.962C149.09 279.753 150.719 279.149 152.63 279.149C153.613 279.149 154.231 279.163 154.484 279.192C156.563 279.529 158.151 280.273 159.246 281.425C160.342 282.577 160.904 283.827 160.932 285.176C160.932 286.637 160.455 288.056 159.499 289.433C158.544 290.809 157.224 291.807 155.538 292.425L155.411 292.509C155.411 292.537 155.538 292.579 155.791 292.636C156.044 292.692 156.451 292.818 157.013 293.015C157.575 293.212 158.109 293.507 158.614 293.9C160.918 295.389 162.07 297.356 162.07 299.8C162.07 302.02 161.199 303.958 159.457 305.616C157.715 307.274 155.51 308.103 152.841 308.103C150.593 308.103 148.654 307.498 147.025 306.29C145.395 305.082 144.58 303.551 144.58 301.697C144.58 300.91 144.833 300.278 145.339 299.8C145.845 299.322 146.477 299.07 147.235 299.041C148.022 299.041 148.668 299.294 149.174 299.8C149.68 300.306 149.933 300.938 149.933 301.697C149.933 302.006 149.89 302.287 149.806 302.539C149.722 302.792 149.624 303.017 149.511 303.214C149.399 303.41 149.244 303.579 149.048 303.719C148.851 303.86 148.682 303.972 148.542 304.057C148.401 304.141 148.261 304.197 148.12 304.225C147.98 304.253 147.868 304.295 147.783 304.352L147.615 304.394C149.048 305.658 150.79 306.29 152.841 306.29C154.386 306.29 155.552 305.546 156.339 304.057C156.816 303.129 157.055 301.711 157.055 299.8V298.957C157.055 296.288 156.156 294.504 154.358 293.605C153.936 293.436 153.079 293.338 151.787 293.31L150.017 293.268L149.89 293.183C149.834 293.099 149.806 292.874 149.806 292.509C149.806 292.003 149.919 291.751 150.143 291.751C150.93 291.751 151.745 291.68 152.588 291.54C153.543 291.399 154.414 290.809 155.201 289.77C155.987 288.73 156.381 287.157 156.381 285.05V284.712C156.381 283.111 155.889 282.001 154.906 281.383C154.287 280.99 153.627 280.793 152.925 280.793C152.026 280.793 151.197 280.948 150.438 281.257C149.68 281.566 149.146 281.889 148.837 282.226C148.528 282.563 148.373 282.732 148.373 282.732H148.5C148.584 282.76 148.696 282.788 148.837 282.816C148.977 282.844 149.118 282.914 149.258 283.027C149.399 283.139 149.567 283.237 149.764 283.322C149.961 283.406 150.101 283.56 150.185 283.785C150.27 284.01 150.382 284.221 150.523 284.417C150.663 284.614 150.705 284.895 150.649 285.26C150.649 285.878 150.452 286.426 150.059 286.904C149.666 287.382 149.034 287.634 148.163 287.663Z" fill="black"/>
<path d="M164.767 295.08C164.795 294.911 164.838 294.687 164.894 294.406C164.95 294.125 165.119 293.591 165.4 292.804C165.68 292.017 165.961 291.357 166.242 290.823C166.523 290.29 166.973 289.77 167.591 289.264C168.209 288.758 168.827 288.519 169.445 288.548C170.063 288.576 170.668 288.674 171.258 288.843C171.848 289.011 172.269 289.264 172.522 289.601C172.775 289.938 173 290.247 173.196 290.528C173.393 290.809 173.505 291.076 173.533 291.329L173.618 291.624C173.618 291.68 173.632 291.708 173.66 291.708L174.123 291.245C175.809 289.447 177.79 288.548 180.066 288.548C180.543 288.548 180.979 288.576 181.372 288.632C181.766 288.688 182.131 288.786 182.468 288.927C182.805 289.067 183.072 289.208 183.269 289.348C183.465 289.489 183.676 289.657 183.901 289.854C184.126 290.051 184.266 290.233 184.322 290.402C184.379 290.57 184.491 290.753 184.659 290.95C184.828 291.146 184.884 291.315 184.828 291.456C184.772 291.596 184.814 291.722 184.954 291.835C185.095 291.947 185.123 292.046 185.039 292.13L185.376 291.708C187.146 289.601 189.239 288.548 191.655 288.548C193.173 288.548 194.395 288.927 195.322 289.685C196.249 290.444 196.727 291.554 196.755 293.015C196.755 294.448 196.221 296.667 195.153 299.674C194.086 302.68 193.552 304.478 193.552 305.068C193.58 305.461 193.65 305.728 193.763 305.869C193.875 306.009 194.086 306.08 194.395 306.08C195.182 306.08 195.912 305.658 196.586 304.815C197.261 303.972 197.808 302.82 198.23 301.359C198.314 301.05 198.399 300.868 198.483 300.812C198.567 300.755 198.792 300.727 199.157 300.727C199.719 300.727 200 300.84 200 301.064C200 301.093 199.944 301.303 199.831 301.697C199.607 302.511 199.298 303.312 198.904 304.099C198.511 304.885 197.865 305.672 196.966 306.459C196.067 307.246 195.097 307.625 194.058 307.597C192.737 307.597 191.782 307.217 191.192 306.459C190.602 305.7 190.307 304.914 190.307 304.099C190.307 303.565 190.813 301.879 191.824 299.041C192.835 296.204 193.355 294.068 193.383 292.636C193.383 290.978 192.765 290.149 191.529 290.149H191.318C188.902 290.149 186.865 291.568 185.207 294.406L184.912 294.911L183.522 300.559C182.594 304.239 182.061 306.22 181.92 306.501C181.555 307.26 180.951 307.639 180.108 307.639C179.743 307.639 179.448 307.541 179.223 307.344C178.998 307.147 178.844 306.979 178.759 306.838C178.675 306.698 178.633 306.557 178.633 306.417C178.633 306.108 179.11 304.099 180.066 300.39L181.583 294.237C181.667 293.816 181.709 293.282 181.709 292.636C181.709 290.978 181.091 290.149 179.855 290.149H179.644C177.228 290.149 175.191 291.568 173.533 294.406L173.238 294.911L171.848 300.559C170.92 304.239 170.387 306.22 170.246 306.501C169.881 307.26 169.277 307.639 168.434 307.639C168.069 307.639 167.774 307.555 167.549 307.386C167.324 307.217 167.17 307.049 167.085 306.88C167.001 306.712 166.973 306.571 167.001 306.459C167.001 306.094 167.535 303.79 168.602 299.547C169.698 295.22 170.246 292.959 170.246 292.762C170.33 292.341 170.373 291.961 170.373 291.624C170.373 290.613 170.021 290.107 169.319 290.107C168.701 290.107 168.181 290.5 167.76 291.287C167.338 292.074 167.015 292.931 166.79 293.858C166.566 294.785 166.397 295.291 166.285 295.375C166.228 295.431 166.004 295.459 165.61 295.459H165.02C164.852 295.291 164.767 295.164 164.767 295.08Z" fill="black"/>
<path d="M483 734L503.207 699H462.793L483 734ZM479.5 592V702.5H486.5V592H479.5Z" fill="#37B643"/>
<path d="M532.778 698.675C532.778 697.384 532.287 696.738 531.305 696.738C530.066 696.738 528.774 697.487 527.431 698.985C526.088 700.483 524.977 702.782 524.099 705.881C524.048 705.933 523.996 706.01 523.944 706.113C523.893 706.217 523.867 706.294 523.867 706.346C523.867 706.397 523.815 706.449 523.712 706.501C523.609 706.552 523.531 706.578 523.479 706.578C523.428 706.578 523.325 706.578 523.17 706.578C523.015 706.578 522.808 706.578 522.55 706.578H521.465C521.155 706.268 521 706.036 521 705.881C521 705.519 521.207 704.77 521.62 703.634C522.033 702.497 522.653 701.154 523.479 699.605C524.306 698.055 525.442 696.738 526.889 695.653C528.335 694.568 529.962 694 531.77 693.948C533.94 693.948 535.619 694.568 536.807 695.808C537.995 697.048 538.615 698.494 538.666 700.147C538.666 701.025 538.589 701.697 538.434 702.162C538.434 702.472 538.046 703.608 537.272 705.571C536.497 707.534 535.696 709.833 534.87 712.467C534.043 715.101 533.578 717.4 533.475 719.363C533.475 720.758 533.604 721.894 533.862 722.772C534.534 724.994 536.161 726.104 538.744 726.104C540.655 726.104 542.437 725.226 544.09 723.47C545.743 721.713 547.035 719.673 547.964 717.349C548.894 715.024 549.643 712.88 550.211 710.917C550.78 708.954 551.064 707.534 551.064 706.656C551.064 705.468 550.857 704.435 550.444 703.556C550.031 702.678 549.566 702.007 549.049 701.542C548.533 701.077 548.068 700.612 547.654 700.147C547.241 699.682 547.035 699.114 547.035 698.442C547.035 697.306 547.525 696.247 548.507 695.266C549.488 694.284 550.547 693.793 551.684 693.793C552.665 693.793 553.543 694.258 554.318 695.188C555.093 696.118 555.506 697.616 555.558 699.682C555.558 701.077 555.248 703.221 554.628 706.113C554.008 709.006 553.052 712.235 551.761 715.799C550.47 719.363 548.636 722.437 546.26 725.019C543.884 727.602 541.146 728.919 538.046 728.971C534.74 728.971 532.106 728.119 530.143 726.414C528.232 724.761 527.276 722.307 527.276 719.053C527.276 717.452 527.483 715.799 527.896 714.094C528.309 712.39 529.368 709.368 531.073 705.029C532.209 701.723 532.778 699.605 532.778 698.675Z" fill="black"/>
<path d="M582.817 701.232C582.817 700.56 583.178 700.044 583.901 699.682H633.258C634.033 700.095 634.421 700.612 634.421 701.232C634.421 701.8 634.059 702.291 633.336 702.704L608.696 702.782H584.056C583.23 702.523 582.817 702.007 582.817 701.232ZM582.817 716.264C582.817 715.489 583.23 714.972 584.056 714.714H633.336C634.059 715.231 634.421 715.747 634.421 716.264C634.421 716.935 634.033 717.452 633.258 717.813H583.901C583.178 717.452 582.817 716.935 582.817 716.264Z" fill="black"/>
<path d="M656.271 676.36C654.411 676.36 652.758 676.67 651.312 677.289C649.866 677.909 648.884 678.529 648.368 679.149L647.593 680.001C647.696 680.001 647.825 680.027 647.98 680.079C648.135 680.131 648.419 680.234 648.833 680.389C649.246 680.544 649.633 680.776 649.995 681.086C650.356 681.396 650.666 681.809 650.925 682.326C651.183 682.842 651.312 683.462 651.312 684.185C651.312 685.374 650.925 686.355 650.15 687.13C649.375 687.905 648.394 688.292 647.205 688.292C646.017 688.292 645.036 687.931 644.261 687.207C643.486 686.484 643.073 685.503 643.021 684.263C643.021 681.215 644.184 678.762 646.508 676.902C648.833 675.042 651.39 673.932 654.179 673.57C654.282 673.57 654.566 673.57 655.031 673.57C655.496 673.57 655.858 673.544 656.116 673.493H656.426C659.164 673.493 661.54 673.828 663.555 674.5C665.569 675.172 667.067 676.101 668.049 677.289C669.03 678.478 669.779 679.614 670.296 680.699C670.812 681.783 671.045 682.946 670.993 684.185C670.993 687.491 669.572 690.203 666.731 692.321C661.876 695.782 658.931 699.889 657.898 704.641C657.64 705.881 657.511 707.482 657.511 709.445V710.762C657.511 711.744 657.433 712.312 657.278 712.467C657.123 712.622 656.684 712.725 655.961 712.777C655.238 712.829 654.799 712.751 654.644 712.545C654.489 712.338 654.411 711.899 654.411 711.227V708.825C654.515 705.158 654.98 702.007 655.806 699.372C656.633 696.738 657.537 694.827 658.518 693.638C659.5 692.45 660.455 691.262 661.385 690.074C662.315 688.886 662.909 687.698 663.167 686.51C663.27 686.045 663.322 685.089 663.322 683.643V682.636C663.322 681.758 663.27 681.034 663.167 680.466C663.064 679.898 662.78 679.252 662.315 678.529C661.85 677.806 661.153 677.264 660.223 676.902C659.293 676.54 657.976 676.36 656.271 676.36ZM651.312 723.392C651.312 721.946 651.777 720.809 652.707 719.983C653.637 719.156 654.773 718.743 656.116 718.743C657.304 718.847 658.337 719.286 659.215 720.06C660.094 720.835 660.533 721.946 660.533 723.392C660.533 724.942 660.094 726.104 659.215 726.879C658.337 727.654 657.253 728.041 655.961 728.041C654.67 728.041 653.585 727.654 652.707 726.879C651.829 726.104 651.364 724.942 651.312 723.392Z" fill="black"/>
</svg>
