<svg width="679" height="252" viewBox="0 0 679 252" fill="none" xmlns="http://www.w3.org/2000/svg">
<path d="M360.006 143.9C489.217 279.613 660.923 237.69 675 250H4C90.8653 172.745 230.795 8.18637 360.006 143.9Z" fill="#64BC1F" stroke="#0A6B08" stroke-width="3"/>
<path d="M330.128 205.493C397.647 192.999 408.4 291.298 435 205.493C327.716 138.643 320.567 76.7763 215.864 98.3823C215.864 98.3823 119.518 149.992 200.212 141.943C280.906 133.894 190.867 172.47 258.126 180.431C325.385 188.392 262.609 217.987 330.128 205.493Z" fill="#9CFF4F"/>
<path d="M256.238 40.3911L224.582 40.3911H207.738C200.668 40.3911 194.937 46.123 194.937 53.198V77.0577H201.963C202.265 67.5159 210.097 59.87 219.713 59.87C229.33 59.87 237.162 67.5159 237.464 77.0577H257.537C257.84 67.5159 265.669 59.87 275.288 59.87C284.905 59.87 292.734 67.5159 293.036 77.0577H300.062V61.443C300.062 51.1625 292.693 42.6022 282.949 40.7605C281.673 40.5176 280.356 40.3911 279.01 40.3911H256.238Z" fill="#F95428"/>
<path d="M262.803 40.7605C261.526 40.5176 260.209 40.3911 258.863 40.3911H279.01C280.356 40.3911 281.673 40.5178 282.949 40.7605C292.693 42.6022 300.062 51.1625 300.062 61.443V77.0577H279.915V61.443C279.915 51.1625 272.546 42.6022 262.803 40.7605Z" fill="#D33924"/>
<path d="M256.238 13.6073V40.3911H279.01C280.356 40.3911 281.673 40.5178 282.949 40.7605L283.021 40.3911C283.021 25.6005 271.028 13.6073 256.238 13.6073Z" fill="#2197D8"/>
<path d="M224.582 22.2865V40.3911H256.238V13.6073L233.262 13.6073C228.467 13.6073 224.582 17.4922 224.582 22.2865Z" fill="#2BA5F7"/>
<path d="M219.713 69.324C215.134 69.324 211.406 73.0513 211.406 77.6312C211.406 82.2135 215.133 85.9384 219.713 85.9384C224.293 85.9384 228.021 82.2137 228.021 77.6312C228.02 73.0513 224.293 69.324 219.713 69.324Z" fill="#F7B239"/>
<path d="M275.288 69.324C270.705 69.324 266.98 73.0513 266.98 77.6312C266.98 82.2135 270.705 85.9384 275.288 85.9384C279.867 85.9384 283.595 82.2137 283.595 77.6312C283.595 73.0513 279.867 69.324 275.288 69.324Z" fill="#F7B239"/>
<path d="M201.962 77.0577C201.955 77.2463 201.952 77.44 201.952 77.6312C201.952 87.4416 209.905 95.3923 219.713 95.3923C229.521 95.3923 237.474 87.4416 237.474 77.6312C237.474 77.44 237.472 77.2463 237.464 77.0577C237.161 67.5159 229.33 59.87 219.713 59.87C210.096 59.87 202.265 67.5157 201.962 77.0577ZM211.406 77.631C211.406 73.0513 215.133 69.3238 219.713 69.3238C224.293 69.3238 228.02 73.0511 228.02 77.631C228.02 82.2133 224.293 85.9382 219.713 85.9382C215.133 85.9382 211.406 82.2135 211.406 77.631Z" fill="#999999"/>
<path d="M257.537 77.0577C257.529 77.2463 257.526 77.44 257.526 77.6312C257.526 87.4416 265.477 95.3923 275.287 95.3923C285.095 95.3923 293.046 87.4416 293.046 77.6312C293.046 77.44 293.043 77.2463 293.035 77.0577C292.733 67.5159 284.904 59.87 275.287 59.87C265.668 59.87 257.839 67.5157 257.537 77.0577ZM266.981 77.631C266.981 73.0513 270.705 69.3238 275.288 69.3238C279.868 69.3238 283.595 73.0511 283.595 77.631C283.595 82.2133 279.868 85.9382 275.288 85.9382C270.705 85.9382 266.981 82.2135 266.981 77.631Z" fill="#999999"/>
<path d="M201.394 64.5478C202.464 64.5478 203.331 63.6805 203.331 62.6105V53.1981C203.331 50.7654 205.308 48.7862 207.738 48.7862C208.809 48.7862 209.676 47.9189 209.676 46.8489C209.676 45.7789 208.809 44.9116 207.738 44.9116C203.172 44.9116 199.457 48.6289 199.457 53.1981V62.6105C199.457 63.6805 200.324 64.5478 201.394 64.5478Z" fill="white"/>
<path d="M231.04 30.8402C232.11 30.8402 232.977 29.9729 232.977 28.9029V22.2864C232.977 22.1325 233.108 22.0022 233.261 22.0022C234.332 22.0022 235.199 21.1349 235.199 20.0649C235.199 18.9949 234.332 18.1276 233.261 18.1276C230.968 18.1276 229.103 19.9934 229.103 22.2864V28.9029C229.103 29.9729 229.97 30.8402 231.04 30.8402Z" fill="white"/>
<path d="M231.041 36.651C229.971 36.651 229.103 35.7837 229.103 34.7137C229.103 33.6438 229.971 32.7764 231.041 32.7764C232.111 32.7764 232.978 33.6438 232.978 34.7137C232.978 35.7837 232.111 36.651 231.041 36.651Z" fill="white"/>
<path d="M207.739 38.4546H222.646V22.2854C222.646 16.4322 227.408 11.6702 233.261 11.6702L256.237 11.6702C271.685 11.6702 284.32 23.9291 284.933 39.2291C294.748 41.8488 302 50.8146 302 61.4443V77.0589C302 78.1289 301.133 78.9963 300.063 78.9963H294.932C294.228 89.2231 285.689 97.3298 275.287 97.3298C264.885 97.3298 256.345 89.2231 255.642 78.9963H239.359C238.655 89.2231 230.116 97.3298 219.714 97.3298C209.312 97.3298 200.772 89.2231 200.069 78.9963H194.937C193.867 78.9963 193 78.1289 193 77.0589V53.1969C193 45.0679 199.612 38.4546 207.739 38.4546ZM226.52 22.2854V38.4546H254.3V15.545H233.261C229.544 15.545 226.52 18.5689 226.52 22.2854ZM258.174 15.62V38.4544H279.011C279.686 38.4544 280.354 38.4855 281.015 38.5428C280.113 26.3426 270.363 16.5646 258.174 15.62ZM275.287 93.4551C284.012 93.4551 291.11 86.357 291.11 77.6318C291.11 68.9067 284.012 61.8085 275.287 61.8085C266.562 61.8085 259.463 68.9067 259.463 77.6318C259.463 86.357 266.562 93.4551 275.287 93.4551ZM219.713 93.4551C228.438 93.4551 235.537 86.357 235.537 77.6318C235.537 68.9067 228.438 61.8085 219.713 61.8085C210.988 61.8085 203.89 68.9067 203.89 77.6318C203.89 86.357 210.988 93.4551 219.713 93.4551ZM196.875 75.1216H200.181C201.419 65.4421 209.703 57.9339 219.713 57.9339C229.724 57.9339 238.008 65.4419 239.246 75.1216H255.754C256.992 65.4421 265.276 57.9339 275.286 57.9339C285.297 57.9339 293.581 65.4419 294.819 75.1216H298.125V61.4443C298.125 50.9041 289.551 42.3295 279.011 42.3295H207.739C201.749 42.3295 196.874 47.2047 196.874 53.1969V75.1216H196.875Z" fill="#333333"/>
<path d="M275.287 67.3871C280.935 67.3871 285.531 71.983 285.531 77.6318C285.531 83.2807 280.935 87.8766 275.287 87.8766C269.638 87.8766 265.042 83.2807 265.042 77.6318C265.042 71.983 269.638 67.3871 275.287 67.3871ZM275.287 84.002C278.799 84.002 281.657 81.1443 281.657 77.6318C281.657 74.1194 278.799 71.2617 275.287 71.2617C271.774 71.2617 268.916 74.1194 268.916 77.6318C268.916 81.1443 271.774 84.002 275.287 84.002Z" fill="#333333"/>
<path d="M219.713 67.3871C225.362 67.3871 229.958 71.983 229.958 77.6318C229.958 83.2807 225.362 87.8766 219.713 87.8766C214.064 87.8766 209.469 83.2809 209.469 77.6318C209.469 71.983 214.064 67.3871 219.713 67.3871ZM219.713 84.002C223.226 84.002 226.083 81.1443 226.083 77.6318C226.083 74.1194 223.226 71.2617 219.713 71.2617C216.201 71.2617 213.343 74.1194 213.343 77.6318C213.343 81.1443 216.201 84.002 219.713 84.002Z" fill="#333333"/>
<path d="M238.586 48.7617H246.335C247.405 48.7617 248.272 49.629 248.272 50.699C248.272 51.769 247.405 52.6363 246.335 52.6363H238.586C237.516 52.6363 236.649 51.769 236.649 50.699C236.649 49.629 237.516 48.7617 238.586 48.7617Z" fill="#333333"/>
<path d="M323 70.2582C323.043 70.0001 323.108 69.656 323.194 69.2259C323.28 68.7958 323.538 67.9786 323.968 66.7743C324.398 65.57 324.828 64.5593 325.258 63.742C325.688 62.9248 326.376 62.1291 327.323 61.355C328.269 60.5808 329.215 60.2152 330.161 60.2582C331.108 60.3012 332.032 60.4517 332.935 60.7098C333.839 60.9679 334.484 61.355 334.871 61.8711C335.258 62.3872 335.602 62.8603 335.903 63.2904C336.204 63.7205 336.376 64.1291 336.419 64.5162L336.548 64.9679C336.548 65.0539 336.57 65.0969 336.613 65.0969L337.323 64.3872C339.903 61.6345 342.935 60.2582 346.419 60.2582C347.151 60.2582 347.817 60.3012 348.419 60.3872C349.022 60.4732 349.581 60.6238 350.097 60.8388C350.613 61.0539 351.022 61.2689 351.323 61.484C351.624 61.699 351.946 61.9571 352.29 62.2582C352.634 62.5593 352.849 62.8388 352.935 63.0969C353.022 63.3549 353.194 63.6345 353.452 63.9356C353.71 64.2367 353.796 64.4947 353.71 64.7098C353.624 64.9248 353.688 65.1184 353.903 65.2904C354.118 65.4625 354.161 65.613 354.032 65.742L354.548 65.0969C357.258 61.8711 360.462 60.2582 364.161 60.2582C366.484 60.2582 368.355 60.8388 369.774 62.0001C371.194 63.1614 371.925 64.8603 371.968 67.0969C371.968 69.2904 371.151 72.6883 369.516 77.2904C367.882 81.8926 367.065 84.6453 367.065 85.5485C367.108 86.1506 367.215 86.5592 367.387 86.7743C367.559 86.9894 367.882 87.0969 368.355 87.0969C369.559 87.0969 370.677 86.4517 371.71 85.1614C372.742 83.8711 373.581 82.1076 374.226 79.8711C374.355 79.398 374.484 79.1184 374.613 79.0324C374.742 78.9463 375.086 78.9033 375.645 78.9033C376.505 78.9033 376.935 79.0754 376.935 79.4195C376.935 79.4625 376.849 79.7851 376.677 80.3872C376.333 81.6345 375.86 82.8603 375.258 84.0646C374.656 85.2689 373.667 86.4732 372.29 87.6775C370.914 88.8818 369.43 89.4625 367.839 89.4195C365.817 89.4195 364.355 88.8388 363.452 87.6775C362.548 86.5162 362.097 85.3119 362.097 84.0646C362.097 83.2474 362.871 80.6668 364.419 76.3227C365.968 71.9786 366.763 68.7098 366.806 66.5162C366.806 63.9786 365.86 62.7098 363.968 62.7098H363.645C359.946 62.7098 356.828 64.8818 354.29 69.2259L353.839 70.0001L351.71 78.6453C350.29 84.2797 349.473 87.3119 349.258 87.742C348.699 88.9033 347.774 89.484 346.484 89.484C345.925 89.484 345.473 89.3334 345.129 89.0324C344.785 88.7313 344.548 88.4732 344.419 88.2582C344.29 88.0431 344.226 87.8281 344.226 87.613C344.226 87.1399 344.957 84.0646 346.419 78.3872L348.742 68.9679C348.871 68.3227 348.935 67.5055 348.935 66.5162C348.935 63.9786 347.989 62.7098 346.097 62.7098H345.774C342.075 62.7098 338.957 64.8818 336.419 69.2259L335.968 70.0001L333.839 78.6453C332.419 84.2797 331.602 87.3119 331.387 87.742C330.828 88.9033 329.903 89.484 328.613 89.484C328.054 89.484 327.602 89.3549 327.258 89.0969C326.914 88.8388 326.677 88.5808 326.548 88.3227C326.419 88.0646 326.376 87.8496 326.419 87.6775C326.419 87.1184 327.237 83.5915 328.871 77.0969C330.548 70.4732 331.387 67.0109 331.387 66.7098C331.516 66.0646 331.581 65.484 331.581 64.9679C331.581 63.4195 331.043 62.6453 329.968 62.6453C329.022 62.6453 328.226 63.2474 327.581 64.4517C326.935 65.656 326.441 66.9679 326.097 68.3872C325.753 69.8066 325.495 70.5808 325.323 70.7098C325.237 70.7958 324.892 70.8388 324.29 70.8388H323.387C323.129 70.5808 323 70.3872 323 70.2582Z" fill="black"/>
<path d="M399.826 66.3875C399.826 65.8283 400.127 65.3982 400.729 65.0971H441.826C442.471 65.4412 442.793 65.8713 442.793 66.3875C442.793 66.8606 442.492 67.2692 441.89 67.6133L421.374 67.6778H400.858C400.17 67.4627 399.826 67.0326 399.826 66.3875ZM399.826 78.9036C399.826 78.2584 400.17 77.8283 400.858 77.6133H441.89C442.492 78.0434 442.793 78.4735 442.793 78.9036C442.793 79.4627 442.471 79.8928 441.826 80.1939H400.729C400.127 79.8928 399.826 79.4627 399.826 78.9036Z" fill="black"/>
<path d="M478.071 51.4842L477.232 51.8068C476.63 52.0218 475.77 52.2369 474.651 52.452C473.533 52.667 472.286 52.8175 470.909 52.9036H469.684V49.9358H470.909C472.931 49.8498 474.802 49.5272 476.522 48.9681C478.243 48.4089 479.447 47.8928 480.135 47.4197C480.823 46.9466 481.426 46.4735 481.942 46.0003C482.028 45.8713 482.286 45.8068 482.716 45.8068C483.103 45.8068 483.469 45.9358 483.813 46.1939V65.4842L483.877 84.8391C484.178 85.1401 484.436 85.3337 484.651 85.4197C484.866 85.5057 485.383 85.5917 486.2 85.6778C487.017 85.7638 488.35 85.8068 490.2 85.8068H491.877V88.7745H491.167C490.264 88.6455 486.845 88.581 480.909 88.581C475.06 88.581 471.684 88.6455 470.78 88.7745H470.006V85.8068H471.684C472.63 85.8068 473.447 85.8068 474.135 85.8068C474.823 85.8068 475.361 85.7853 475.748 85.7423C476.135 85.6993 476.479 85.6348 476.78 85.5487C477.081 85.4627 477.253 85.4197 477.296 85.4197C477.34 85.4197 477.469 85.3122 477.684 85.0971C477.899 84.8821 478.028 84.796 478.071 84.8391V51.4842Z" fill="black"/>
<path d="M503.619 61.0971C502.458 61.0971 501.533 60.71 500.845 59.9358C500.157 59.1616 499.813 58.2154 499.813 57.0971C499.813 54.0434 500.953 51.3982 503.232 49.1616C505.512 46.9251 508.351 45.8068 511.748 45.8068C515.662 45.8068 518.931 47.0111 521.555 49.4197C524.179 51.8283 525.512 54.9466 525.555 58.7745C525.555 60.624 525.125 62.3874 524.265 64.0649C523.404 65.7423 522.372 67.2046 521.168 68.452C519.964 69.6993 518.243 71.2907 516.007 73.2261C514.458 74.5595 512.308 76.538 509.555 79.1616L505.748 82.7745L510.652 82.8391C517.404 82.8391 520.996 82.7315 521.426 82.5165C521.727 82.4305 522.243 80.5165 522.974 76.7745V76.581H525.555V76.7745C525.512 76.9036 525.232 78.8606 524.716 82.6455C524.2 86.4305 523.878 88.4089 523.748 88.581V88.7745H499.813V87.5487V86.7745C499.813 86.4735 499.942 86.1509 500.2 85.8068C500.458 85.4627 501.103 84.71 502.136 83.5487C503.383 82.1724 504.458 80.9681 505.361 79.9358C505.748 79.5057 506.48 78.71 507.555 77.5487C508.63 76.3874 509.361 75.5917 509.748 75.1616C510.136 74.7315 510.759 74.0218 511.619 73.0326C512.48 72.0434 513.082 71.3122 513.426 70.8391C513.77 70.3659 514.265 69.7208 514.91 68.9036C515.555 68.0864 516.007 67.3982 516.265 66.8391C516.523 66.2799 516.845 65.6563 517.232 64.9681C517.619 64.2799 517.899 63.5917 518.071 62.9036C518.243 62.2154 518.394 61.5702 518.523 60.9681C518.652 60.3659 518.716 59.6563 518.716 58.8391C518.716 56.1294 517.985 53.7853 516.523 51.8068C515.06 49.8283 512.974 48.8391 510.265 48.8391C508.845 48.8391 507.598 49.2046 506.523 49.9358C505.447 50.667 504.695 51.3767 504.265 52.0649C503.834 52.753 503.619 53.1616 503.619 53.2907C503.619 53.3337 503.727 53.3552 503.942 53.3552C504.716 53.3552 505.512 53.6563 506.329 54.2584C507.146 54.8606 507.555 55.8498 507.555 57.2261C507.555 58.3014 507.211 59.2046 506.523 59.9358C505.834 60.667 504.867 61.0541 503.619 61.0971Z" fill="black"/>
<path d="M535.039 51.0324C537.447 47.5486 540.738 45.8066 544.91 45.8066C546.974 45.8066 549.039 46.3658 551.103 47.4841C553.168 48.6023 554.845 50.5808 556.136 53.4195C557.727 56.9894 558.523 61.8927 558.523 68.1292C558.523 74.7959 557.598 79.8927 555.748 83.4195C554.888 85.226 553.705 86.6668 552.2 87.7421C550.695 88.8174 549.383 89.484 548.265 89.7421C547.146 90.0002 546.049 90.1507 544.974 90.1937C543.856 90.1937 542.738 90.0647 541.619 89.8066C540.501 89.5486 539.189 88.8604 537.684 87.7421C536.179 86.6238 534.996 85.183 534.136 83.4195C532.286 79.8927 531.361 74.7959 531.361 68.1292C531.361 60.6453 532.587 54.9464 535.039 51.0324ZM549.555 50.2582C548.265 48.8819 546.738 48.1937 544.974 48.1937C543.168 48.1937 541.619 48.8819 540.329 50.2582C539.254 51.3765 538.544 52.9249 538.2 54.9034C537.856 56.8819 537.684 61.0109 537.684 67.2905C537.684 74.0862 537.856 78.5593 538.2 80.7099C538.544 82.8604 539.318 84.5593 540.523 85.8066C541.727 87.097 543.211 87.7421 544.974 87.7421C546.695 87.7421 548.157 87.097 549.361 85.8066C550.609 84.5163 551.383 82.7099 551.684 80.3873C551.985 78.0647 552.157 73.6991 552.2 67.2905C552.2 61.0539 552.028 56.9464 551.684 54.9679C551.34 52.9894 550.63 51.4195 549.555 50.2582Z" fill="black"/>
<path d="M567.297 51.0324C569.706 47.5486 572.996 45.8066 577.168 45.8066C579.233 45.8066 581.297 46.3658 583.362 47.4841C585.426 48.6023 587.103 50.5808 588.394 53.4195C589.985 56.9894 590.781 61.8927 590.781 68.1292C590.781 74.7959 589.856 79.8927 588.007 83.4195C587.147 85.226 585.964 86.6668 584.458 87.7421C582.953 88.8174 581.641 89.484 580.523 89.7421C579.405 90.0002 578.308 90.1507 577.233 90.1937C576.114 90.1937 574.996 90.0647 573.878 89.8066C572.759 89.5486 571.448 88.8604 569.942 87.7421C568.437 86.6238 567.254 85.183 566.394 83.4195C564.544 79.8927 563.62 74.7959 563.62 68.1292C563.62 60.6453 564.845 54.9464 567.297 51.0324ZM581.813 50.2582C580.523 48.8819 578.996 48.1937 577.233 48.1937C575.426 48.1937 573.878 48.8819 572.587 50.2582C571.512 51.3765 570.802 52.9249 570.458 54.9034C570.114 56.8819 569.942 61.0109 569.942 67.2905C569.942 74.0862 570.114 78.5593 570.458 80.7099C570.802 82.8604 571.577 84.5593 572.781 85.8066C573.985 87.097 575.469 87.7421 577.233 87.7421C578.953 87.7421 580.415 87.097 581.62 85.8066C582.867 84.5163 583.641 82.7099 583.942 80.3873C584.243 78.0647 584.415 73.6991 584.458 67.2905C584.458 61.0539 584.286 56.9464 583.942 54.9679C583.598 52.9894 582.888 51.4195 581.813 50.2582Z" fill="black"/>
<path d="M601.168 47.0324C601.168 46.6023 601.254 46.1076 601.426 45.5485C601.598 44.9894 601.856 44.7098 602.2 44.7098C602.243 44.7098 603.791 44.6023 606.845 44.3872C609.899 44.1722 611.469 44.0431 611.555 44.0001C612.071 44.0001 612.329 44.1722 612.329 44.5162C612.329 44.8173 611.254 49.3119 609.103 58.0001C606.953 66.5162 605.877 70.9248 605.877 71.2259C606.695 70.7958 607.318 70.3872 607.748 70.0001C608.781 69.2259 610.264 67.8711 612.2 65.9356C614.135 64.0001 615.641 62.6883 616.716 62.0001C618.436 60.8388 620.071 60.2582 621.619 60.2582C622.91 60.2582 623.92 60.6668 624.652 61.484C625.383 62.3012 625.77 63.4625 625.813 64.9678C625.813 66.0431 625.662 66.9463 625.361 67.6775C625.06 68.4087 624.652 68.9463 624.135 69.2904C623.619 69.6345 623.168 69.8711 622.781 70.0001C622.393 70.1291 622.006 70.1937 621.619 70.1937C620.759 70.1937 620.071 69.9571 619.555 69.484C619.039 69.0109 618.781 68.3872 618.781 67.613C618.781 66.5377 619.125 65.656 619.813 64.9678C620.501 64.2797 621.189 63.8281 621.877 63.613L622.91 63.4195C622.393 62.9033 621.877 62.6453 621.361 62.6453H621.103C619.727 62.7743 618.372 63.3119 617.039 64.2582C615.705 65.2044 614.135 66.5808 612.329 68.3872C610.523 70.1937 609.103 71.5055 608.071 72.3227C608.157 72.3657 608.48 72.4302 609.039 72.5162C609.598 72.6023 610.114 72.7313 610.587 72.9033C611.06 73.0754 611.619 73.2474 612.264 73.4195C612.91 73.5915 613.49 73.8926 614.006 74.3227C614.523 74.7528 614.996 75.1399 615.426 75.484C615.856 75.8281 616.221 76.3872 616.523 77.1614C616.824 77.9356 616.953 78.6453 616.91 79.2904C616.91 80.0216 616.802 80.9033 616.587 81.9356C616.372 82.9678 616.243 83.8281 616.2 84.5162C616.2 86.2367 616.781 87.0969 617.942 87.0969C620.006 87.0969 621.684 84.5377 622.974 79.4195C623.06 79.0754 623.49 78.9033 624.264 78.9033H624.523C625.211 78.9033 625.555 79.0969 625.555 79.484C625.555 79.699 625.49 80.0001 625.361 80.3872C623.598 86.4517 621.06 89.484 617.748 89.484C615.813 89.484 614.243 88.9248 613.039 87.8066C611.834 86.6883 611.232 85.0754 611.232 82.9678C611.232 82.1937 611.297 81.527 611.426 80.9678C611.555 80.4087 611.619 79.8926 611.619 79.4195C611.619 78.4732 611.318 77.656 610.716 76.9678C610.114 76.2797 609.361 75.7851 608.458 75.484C607.555 75.1829 606.824 74.9463 606.264 74.7743C605.705 74.6023 605.318 74.5377 605.103 74.5808H604.974C604.458 76.3872 604.006 78.1291 603.619 79.8066C603.232 81.484 602.931 82.7313 602.716 83.5485C602.501 84.3657 602.307 85.1614 602.135 85.9356C601.963 86.7098 601.813 87.2259 601.684 87.484C601.555 87.742 601.404 88.0216 601.232 88.3227C601.06 88.6238 600.824 88.8173 600.523 88.9033C599.963 89.2904 599.361 89.484 598.716 89.484C597.985 89.484 597.426 89.2689 597.039 88.8388C596.652 88.4087 596.458 88.0431 596.458 87.742C596.458 87.3119 597.254 83.8711 598.845 77.4195C600.437 70.9678 602.006 64.6238 603.555 58.3872L605.942 49.0324C605.985 48.4732 605.834 48.1291 605.49 48.0001C605.146 47.8711 604.307 47.7635 602.974 47.6775H602.652C602.221 47.6775 601.942 47.6775 601.813 47.6775C601.684 47.6775 601.533 47.613 601.361 47.484C601.189 47.3549 601.125 47.2044 601.168 47.0324Z" fill="black"/>
<path d="M647.039 86C646.394 86.5591 645.448 87.1613 644.2 87.8065C642.953 88.4516 641.641 88.7742 640.265 88.7742C637.555 88.7742 635.383 87.8065 633.749 85.871C632.114 83.9355 631.276 81.4624 631.233 78.4516C631.233 73.9355 632.888 69.7849 636.2 66C639.512 62.2151 643.19 60.3011 647.233 60.2581C649.254 60.2581 651.125 61.2903 652.845 63.3548L653.039 63.0968C653.125 62.9677 653.233 62.8387 653.362 62.7097C653.491 62.5806 653.684 62.4086 653.942 62.1935C654.2 61.9785 654.48 61.828 654.781 61.7419C655.082 61.6559 655.426 61.5914 655.813 61.5484C656.415 61.5484 656.91 61.7419 657.297 62.129C657.684 62.5161 657.899 62.9247 657.942 63.3548C657.942 64 656.716 69.2043 654.265 78.9677C651.813 88.7312 650.523 93.7204 650.394 93.9355C649.62 96.2581 647.964 98.172 645.426 99.6774C642.888 101.183 639.985 101.957 636.716 102C630.652 102 627.62 100.538 627.62 97.6129C627.62 96.4946 628.007 95.5054 628.781 94.6452C629.555 93.7849 630.544 93.3548 631.749 93.3548C632.394 93.3548 632.996 93.5484 633.555 93.9355C634.114 94.3226 634.415 94.9892 634.458 95.9355C634.458 96.3656 634.415 96.7742 634.329 97.1613C634.243 97.5484 634.093 97.8495 633.878 98.0645C633.663 98.2796 633.491 98.4946 633.362 98.7097C633.233 98.9247 633.082 99.0968 632.91 99.2258L632.781 99.3548H632.845C633.276 99.4839 634.566 99.5484 636.716 99.5484C638.351 99.5484 639.641 99.2903 640.587 98.7742C641.577 98.3011 642.501 97.5914 643.362 96.6452C644.222 95.6989 644.824 94.6882 645.168 93.6129C645.426 92.7957 645.77 91.4624 646.2 89.6129C646.759 87.5484 647.039 86.3441 647.039 86ZM651.749 67.6129L651.491 66.9032C651.362 66.4301 651.254 66.1075 651.168 65.9355C651.082 65.7634 650.953 65.4624 650.781 65.0323C650.609 64.6022 650.394 64.3011 650.136 64.129C649.878 63.957 649.598 63.7204 649.297 63.4194C648.996 63.1183 648.609 62.9247 648.136 62.8387C647.663 62.7527 647.19 62.6882 646.716 62.6452C644.824 62.6452 642.996 63.7849 641.233 66.0645C639.942 67.7419 638.867 70.3011 638.007 73.7419C637.147 77.1828 636.716 79.6774 636.716 81.2258C636.716 84.6237 638.05 86.3226 640.716 86.3226C643.125 86.3226 645.491 84.8172 647.813 81.8065L648.329 81.1613L651.749 67.6129Z" fill="black"/>
<path d="M244 92L235.34 107L252.66 107L244 92ZM244 248L252.66 233L235.34 233L244 248ZM242.5 105.5L242.5 234.5L245.5 234.5L245.5 105.5L242.5 105.5Z" fill="black"/>
<path d="M198.959 169.737C199.004 169.737 200.611 169.625 203.78 169.402C206.949 169.179 208.579 169.045 208.668 169C209.204 169 209.471 169.201 209.471 169.603C209.471 170.094 208.668 173.464 207.061 179.713C205.365 186.32 204.517 189.69 204.517 189.824C204.517 189.913 204.673 189.801 204.985 189.489C207.708 187.078 210.61 185.873 213.69 185.873C216.1 185.873 218.042 186.476 219.515 187.681C220.988 188.886 221.747 190.649 221.791 192.971C221.791 195.247 220.943 198.774 219.247 203.55C217.551 208.326 216.703 211.183 216.703 212.12C216.747 212.745 216.859 213.169 217.038 213.392C217.216 213.616 217.551 213.727 218.042 213.727C219.292 213.727 220.452 213.058 221.524 211.719C222.595 210.379 223.465 208.549 224.135 206.228C224.269 205.737 224.403 205.447 224.537 205.358C224.671 205.268 225.028 205.224 225.608 205.224C226.501 205.224 226.947 205.402 226.947 205.759C226.947 205.804 226.858 206.139 226.679 206.764C225.965 209.397 224.827 211.562 223.265 213.259C221.747 215.178 219.939 216.138 217.841 216.138H217.506C215.408 216.138 213.891 215.535 212.953 214.33C212.016 213.125 211.547 211.852 211.547 210.513C211.547 209.799 212.351 207.165 213.958 202.612C215.564 198.059 216.39 194.645 216.435 192.368C216.435 189.734 215.453 188.418 213.489 188.418H213.154C209.449 188.418 206.235 190.605 203.512 194.979L203.044 195.85L200.767 204.889C199.339 210.692 198.513 213.861 198.29 214.397C197.709 215.602 196.727 216.205 195.343 216.205C194.719 216.205 194.183 216.004 193.737 215.602C193.29 215.2 193.045 214.799 193 214.397C193 213.772 194.629 206.987 197.888 194.042L202.843 174.223C202.843 173.642 202.686 173.285 202.374 173.151C202.062 173.017 201.191 172.906 199.763 172.817H198.357C198.089 172.549 197.955 172.37 197.955 172.281C197.955 172.192 197.999 171.768 198.089 171.009C198.312 170.161 198.602 169.737 198.959 169.737Z" fill="black"/>
<path d="M250.704 192.234C250.704 191.653 251.016 191.207 251.641 190.895H294.293C294.962 191.252 295.297 191.698 295.297 192.234C295.297 192.725 294.984 193.149 294.36 193.506L273.067 193.573H251.775C251.061 193.35 250.704 192.903 250.704 192.234ZM250.704 205.223C250.704 204.554 251.061 204.107 251.775 203.884H294.36C294.984 204.331 295.297 204.777 295.297 205.223C295.297 205.804 294.962 206.25 294.293 206.563H251.641C251.016 206.25 250.704 205.804 250.704 205.223Z" fill="black"/>
<path d="M328.628 204.956C328.628 206.027 328.271 206.92 327.556 207.634C326.842 208.349 325.972 208.706 324.945 208.706H324.476C326.53 212.232 329.253 213.995 332.645 213.995C335.77 213.995 338.046 212.656 339.475 209.978C340.323 208.505 340.747 205.648 340.747 201.407C340.747 196.81 340.144 193.707 338.939 192.1C337.779 190.627 336.484 189.891 335.056 189.891H334.654C331.172 189.891 328.538 191.409 326.753 194.444C326.574 194.756 326.418 194.935 326.284 194.98C326.15 195.024 325.816 195.069 325.28 195.113C324.521 195.113 324.097 194.98 324.008 194.712C323.918 194.533 323.874 190.627 323.874 182.994V174.357C323.874 172.125 323.985 171.009 324.209 171.009C324.298 170.92 324.387 170.875 324.476 170.875C324.521 170.875 324.99 171.054 325.882 171.411C326.775 171.768 328.003 172.125 329.565 172.482C331.127 172.839 332.801 173.018 334.587 173.018C337.756 173.018 340.792 172.393 343.693 171.143C344.05 170.964 344.34 170.875 344.563 170.875C344.921 170.875 345.099 171.277 345.099 172.08V172.951C341.439 177.281 336.863 179.446 331.373 179.446C329.989 179.446 328.739 179.312 327.623 179.044L326.954 178.91V190.426C327.802 189.802 328.471 189.311 328.963 188.953C329.454 188.596 330.257 188.239 331.373 187.882C332.489 187.525 333.627 187.346 334.788 187.346C338.403 187.346 341.461 188.797 343.961 191.699C346.461 194.6 347.71 198.037 347.71 202.01C347.71 206.117 346.282 209.621 343.425 212.522C340.568 215.424 337.087 216.897 332.98 216.941C329.364 216.941 326.463 215.736 324.276 213.326C322.088 210.915 320.995 208.192 320.995 205.157C320.995 204.086 321.24 203.238 321.731 202.613C322.222 201.988 322.736 201.586 323.271 201.407C323.807 201.229 324.32 201.14 324.811 201.14C325.927 201.14 326.842 201.519 327.556 202.278C328.271 203.037 328.628 203.929 328.628 204.956Z" fill="black"/>
<path d="M352.532 196.251C352.576 195.984 352.643 195.627 352.733 195.18C352.822 194.734 353.09 193.886 353.536 192.636C353.982 191.386 354.429 190.337 354.875 189.489C355.322 188.641 356.036 187.815 357.018 187.011C358 186.208 358.982 185.829 359.964 185.873C360.946 185.918 361.906 186.074 362.843 186.342C363.781 186.61 364.45 187.011 364.852 187.547C365.254 188.083 365.611 188.574 365.923 189.02C366.236 189.467 366.414 189.891 366.459 190.292L366.593 190.761C366.593 190.85 366.615 190.895 366.66 190.895L367.396 190.158C370.074 187.302 373.221 185.873 376.837 185.873C377.596 185.873 378.288 185.918 378.913 186.007C379.538 186.096 380.118 186.253 380.654 186.476C381.189 186.699 381.613 186.922 381.926 187.145C382.238 187.369 382.573 187.636 382.93 187.949C383.287 188.261 383.51 188.551 383.6 188.819C383.689 189.087 383.868 189.377 384.135 189.69C384.403 190.002 384.493 190.27 384.403 190.493C384.314 190.716 384.381 190.917 384.604 191.096C384.827 191.274 384.872 191.431 384.738 191.564L385.274 190.895C388.086 187.547 391.411 185.873 395.25 185.873C397.661 185.873 399.602 186.476 401.076 187.681C402.549 188.886 403.307 190.649 403.352 192.971C403.352 195.247 402.504 198.774 400.808 203.55C399.111 208.326 398.263 211.183 398.263 212.12C398.308 212.745 398.42 213.169 398.598 213.392C398.777 213.616 399.111 213.727 399.602 213.727C400.852 213.727 402.013 213.058 403.084 211.719C404.156 210.379 405.026 208.549 405.696 206.228C405.829 205.737 405.963 205.447 406.097 205.358C406.231 205.268 406.588 205.224 407.169 205.224C408.061 205.224 408.508 205.402 408.508 205.759C408.508 205.804 408.418 206.139 408.24 206.764C407.883 208.058 407.392 209.33 406.767 210.58C406.142 211.83 405.115 213.08 403.687 214.33C402.258 215.58 400.718 216.182 399.067 216.138C396.969 216.138 395.451 215.535 394.514 214.33C393.576 213.125 393.108 211.875 393.108 210.58C393.108 209.732 393.911 207.054 395.518 202.545C397.125 198.037 397.951 194.645 397.996 192.368C397.996 189.734 397.013 188.418 395.049 188.418H394.715C390.876 188.418 387.64 190.672 385.006 195.18L384.537 195.984L382.328 204.956C380.855 210.803 380.006 213.95 379.783 214.397C379.203 215.602 378.243 216.205 376.904 216.205C376.324 216.205 375.855 216.048 375.498 215.736C375.141 215.423 374.895 215.156 374.761 214.932C374.628 214.709 374.561 214.486 374.561 214.263C374.561 213.772 375.319 210.58 376.837 204.688L379.248 194.912C379.381 194.243 379.448 193.395 379.448 192.368C379.448 189.734 378.466 188.418 376.502 188.418H376.168C372.329 188.418 369.092 190.672 366.459 195.18L365.99 195.984L363.781 204.956C362.307 210.803 361.459 213.95 361.236 214.397C360.656 215.602 359.696 216.205 358.357 216.205C357.777 216.205 357.308 216.071 356.951 215.803C356.594 215.535 356.348 215.267 356.214 214.999C356.08 214.732 356.036 214.508 356.08 214.33C356.08 213.75 356.929 210.089 358.625 203.349C360.366 196.475 361.236 192.881 361.236 192.569C361.37 191.899 361.437 191.297 361.437 190.761C361.437 189.154 360.879 188.351 359.763 188.351C358.781 188.351 357.955 188.975 357.286 190.225C356.616 191.475 356.103 192.837 355.746 194.31C355.389 195.783 355.121 196.586 354.942 196.72C354.853 196.809 354.496 196.854 353.871 196.854H352.933C352.666 196.586 352.532 196.385 352.532 196.251Z" fill="black"/>
</svg>
