<svg width="521" height="161" viewBox="0 0 521 161" fill="none" xmlns="http://www.w3.org/2000/svg">
<rect x="92.5" y="38.4998" width="24" height="54" fill="#FF2A23" stroke="black"/>
<rect x="116.5" y="38.4998" width="24" height="54" fill="#FF2A23" stroke="black"/>
<rect x="140.5" y="38.4998" width="24" height="54" fill="#FF2A23" stroke="black"/>
<rect x="164.5" y="38.4998" width="24" height="54" fill="#FF2A23" stroke="black"/>
<rect x="188.5" y="38.4998" width="24" height="54" fill="#FF2A23" stroke="black"/>
<rect x="212.5" y="38.4998" width="24" height="54" fill="#64BC1F" stroke="black"/>
<rect x="236.5" y="38.4998" width="24" height="54" fill="#64BC1F" stroke="black"/>
<rect x="260.5" y="38.4998" width="24" height="54" fill="#64BC1F" stroke="black"/>
<rect x="284.5" y="38.4998" width="24" height="54" fill="#64BC1F" stroke="black"/>
<rect x="308.5" y="38.4998" width="24" height="54" fill="#64BC1F" stroke="black"/>
<rect x="332.5" y="38.4998" width="24" height="54" fill="#64BC1F" stroke="black"/>
<rect x="356.5" y="38.4998" width="24" height="54" fill="#64BC1F" stroke="black"/>
<rect x="380.5" y="38.4998" width="24" height="54" fill="#B0833E" stroke="black"/>
<rect x="404.5" y="38.4998" width="24" height="54" fill="#B0833E" stroke="black"/>
<path d="M157.648 8.78237C157.216 8.78237 157 8.69136 157 8.50935C157 8.39558 157.182 7.75852 157.546 6.59816C157.91 5.4378 158.297 4.28882 158.706 3.15121L159.287 1.47893C159.4 1.06939 159.548 0.773612 159.73 0.591594H175.702H178.774C179.502 0.591594 179.934 0.60297 180.071 0.625723C180.207 0.648475 180.287 0.750859 180.31 0.932877C180.31 1.06939 180.116 2.36626 179.729 4.8235C179.343 7.28073 179.126 8.52072 179.081 8.54347C179.081 8.70274 178.865 8.78237 178.433 8.78237C178.228 8.78237 178.091 8.78237 178.023 8.78237C177.955 8.78237 177.886 8.72549 177.818 8.61173L177.75 8.50935C177.75 8.37283 177.818 7.86091 177.955 6.97357C178.091 6.08624 178.16 5.3923 178.16 4.89175C178.16 4.09543 178.012 3.49249 177.716 3.08296C177.42 2.67342 176.794 2.38901 175.839 2.22975C175.725 2.207 175.065 2.18425 173.859 2.16149C172.813 2.16149 172.153 2.17287 171.88 2.19562C171.607 2.21837 171.402 2.30938 171.266 2.46865C171.243 2.4914 170.435 5.66533 168.842 11.9904C167.25 18.3155 166.454 21.535 166.454 21.6487C166.454 21.9217 167.455 22.081 169.457 22.1265C170.185 22.1265 170.651 22.1379 170.856 22.1606C171.061 22.1834 171.163 22.2858 171.163 22.4678C171.163 22.5816 171.129 22.7408 171.061 22.9456C170.97 23.3551 170.867 23.594 170.754 23.6623L170.685 23.6964C170.617 23.6964 170.538 23.6964 170.447 23.6964C170.333 23.6964 169.741 23.685 168.672 23.6623C167.603 23.6395 166.067 23.6282 164.065 23.6282C161.13 23.6282 159.264 23.6509 158.468 23.6964H157.956C157.819 23.5599 157.751 23.4575 157.751 23.3893C157.751 23.321 157.774 23.1162 157.819 22.7749C157.91 22.4792 158.024 22.263 158.16 22.1265H159.116H159.491C161.312 22.1265 162.392 22.0241 162.734 21.8194C162.756 21.7966 162.779 21.7852 162.802 21.7852C162.916 21.717 163.029 21.4895 163.143 21.1027C163.257 20.7159 163.712 18.9298 164.508 15.7445C164.895 14.1974 165.214 12.9346 165.464 11.9563C167.056 5.69945 167.853 2.50278 167.853 2.36626C167.853 2.2525 167.523 2.19562 166.863 2.19562H165.805C164.281 2.19562 163.28 2.26388 162.802 2.40039C161.778 2.62791 160.982 3.09433 160.413 3.79965C159.844 4.50497 159.23 5.82459 158.57 7.75852C158.411 8.25907 158.297 8.55485 158.229 8.64586C158.16 8.73687 158.001 8.78237 157.751 8.78237H157.648Z" fill="black"/>
<path d="M187.169 24.0718C185.463 24.0718 184.086 23.5144 183.04 22.3996C181.993 21.2847 181.47 19.9423 181.47 18.3724C181.47 16.8935 181.811 15.4943 182.494 14.1746C183.176 12.855 184.109 11.706 185.292 10.7277C187.021 9.33982 188.785 8.64588 190.582 8.64588C191.31 8.64588 191.765 8.65725 191.947 8.68C192.243 8.74826 192.539 8.82789 192.834 8.9189C193.13 9.00991 193.528 9.19193 194.029 9.46495C194.529 9.73798 194.939 10.0793 195.258 10.4888C195.576 10.8983 195.872 11.4558 196.145 12.1611C196.418 12.8664 196.554 13.6627 196.554 14.5501C196.554 16.9845 195.576 19.1801 193.619 21.1368C191.663 23.0935 189.513 24.0718 187.169 24.0718ZM184.439 19.601C184.439 20.7386 184.735 21.5577 185.326 22.0583C185.918 22.5588 186.589 22.8091 187.34 22.8091C188.341 22.8091 189.285 22.4451 190.172 21.717C191.06 20.9889 191.765 20.0333 192.288 18.8502C192.493 18.3724 192.755 17.5306 193.073 16.3247C193.392 15.1189 193.551 14.0723 193.551 13.1849C193.551 12.1838 193.346 11.4216 192.937 10.8983C192.391 10.2158 191.663 9.87449 190.753 9.87449C189.319 9.87449 188.056 10.5343 186.964 11.8539C186.123 12.855 185.497 14.186 185.087 15.8469C184.678 17.5078 184.462 18.7592 184.439 19.601Z" fill="black"/>
<path d="M197.749 10.5571C197.59 10.3978 197.51 10.284 197.51 10.2158C197.51 10.1248 197.544 9.94275 197.613 9.66972C197.681 9.3967 197.738 9.23743 197.783 9.19193C197.829 9.07817 197.931 9.02129 198.09 9.02129C198.25 9.02129 198.83 9.00991 199.831 8.98716H201.64L202.288 6.2569C202.356 6.00663 202.436 5.67672 202.527 5.26718C202.618 4.85764 202.698 4.56186 202.766 4.37985C202.834 4.19783 202.903 3.97031 202.971 3.69728C203.039 3.42426 203.13 3.23086 203.244 3.1171C203.358 3.00334 203.471 2.86683 203.585 2.70756C203.699 2.5483 203.858 2.44591 204.063 2.40041C204.268 2.35491 204.472 2.33215 204.677 2.33215C205.087 2.35491 205.371 2.48004 205.53 2.70756C205.69 2.93509 205.769 3.15123 205.769 3.356C205.769 3.51527 205.667 4.04994 205.462 4.96003C205.257 5.87011 205.03 6.76882 204.78 7.65616L204.438 8.9189C204.438 8.96441 205.007 8.98716 206.145 8.98716H207.885C208.045 9.14642 208.124 9.27156 208.124 9.36257C208.124 9.86312 207.976 10.2613 207.68 10.5571H204.029L202.8 15.5057C201.913 19.146 201.469 21.1027 201.469 21.3757C201.469 22.3313 201.776 22.8091 202.391 22.8091C203.187 22.8091 203.96 22.4223 204.711 21.6487C205.462 20.8752 206.065 19.9196 206.52 18.782C206.566 18.6454 206.622 18.5658 206.691 18.5431C206.759 18.5203 206.93 18.4976 207.203 18.4748H207.339C207.68 18.4748 207.851 18.5658 207.851 18.7478C207.851 18.8161 207.817 18.9526 207.749 19.1574C207.635 19.5214 207.43 19.9537 207.134 20.4542C206.839 20.9548 206.452 21.4895 205.974 22.0583C205.496 22.6271 204.916 23.1049 204.234 23.4917C203.551 23.8784 202.857 24.0718 202.152 24.0718C201.469 24.0718 200.821 23.9012 200.206 23.5599C199.592 23.2186 199.148 22.6271 198.875 21.7852C198.83 21.6032 198.807 21.2961 198.807 20.8638V20.2495L200.002 15.4715C200.798 12.2635 201.207 10.6481 201.23 10.6253C201.23 10.5798 200.65 10.5571 199.49 10.5571H197.749Z" fill="black"/>
<path d="M210.308 18.3382C210.308 16.0403 211.173 13.8561 212.902 11.7856C214.631 9.71518 216.576 8.66858 218.738 8.64583C219.898 8.64583 220.922 9.20325 221.809 10.3181C222.173 9.63554 222.697 9.29426 223.379 9.29426C223.675 9.29426 223.937 9.38527 224.164 9.56729C224.392 9.7493 224.505 9.97683 224.505 10.2499C224.505 10.5456 224.085 12.3658 223.243 15.7104C222.401 19.0549 221.969 20.9434 221.946 21.3757C221.946 21.9445 222.025 22.3199 222.185 22.5019C222.344 22.6839 222.583 22.7863 222.901 22.809C223.106 22.7863 223.334 22.6839 223.584 22.5019C224.062 22.0468 224.528 20.9547 224.983 19.2256C225.12 18.7705 225.234 18.5316 225.325 18.5089C225.37 18.4861 225.484 18.4748 225.666 18.4748H225.802C226.235 18.4748 226.451 18.5771 226.451 18.7819C226.451 18.9184 226.394 19.2256 226.28 19.7034C226.166 20.1812 225.939 20.7955 225.598 21.5463C225.256 22.2971 224.892 22.8659 224.505 23.2527C224.21 23.5485 223.846 23.7874 223.413 23.9694C223.231 24.0149 222.958 24.0377 222.594 24.0377C221.821 24.0377 221.172 23.867 220.649 23.5257C220.126 23.1845 219.784 22.8318 219.625 22.4678L219.42 21.9558C219.398 21.9331 219.352 21.9445 219.284 21.99C219.238 22.0355 219.193 22.081 219.147 22.1265C217.805 23.4006 216.44 24.0377 215.052 24.0377C213.801 24.0377 212.697 23.5826 211.741 22.6725C210.786 21.7624 210.308 20.3177 210.308 18.3382ZM221.161 12.5023C221.161 12.3658 221.104 12.1155 220.99 11.7515C220.876 11.3875 220.615 10.9893 220.205 10.557C219.796 10.1247 219.272 9.89719 218.635 9.87444C217.839 9.87444 217.077 10.2271 216.349 10.9324C215.621 11.6377 215.052 12.5592 214.642 13.6968C213.983 15.4942 213.516 17.3599 213.243 19.2938C213.243 19.3621 213.243 19.4872 213.243 19.6692C213.243 19.8513 213.232 19.9878 213.209 20.0788C213.209 21.1026 213.414 21.8079 213.823 22.1947C214.233 22.5815 214.722 22.7863 215.291 22.809C216.155 22.809 217.009 22.4336 217.85 21.6828C218.692 20.932 219.193 20.3518 219.352 19.9423C219.398 19.8513 219.705 18.634 220.274 16.2905C220.842 13.9471 221.138 12.6843 221.161 12.5023Z" fill="black"/>
<path d="M231.229 21.6828C231.229 22.4337 231.513 22.8091 232.082 22.8091C232.924 22.8091 233.641 21.6146 234.232 19.2256C234.369 18.7706 234.482 18.5317 234.573 18.5089C234.619 18.4862 234.733 18.4748 234.915 18.4748H235.051C235.256 18.4748 235.392 18.4748 235.461 18.4748C235.529 18.4748 235.586 18.4975 235.631 18.543C235.677 18.5885 235.7 18.6682 235.7 18.7819C235.677 18.9184 235.643 19.1005 235.597 19.328C235.552 19.5555 235.427 19.9878 235.222 20.6249C235.017 21.2619 234.79 21.7966 234.539 22.2289C234.289 22.6612 233.936 23.0821 233.481 23.4916C233.026 23.9012 232.503 24.0946 231.911 24.0718C231.092 24.0718 230.33 23.8215 229.625 23.321C228.92 22.8204 228.555 21.9786 228.533 20.7955C228.533 20.5225 228.544 20.3291 228.567 20.2153L230.785 11.4102C232.219 5.60844 232.935 2.61653 232.935 2.43451C232.935 2.36626 232.924 2.30938 232.901 2.26387C232.878 2.21837 232.833 2.17286 232.765 2.12736C232.696 2.08185 232.639 2.0591 232.594 2.0591C232.548 2.0591 232.457 2.04773 232.321 2.02497C232.184 2.00222 232.093 1.99085 232.048 1.99085C232.002 1.99085 231.9 1.97947 231.741 1.95672C231.582 1.93397 231.468 1.93397 231.399 1.95672C231.172 1.95672 231.024 1.95672 230.956 1.95672C230.888 1.95672 230.797 1.94534 230.683 1.92259C230.569 1.89984 230.501 1.86571 230.478 1.8202C230.455 1.7747 230.444 1.70644 230.444 1.61543C230.444 1.56993 230.467 1.41067 230.512 1.13764C230.626 0.705349 230.751 0.466451 230.888 0.420947C231.024 0.375443 231.843 0.307186 233.345 0.216177C233.686 0.193425 234.073 0.170673 234.505 0.147921C234.937 0.125169 235.279 0.0910406 235.529 0.0455362C235.779 3.19319e-05 235.904 -0.0113441 235.904 0.011408C236.177 0.011408 236.314 0.102417 236.314 0.284434C236.314 0.534708 235.483 3.94753 233.823 10.5229C232.162 17.0983 231.308 20.5452 231.263 20.8638C231.263 20.9093 231.263 21.0003 231.263 21.1368C231.263 21.2733 231.252 21.3871 231.229 21.4781V21.6828Z" fill="black"/>
<path d="M262.729 16.4271C262.274 16.4271 262.047 16.2792 262.047 15.9834C262.047 15.8924 262.104 15.6194 262.217 15.1644C262.331 14.7093 262.388 14.3111 262.388 13.9699C262.388 13.2645 262.149 12.8323 261.671 12.673C261.193 12.5137 260.09 12.4341 258.361 12.4341H256.586C256.563 12.4796 256.165 14.0495 255.392 17.1438C254.618 20.2381 254.231 21.8307 254.231 21.9217C254.231 22.0128 254.356 22.0583 254.607 22.0583C254.857 22.0583 255.767 22.081 257.337 22.1265C259.476 22.1265 260.886 22.1038 261.569 22.0583C262.251 22.0128 262.934 21.8649 263.617 21.6146C264.731 21.2506 265.653 20.6135 266.381 19.7034C267.109 18.7933 267.917 17.3031 268.804 15.2326C269.032 14.7321 269.179 14.459 269.248 14.4135C269.407 14.368 269.578 14.3453 269.76 14.3453C270.215 14.3453 270.442 14.4932 270.442 14.7889C268.053 20.568 266.802 23.5144 266.688 23.6282C266.62 23.6737 263.366 23.6964 256.927 23.6964H250.477C248.156 23.6964 246.996 23.5713 246.996 23.321C246.996 23.2755 247.03 23.1162 247.098 22.8432C247.189 22.4792 247.28 22.2744 247.372 22.2289C247.463 22.1834 247.724 22.1493 248.156 22.1265C248.771 22.1265 249.453 22.0924 250.204 22.0241C250.523 21.9559 250.739 21.8194 250.853 21.6146C250.898 21.5008 251.706 18.3041 253.276 12.0246C254.846 5.74496 255.642 2.55966 255.665 2.46865C255.665 2.30938 255.619 2.22975 255.528 2.22975C255.346 2.16149 254.743 2.10461 253.719 2.05911H252.661C252.525 1.9226 252.457 1.83159 252.457 1.78608C252.457 1.74058 252.479 1.54718 252.525 1.2059C252.616 0.819116 252.73 0.580218 252.866 0.48921H271.773C271.932 0.580218 272.012 0.705355 272.012 0.86462C272.012 0.978381 271.864 2.2525 271.568 4.68698C271.273 7.12146 271.113 8.37283 271.091 8.44109C271.045 8.60035 270.818 8.67999 270.408 8.67999H269.999C269.839 8.56623 269.76 8.41834 269.76 8.23632L269.862 7.45137C269.93 6.90532 269.964 6.31376 269.964 5.6767C269.964 4.99414 269.885 4.42533 269.725 3.97029C269.566 3.51525 269.35 3.16259 269.077 2.91231C268.804 2.66204 268.406 2.48002 267.883 2.36626C267.359 2.2525 266.825 2.17287 266.279 2.12737C265.732 2.08186 265.004 2.05911 264.094 2.05911H262.49C260.488 2.08186 259.43 2.11599 259.316 2.16149C259.225 2.207 259.157 2.30938 259.112 2.46865C259.089 2.5369 258.736 3.93616 258.054 6.66642C257.371 9.39668 257.018 10.7846 256.996 10.8301C257.519 10.8528 258.065 10.8642 258.634 10.8642H259.521C261.023 10.8642 262.058 10.6936 262.627 10.3523C263.196 10.011 263.708 9.08953 264.163 7.58788C264.254 7.22385 264.322 7.01908 264.367 6.97357C264.413 6.92807 264.606 6.89394 264.948 6.87119C265.061 6.87119 265.152 6.87119 265.221 6.87119C265.289 6.87119 265.346 6.88257 265.391 6.90532C265.437 6.92807 265.459 6.93945 265.459 6.93945C265.459 6.93945 265.482 6.98495 265.528 7.07596C265.573 7.16697 265.607 7.21247 265.63 7.21247L264.504 11.7174C263.753 14.7434 263.344 16.2792 263.275 16.3247C263.207 16.393 263.025 16.4271 262.729 16.4271Z" fill="black"/>
<path d="M272.729 13.9016C272.752 13.7651 272.786 13.5831 272.831 13.3556C272.877 13.1281 273.013 12.6958 273.241 12.0587C273.468 11.4216 273.696 10.887 273.923 10.4547C274.151 10.0224 274.526 9.60147 275.05 9.19193C275.573 8.78239 276.096 8.58899 276.62 8.61175C277.439 8.61175 278.121 8.81652 278.667 9.22606C279.213 9.63559 279.555 10.0224 279.691 10.3864C279.828 10.7504 279.896 10.9893 279.896 11.1031C279.896 11.1486 279.907 11.1714 279.93 11.1714L280.305 10.796C281.693 9.33982 283.275 8.61175 285.049 8.61175C286.278 8.61175 287.268 8.9189 288.018 9.53321C288.769 10.1475 289.156 11.0462 289.179 12.2293C289.202 13.4125 288.769 15.1985 287.882 17.5875C286.995 19.9764 286.562 21.4212 286.585 21.9218C286.585 22.5133 286.778 22.8091 287.165 22.8091C287.302 22.8091 287.404 22.7977 287.472 22.775C288.132 22.6612 288.724 22.2289 289.247 21.4781C289.77 20.7273 290.169 19.8172 290.442 18.7478C290.487 18.5658 290.715 18.4748 291.124 18.4748C291.579 18.4748 291.807 18.5658 291.807 18.7478C291.807 18.7706 291.761 18.9412 291.67 19.2598C291.488 19.9196 291.238 20.568 290.919 21.2051C290.601 21.8421 290.078 22.4792 289.349 23.1162C288.621 23.7533 287.836 24.0605 286.995 24.0377C285.925 24.0377 285.152 23.7306 284.674 23.1162C284.196 22.5019 283.957 21.8649 283.957 21.2051C283.957 20.7728 284.367 19.4076 285.186 17.1097C286.005 14.8117 286.426 13.0825 286.449 11.9222C286.449 10.5798 285.948 9.90862 284.947 9.90862H284.776C282.82 9.90862 281.17 11.0576 279.828 13.3556L279.589 13.7651L278.463 18.3383C277.712 21.3188 277.279 22.9229 277.166 23.1504C276.87 23.7647 276.381 24.0718 275.698 24.0718C275.402 24.0718 275.163 24.0036 274.981 23.8671C274.799 23.7306 274.674 23.594 274.606 23.4575C274.538 23.321 274.515 23.2073 274.538 23.1162C274.538 22.8205 274.97 20.9662 275.835 17.5533C276.699 14.1405 277.154 12.2862 277.2 11.9904C277.223 11.8767 277.234 11.615 277.234 11.2055C277.234 10.3182 276.961 9.87449 276.415 9.87449C275.55 9.87449 274.834 11.0121 274.265 13.2873C274.128 13.7424 274.06 13.9813 274.06 14.004C274.015 14.1405 273.798 14.2088 273.412 14.2088H272.934C272.797 14.0723 272.729 13.9699 272.729 13.9016Z" fill="black"/>
<path d="M293.82 17.9629C293.82 16.666 294.036 15.4829 294.469 14.4135C294.901 13.3442 295.458 12.4569 296.141 11.7515C296.824 11.0462 297.586 10.4547 298.428 9.97688C299.269 9.49908 300.066 9.14642 300.817 8.9189C301.567 8.69138 302.284 8.589 302.967 8.61175H303.069C304.093 8.61175 304.98 8.86202 305.731 9.36257C306.482 9.86312 306.857 10.6026 306.857 11.5809C306.857 13.6286 305.595 14.971 303.069 15.608C301.954 15.9038 300.43 16.0631 298.496 16.0858C297.654 16.0858 297.222 16.1086 297.199 16.1541C297.199 16.1996 297.131 16.5978 296.994 17.3486C296.858 18.0994 296.778 18.7592 296.755 19.328C296.755 20.3974 296.994 21.2392 297.472 21.8535C297.95 22.4678 298.667 22.7863 299.622 22.8091C300.578 22.8318 301.636 22.6157 302.796 22.1607C303.956 21.7056 305.003 20.9548 305.936 19.9082C306.141 19.6807 306.277 19.5669 306.345 19.5669C306.436 19.5669 306.584 19.6693 306.789 19.8741C306.994 20.0788 307.108 20.2381 307.13 20.3519C307.153 20.4656 307.051 20.6476 306.823 20.8979C306.596 21.1482 306.254 21.4553 305.799 21.8194C305.344 22.1834 304.821 22.5361 304.229 22.8774C303.638 23.2186 302.921 23.503 302.079 23.7306C301.238 23.9581 300.373 24.0718 299.486 24.0718C297.688 24.0718 296.3 23.4689 295.322 22.263C294.344 21.0572 293.843 19.6238 293.82 17.9629ZM305.219 11.6492C305.083 10.466 304.309 9.87449 302.898 9.87449C302.148 9.87449 301.454 10.0338 300.817 10.3523C300.18 10.6708 299.668 11.0576 299.281 11.5126C298.894 11.9677 298.564 12.4341 298.291 12.9119C298.018 13.3897 297.836 13.7992 297.745 14.1405C297.654 14.4818 297.597 14.698 297.574 14.789C297.574 14.8117 297.802 14.8231 298.257 14.8231C300.828 14.8231 302.625 14.5501 303.649 14.004C304.673 13.458 305.196 12.673 305.219 11.6492Z" fill="black"/>
<path d="M309.109 13.9016C309.132 13.8334 309.155 13.7424 309.178 13.6286C309.2 13.5148 309.257 13.2646 309.348 12.8778C309.439 12.491 309.553 12.1383 309.69 11.8198C309.826 11.5013 309.997 11.1259 310.201 10.6936C310.406 10.2613 310.634 9.92 310.884 9.66972C311.134 9.41945 311.43 9.16917 311.771 8.9189C312.113 8.66863 312.488 8.56624 312.898 8.61175C313.557 8.61175 314.138 8.74826 314.638 9.02129C315.139 9.29431 315.491 9.54459 315.696 9.77211C315.901 9.99963 316.026 10.2272 316.072 10.4547C316.117 10.5912 316.151 10.6594 316.174 10.6594C316.197 10.6594 316.288 10.5798 316.447 10.4205C317.539 9.23743 318.802 8.64588 320.235 8.64588H320.338C321.43 8.64588 322.249 9.11229 322.795 10.0451C322.977 10.4774 323.068 10.8983 323.068 11.3079C323.068 11.9904 322.92 12.5365 322.624 12.946C322.328 13.3556 322.033 13.6172 321.737 13.731C321.441 13.8447 321.157 13.8902 320.884 13.8675C320.429 13.8675 320.065 13.7424 319.792 13.4921C319.518 13.2418 319.382 12.9119 319.382 12.5024C319.382 11.4103 320.019 10.6822 321.293 10.3182C320.793 10.0224 320.383 9.87449 320.065 9.87449C318.79 9.87449 317.619 10.7163 316.549 12.4C316.322 12.764 316.151 13.1394 316.037 13.5262C315.924 13.913 315.537 15.426 314.877 18.0653C314.103 21.2506 313.66 22.9456 313.546 23.1504C313.25 23.7647 312.761 24.0718 312.079 24.0718C311.783 24.0718 311.544 24.0036 311.362 23.8671C311.18 23.7306 311.055 23.594 310.986 23.4575C310.918 23.321 310.895 23.2073 310.918 23.1162C310.918 22.8205 311.373 20.8638 312.283 17.2462C313.193 13.6286 313.648 11.615 313.648 11.2055C313.648 10.3182 313.353 9.87449 312.761 9.87449C312.283 9.87449 311.874 10.193 311.532 10.8301C311.191 11.4671 310.918 12.1611 310.713 12.9119C310.509 13.6627 310.383 14.0723 310.338 14.1405C310.292 14.186 310.11 14.2088 309.792 14.2088H309.314C309.178 14.0723 309.109 13.9699 309.109 13.9016Z" fill="black"/>
<path d="M334.399 22.2289C334.057 22.5247 333.557 22.8432 332.897 23.1845C332.237 23.5258 331.543 23.6964 330.815 23.6964C329.382 23.6964 328.233 23.1845 327.368 22.1606C326.504 21.1368 326.06 19.8285 326.037 18.2359C326.037 15.8469 326.913 13.6513 328.665 11.6491C330.417 9.64694 332.362 8.63447 334.501 8.61172C335.57 8.61172 336.56 9.15777 337.47 10.2499L337.573 10.1134C337.618 10.0451 337.675 9.97685 337.743 9.90859C337.811 9.84033 337.914 9.74933 338.05 9.63557C338.187 9.5218 338.335 9.44217 338.494 9.39667C338.653 9.35116 338.835 9.31704 339.04 9.29428C339.359 9.29428 339.62 9.39667 339.825 9.60144C340.03 9.80621 340.143 10.0224 340.166 10.2499C340.166 10.5912 339.518 13.3442 338.221 18.5089C336.924 23.6736 336.242 26.3129 336.173 26.4267C335.764 27.6553 334.888 28.6677 333.545 29.4641C332.203 30.2604 330.667 30.6699 328.938 30.6927C325.73 30.6927 324.126 29.9191 324.126 28.372C324.126 27.7804 324.331 27.2571 324.74 26.8021C325.15 26.347 325.673 26.1195 326.31 26.1195C326.651 26.1195 326.97 26.2219 327.266 26.4267C327.562 26.6314 327.721 26.9841 327.744 27.4846C327.744 27.7122 327.721 27.9283 327.675 28.1331C327.63 28.3378 327.55 28.4971 327.436 28.6109C327.323 28.7246 327.232 28.8384 327.163 28.9521C327.095 29.0659 327.016 29.1569 326.924 29.2252L326.856 29.2934H326.89C327.118 29.3617 327.8 29.3958 328.938 29.3958C329.803 29.3958 330.485 29.2593 330.986 28.9863C331.509 28.736 331.998 28.3606 332.453 27.86C332.908 27.3595 333.227 26.8248 333.409 26.256C333.545 25.8237 333.727 25.1184 333.955 24.1401C334.251 23.048 334.399 22.4109 334.399 22.2289ZM336.89 12.5023L336.753 12.1269C336.685 11.8767 336.628 11.706 336.583 11.615C336.537 11.524 336.469 11.3647 336.378 11.1372C336.287 10.9097 336.173 10.7504 336.037 10.6594C335.9 10.5684 335.752 10.4433 335.593 10.284C335.434 10.1247 335.229 10.0224 334.979 9.97685C334.728 9.93134 334.478 9.89722 334.228 9.87446C333.227 9.87446 332.26 10.4774 331.327 11.6833C330.644 12.5706 330.076 13.9243 329.621 15.7445C329.166 17.5647 328.938 18.8843 328.938 19.7034C328.938 21.5008 329.643 22.3995 331.054 22.3995C332.328 22.3995 333.579 21.6032 334.808 20.0105L335.081 19.6693L336.89 12.5023Z" fill="black"/>
<path d="M340.781 13.9016C340.781 13.5831 340.951 13.037 341.293 12.2634C341.634 11.4899 342.18 10.6822 342.931 9.84033C343.682 8.99851 344.523 8.58897 345.456 8.61172C346.389 8.61172 347.14 8.87337 347.709 9.39667C348.278 9.91997 348.573 10.648 348.596 11.5809C348.551 12.0132 348.516 12.2521 348.494 12.2976C348.494 12.3658 348.312 12.8891 347.948 13.8675C347.584 14.8458 347.208 15.9493 346.821 17.1779C346.435 18.4065 346.253 19.3849 346.275 20.1129C346.275 21.0913 346.435 21.7738 346.753 22.1606C347.072 22.5474 347.55 22.7522 348.187 22.7749C348.71 22.7749 349.199 22.6498 349.654 22.3995C350.109 22.1493 350.462 21.8876 350.712 21.6146C350.962 21.3416 351.27 20.9661 351.634 20.4883C351.634 20.4656 351.69 20.2381 351.804 19.8058C351.918 19.3735 352.077 18.7023 352.282 17.7922C352.487 16.8821 352.703 16.0403 352.93 15.2667C353.795 11.8539 354.273 10.0679 354.364 9.90859C354.66 9.29428 355.149 8.98713 355.831 8.98713C356.127 8.98713 356.366 9.06676 356.548 9.22603C356.73 9.38529 356.855 9.5218 356.923 9.63557C356.992 9.74933 357.014 9.85171 356.992 9.94272C356.992 10.2385 356.434 12.6275 355.319 17.1096C354.205 21.5918 353.567 24.0491 353.408 24.4813C352.771 26.3698 351.668 27.8714 350.098 28.9863C348.528 30.1011 346.958 30.6699 345.388 30.6927C344.364 30.6927 343.466 30.4424 342.692 29.9419C341.918 29.4413 341.532 28.6905 341.532 27.6894C341.532 27.1889 341.611 26.7679 341.77 26.4267C341.93 26.0854 342.146 25.8351 342.419 25.6758C342.692 25.5166 342.919 25.4028 343.101 25.3346C343.283 25.2663 343.477 25.2322 343.682 25.2322C344.683 25.2322 345.183 25.71 345.183 26.6656C345.183 27.1206 345.047 27.5188 344.774 27.86C344.501 28.2013 344.239 28.4288 343.989 28.5426C343.739 28.6564 343.591 28.7133 343.545 28.7133L343.443 28.7474C343.488 28.8611 343.704 28.9977 344.091 29.1569C344.478 29.3162 344.865 29.3958 345.252 29.3958H345.525C345.911 29.3958 346.207 29.3731 346.412 29.3276C347.163 29.1228 347.857 28.6905 348.494 28.0307C349.131 27.3709 349.62 26.6656 349.961 25.9147C350.303 25.1639 350.564 24.5269 350.746 24.0036C350.928 23.4803 351.019 23.139 351.019 22.9797L350.814 23.1162C350.678 23.2072 350.462 23.3324 350.166 23.4916C349.87 23.6509 349.574 23.7874 349.279 23.9012C348.824 24.0149 348.38 24.0718 347.948 24.0718C346.901 24.0718 345.98 23.8215 345.183 23.321C344.387 22.8204 343.864 22.0127 343.613 20.8979C343.591 20.7386 343.579 20.386 343.579 19.8399C343.579 18.543 343.977 16.848 344.774 14.7548C345.57 12.6616 345.968 11.3306 345.968 10.7618C345.968 10.739 345.968 10.7163 345.968 10.6935C345.968 10.4888 345.968 10.3523 345.968 10.284C345.968 10.2157 345.923 10.1361 345.832 10.0451C345.741 9.9541 345.616 9.90859 345.456 9.90859H345.32C344.797 9.90859 344.319 10.1247 343.886 10.557C343.454 10.9893 343.113 11.4557 342.863 11.9563C342.612 12.4568 342.419 12.9346 342.282 13.3897C342.146 13.8447 342.055 14.095 342.009 14.1405C341.964 14.186 341.782 14.2087 341.463 14.2087H340.986C340.849 14.0722 340.781 13.9699 340.781 13.9016Z" fill="black"/>
<path d="M0 135.271C0 130.44 1.67119 126.551 5.01356 123.603C8.35594 120.656 12.8226 119.167 18.4134 119.137C19.4465 119.137 20.4341 119.228 21.376 119.41C22.318 119.593 23.1232 119.851 23.7916 120.185C24.4601 120.519 25.0222 120.808 25.478 121.051C25.9338 121.294 26.2984 121.537 26.5719 121.78C26.8454 122.023 26.9973 122.13 27.0277 122.099L28.714 120.686C28.9875 120.474 29.2458 120.261 29.4889 120.048C29.7319 119.836 29.9143 119.684 30.0358 119.593C30.1573 119.501 30.2637 119.425 30.3548 119.365C30.446 119.304 30.522 119.258 30.5827 119.228C30.6435 119.198 30.7195 119.182 30.8106 119.182C30.9018 119.182 30.9929 119.167 31.0841 119.137C31.4791 119.137 31.7222 119.213 31.8133 119.365C31.9045 119.517 31.9653 119.881 31.9956 120.459V122.327V128.617V130.44C31.9956 131.078 31.9349 131.458 31.8133 131.58C31.6918 131.701 31.3879 131.777 30.9018 131.807H30.446H29.8991C29.261 131.807 28.9115 131.549 28.8508 131.033C28.6381 129.149 28.0304 127.493 27.0277 126.065C25.6299 123.847 23.7309 122.525 21.3304 122.099C21.0266 122.039 20.4796 122.008 19.6896 122.008C15.4357 122.008 12.2452 123.239 10.1183 125.7C8.47748 127.675 7.65708 130.866 7.65708 135.271C7.65708 139.677 8.47748 142.868 10.1183 144.843C12.2149 147.304 15.4205 148.535 19.7352 148.535C22.7737 148.535 25.0982 147.623 26.7086 145.8C28.319 143.977 29.1394 142.078 29.1698 140.103C29.1698 139.768 29.2458 139.556 29.3977 139.465C29.5496 139.373 29.8535 139.328 30.3093 139.328H30.5827C31.0385 139.328 31.3424 139.343 31.4943 139.373C31.6462 139.404 31.7678 139.48 31.8589 139.601C31.9501 139.723 31.9956 139.936 31.9956 140.239C31.9956 143.217 30.6891 145.815 28.076 148.033C25.4628 150.251 22.2572 151.376 18.459 151.406C12.8681 151.406 8.40152 149.932 5.05914 146.985C1.71677 144.038 0.0303852 140.133 0 135.271Z" fill="black"/>
<path d="M48.0384 151.132C46.2456 151.132 44.6504 150.905 43.2527 150.449C41.855 149.993 40.7459 149.416 39.9255 148.717C39.1051 148.018 38.4062 147.198 37.8289 146.256C37.2516 145.314 36.887 144.417 36.7351 143.567C36.5831 142.716 36.4768 141.835 36.416 140.923C36.416 139.313 36.6895 137.869 37.2364 136.593C37.7834 135.317 38.4518 134.284 39.2418 133.494C40.0319 132.704 40.9434 132.081 41.9765 131.625C43.0096 131.169 43.9212 130.82 44.7112 130.577C45.5012 130.334 46.276 130.243 47.0357 130.303H47.6737C48.8892 130.303 49.6032 130.319 49.8159 130.349C52.9152 130.714 55.3308 131.853 57.0628 133.767C58.7947 135.682 59.6607 138.036 59.6607 140.832C59.6607 142.807 59.2353 144.524 58.3845 145.982C57.5338 147.441 56.4399 148.58 55.1029 149.4C53.3406 150.555 50.9857 151.132 48.0384 151.132ZM53.1431 140.422V139.51C53.1431 138.599 53.1279 137.869 53.0975 137.322C53.0671 136.775 52.9608 136.168 52.7785 135.499C52.5962 134.831 52.3075 134.314 51.9125 133.95C51.5175 133.585 51.0009 133.281 50.3628 133.038C49.7247 132.795 48.874 132.658 47.8105 132.628C46.5647 132.628 45.5012 132.947 44.62 133.585C43.9516 134.102 43.511 134.8 43.2983 135.682C43.0856 136.563 42.964 138.143 42.9336 140.422C42.9336 141.272 42.9336 141.895 42.9336 142.29C42.9336 142.685 42.964 143.232 43.0248 143.931C43.0856 144.63 43.1767 145.162 43.2983 145.526C43.4198 145.891 43.6021 146.301 43.8452 146.757C44.0883 147.213 44.3921 147.562 44.7568 147.805C45.1214 148.048 45.5772 148.231 46.1241 148.352C46.671 148.474 47.3091 148.565 48.0384 148.626C49.8919 148.626 51.2136 148.109 52.0036 147.076C52.429 146.559 52.7177 145.83 52.8696 144.888C53.0215 143.946 53.1127 142.457 53.1431 140.422Z" fill="black"/>
<path d="M62.9893 130.759C68.3675 130.516 71.0717 130.395 71.1021 130.395H71.3756V132.354L71.4212 134.269C71.6643 133.874 71.9681 133.479 72.3327 133.084C72.6974 132.689 73.3658 132.218 74.3382 131.671C75.3105 131.124 76.4195 130.729 77.6653 130.486C78.03 130.425 78.5769 130.395 79.3061 130.395C80.2177 130.395 80.9773 130.44 81.585 130.531C82.1927 130.622 82.846 130.82 83.5449 131.124C84.2437 131.428 84.8211 131.914 85.2768 132.582C85.7326 133.251 86.0669 134.102 86.2796 135.135C86.3403 135.469 86.3859 137.717 86.4163 141.88V148.079H89.5612V150.905H89.151C88.604 150.813 86.7049 150.768 83.4537 150.768C79.9594 150.768 78.0755 150.813 77.8021 150.905H77.3919V148.079H80.5367V142.062V138.371C80.5367 136.153 80.4 134.664 80.1265 133.904C79.8531 133.144 79.1694 132.749 78.0755 132.719C76.7082 132.719 75.4472 133.16 74.2926 134.041C73.1379 134.922 72.3783 136.137 72.0137 137.687C71.9529 137.96 71.9073 139.768 71.877 143.111V148.079H75.0218V150.905H74.6116C74.0647 150.813 72.1808 150.768 68.96 150.768C65.7088 150.768 63.8097 150.813 63.2627 150.905H62.8525V148.079H65.9974V141.333V137.094C65.9974 135.575 65.967 134.664 65.9063 134.36C65.8455 134.056 65.648 133.858 65.3137 133.767C64.8883 133.646 64.2655 133.585 63.4451 133.585H62.8525V130.759H62.9893Z" fill="black"/>
<path d="M92.0221 136.547C92.0221 135.818 92.1285 135.135 92.3412 134.496C92.5539 133.858 92.9337 133.19 93.4806 132.491C94.0276 131.792 94.8935 131.245 96.0786 130.85C97.2636 130.455 98.7221 130.258 100.454 130.258C101.973 130.258 103.447 130.516 104.875 131.033L105.695 130.622L106.561 130.258H106.972C107.397 130.258 107.655 130.349 107.746 130.531C107.838 130.714 107.883 131.382 107.883 132.537V133.266V134.724C107.883 135.454 107.838 135.894 107.746 136.046C107.655 136.198 107.382 136.274 106.926 136.274H106.47H106.197C105.711 136.274 105.407 136.228 105.285 136.137C105.164 136.046 105.088 135.788 105.057 135.362C104.845 133.387 103.325 132.4 100.5 132.4H100.135C97.3092 132.4 95.8963 133.205 95.8963 134.816C95.8963 135.393 96.2001 135.879 96.8078 136.274C97.4155 136.669 98.0992 136.927 98.8588 137.049C99.6184 137.17 100.469 137.322 101.411 137.505C102.353 137.687 102.976 137.808 103.28 137.869C103.888 138.021 104.495 138.219 105.103 138.462C105.711 138.705 106.44 139.252 107.291 140.103C108.142 140.953 108.734 141.941 109.068 143.065C109.129 143.369 109.159 143.825 109.159 144.432C109.159 148.929 106.364 151.178 100.773 151.178C98.4638 151.178 96.747 150.753 95.6228 149.902L93.3895 151.178H92.9337C92.5083 151.178 92.25 151.087 92.1589 150.905C92.0677 150.722 92.0221 150.084 92.0221 148.99V147.577C92.0221 147.213 92.0221 146.787 92.0221 146.301C92.0221 145.815 92.0069 145.496 91.9766 145.344C91.9766 144.676 92.0525 144.281 92.2045 144.159C92.3564 144.037 92.7514 143.961 93.3895 143.931H93.7085C94.0731 143.931 94.3162 143.961 94.4378 144.022C94.5593 144.083 94.6505 144.144 94.7112 144.205C94.772 144.265 94.8632 144.493 94.9847 144.888C95.8355 147.501 97.613 148.808 100.317 148.808H100.773C101.593 148.808 102.125 148.793 102.368 148.762C104.343 148.428 105.331 147.501 105.331 145.982C105.331 145.405 105.118 144.888 104.693 144.432C104.207 144.007 103.72 143.703 103.234 143.521C102.839 143.339 101.745 143.096 99.9527 142.792C98.16 142.488 96.7926 142.123 95.8507 141.698C93.2983 140.452 92.0221 138.735 92.0221 136.547Z" fill="black"/>
<path d="M112.44 140.649C112.44 137.398 113.503 134.861 115.63 133.038C117.757 131.215 120.34 130.303 123.379 130.303H123.88C126.888 130.303 129.213 131.078 130.853 132.628C132.616 134.39 133.497 136.791 133.497 139.829C133.497 140.346 133.375 140.665 133.132 140.786C132.889 140.908 132.19 140.984 131.036 141.014C130.762 141.014 130.063 141.014 128.939 141.014C127.815 141.014 126.797 140.999 125.885 140.969H118.958V141.379C118.958 142.351 119.018 143.187 119.14 143.886C119.261 144.584 119.52 145.298 119.915 146.028C120.31 146.757 120.917 147.334 121.738 147.76C122.558 148.185 123.622 148.474 124.928 148.626C125.111 148.656 125.369 148.671 125.703 148.671C127.314 148.671 128.635 148.124 129.668 147.03C130.003 146.605 130.261 146.21 130.443 145.845C130.626 145.481 130.732 145.238 130.762 145.116C130.793 144.995 130.914 144.903 131.127 144.843C131.34 144.782 131.659 144.752 132.084 144.752H132.312C133.102 144.752 133.497 145.025 133.497 145.572C133.497 145.785 133.421 146.088 133.269 146.483C133.117 146.878 132.798 147.349 132.312 147.896C131.826 148.443 131.264 148.96 130.626 149.446C129.987 149.932 129.106 150.342 127.982 150.677C126.858 151.011 125.627 151.178 124.29 151.178C120.917 151.178 118.107 150.251 115.858 148.398C113.61 146.544 112.47 143.961 112.44 140.649ZM128.438 138.325C128.255 136.198 127.724 134.709 126.843 133.858C125.961 133.008 124.928 132.582 123.743 132.582C122.923 132.582 122.163 132.765 121.464 133.129C120.765 133.494 120.234 133.995 119.869 134.633C119.383 135.423 119.094 136.608 119.003 138.188V138.781H128.438V138.325Z" fill="black"/>
<path d="M153.461 137.55C153.461 137.55 152.99 137.55 152.048 137.55C151.106 137.55 150.347 137.262 149.769 136.684C149.192 136.107 148.903 135.362 148.903 134.451C148.903 133.934 149.01 133.433 149.222 132.947C149.313 132.856 149.359 132.78 149.359 132.719C149.055 132.719 148.736 132.795 148.402 132.947C148.068 133.099 147.642 133.387 147.126 133.813C146.609 134.238 146.184 134.937 145.85 135.909C145.515 136.882 145.272 138.097 145.12 139.556C145.09 139.799 145.075 141.318 145.075 144.113V148.079H149.04V150.905H148.584C148.037 150.813 145.956 150.768 142.34 150.768C138.876 150.768 137.007 150.813 136.734 150.905H136.324V148.079H139.469V141.333V137.094C139.469 135.575 139.438 134.664 139.377 134.36C139.317 134.056 139.119 133.858 138.785 133.767C138.36 133.646 137.737 133.585 136.916 133.585H136.324V130.759H136.46L140.38 130.577C142.993 130.455 144.315 130.395 144.345 130.395H144.573V132.035L144.619 133.676C145.713 131.519 147.293 130.44 149.359 130.44H149.632C151.547 130.44 152.944 130.85 153.826 131.671C154.707 132.491 155.147 133.433 155.147 134.497C155.147 135.347 154.874 136.061 154.327 136.639L153.461 137.55Z" fill="black"/>
<path d="M174.883 130.668C175.247 130.759 176.675 130.805 179.167 130.805C181.385 130.805 182.585 130.759 182.768 130.668H183.041V133.494H179.851L175.247 143.794C173.394 147.987 172.33 150.266 172.057 150.631C171.814 150.935 171.525 151.087 171.191 151.087C171.13 151.087 171.024 151.087 170.872 151.087C170.72 151.087 170.568 151.072 170.416 151.041H169.732C169.277 151.041 168.912 150.813 168.639 150.358C168.365 149.902 167.712 148.534 166.679 146.256C166.223 145.253 165.858 144.432 165.585 143.794L160.981 133.494H157.791V130.668H158.156C158.611 130.759 160.298 130.805 163.215 130.805C166.466 130.805 168.365 130.759 168.912 130.668H169.322V133.494H167.134L169.55 138.872C171.1 142.366 171.92 144.113 172.011 144.113C172.011 144.083 172.786 142.336 174.336 138.872C175.885 135.408 176.691 133.63 176.751 133.539C176.751 133.509 176.387 133.494 175.658 133.494H174.564V130.668H174.883Z" fill="black"/>
<path d="M187.188 134.998C187.188 133.479 187.841 132.309 189.148 131.488C190.454 130.668 192.703 130.258 195.893 130.258C198.658 130.258 200.892 130.714 202.593 131.625C204.295 132.537 205.374 133.782 205.829 135.362C205.981 135.788 206.057 136.259 206.057 136.775C206.057 137.292 206.072 139.024 206.103 141.971V147.395C206.528 147.82 207.288 148.048 208.382 148.079C208.989 148.079 209.354 148.155 209.476 148.307C209.597 148.458 209.673 148.854 209.703 149.492C209.703 150.16 209.612 150.555 209.43 150.677C209.248 150.798 208.67 150.874 207.698 150.905H206.923H206.194C202.973 150.905 201.241 150.054 200.998 148.352L200.497 148.808C198.795 150.388 196.577 151.178 193.842 151.178C191.412 151.178 189.452 150.631 187.963 149.537C186.474 148.443 185.729 147.061 185.729 145.39C185.729 143.354 186.93 141.759 189.33 140.604C191.731 139.449 195.088 138.75 199.403 138.507H200.223V137.596C200.223 136.958 200.193 136.426 200.132 136.001C200.071 135.575 199.904 135.059 199.631 134.451C199.357 133.843 198.886 133.387 198.218 133.084C197.549 132.78 196.668 132.613 195.574 132.582C194.48 132.552 193.66 132.597 193.113 132.719H192.885C193.341 133.418 193.569 134.101 193.569 134.77C193.569 135.59 193.311 136.32 192.794 136.958C192.278 137.596 191.472 137.93 190.378 137.96C189.254 137.96 188.449 137.641 187.963 137.003C187.477 136.365 187.218 135.697 187.188 134.998ZM191.746 145.39C191.746 146.362 192.08 147.182 192.748 147.851C193.417 148.519 194.207 148.854 195.119 148.854C196.212 148.854 197.261 148.58 198.263 148.033C199.266 147.486 199.859 146.803 200.041 145.982L200.223 145.572V140.604H200.087C197.078 140.847 194.936 141.409 193.66 142.29C192.384 143.171 191.746 144.205 191.746 145.39Z" fill="black"/>
<path d="M222.147 148.671C223.605 148.671 224.334 147.349 224.334 144.706V144.296V142.837H227.16V144.387C227.16 145.511 227.13 146.18 227.069 146.392C226.887 147.517 226.416 148.474 225.656 149.264C224.896 150.054 223.924 150.631 222.739 150.996L222.147 151.132H221.007C218.759 151.132 217.042 150.646 215.857 149.674C215.097 149.097 214.611 148.383 214.398 147.532C214.186 146.681 214.064 145.374 214.034 143.612C214.034 143.278 214.034 142.685 214.034 141.835C214.034 140.984 214.049 140.285 214.079 139.738V133.494H210.707V131.169H210.889C211.892 131.169 212.879 130.82 213.851 130.121C214.793 129.422 215.553 128.404 216.13 127.067C216.708 125.73 217.042 124.242 217.133 122.601V121.963H219.959V130.668H226.294V133.494H219.959V140.011V141.47V144.113C219.959 145.663 220.02 146.696 220.141 147.213C220.263 147.729 220.582 148.124 221.098 148.398C221.463 148.58 221.812 148.671 222.147 148.671Z" fill="black"/>
<path d="M233.404 123.102C233.404 121.917 233.799 120.975 234.589 120.276C235.379 119.577 236.306 119.228 237.369 119.228C238.402 119.289 239.283 119.669 240.013 120.367C240.742 121.066 241.106 121.978 241.106 123.102C241.106 124.257 240.742 125.183 240.013 125.882C239.283 126.581 238.372 126.946 237.278 126.976C236.154 126.976 235.227 126.627 234.498 125.928C233.768 125.229 233.404 124.287 233.404 123.102ZM232.219 130.759L236.321 130.577L240.423 130.395H240.696V148.079H243.522V150.905H243.157C242.702 150.813 240.955 150.768 237.916 150.768C234.756 150.768 232.902 150.813 232.356 150.905H231.945V148.079H235.09V141.379C235.09 136.851 235.075 134.527 235.045 134.405C234.893 133.858 234.087 133.585 232.629 133.585H232.082V130.759H232.219Z" fill="black"/>
<path d="M257.743 151.132C255.95 151.132 254.355 150.905 252.957 150.449C251.56 149.993 250.451 149.416 249.63 148.717C248.81 148.018 248.111 147.198 247.534 146.256C246.956 145.314 246.592 144.417 246.44 143.567C246.288 142.716 246.181 141.835 246.121 140.923C246.121 139.313 246.394 137.869 246.941 136.593C247.488 135.317 248.156 134.284 248.946 133.494C249.736 132.704 250.648 132.081 251.681 131.625C252.714 131.169 253.626 130.82 254.416 130.577C255.206 130.334 255.981 130.243 256.74 130.303H257.378C258.594 130.303 259.308 130.319 259.52 130.349C262.62 130.714 265.035 131.853 266.767 133.767C268.499 135.682 269.365 138.036 269.365 140.832C269.365 142.807 268.94 144.524 268.089 145.982C267.238 147.441 266.144 148.58 264.808 149.4C263.045 150.555 260.69 151.132 257.743 151.132ZM262.848 140.422V139.51C262.848 138.599 262.832 137.869 262.802 137.322C262.772 136.775 262.665 136.168 262.483 135.499C262.301 134.831 262.012 134.314 261.617 133.95C261.222 133.585 260.706 133.281 260.067 133.038C259.429 132.795 258.579 132.658 257.515 132.628C256.269 132.628 255.206 132.947 254.325 133.585C253.656 134.102 253.216 134.8 253.003 135.682C252.79 136.563 252.669 138.143 252.638 140.422C252.638 141.272 252.638 141.895 252.638 142.29C252.638 142.685 252.669 143.232 252.729 143.931C252.79 144.63 252.881 145.162 253.003 145.526C253.124 145.891 253.307 146.301 253.55 146.757C253.793 147.213 254.097 147.562 254.461 147.805C254.826 148.048 255.282 148.231 255.829 148.352C256.376 148.474 257.014 148.565 257.743 148.626C259.596 148.626 260.918 148.109 261.708 147.076C262.134 146.559 262.422 145.83 262.574 144.888C262.726 143.946 262.817 142.457 262.848 140.422Z" fill="black"/>
<path d="M272.692 130.759C278.07 130.516 280.774 130.395 280.805 130.395H281.078V132.354L281.124 134.269C281.367 133.874 281.671 133.479 282.035 133.084C282.4 132.689 283.068 132.218 284.041 131.671C285.013 131.124 286.122 130.729 287.368 130.486C287.733 130.425 288.28 130.395 289.009 130.395C289.92 130.395 290.68 130.44 291.288 130.531C291.895 130.622 292.549 130.82 293.248 131.124C293.946 131.428 294.524 131.914 294.979 132.582C295.435 133.251 295.769 134.102 295.982 135.135C296.043 135.469 296.089 137.717 296.119 141.88V148.079H299.264V150.905H298.854C298.307 150.813 296.408 150.768 293.156 150.768C289.662 150.768 287.778 150.813 287.505 150.905H287.095V148.079H290.239V142.062V138.371C290.239 136.153 290.103 134.664 289.829 133.904C289.556 133.144 288.872 132.749 287.778 132.719C286.411 132.719 285.15 133.16 283.995 134.041C282.841 134.922 282.081 136.137 281.716 137.687C281.656 137.96 281.61 139.768 281.58 143.111V148.079H284.724V150.905H284.314C283.767 150.813 281.883 150.768 278.663 150.768C275.411 150.768 273.512 150.813 272.965 150.905H272.555V148.079H275.7V141.333V137.094C275.7 135.575 275.67 134.664 275.609 134.36C275.548 134.056 275.351 133.858 275.016 133.767C274.591 133.646 273.968 133.585 273.148 133.585H272.555V130.759H272.692Z" fill="black"/>
<path d="M324.468 151.132C322.675 151.132 321.08 150.905 319.682 150.449C318.284 149.993 317.175 149.416 316.355 148.717C315.534 148.018 314.835 147.198 314.258 146.256C313.681 145.314 313.316 144.417 313.164 143.567C313.012 142.716 312.906 141.835 312.845 140.923C312.845 139.313 313.119 137.869 313.666 136.593C314.213 135.317 314.881 134.284 315.671 133.494C316.461 132.704 317.373 132.081 318.406 131.625C319.439 131.169 320.35 130.82 321.14 130.577C321.93 130.334 322.705 130.243 323.465 130.303H324.103C325.318 130.303 326.032 130.319 326.245 130.349C329.344 130.714 331.76 131.853 333.492 133.767C335.224 135.682 336.09 138.036 336.09 140.832C336.09 142.807 335.665 144.524 334.814 145.982C333.963 147.441 332.869 148.58 331.532 149.4C329.77 150.555 327.415 151.132 324.468 151.132ZM329.572 140.422V139.51C329.572 138.599 329.557 137.869 329.527 137.322C329.496 136.775 329.39 136.168 329.208 135.499C329.025 134.831 328.737 134.314 328.342 133.95C327.947 133.585 327.43 133.281 326.792 133.038C326.154 132.795 325.303 132.658 324.24 132.628C322.994 132.628 321.93 132.947 321.049 133.585C320.381 134.102 319.94 134.8 319.727 135.682C319.515 136.563 319.393 138.143 319.363 140.422C319.363 141.272 319.363 141.895 319.363 142.29C319.363 142.685 319.393 143.232 319.454 143.931C319.515 144.63 319.606 145.162 319.727 145.526C319.849 145.891 320.031 146.301 320.274 146.757C320.517 147.213 320.821 147.562 321.186 147.805C321.551 148.048 322.006 148.231 322.553 148.352C323.1 148.474 323.738 148.565 324.468 148.626C326.321 148.626 327.643 148.109 328.433 147.076C328.858 146.559 329.147 145.83 329.299 144.888C329.451 143.946 329.542 142.457 329.572 140.422Z" fill="black"/>
<path d="M351.634 150.905C351.087 150.813 349.021 150.768 345.435 150.768C341.971 150.768 340.103 150.813 339.829 150.905H339.419V148.079H342.564V133.494H339.51V130.668H342.564V127.979L342.609 125.29L342.701 124.834C343.156 123.224 344.159 121.917 345.709 120.914C347.258 119.912 349.355 119.289 351.998 119.046C352.059 119.046 352.272 119.046 352.637 119.046C353.001 119.046 353.275 119.03 353.457 119C354.46 119.061 355.31 119.258 356.009 119.593C356.708 119.927 357.194 120.367 357.468 120.914C357.741 121.461 357.939 121.902 358.06 122.236C358.182 122.57 358.227 122.92 358.197 123.284C358.197 124.196 357.893 124.94 357.285 125.518C356.678 126.095 355.933 126.399 355.052 126.429C354.201 126.429 353.472 126.156 352.864 125.609C352.257 125.062 351.938 124.302 351.907 123.33C351.907 122.418 352.12 121.75 352.545 121.325H352.409C351.983 121.325 351.497 121.4 350.95 121.552C350.403 121.704 349.796 122.099 349.127 122.737C348.459 123.376 348.064 124.257 347.942 125.381C347.912 125.533 347.896 126.475 347.896 128.207V130.668H353.092V133.494H348.17V148.079H352.09V150.905H351.634Z" fill="black"/>
<path d="M371.048 140.649C371.048 137.398 372.112 134.861 374.239 133.038C376.366 131.215 378.949 130.303 381.987 130.303H382.488C385.497 130.303 387.821 131.078 389.462 132.628C391.224 134.39 392.105 136.791 392.105 139.829C392.105 140.346 391.984 140.665 391.741 140.786C391.498 140.908 390.799 140.984 389.644 141.014C389.371 141.014 388.672 141.014 387.548 141.014C386.423 141.014 385.405 140.999 384.494 140.969H377.566V141.379C377.566 142.351 377.627 143.187 377.748 143.886C377.87 144.584 378.128 145.298 378.523 146.028C378.918 146.757 379.526 147.334 380.346 147.76C381.167 148.185 382.23 148.474 383.537 148.626C383.719 148.656 383.977 148.671 384.311 148.671C385.922 148.671 387.244 148.124 388.277 147.03C388.611 146.605 388.869 146.21 389.052 145.845C389.234 145.481 389.34 145.238 389.371 145.116C389.401 144.995 389.523 144.903 389.735 144.843C389.948 144.782 390.267 144.752 390.692 144.752H390.92C391.71 144.752 392.105 145.025 392.105 145.572C392.105 145.785 392.029 146.088 391.877 146.483C391.725 146.878 391.406 147.349 390.92 147.896C390.434 148.443 389.872 148.96 389.234 149.446C388.596 149.932 387.715 150.342 386.59 150.677C385.466 151.011 384.236 151.178 382.899 151.178C379.526 151.178 376.715 150.251 374.467 148.398C372.218 146.544 371.079 143.961 371.048 140.649ZM387.046 138.325C386.864 136.198 386.332 134.709 385.451 133.858C384.57 133.008 383.537 132.582 382.352 132.582C381.531 132.582 380.772 132.765 380.073 133.129C379.374 133.494 378.842 133.995 378.478 134.633C377.991 135.423 377.703 136.608 377.612 138.188V138.781H387.046V138.325Z" fill="black"/>
<path d="M395.433 130.759C400.811 130.516 403.516 130.395 403.546 130.395H403.819V132.354L403.865 134.269C404.108 133.874 404.412 133.479 404.777 133.084C405.141 132.689 405.81 132.218 406.782 131.671C407.754 131.124 408.863 130.729 410.109 130.486C410.474 130.425 411.021 130.395 411.75 130.395C412.662 130.395 413.421 130.44 414.029 130.531C414.637 130.622 415.29 130.82 415.989 131.124C416.688 131.428 417.265 131.914 417.721 132.582C418.176 133.251 418.511 134.102 418.723 135.135C418.784 135.469 418.83 137.717 418.86 141.88V148.079H422.005V150.905H421.595C421.048 150.813 419.149 150.768 415.898 150.768C412.403 150.768 410.519 150.813 410.246 150.905H409.836V148.079H412.981V142.062V138.371C412.981 136.153 412.844 134.664 412.57 133.904C412.297 133.144 411.613 132.749 410.519 132.719C409.152 132.719 407.891 133.16 406.736 134.041C405.582 134.922 404.822 136.137 404.458 137.687C404.397 137.96 404.351 139.768 404.321 143.111V148.079H407.466V150.905H407.055C406.509 150.813 404.625 150.768 401.404 150.768C398.153 150.768 396.254 150.813 395.707 150.905H395.296V148.079H398.441V141.333V137.094C398.441 135.575 398.411 134.664 398.35 134.36C398.289 134.056 398.092 133.858 397.758 133.767C397.332 133.646 396.709 133.585 395.889 133.585H395.296V130.759H395.433Z" fill="black"/>
<path d="M424.193 140.649C424.193 137.398 425.256 134.861 427.383 133.038C429.51 131.215 432.093 130.303 435.132 130.303H435.633C438.641 130.303 440.966 131.078 442.606 132.628C444.369 134.39 445.25 136.791 445.25 139.829C445.25 140.346 445.128 140.665 444.885 140.786C444.642 140.908 443.943 140.984 442.789 141.014C442.515 141.014 441.816 141.014 440.692 141.014C439.568 141.014 438.55 140.999 437.638 140.969H430.711V141.379C430.711 142.351 430.771 143.187 430.893 143.886C431.014 144.584 431.273 145.298 431.668 146.028C432.063 146.757 432.67 147.334 433.491 147.76C434.311 148.185 435.375 148.474 436.681 148.626C436.864 148.656 437.122 148.671 437.456 148.671C439.066 148.671 440.388 148.124 441.421 147.03C441.756 146.605 442.014 146.21 442.196 145.845C442.378 145.481 442.485 145.238 442.515 145.116C442.546 144.995 442.667 144.903 442.88 144.843C443.092 144.782 443.412 144.752 443.837 144.752H444.065C444.855 144.752 445.25 145.025 445.25 145.572C445.25 145.785 445.174 146.088 445.022 146.483C444.87 146.878 444.551 147.349 444.065 147.896C443.579 148.443 443.017 148.96 442.378 149.446C441.74 149.932 440.859 150.342 439.735 150.677C438.611 151.011 437.38 151.178 436.043 151.178C432.67 151.178 429.86 150.251 427.611 148.398C425.363 146.544 424.223 143.961 424.193 140.649ZM440.191 138.325C440.008 136.198 439.477 134.709 438.595 133.858C437.714 133.008 436.681 132.582 435.496 132.582C434.676 132.582 433.916 132.765 433.217 133.129C432.518 133.494 431.987 133.995 431.622 134.633C431.136 135.423 430.847 136.608 430.756 138.188V138.781H440.191V138.325Z" fill="black"/>
<path d="M465.213 137.55C465.213 137.55 464.742 137.55 463.8 137.55C462.858 137.55 462.098 137.262 461.521 136.684C460.944 136.107 460.655 135.362 460.655 134.451C460.655 133.934 460.762 133.433 460.974 132.947C461.065 132.856 461.111 132.78 461.111 132.719C460.807 132.719 460.488 132.795 460.154 132.947C459.82 133.099 459.394 133.387 458.878 133.813C458.361 134.238 457.936 134.937 457.601 135.909C457.267 136.882 457.024 138.097 456.872 139.556C456.842 139.799 456.827 141.318 456.827 144.113V148.079H460.792V150.905H460.336C459.789 150.813 457.708 150.768 454.092 150.768C450.628 150.768 448.759 150.813 448.486 150.905H448.076V148.079H451.221V141.333V137.094C451.221 135.575 451.19 134.664 451.129 134.36C451.069 134.056 450.871 133.858 450.537 133.767C450.111 133.646 449.489 133.585 448.668 133.585H448.076V130.759H448.212L452.132 130.577C454.745 130.455 456.067 130.395 456.097 130.395H456.325V132.035L456.371 133.676C457.465 131.519 459.045 130.44 461.111 130.44H461.384C463.299 130.44 464.696 130.85 465.578 131.671C466.459 132.491 466.899 133.433 466.899 134.497C466.899 135.347 466.626 136.061 466.079 136.639L465.213 137.55Z" fill="black"/>
<path d="M470.638 137.231C470.638 135.165 471.473 133.509 473.144 132.263C474.816 131.017 477.094 130.394 479.981 130.394C482.199 130.394 484.038 130.759 485.496 131.488L486.043 131.762C487.471 130.698 489.006 130.167 490.646 130.167C491.497 130.167 492.166 130.379 492.652 130.805C493.138 131.23 493.457 131.64 493.609 132.035C493.761 132.43 493.822 132.81 493.791 133.175C493.791 133.843 493.578 134.39 493.153 134.816C492.728 135.241 492.181 135.454 491.512 135.454C490.783 135.454 490.221 135.226 489.826 134.77C489.431 134.314 489.233 133.813 489.233 133.266C489.233 132.962 489.294 132.765 489.416 132.673C489.476 132.643 489.461 132.643 489.37 132.673C489.309 132.673 489.203 132.689 489.051 132.719C488.291 132.932 487.881 133.068 487.82 133.129C488.641 134.253 489.127 135.195 489.279 135.955C489.34 136.35 489.37 136.775 489.37 137.231C489.37 139.054 488.732 140.543 487.456 141.698C485.785 143.308 483.187 144.113 479.662 144.113C477.748 144.113 476.046 143.764 474.557 143.065C474.345 143.491 474.238 143.855 474.238 144.159C474.238 145.466 474.861 146.301 476.107 146.666C476.289 146.727 477.702 146.757 480.346 146.757C480.65 146.757 481.181 146.757 481.941 146.757C482.701 146.757 483.248 146.757 483.582 146.757C483.916 146.757 484.402 146.787 485.04 146.848C485.678 146.909 486.195 146.97 486.59 147.03C486.985 147.091 487.471 147.213 488.048 147.395C488.626 147.577 489.142 147.775 489.598 147.988C491.968 149.264 493.153 151.284 493.153 154.049C493.153 155.417 492.576 156.571 491.421 157.513C489.355 159.215 486.028 160.066 481.44 160.066C477.246 160.066 474.253 159.458 472.461 158.243C470.668 157.027 469.756 155.645 469.726 154.095C469.726 153.73 469.772 153.381 469.863 153.047C469.954 152.712 470.091 152.409 470.273 152.135C470.455 151.862 470.638 151.649 470.82 151.497C471.002 151.345 471.23 151.163 471.504 150.95C471.777 150.737 471.975 150.631 472.096 150.631C472.218 150.631 472.4 150.54 472.643 150.358C472.886 150.175 472.992 150.13 472.962 150.221C471.899 148.945 471.367 147.562 471.367 146.073C471.367 144.706 471.731 143.475 472.461 142.381L472.78 141.926L472.415 141.607C471.23 140.422 470.638 138.963 470.638 137.231ZM490.464 132.537H490.783C490.753 132.506 490.692 132.491 490.601 132.491L490.464 132.537ZM479.981 141.789C480.71 141.789 481.318 141.698 481.804 141.515C482.29 141.333 482.655 141.136 482.898 140.923C483.141 140.71 483.323 140.361 483.445 139.875C483.567 139.389 483.627 138.994 483.627 138.69C483.627 138.386 483.643 137.9 483.673 137.231C483.673 136.107 483.627 135.317 483.536 134.861C483.445 134.405 483.202 133.98 482.807 133.585C482.23 133.008 481.288 132.719 479.981 132.719C479.161 132.719 478.492 132.825 477.976 133.038C477.459 133.251 477.094 133.57 476.882 133.995C476.669 134.421 476.532 134.816 476.472 135.18C476.411 135.545 476.38 136.046 476.38 136.684V137.231V137.733C476.38 139.373 476.654 140.437 477.201 140.923C477.839 141.5 478.766 141.789 479.981 141.789ZM481.44 157.741C483.567 157.741 485.283 157.407 486.59 156.738C487.896 156.07 488.55 155.204 488.55 154.141C488.55 153.958 488.535 153.806 488.504 153.685C488.474 153.563 488.383 153.396 488.231 153.183C488.079 152.971 487.836 152.773 487.501 152.591C487.167 152.409 486.696 152.257 486.089 152.135C485.481 152.014 484.721 151.922 483.81 151.862L482.397 151.816C481.424 151.816 480.589 151.816 479.89 151.816C477.976 151.816 476.867 151.816 476.563 151.816C476.259 151.816 475.894 151.907 475.469 152.09C474.679 152.454 474.284 153.107 474.284 154.049C474.284 155.143 474.937 156.024 476.244 156.693C477.55 157.361 479.282 157.711 481.44 157.741Z" fill="black"/>
<path d="M498.394 155.554C498.394 155.797 498.439 156.055 498.53 156.328C498.621 156.602 498.849 156.89 499.214 157.194C499.579 157.498 500.05 157.665 500.627 157.696C501.083 157.665 501.523 157.574 501.949 157.422C502.374 157.27 502.739 157.088 503.042 156.875C503.346 156.663 503.65 156.404 503.954 156.1C504.258 155.797 504.501 155.508 504.683 155.234C504.866 154.961 505.048 154.672 505.23 154.368C505.413 154.065 505.549 153.806 505.64 153.594C505.732 153.381 505.823 153.168 505.914 152.956C506.005 152.743 506.051 152.621 506.051 152.591L506.825 150.905L498.94 133.494H495.75V130.668H496.115C496.57 130.759 498.272 130.805 501.219 130.805C504.44 130.805 506.324 130.759 506.871 130.668H507.281V133.494H506.187C505.488 133.494 505.139 133.524 505.139 133.585L509.925 144.022L514.71 133.494H512.523V130.668H512.842C513.206 130.759 514.634 130.805 517.126 130.805C519.344 130.805 520.544 130.759 520.727 130.668H521V133.494H517.81L513.07 143.977C509.788 151.148 508.132 154.779 508.102 154.87C507.251 156.45 506.157 157.696 504.82 158.607C503.483 159.519 502.055 159.99 500.536 160.02C499.138 160.02 497.968 159.595 497.026 158.744C496.084 157.893 495.613 156.799 495.613 155.462C495.613 154.368 495.932 153.609 496.57 153.183C497.209 152.758 497.862 152.53 498.53 152.5C499.26 152.5 499.913 152.728 500.49 153.183C501.067 153.639 501.402 154.277 501.493 155.098V155.462H498.394V155.554Z" fill="black"/>
</svg>
