<svg width="638" height="1172" viewBox="0 0 638 1172" fill="none" xmlns="http://www.w3.org/2000/svg">
<rect width="129" height="1172" fill="#4D4D4D"/>
<rect x="509" width="129" height="1172" fill="#4D4D4D"/>
<rect x="128" y="548" width="381" height="596" fill="#010101"/>
<rect x="168" y="503" width="303" height="45" fill="#010101"/>
<rect x="278" y="442" width="76" height="64" fill="#010101"/>
<rect x="166" y="456" width="305" height="10" fill="#010101"/>
<rect x="167" y="471" width="304" height="10" fill="#010101"/>
<rect x="167" y="487" width="304" height="10" fill="#010101"/>
<rect x="186" y="456" width="8" height="50" fill="#D9D9D9"/>
<rect x="299" y="40" width="5" height="402" fill="#010101"/>
<rect x="333" y="40" width="5" height="402" fill="#010101"/>
<rect x="212" y="456" width="36" height="50" fill="#010101"/>
<rect x="384" y="456" width="36" height="50" fill="#010101"/>
<rect x="186" y="456" width="8" height="50" fill="#010101"/>
<rect x="445" y="456" width="8" height="50" fill="#010101"/>
<rect x="317" y="40" width="5" height="402" fill="#010101"/>
<rect x="141" y="566" width="355" height="563" fill="#D9D9D9"/>
<circle cx="317" cy="38" r="38" fill="#010101"/>
<rect x="161" y="586" width="154" height="531" fill="#999999"/>
<rect x="324" y="586" width="154" height="531" fill="#999999"/>
</svg>
