<svg width="867" height="449" viewBox="0 0 867 449" fill="none" xmlns="http://www.w3.org/2000/svg">
<path d="M168.823 83.8334C168.823 83.2855 166.592 82.9332 162.13 82.7767C160.33 82.7767 159.156 82.7375 158.608 82.6593C158.06 82.581 157.786 82.2287 157.786 81.6025C157.786 81.446 157.864 80.898 158.021 79.9587C158.491 78.3932 158.882 77.5713 159.195 77.4931C159.352 77.4148 159.782 77.3756 160.487 77.3756H161.074C164.283 77.5322 169.606 77.6105 177.042 77.6105C179.703 77.6105 182.169 77.6105 184.439 77.6105C186.709 77.6105 188.47 77.5713 189.723 77.4931C190.975 77.4148 191.758 77.4148 192.071 77.4931C193.402 77.4931 194.067 77.8062 194.067 78.4324C194.067 78.8237 193.95 79.3717 193.715 80.0762C193.636 80.2327 193.597 80.4675 193.597 80.7806C193.597 81.0937 193.558 81.3286 193.48 81.4851C193.402 81.6417 193.323 81.7982 193.245 81.9548C193.167 82.1113 193.049 82.2287 192.893 82.307C192.736 82.3853 192.58 82.4636 192.423 82.5418C192.267 82.6201 191.993 82.6593 191.601 82.6593C191.21 82.6593 190.858 82.6984 190.545 82.7767C190.231 82.8549 189.684 82.8549 188.901 82.7767C185.77 82.8549 183.774 82.9724 182.913 83.1289C182.052 83.2855 181.347 83.716 180.799 84.4205L171.289 121.758C171.367 121.758 178.568 116.122 192.893 104.85C207.217 93.5787 214.575 87.7863 214.967 87.4732C216.062 86.3773 216.61 85.4772 216.61 84.7727C216.61 83.5986 215.632 82.9332 213.675 82.7767C212.423 82.7767 211.796 82.3461 211.796 81.4851C211.796 81.3286 211.914 80.7806 212.149 79.8413C212.383 78.902 212.579 78.315 212.736 78.0801C212.971 77.6887 213.636 77.4931 214.732 77.4931C215.045 77.4931 216.415 77.5322 218.841 77.6105C221.268 77.6887 224.399 77.7279 228.234 77.7279C230.035 77.7279 231.913 77.6887 233.87 77.6105C235.827 77.5322 237.001 77.4931 237.393 77.4931C238.958 77.4931 239.741 77.8844 239.741 78.6672C239.741 80.3893 239.428 81.5634 238.802 82.1896C238.567 82.581 237.823 82.7767 236.571 82.7767C230.7 83.168 225.377 85.1641 220.602 88.7648C219.35 89.5475 216.61 91.5827 212.383 94.8703C208.157 98.1578 204.243 101.25 200.642 104.146L195.124 108.49L196.18 111.073C196.885 112.795 197.981 115.418 199.468 118.94C200.955 122.462 202.325 125.789 203.577 128.92C209.448 142.775 212.579 149.937 212.971 150.407C213.127 150.563 213.323 150.72 213.558 150.877C214.653 151.659 216.649 152.09 219.546 152.168H222.011C222.481 152.794 222.716 153.147 222.716 153.225C222.716 153.303 222.598 154.008 222.364 155.338C222.051 156.356 221.659 157.099 221.189 157.569H219.898C216.767 157.334 213.049 157.217 208.744 157.217C199.194 157.217 193.832 157.334 192.658 157.569H191.484C191.014 157.099 190.779 156.747 190.779 156.512C190.779 156.278 190.858 155.573 191.014 154.399C191.327 153.381 191.562 152.755 191.719 152.52C191.875 152.285 192.306 152.168 193.01 152.168H193.362C197.276 152.168 199.233 151.19 199.233 149.233C199.233 148.92 198.176 146.18 196.063 141.014C193.95 135.848 192.697 132.912 192.306 132.208L185.496 116.005L177.512 122.228L169.528 128.451L166.827 139.37C165.027 146.571 164.126 150.368 164.126 150.759C164.126 151.307 164.44 151.659 165.066 151.816C165.692 151.972 167.649 152.09 170.936 152.168H174.576C175.046 152.873 175.281 153.303 175.281 153.46C175.281 154.712 175.007 155.886 174.459 156.982C174.068 157.373 173.441 157.569 172.58 157.569C172.345 157.569 170.897 157.53 168.236 157.452C165.575 157.373 161.661 157.334 156.495 157.334C151.642 157.334 147.923 157.334 145.34 157.334C142.757 157.334 141.348 157.373 141.113 157.452C139.704 157.452 139 157.06 139 156.278C139 156.121 139.117 155.573 139.352 154.634C139.665 153.381 139.978 152.677 140.292 152.52C140.605 152.364 141.505 152.246 142.992 152.168C145.106 152.168 147.454 152.051 150.037 151.816C151.133 151.581 151.876 151.111 152.268 150.407C152.503 150.094 155.32 139.213 160.722 117.766C166.123 96.3184 168.823 85.0075 168.823 83.8334Z" fill="black"/>
<path d="M278.934 116.827C278.934 115.809 279.482 115.026 280.578 114.478H355.37C356.544 115.104 357.131 115.887 357.131 116.827C357.131 117.688 356.583 118.431 355.487 119.057L318.15 119.175H280.812C279.56 118.783 278.934 118.001 278.934 116.827ZM278.934 139.605C278.934 138.431 279.56 137.648 280.812 137.256H355.487C356.583 138.039 357.131 138.822 357.131 139.605C357.131 140.622 356.544 141.405 355.37 141.953H280.578C279.482 141.405 278.934 140.622 278.934 139.605Z" fill="black"/>
<path d="M447.164 10.3325L445.637 10.9195C444.541 11.3109 442.976 11.7023 440.941 12.0937C438.906 12.4851 436.636 12.759 434.131 12.9156H431.9V7.51455H434.131C437.81 7.358 441.215 6.77093 444.346 5.75335C447.477 4.73576 449.668 3.79646 450.921 2.93542C452.173 2.07439 453.269 1.21336 454.208 0.352326C454.365 0.117499 454.835 8.50558e-05 455.617 8.50558e-05C456.322 8.50558e-05 456.987 0.234912 457.613 0.704566V35.8112L457.731 71.0353C458.279 71.5832 458.748 71.9355 459.14 72.092C459.531 72.2486 460.471 72.4051 461.958 72.5617C463.445 72.7182 465.872 72.7965 469.237 72.7965H472.29V78.1975H470.999C469.355 77.9627 463.132 77.8453 452.33 77.8453C441.684 77.8453 435.54 77.9627 433.896 78.1975H432.487V72.7965H435.54C437.262 72.7965 438.749 72.7965 440.001 72.7965C441.254 72.7965 442.232 72.7573 442.937 72.6791C443.641 72.6008 444.267 72.4834 444.815 72.3268C445.363 72.1703 445.676 72.092 445.755 72.092C445.833 72.092 446.068 71.8963 446.459 71.5049C446.851 71.1136 447.085 70.957 447.164 71.0353V10.3325Z" fill="black"/>
<path d="M434.953 187.744C432.839 187.744 431.156 187.04 429.904 185.631C428.651 184.222 428.025 182.5 428.025 180.465C428.025 174.907 430.099 170.093 434.248 166.023C438.397 161.952 443.563 159.917 449.747 159.917C456.87 159.917 462.819 162.109 467.594 166.492C472.368 170.876 474.795 176.551 474.873 183.517C474.873 186.883 474.09 190.093 472.525 193.145C470.959 196.198 469.081 198.859 466.889 201.129C464.697 203.399 461.566 206.296 457.496 209.818C454.678 212.245 450.764 215.845 445.755 220.62L438.827 227.195L447.751 227.313C460.04 227.313 466.576 227.117 467.359 226.726C467.907 226.569 468.846 223.086 470.177 216.276V215.924H474.873V216.276C474.795 216.511 474.286 220.072 473.347 226.96C472.407 233.849 471.82 237.449 471.586 237.763V238.115H428.025V235.884V234.475C428.025 233.927 428.26 233.34 428.73 232.714C429.199 232.088 430.373 230.718 432.252 228.604C434.522 226.099 436.479 223.908 438.123 222.029C438.827 221.246 440.158 219.798 442.115 217.685C444.072 215.571 445.402 214.123 446.107 213.34C446.811 212.558 447.946 211.266 449.512 209.466C451.077 207.665 452.173 206.335 452.799 205.474C453.426 204.613 454.326 203.439 455.5 201.951C456.674 200.464 457.496 199.212 457.966 198.194C458.435 197.177 459.022 196.042 459.727 194.789C460.431 193.537 460.94 192.284 461.253 191.032C461.566 189.78 461.84 188.605 462.075 187.51C462.31 186.414 462.427 185.122 462.427 183.635C462.427 178.703 461.097 174.437 458.435 170.837C455.774 167.236 451.978 165.436 447.046 165.436C444.463 165.436 442.193 166.101 440.236 167.432C438.279 168.762 436.909 170.054 436.127 171.306C435.344 172.559 434.953 173.302 434.953 173.537C434.953 173.616 435.148 173.655 435.54 173.655C436.949 173.655 438.397 174.203 439.884 175.298C441.371 176.394 442.115 178.195 442.115 180.7C442.115 182.656 441.489 184.3 440.236 185.631C438.984 186.962 437.223 187.666 434.953 187.744Z" fill="black"/>
<path d="M492.603 131.738H410.413V124.693H492.603V131.738Z" fill="black"/>
<path d="M509.159 123.871C509.237 123.402 509.354 122.775 509.511 121.993C509.667 121.21 510.137 119.723 510.92 117.531C511.703 115.339 512.485 113.5 513.268 112.013C514.051 110.525 515.303 109.077 517.025 107.668C518.747 106.259 520.47 105.594 522.192 105.672C523.914 105.751 525.597 106.024 527.24 106.494C528.884 106.964 530.058 107.668 530.763 108.608C531.467 109.547 532.093 110.408 532.641 111.191C533.189 111.973 533.502 112.717 533.581 113.422L533.816 114.243C533.816 114.4 533.855 114.478 533.933 114.478L535.224 113.187C539.921 108.177 545.439 105.672 551.78 105.672C553.11 105.672 554.324 105.751 555.42 105.907C556.515 106.064 557.533 106.338 558.472 106.729C559.412 107.12 560.155 107.512 560.703 107.903C561.251 108.294 561.838 108.764 562.464 109.312C563.091 109.86 563.482 110.369 563.639 110.838C563.795 111.308 564.108 111.817 564.578 112.365C565.048 112.913 565.204 113.382 565.048 113.774C564.891 114.165 565.008 114.517 565.4 114.831C565.791 115.144 565.869 115.418 565.635 115.652L566.574 114.478C571.505 108.608 577.337 105.672 584.069 105.672C588.295 105.672 591.7 106.729 594.284 108.842C596.867 110.956 598.197 114.048 598.276 118.118C598.276 122.11 596.788 128.294 593.814 136.669C590.839 145.045 589.352 150.055 589.352 151.698C589.43 152.794 589.626 153.538 589.939 153.929C590.252 154.321 590.839 154.516 591.7 154.516C593.892 154.516 595.927 153.342 597.806 150.994C599.685 148.646 601.211 145.436 602.385 141.366C602.62 140.505 602.855 139.996 603.09 139.84C603.324 139.683 603.951 139.605 604.968 139.605C606.534 139.605 607.316 139.918 607.316 140.544C607.316 140.622 607.16 141.209 606.847 142.305C606.221 144.575 605.36 146.806 604.264 148.998C603.168 151.19 601.367 153.381 598.863 155.573C596.358 157.765 593.657 158.821 590.761 158.743C587.082 158.743 584.421 157.686 582.777 155.573C581.133 153.46 580.311 151.268 580.311 148.998C580.311 147.511 581.72 142.814 584.538 134.908C587.356 127.002 588.804 121.053 588.882 117.061C588.882 112.443 587.16 110.134 583.716 110.134H583.129C576.398 110.134 570.723 114.087 566.104 121.993L565.282 123.402L561.408 139.135C558.825 149.389 557.337 154.908 556.946 155.69C555.928 157.804 554.245 158.861 551.897 158.861C550.88 158.861 550.058 158.587 549.432 158.039C548.805 157.491 548.375 157.021 548.14 156.63C547.905 156.238 547.788 155.847 547.788 155.456C547.788 154.595 549.118 148.998 551.78 138.665L556.007 121.523C556.242 120.349 556.359 118.862 556.359 117.061C556.359 112.443 554.637 110.134 551.193 110.134H550.606C543.874 110.134 538.199 114.087 533.581 121.993L532.759 123.402L528.884 139.135C526.301 149.389 524.814 154.908 524.422 155.69C523.405 157.804 521.722 158.861 519.374 158.861C518.356 158.861 517.534 158.626 516.908 158.156C516.282 157.686 515.851 157.217 515.616 156.747C515.382 156.277 515.303 155.886 515.382 155.573C515.382 154.555 516.869 148.137 519.843 136.317C522.896 124.263 524.422 117.962 524.422 117.414C524.657 116.239 524.775 115.183 524.775 114.243C524.775 111.426 523.796 110.017 521.839 110.017C520.117 110.017 518.669 111.112 517.495 113.304C516.321 115.496 515.421 117.883 514.795 120.466C514.168 123.049 513.699 124.458 513.386 124.693C513.229 124.85 512.603 124.928 511.507 124.928H509.863C509.394 124.458 509.159 124.106 509.159 123.871Z" fill="black"/>
<path d="M630.094 112.952C630.094 110.995 629.35 110.017 627.863 110.017C625.984 110.017 624.028 111.152 621.992 113.422C619.957 115.692 618.274 119.175 616.944 123.871C616.865 123.95 616.787 124.067 616.709 124.224C616.631 124.38 616.591 124.498 616.591 124.576C616.591 124.654 616.513 124.732 616.357 124.811C616.2 124.889 616.083 124.928 616.004 124.928C615.926 124.928 615.769 124.928 615.535 124.928C615.3 124.928 614.987 124.928 614.595 124.928H612.952C612.482 124.458 612.247 124.106 612.247 123.871C612.247 123.323 612.56 122.188 613.186 120.466C613.813 118.744 614.752 116.709 616.004 114.361C617.257 112.013 618.979 110.017 621.17 108.373C623.362 106.729 625.828 105.868 628.568 105.79C631.855 105.79 634.399 106.729 636.199 108.608C638 110.486 638.939 112.678 639.017 115.183C639.017 116.513 638.9 117.531 638.665 118.236C638.665 118.705 638.078 120.427 636.904 123.402C635.73 126.376 634.517 129.859 633.264 133.852C632.012 137.844 631.307 141.327 631.151 144.301C631.151 146.415 631.346 148.137 631.738 149.468C632.755 152.833 635.221 154.516 639.135 154.516C642.031 154.516 644.731 153.186 647.236 150.524C649.741 147.863 651.698 144.771 653.107 141.249C654.516 137.726 655.651 134.478 656.512 131.503C657.373 128.529 657.804 126.376 657.804 125.045C657.804 123.245 657.49 121.68 656.864 120.349C656.238 119.018 655.534 118.001 654.751 117.296C653.968 116.592 653.264 115.887 652.637 115.183C652.011 114.478 651.698 113.617 651.698 112.6C651.698 110.878 652.442 109.273 653.929 107.786C655.416 106.298 657.021 105.555 658.743 105.555C660.23 105.555 661.561 106.259 662.735 107.668C663.909 109.077 664.535 111.347 664.614 114.478C664.614 116.592 664.144 119.84 663.205 124.224C662.265 128.607 660.817 133.499 658.86 138.9C656.903 144.301 654.125 148.959 650.524 152.873C646.923 156.786 642.775 158.782 638.078 158.861C633.068 158.861 629.076 157.569 626.102 154.986C623.206 152.481 621.758 148.763 621.758 143.832C621.758 141.405 622.071 138.9 622.697 136.317C623.323 133.734 624.928 129.155 627.511 122.58C629.233 117.57 630.094 114.361 630.094 112.952Z" fill="black"/>
<path d="M675.776 73.4654C674.282 73.4654 673.092 72.9673 672.207 71.9712C671.321 70.975 670.878 69.7575 670.878 68.3187C670.878 64.3895 672.345 60.986 675.278 58.1083C678.211 55.2306 681.864 53.7917 686.236 53.7917C691.272 53.7917 695.477 55.3412 698.853 58.4403C702.229 61.5394 703.945 65.5516 704 70.477C704 72.8566 703.447 75.1256 702.34 77.2839C701.233 79.4422 699.905 81.3238 698.355 82.9287C696.806 84.5336 694.592 86.5812 691.714 89.0715C689.722 90.7871 686.955 93.3328 683.413 96.7086L678.515 101.357L684.824 101.44C693.513 101.44 698.134 101.302 698.687 101.025C699.075 100.914 699.739 98.4518 700.68 93.6372V93.3881H704V93.6372C703.945 93.8032 703.585 96.3212 702.921 101.191C702.257 106.061 701.842 108.607 701.676 108.828V109.077H670.878V107.5V106.504C670.878 106.117 671.044 105.701 671.376 105.259C671.709 104.816 672.539 103.848 673.867 102.353C675.472 100.582 676.855 99.0329 678.017 97.7047C678.515 97.1513 679.456 96.1275 680.84 94.6333C682.223 93.1391 683.164 92.1153 683.662 91.5619C684.16 91.0085 684.963 90.0953 686.07 88.8225C687.176 87.5497 687.951 86.6089 688.394 86.0001C688.837 85.3914 689.473 84.5612 690.303 83.5098C691.133 82.4583 691.714 81.5728 692.046 80.8534C692.378 80.134 692.793 79.3315 693.291 78.4461C693.79 77.5606 694.149 76.6752 694.371 75.7897C694.592 74.9043 694.786 74.0741 694.952 73.2994C695.118 72.5246 695.201 71.6115 695.201 70.56C695.201 67.0735 694.26 64.0574 692.378 61.5117C690.497 58.9661 687.813 57.6932 684.326 57.6932C682.5 57.6932 680.895 58.1636 679.512 59.1044C678.128 60.0452 677.16 60.9583 676.606 61.8438C676.053 62.7292 675.776 63.255 675.776 63.421C675.776 63.4764 675.914 63.504 676.191 63.504C677.187 63.504 678.211 63.8914 679.263 64.6662C680.314 65.441 680.84 66.7138 680.84 68.4847C680.84 69.8682 680.397 71.0304 679.512 71.9712C678.626 72.912 677.381 73.41 675.776 73.4654Z" fill="black"/>
<path d="M250.5 112C250.5 138.64 243.334 162.644 231.879 179.915C220.411 197.204 204.847 207.5 188 207.5C171.153 207.5 155.589 197.204 144.121 179.915C132.666 162.644 125.5 138.64 125.5 112C125.5 85.3602 132.666 61.356 144.121 44.0854C155.589 26.7961 171.153 16.5 188 16.5C204.847 16.5 220.411 26.7961 231.879 44.0854C243.334 61.356 250.5 85.3602 250.5 112Z" stroke="#FF0606" stroke-width="5"/>
<path d="M37.9814 275.738H38.7139C39.3324 275.738 39.8939 275.641 40.3984 275.445C40.9193 275.25 41.4971 274.884 42.1318 274.347C42.7666 273.81 43.735 272.809 45.0371 271.344C46.5996 269.602 47.6657 268.341 48.2354 267.56C48.9515 266.632 49.4316 265.851 49.6758 265.216C49.8711 264.744 49.9688 264.288 49.9688 263.849C49.9688 263.198 49.7816 262.726 49.4072 262.433C49.0329 262.123 48.5202 261.936 47.8691 261.871V260.675H58.5137V261.871C57.9928 261.985 57.4801 262.188 56.9756 262.481C56.471 262.758 55.9502 263.149 55.4131 263.653C54.8923 264.142 54.1191 264.955 53.0938 266.095L44.8906 275.323L53.7773 288.238C54.7214 289.605 55.4619 290.566 55.999 291.119C56.5361 291.656 57.0488 292.055 57.5371 292.315C58.0254 292.56 58.5462 292.722 59.0996 292.804V294H48.333V292.804C48.9352 292.755 49.3747 292.641 49.6514 292.462C49.9281 292.283 50.0664 292.014 50.0664 291.656C50.0664 291.363 49.9688 291.013 49.7734 290.606C49.5944 290.183 49.3014 289.679 48.8945 289.093L43.2061 280.621C42.5387 279.612 42.0505 278.945 41.7412 278.619C41.432 278.294 41.0983 278.058 40.7402 277.911C40.3822 277.748 39.902 277.667 39.2998 277.667H38.0059V287.896C38.0059 288.987 38.0384 289.785 38.1035 290.289C38.1849 290.794 38.307 291.192 38.4697 291.485C38.6488 291.778 38.901 292.022 39.2266 292.218C39.5684 292.413 40.1136 292.608 40.8623 292.804V294H30.584V292.804C31.5931 292.543 32.2686 292.258 32.6104 291.949C32.9521 291.624 33.1719 291.168 33.2695 290.582C33.3835 289.996 33.4404 289.101 33.4404 287.896V266.778C33.4404 265.655 33.3997 264.841 33.3184 264.337C33.237 263.816 33.0986 263.417 32.9033 263.141C32.7243 262.848 32.4801 262.62 32.1709 262.457C31.8617 262.278 31.3327 262.083 30.584 261.871V260.675H40.8623V261.871C40.1462 262.05 39.6253 262.229 39.2998 262.408C38.9906 262.587 38.7383 262.815 38.543 263.092C38.3639 263.352 38.2256 263.751 38.1279 264.288C38.0465 264.825 38.0059 265.655 38.0059 266.778L37.9814 275.738ZM68.4746 261.09V265.826H63.9824V261.09H68.4746ZM61.4922 292.804C62.127 292.608 62.5745 292.438 62.835 292.291C63.1117 292.145 63.3395 291.941 63.5186 291.681C63.7139 291.42 63.8604 291.021 63.958 290.484C64.0719 289.947 64.1289 289.109 64.1289 287.97V277.325C64.1289 276.284 64.1126 275.445 64.0801 274.811C64.0475 274.176 63.9336 273.671 63.7383 273.297C63.543 272.906 63.2419 272.621 62.835 272.442C62.4443 272.247 61.8828 272.084 61.1504 271.954V270.66L66.8389 270.44H68.3281V287.896C68.3281 289.296 68.3932 290.273 68.5234 290.826C68.6536 291.363 68.8978 291.778 69.2559 292.071C69.6302 292.348 70.2324 292.592 71.0625 292.804V294H61.4922V292.804ZM99.1875 294H89.5684V292.804C90.2031 292.608 90.6589 292.438 90.9355 292.291C91.2122 292.145 91.4401 291.941 91.6191 291.681C91.8145 291.42 91.9609 291.021 92.0586 290.484C92.1725 289.931 92.2295 289.101 92.2295 287.994V281.598C92.2295 280.458 92.1969 279.425 92.1318 278.497C92.0667 277.569 91.9528 276.812 91.79 276.227C91.6436 275.624 91.4564 275.16 91.2285 274.835C91.0169 274.493 90.7565 274.208 90.4473 273.98C90.1543 273.736 89.8125 273.549 89.4219 273.419C89.0312 273.272 88.5186 273.199 87.8838 273.199C87.249 273.199 86.6468 273.329 86.0771 273.59C85.5075 273.834 84.8809 274.265 84.1973 274.884C83.5137 275.502 83.0173 276.113 82.708 276.715C82.3988 277.317 82.2441 278.009 82.2441 278.79V287.896C82.2441 289.296 82.3092 290.273 82.4395 290.826C82.5697 291.363 82.8138 291.778 83.1719 292.071C83.5462 292.348 84.1484 292.592 84.9785 292.804V294H75.4082V292.804C76.043 292.608 76.4906 292.438 76.751 292.291C77.0277 292.145 77.2555 291.941 77.4346 291.681C77.6299 291.42 77.7764 291.021 77.874 290.484C77.988 289.947 78.0449 289.109 78.0449 287.97V277.325C78.0449 276.284 78.0286 275.445 77.9961 274.811C77.9635 274.176 77.8496 273.671 77.6543 273.297C77.459 272.906 77.1579 272.621 76.751 272.442C76.3604 272.247 75.7988 272.084 75.0664 271.954V270.66L80.7793 270.44H82.2686L82 274.42L82.3418 274.518C83.5462 273.297 84.5146 272.426 85.2471 271.905C85.9958 271.384 86.7445 270.986 87.4932 270.709C88.2581 270.416 89.0638 270.27 89.9102 270.27C90.7891 270.27 91.5703 270.375 92.2539 270.587C92.9538 270.782 93.5641 271.091 94.085 271.515C94.6221 271.938 95.0615 272.467 95.4033 273.102C95.7451 273.72 95.9974 274.469 96.1602 275.348C96.3392 276.227 96.4287 277.341 96.4287 278.692V287.896C96.4287 289.02 96.4613 289.833 96.5264 290.338C96.5915 290.842 96.7054 291.233 96.8682 291.51C97.0309 291.786 97.2669 292.022 97.5762 292.218C97.8854 292.397 98.4225 292.592 99.1875 292.804V294ZM122.845 289.85C121.803 290.94 120.843 291.795 119.964 292.413C119.101 293.032 118.149 293.52 117.107 293.878C116.066 294.22 114.918 294.391 113.665 294.391C110.312 294.391 107.781 293.39 106.072 291.388C104.363 289.369 103.509 286.399 103.509 282.477C103.509 280.051 103.94 277.911 104.803 276.056C105.682 274.2 106.927 272.768 108.538 271.759C110.149 270.75 112.005 270.245 114.104 270.245C115.748 270.245 117.148 270.506 118.304 271.026C119.459 271.547 120.379 272.263 121.062 273.175C121.762 274.07 122.299 275.209 122.674 276.593C123.064 277.96 123.284 279.75 123.333 281.964H107.952V282.403C107.952 284.324 108.164 285.943 108.587 287.262C109.026 288.564 109.734 289.589 110.711 290.338C111.704 291.07 112.99 291.437 114.568 291.437C115.903 291.437 117.099 291.192 118.157 290.704C119.231 290.2 120.298 289.386 121.355 288.263L122.845 289.85ZM118.743 279.938C118.646 278.18 118.426 276.747 118.084 275.641C117.742 274.518 117.229 273.663 116.546 273.077C115.862 272.475 114.967 272.174 113.86 272.174C112.184 272.174 110.841 272.849 109.832 274.2C108.839 275.535 108.253 277.447 108.074 279.938H118.743ZM126.287 271.881C127.101 271.751 127.76 271.523 128.265 271.197C128.769 270.872 129.16 270.457 129.437 269.952C129.729 269.431 129.957 268.788 130.12 268.023C130.283 267.242 130.454 266.111 130.633 264.63H134.1V270.66H141.985V273.126H134.1V283.99C134.1 285.569 134.165 286.83 134.295 287.774C134.425 288.702 134.669 289.435 135.027 289.972C135.385 290.493 135.792 290.867 136.248 291.095C136.704 291.323 137.29 291.437 138.006 291.437C138.657 291.437 139.267 291.306 139.837 291.046C140.407 290.769 140.968 290.379 141.521 289.874L142.62 291.192C141.465 292.315 140.366 293.129 139.324 293.634C138.299 294.138 137.233 294.391 136.126 294.391C134.026 294.391 132.464 293.772 131.438 292.535C130.413 291.282 129.9 289.329 129.9 286.676V273.126H126.287V271.881ZM151.678 261.09V265.826H147.186V261.09H151.678ZM144.695 292.804C145.33 292.608 145.778 292.438 146.038 292.291C146.315 292.145 146.543 291.941 146.722 291.681C146.917 291.42 147.063 291.021 147.161 290.484C147.275 289.947 147.332 289.109 147.332 287.97V277.325C147.332 276.284 147.316 275.445 147.283 274.811C147.251 274.176 147.137 273.671 146.941 273.297C146.746 272.906 146.445 272.621 146.038 272.442C145.647 272.247 145.086 272.084 144.354 271.954V270.66L150.042 270.44H151.531V287.896C151.531 289.296 151.596 290.273 151.727 290.826C151.857 291.363 152.101 291.778 152.459 292.071C152.833 292.348 153.436 292.592 154.266 292.804V294H144.695V292.804ZM176.8 271.222V276.324H173.699C173.423 275.266 173.081 274.436 172.674 273.834C172.267 273.215 171.795 272.784 171.258 272.54C170.721 272.296 170.053 272.174 169.256 272.174C168.117 272.174 167.107 272.54 166.229 273.272C165.35 274.005 164.65 275.12 164.129 276.617C163.624 278.115 163.372 279.946 163.372 282.11C163.372 283.494 163.47 284.763 163.665 285.919C163.86 287.058 164.194 288.035 164.666 288.849C165.138 289.662 165.765 290.297 166.546 290.753C167.327 291.209 168.296 291.437 169.451 291.437C170.574 291.437 171.616 291.217 172.576 290.777C173.553 290.338 174.562 289.565 175.604 288.458L176.995 290.069C176.165 290.981 175.433 291.689 174.798 292.193C174.163 292.682 173.479 293.097 172.747 293.438C172.031 293.764 171.315 294 170.599 294.146C169.899 294.309 169.134 294.391 168.304 294.391C165.228 294.391 162.876 293.373 161.248 291.339C159.62 289.288 158.807 286.334 158.807 282.477C158.807 280.068 159.262 277.936 160.174 276.08C161.085 274.208 162.363 272.768 164.007 271.759C165.651 270.75 167.547 270.245 169.695 270.245C171.03 270.245 172.259 270.326 173.382 270.489C174.521 270.636 175.66 270.88 176.8 271.222ZM211.224 289.85C210.182 290.94 209.222 291.795 208.343 292.413C207.48 293.032 206.528 293.52 205.486 293.878C204.445 294.22 203.297 294.391 202.044 294.391C198.691 294.391 196.16 293.39 194.451 291.388C192.742 289.369 191.888 286.399 191.888 282.477C191.888 280.051 192.319 277.911 193.182 276.056C194.061 274.2 195.306 272.768 196.917 271.759C198.528 270.75 200.384 270.245 202.483 270.245C204.127 270.245 205.527 270.506 206.683 271.026C207.838 271.547 208.758 272.263 209.441 273.175C210.141 274.07 210.678 275.209 211.053 276.593C211.443 277.96 211.663 279.75 211.712 281.964H196.331V282.403C196.331 284.324 196.543 285.943 196.966 287.262C197.405 288.564 198.113 289.589 199.09 290.338C200.083 291.07 201.368 291.437 202.947 291.437C204.282 291.437 205.478 291.192 206.536 290.704C207.61 290.2 208.676 289.386 209.734 288.263L211.224 289.85ZM207.122 279.938C207.024 278.18 206.805 276.747 206.463 275.641C206.121 274.518 205.608 273.663 204.925 273.077C204.241 272.475 203.346 272.174 202.239 272.174C200.563 272.174 199.22 272.849 198.211 274.2C197.218 275.535 196.632 277.447 196.453 279.938H207.122ZM239.91 294H230.291V292.804C230.926 292.608 231.382 292.438 231.658 292.291C231.935 292.145 232.163 291.941 232.342 291.681C232.537 291.42 232.684 291.021 232.781 290.484C232.895 289.931 232.952 289.101 232.952 287.994V281.598C232.952 280.458 232.92 279.425 232.854 278.497C232.789 277.569 232.675 276.812 232.513 276.227C232.366 275.624 232.179 275.16 231.951 274.835C231.74 274.493 231.479 274.208 231.17 273.98C230.877 273.736 230.535 273.549 230.145 273.419C229.754 273.272 229.241 273.199 228.606 273.199C227.972 273.199 227.369 273.329 226.8 273.59C226.23 273.834 225.604 274.265 224.92 274.884C224.236 275.502 223.74 276.113 223.431 276.715C223.121 277.317 222.967 278.009 222.967 278.79V287.896C222.967 289.296 223.032 290.273 223.162 290.826C223.292 291.363 223.536 291.778 223.895 292.071C224.269 292.348 224.871 292.592 225.701 292.804V294H216.131V292.804C216.766 292.608 217.213 292.438 217.474 292.291C217.75 292.145 217.978 291.941 218.157 291.681C218.353 291.42 218.499 291.021 218.597 290.484C218.711 289.947 218.768 289.109 218.768 287.97V277.325C218.768 276.284 218.751 275.445 218.719 274.811C218.686 274.176 218.572 273.671 218.377 273.297C218.182 272.906 217.881 272.621 217.474 272.442C217.083 272.247 216.521 272.084 215.789 271.954V270.66L221.502 270.44H222.991L222.723 274.42L223.064 274.518C224.269 273.297 225.237 272.426 225.97 271.905C226.718 271.384 227.467 270.986 228.216 270.709C228.981 270.416 229.786 270.27 230.633 270.27C231.512 270.27 232.293 270.375 232.977 270.587C233.676 270.782 234.287 271.091 234.808 271.515C235.345 271.938 235.784 272.467 236.126 273.102C236.468 273.72 236.72 274.469 236.883 275.348C237.062 276.227 237.151 277.341 237.151 278.692V287.896C237.151 289.02 237.184 289.833 237.249 290.338C237.314 290.842 237.428 291.233 237.591 291.51C237.754 291.786 237.99 292.022 238.299 292.218C238.608 292.397 239.145 292.592 239.91 292.804V294ZM263.567 289.85C262.526 290.94 261.565 291.795 260.687 292.413C259.824 293.032 258.872 293.52 257.83 293.878C256.788 294.22 255.641 294.391 254.388 294.391C251.035 294.391 248.504 293.39 246.795 291.388C245.086 289.369 244.231 286.399 244.231 282.477C244.231 280.051 244.663 277.911 245.525 276.056C246.404 274.2 247.649 272.768 249.261 271.759C250.872 270.75 252.728 270.245 254.827 270.245C256.471 270.245 257.871 270.506 259.026 271.026C260.182 271.547 261.102 272.263 261.785 273.175C262.485 274.07 263.022 275.209 263.396 276.593C263.787 277.96 264.007 279.75 264.056 281.964H248.675V282.403C248.675 284.324 248.886 285.943 249.31 287.262C249.749 288.564 250.457 289.589 251.434 290.338C252.426 291.07 253.712 291.437 255.291 291.437C256.626 291.437 257.822 291.192 258.88 290.704C259.954 290.2 261.02 289.386 262.078 288.263L263.567 289.85ZM259.466 279.938C259.368 278.18 259.148 276.747 258.807 275.641C258.465 274.518 257.952 273.663 257.269 273.077C256.585 272.475 255.69 272.174 254.583 272.174C252.907 272.174 251.564 272.849 250.555 274.2C249.562 275.535 248.976 277.447 248.797 279.938H259.466ZM275.066 274.713L275.408 274.786C276.303 273.696 277.133 272.841 277.898 272.223C278.663 271.588 279.485 271.1 280.364 270.758C281.259 270.416 282.269 270.245 283.392 270.245C284.336 270.245 285.19 270.294 285.955 270.392V276.007H283.196C282.806 275.128 282.391 274.493 281.951 274.103C281.512 273.696 280.91 273.492 280.145 273.492C279.559 273.492 278.973 273.663 278.387 274.005C277.817 274.347 277.264 274.843 276.727 275.494C276.189 276.145 275.815 276.756 275.604 277.325C275.408 277.895 275.311 278.57 275.311 279.352V287.896C275.311 289.378 275.4 290.403 275.579 290.973C275.758 291.526 276.051 291.933 276.458 292.193C276.881 292.454 277.508 292.657 278.338 292.804V294H268.499V292.804C269.118 292.608 269.557 292.438 269.817 292.291C270.094 292.145 270.33 291.941 270.525 291.681C270.721 291.42 270.867 291.021 270.965 290.484C271.062 289.947 271.111 289.109 271.111 287.97V277.325C271.111 276.284 271.095 275.445 271.062 274.811C271.03 274.176 270.916 273.671 270.721 273.297C270.525 272.906 270.224 272.621 269.817 272.442C269.427 272.247 268.865 272.084 268.133 271.954V270.685L273.846 270.44H275.335L275.066 274.713ZM310.735 273.126L306.219 272.955L305.999 273.224C306.504 273.728 306.902 274.42 307.195 275.299C307.488 276.161 307.635 277.097 307.635 278.106C307.635 280.759 306.813 282.81 305.169 284.259C303.541 285.691 301.222 286.407 298.211 286.407C296.86 286.407 295.696 286.236 294.72 285.895C293.483 286.839 292.864 287.766 292.864 288.678C292.864 289.28 292.978 289.736 293.206 290.045C293.45 290.354 293.841 290.574 294.378 290.704C294.931 290.834 295.761 290.899 296.868 290.899H302.728C304.453 290.899 305.861 291.168 306.951 291.705C308.042 292.242 308.815 292.966 309.271 293.878C309.743 294.773 309.979 295.823 309.979 297.027C309.979 298.557 309.539 299.916 308.66 301.104C307.781 302.309 306.512 303.245 304.852 303.912C303.191 304.579 301.255 304.913 299.041 304.913C297.397 304.913 295.892 304.815 294.524 304.62C293.174 304.425 292.01 304.091 291.033 303.619C290.073 303.163 289.324 302.553 288.787 301.788C288.266 301.039 288.006 300.095 288.006 298.956C288.006 297.931 288.348 296.995 289.031 296.148C289.715 295.318 290.683 294.586 291.937 293.951C291.172 293.642 290.569 293.186 290.13 292.584C289.69 291.982 289.471 291.274 289.471 290.46C289.471 289.532 289.731 288.686 290.252 287.921C290.773 287.14 291.692 286.253 293.011 285.26C291.839 284.576 290.944 283.648 290.325 282.477C289.723 281.305 289.422 279.97 289.422 278.473C289.422 277.073 289.65 275.86 290.105 274.835C290.577 273.793 291.22 272.939 292.034 272.271C292.864 271.588 293.841 271.083 294.964 270.758C296.087 270.416 297.299 270.245 298.602 270.245C299.773 270.245 300.937 270.383 302.093 270.66H310.735V273.126ZM293.792 278.082C293.792 280.117 294.207 281.687 295.037 282.794C295.867 283.901 297.063 284.454 298.626 284.454C299.456 284.454 300.164 284.299 300.75 283.99C301.336 283.665 301.808 283.225 302.166 282.672C302.54 282.118 302.809 281.484 302.972 280.768C303.151 280.035 303.24 279.27 303.24 278.473C303.24 277.04 303.037 275.844 302.63 274.884C302.223 273.924 301.67 273.224 300.97 272.784C300.27 272.328 299.464 272.101 298.553 272.101C297.007 272.101 295.826 272.613 295.013 273.639C294.199 274.664 293.792 276.145 293.792 278.082ZM294.402 294.391C293.572 295.009 292.946 295.66 292.522 296.344C292.116 297.044 291.912 297.833 291.912 298.712C291.912 300.177 292.49 301.251 293.646 301.935C294.817 302.634 296.6 302.984 298.992 302.984C300.457 302.984 301.71 302.789 302.752 302.398C303.81 302.008 304.616 301.446 305.169 300.714C305.722 299.981 305.999 299.127 305.999 298.15C305.999 297.695 305.942 297.247 305.828 296.808C305.714 296.384 305.494 296.002 305.169 295.66C304.86 295.318 304.412 295.042 303.826 294.83C303.24 294.635 302.475 294.537 301.531 294.537H297.894C296.575 294.537 295.411 294.488 294.402 294.391ZM323.87 296.002C322.975 298.02 322.104 299.656 321.258 300.909C320.411 302.162 319.476 303.106 318.45 303.741C317.441 304.376 316.237 304.693 314.837 304.693C313.942 304.693 312.933 304.588 311.81 304.376V299.542H313.982C314.178 300.209 314.422 300.673 314.715 300.934C315.008 301.194 315.431 301.324 315.984 301.324C316.473 301.324 316.904 301.227 317.278 301.031C317.669 300.852 318.068 300.535 318.475 300.079C318.898 299.623 319.386 298.924 319.939 297.979C320.509 297.035 321.144 295.839 321.844 294.391L315.008 276.007C314.568 274.819 314.21 273.989 313.934 273.517C313.673 273.045 313.388 272.687 313.079 272.442C312.77 272.198 312.298 272.003 311.663 271.856V270.66H321.6V271.856C320.835 272.035 320.298 272.215 319.988 272.394C319.679 272.556 319.451 272.776 319.305 273.053C319.158 273.313 319.085 273.655 319.085 274.078C319.085 274.518 319.134 274.973 319.231 275.445C319.345 275.917 319.516 276.471 319.744 277.105L324.09 289.337L328.973 277.618C329.249 276.967 329.461 276.373 329.607 275.836C329.77 275.283 329.852 274.77 329.852 274.298C329.852 273.598 329.656 273.069 329.266 272.711C328.891 272.353 328.232 272.068 327.288 271.856V270.66H336.419V271.856C335.784 271.987 335.296 272.19 334.954 272.467C334.612 272.727 334.271 273.15 333.929 273.736C333.587 274.306 333.18 275.112 332.708 276.153L323.87 296.002Z" fill="#FF0606"/>
<path d="M246.383 346.871C245.667 347.05 245.146 347.229 244.82 347.408C244.511 347.587 244.259 347.815 244.063 348.092C243.884 348.352 243.746 348.751 243.648 349.288C243.567 349.825 243.526 350.655 243.526 351.778V372.896C243.526 373.987 243.559 374.785 243.624 375.289C243.705 375.794 243.827 376.192 243.99 376.485C244.169 376.778 244.422 377.022 244.747 377.218C245.089 377.413 245.634 377.608 246.383 377.804V379H236.202V377.804C237.13 377.576 237.773 377.315 238.131 377.022C238.489 376.729 238.733 376.298 238.863 375.729C238.993 375.159 239.059 374.215 239.059 372.896V363.546C239.059 361.088 239.091 358.606 239.156 356.1C239.238 353.577 239.327 351.852 239.425 350.924H239.01L229.342 375.118H226.534L217.55 350.533H217.135C217.216 351.526 217.289 353.325 217.354 355.929C217.436 358.533 217.477 361.21 217.477 363.961V372.896C217.477 373.987 217.509 374.785 217.574 375.289C217.656 375.794 217.778 376.192 217.94 376.485C218.119 376.778 218.372 377.022 218.697 377.218C219.039 377.413 219.584 377.608 220.333 377.804V379H211.422V377.804C212.431 377.543 213.106 377.258 213.448 376.949C213.79 376.624 214.01 376.168 214.107 375.582C214.221 374.996 214.278 374.101 214.278 372.896V351.778C214.278 350.655 214.238 349.841 214.156 349.337C214.075 348.816 213.937 348.417 213.741 348.141C213.562 347.848 213.318 347.62 213.009 347.457C212.7 347.278 212.171 347.083 211.422 346.871V345.675H220.138L228.707 369.43L238.131 345.675H246.383V346.871ZM265.816 375.509L265.45 375.411C264.034 376.86 262.7 377.885 261.446 378.487C260.209 379.09 258.891 379.391 257.491 379.391C256.254 379.391 255.164 379.155 254.22 378.683C253.276 378.194 252.551 377.519 252.047 376.656C251.542 375.777 251.29 374.768 251.29 373.629C251.29 371.253 252.462 369.422 254.806 368.136C257.166 366.834 260.698 366.077 265.401 365.865V364.278C265.401 362.586 265.239 361.251 264.913 360.274C264.588 359.298 264.075 358.582 263.375 358.126C262.675 357.67 261.739 357.442 260.567 357.442C259.298 357.442 258.272 357.776 257.491 358.443C256.726 359.111 256.148 360.112 255.758 361.446H252.56V358.272C254.122 357.459 255.424 356.865 256.466 356.49C257.507 356.1 258.549 355.799 259.591 355.587C260.632 355.359 261.69 355.245 262.765 355.245C264.376 355.245 265.67 355.506 266.646 356.026C267.623 356.531 268.355 357.312 268.844 358.37C269.332 359.428 269.576 361.023 269.576 363.155V371.651C269.576 372.856 269.584 373.71 269.601 374.215C269.617 374.703 269.666 375.159 269.747 375.582C269.828 376.005 269.951 376.347 270.113 376.607C270.276 376.852 270.512 377.063 270.821 377.242C271.147 377.421 271.668 377.608 272.384 377.804V379H265.694L265.816 375.509ZM265.401 367.867C262.097 367.9 259.623 368.339 257.979 369.186C256.336 370.032 255.514 371.31 255.514 373.019C255.514 373.946 255.701 374.679 256.075 375.216C256.45 375.753 256.922 376.127 257.491 376.339C258.061 376.534 258.736 376.632 259.518 376.632C260.624 376.632 261.625 376.363 262.521 375.826C263.432 375.289 264.14 374.605 264.645 373.775C265.149 372.945 265.401 372.123 265.401 371.31V367.867ZM292.477 361.007H290.133C289.775 360.03 289.352 359.265 288.863 358.712C288.375 358.142 287.822 357.743 287.203 357.516C286.585 357.288 285.828 357.174 284.933 357.174C283.631 357.174 282.589 357.483 281.808 358.102C281.043 358.704 280.66 359.534 280.66 360.592C280.66 361.34 280.815 361.959 281.124 362.447C281.433 362.936 281.913 363.391 282.564 363.814C283.215 364.238 284.363 364.799 286.007 365.499C287.667 366.215 288.945 366.874 289.84 367.477C290.751 368.079 291.459 368.779 291.964 369.576C292.485 370.374 292.745 371.326 292.745 372.433C292.745 373.718 292.525 374.801 292.086 375.68C291.646 376.559 291.028 377.275 290.23 377.828C289.433 378.382 288.481 378.78 287.374 379.024C286.284 379.269 285.087 379.391 283.785 379.391C282.418 379.391 281.091 379.285 279.806 379.073C278.52 378.878 277.267 378.618 276.046 378.292V373.189H278.438C278.878 374.687 279.529 375.777 280.392 376.461C281.254 377.128 282.442 377.462 283.956 377.462C284.542 377.462 285.112 377.405 285.665 377.291C286.235 377.161 286.739 376.957 287.179 376.681C287.618 376.388 287.968 375.997 288.229 375.509C288.489 375.021 288.619 374.41 288.619 373.678C288.619 372.848 288.456 372.172 288.131 371.651C287.805 371.131 287.301 370.659 286.617 370.235C285.934 369.796 284.729 369.21 283.004 368.478C281.523 367.859 280.335 367.257 279.439 366.671C278.544 366.085 277.836 365.393 277.315 364.596C276.811 363.798 276.559 362.854 276.559 361.764C276.559 360.429 276.917 359.273 277.633 358.297C278.365 357.304 279.415 356.547 280.782 356.026C282.149 355.506 283.753 355.245 285.592 355.245C286.666 355.245 287.7 355.302 288.692 355.416C289.701 355.514 290.963 355.717 292.477 356.026V361.007ZM313.961 361.007H311.617C311.259 360.03 310.836 359.265 310.348 358.712C309.859 358.142 309.306 357.743 308.688 357.516C308.069 357.288 307.312 357.174 306.417 357.174C305.115 357.174 304.073 357.483 303.292 358.102C302.527 358.704 302.145 359.534 302.145 360.592C302.145 361.34 302.299 361.959 302.608 362.447C302.918 362.936 303.398 363.391 304.049 363.814C304.7 364.238 305.847 364.799 307.491 365.499C309.151 366.215 310.429 366.874 311.324 367.477C312.236 368.079 312.944 368.779 313.448 369.576C313.969 370.374 314.229 371.326 314.229 372.433C314.229 373.718 314.01 374.801 313.57 375.68C313.131 376.559 312.512 377.275 311.715 377.828C310.917 378.382 309.965 378.78 308.858 379.024C307.768 379.269 306.572 379.391 305.27 379.391C303.902 379.391 302.576 379.285 301.29 379.073C300.004 378.878 298.751 378.618 297.53 378.292V373.189H299.923C300.362 374.687 301.013 375.777 301.876 376.461C302.739 377.128 303.927 377.462 305.44 377.462C306.026 377.462 306.596 377.405 307.149 377.291C307.719 377.161 308.224 376.957 308.663 376.681C309.103 376.388 309.452 375.997 309.713 375.509C309.973 375.021 310.104 374.41 310.104 373.678C310.104 372.848 309.941 372.172 309.615 371.651C309.29 371.131 308.785 370.659 308.102 370.235C307.418 369.796 306.214 369.21 304.488 368.478C303.007 367.859 301.819 367.257 300.924 366.671C300.029 366.085 299.321 365.393 298.8 364.596C298.295 363.798 298.043 362.854 298.043 361.764C298.043 360.429 298.401 359.273 299.117 358.297C299.85 357.304 300.899 356.547 302.267 356.026C303.634 355.506 305.237 355.245 307.076 355.245C308.15 355.245 309.184 355.302 310.177 355.416C311.186 355.514 312.447 355.717 313.961 356.026V361.007ZM340.743 379.391C337.358 379.391 334.77 378.398 332.979 376.412C331.205 374.41 330.318 371.456 330.318 367.55C330.318 364.864 330.782 362.594 331.71 360.738C332.654 358.883 333.94 357.507 335.567 356.612C337.195 355.701 339.05 355.245 341.134 355.245C344.617 355.245 347.254 356.262 349.044 358.297C350.834 360.315 351.729 363.22 351.729 367.013C351.729 369.715 351.282 371.993 350.387 373.849C349.492 375.704 348.222 377.096 346.578 378.023C344.934 378.935 342.989 379.391 340.743 379.391ZM334.933 367.037C334.933 370.39 335.462 372.97 336.52 374.776C337.594 376.567 339.124 377.462 341.109 377.462C342.2 377.462 343.128 377.201 343.893 376.681C344.658 376.144 345.276 375.427 345.748 374.532C346.236 373.637 346.586 372.604 346.798 371.432C347.009 370.243 347.115 369.007 347.115 367.721C347.115 365.328 346.847 363.342 346.31 361.764C345.789 360.185 345.073 359.029 344.161 358.297C343.25 357.548 342.208 357.174 341.036 357.174C339.067 357.174 337.553 358.028 336.495 359.737C335.453 361.446 334.933 363.88 334.933 367.037ZM369.234 358.126H363.399V372.896C363.399 373.987 363.448 374.809 363.546 375.362C363.66 375.916 363.814 376.339 364.01 376.632C364.221 376.909 364.49 377.136 364.815 377.315C365.157 377.478 365.694 377.641 366.427 377.804V379H356.441V377.804C357.158 377.608 357.67 377.421 357.979 377.242C358.289 377.063 358.525 376.835 358.688 376.559C358.867 376.282 358.997 375.883 359.078 375.362C359.16 374.841 359.2 374.02 359.2 372.896V358.126H356.246V356.881C356.865 356.783 357.271 356.71 357.467 356.661C357.678 356.596 357.874 356.507 358.053 356.393C358.248 356.279 358.411 356.116 358.541 355.904C358.688 355.693 358.81 355.383 358.907 354.977C359.021 354.553 359.111 353.967 359.176 353.219C359.322 351.445 359.64 350.004 360.128 348.897C360.632 347.791 361.357 346.847 362.301 346.065C363.261 345.284 364.278 344.739 365.353 344.43C366.443 344.104 367.721 343.941 369.186 343.941C370.471 343.941 371.562 344.031 372.457 344.21V348.629H370.04C369.731 347.669 369.365 346.993 368.941 346.603C368.535 346.196 367.957 345.992 367.208 345.992C366.671 345.992 366.215 346.065 365.841 346.212C365.483 346.358 365.149 346.586 364.84 346.896C364.531 347.205 364.262 347.62 364.034 348.141C363.823 348.661 363.66 349.312 363.546 350.094C363.448 350.859 363.399 351.86 363.399 353.097V355.66H369.234V358.126ZM381.393 356.881C382.206 356.751 382.866 356.523 383.37 356.197C383.875 355.872 384.265 355.457 384.542 354.952C384.835 354.431 385.063 353.788 385.226 353.023C385.388 352.242 385.559 351.111 385.738 349.63H389.205V355.66H397.091V358.126H389.205V368.99C389.205 370.569 389.27 371.83 389.4 372.774C389.531 373.702 389.775 374.435 390.133 374.972C390.491 375.493 390.898 375.867 391.354 376.095C391.809 376.323 392.395 376.437 393.111 376.437C393.762 376.437 394.373 376.306 394.942 376.046C395.512 375.769 396.074 375.379 396.627 374.874L397.726 376.192C396.57 377.315 395.471 378.129 394.43 378.634C393.404 379.138 392.338 379.391 391.231 379.391C389.132 379.391 387.569 378.772 386.544 377.535C385.519 376.282 385.006 374.329 385.006 371.676V358.126H381.393V356.881ZM406.344 359.493L406.441 359.518C407.711 358.232 408.712 357.337 409.444 356.832C410.193 356.311 410.925 355.921 411.642 355.66C412.374 355.4 413.155 355.27 413.985 355.27C414.881 355.27 415.678 355.375 416.378 355.587C417.078 355.799 417.688 356.124 418.209 356.563C418.746 356.987 419.177 357.516 419.503 358.15C419.845 358.769 420.097 359.518 420.26 360.396C420.423 361.259 420.504 362.358 420.504 363.692V372.896C420.504 374.312 420.561 375.281 420.675 375.802C420.805 376.306 421.025 376.705 421.334 376.998C421.66 377.275 422.302 377.543 423.263 377.804V379H413.644V377.804C414.278 377.608 414.734 377.438 415.011 377.291C415.287 377.145 415.515 376.941 415.694 376.681C415.89 376.42 416.036 376.021 416.134 375.484C416.248 374.931 416.305 374.101 416.305 372.994V366.598C416.305 364.433 416.191 362.781 415.963 361.642C415.751 360.486 415.32 359.623 414.669 359.054C414.034 358.484 413.139 358.199 411.983 358.199C411.332 358.199 410.746 358.313 410.226 358.541C409.705 358.769 409.103 359.176 408.419 359.762C407.735 360.348 407.215 360.95 406.856 361.568C406.515 362.187 406.344 362.846 406.344 363.546V372.896C406.344 374.003 406.368 374.793 406.417 375.265C406.482 375.737 406.596 376.135 406.759 376.461C406.922 376.77 407.166 377.031 407.491 377.242C407.833 377.438 408.354 377.625 409.054 377.804V379H399.386V377.804C400.102 377.608 400.615 377.421 400.924 377.242C401.233 377.063 401.469 376.835 401.632 376.559C401.811 376.282 401.941 375.883 402.022 375.362C402.104 374.841 402.145 374.02 402.145 372.896V352.462C402.145 350.899 402.128 349.809 402.096 349.19C402.079 348.572 402.014 348.051 401.9 347.628C401.803 347.188 401.656 346.847 401.461 346.603C401.282 346.358 401.03 346.163 400.704 346.017C400.395 345.87 399.825 345.724 398.995 345.577V344.308L404.879 344.063H406.344V359.493ZM446.896 374.85C445.854 375.94 444.894 376.795 444.015 377.413C443.152 378.032 442.2 378.52 441.158 378.878C440.117 379.22 438.969 379.391 437.716 379.391C434.363 379.391 431.832 378.39 430.123 376.388C428.414 374.369 427.56 371.399 427.56 367.477C427.56 365.051 427.991 362.911 428.854 361.056C429.732 359.2 430.978 357.768 432.589 356.759C434.2 355.75 436.056 355.245 438.155 355.245C439.799 355.245 441.199 355.506 442.354 356.026C443.51 356.547 444.43 357.263 445.113 358.175C445.813 359.07 446.35 360.209 446.725 361.593C447.115 362.96 447.335 364.75 447.384 366.964H432.003V367.403C432.003 369.324 432.215 370.943 432.638 372.262C433.077 373.564 433.785 374.589 434.762 375.338C435.755 376.07 437.04 376.437 438.619 376.437C439.954 376.437 441.15 376.192 442.208 375.704C443.282 375.2 444.348 374.386 445.406 373.263L446.896 374.85ZM442.794 364.938C442.696 363.18 442.477 361.747 442.135 360.641C441.793 359.518 441.28 358.663 440.597 358.077C439.913 357.475 439.018 357.174 437.911 357.174C436.235 357.174 434.892 357.849 433.883 359.2C432.89 360.535 432.304 362.447 432.125 364.938H442.794ZM187.496 418.42L187.838 418.518C188.814 417.541 189.612 416.809 190.23 416.32C190.865 415.816 191.476 415.417 192.062 415.124C192.647 414.815 193.193 414.595 193.697 414.465C194.218 414.335 194.747 414.27 195.284 414.27C196.912 414.27 198.238 414.644 199.264 415.393C200.289 416.141 200.997 417.289 201.388 418.835C202.608 417.598 203.593 416.687 204.342 416.101C205.107 415.515 205.88 415.067 206.661 414.758C207.459 414.432 208.313 414.27 209.225 414.27C210.315 414.27 211.251 414.432 212.032 414.758C212.83 415.067 213.497 415.555 214.034 416.223C214.588 416.874 214.986 417.696 215.23 418.688C215.491 419.681 215.621 421.016 215.621 422.692V431.896C215.621 433.133 215.662 433.988 215.743 434.46C215.825 434.932 215.938 435.298 216.085 435.559C216.248 435.819 216.484 436.047 216.793 436.242C217.102 436.421 217.623 436.608 218.355 436.804V438H208.761V436.804C209.396 436.608 209.851 436.438 210.128 436.291C210.405 436.145 210.632 435.941 210.812 435.681C211.007 435.42 211.153 435.021 211.251 434.484C211.365 433.931 211.422 433.101 211.422 431.994V425.598C211.422 424.214 211.381 423.075 211.3 422.18C211.235 421.268 211.121 420.544 210.958 420.007C210.812 419.47 210.624 419.047 210.396 418.737C210.185 418.428 209.941 418.16 209.664 417.932C209.387 417.704 209.062 417.525 208.688 417.395C208.313 417.264 207.817 417.199 207.198 417.199C206.547 417.199 205.937 417.329 205.367 417.59C204.814 417.85 204.203 418.29 203.536 418.908C202.885 419.527 202.413 420.153 202.12 420.788C201.827 421.407 201.681 422.139 201.681 422.985V431.896C201.681 433.133 201.721 433.988 201.803 434.46C201.884 434.932 201.998 435.298 202.145 435.559C202.307 435.819 202.543 436.047 202.853 436.242C203.162 436.421 203.683 436.608 204.415 436.804V438H194.82V436.804C195.455 436.608 195.911 436.438 196.188 436.291C196.464 436.145 196.692 435.941 196.871 435.681C197.066 435.42 197.213 435.021 197.311 434.484C197.424 433.931 197.481 433.101 197.481 431.994V425.598C197.481 424.149 197.441 422.969 197.359 422.058C197.278 421.146 197.148 420.414 196.969 419.86C196.806 419.307 196.586 418.859 196.31 418.518C196.049 418.176 195.781 417.915 195.504 417.736C195.227 417.557 194.902 417.427 194.527 417.346C194.153 417.248 193.73 417.199 193.258 417.199C192.59 417.199 191.964 417.354 191.378 417.663C190.792 417.956 190.19 418.387 189.571 418.957C188.969 419.527 188.513 420.121 188.204 420.739C187.895 421.358 187.74 422.025 187.74 422.741V431.896C187.74 432.824 187.765 433.532 187.813 434.021C187.862 434.509 187.936 434.891 188.033 435.168C188.147 435.445 188.285 435.673 188.448 435.852C188.611 436.014 188.839 436.177 189.132 436.34C189.441 436.486 189.897 436.641 190.499 436.804V438H180.929V436.804C181.547 436.608 181.987 436.438 182.247 436.291C182.524 436.145 182.76 435.941 182.955 435.681C183.15 435.42 183.297 435.021 183.395 434.484C183.492 433.947 183.541 433.109 183.541 431.97V421.325C183.541 420.284 183.525 419.445 183.492 418.811C183.46 418.176 183.346 417.671 183.15 417.297C182.955 416.906 182.654 416.621 182.247 416.442C181.856 416.247 181.295 416.084 180.562 415.954V414.66L186.275 414.44H187.765L187.496 418.42ZM233.126 438.391C229.741 438.391 227.153 437.398 225.362 435.412C223.588 433.41 222.701 430.456 222.701 426.55C222.701 423.864 223.165 421.594 224.093 419.738C225.037 417.883 226.323 416.507 227.95 415.612C229.578 414.701 231.433 414.245 233.517 414.245C237 414.245 239.636 415.262 241.427 417.297C243.217 419.315 244.112 422.22 244.112 426.013C244.112 428.715 243.665 430.993 242.77 432.849C241.874 434.704 240.605 436.096 238.961 437.023C237.317 437.935 235.372 438.391 233.126 438.391ZM227.315 426.037C227.315 429.39 227.844 431.97 228.902 433.776C229.977 435.567 231.507 436.462 233.492 436.462C234.583 436.462 235.51 436.201 236.275 435.681C237.04 435.144 237.659 434.427 238.131 433.532C238.619 432.637 238.969 431.604 239.181 430.432C239.392 429.243 239.498 428.007 239.498 426.721C239.498 424.328 239.229 422.342 238.692 420.764C238.172 419.185 237.455 418.029 236.544 417.297C235.632 416.548 234.591 416.174 233.419 416.174C231.45 416.174 229.936 417.028 228.878 418.737C227.836 420.446 227.315 422.88 227.315 426.037ZM256.393 414.66V415.856C255.644 416.035 255.115 416.206 254.806 416.369C254.496 416.532 254.26 416.743 254.098 417.004C253.951 417.264 253.878 417.614 253.878 418.054C253.878 418.493 253.927 418.957 254.024 419.445C254.138 419.917 254.309 420.471 254.537 421.105L258.785 433.459L263.766 421.618C264.091 420.837 264.319 420.194 264.449 419.689C264.579 419.185 264.645 418.713 264.645 418.273C264.645 417.59 264.457 417.069 264.083 416.711C263.725 416.353 263.058 416.068 262.081 415.856V414.66H271.212V415.856C270.577 415.987 270.089 416.19 269.747 416.467C269.405 416.727 269.063 417.15 268.722 417.736C268.38 418.306 267.973 419.112 267.501 420.153L259.273 438.244H256.393L249.776 420.007C249.321 418.754 248.954 417.899 248.678 417.443C248.417 416.971 248.124 416.621 247.799 416.394C247.49 416.166 247.034 415.987 246.432 415.856V414.66H256.393ZM280.514 405.09V409.826H276.021V405.09H280.514ZM273.531 436.804C274.166 436.608 274.614 436.438 274.874 436.291C275.151 436.145 275.379 435.941 275.558 435.681C275.753 435.42 275.899 435.021 275.997 434.484C276.111 433.947 276.168 433.109 276.168 431.97V421.325C276.168 420.284 276.152 419.445 276.119 418.811C276.087 418.176 275.973 417.671 275.777 417.297C275.582 416.906 275.281 416.621 274.874 416.442C274.483 416.247 273.922 416.084 273.189 415.954V414.66L278.878 414.44H280.367V431.896C280.367 433.296 280.432 434.273 280.562 434.826C280.693 435.363 280.937 435.778 281.295 436.071C281.669 436.348 282.271 436.592 283.102 436.804V438H273.531V436.804ZM311.227 438H301.607V436.804C302.242 436.608 302.698 436.438 302.975 436.291C303.251 436.145 303.479 435.941 303.658 435.681C303.854 435.42 304 435.021 304.098 434.484C304.212 433.931 304.269 433.101 304.269 431.994V425.598C304.269 424.458 304.236 423.425 304.171 422.497C304.106 421.569 303.992 420.812 303.829 420.227C303.683 419.624 303.495 419.16 303.268 418.835C303.056 418.493 302.796 418.208 302.486 417.98C302.193 417.736 301.852 417.549 301.461 417.419C301.07 417.272 300.558 417.199 299.923 417.199C299.288 417.199 298.686 417.329 298.116 417.59C297.547 417.834 296.92 418.265 296.236 418.884C295.553 419.502 295.056 420.113 294.747 420.715C294.438 421.317 294.283 422.009 294.283 422.79V431.896C294.283 433.296 294.348 434.273 294.479 434.826C294.609 435.363 294.853 435.778 295.211 436.071C295.585 436.348 296.188 436.592 297.018 436.804V438H287.447V436.804C288.082 436.608 288.53 436.438 288.79 436.291C289.067 436.145 289.295 435.941 289.474 435.681C289.669 435.42 289.815 435.021 289.913 434.484C290.027 433.947 290.084 433.109 290.084 431.97V421.325C290.084 420.284 290.068 419.445 290.035 418.811C290.003 418.176 289.889 417.671 289.693 417.297C289.498 416.906 289.197 416.621 288.79 416.442C288.399 416.247 287.838 416.084 287.105 415.954V414.66L292.818 414.44H294.308L294.039 418.42L294.381 418.518C295.585 417.297 296.554 416.426 297.286 415.905C298.035 415.384 298.784 414.986 299.532 414.709C300.297 414.416 301.103 414.27 301.949 414.27C302.828 414.27 303.609 414.375 304.293 414.587C304.993 414.782 305.603 415.091 306.124 415.515C306.661 415.938 307.101 416.467 307.442 417.102C307.784 417.72 308.036 418.469 308.199 419.348C308.378 420.227 308.468 421.341 308.468 422.692V431.896C308.468 433.02 308.5 433.833 308.565 434.338C308.631 434.842 308.744 435.233 308.907 435.51C309.07 435.786 309.306 436.022 309.615 436.218C309.924 436.397 310.462 436.592 311.227 436.804V438ZM337.276 417.126L332.76 416.955L332.54 417.224C333.045 417.728 333.443 418.42 333.736 419.299C334.029 420.161 334.176 421.097 334.176 422.106C334.176 424.759 333.354 426.81 331.71 428.259C330.082 429.691 327.763 430.407 324.752 430.407C323.401 430.407 322.237 430.236 321.261 429.895C320.024 430.839 319.405 431.766 319.405 432.678C319.405 433.28 319.519 433.736 319.747 434.045C319.991 434.354 320.382 434.574 320.919 434.704C321.472 434.834 322.302 434.899 323.409 434.899H329.269C330.994 434.899 332.402 435.168 333.492 435.705C334.583 436.242 335.356 436.966 335.812 437.878C336.284 438.773 336.52 439.823 336.52 441.027C336.52 442.557 336.08 443.916 335.201 445.104C334.322 446.309 333.053 447.245 331.393 447.912C329.732 448.579 327.796 448.913 325.582 448.913C323.938 448.913 322.433 448.815 321.065 448.62C319.715 448.425 318.551 448.091 317.574 447.619C316.614 447.163 315.865 446.553 315.328 445.788C314.807 445.039 314.547 444.095 314.547 442.956C314.547 441.931 314.889 440.995 315.572 440.148C316.256 439.318 317.224 438.586 318.478 437.951C317.713 437.642 317.11 437.186 316.671 436.584C316.231 435.982 316.012 435.274 316.012 434.46C316.012 433.532 316.272 432.686 316.793 431.921C317.314 431.14 318.233 430.253 319.552 429.26C318.38 428.576 317.485 427.648 316.866 426.477C316.264 425.305 315.963 423.97 315.963 422.473C315.963 421.073 316.191 419.86 316.646 418.835C317.118 417.793 317.761 416.939 318.575 416.271C319.405 415.588 320.382 415.083 321.505 414.758C322.628 414.416 323.84 414.245 325.143 414.245C326.314 414.245 327.478 414.383 328.634 414.66H337.276V417.126ZM320.333 422.082C320.333 424.117 320.748 425.687 321.578 426.794C322.408 427.901 323.604 428.454 325.167 428.454C325.997 428.454 326.705 428.299 327.291 427.99C327.877 427.665 328.349 427.225 328.707 426.672C329.081 426.118 329.35 425.484 329.513 424.768C329.692 424.035 329.781 423.27 329.781 422.473C329.781 421.04 329.578 419.844 329.171 418.884C328.764 417.924 328.211 417.224 327.511 416.784C326.811 416.328 326.005 416.101 325.094 416.101C323.548 416.101 322.368 416.613 321.554 417.639C320.74 418.664 320.333 420.145 320.333 422.082ZM320.943 438.391C320.113 439.009 319.487 439.66 319.063 440.344C318.657 441.044 318.453 441.833 318.453 442.712C318.453 444.177 319.031 445.251 320.187 445.935C321.358 446.634 323.141 446.984 325.533 446.984C326.998 446.984 328.251 446.789 329.293 446.398C330.351 446.008 331.157 445.446 331.71 444.714C332.263 443.981 332.54 443.127 332.54 442.15C332.54 441.695 332.483 441.247 332.369 440.808C332.255 440.384 332.035 440.002 331.71 439.66C331.401 439.318 330.953 439.042 330.367 438.83C329.781 438.635 329.016 438.537 328.072 438.537H324.435C323.116 438.537 321.952 438.488 320.943 438.391ZM361.739 438.391C358.354 438.391 355.766 437.398 353.976 435.412C352.201 433.41 351.314 430.456 351.314 426.55C351.314 423.864 351.778 421.594 352.706 419.738C353.65 417.883 354.936 416.507 356.563 415.612C358.191 414.701 360.047 414.245 362.13 414.245C365.613 414.245 368.25 415.262 370.04 417.297C371.83 419.315 372.726 422.22 372.726 426.013C372.726 428.715 372.278 430.993 371.383 432.849C370.488 434.704 369.218 436.096 367.574 437.023C365.93 437.935 363.985 438.391 361.739 438.391ZM355.929 426.037C355.929 429.39 356.458 431.97 357.516 433.776C358.59 435.567 360.12 436.462 362.105 436.462C363.196 436.462 364.124 436.201 364.889 435.681C365.654 435.144 366.272 434.427 366.744 433.532C367.232 432.637 367.582 431.604 367.794 430.432C368.006 429.243 368.111 428.007 368.111 426.721C368.111 424.328 367.843 422.342 367.306 420.764C366.785 419.185 366.069 418.029 365.157 417.297C364.246 416.548 363.204 416.174 362.032 416.174C360.063 416.174 358.549 417.028 357.491 418.737C356.45 420.446 355.929 422.88 355.929 426.037ZM383.834 418.493L383.932 418.518C385.071 417.329 386.015 416.467 386.764 415.93C387.529 415.393 388.31 414.986 389.107 414.709C389.921 414.416 390.808 414.27 391.769 414.27C393.51 414.27 394.999 414.717 396.236 415.612C397.49 416.491 398.45 417.818 399.117 419.592C399.801 421.366 400.143 423.539 400.143 426.11C400.143 428.763 399.736 431.009 398.922 432.849C398.124 434.672 396.936 436.055 395.357 436.999C393.795 437.927 391.939 438.391 389.791 438.391C388.587 438.391 387.447 438.277 386.373 438.049C385.315 437.837 384.2 437.455 383.028 436.901L381.319 438.391L379.635 438V411.462C379.635 409.899 379.618 408.809 379.586 408.19C379.57 407.572 379.505 407.051 379.391 406.628C379.293 406.188 379.146 405.847 378.951 405.603C378.772 405.358 378.52 405.163 378.194 405.017C377.885 404.87 377.315 404.724 376.485 404.577V403.308L382.394 403.063H383.834V418.493ZM383.834 429.211C383.834 430.464 383.891 431.465 384.005 432.214C384.119 432.946 384.306 433.557 384.566 434.045C384.843 434.533 385.234 434.981 385.738 435.388C386.259 435.795 386.837 436.079 387.472 436.242C388.106 436.389 388.814 436.462 389.596 436.462C391.549 436.462 393.03 435.664 394.039 434.069C395.048 432.474 395.553 430.082 395.553 426.892C395.553 423.669 395.089 421.252 394.161 419.641C393.25 418.013 391.866 417.199 390.011 417.199C389.083 417.199 388.294 417.346 387.643 417.639C386.992 417.915 386.34 418.355 385.689 418.957C385.055 419.559 384.583 420.153 384.273 420.739C383.98 421.325 383.834 421.993 383.834 422.741V429.211ZM411.812 405.09V409.826H407.345V405.09H411.812ZM411.69 437.536C411.69 439.815 411.454 441.638 410.982 443.005C410.51 444.372 409.688 445.528 408.517 446.472C407.361 447.432 405.742 448.213 403.658 448.815L402.828 446.667C403.837 446.276 404.602 445.902 405.123 445.544C405.66 445.202 406.1 444.795 406.441 444.323C406.783 443.868 407.044 443.249 407.223 442.468C407.402 441.687 407.491 440.686 407.491 439.465V421.325C407.491 420.056 407.467 419.144 407.418 418.591C407.369 418.037 407.263 417.606 407.101 417.297C406.938 416.971 406.686 416.711 406.344 416.516C406.002 416.32 405.383 416.133 404.488 415.954V414.66L410.201 414.44H411.69V437.536ZM437.911 433.85C436.869 434.94 435.909 435.795 435.03 436.413C434.168 437.032 433.215 437.52 432.174 437.878C431.132 438.22 429.985 438.391 428.731 438.391C425.379 438.391 422.848 437.39 421.139 435.388C419.43 433.369 418.575 430.399 418.575 426.477C418.575 424.051 419.007 421.911 419.869 420.056C420.748 418.2 421.993 416.768 423.604 415.759C425.216 414.75 427.071 414.245 429.171 414.245C430.815 414.245 432.215 414.506 433.37 415.026C434.526 415.547 435.445 416.263 436.129 417.175C436.829 418.07 437.366 419.209 437.74 420.593C438.131 421.96 438.351 423.75 438.399 425.964H423.019V426.403C423.019 428.324 423.23 429.943 423.653 431.262C424.093 432.564 424.801 433.589 425.777 434.338C426.77 435.07 428.056 435.437 429.635 435.437C430.969 435.437 432.166 435.192 433.224 434.704C434.298 434.2 435.364 433.386 436.422 432.263L437.911 433.85ZM433.81 423.938C433.712 422.18 433.492 420.747 433.15 419.641C432.809 418.518 432.296 417.663 431.612 417.077C430.929 416.475 430.034 416.174 428.927 416.174C427.25 416.174 425.908 416.849 424.898 418.2C423.906 419.535 423.32 421.447 423.141 423.938H433.81ZM461.007 415.222V420.324H457.906C457.63 419.266 457.288 418.436 456.881 417.834C456.474 417.215 456.002 416.784 455.465 416.54C454.928 416.296 454.26 416.174 453.463 416.174C452.324 416.174 451.314 416.54 450.436 417.272C449.557 418.005 448.857 419.12 448.336 420.617C447.831 422.115 447.579 423.946 447.579 426.11C447.579 427.494 447.677 428.763 447.872 429.919C448.067 431.058 448.401 432.035 448.873 432.849C449.345 433.662 449.972 434.297 450.753 434.753C451.534 435.209 452.503 435.437 453.658 435.437C454.781 435.437 455.823 435.217 456.783 434.777C457.76 434.338 458.769 433.565 459.811 432.458L461.202 434.069C460.372 434.981 459.64 435.689 459.005 436.193C458.37 436.682 457.687 437.097 456.954 437.438C456.238 437.764 455.522 438 454.806 438.146C454.106 438.309 453.341 438.391 452.511 438.391C449.435 438.391 447.083 437.373 445.455 435.339C443.827 433.288 443.014 430.334 443.014 426.477C443.014 424.068 443.469 421.936 444.381 420.08C445.292 418.208 446.57 416.768 448.214 415.759C449.858 414.75 451.754 414.245 453.902 414.245C455.237 414.245 456.466 414.326 457.589 414.489C458.728 414.636 459.868 414.88 461.007 415.222ZM463.424 415.881C464.238 415.751 464.897 415.523 465.401 415.197C465.906 414.872 466.297 414.457 466.573 413.952C466.866 413.431 467.094 412.788 467.257 412.023C467.42 411.242 467.59 410.111 467.77 408.63H471.236V414.66H479.122V417.126H471.236V427.99C471.236 429.569 471.301 430.83 471.432 431.774C471.562 432.702 471.806 433.435 472.164 433.972C472.522 434.493 472.929 434.867 473.385 435.095C473.84 435.323 474.426 435.437 475.143 435.437C475.794 435.437 476.404 435.306 476.974 435.046C477.543 434.769 478.105 434.379 478.658 433.874L479.757 435.192C478.601 436.315 477.503 437.129 476.461 437.634C475.436 438.138 474.369 438.391 473.263 438.391C471.163 438.391 469.601 437.772 468.575 436.535C467.55 435.282 467.037 433.329 467.037 430.676V417.126H463.424V415.881Z" fill="#B50D22"/>
<path d="M559.219 371.407C559.544 372.84 559.984 373.971 560.537 374.801C561.09 375.631 561.807 376.249 562.686 376.656C563.564 377.047 564.696 377.242 566.079 377.242C567.983 377.242 569.44 376.746 570.449 375.753C571.475 374.76 571.987 373.312 571.987 371.407C571.987 370.187 571.776 369.161 571.353 368.331C570.929 367.501 570.238 366.72 569.277 365.987C568.317 365.255 566.852 364.4 564.883 363.424C562.979 362.48 561.473 361.56 560.366 360.665C559.259 359.754 558.429 358.769 557.876 357.711C557.339 356.653 557.07 355.497 557.07 354.244C557.07 352.421 557.493 350.842 558.34 349.508C559.202 348.157 560.456 347.115 562.1 346.383C563.76 345.65 565.656 345.284 567.788 345.284C569.025 345.284 570.229 345.349 571.401 345.479C572.59 345.61 574.071 345.903 575.845 346.358V352.95H573.428C573.053 351.518 572.581 350.403 572.012 349.605C571.442 348.808 570.775 348.255 570.01 347.945C569.245 347.62 568.252 347.457 567.031 347.457C565.973 347.457 565.021 347.652 564.175 348.043C563.345 348.434 562.686 349.028 562.197 349.825C561.709 350.606 561.465 351.542 561.465 352.633C561.465 353.788 561.668 354.765 562.075 355.562C562.498 356.36 563.149 357.101 564.028 357.784C564.907 358.468 566.209 359.233 567.935 360.079C570.018 361.121 571.629 362.089 572.769 362.984C573.924 363.88 574.819 364.905 575.454 366.061C576.105 367.2 576.431 368.535 576.431 370.064C576.431 371.773 576.162 373.222 575.625 374.41C575.088 375.582 574.339 376.542 573.379 377.291C572.435 378.023 571.296 378.561 569.961 378.902C568.643 379.228 567.194 379.391 565.615 379.391C563.06 379.391 560.114 378.959 556.777 378.097V371.407H559.219ZM587.832 378.268V383.419C587.832 384.477 587.865 385.266 587.93 385.787C588.011 386.308 588.141 386.715 588.32 387.008C588.516 387.317 588.784 387.569 589.126 387.765C589.484 387.96 590.054 388.139 590.835 388.302V389.498H580.874V388.302C581.46 388.139 581.932 387.968 582.29 387.789C582.664 387.626 582.949 387.374 583.145 387.032C583.34 386.707 583.47 386.259 583.535 385.689C583.6 385.12 583.633 384.363 583.633 383.419V362.472C583.633 361.3 583.617 360.47 583.584 359.981C583.551 359.477 583.486 359.062 583.389 358.736C583.291 358.411 583.145 358.142 582.949 357.931C582.77 357.719 582.518 357.54 582.192 357.394C581.883 357.247 581.362 357.101 580.63 356.954V355.66L586.367 355.44H587.856L587.539 359.42L587.905 359.518C588.914 358.492 589.712 357.752 590.298 357.296C590.884 356.824 591.486 356.433 592.104 356.124C592.739 355.815 593.341 355.595 593.911 355.465C594.497 355.335 595.116 355.27 595.767 355.27C598.452 355.27 600.511 356.279 601.943 358.297C603.392 360.299 604.116 363.237 604.116 367.11C604.116 369.796 603.709 372.058 602.896 373.897C602.082 375.72 600.894 377.096 599.331 378.023C597.785 378.935 595.938 379.391 593.789 379.391C592.585 379.391 591.494 379.285 590.518 379.073C589.541 378.878 588.646 378.609 587.832 378.268ZM587.832 370.211C587.832 371.773 587.93 372.978 588.125 373.824C588.32 374.671 588.662 375.362 589.15 375.899C589.655 376.42 590.241 376.811 590.908 377.071C591.592 377.332 592.487 377.462 593.594 377.462C595.563 377.462 597.044 376.648 598.037 375.021C599.03 373.377 599.526 370.96 599.526 367.77C599.526 361.389 597.663 358.199 593.936 358.199C593.024 358.199 592.235 358.346 591.567 358.639C590.916 358.915 590.265 359.371 589.614 360.006C588.963 360.641 588.499 361.259 588.223 361.861C587.962 362.447 587.832 363.082 587.832 363.766V370.211ZM628.555 374.85C627.513 375.94 626.553 376.795 625.674 377.413C624.811 378.032 623.859 378.52 622.817 378.878C621.776 379.22 620.628 379.391 619.375 379.391C616.022 379.391 613.491 378.39 611.782 376.388C610.073 374.369 609.219 371.399 609.219 367.477C609.219 365.051 609.65 362.911 610.513 361.056C611.392 359.2 612.637 357.768 614.248 356.759C615.859 355.75 617.715 355.245 619.814 355.245C621.458 355.245 622.858 355.506 624.014 356.026C625.169 356.547 626.089 357.263 626.772 358.175C627.472 359.07 628.009 360.209 628.384 361.593C628.774 362.96 628.994 364.75 629.043 366.964H613.662V367.403C613.662 369.324 613.874 370.943 614.297 372.262C614.736 373.564 615.444 374.589 616.421 375.338C617.414 376.07 618.7 376.437 620.278 376.437C621.613 376.437 622.809 376.192 623.867 375.704C624.941 375.2 626.007 374.386 627.065 373.263L628.555 374.85ZM624.453 364.938C624.355 363.18 624.136 361.747 623.794 360.641C623.452 359.518 622.939 358.663 622.256 358.077C621.572 357.475 620.677 357.174 619.57 357.174C617.894 357.174 616.551 357.849 615.542 359.2C614.549 360.535 613.963 362.447 613.784 364.938H624.453ZM652.969 374.85C651.927 375.94 650.967 376.795 650.088 377.413C649.225 378.032 648.273 378.52 647.231 378.878C646.19 379.22 645.042 379.391 643.789 379.391C640.436 379.391 637.905 378.39 636.196 376.388C634.487 374.369 633.633 371.399 633.633 367.477C633.633 365.051 634.064 362.911 634.927 361.056C635.806 359.2 637.051 357.768 638.662 356.759C640.273 355.75 642.129 355.245 644.229 355.245C645.872 355.245 647.272 355.506 648.428 356.026C649.583 356.547 650.503 357.263 651.187 358.175C651.886 359.07 652.424 360.209 652.798 361.593C653.188 362.96 653.408 364.75 653.457 366.964H638.076V367.403C638.076 369.324 638.288 370.943 638.711 372.262C639.15 373.564 639.858 374.589 640.835 375.338C641.828 376.07 643.114 376.437 644.692 376.437C646.027 376.437 647.223 376.192 648.281 375.704C649.355 375.2 650.422 374.386 651.479 373.263L652.969 374.85ZM648.867 364.938C648.77 363.18 648.55 361.747 648.208 360.641C647.866 359.518 647.354 358.663 646.67 358.077C645.986 357.475 645.091 357.174 643.984 357.174C642.308 357.174 640.965 357.849 639.956 359.2C638.963 360.535 638.377 362.447 638.198 364.938H648.867ZM674.355 352.462C674.355 350.899 674.339 349.809 674.307 349.19C674.29 348.572 674.225 348.051 674.111 347.628C674.014 347.188 673.867 346.847 673.672 346.603C673.493 346.358 673.241 346.163 672.915 346.017C672.606 345.87 672.036 345.724 671.206 345.577V344.308L677.114 344.063H678.555V372.335C678.555 373.604 678.579 374.516 678.628 375.069C678.677 375.606 678.783 376.038 678.945 376.363C679.108 376.689 679.36 376.957 679.702 377.169C680.06 377.364 680.679 377.551 681.558 377.73V379L675.796 379.244H674.331L674.624 375.24L674.258 375.143C673.232 376.233 672.337 377.055 671.572 377.608C670.824 378.146 670.018 378.577 669.155 378.902C668.309 379.228 667.397 379.391 666.421 379.391C663.752 379.391 661.693 378.382 660.244 376.363C658.796 374.329 658.071 371.399 658.071 367.574C658.071 364.905 658.543 362.643 659.487 360.787C660.431 358.915 661.701 357.524 663.296 356.612C664.907 355.701 666.714 355.245 668.716 355.245C669.79 355.245 670.767 355.335 671.646 355.514C672.524 355.676 673.428 355.953 674.355 356.344V352.462ZM674.355 364.522C674.355 363.253 674.299 362.236 674.185 361.471C674.071 360.706 673.875 360.063 673.599 359.542C673.338 359.021 672.98 358.582 672.524 358.224C672.069 357.866 671.564 357.605 671.011 357.442C670.474 357.28 669.823 357.198 669.058 357.198C666.974 357.198 665.387 358.036 664.297 359.713C663.206 361.373 662.661 363.766 662.661 366.891C662.661 370.016 663.109 372.392 664.004 374.02C664.899 375.647 666.258 376.461 668.081 376.461C668.797 376.461 669.391 376.404 669.863 376.29C670.335 376.16 670.799 375.965 671.255 375.704C671.711 375.427 672.174 375.053 672.646 374.581C673.118 374.109 673.46 373.678 673.672 373.287C673.9 372.896 674.071 372.449 674.185 371.944C674.299 371.44 674.355 370.789 674.355 369.991V364.522ZM707.266 379.391C703.88 379.391 701.292 378.398 699.502 376.412C697.728 374.41 696.841 371.456 696.841 367.55C696.841 364.864 697.305 362.594 698.232 360.738C699.176 358.883 700.462 357.507 702.09 356.612C703.717 355.701 705.573 355.245 707.656 355.245C711.139 355.245 713.776 356.262 715.566 358.297C717.357 360.315 718.252 363.22 718.252 367.013C718.252 369.715 717.804 371.993 716.909 373.849C716.014 375.704 714.744 377.096 713.101 378.023C711.457 378.935 709.512 379.391 707.266 379.391ZM701.455 367.037C701.455 370.39 701.984 372.97 703.042 374.776C704.116 376.567 705.646 377.462 707.632 377.462C708.722 377.462 709.65 377.201 710.415 376.681C711.18 376.144 711.799 375.427 712.271 374.532C712.759 373.637 713.109 372.604 713.32 371.432C713.532 370.243 713.638 369.007 713.638 367.721C713.638 365.328 713.369 363.342 712.832 361.764C712.311 360.185 711.595 359.029 710.684 358.297C709.772 357.548 708.73 357.174 707.559 357.174C705.589 357.174 704.076 358.028 703.018 359.737C701.976 361.446 701.455 363.88 701.455 367.037ZM735.757 358.126H729.922V372.896C729.922 373.987 729.971 374.809 730.068 375.362C730.182 375.916 730.337 376.339 730.532 376.632C730.744 376.909 731.012 377.136 731.338 377.315C731.68 377.478 732.217 377.641 732.949 377.804V379H722.964V377.804C723.68 377.608 724.193 377.421 724.502 377.242C724.811 377.063 725.047 376.835 725.21 376.559C725.389 376.282 725.519 375.883 725.601 375.362C725.682 374.841 725.723 374.02 725.723 372.896V358.126H722.769V356.881C723.387 356.783 723.794 356.71 723.989 356.661C724.201 356.596 724.396 356.507 724.575 356.393C724.771 356.279 724.933 356.116 725.063 355.904C725.21 355.693 725.332 355.383 725.43 354.977C725.544 354.553 725.633 353.967 725.698 353.219C725.845 351.445 726.162 350.004 726.65 348.897C727.155 347.791 727.879 346.847 728.823 346.065C729.784 345.284 730.801 344.739 731.875 344.43C732.965 344.104 734.243 343.941 735.708 343.941C736.994 343.941 738.084 344.031 738.979 344.21V348.629H736.562C736.253 347.669 735.887 346.993 735.464 346.603C735.057 346.196 734.479 345.992 733.73 345.992C733.193 345.992 732.738 346.065 732.363 346.212C732.005 346.358 731.672 346.586 731.362 346.896C731.053 347.205 730.785 347.62 730.557 348.141C730.345 348.661 730.182 349.312 730.068 350.094C729.971 350.859 729.922 351.86 729.922 353.097V355.66H735.757V358.126ZM747.915 356.881C748.729 356.751 749.388 356.523 749.893 356.197C750.397 355.872 750.788 355.457 751.064 354.952C751.357 354.431 751.585 353.788 751.748 353.023C751.911 352.242 752.082 351.111 752.261 349.63H755.728V355.66H763.613V358.126H755.728V368.99C755.728 370.569 755.793 371.83 755.923 372.774C756.053 373.702 756.297 374.435 756.655 374.972C757.013 375.493 757.42 375.867 757.876 376.095C758.332 376.323 758.918 376.437 759.634 376.437C760.285 376.437 760.895 376.306 761.465 376.046C762.035 375.769 762.596 375.379 763.149 374.874L764.248 376.192C763.092 377.315 761.994 378.129 760.952 378.634C759.927 379.138 758.861 379.391 757.754 379.391C755.654 379.391 754.092 378.772 753.066 377.535C752.041 376.282 751.528 374.329 751.528 371.676V358.126H747.915V356.881ZM772.866 359.493L772.964 359.518C774.233 358.232 775.234 357.337 775.967 356.832C776.715 356.311 777.448 355.921 778.164 355.66C778.896 355.4 779.678 355.27 780.508 355.27C781.403 355.27 782.201 355.375 782.9 355.587C783.6 355.799 784.211 356.124 784.731 356.563C785.269 356.987 785.7 357.516 786.025 358.15C786.367 358.769 786.619 359.518 786.782 360.396C786.945 361.259 787.026 362.358 787.026 363.692V372.896C787.026 374.312 787.083 375.281 787.197 375.802C787.327 376.306 787.547 376.705 787.856 376.998C788.182 377.275 788.825 377.543 789.785 377.804V379H780.166V377.804C780.801 377.608 781.257 377.438 781.533 377.291C781.81 377.145 782.038 376.941 782.217 376.681C782.412 376.42 782.559 376.021 782.656 375.484C782.77 374.931 782.827 374.101 782.827 372.994V366.598C782.827 364.433 782.713 362.781 782.485 361.642C782.274 360.486 781.842 359.623 781.191 359.054C780.557 358.484 779.661 358.199 778.506 358.199C777.855 358.199 777.269 358.313 776.748 358.541C776.227 358.769 775.625 359.176 774.941 359.762C774.258 360.348 773.737 360.95 773.379 361.568C773.037 362.187 772.866 362.846 772.866 363.546V372.896C772.866 374.003 772.891 374.793 772.939 375.265C773.005 375.737 773.118 376.135 773.281 376.461C773.444 376.77 773.688 377.031 774.014 377.242C774.355 377.438 774.876 377.625 775.576 377.804V379H765.908V377.804C766.624 377.608 767.137 377.421 767.446 377.242C767.756 377.063 767.992 376.835 768.154 376.559C768.333 376.282 768.464 375.883 768.545 375.362C768.626 374.841 768.667 374.02 768.667 372.896V352.462C768.667 350.899 768.651 349.809 768.618 349.19C768.602 348.572 768.537 348.051 768.423 347.628C768.325 347.188 768.179 346.847 767.983 346.603C767.804 346.358 767.552 346.163 767.227 346.017C766.917 345.87 766.348 345.724 765.518 345.577V344.308L771.401 344.063H772.866V359.493ZM813.418 374.85C812.376 375.94 811.416 376.795 810.537 377.413C809.674 378.032 808.722 378.52 807.681 378.878C806.639 379.22 805.492 379.391 804.238 379.391C800.885 379.391 798.354 378.39 796.646 376.388C794.937 374.369 794.082 371.399 794.082 367.477C794.082 365.051 794.513 362.911 795.376 361.056C796.255 359.2 797.5 357.768 799.111 356.759C800.723 355.75 802.578 355.245 804.678 355.245C806.322 355.245 807.721 355.506 808.877 356.026C810.033 356.547 810.952 357.263 811.636 358.175C812.336 359.07 812.873 360.209 813.247 361.593C813.638 362.96 813.857 364.75 813.906 366.964H798.525V367.403C798.525 369.324 798.737 370.943 799.16 372.262C799.6 373.564 800.308 374.589 801.284 375.338C802.277 376.07 803.563 376.437 805.142 376.437C806.476 376.437 807.673 376.192 808.73 375.704C809.805 375.2 810.871 374.386 811.929 373.263L813.418 374.85ZM809.316 364.938C809.219 363.18 808.999 361.747 808.657 360.641C808.315 359.518 807.803 358.663 807.119 358.077C806.436 357.475 805.54 357.174 804.434 357.174C802.757 357.174 801.414 357.849 800.405 359.2C799.412 360.535 798.826 362.447 798.647 364.938H809.316ZM543.496 418.42L543.838 418.518C544.814 417.541 545.612 416.809 546.23 416.32C546.865 415.816 547.476 415.417 548.062 415.124C548.647 414.815 549.193 414.595 549.697 414.465C550.218 414.335 550.747 414.27 551.284 414.27C552.912 414.27 554.238 414.644 555.264 415.393C556.289 416.141 556.997 417.289 557.388 418.835C558.608 417.598 559.593 416.687 560.342 416.101C561.107 415.515 561.88 415.067 562.661 414.758C563.459 414.432 564.313 414.27 565.225 414.27C566.315 414.27 567.251 414.432 568.032 414.758C568.83 415.067 569.497 415.555 570.034 416.223C570.588 416.874 570.986 417.696 571.23 418.688C571.491 419.681 571.621 421.016 571.621 422.692V431.896C571.621 433.133 571.662 433.988 571.743 434.46C571.825 434.932 571.938 435.298 572.085 435.559C572.248 435.819 572.484 436.047 572.793 436.242C573.102 436.421 573.623 436.608 574.355 436.804V438H564.761V436.804C565.396 436.608 565.851 436.438 566.128 436.291C566.405 436.145 566.632 435.941 566.812 435.681C567.007 435.42 567.153 435.021 567.251 434.484C567.365 433.931 567.422 433.101 567.422 431.994V425.598C567.422 424.214 567.381 423.075 567.3 422.18C567.235 421.268 567.121 420.544 566.958 420.007C566.812 419.47 566.624 419.047 566.396 418.737C566.185 418.428 565.941 418.16 565.664 417.932C565.387 417.704 565.062 417.525 564.688 417.395C564.313 417.264 563.817 417.199 563.198 417.199C562.547 417.199 561.937 417.329 561.367 417.59C560.814 417.85 560.203 418.29 559.536 418.908C558.885 419.527 558.413 420.153 558.12 420.788C557.827 421.407 557.681 422.139 557.681 422.985V431.896C557.681 433.133 557.721 433.988 557.803 434.46C557.884 434.932 557.998 435.298 558.145 435.559C558.307 435.819 558.543 436.047 558.853 436.242C559.162 436.421 559.683 436.608 560.415 436.804V438H550.82V436.804C551.455 436.608 551.911 436.438 552.188 436.291C552.464 436.145 552.692 435.941 552.871 435.681C553.066 435.42 553.213 435.021 553.311 434.484C553.424 433.931 553.481 433.101 553.481 431.994V425.598C553.481 424.149 553.441 422.969 553.359 422.058C553.278 421.146 553.148 420.414 552.969 419.86C552.806 419.307 552.586 418.859 552.31 418.518C552.049 418.176 551.781 417.915 551.504 417.736C551.227 417.557 550.902 417.427 550.527 417.346C550.153 417.248 549.73 417.199 549.258 417.199C548.59 417.199 547.964 417.354 547.378 417.663C546.792 417.956 546.19 418.387 545.571 418.957C544.969 419.527 544.513 420.121 544.204 420.739C543.895 421.358 543.74 422.025 543.74 422.741V431.896C543.74 432.824 543.765 433.532 543.813 434.021C543.862 434.509 543.936 434.891 544.033 435.168C544.147 435.445 544.285 435.673 544.448 435.852C544.611 436.014 544.839 436.177 545.132 436.34C545.441 436.486 545.897 436.641 546.499 436.804V438H536.929V436.804C537.547 436.608 537.987 436.438 538.247 436.291C538.524 436.145 538.76 435.941 538.955 435.681C539.15 435.42 539.297 435.021 539.395 434.484C539.492 433.947 539.541 433.109 539.541 431.97V421.325C539.541 420.284 539.525 419.445 539.492 418.811C539.46 418.176 539.346 417.671 539.15 417.297C538.955 416.906 538.654 416.621 538.247 416.442C537.856 416.247 537.295 416.084 536.562 415.954V414.66L542.275 414.44H543.765L543.496 418.42ZM589.126 438.391C585.741 438.391 583.153 437.398 581.362 435.412C579.588 433.41 578.701 430.456 578.701 426.55C578.701 423.864 579.165 421.594 580.093 419.738C581.037 417.883 582.323 416.507 583.95 415.612C585.578 414.701 587.433 414.245 589.517 414.245C593 414.245 595.636 415.262 597.427 417.297C599.217 419.315 600.112 422.22 600.112 426.013C600.112 428.715 599.665 430.993 598.77 432.849C597.874 434.704 596.605 436.096 594.961 437.023C593.317 437.935 591.372 438.391 589.126 438.391ZM583.315 426.037C583.315 429.39 583.844 431.97 584.902 433.776C585.977 435.567 587.507 436.462 589.492 436.462C590.583 436.462 591.51 436.201 592.275 435.681C593.04 435.144 593.659 434.427 594.131 433.532C594.619 432.637 594.969 431.604 595.181 430.432C595.392 429.243 595.498 428.007 595.498 426.721C595.498 424.328 595.229 422.342 594.692 420.764C594.172 419.185 593.455 418.029 592.544 417.297C591.632 416.548 590.591 416.174 589.419 416.174C587.45 416.174 585.936 417.028 584.878 418.737C583.836 420.446 583.315 422.88 583.315 426.037ZM612.393 414.66V415.856C611.644 416.035 611.115 416.206 610.806 416.369C610.496 416.532 610.26 416.743 610.098 417.004C609.951 417.264 609.878 417.614 609.878 418.054C609.878 418.493 609.927 418.957 610.024 419.445C610.138 419.917 610.309 420.471 610.537 421.105L614.785 433.459L619.766 421.618C620.091 420.837 620.319 420.194 620.449 419.689C620.579 419.185 620.645 418.713 620.645 418.273C620.645 417.59 620.457 417.069 620.083 416.711C619.725 416.353 619.058 416.068 618.081 415.856V414.66H627.212V415.856C626.577 415.987 626.089 416.19 625.747 416.467C625.405 416.727 625.063 417.15 624.722 417.736C624.38 418.306 623.973 419.112 623.501 420.153L615.273 438.244H612.393L605.776 420.007C605.321 418.754 604.954 417.899 604.678 417.443C604.417 416.971 604.124 416.621 603.799 416.394C603.49 416.166 603.034 415.987 602.432 415.856V414.66H612.393ZM636.514 405.09V409.826H632.021V405.09H636.514ZM629.531 436.804C630.166 436.608 630.614 436.438 630.874 436.291C631.151 436.145 631.379 435.941 631.558 435.681C631.753 435.42 631.899 435.021 631.997 434.484C632.111 433.947 632.168 433.109 632.168 431.97V421.325C632.168 420.284 632.152 419.445 632.119 418.811C632.087 418.176 631.973 417.671 631.777 417.297C631.582 416.906 631.281 416.621 630.874 416.442C630.483 416.247 629.922 416.084 629.189 415.954V414.66L634.878 414.44H636.367V431.896C636.367 433.296 636.432 434.273 636.562 434.826C636.693 435.363 636.937 435.778 637.295 436.071C637.669 436.348 638.271 436.592 639.102 436.804V438H629.531V436.804ZM667.227 438H657.607V436.804C658.242 436.608 658.698 436.438 658.975 436.291C659.251 436.145 659.479 435.941 659.658 435.681C659.854 435.42 660 435.021 660.098 434.484C660.212 433.931 660.269 433.101 660.269 431.994V425.598C660.269 424.458 660.236 423.425 660.171 422.497C660.106 421.569 659.992 420.812 659.829 420.227C659.683 419.624 659.495 419.16 659.268 418.835C659.056 418.493 658.796 418.208 658.486 417.98C658.193 417.736 657.852 417.549 657.461 417.419C657.07 417.272 656.558 417.199 655.923 417.199C655.288 417.199 654.686 417.329 654.116 417.59C653.547 417.834 652.92 418.265 652.236 418.884C651.553 419.502 651.056 420.113 650.747 420.715C650.438 421.317 650.283 422.009 650.283 422.79V431.896C650.283 433.296 650.348 434.273 650.479 434.826C650.609 435.363 650.853 435.778 651.211 436.071C651.585 436.348 652.188 436.592 653.018 436.804V438H643.447V436.804C644.082 436.608 644.53 436.438 644.79 436.291C645.067 436.145 645.295 435.941 645.474 435.681C645.669 435.42 645.815 435.021 645.913 434.484C646.027 433.947 646.084 433.109 646.084 431.97V421.325C646.084 420.284 646.068 419.445 646.035 418.811C646.003 418.176 645.889 417.671 645.693 417.297C645.498 416.906 645.197 416.621 644.79 416.442C644.399 416.247 643.838 416.084 643.105 415.954V414.66L648.818 414.44H650.308L650.039 418.42L650.381 418.518C651.585 417.297 652.554 416.426 653.286 415.905C654.035 415.384 654.784 414.986 655.532 414.709C656.297 414.416 657.103 414.27 657.949 414.27C658.828 414.27 659.609 414.375 660.293 414.587C660.993 414.782 661.603 415.091 662.124 415.515C662.661 415.938 663.101 416.467 663.442 417.102C663.784 417.72 664.036 418.469 664.199 419.348C664.378 420.227 664.468 421.341 664.468 422.692V431.896C664.468 433.02 664.5 433.833 664.565 434.338C664.631 434.842 664.744 435.233 664.907 435.51C665.07 435.786 665.306 436.022 665.615 436.218C665.924 436.397 666.462 436.592 667.227 436.804V438ZM693.276 417.126L688.76 416.955L688.54 417.224C689.045 417.728 689.443 418.42 689.736 419.299C690.029 420.161 690.176 421.097 690.176 422.106C690.176 424.759 689.354 426.81 687.71 428.259C686.082 429.691 683.763 430.407 680.752 430.407C679.401 430.407 678.237 430.236 677.261 429.895C676.024 430.839 675.405 431.766 675.405 432.678C675.405 433.28 675.519 433.736 675.747 434.045C675.991 434.354 676.382 434.574 676.919 434.704C677.472 434.834 678.302 434.899 679.409 434.899H685.269C686.994 434.899 688.402 435.168 689.492 435.705C690.583 436.242 691.356 436.966 691.812 437.878C692.284 438.773 692.52 439.823 692.52 441.027C692.52 442.557 692.08 443.916 691.201 445.104C690.322 446.309 689.053 447.245 687.393 447.912C685.732 448.579 683.796 448.913 681.582 448.913C679.938 448.913 678.433 448.815 677.065 448.62C675.715 448.425 674.551 448.091 673.574 447.619C672.614 447.163 671.865 446.553 671.328 445.788C670.807 445.039 670.547 444.095 670.547 442.956C670.547 441.931 670.889 440.995 671.572 440.148C672.256 439.318 673.224 438.586 674.478 437.951C673.713 437.642 673.11 437.186 672.671 436.584C672.231 435.982 672.012 435.274 672.012 434.46C672.012 433.532 672.272 432.686 672.793 431.921C673.314 431.14 674.233 430.253 675.552 429.26C674.38 428.576 673.485 427.648 672.866 426.477C672.264 425.305 671.963 423.97 671.963 422.473C671.963 421.073 672.191 419.86 672.646 418.835C673.118 417.793 673.761 416.939 674.575 416.271C675.405 415.588 676.382 415.083 677.505 414.758C678.628 414.416 679.84 414.245 681.143 414.245C682.314 414.245 683.478 414.383 684.634 414.66H693.276V417.126ZM676.333 422.082C676.333 424.117 676.748 425.687 677.578 426.794C678.408 427.901 679.604 428.454 681.167 428.454C681.997 428.454 682.705 428.299 683.291 427.99C683.877 427.665 684.349 427.225 684.707 426.672C685.081 426.118 685.35 425.484 685.513 424.768C685.692 424.035 685.781 423.27 685.781 422.473C685.781 421.04 685.578 419.844 685.171 418.884C684.764 417.924 684.211 417.224 683.511 416.784C682.811 416.328 682.005 416.101 681.094 416.101C679.548 416.101 678.368 416.613 677.554 417.639C676.74 418.664 676.333 420.145 676.333 422.082ZM676.943 438.391C676.113 439.009 675.487 439.66 675.063 440.344C674.657 441.044 674.453 441.833 674.453 442.712C674.453 444.177 675.031 445.251 676.187 445.935C677.358 446.634 679.141 446.984 681.533 446.984C682.998 446.984 684.251 446.789 685.293 446.398C686.351 446.008 687.157 445.446 687.71 444.714C688.263 443.981 688.54 443.127 688.54 442.15C688.54 441.695 688.483 441.247 688.369 440.808C688.255 440.384 688.035 440.002 687.71 439.66C687.401 439.318 686.953 439.042 686.367 438.83C685.781 438.635 685.016 438.537 684.072 438.537H680.435C679.116 438.537 677.952 438.488 676.943 438.391ZM717.739 438.391C714.354 438.391 711.766 437.398 709.976 435.412C708.201 433.41 707.314 430.456 707.314 426.55C707.314 423.864 707.778 421.594 708.706 419.738C709.65 417.883 710.936 416.507 712.563 415.612C714.191 414.701 716.047 414.245 718.13 414.245C721.613 414.245 724.25 415.262 726.04 417.297C727.83 419.315 728.726 422.22 728.726 426.013C728.726 428.715 728.278 430.993 727.383 432.849C726.488 434.704 725.218 436.096 723.574 437.023C721.93 437.935 719.985 438.391 717.739 438.391ZM711.929 426.037C711.929 429.39 712.458 431.97 713.516 433.776C714.59 435.567 716.12 436.462 718.105 436.462C719.196 436.462 720.124 436.201 720.889 435.681C721.654 435.144 722.272 434.427 722.744 433.532C723.232 432.637 723.582 431.604 723.794 430.432C724.006 429.243 724.111 428.007 724.111 426.721C724.111 424.328 723.843 422.342 723.306 420.764C722.785 419.185 722.069 418.029 721.157 417.297C720.246 416.548 719.204 416.174 718.032 416.174C716.063 416.174 714.549 417.028 713.491 418.737C712.45 420.446 711.929 422.88 711.929 426.037ZM739.834 418.493L739.932 418.518C741.071 417.329 742.015 416.467 742.764 415.93C743.529 415.393 744.31 414.986 745.107 414.709C745.921 414.416 746.808 414.27 747.769 414.27C749.51 414.27 750.999 414.717 752.236 415.612C753.49 416.491 754.45 417.818 755.117 419.592C755.801 421.366 756.143 423.539 756.143 426.11C756.143 428.763 755.736 431.009 754.922 432.849C754.124 434.672 752.936 436.055 751.357 436.999C749.795 437.927 747.939 438.391 745.791 438.391C744.587 438.391 743.447 438.277 742.373 438.049C741.315 437.837 740.2 437.455 739.028 436.901L737.319 438.391L735.635 438V411.462C735.635 409.899 735.618 408.809 735.586 408.19C735.57 407.572 735.505 407.051 735.391 406.628C735.293 406.188 735.146 405.847 734.951 405.603C734.772 405.358 734.52 405.163 734.194 405.017C733.885 404.87 733.315 404.724 732.485 404.577V403.308L738.394 403.063H739.834V418.493ZM739.834 429.211C739.834 430.464 739.891 431.465 740.005 432.214C740.119 432.946 740.306 433.557 740.566 434.045C740.843 434.533 741.234 434.981 741.738 435.388C742.259 435.795 742.837 436.079 743.472 436.242C744.106 436.389 744.814 436.462 745.596 436.462C747.549 436.462 749.03 435.664 750.039 434.069C751.048 432.474 751.553 430.082 751.553 426.892C751.553 423.669 751.089 421.252 750.161 419.641C749.25 418.013 747.866 417.199 746.011 417.199C745.083 417.199 744.294 417.346 743.643 417.639C742.992 417.915 742.34 418.355 741.689 418.957C741.055 419.559 740.583 420.153 740.273 420.739C739.98 421.325 739.834 421.993 739.834 422.741V429.211ZM767.812 405.09V409.826H763.345V405.09H767.812ZM767.69 437.536C767.69 439.815 767.454 441.638 766.982 443.005C766.51 444.372 765.688 445.528 764.517 446.472C763.361 447.432 761.742 448.213 759.658 448.815L758.828 446.667C759.837 446.276 760.602 445.902 761.123 445.544C761.66 445.202 762.1 444.795 762.441 444.323C762.783 443.868 763.044 443.249 763.223 442.468C763.402 441.687 763.491 440.686 763.491 439.465V421.325C763.491 420.056 763.467 419.144 763.418 418.591C763.369 418.037 763.263 417.606 763.101 417.297C762.938 416.971 762.686 416.711 762.344 416.516C762.002 416.32 761.383 416.133 760.488 415.954V414.66L766.201 414.44H767.69V437.536ZM793.911 433.85C792.869 434.94 791.909 435.795 791.03 436.413C790.168 437.032 789.215 437.52 788.174 437.878C787.132 438.22 785.985 438.391 784.731 438.391C781.379 438.391 778.848 437.39 777.139 435.388C775.43 433.369 774.575 430.399 774.575 426.477C774.575 424.051 775.007 421.911 775.869 420.056C776.748 418.2 777.993 416.768 779.604 415.759C781.216 414.75 783.071 414.245 785.171 414.245C786.815 414.245 788.215 414.506 789.37 415.026C790.526 415.547 791.445 416.263 792.129 417.175C792.829 418.07 793.366 419.209 793.74 420.593C794.131 421.96 794.351 423.75 794.399 425.964H779.019V426.403C779.019 428.324 779.23 429.943 779.653 431.262C780.093 432.564 780.801 433.589 781.777 434.338C782.77 435.07 784.056 435.437 785.635 435.437C786.969 435.437 788.166 435.192 789.224 434.704C790.298 434.2 791.364 433.386 792.422 432.263L793.911 433.85ZM789.81 423.938C789.712 422.18 789.492 420.747 789.15 419.641C788.809 418.518 788.296 417.663 787.612 417.077C786.929 416.475 786.034 416.174 784.927 416.174C783.25 416.174 781.908 416.849 780.898 418.2C779.906 419.535 779.32 421.447 779.141 423.938H789.81ZM817.007 415.222V420.324H813.906C813.63 419.266 813.288 418.436 812.881 417.834C812.474 417.215 812.002 416.784 811.465 416.54C810.928 416.296 810.26 416.174 809.463 416.174C808.324 416.174 807.314 416.54 806.436 417.272C805.557 418.005 804.857 419.12 804.336 420.617C803.831 422.115 803.579 423.946 803.579 426.11C803.579 427.494 803.677 428.763 803.872 429.919C804.067 431.058 804.401 432.035 804.873 432.849C805.345 433.662 805.972 434.297 806.753 434.753C807.534 435.209 808.503 435.437 809.658 435.437C810.781 435.437 811.823 435.217 812.783 434.777C813.76 434.338 814.769 433.565 815.811 432.458L817.202 434.069C816.372 434.981 815.64 435.689 815.005 436.193C814.37 436.682 813.687 437.097 812.954 437.438C812.238 437.764 811.522 438 810.806 438.146C810.106 438.309 809.341 438.391 808.511 438.391C805.435 438.391 803.083 437.373 801.455 435.339C799.827 433.288 799.014 430.334 799.014 426.477C799.014 424.068 799.469 421.936 800.381 420.08C801.292 418.208 802.57 416.768 804.214 415.759C805.858 414.75 807.754 414.245 809.902 414.245C811.237 414.245 812.466 414.326 813.589 414.489C814.728 414.636 815.868 414.88 817.007 415.222ZM819.424 415.881C820.238 415.751 820.897 415.523 821.401 415.197C821.906 414.872 822.297 414.457 822.573 413.952C822.866 413.431 823.094 412.788 823.257 412.023C823.42 411.242 823.59 410.111 823.77 408.63H827.236V414.66H835.122V417.126H827.236V427.99C827.236 429.569 827.301 430.83 827.432 431.774C827.562 432.702 827.806 433.435 828.164 433.972C828.522 434.493 828.929 434.867 829.385 435.095C829.84 435.323 830.426 435.437 831.143 435.437C831.794 435.437 832.404 435.306 832.974 435.046C833.543 434.769 834.105 434.379 834.658 433.874L835.757 435.192C834.601 436.315 833.503 437.129 832.461 437.634C831.436 438.138 830.369 438.391 829.263 438.391C827.163 438.391 825.601 437.772 824.575 436.535C823.55 435.282 823.037 433.329 823.037 430.676V417.126H819.424V415.881Z" fill="black"/>
<path d="M188 253L202.434 228L173.566 228L188 253ZM185.5 210L185.5 230.5L190.5 230.5L190.5 210L185.5 210Z" fill="#FF2A23"/>
<path d="M451 333L476.993 320.443L453.122 304.211L451 333ZM550.933 181.594L461.585 312.988L465.719 315.8L555.067 184.406L550.933 181.594Z" fill="#B50D22"/>
<path d="M687 333L693.641 304.907L665.991 313.202L687 333ZM639.605 183.718L678.14 312.167L682.929 310.731L644.395 182.282L639.605 183.718Z" fill="black"/>
</svg>
