<svg width="971" height="394" viewBox="0 0 971 394" fill="none" xmlns="http://www.w3.org/2000/svg">
<path d="M172.703 57.8237C173.932 57.8237 176.127 57.8676 179.288 57.9554C182.449 58.0432 185.39 58.131 188.112 58.2188C192.589 58.2188 196.321 58.1749 199.306 58.0871C202.291 57.9993 204.003 57.9554 204.442 57.9554C206.022 57.9554 206.813 58.3066 206.813 59.009C206.813 59.3602 206.681 60.0187 206.418 60.9844C205.979 62.5648 205.583 63.4428 205.232 63.6184C204.881 63.794 203.915 63.8818 202.335 63.8818C200.14 63.9696 198.384 64.1891 197.067 64.5402C195.75 64.8914 194.828 65.2426 194.301 65.5938C193.775 65.945 193.643 66.3401 193.906 66.7791C193.906 67.8327 194.609 78.2806 196.014 98.1229C197.418 117.965 198.121 128.457 198.121 129.598L198.384 129.203C198.56 128.94 198.823 128.501 199.174 127.886C199.525 127.272 200.052 126.438 200.755 125.384C201.457 124.331 202.203 123.014 202.993 121.433C203.784 119.853 204.837 118.053 206.154 116.034C207.471 114.014 208.788 111.644 210.105 108.922C211.422 106.2 213.134 103.259 215.241 100.098C224.372 83.9435 229.552 74.7248 230.781 72.442C232.011 70.1593 232.669 68.7545 232.757 68.2277C232.757 66.9108 231.923 65.8572 230.255 65.067C228.586 64.2768 226.743 63.8818 224.723 63.8818C223.494 63.8818 222.88 63.4428 222.88 62.5648C222.88 62.3014 222.967 61.7307 223.143 60.8527C223.494 59.448 223.758 58.6139 223.933 58.3505C224.109 58.0871 224.723 57.9554 225.777 57.9554C226.04 57.9554 226.787 57.9554 228.016 57.9554C229.245 57.9554 230.957 57.9554 233.152 57.9554C235.347 57.9554 237.717 57.9993 240.264 58.0871C246.058 58.0871 249.79 57.9993 251.458 57.8237C252.687 57.8237 253.302 58.3066 253.302 59.2724C253.302 59.7992 253.17 60.5454 252.906 61.5112C252.643 62.477 252.336 63.1355 251.985 63.4867C251.633 63.8379 251.194 63.9696 250.668 63.8818C248.736 63.8818 246.98 64.1452 245.4 64.6719C243.819 65.1987 242.502 65.8133 241.449 66.5157C240.395 67.2181 239.561 67.9644 238.947 68.7545C238.332 69.5447 237.805 70.2471 237.366 70.8617L236.839 71.6519L214.583 110.634C199.833 136.622 192.414 149.66 192.326 149.748C191.799 150.363 190.746 150.67 189.165 150.67C187.848 150.67 187.014 150.45 186.663 150.011C186.4 149.748 185.566 138.949 184.161 117.614C182.756 96.2791 182.01 85.2605 181.922 84.5581L180.342 86.9287C178.41 90.1772 172.791 99.9666 163.484 116.297C150.842 138.422 144.432 149.572 144.257 149.748C144.081 149.924 143.862 150.099 143.598 150.275C143.159 150.538 142.369 150.67 141.228 150.67C139.56 150.67 138.638 150.363 138.462 149.748C138.462 149.485 137.496 135.481 135.565 107.737C133.633 79.9926 132.624 66.0328 132.536 65.8572C132.36 65.067 131.921 64.5841 131.219 64.4085C130.516 64.2329 128.804 64.0574 126.083 63.8818H122.922C122.307 63.2672 122 62.7843 122 62.4331C122.088 60.4137 122.658 58.8773 123.712 57.8237H125.292C128.98 58.0871 133.37 58.2188 138.462 58.2188C149.437 58.2188 155.451 58.0871 156.505 57.8237H157.821C158.348 58.3505 158.612 58.7456 158.612 59.009C158.612 59.2724 158.524 60.0626 158.348 61.3795C157.909 62.6965 157.514 63.5306 157.163 63.8818H154.397C149.042 64.1452 146.188 64.8914 145.837 66.1206C148.471 106.508 149.964 127.755 150.315 129.862L181.263 75.3394L181 70.4666C180.737 66.7791 180.298 64.8036 179.683 64.5402C179.156 64.1891 177.313 63.9696 174.152 63.8818C172.484 63.8818 171.386 63.794 170.859 63.6184C170.333 63.4428 170.069 63.0477 170.069 62.4331C170.069 62.2575 170.157 61.7307 170.333 60.8527C170.42 60.5015 170.508 60.1065 170.596 59.6675C170.684 59.2285 170.728 58.9212 170.728 58.7456C170.728 58.57 170.859 58.3944 171.123 58.2188C171.386 58.0432 171.562 57.9554 171.65 57.9554C171.737 57.9554 172.089 57.9115 172.703 57.8237Z" fill="black"/>
<path d="M297.262 102.074C297.262 100.932 297.877 100.054 299.106 99.4398H382.997C384.314 100.142 384.972 101.02 384.972 102.074C384.972 103.04 384.358 103.874 383.128 104.576L341.249 104.708H299.369C297.965 104.269 297.262 103.391 297.262 102.074ZM297.262 127.623C297.262 126.306 297.965 125.428 299.369 124.989H383.128C384.358 125.867 384.972 126.745 384.972 127.623C384.972 128.764 384.314 129.642 382.997 130.257H299.106C297.877 129.642 297.262 128.764 297.262 127.623Z" fill="black"/>
<path d="M447.239 180.565H446.975C445.922 180.565 445.132 179.95 444.605 178.721V114.717L444.736 50.7121C445.614 49.5707 446.448 49 447.239 49C448.38 49 449.258 49.6585 449.873 50.9755V178.721C449.17 179.95 448.38 180.565 447.502 180.565H447.239Z" fill="black"/>
<path d="M471.866 147.641C470.373 147.641 469.627 147.202 469.627 146.324C469.627 146.148 469.759 145.534 470.022 144.48C470.373 143.075 470.724 142.285 471.076 142.11C471.427 141.934 472.436 141.802 474.105 141.714C476.475 141.714 479.109 141.583 482.006 141.319C483.236 141.056 484.07 140.529 484.509 139.739C484.684 139.3 487.801 126.964 493.859 102.732C499.917 78.5001 502.99 66.2084 503.078 65.8572C503.078 65.2427 502.902 64.9354 502.551 64.9354C501.849 64.672 499.522 64.4525 495.571 64.2769H491.489C490.962 63.7501 490.698 63.3989 490.698 63.2233C490.698 63.0477 490.786 62.3014 490.962 60.9845C491.313 59.4919 491.752 58.57 492.279 58.2188H563.263C563.878 58.57 564.185 59.0529 564.185 59.6675C564.185 60.1065 563.614 65.0232 562.473 74.4175C561.332 83.8119 560.717 88.6408 560.629 88.9041C560.454 89.5187 559.576 89.826 557.995 89.826H556.415C555.8 89.387 555.493 88.8163 555.493 88.114C555.493 88.0262 555.625 86.9726 555.888 84.9532C556.152 82.9339 556.283 80.6073 556.283 77.9733C556.283 75.3394 555.976 73.1883 555.361 71.5202C554.747 69.852 553.913 68.4912 552.859 67.4376C551.806 66.384 550.181 65.6816 547.986 65.3304C545.792 64.9793 543.553 64.672 541.27 64.4086C538.987 64.1452 535.826 64.1013 531.788 64.2769H528.759C521.559 64.3647 517.74 64.4964 517.301 64.672C516.862 64.8476 516.555 65.1988 516.379 65.7255C516.291 65.8133 514.799 71.5641 511.902 82.9778L507.687 99.9667H514.931C515.194 99.9667 516.204 99.9667 517.96 99.9667C519.716 99.9667 520.945 99.9228 521.647 99.835C522.35 99.7472 523.315 99.6155 524.544 99.4399C525.774 99.2643 526.827 98.957 527.705 98.518C528.583 98.079 529.329 97.5522 529.944 96.9376C531.085 95.8841 532.051 94.4354 532.841 92.5917C533.632 90.7479 534.202 89.0797 534.553 87.5872C534.905 86.0946 535.124 85.3044 535.212 85.2166C535.475 84.7777 536.309 84.5582 537.714 84.5582H539.294C539.909 84.9971 540.216 85.4361 540.216 85.8751C540.216 86.1385 538.855 91.8893 536.134 103.127C533.412 114.365 531.919 120.16 531.656 120.511C531.48 121.126 530.602 121.433 529.022 121.433H527.442C526.827 120.906 526.52 120.38 526.52 119.853C526.52 119.589 526.739 118.624 527.178 116.956C527.617 115.287 527.837 113.531 527.837 111.688C527.837 109.142 526.959 107.561 525.203 106.947C523.447 106.332 519.54 106.025 513.482 106.025H506.239L502.024 122.75C499.215 133.637 497.81 139.344 497.81 139.871C497.81 141.1 501.717 141.714 509.531 141.714H512.823C513.35 142.241 513.614 142.549 513.614 142.636C513.614 142.724 513.526 143.602 513.35 145.27C512.999 146.412 512.56 147.246 512.033 147.773H509.794C506.195 147.597 499.566 147.509 489.908 147.509C484.201 147.509 479.855 147.509 476.87 147.509C473.885 147.509 472.217 147.553 471.866 147.641Z" fill="black"/>
<path d="M561.212 182.611C561.336 182.611 561.523 182.673 561.771 182.797C562.019 182.921 562.361 183.014 562.795 183.076C563.23 183.138 563.602 183.169 563.913 183.169C564.719 183.169 565.464 182.766 566.147 181.959C566.83 181.152 567.327 180.252 567.637 179.259C568.258 177.583 569.313 172.834 570.803 165.013C572.292 157.192 573.72 149.743 575.086 142.667C576.451 135.59 577.134 132.021 577.134 131.959V131.68H572.758C569.84 131.68 568.289 131.618 568.102 131.494C567.854 131.307 567.73 130.997 567.73 130.563L568.382 127.955C568.506 127.645 568.754 127.49 569.127 127.49C569.499 127.49 570.958 127.459 573.503 127.397C576.482 127.397 577.972 127.366 577.972 127.304C577.972 127.18 578.251 125.628 578.81 122.648C579.369 119.669 579.741 117.869 579.927 117.248C582.224 107.006 586.755 101.885 593.521 101.885C595.818 102.009 597.711 102.692 599.201 103.933C600.691 105.175 601.436 106.82 601.436 108.868C601.436 111.103 600.784 112.717 599.48 113.71C598.177 114.703 596.873 115.23 595.57 115.293C592.839 115.293 591.473 113.989 591.473 111.382C591.473 110.203 591.814 109.178 592.497 108.309C593.18 107.44 593.925 106.789 594.732 106.354L595.57 105.888C594.577 105.516 593.645 105.33 592.776 105.33C592.032 105.33 591.318 105.64 590.635 106.261C589.952 106.882 589.487 107.751 589.238 108.868C588.804 110.668 588.307 113.089 587.749 116.131C587.19 119.172 586.693 121.748 586.259 123.859C585.824 125.969 585.607 127.086 585.607 127.211C585.607 127.335 587.314 127.397 590.728 127.397C593.521 127.397 595.135 127.428 595.57 127.49C596.004 127.552 596.346 127.738 596.594 128.049C596.656 128.297 596.594 128.824 596.408 129.631C596.222 130.438 596.066 130.935 595.942 131.121C595.818 131.432 595.539 131.587 595.104 131.587C594.67 131.587 592.994 131.618 590.076 131.68H584.862L582.721 143.039C579.741 158.433 577.662 168.055 576.482 171.903C574.806 177.179 572.634 181.09 569.965 183.635C567.668 185.621 565.402 186.614 563.168 186.614C561.181 186.614 559.381 186.025 557.767 184.845C556.153 183.666 555.346 181.99 555.346 179.817C555.346 177.521 555.998 175.845 557.302 174.79C558.605 173.734 559.909 173.207 561.212 173.207C563.944 173.207 565.309 174.51 565.309 177.117C565.309 178.297 564.968 179.321 564.285 180.19C563.602 181.059 562.857 181.711 562.05 182.145L561.212 182.611Z" fill="black"/>
<path d="M614.742 147.772C614.303 147.421 614.083 147.114 614.083 146.851C614.083 146.675 621.502 131.31 636.34 100.757C651.178 70.2032 658.773 54.7508 659.124 54.3996C659.387 53.785 660.616 53.4777 662.811 53.4777C664.831 53.4777 666.06 53.785 666.499 54.3996C666.762 54.7508 674.313 70.2032 689.151 100.757C703.988 131.31 711.451 146.675 711.539 146.851C711.539 147.114 711.32 147.421 710.881 147.772H614.742ZM674.796 102.469L658.597 69.2813L626.068 135.656L658.465 135.788H690.994C690.994 135.612 685.595 124.506 674.796 102.469Z" fill="black"/>
<path d="M724.578 109.712C725.192 106.025 727.563 101.766 731.689 96.9376C735.816 92.1087 740.908 89.6504 746.966 89.5626C750.039 89.5626 752.849 90.3527 755.395 91.9331C757.941 93.5135 759.829 95.4889 761.058 97.8594C764.745 92.3282 769.179 89.5626 774.359 89.5626C777.608 89.5626 780.417 90.5283 782.788 92.4599C785.158 94.3914 786.387 96.9815 786.475 100.23C786.475 102.776 785.861 104.839 784.631 106.42C783.402 108 782.217 108.966 781.076 109.317C779.934 109.668 778.925 109.844 778.047 109.844C776.378 109.844 775.018 109.361 773.964 108.395C772.91 107.429 772.384 106.156 772.384 104.576C772.384 100.537 774.579 97.7717 778.968 96.2791C778.003 95.1377 776.247 94.567 773.701 94.567C772.559 94.567 771.725 94.6548 771.198 94.8304C767.862 96.2352 765.404 99.1325 763.823 103.522C758.555 122.926 755.922 134.252 755.922 137.5C755.922 139.958 756.624 141.714 758.029 142.768C759.433 143.822 760.97 144.348 762.638 144.348C765.887 144.348 769.091 142.9 772.252 140.002C775.413 137.105 777.564 133.549 778.705 129.335C778.968 128.457 779.232 127.974 779.495 127.886C779.759 127.798 780.461 127.711 781.602 127.623H782.129C783.446 127.623 784.105 127.974 784.105 128.676C784.105 128.764 784.017 129.247 783.841 130.125C782.436 135.13 779.715 139.563 775.676 143.426C771.637 147.29 766.94 149.221 761.584 149.221C755.439 149.221 750.785 146.456 747.625 140.924C744.025 146.368 739.898 149.089 735.245 149.089H734.455C730.153 149.089 727.08 147.948 725.236 145.665C723.392 143.383 722.427 140.968 722.339 138.422C722.339 135.612 723.173 133.33 724.841 131.574C726.509 129.818 728.485 128.94 730.767 128.94C734.543 128.94 736.43 130.784 736.43 134.471C736.43 136.227 735.904 137.764 734.85 139.08C733.796 140.397 732.787 141.275 731.821 141.714C730.855 142.153 730.285 142.373 730.109 142.373L729.714 142.505C729.714 142.592 729.977 142.768 730.504 143.031C731.031 143.295 731.733 143.602 732.611 143.953C733.489 144.304 734.323 144.436 735.113 144.348C738.274 144.348 740.996 142.373 743.279 138.422C744.069 137.017 745.078 134.032 746.308 129.467C747.537 124.901 748.766 120.16 749.995 115.243C751.224 110.327 751.927 107.429 752.102 106.551C752.541 104.181 752.761 102.469 752.761 101.415C752.761 98.9569 752.102 97.201 750.785 96.1474C749.468 95.0938 747.976 94.567 746.308 94.567C742.796 94.567 739.503 95.9718 736.43 98.7813C733.357 101.591 731.206 105.191 729.977 109.58C729.802 110.371 729.582 110.81 729.319 110.897C729.055 110.985 728.353 111.073 727.212 111.161H725.368C724.841 110.634 724.578 110.151 724.578 109.712Z" fill="black"/>
<path d="M811.366 180.565H811.103C810.049 180.565 809.259 179.95 808.732 178.721V114.717L808.864 50.7121C809.742 49.5707 810.576 49 811.366 49C812.508 49 813.386 49.6585 814 50.9755V178.721C813.298 179.95 812.508 180.565 811.63 180.565H811.366Z" fill="black"/>
<path d="M263.5 90.5C263.5 139.354 227.891 178.5 184.5 178.5C141.109 178.5 105.5 139.354 105.5 90.5C105.5 41.6462 141.109 2.5 184.5 2.5C227.891 2.5 263.5 41.6462 263.5 90.5Z" stroke="#80510A" stroke-width="5"/>
<path d="M56.4873 235.9L48.6748 263.171H44.7197L37.6152 236.657C37.3223 235.55 37.0537 234.647 36.8096 233.947C36.5654 233.247 36.3213 232.702 36.0771 232.312C35.833 231.905 35.5645 231.604 35.2715 231.408C34.9948 231.197 34.5879 231.018 34.0508 230.871V229.675H44.5V230.871C43.4909 231.066 42.7829 231.359 42.376 231.75C41.9854 232.141 41.79 232.686 41.79 233.386C41.79 233.955 41.8633 234.631 42.0098 235.412C42.1562 236.193 42.3597 237.08 42.6201 238.073L47.5273 257.36L55.3887 229.675H59.4902L65.8623 257.385L71.624 238.757C72.3239 236.494 72.6738 234.883 72.6738 233.923C72.6738 232.93 72.4622 232.214 72.0391 231.774C71.6322 231.335 70.9486 231.034 69.9883 230.871V229.675H79.6074V230.871C79.1191 231.034 78.7285 231.221 78.4355 231.433C78.1426 231.628 77.8577 231.905 77.5811 232.263C77.3206 232.604 77.0277 233.142 76.7021 233.874C76.3929 234.606 76.0267 235.591 75.6035 236.828L66.7168 263.171H63.2256L56.4873 235.9ZM89.666 263.391C86.2806 263.391 83.6927 262.398 81.9023 260.412C80.1283 258.41 79.2412 255.456 79.2412 251.55C79.2412 248.864 79.7051 246.594 80.6328 244.738C81.5768 242.883 82.8626 241.507 84.4902 240.612C86.1178 239.701 87.9733 239.245 90.0566 239.245C93.5397 239.245 96.1764 240.262 97.9668 242.297C99.7572 244.315 100.652 247.22 100.652 251.013C100.652 253.715 100.205 255.993 99.3096 257.849C98.4144 259.704 97.1449 261.096 95.501 262.023C93.8571 262.935 91.9121 263.391 89.666 263.391ZM83.8555 251.037C83.8555 254.39 84.3844 256.97 85.4424 258.776C86.5166 260.567 88.0465 261.462 90.0322 261.462C91.1227 261.462 92.0505 261.201 92.8154 260.681C93.5804 260.144 94.1989 259.427 94.6709 258.532C95.1592 257.637 95.5091 256.604 95.7207 255.432C95.9323 254.243 96.0381 253.007 96.0381 251.721C96.0381 249.328 95.7695 247.342 95.2324 245.764C94.7116 244.185 93.9954 243.029 93.084 242.297C92.1725 241.548 91.1309 241.174 89.959 241.174C87.9896 241.174 86.4759 242.028 85.418 243.737C84.3763 245.446 83.8555 247.88 83.8555 251.037ZM112.2 243.713L112.542 243.786C113.437 242.696 114.267 241.841 115.032 241.223C115.797 240.588 116.619 240.1 117.498 239.758C118.393 239.416 119.402 239.245 120.525 239.245C121.469 239.245 122.324 239.294 123.089 239.392V245.007H120.33C119.939 244.128 119.524 243.493 119.085 243.103C118.646 242.696 118.043 242.492 117.278 242.492C116.692 242.492 116.106 242.663 115.521 243.005C114.951 243.347 114.397 243.843 113.86 244.494C113.323 245.145 112.949 245.756 112.737 246.325C112.542 246.895 112.444 247.57 112.444 248.352V256.896C112.444 258.378 112.534 259.403 112.713 259.973C112.892 260.526 113.185 260.933 113.592 261.193C114.015 261.454 114.642 261.657 115.472 261.804V263H105.633V261.804C106.251 261.608 106.691 261.438 106.951 261.291C107.228 261.145 107.464 260.941 107.659 260.681C107.854 260.42 108.001 260.021 108.099 259.484C108.196 258.947 108.245 258.109 108.245 256.97V246.325C108.245 245.284 108.229 244.445 108.196 243.811C108.164 243.176 108.05 242.671 107.854 242.297C107.659 241.906 107.358 241.621 106.951 241.442C106.561 241.247 105.999 241.084 105.267 240.954V239.685L110.979 239.44H112.469L112.2 243.713ZM132.586 249.401H133.367C133.904 249.401 134.344 249.344 134.686 249.23C135.092 249.084 135.54 248.84 136.028 248.498C136.517 248.14 137.208 247.546 138.104 246.716C138.852 246.016 139.414 245.422 139.788 244.934C140.179 244.445 140.447 243.998 140.594 243.591C140.724 243.249 140.789 242.907 140.789 242.565C140.789 242.077 140.634 241.695 140.325 241.418C140.032 241.141 139.544 240.954 138.86 240.856V239.66H149.383V240.856C148.634 241.003 147.837 241.337 146.99 241.857C146.144 242.378 145.273 243.062 144.378 243.908L138.763 249.23L145.794 258.41C146.608 259.484 147.34 260.282 147.991 260.803C148.659 261.307 149.383 261.641 150.164 261.804V263H140.789V261.804C141.212 261.755 141.521 261.665 141.717 261.535C141.928 261.389 142.034 261.153 142.034 260.827C142.034 260.583 141.985 260.347 141.888 260.119C141.806 259.875 141.627 259.549 141.351 259.143C141.074 258.736 140.569 258.028 139.837 257.019L136.932 253.112C136.378 252.38 135.979 251.9 135.735 251.672C135.507 251.444 135.263 251.281 135.003 251.184C134.743 251.086 134.393 251.037 133.953 251.037H132.586V256.896C132.586 258.296 132.651 259.273 132.781 259.826C132.911 260.363 133.156 260.778 133.514 261.071C133.888 261.348 134.49 261.592 135.32 261.804V263H125.628V261.804C126.442 261.592 127.003 261.372 127.312 261.145C127.638 260.917 127.866 260.648 127.996 260.339C128.143 260.013 128.24 259.582 128.289 259.045C128.354 258.492 128.387 257.775 128.387 256.896V236.462C128.387 234.899 128.37 233.809 128.338 233.19C128.322 232.572 128.257 232.051 128.143 231.628C128.045 231.188 127.898 230.847 127.703 230.603C127.524 230.358 127.272 230.163 126.946 230.017C126.637 229.87 126.067 229.724 125.237 229.577V228.308L131.121 228.063H132.586V249.401ZM179.803 236.462C179.803 234.899 179.786 233.809 179.754 233.19C179.738 232.572 179.673 232.051 179.559 231.628C179.461 231.188 179.314 230.847 179.119 230.603C178.94 230.358 178.688 230.163 178.362 230.017C178.053 229.87 177.483 229.724 176.653 229.577V228.308L182.562 228.063H184.002V256.335C184.002 257.604 184.026 258.516 184.075 259.069C184.124 259.606 184.23 260.038 184.393 260.363C184.555 260.689 184.808 260.957 185.149 261.169C185.507 261.364 186.126 261.551 187.005 261.73V263L181.243 263.244H179.778L180.071 259.24L179.705 259.143C178.68 260.233 177.785 261.055 177.02 261.608C176.271 262.146 175.465 262.577 174.603 262.902C173.756 263.228 172.845 263.391 171.868 263.391C169.199 263.391 167.14 262.382 165.691 260.363C164.243 258.329 163.519 255.399 163.519 251.574C163.519 248.905 163.991 246.643 164.935 244.787C165.879 242.915 167.148 241.524 168.743 240.612C170.354 239.701 172.161 239.245 174.163 239.245C175.237 239.245 176.214 239.335 177.093 239.514C177.972 239.676 178.875 239.953 179.803 240.344V236.462ZM179.803 248.522C179.803 247.253 179.746 246.236 179.632 245.471C179.518 244.706 179.323 244.063 179.046 243.542C178.785 243.021 178.427 242.582 177.972 242.224C177.516 241.866 177.011 241.605 176.458 241.442C175.921 241.28 175.27 241.198 174.505 241.198C172.422 241.198 170.835 242.036 169.744 243.713C168.654 245.373 168.108 247.766 168.108 250.891C168.108 254.016 168.556 256.392 169.451 258.02C170.346 259.647 171.705 260.461 173.528 260.461C174.244 260.461 174.839 260.404 175.311 260.29C175.783 260.16 176.246 259.965 176.702 259.704C177.158 259.427 177.622 259.053 178.094 258.581C178.566 258.109 178.908 257.678 179.119 257.287C179.347 256.896 179.518 256.449 179.632 255.944C179.746 255.44 179.803 254.789 179.803 253.991V248.522ZM201.678 263.391C198.292 263.391 195.704 262.398 193.914 260.412C192.14 258.41 191.253 255.456 191.253 251.55C191.253 248.864 191.717 246.594 192.645 244.738C193.589 242.883 194.874 241.507 196.502 240.612C198.13 239.701 199.985 239.245 202.068 239.245C205.551 239.245 208.188 240.262 209.979 242.297C211.769 244.315 212.664 247.22 212.664 251.013C212.664 253.715 212.216 255.993 211.321 257.849C210.426 259.704 209.157 261.096 207.513 262.023C205.869 262.935 203.924 263.391 201.678 263.391ZM195.867 251.037C195.867 254.39 196.396 256.97 197.454 258.776C198.528 260.567 200.058 261.462 202.044 261.462C203.134 261.462 204.062 261.201 204.827 260.681C205.592 260.144 206.211 259.427 206.683 258.532C207.171 257.637 207.521 256.604 207.732 255.432C207.944 254.243 208.05 253.007 208.05 251.721C208.05 249.328 207.781 247.342 207.244 245.764C206.723 244.185 206.007 243.029 205.096 242.297C204.184 241.548 203.143 241.174 201.971 241.174C200.001 241.174 198.488 242.028 197.43 243.737C196.388 245.446 195.867 247.88 195.867 251.037ZM241.399 263H231.78V261.804C232.415 261.608 232.871 261.438 233.147 261.291C233.424 261.145 233.652 260.941 233.831 260.681C234.026 260.42 234.173 260.021 234.271 259.484C234.384 258.931 234.441 258.101 234.441 256.994V250.598C234.441 249.458 234.409 248.425 234.344 247.497C234.279 246.569 234.165 245.812 234.002 245.227C233.855 244.624 233.668 244.16 233.44 243.835C233.229 243.493 232.968 243.208 232.659 242.98C232.366 242.736 232.024 242.549 231.634 242.419C231.243 242.272 230.73 242.199 230.096 242.199C229.461 242.199 228.859 242.329 228.289 242.59C227.719 242.834 227.093 243.265 226.409 243.884C225.726 244.502 225.229 245.113 224.92 245.715C224.611 246.317 224.456 247.009 224.456 247.79V256.896C224.456 258.296 224.521 259.273 224.651 259.826C224.782 260.363 225.026 260.778 225.384 261.071C225.758 261.348 226.36 261.592 227.19 261.804V263H217.62V261.804C218.255 261.608 218.702 261.438 218.963 261.291C219.24 261.145 219.467 260.941 219.646 260.681C219.842 260.42 219.988 260.021 220.086 259.484C220.2 258.947 220.257 258.109 220.257 256.97V246.325C220.257 245.284 220.241 244.445 220.208 243.811C220.175 243.176 220.062 242.671 219.866 242.297C219.671 241.906 219.37 241.621 218.963 241.442C218.572 241.247 218.011 241.084 217.278 240.954V239.66L222.991 239.44H224.48L224.212 243.42L224.554 243.518C225.758 242.297 226.727 241.426 227.459 240.905C228.208 240.384 228.956 239.986 229.705 239.709C230.47 239.416 231.276 239.27 232.122 239.27C233.001 239.27 233.782 239.375 234.466 239.587C235.166 239.782 235.776 240.091 236.297 240.515C236.834 240.938 237.273 241.467 237.615 242.102C237.957 242.72 238.209 243.469 238.372 244.348C238.551 245.227 238.641 246.341 238.641 247.692V256.896C238.641 258.02 238.673 258.833 238.738 259.338C238.803 259.842 238.917 260.233 239.08 260.51C239.243 260.786 239.479 261.022 239.788 261.218C240.097 261.397 240.634 261.592 241.399 261.804V263ZM265.057 258.85C264.015 259.94 263.055 260.795 262.176 261.413C261.313 262.032 260.361 262.52 259.319 262.878C258.278 263.22 257.13 263.391 255.877 263.391C252.524 263.391 249.993 262.39 248.284 260.388C246.575 258.369 245.721 255.399 245.721 251.477C245.721 249.051 246.152 246.911 247.015 245.056C247.894 243.2 249.139 241.768 250.75 240.759C252.361 239.75 254.217 239.245 256.316 239.245C257.96 239.245 259.36 239.506 260.516 240.026C261.671 240.547 262.591 241.263 263.274 242.175C263.974 243.07 264.511 244.209 264.886 245.593C265.276 246.96 265.496 248.75 265.545 250.964H250.164V251.403C250.164 253.324 250.376 254.943 250.799 256.262C251.238 257.564 251.946 258.589 252.923 259.338C253.916 260.07 255.201 260.437 256.78 260.437C258.115 260.437 259.311 260.192 260.369 259.704C261.443 259.2 262.509 258.386 263.567 257.263L265.057 258.85ZM260.955 248.938C260.857 247.18 260.638 245.747 260.296 244.641C259.954 243.518 259.441 242.663 258.758 242.077C258.074 241.475 257.179 241.174 256.072 241.174C254.396 241.174 253.053 241.849 252.044 243.2C251.051 244.535 250.465 246.447 250.286 248.938H260.955ZM287.151 243.493L287.249 243.518C288.388 242.329 289.332 241.467 290.081 240.93C290.846 240.393 291.627 239.986 292.425 239.709C293.239 239.416 294.126 239.27 295.086 239.27C296.827 239.27 298.317 239.717 299.554 240.612C300.807 241.491 301.767 242.818 302.435 244.592C303.118 246.366 303.46 248.539 303.46 251.11C303.46 253.763 303.053 256.009 302.239 257.849C301.442 259.672 300.254 261.055 298.675 261.999C297.112 262.927 295.257 263.391 293.108 263.391C291.904 263.391 290.765 263.277 289.69 263.049C288.632 262.837 287.518 262.455 286.346 261.901L284.637 263.391L282.952 263V236.462C282.952 234.899 282.936 233.809 282.903 233.19C282.887 232.572 282.822 232.051 282.708 231.628C282.61 231.188 282.464 230.847 282.269 230.603C282.09 230.358 281.837 230.163 281.512 230.017C281.202 229.87 280.633 229.724 279.803 229.577V228.308L285.711 228.063H287.151V243.493ZM287.151 254.211C287.151 255.464 287.208 256.465 287.322 257.214C287.436 257.946 287.623 258.557 287.884 259.045C288.16 259.533 288.551 259.981 289.056 260.388C289.576 260.795 290.154 261.079 290.789 261.242C291.424 261.389 292.132 261.462 292.913 261.462C294.866 261.462 296.347 260.664 297.356 259.069C298.366 257.474 298.87 255.082 298.87 251.892C298.87 248.669 298.406 246.252 297.479 244.641C296.567 243.013 295.184 242.199 293.328 242.199C292.4 242.199 291.611 242.346 290.96 242.639C290.309 242.915 289.658 243.355 289.007 243.957C288.372 244.559 287.9 245.153 287.591 245.739C287.298 246.325 287.151 246.993 287.151 247.741V254.211ZM317.986 265.002C317.091 267.02 316.22 268.656 315.374 269.909C314.528 271.162 313.592 272.106 312.566 272.741C311.557 273.376 310.353 273.693 308.953 273.693C308.058 273.693 307.049 273.588 305.926 273.376V268.542H308.099C308.294 269.209 308.538 269.673 308.831 269.934C309.124 270.194 309.547 270.324 310.101 270.324C310.589 270.324 311.02 270.227 311.395 270.031C311.785 269.852 312.184 269.535 312.591 269.079C313.014 268.623 313.502 267.924 314.056 266.979C314.625 266.035 315.26 264.839 315.96 263.391L309.124 245.007C308.685 243.819 308.326 242.989 308.05 242.517C307.789 242.045 307.505 241.687 307.195 241.442C306.886 241.198 306.414 241.003 305.779 240.856V239.66H315.716V240.856C314.951 241.035 314.414 241.215 314.104 241.394C313.795 241.556 313.567 241.776 313.421 242.053C313.274 242.313 313.201 242.655 313.201 243.078C313.201 243.518 313.25 243.973 313.348 244.445C313.462 244.917 313.632 245.471 313.86 246.105L318.206 258.337L323.089 246.618C323.366 245.967 323.577 245.373 323.724 244.836C323.886 244.283 323.968 243.77 323.968 243.298C323.968 242.598 323.772 242.069 323.382 241.711C323.007 241.353 322.348 241.068 321.404 240.856V239.66H330.535V240.856C329.9 240.987 329.412 241.19 329.07 241.467C328.729 241.727 328.387 242.15 328.045 242.736C327.703 243.306 327.296 244.112 326.824 245.153L317.986 265.002ZM118.328 301.126H112.493V315.896C112.493 316.987 112.542 317.809 112.64 318.362C112.754 318.916 112.908 319.339 113.104 319.632C113.315 319.909 113.584 320.136 113.909 320.315C114.251 320.478 114.788 320.641 115.521 320.804V322H105.535V320.804C106.251 320.608 106.764 320.421 107.073 320.242C107.382 320.063 107.618 319.835 107.781 319.559C107.96 319.282 108.09 318.883 108.172 318.362C108.253 317.841 108.294 317.02 108.294 315.896V301.126H105.34V299.881C105.958 299.783 106.365 299.71 106.561 299.661C106.772 299.596 106.967 299.507 107.146 299.393C107.342 299.279 107.505 299.116 107.635 298.904C107.781 298.693 107.903 298.383 108.001 297.977C108.115 297.553 108.204 296.967 108.27 296.219C108.416 294.445 108.733 293.004 109.222 291.897C109.726 290.791 110.451 289.847 111.395 289.065C112.355 288.284 113.372 287.739 114.446 287.43C115.537 287.104 116.814 286.941 118.279 286.941C119.565 286.941 120.656 287.031 121.551 287.21V291.629H119.134C118.825 290.669 118.458 289.993 118.035 289.603C117.628 289.196 117.05 288.992 116.302 288.992C115.765 288.992 115.309 289.065 114.935 289.212C114.576 289.358 114.243 289.586 113.934 289.896C113.624 290.205 113.356 290.62 113.128 291.141C112.916 291.661 112.754 292.312 112.64 293.094C112.542 293.859 112.493 294.86 112.493 296.097V298.66H118.328V301.126ZM127.508 302.713L127.85 302.786C128.745 301.696 129.575 300.841 130.34 300.223C131.105 299.588 131.927 299.1 132.806 298.758C133.701 298.416 134.71 298.245 135.833 298.245C136.777 298.245 137.632 298.294 138.396 298.392V304.007H135.638C135.247 303.128 134.832 302.493 134.393 302.103C133.953 301.696 133.351 301.492 132.586 301.492C132 301.492 131.414 301.663 130.828 302.005C130.258 302.347 129.705 302.843 129.168 303.494C128.631 304.145 128.257 304.756 128.045 305.325C127.85 305.895 127.752 306.57 127.752 307.352V315.896C127.752 317.378 127.841 318.403 128.021 318.973C128.2 319.526 128.493 319.933 128.899 320.193C129.323 320.454 129.949 320.657 130.779 320.804V322H120.94V320.804C121.559 320.608 121.998 320.438 122.259 320.291C122.535 320.145 122.771 319.941 122.967 319.681C123.162 319.42 123.309 319.021 123.406 318.484C123.504 317.947 123.553 317.109 123.553 315.97V305.325C123.553 304.284 123.536 303.445 123.504 302.811C123.471 302.176 123.357 301.671 123.162 301.297C122.967 300.906 122.666 300.621 122.259 300.442C121.868 300.247 121.307 300.084 120.574 299.954V298.685L126.287 298.44H127.776L127.508 302.713ZM148.602 289.09V293.826H144.109V289.09H148.602ZM141.619 320.804C142.254 320.608 142.701 320.438 142.962 320.291C143.239 320.145 143.466 319.941 143.646 319.681C143.841 319.42 143.987 319.021 144.085 318.484C144.199 317.947 144.256 317.109 144.256 315.97V305.325C144.256 304.284 144.24 303.445 144.207 302.811C144.174 302.176 144.061 301.671 143.865 301.297C143.67 300.906 143.369 300.621 142.962 300.442C142.571 300.247 142.01 300.084 141.277 299.954V298.66L146.966 298.44H148.455V315.896C148.455 317.296 148.52 318.273 148.65 318.826C148.781 319.363 149.025 319.778 149.383 320.071C149.757 320.348 150.359 320.592 151.189 320.804V322H141.619V320.804ZM173.724 299.222V304.324H170.623C170.346 303.266 170.005 302.436 169.598 301.834C169.191 301.215 168.719 300.784 168.182 300.54C167.645 300.296 166.977 300.174 166.18 300.174C165.04 300.174 164.031 300.54 163.152 301.272C162.273 302.005 161.574 303.12 161.053 304.617C160.548 306.115 160.296 307.946 160.296 310.11C160.296 311.494 160.394 312.763 160.589 313.919C160.784 315.058 161.118 316.035 161.59 316.849C162.062 317.662 162.688 318.297 163.47 318.753C164.251 319.209 165.219 319.437 166.375 319.437C167.498 319.437 168.54 319.217 169.5 318.777C170.477 318.338 171.486 317.565 172.527 316.458L173.919 318.069C173.089 318.981 172.356 319.689 171.722 320.193C171.087 320.682 170.403 321.097 169.671 321.438C168.955 321.764 168.239 322 167.522 322.146C166.823 322.309 166.058 322.391 165.228 322.391C162.151 322.391 159.799 321.373 158.172 319.339C156.544 317.288 155.73 314.334 155.73 310.477C155.73 308.068 156.186 305.936 157.098 304.08C158.009 302.208 159.287 300.768 160.931 299.759C162.575 298.75 164.471 298.245 166.619 298.245C167.954 298.245 169.183 298.326 170.306 298.489C171.445 298.636 172.584 298.88 173.724 299.222ZM176.141 299.881C176.954 299.751 177.614 299.523 178.118 299.197C178.623 298.872 179.013 298.457 179.29 297.952C179.583 297.431 179.811 296.788 179.974 296.023C180.136 295.242 180.307 294.111 180.486 292.63H183.953V298.66H191.839V301.126H183.953V311.99C183.953 313.569 184.018 314.83 184.148 315.774C184.279 316.702 184.523 317.435 184.881 317.972C185.239 318.493 185.646 318.867 186.102 319.095C186.557 319.323 187.143 319.437 187.859 319.437C188.51 319.437 189.121 319.306 189.69 319.046C190.26 318.769 190.822 318.379 191.375 317.874L192.474 319.192C191.318 320.315 190.219 321.129 189.178 321.634C188.152 322.138 187.086 322.391 185.979 322.391C183.88 322.391 182.317 321.772 181.292 320.535C180.267 319.282 179.754 317.329 179.754 314.676V301.126H176.141V299.881ZM201.531 289.09V293.826H197.039V289.09H201.531ZM194.549 320.804C195.184 320.608 195.631 320.438 195.892 320.291C196.168 320.145 196.396 319.941 196.575 319.681C196.771 319.42 196.917 319.021 197.015 318.484C197.129 317.947 197.186 317.109 197.186 315.97V305.325C197.186 304.284 197.169 303.445 197.137 302.811C197.104 302.176 196.99 301.671 196.795 301.297C196.6 300.906 196.299 300.621 195.892 300.442C195.501 300.247 194.939 300.084 194.207 299.954V298.66L199.896 298.44H201.385V315.896C201.385 317.296 201.45 318.273 201.58 318.826C201.71 319.363 201.954 319.778 202.312 320.071C202.687 320.348 203.289 320.592 204.119 320.804V322H194.549V320.804ZM219.085 322.391C215.7 322.391 213.112 321.398 211.321 319.412C209.547 317.41 208.66 314.456 208.66 310.55C208.66 307.864 209.124 305.594 210.052 303.738C210.996 301.883 212.282 300.507 213.909 299.612C215.537 298.701 217.392 298.245 219.476 298.245C222.959 298.245 225.595 299.262 227.386 301.297C229.176 303.315 230.071 306.22 230.071 310.013C230.071 312.715 229.624 314.993 228.729 316.849C227.833 318.704 226.564 320.096 224.92 321.023C223.276 321.935 221.331 322.391 219.085 322.391ZM213.274 310.037C213.274 313.39 213.803 315.97 214.861 317.776C215.936 319.567 217.465 320.462 219.451 320.462C220.542 320.462 221.469 320.201 222.234 319.681C222.999 319.144 223.618 318.427 224.09 317.532C224.578 316.637 224.928 315.604 225.14 314.432C225.351 313.243 225.457 312.007 225.457 310.721C225.457 308.328 225.188 306.342 224.651 304.764C224.131 303.185 223.414 302.029 222.503 301.297C221.591 300.548 220.55 300.174 219.378 300.174C217.409 300.174 215.895 301.028 214.837 302.737C213.795 304.446 213.274 306.88 213.274 310.037ZM258.807 322H249.188V320.804C249.822 320.608 250.278 320.438 250.555 320.291C250.831 320.145 251.059 319.941 251.238 319.681C251.434 319.42 251.58 319.021 251.678 318.484C251.792 317.931 251.849 317.101 251.849 315.994V309.598C251.849 308.458 251.816 307.425 251.751 306.497C251.686 305.569 251.572 304.812 251.409 304.227C251.263 303.624 251.076 303.16 250.848 302.835C250.636 302.493 250.376 302.208 250.066 301.98C249.773 301.736 249.432 301.549 249.041 301.419C248.65 301.272 248.138 301.199 247.503 301.199C246.868 301.199 246.266 301.329 245.696 301.59C245.127 301.834 244.5 302.265 243.816 302.884C243.133 303.502 242.636 304.113 242.327 304.715C242.018 305.317 241.863 306.009 241.863 306.79V315.896C241.863 317.296 241.928 318.273 242.059 318.826C242.189 319.363 242.433 319.778 242.791 320.071C243.165 320.348 243.768 320.592 244.598 320.804V322H235.027V320.804C235.662 320.608 236.11 320.438 236.37 320.291C236.647 320.145 236.875 319.941 237.054 319.681C237.249 319.42 237.396 319.021 237.493 318.484C237.607 317.947 237.664 317.109 237.664 315.97V305.325C237.664 304.284 237.648 303.445 237.615 302.811C237.583 302.176 237.469 301.671 237.273 301.297C237.078 300.906 236.777 300.621 236.37 300.442C235.979 300.247 235.418 300.084 234.686 299.954V298.66L240.398 298.44H241.888L241.619 302.42L241.961 302.518C243.165 301.297 244.134 300.426 244.866 299.905C245.615 299.384 246.364 298.986 247.112 298.709C247.877 298.416 248.683 298.27 249.529 298.27C250.408 298.27 251.189 298.375 251.873 298.587C252.573 298.782 253.183 299.091 253.704 299.515C254.241 299.938 254.681 300.467 255.022 301.102C255.364 301.72 255.617 302.469 255.779 303.348C255.958 304.227 256.048 305.341 256.048 306.692V315.896C256.048 317.02 256.08 317.833 256.146 318.338C256.211 318.842 256.325 319.233 256.487 319.51C256.65 319.786 256.886 320.022 257.195 320.218C257.505 320.397 258.042 320.592 258.807 320.804V322Z" fill="#80510A"/>
<path d="M427.982 259.675V267.048H425.59C425.232 265.941 424.882 265.046 424.54 264.362C424.215 263.679 423.865 263.158 423.49 262.8C423.132 262.442 422.709 262.189 422.221 262.043C421.732 261.896 421.09 261.823 420.292 261.823H413.139V275.104H418.168C418.884 275.104 419.446 274.991 419.853 274.763C420.259 274.519 420.593 274.12 420.854 273.566C421.13 273.013 421.391 272.159 421.635 271.003H423.93V281.306H421.635C421.391 280.199 421.13 279.369 420.854 278.815C420.577 278.246 420.243 277.847 419.853 277.619C419.478 277.375 418.917 277.253 418.168 277.253H413.139V286.823C413.139 287.8 413.196 288.581 413.31 289.167C413.424 289.753 413.611 290.217 413.871 290.559C414.132 290.9 414.481 291.161 414.921 291.34C415.36 291.503 415.906 291.657 416.557 291.804V293H405.717V291.804C406.726 291.543 407.401 291.258 407.743 290.949C408.085 290.624 408.305 290.168 408.402 289.582C408.516 288.996 408.573 288.101 408.573 286.896V265.778C408.573 264.655 408.533 263.841 408.451 263.337C408.37 262.816 408.231 262.417 408.036 262.141C407.857 261.848 407.613 261.62 407.304 261.457C406.994 261.278 406.465 261.083 405.717 260.871V259.675H427.982ZM437.602 273.713L437.943 273.786C438.839 272.696 439.669 271.841 440.434 271.223C441.199 270.588 442.021 270.1 442.899 269.758C443.795 269.416 444.804 269.245 445.927 269.245C446.871 269.245 447.725 269.294 448.49 269.392V275.007H445.731C445.341 274.128 444.926 273.493 444.486 273.103C444.047 272.696 443.445 272.492 442.68 272.492C442.094 272.492 441.508 272.663 440.922 273.005C440.352 273.347 439.799 273.843 439.262 274.494C438.725 275.145 438.35 275.756 438.139 276.325C437.943 276.895 437.846 277.57 437.846 278.352V286.896C437.846 288.378 437.935 289.403 438.114 289.973C438.293 290.526 438.586 290.933 438.993 291.193C439.416 291.454 440.043 291.657 440.873 291.804V293H431.034V291.804C431.653 291.608 432.092 291.438 432.353 291.291C432.629 291.145 432.865 290.941 433.061 290.681C433.256 290.42 433.402 290.021 433.5 289.484C433.598 288.947 433.646 288.109 433.646 286.97V276.325C433.646 275.284 433.63 274.445 433.598 273.811C433.565 273.176 433.451 272.671 433.256 272.297C433.061 271.906 432.759 271.621 432.353 271.442C431.962 271.247 431.4 271.084 430.668 270.954V269.685L436.381 269.44H437.87L437.602 273.713ZM458.695 260.09V264.826H454.203V260.09H458.695ZM451.713 291.804C452.348 291.608 452.795 291.438 453.056 291.291C453.332 291.145 453.56 290.941 453.739 290.681C453.935 290.42 454.081 290.021 454.179 289.484C454.293 288.947 454.35 288.109 454.35 286.97V276.325C454.35 275.284 454.333 274.445 454.301 273.811C454.268 273.176 454.154 272.671 453.959 272.297C453.764 271.906 453.463 271.621 453.056 271.442C452.665 271.247 452.104 271.084 451.371 270.954V269.66L457.06 269.44H458.549V286.896C458.549 288.296 458.614 289.273 458.744 289.826C458.874 290.363 459.118 290.778 459.477 291.071C459.851 291.348 460.453 291.592 461.283 291.804V293H451.713V291.804ZM483.817 270.222V275.324H480.717C480.44 274.266 480.098 273.436 479.691 272.834C479.285 272.215 478.812 271.784 478.275 271.54C477.738 271.296 477.071 271.174 476.273 271.174C475.134 271.174 474.125 271.54 473.246 272.272C472.367 273.005 471.667 274.12 471.146 275.617C470.642 277.115 470.39 278.946 470.39 281.11C470.39 282.494 470.487 283.763 470.683 284.919C470.878 286.058 471.212 287.035 471.684 287.849C472.156 288.662 472.782 289.297 473.563 289.753C474.345 290.209 475.313 290.437 476.469 290.437C477.592 290.437 478.633 290.217 479.594 289.777C480.57 289.338 481.579 288.565 482.621 287.458L484.013 289.069C483.183 289.981 482.45 290.689 481.815 291.193C481.181 291.682 480.497 292.097 479.765 292.438C479.049 292.764 478.332 293 477.616 293.146C476.916 293.309 476.151 293.391 475.321 293.391C472.245 293.391 469.893 292.373 468.266 290.339C466.638 288.288 465.824 285.334 465.824 281.477C465.824 279.068 466.28 276.936 467.191 275.08C468.103 273.208 469.381 271.768 471.024 270.759C472.668 269.75 474.564 269.245 476.713 269.245C478.048 269.245 479.276 269.326 480.399 269.489C481.539 269.636 482.678 269.88 483.817 270.222ZM486.234 270.881C487.048 270.751 487.707 270.523 488.212 270.197C488.716 269.872 489.107 269.457 489.384 268.952C489.677 268.431 489.905 267.788 490.067 267.023C490.23 266.242 490.401 265.111 490.58 263.63H494.047V269.66H501.933V272.126H494.047V282.99C494.047 284.569 494.112 285.83 494.242 286.774C494.372 287.702 494.617 288.435 494.975 288.972C495.333 289.493 495.74 289.867 496.195 290.095C496.651 290.323 497.237 290.437 497.953 290.437C498.604 290.437 499.215 290.306 499.784 290.046C500.354 289.769 500.915 289.379 501.469 288.874L502.567 290.192C501.412 291.315 500.313 292.129 499.271 292.634C498.246 293.138 497.18 293.391 496.073 293.391C493.974 293.391 492.411 292.772 491.386 291.535C490.36 290.282 489.848 288.329 489.848 285.676V272.126H486.234V270.881ZM511.625 260.09V264.826H507.133V260.09H511.625ZM504.643 291.804C505.277 291.608 505.725 291.438 505.985 291.291C506.262 291.145 506.49 290.941 506.669 290.681C506.864 290.42 507.011 290.021 507.108 289.484C507.222 288.947 507.279 288.109 507.279 286.97V276.325C507.279 275.284 507.263 274.445 507.23 273.811C507.198 273.176 507.084 272.671 506.889 272.297C506.693 271.906 506.392 271.621 505.985 271.442C505.595 271.247 505.033 271.084 504.301 270.954V269.66L509.989 269.44H511.479V286.896C511.479 288.296 511.544 289.273 511.674 289.826C511.804 290.363 512.048 290.778 512.406 291.071C512.781 291.348 513.383 291.592 514.213 291.804V293H504.643V291.804ZM529.179 293.391C525.793 293.391 523.205 292.398 521.415 290.412C519.641 288.41 518.754 285.456 518.754 281.55C518.754 278.864 519.218 276.594 520.146 274.738C521.09 272.883 522.375 271.507 524.003 270.612C525.631 269.701 527.486 269.245 529.569 269.245C533.052 269.245 535.689 270.262 537.479 272.297C539.27 274.315 540.165 277.22 540.165 281.013C540.165 283.715 539.717 285.993 538.822 287.849C537.927 289.704 536.658 291.096 535.014 292.023C533.37 292.935 531.425 293.391 529.179 293.391ZM523.368 281.037C523.368 284.39 523.897 286.97 524.955 288.776C526.029 290.567 527.559 291.462 529.545 291.462C530.635 291.462 531.563 291.201 532.328 290.681C533.093 290.144 533.712 289.427 534.184 288.532C534.672 287.637 535.022 286.604 535.233 285.432C535.445 284.243 535.551 283.007 535.551 281.721C535.551 279.328 535.282 277.342 534.745 275.764C534.224 274.185 533.508 273.029 532.597 272.297C531.685 271.548 530.644 271.174 529.472 271.174C527.502 271.174 525.989 272.028 524.931 273.737C523.889 275.446 523.368 277.88 523.368 281.037ZM568.9 293H559.281V291.804C559.916 291.608 560.372 291.438 560.648 291.291C560.925 291.145 561.153 290.941 561.332 290.681C561.527 290.42 561.674 290.021 561.771 289.484C561.885 288.931 561.942 288.101 561.942 286.994V280.598C561.942 279.458 561.91 278.425 561.845 277.497C561.78 276.569 561.666 275.812 561.503 275.227C561.356 274.624 561.169 274.16 560.941 273.835C560.73 273.493 560.469 273.208 560.16 272.98C559.867 272.736 559.525 272.549 559.135 272.419C558.744 272.272 558.231 272.199 557.597 272.199C556.962 272.199 556.36 272.329 555.79 272.59C555.22 272.834 554.594 273.265 553.91 273.884C553.227 274.502 552.73 275.113 552.421 275.715C552.112 276.317 551.957 277.009 551.957 277.79V286.896C551.957 288.296 552.022 289.273 552.152 289.826C552.283 290.363 552.527 290.778 552.885 291.071C553.259 291.348 553.861 291.592 554.691 291.804V293H545.121V291.804C545.756 291.608 546.203 291.438 546.464 291.291C546.741 291.145 546.968 290.941 547.147 290.681C547.343 290.42 547.489 290.021 547.587 289.484C547.701 288.947 547.758 288.109 547.758 286.97V276.325C547.758 275.284 547.742 274.445 547.709 273.811C547.676 273.176 547.562 272.671 547.367 272.297C547.172 271.906 546.871 271.621 546.464 271.442C546.073 271.247 545.512 271.084 544.779 270.954V269.66L550.492 269.44H551.981L551.713 273.42L552.055 273.518C553.259 272.297 554.228 271.426 554.96 270.905C555.709 270.384 556.457 269.986 557.206 269.709C557.971 269.416 558.777 269.27 559.623 269.27C560.502 269.27 561.283 269.375 561.967 269.587C562.667 269.782 563.277 270.091 563.798 270.515C564.335 270.938 564.774 271.467 565.116 272.102C565.458 272.72 565.71 273.469 565.873 274.348C566.052 275.227 566.142 276.341 566.142 277.692V286.896C566.142 288.02 566.174 288.833 566.239 289.338C566.304 289.842 566.418 290.233 566.581 290.51C566.744 290.786 566.98 291.022 567.289 291.218C567.598 291.397 568.135 291.592 568.9 291.804V293ZM596.635 272.126H590.8V286.896C590.8 287.987 590.849 288.809 590.946 289.362C591.06 289.916 591.215 290.339 591.41 290.632C591.622 290.909 591.89 291.136 592.216 291.315C592.558 291.478 593.095 291.641 593.827 291.804V293H583.842V291.804C584.558 291.608 585.071 291.421 585.38 291.242C585.689 291.063 585.925 290.835 586.088 290.559C586.267 290.282 586.397 289.883 586.479 289.362C586.56 288.841 586.601 288.02 586.601 286.896V272.126H583.646V270.881C584.265 270.783 584.672 270.71 584.867 270.661C585.079 270.596 585.274 270.507 585.453 270.393C585.648 270.279 585.811 270.116 585.941 269.904C586.088 269.693 586.21 269.383 586.308 268.977C586.422 268.553 586.511 267.967 586.576 267.219C586.723 265.445 587.04 264.004 587.528 262.897C588.033 261.791 588.757 260.847 589.701 260.065C590.661 259.284 591.679 258.739 592.753 258.43C593.843 258.104 595.121 257.941 596.586 257.941C597.872 257.941 598.962 258.031 599.857 258.21V262.629H597.44C597.131 261.669 596.765 260.993 596.342 260.603C595.935 260.196 595.357 259.992 594.608 259.992C594.071 259.992 593.616 260.065 593.241 260.212C592.883 260.358 592.549 260.586 592.24 260.896C591.931 261.205 591.662 261.62 591.435 262.141C591.223 262.661 591.06 263.312 590.946 264.094C590.849 264.859 590.8 265.86 590.8 267.097V269.66H596.635V272.126ZM609.208 293.391C605.823 293.391 603.235 292.398 601.444 290.412C599.67 288.41 598.783 285.456 598.783 281.55C598.783 278.864 599.247 276.594 600.175 274.738C601.119 272.883 602.405 271.507 604.032 270.612C605.66 269.701 607.515 269.245 609.599 269.245C613.082 269.245 615.718 270.262 617.509 272.297C619.299 274.315 620.194 277.22 620.194 281.013C620.194 283.715 619.747 285.993 618.852 287.849C617.956 289.704 616.687 291.096 615.043 292.023C613.399 292.935 611.454 293.391 609.208 293.391ZM603.397 281.037C603.397 284.39 603.926 286.97 604.984 288.776C606.059 290.567 607.589 291.462 609.574 291.462C610.665 291.462 611.592 291.201 612.357 290.681C613.122 290.144 613.741 289.427 614.213 288.532C614.701 287.637 615.051 286.604 615.263 285.432C615.474 284.243 615.58 283.007 615.58 281.721C615.58 279.328 615.312 277.342 614.774 275.764C614.254 274.185 613.537 273.029 612.626 272.297C611.715 271.548 610.673 271.174 609.501 271.174C607.532 271.174 606.018 272.028 604.96 273.737C603.918 275.446 603.397 277.88 603.397 281.037ZM631.742 273.713L632.084 273.786C632.979 272.696 633.809 271.841 634.574 271.223C635.339 270.588 636.161 270.1 637.04 269.758C637.935 269.416 638.944 269.245 640.067 269.245C641.011 269.245 641.866 269.294 642.631 269.392V275.007H639.872C639.481 274.128 639.066 273.493 638.627 273.103C638.188 272.696 637.585 272.492 636.82 272.492C636.234 272.492 635.648 272.663 635.062 273.005C634.493 273.347 633.939 273.843 633.402 274.494C632.865 275.145 632.491 275.756 632.279 276.325C632.084 276.895 631.986 277.57 631.986 278.352V286.896C631.986 288.378 632.076 289.403 632.255 289.973C632.434 290.526 632.727 290.933 633.134 291.193C633.557 291.454 634.184 291.657 635.014 291.804V293H625.175V291.804C625.793 291.608 626.233 291.438 626.493 291.291C626.77 291.145 627.006 290.941 627.201 290.681C627.396 290.42 627.543 290.021 627.641 289.484C627.738 288.947 627.787 288.109 627.787 286.97V276.325C627.787 275.284 627.771 274.445 627.738 273.811C627.706 273.176 627.592 272.671 627.396 272.297C627.201 271.906 626.9 271.621 626.493 271.442C626.103 271.247 625.541 271.084 624.809 270.954V269.685L630.521 269.44H632.011L631.742 273.713ZM663.31 270.222V275.324H660.209C659.932 274.266 659.59 273.436 659.184 272.834C658.777 272.215 658.305 271.784 657.768 271.54C657.23 271.296 656.563 271.174 655.766 271.174C654.626 271.174 653.617 271.54 652.738 272.272C651.859 273.005 651.16 274.12 650.639 275.617C650.134 277.115 649.882 278.946 649.882 281.11C649.882 282.494 649.979 283.763 650.175 284.919C650.37 286.058 650.704 287.035 651.176 287.849C651.648 288.662 652.274 289.297 653.056 289.753C653.837 290.209 654.805 290.437 655.961 290.437C657.084 290.437 658.126 290.217 659.086 289.777C660.062 289.338 661.072 288.565 662.113 287.458L663.505 289.069C662.675 289.981 661.942 290.689 661.308 291.193C660.673 291.682 659.989 292.097 659.257 292.438C658.541 292.764 657.825 293 657.108 293.146C656.409 293.309 655.644 293.391 654.813 293.391C651.737 293.391 649.385 292.373 647.758 290.339C646.13 288.288 645.316 285.334 645.316 281.477C645.316 279.068 645.772 276.936 646.684 275.08C647.595 273.208 648.873 271.768 650.517 270.759C652.16 269.75 654.057 269.245 656.205 269.245C657.54 269.245 658.769 269.326 659.892 269.489C661.031 269.636 662.17 269.88 663.31 270.222ZM686.698 288.85C685.657 289.94 684.696 290.795 683.817 291.413C682.955 292.032 682.003 292.52 680.961 292.878C679.919 293.22 678.772 293.391 677.519 293.391C674.166 293.391 671.635 292.39 669.926 290.388C668.217 288.369 667.362 285.399 667.362 281.477C667.362 279.051 667.794 276.911 668.656 275.056C669.535 273.2 670.78 271.768 672.392 270.759C674.003 269.75 675.858 269.245 677.958 269.245C679.602 269.245 681.002 269.506 682.157 270.026C683.313 270.547 684.232 271.263 684.916 272.175C685.616 273.07 686.153 274.209 686.527 275.593C686.918 276.96 687.138 278.75 687.187 280.964H671.806V281.403C671.806 283.324 672.017 284.943 672.44 286.262C672.88 287.564 673.588 288.589 674.564 289.338C675.557 290.07 676.843 290.437 678.422 290.437C679.757 290.437 680.953 290.192 682.011 289.704C683.085 289.2 684.151 288.386 685.209 287.263L686.698 288.85ZM682.597 278.938C682.499 277.18 682.279 275.747 681.938 274.641C681.596 273.518 681.083 272.663 680.399 272.077C679.716 271.475 678.821 271.174 677.714 271.174C676.037 271.174 674.695 271.849 673.686 273.2C672.693 274.535 672.107 276.447 671.928 278.938H682.597Z" fill="#B0833E"/>
<path d="M646.08 381V379.804C646.829 379.608 647.366 379.421 647.691 379.242C648.017 379.063 648.269 378.835 648.448 378.559C648.627 378.282 648.757 377.883 648.839 377.362C648.92 376.841 648.961 376.02 648.961 374.896V353.778C648.961 352.639 648.92 351.817 648.839 351.312C648.757 350.792 648.619 350.393 648.424 350.116C648.245 349.84 648.001 349.62 647.691 349.457C647.382 349.278 646.845 349.083 646.08 348.871V347.675H656.773C659.85 347.675 662.364 348.017 664.317 348.7C666.287 349.368 667.947 350.36 669.298 351.679C670.649 352.997 671.658 354.641 672.325 356.61C672.993 358.563 673.326 360.899 673.326 363.617C673.326 366.368 673.009 368.793 672.374 370.893C671.756 372.976 670.844 374.726 669.64 376.142C668.598 377.379 667.32 378.396 665.807 379.193C664.553 379.844 663.105 380.308 661.461 380.585C659.817 380.862 657.636 381 654.918 381H646.08ZM653.526 378.729C654.177 378.795 655.138 378.827 656.407 378.827C657.774 378.827 658.995 378.713 660.069 378.485C661.144 378.257 662.12 377.899 662.999 377.411C663.878 376.923 664.667 376.247 665.367 375.385C666.067 374.506 666.637 373.505 667.076 372.382C667.516 371.243 667.833 369.981 668.028 368.598C668.24 367.214 668.346 365.701 668.346 364.057C668.346 360.753 667.866 358.043 666.905 355.927C665.961 353.795 664.618 352.24 662.877 351.264C661.152 350.287 659.085 349.799 656.676 349.799C655.569 349.799 654.519 349.831 653.526 349.896V378.729ZM685.606 348.09V352.826H681.114V348.09H685.606ZM678.624 379.804C679.259 379.608 679.706 379.438 679.967 379.291C680.243 379.145 680.471 378.941 680.65 378.681C680.846 378.42 680.992 378.021 681.09 377.484C681.204 376.947 681.261 376.109 681.261 374.97V364.325C681.261 363.284 681.244 362.445 681.212 361.811C681.179 361.176 681.065 360.671 680.87 360.297C680.675 359.906 680.374 359.621 679.967 359.442C679.576 359.247 679.015 359.084 678.282 358.954V357.66L683.971 357.44H685.46V374.896C685.46 376.296 685.525 377.273 685.655 377.826C685.785 378.363 686.03 378.778 686.388 379.071C686.762 379.348 687.364 379.592 688.194 379.804V381H678.624V379.804ZM708.897 363.007H706.554C706.196 362.03 705.772 361.265 705.284 360.712C704.796 360.142 704.243 359.743 703.624 359.516C703.006 359.288 702.249 359.174 701.354 359.174C700.051 359.174 699.01 359.483 698.229 360.102C697.464 360.704 697.081 361.534 697.081 362.592C697.081 363.34 697.236 363.959 697.545 364.447C697.854 364.936 698.334 365.391 698.985 365.814C699.636 366.238 700.784 366.799 702.428 367.499C704.088 368.215 705.366 368.874 706.261 369.477C707.172 370.079 707.88 370.779 708.385 371.576C708.906 372.374 709.166 373.326 709.166 374.433C709.166 375.718 708.946 376.801 708.507 377.68C708.067 378.559 707.449 379.275 706.651 379.828C705.854 380.382 704.902 380.78 703.795 381.024C702.704 381.269 701.508 381.391 700.206 381.391C698.839 381.391 697.512 381.285 696.227 381.073C694.941 380.878 693.688 380.618 692.467 380.292V375.189H694.859C695.299 376.687 695.95 377.777 696.812 378.461C697.675 379.128 698.863 379.462 700.377 379.462C700.963 379.462 701.533 379.405 702.086 379.291C702.656 379.161 703.16 378.957 703.6 378.681C704.039 378.388 704.389 377.997 704.649 377.509C704.91 377.021 705.04 376.41 705.04 375.678C705.04 374.848 704.877 374.172 704.552 373.651C704.226 373.131 703.722 372.659 703.038 372.235C702.354 371.796 701.15 371.21 699.425 370.478C697.944 369.859 696.756 369.257 695.86 368.671C694.965 368.085 694.257 367.393 693.736 366.596C693.232 365.798 692.979 364.854 692.979 363.764C692.979 362.429 693.338 361.273 694.054 360.297C694.786 359.304 695.836 358.547 697.203 358.026C698.57 357.506 700.174 357.245 702.013 357.245C703.087 357.245 704.12 357.302 705.113 357.416C706.122 357.514 707.384 357.717 708.897 358.026V363.007ZM720.641 380.268V385.419C720.641 386.477 720.673 387.266 720.738 387.787C720.82 388.308 720.95 388.715 721.129 389.008C721.324 389.317 721.593 389.569 721.935 389.765C722.293 389.96 722.862 390.139 723.644 390.302V391.498H713.683V390.302C714.269 390.139 714.741 389.968 715.099 389.789C715.473 389.626 715.758 389.374 715.953 389.032C716.148 388.707 716.279 388.259 716.344 387.689C716.409 387.12 716.441 386.363 716.441 385.419V364.472C716.441 363.3 716.425 362.47 716.393 361.981C716.36 361.477 716.295 361.062 716.197 360.736C716.1 360.411 715.953 360.142 715.758 359.931C715.579 359.719 715.326 359.54 715.001 359.394C714.692 359.247 714.171 359.101 713.438 358.954V357.66L719.176 357.44H720.665L720.348 361.42L720.714 361.518C721.723 360.492 722.521 359.752 723.106 359.296C723.692 358.824 724.295 358.433 724.913 358.124C725.548 357.815 726.15 357.595 726.72 357.465C727.306 357.335 727.924 357.27 728.575 357.27C731.261 357.27 733.32 358.279 734.752 360.297C736.201 362.299 736.925 365.237 736.925 369.11C736.925 371.796 736.518 374.058 735.704 375.897C734.89 377.72 733.702 379.096 732.14 380.023C730.593 380.935 728.746 381.391 726.598 381.391C725.393 381.391 724.303 381.285 723.326 381.073C722.35 380.878 721.454 380.609 720.641 380.268ZM720.641 372.211C720.641 373.773 720.738 374.978 720.934 375.824C721.129 376.671 721.471 377.362 721.959 377.899C722.464 378.42 723.049 378.811 723.717 379.071C724.4 379.332 725.296 379.462 726.402 379.462C728.372 379.462 729.853 378.648 730.846 377.021C731.839 375.377 732.335 372.96 732.335 369.77C732.335 363.389 730.471 360.199 726.744 360.199C725.833 360.199 725.043 360.346 724.376 360.639C723.725 360.915 723.074 361.371 722.423 362.006C721.772 362.641 721.308 363.259 721.031 363.861C720.771 364.447 720.641 365.082 720.641 365.766V372.211ZM748.375 374.896C748.375 376.296 748.44 377.273 748.57 377.826C748.701 378.363 748.945 378.778 749.303 379.071C749.677 379.348 750.279 379.592 751.109 379.804V381H741.417V379.804C742.231 379.592 742.792 379.372 743.102 379.145C743.427 378.917 743.655 378.648 743.785 378.339C743.932 378.013 744.029 377.582 744.078 377.045C744.143 376.492 744.176 375.775 744.176 374.896V354.462C744.176 352.899 744.16 351.809 744.127 351.19C744.111 350.572 744.046 350.051 743.932 349.628C743.834 349.188 743.688 348.847 743.492 348.603C743.313 348.358 743.061 348.163 742.735 348.017C742.426 347.87 741.856 347.724 741.026 347.577V346.308L746.91 346.063H748.375V374.896ZM769.542 377.509L769.176 377.411C767.76 378.86 766.425 379.885 765.172 380.487C763.935 381.09 762.617 381.391 761.217 381.391C759.98 381.391 758.889 381.155 757.945 380.683C757.001 380.194 756.277 379.519 755.772 378.656C755.268 377.777 755.016 376.768 755.016 375.629C755.016 373.253 756.188 371.422 758.531 370.136C760.891 368.834 764.423 368.077 769.127 367.865V366.278C769.127 364.586 768.964 363.251 768.639 362.274C768.313 361.298 767.8 360.582 767.101 360.126C766.401 359.67 765.465 359.442 764.293 359.442C763.023 359.442 761.998 359.776 761.217 360.443C760.452 361.111 759.874 362.112 759.483 363.446H756.285V360.272C757.848 359.459 759.15 358.865 760.191 358.49C761.233 358.1 762.275 357.799 763.316 357.587C764.358 357.359 765.416 357.245 766.49 357.245C768.102 357.245 769.396 357.506 770.372 358.026C771.349 358.531 772.081 359.312 772.569 360.37C773.058 361.428 773.302 363.023 773.302 365.155V373.651C773.302 374.856 773.31 375.71 773.326 376.215C773.342 376.703 773.391 377.159 773.473 377.582C773.554 378.005 773.676 378.347 773.839 378.607C774.002 378.852 774.238 379.063 774.547 379.242C774.872 379.421 775.393 379.608 776.109 379.804V381H769.42L769.542 377.509ZM769.127 369.867C765.823 369.9 763.349 370.339 761.705 371.186C760.061 372.032 759.239 373.31 759.239 375.019C759.239 375.946 759.426 376.679 759.801 377.216C760.175 377.753 760.647 378.127 761.217 378.339C761.786 378.534 762.462 378.632 763.243 378.632C764.35 378.632 765.351 378.363 766.246 377.826C767.158 377.289 767.866 376.605 768.37 375.775C768.875 374.945 769.127 374.123 769.127 373.31V369.867ZM798.033 358.222V363.324H794.933C794.656 362.266 794.314 361.436 793.907 360.834C793.5 360.215 793.028 359.784 792.491 359.54C791.954 359.296 791.287 359.174 790.489 359.174C789.35 359.174 788.341 359.54 787.462 360.272C786.583 361.005 785.883 362.12 785.362 363.617C784.858 365.115 784.605 366.946 784.605 369.11C784.605 370.494 784.703 371.763 784.898 372.919C785.094 374.058 785.427 375.035 785.899 375.849C786.371 376.662 786.998 377.297 787.779 377.753C788.561 378.209 789.529 378.437 790.685 378.437C791.808 378.437 792.849 378.217 793.81 377.777C794.786 377.338 795.795 376.565 796.837 375.458L798.229 377.069C797.398 377.981 796.666 378.689 796.031 379.193C795.396 379.682 794.713 380.097 793.98 380.438C793.264 380.764 792.548 381 791.832 381.146C791.132 381.309 790.367 381.391 789.537 381.391C786.461 381.391 784.109 380.373 782.481 378.339C780.854 376.288 780.04 373.334 780.04 369.477C780.04 367.068 780.496 364.936 781.407 363.08C782.319 361.208 783.596 359.768 785.24 358.759C786.884 357.75 788.78 357.245 790.929 357.245C792.263 357.245 793.492 357.326 794.615 357.489C795.755 357.636 796.894 357.88 798.033 358.222ZM821.422 376.85C820.38 377.94 819.42 378.795 818.541 379.413C817.678 380.032 816.726 380.52 815.685 380.878C814.643 381.22 813.495 381.391 812.242 381.391C808.889 381.391 806.358 380.39 804.649 378.388C802.94 376.369 802.086 373.399 802.086 369.477C802.086 367.051 802.517 364.911 803.38 363.056C804.259 361.2 805.504 359.768 807.115 358.759C808.727 357.75 810.582 357.245 812.682 357.245C814.326 357.245 815.725 357.506 816.881 358.026C818.036 358.547 818.956 359.263 819.64 360.175C820.34 361.07 820.877 362.209 821.251 363.593C821.642 364.96 821.861 366.75 821.91 368.964H806.529V369.403C806.529 371.324 806.741 372.943 807.164 374.262C807.604 375.564 808.312 376.589 809.288 377.338C810.281 378.07 811.567 378.437 813.146 378.437C814.48 378.437 815.676 378.192 816.734 377.704C817.809 377.2 818.875 376.386 819.933 375.263L821.422 376.85ZM817.32 366.938C817.223 365.18 817.003 363.747 816.661 362.641C816.319 361.518 815.807 360.663 815.123 360.077C814.439 359.475 813.544 359.174 812.438 359.174C810.761 359.174 809.418 359.849 808.409 361.2C807.416 362.535 806.83 364.447 806.651 366.938H817.32ZM832.921 361.42L833.263 361.518C834.239 360.541 835.037 359.809 835.655 359.32C836.29 358.816 836.9 358.417 837.486 358.124C838.072 357.815 838.618 357.595 839.122 357.465C839.643 357.335 840.172 357.27 840.709 357.27C842.337 357.27 843.663 357.644 844.688 358.393C845.714 359.141 846.422 360.289 846.812 361.835C848.033 360.598 849.018 359.687 849.767 359.101C850.532 358.515 851.305 358.067 852.086 357.758C852.883 357.432 853.738 357.27 854.649 357.27C855.74 357.27 856.676 357.432 857.457 357.758C858.255 358.067 858.922 358.555 859.459 359.223C860.012 359.874 860.411 360.696 860.655 361.688C860.916 362.681 861.046 364.016 861.046 365.692V374.896C861.046 376.133 861.087 376.988 861.168 377.46C861.249 377.932 861.363 378.298 861.51 378.559C861.673 378.819 861.909 379.047 862.218 379.242C862.527 379.421 863.048 379.608 863.78 379.804V381H854.186V379.804C854.82 379.608 855.276 379.438 855.553 379.291C855.829 379.145 856.057 378.941 856.236 378.681C856.432 378.42 856.578 378.021 856.676 377.484C856.79 376.931 856.847 376.101 856.847 374.994V368.598C856.847 367.214 856.806 366.075 856.725 365.18C856.66 364.268 856.546 363.544 856.383 363.007C856.236 362.47 856.049 362.047 855.821 361.737C855.61 361.428 855.366 361.16 855.089 360.932C854.812 360.704 854.487 360.525 854.112 360.395C853.738 360.264 853.242 360.199 852.623 360.199C851.972 360.199 851.362 360.329 850.792 360.59C850.239 360.85 849.628 361.29 848.961 361.908C848.31 362.527 847.838 363.153 847.545 363.788C847.252 364.407 847.105 365.139 847.105 365.985V374.896C847.105 376.133 847.146 376.988 847.228 377.46C847.309 377.932 847.423 378.298 847.569 378.559C847.732 378.819 847.968 379.047 848.277 379.242C848.587 379.421 849.107 379.608 849.84 379.804V381H840.245V379.804C840.88 379.608 841.336 379.438 841.612 379.291C841.889 379.145 842.117 378.941 842.296 378.681C842.491 378.42 842.638 378.021 842.735 377.484C842.849 376.931 842.906 376.101 842.906 374.994V368.598C842.906 367.149 842.866 365.969 842.784 365.058C842.703 364.146 842.573 363.414 842.394 362.86C842.231 362.307 842.011 361.859 841.734 361.518C841.474 361.176 841.205 360.915 840.929 360.736C840.652 360.557 840.326 360.427 839.952 360.346C839.578 360.248 839.155 360.199 838.683 360.199C838.015 360.199 837.389 360.354 836.803 360.663C836.217 360.956 835.615 361.387 834.996 361.957C834.394 362.527 833.938 363.121 833.629 363.739C833.32 364.358 833.165 365.025 833.165 365.741V374.896C833.165 375.824 833.189 376.532 833.238 377.021C833.287 377.509 833.36 377.891 833.458 378.168C833.572 378.445 833.71 378.673 833.873 378.852C834.036 379.014 834.264 379.177 834.557 379.34C834.866 379.486 835.322 379.641 835.924 379.804V381H826.354V379.804C826.972 379.608 827.411 379.438 827.672 379.291C827.949 379.145 828.185 378.941 828.38 378.681C828.575 378.42 828.722 378.021 828.819 377.484C828.917 376.947 828.966 376.109 828.966 374.97V364.325C828.966 363.284 828.95 362.445 828.917 361.811C828.884 361.176 828.771 360.671 828.575 360.297C828.38 359.906 828.079 359.621 827.672 359.442C827.281 359.247 826.72 359.084 825.987 358.954V357.66L831.7 357.44H833.189L832.921 361.42ZM887.438 376.85C886.396 377.94 885.436 378.795 884.557 379.413C883.694 380.032 882.742 380.52 881.7 380.878C880.659 381.22 879.511 381.391 878.258 381.391C874.905 381.391 872.374 380.39 870.665 378.388C868.956 376.369 868.102 373.399 868.102 369.477C868.102 367.051 868.533 364.911 869.396 363.056C870.274 361.2 871.52 359.768 873.131 358.759C874.742 357.75 876.598 357.245 878.697 357.245C880.341 357.245 881.741 357.506 882.896 358.026C884.052 358.547 884.972 359.263 885.655 360.175C886.355 361.07 886.892 362.209 887.267 363.593C887.657 364.96 887.877 366.75 887.926 368.964H872.545V369.403C872.545 371.324 872.757 372.943 873.18 374.262C873.619 375.564 874.327 376.589 875.304 377.338C876.297 378.07 877.582 378.437 879.161 378.437C880.496 378.437 881.692 378.192 882.75 377.704C883.824 377.2 884.89 376.386 885.948 375.263L887.438 376.85ZM883.336 366.938C883.238 365.18 883.019 363.747 882.677 362.641C882.335 361.518 881.822 360.663 881.139 360.077C880.455 359.475 879.56 359.174 878.453 359.174C876.777 359.174 875.434 359.849 874.425 361.2C873.432 362.535 872.846 364.447 872.667 366.938H883.336ZM916.124 381H906.505V379.804C907.14 379.608 907.595 379.438 907.872 379.291C908.149 379.145 908.377 378.941 908.556 378.681C908.751 378.42 908.897 378.021 908.995 377.484C909.109 376.931 909.166 376.101 909.166 374.994V368.598C909.166 367.458 909.133 366.425 909.068 365.497C909.003 364.569 908.889 363.812 908.727 363.227C908.58 362.624 908.393 362.16 908.165 361.835C907.953 361.493 907.693 361.208 907.384 360.98C907.091 360.736 906.749 360.549 906.358 360.419C905.968 360.272 905.455 360.199 904.82 360.199C904.186 360.199 903.583 360.329 903.014 360.59C902.444 360.834 901.817 361.265 901.134 361.884C900.45 362.502 899.954 363.113 899.645 363.715C899.335 364.317 899.181 365.009 899.181 365.79V374.896C899.181 376.296 899.246 377.273 899.376 377.826C899.506 378.363 899.75 378.778 900.108 379.071C900.483 379.348 901.085 379.592 901.915 379.804V381H892.345V379.804C892.979 379.608 893.427 379.438 893.688 379.291C893.964 379.145 894.192 378.941 894.371 378.681C894.566 378.42 894.713 378.021 894.811 377.484C894.924 376.947 894.981 376.109 894.981 374.97V364.325C894.981 363.284 894.965 362.445 894.933 361.811C894.9 361.176 894.786 360.671 894.591 360.297C894.396 359.906 894.094 359.621 893.688 359.442C893.297 359.247 892.735 359.084 892.003 358.954V357.66L897.716 357.44H899.205L898.937 361.42L899.278 361.518C900.483 360.297 901.451 359.426 902.184 358.905C902.932 358.384 903.681 357.986 904.43 357.709C905.195 357.416 906 357.27 906.847 357.27C907.726 357.27 908.507 357.375 909.19 357.587C909.89 357.782 910.501 358.091 911.021 358.515C911.559 358.938 911.998 359.467 912.34 360.102C912.682 360.72 912.934 361.469 913.097 362.348C913.276 363.227 913.365 364.341 913.365 365.692V374.896C913.365 376.02 913.398 376.833 913.463 377.338C913.528 377.842 913.642 378.233 913.805 378.51C913.967 378.786 914.203 379.022 914.513 379.218C914.822 379.397 915.359 379.592 916.124 379.804V381ZM918.81 358.881C919.623 358.751 920.283 358.523 920.787 358.197C921.292 357.872 921.682 357.457 921.959 356.952C922.252 356.431 922.48 355.788 922.643 355.023C922.805 354.242 922.976 353.111 923.155 351.63H926.622V357.66H934.508V360.126H926.622V370.99C926.622 372.569 926.687 373.83 926.817 374.774C926.948 375.702 927.192 376.435 927.55 376.972C927.908 377.493 928.315 377.867 928.771 378.095C929.226 378.323 929.812 378.437 930.528 378.437C931.179 378.437 931.79 378.306 932.359 378.046C932.929 377.769 933.491 377.379 934.044 376.874L935.143 378.192C933.987 379.315 932.888 380.129 931.847 380.634C930.821 381.138 929.755 381.391 928.648 381.391C926.549 381.391 924.986 380.772 923.961 379.535C922.936 378.282 922.423 376.329 922.423 373.676V360.126H918.81V358.881Z" fill="black"/>
<path d="M185 216L193.66 201H176.34L185 216ZM183.5 181V202.5H186.5V181H183.5Z" fill="#80510A"/>
<path d="M513 252L521.467 236.89L504.148 237.112L513 252ZM510.5 174.019L511.327 238.52L514.327 238.482L513.5 173.981L510.5 174.019Z" fill="#B0833E"/>
<path d="M793 343L794.559 325.75L778.84 333.025L793 343ZM710.639 168.63L785.968 331.379L788.691 330.119L713.361 167.37L710.639 168.63Z" fill="black"/>
</svg>
