<svg width="1000" height="389" viewBox="0 0 1000 389" fill="none" xmlns="http://www.w3.org/2000/svg">
<path d="M137.221 68.5451C134.221 68.5451 132.633 68.3686 132.456 68.0156C132.368 67.8391 132.324 67.4861 132.324 66.9566C132.324 64.8387 132.809 63.3827 133.78 62.5884C133.956 62.5002 134.706 62.4561 136.03 62.4561C139.648 62.6326 145.649 62.7208 154.032 62.7208C157.033 62.7208 159.812 62.7208 162.372 62.7208C164.931 62.7208 166.916 62.6767 168.328 62.5884C169.74 62.5002 170.623 62.5002 170.976 62.5884C172.387 62.5884 173.093 63.0297 173.093 63.9121C173.093 64.0886 173.005 64.7064 172.829 65.7653C172.387 67.2655 171.946 68.148 171.505 68.4127H171.24C171.064 68.4127 170.843 68.4127 170.578 68.4127C170.314 68.4127 170.005 68.4127 169.652 68.4127C169.299 68.4127 168.902 68.4568 168.461 68.5451C168.019 68.6333 167.622 68.6333 167.269 68.5451C163.828 68.6333 161.621 68.7657 160.651 68.9422C159.68 69.1187 158.886 69.604 158.268 70.3982C158.18 70.5747 156.944 75.2077 154.562 84.297C152.179 93.3864 149.796 102.917 147.414 112.889C145.031 122.861 143.707 128.729 143.443 130.494C143.266 131.729 143.178 133.009 143.178 134.333C143.178 139.098 144.546 142.848 147.281 145.584C150.017 148.32 153.812 149.687 158.665 149.687C164.578 149.687 170.49 147.702 176.403 143.731C182.315 139.76 186.639 133.759 189.375 125.729L196.126 99.1224C200.273 82.1791 202.347 73.3545 202.347 72.6485C202.347 70.2659 199.523 68.898 193.875 68.5451C191.757 68.5451 190.699 68.0597 190.699 67.089C190.699 66.9125 190.787 66.383 190.963 65.5006C191.316 64.0886 191.581 63.2503 191.757 62.9856C191.934 62.7208 192.375 62.5443 193.081 62.4561C193.346 62.4561 194.758 62.5002 197.317 62.5884C199.876 62.6767 203.582 62.7649 208.436 62.8532C212.937 62.8532 216.378 62.8091 218.761 62.7208C221.143 62.6326 222.423 62.5884 222.6 62.5884C223.923 62.5884 224.585 63.0297 224.585 63.9121C224.585 65.8536 224.232 67.1772 223.526 67.8832C223.261 68.3244 222.291 68.5451 220.614 68.5451C214.349 68.898 210.422 70.663 208.833 73.8398C208.657 74.2811 206.45 82.7968 202.215 99.3871C198.597 114.301 196.39 123.081 195.596 125.729C192.684 134.553 187.61 141.745 180.374 147.305C173.138 152.864 165.637 155.688 157.871 155.776C149.752 155.776 143.266 153.306 138.413 148.364C133.559 143.422 131.088 137.554 131 130.759V128.641C131 127.052 133.427 116.551 138.28 97.1368C142.604 79.3993 144.766 70.2659 144.766 69.7364C144.766 69.1187 142.251 68.7216 137.221 68.5451Z" fill="black"/>
<path d="M268.77 106.932C268.77 105.785 269.387 104.902 270.623 104.285H354.942C356.266 104.991 356.928 105.873 356.928 106.932C356.928 107.903 356.31 108.741 355.075 109.447L312.981 109.58H270.888C269.476 109.138 268.77 108.256 268.77 106.932ZM268.77 132.612C268.77 131.288 269.476 130.406 270.888 129.964H355.075C356.31 130.847 356.928 131.729 356.928 132.612C356.928 133.759 356.266 134.641 354.942 135.259H270.623C269.387 134.641 268.77 133.759 268.77 132.612Z" fill="black"/>
<path d="M403.892 114.874C403.981 114.345 404.113 113.639 404.289 112.756C404.466 111.874 404.995 110.197 405.878 107.726C406.76 105.255 407.643 103.182 408.525 101.505C409.408 99.8283 410.82 98.1958 412.761 96.6074C414.702 95.0189 416.644 94.2688 418.585 94.3571C420.527 94.4453 422.424 94.7542 424.277 95.2837C426.13 95.8131 427.454 96.6074 428.248 97.6663C429.042 98.7253 429.748 99.696 430.366 100.578C430.984 101.461 431.337 102.299 431.425 103.093L431.69 104.02C431.69 104.197 431.734 104.285 431.822 104.285L433.278 102.829C438.573 97.181 444.794 94.3571 451.942 94.3571C453.443 94.3571 454.81 94.4453 456.046 94.6218C457.281 94.7983 458.428 95.1072 459.487 95.5484C460.546 95.9896 461.385 96.4309 462.002 96.8721C462.62 97.3133 463.282 97.8428 463.988 98.4605C464.694 99.0783 465.135 99.6519 465.312 100.181C465.488 100.711 465.841 101.284 466.371 101.902C466.9 102.52 467.077 103.049 466.9 103.491C466.724 103.932 466.856 104.329 467.297 104.682C467.738 105.035 467.827 105.344 467.562 105.608L468.621 104.285C474.18 97.6663 480.755 94.3571 488.344 94.3571C493.109 94.3571 496.948 95.5484 499.86 97.9311C502.772 100.314 504.272 103.799 504.361 108.388C504.361 112.889 502.684 119.86 499.331 129.303C495.977 138.745 494.301 144.393 494.301 146.246C494.389 147.481 494.609 148.32 494.962 148.761C495.315 149.202 495.977 149.423 496.948 149.423C499.419 149.423 501.713 148.099 503.831 145.452C505.949 142.804 507.67 139.186 508.994 134.597C509.258 133.627 509.523 133.053 509.788 132.877C510.053 132.7 510.758 132.612 511.906 132.612C513.671 132.612 514.553 132.965 514.553 133.671C514.553 133.759 514.377 134.421 514.024 135.656C513.318 138.215 512.347 140.73 511.111 143.201C509.876 145.672 507.846 148.143 505.022 150.614C502.199 153.085 499.154 154.276 495.889 154.188C491.741 154.188 488.741 152.997 486.888 150.614C485.035 148.231 484.108 145.76 484.108 143.201C484.108 141.525 485.697 136.23 488.873 127.317C492.05 118.404 493.683 111.697 493.771 107.197C493.771 101.99 491.83 99.3871 487.947 99.3871H487.285C479.696 99.3871 473.298 103.844 468.091 112.756L467.165 114.345L462.797 132.082C459.885 143.643 458.208 149.864 457.767 150.746C456.619 153.129 454.722 154.32 452.075 154.32C450.928 154.32 450.001 154.012 449.295 153.394C448.589 152.776 448.104 152.247 447.839 151.805C447.574 151.364 447.442 150.923 447.442 150.482C447.442 149.511 448.942 143.201 451.942 131.553L456.708 112.227C456.972 110.903 457.105 109.227 457.105 107.197C457.105 101.99 455.163 99.3871 451.281 99.3871H450.619C443.03 99.3871 436.632 103.844 431.425 112.756L430.499 114.345L426.13 132.082C423.218 143.643 421.542 149.864 421.1 150.746C419.953 153.129 418.056 154.32 415.408 154.32C414.261 154.32 413.335 154.056 412.629 153.526C411.923 152.997 411.437 152.467 411.173 151.938C410.908 151.408 410.82 150.967 410.908 150.614C410.908 149.467 412.585 142.231 415.938 128.905C419.38 115.316 421.1 108.212 421.1 107.594C421.365 106.27 421.497 105.079 421.497 104.02C421.497 100.843 420.394 99.2547 418.188 99.2547C416.247 99.2547 414.614 100.49 413.291 102.961C411.967 105.432 410.952 108.123 410.246 111.036C409.54 113.948 409.011 115.536 408.658 115.801C408.481 115.977 407.775 116.066 406.54 116.066H404.687C404.157 115.536 403.892 115.139 403.892 114.874Z" fill="black"/>
<path d="M558.5 147.172C557.176 148.32 555.235 149.555 552.675 150.879C550.116 152.202 547.425 152.864 544.601 152.864C539.041 152.864 534.585 150.879 531.232 146.908C527.878 142.937 526.157 137.862 526.069 131.685C526.069 122.419 529.467 113.904 536.262 106.138C543.057 98.3723 550.602 94.4453 558.897 94.3571C563.044 94.3571 566.883 96.475 570.413 100.711L570.81 100.181C570.986 99.9166 571.207 99.6518 571.472 99.3871C571.737 99.1224 572.134 98.7694 572.663 98.3282C573.193 97.8869 573.766 97.5781 574.384 97.4016C575.002 97.2251 575.708 97.0927 576.502 97.0045C577.737 97.0045 578.752 97.4016 579.546 98.1958C580.341 98.99 580.782 99.8283 580.87 100.711C580.87 102.034 578.355 112.712 573.325 132.744C568.295 152.776 565.648 163.013 565.383 163.454C563.794 168.219 560.397 172.146 555.19 175.235C549.984 178.323 544.027 179.912 537.321 180C524.878 180 518.656 177 518.656 170.999C518.656 168.704 519.451 166.675 521.039 164.91C522.628 163.145 524.657 162.263 527.128 162.263C528.452 162.263 529.687 162.66 530.834 163.454C531.982 164.248 532.599 165.616 532.688 167.557C532.688 168.44 532.599 169.278 532.423 170.072C532.246 170.867 531.938 171.484 531.496 171.925C531.055 172.367 530.702 172.808 530.437 173.249C530.173 173.69 529.864 174.043 529.511 174.308L529.246 174.573H529.378C530.261 174.838 532.908 174.97 537.321 174.97C540.674 174.97 543.321 174.44 545.263 173.382C547.292 172.411 549.19 170.955 550.955 169.013C552.72 167.072 553.955 164.998 554.661 162.792C555.19 161.115 555.896 158.38 556.779 154.585C557.926 150.349 558.5 147.878 558.5 147.172ZM568.163 109.447L567.633 107.991C567.368 107.02 567.148 106.359 566.971 106.006C566.795 105.653 566.53 105.035 566.177 104.152C565.824 103.27 565.383 102.652 564.853 102.299C564.324 101.946 563.75 101.461 563.133 100.843C562.515 100.225 561.721 99.8283 560.75 99.6518C559.779 99.4754 558.809 99.343 557.838 99.2547C553.955 99.2547 550.205 101.593 546.586 106.27C543.939 109.712 541.733 114.963 539.968 122.022C538.203 129.082 537.321 134.2 537.321 137.377C537.321 144.349 540.056 147.834 545.527 147.834C550.469 147.834 555.323 144.746 560.088 138.568L561.147 137.245L568.163 109.447Z" fill="black"/>
<path d="M598.608 62.4561C598.696 62.4561 601.873 62.2355 608.138 61.7942C614.404 61.353 617.625 61.0883 617.801 61C618.86 61 619.39 61.3971 619.39 62.1913C619.39 63.1621 617.801 69.8246 614.624 82.1791C611.271 95.2395 609.594 101.902 609.594 102.167C609.594 102.343 609.903 102.123 610.521 101.505C615.904 96.7397 621.64 94.3571 627.729 94.3571C632.494 94.3571 636.333 95.5484 639.245 97.9311C642.157 100.314 643.657 103.799 643.745 108.388C643.745 112.889 642.069 119.86 638.715 129.303C635.362 138.745 633.685 144.393 633.685 146.246C633.774 147.481 633.994 148.32 634.347 148.761C634.7 149.202 635.362 149.423 636.333 149.423C638.804 149.423 641.098 148.099 643.216 145.452C645.334 142.804 647.055 139.186 648.378 134.597C648.643 133.627 648.908 133.053 649.173 132.877C649.437 132.7 650.143 132.612 651.291 132.612C653.055 132.612 653.938 132.965 653.938 133.671C653.938 133.759 653.761 134.421 653.408 135.656C651.996 140.863 649.746 145.143 646.658 148.496C643.657 152.291 640.083 154.188 635.936 154.188H635.274C631.126 154.188 628.126 152.997 626.273 150.614C624.42 148.231 623.493 145.716 623.493 143.069C623.493 141.657 625.081 136.451 628.258 127.449C631.435 118.448 633.068 111.697 633.156 107.197C633.156 101.99 631.214 99.3871 627.332 99.3871H626.67C619.345 99.3871 612.992 103.711 607.609 112.359L606.682 114.08L602.181 131.95C599.358 143.422 597.725 149.687 597.284 150.746C596.137 153.129 594.195 154.32 591.46 154.32C590.224 154.32 589.165 153.923 588.283 153.129C587.4 152.335 586.915 151.541 586.827 150.746C586.827 149.511 590.048 136.098 596.49 110.506L606.285 71.3248C606.285 70.1776 605.976 69.4717 605.358 69.2069C604.741 68.9422 603.02 68.7216 600.196 68.5451H597.416C596.887 68.0156 596.622 67.6626 596.622 67.4861C596.622 67.3096 596.71 66.4713 596.887 64.9711C597.328 63.2944 597.902 62.4561 598.608 62.4561Z" fill="black"/>
<path d="M226.5 91.5C226.5 116.363 220.052 138.755 209.759 154.854C199.449 170.981 185.509 180.5 170.5 180.5C155.491 180.5 141.551 170.981 131.241 154.854C120.948 138.755 114.5 116.363 114.5 91.5C114.5 66.6372 120.948 44.2451 131.241 28.1464C141.551 12.0193 155.491 2.5 170.5 2.5C185.509 2.5 199.449 12.0193 209.759 28.1464C220.052 44.2451 226.5 66.6372 226.5 91.5Z" stroke="#0A6B08" stroke-width="5"/>
<path d="M17.4736 243.823C17.4736 244.784 17.5225 245.549 17.6201 246.118C17.734 246.688 17.8968 247.144 18.1084 247.485C18.3363 247.811 18.6374 248.071 19.0117 248.267C19.3861 248.446 19.972 248.625 20.7695 248.804V250H10.0518V248.804C11.0609 248.543 11.7363 248.258 12.0781 247.949C12.4199 247.624 12.6396 247.168 12.7373 246.582C12.8512 245.996 12.9082 245.101 12.9082 243.896V222.778C12.9082 221.655 12.8675 220.841 12.7861 220.337C12.7048 219.816 12.5664 219.417 12.3711 219.141C12.1921 218.848 11.9479 218.62 11.6387 218.457C11.3294 218.278 10.8005 218.083 10.0518 217.871V216.675H22.1611C25.9697 216.675 28.8018 217.407 30.6572 218.872C32.529 220.321 33.4648 222.534 33.4648 225.513C33.4648 227.205 33.1719 228.727 32.5859 230.078C32 231.429 31.1699 232.536 30.0957 233.398C29.0215 234.261 27.752 234.88 26.2871 235.254C24.8223 235.628 23.2842 235.815 21.6729 235.815C19.8662 235.815 18.4665 235.783 17.4736 235.718V243.823ZM17.4736 233.691H20.3057C22.1449 233.691 23.6585 233.455 24.8467 232.983C26.0511 232.495 26.9707 231.698 27.6055 230.591C28.2402 229.468 28.5576 227.987 28.5576 226.147C28.5576 224.748 28.3704 223.584 27.9961 222.656C27.6217 221.712 27.1009 220.955 26.4336 220.386C25.7826 219.816 25.0013 219.417 24.0898 219.189C23.1784 218.945 22.1855 218.823 21.1113 218.823C19.5 218.823 18.2874 218.856 17.4736 218.921V233.691ZM47.5762 250.391C44.1908 250.391 41.6029 249.398 39.8125 247.412C38.0384 245.41 37.1514 242.456 37.1514 238.55C37.1514 235.864 37.6152 233.594 38.543 231.738C39.487 229.883 40.7728 228.507 42.4004 227.612C44.028 226.701 45.8835 226.245 47.9668 226.245C51.4499 226.245 54.0866 227.262 55.877 229.297C57.6673 231.315 58.5625 234.22 58.5625 238.013C58.5625 240.715 58.1149 242.993 57.2197 244.849C56.3245 246.704 55.055 248.096 53.4111 249.023C51.7673 249.935 49.8223 250.391 47.5762 250.391ZM41.7656 238.037C41.7656 241.39 42.2946 243.97 43.3525 245.776C44.4268 247.567 45.9567 248.462 47.9424 248.462C49.0329 248.462 49.9606 248.201 50.7256 247.681C51.4906 247.144 52.109 246.427 52.5811 245.532C53.0693 244.637 53.4193 243.604 53.6309 242.432C53.8424 241.243 53.9482 240.007 53.9482 238.721C53.9482 236.328 53.6797 234.342 53.1426 232.764C52.6217 231.185 51.9056 230.029 50.9941 229.297C50.0827 228.548 49.041 228.174 47.8691 228.174C45.8997 228.174 44.3861 229.028 43.3281 230.737C42.2865 232.446 41.7656 234.88 41.7656 238.037ZM62.0537 227.881C62.8675 227.751 63.5267 227.523 64.0312 227.197C64.5358 226.872 64.9264 226.457 65.2031 225.952C65.4961 225.431 65.724 224.788 65.8867 224.023C66.0495 223.242 66.2204 222.111 66.3994 220.63H69.8662V226.66H77.752V229.126H69.8662V239.99C69.8662 241.569 69.9313 242.83 70.0615 243.774C70.1917 244.702 70.4359 245.435 70.7939 245.972C71.152 246.493 71.5589 246.867 72.0146 247.095C72.4704 247.323 73.0563 247.437 73.7725 247.437C74.4235 247.437 75.0339 247.306 75.6035 247.046C76.1732 246.769 76.7347 246.379 77.2881 245.874L78.3867 247.192C77.2311 248.315 76.1325 249.129 75.0908 249.634C74.0654 250.138 72.9993 250.391 71.8926 250.391C69.793 250.391 68.2305 249.772 67.2051 248.535C66.1797 247.282 65.667 245.329 65.667 242.676V229.126H62.0537V227.881ZM99.5293 245.85C98.4876 246.94 97.5273 247.795 96.6484 248.413C95.7858 249.032 94.8337 249.52 93.792 249.878C92.7503 250.22 91.6029 250.391 90.3496 250.391C86.9967 250.391 84.4658 249.39 82.7568 247.388C81.0479 245.369 80.1934 242.399 80.1934 238.477C80.1934 236.051 80.6247 233.911 81.4873 232.056C82.3662 230.2 83.6113 228.768 85.2227 227.759C86.834 226.75 88.6895 226.245 90.7891 226.245C92.4329 226.245 93.8327 226.506 94.9883 227.026C96.1439 227.547 97.0635 228.263 97.7471 229.175C98.4469 230.07 98.984 231.209 99.3584 232.593C99.749 233.96 99.9688 235.75 100.018 237.964H84.6367V238.403C84.6367 240.324 84.8483 241.943 85.2715 243.262C85.7109 244.564 86.4189 245.589 87.3955 246.338C88.3883 247.07 89.6742 247.437 91.2529 247.437C92.5876 247.437 93.7839 247.192 94.8418 246.704C95.916 246.2 96.9821 245.386 98.04 244.263L99.5293 245.85ZM95.4277 235.938C95.3301 234.18 95.1104 232.747 94.7686 231.641C94.4268 230.518 93.9141 229.663 93.2305 229.077C92.5469 228.475 91.6517 228.174 90.5449 228.174C88.8685 228.174 87.5257 228.849 86.5166 230.2C85.5238 231.535 84.9378 233.447 84.7588 235.938H95.4277ZM128.216 250H118.597V248.804C119.231 248.608 119.687 248.438 119.964 248.291C120.241 248.145 120.468 247.941 120.647 247.681C120.843 247.42 120.989 247.021 121.087 246.484C121.201 245.931 121.258 245.101 121.258 243.994V237.598C121.258 236.458 121.225 235.425 121.16 234.497C121.095 233.569 120.981 232.812 120.818 232.227C120.672 231.624 120.485 231.16 120.257 230.835C120.045 230.493 119.785 230.208 119.476 229.98C119.183 229.736 118.841 229.549 118.45 229.419C118.06 229.272 117.547 229.199 116.912 229.199C116.277 229.199 115.675 229.329 115.105 229.59C114.536 229.834 113.909 230.265 113.226 230.884C112.542 231.502 112.046 232.113 111.736 232.715C111.427 233.317 111.272 234.009 111.272 234.79V243.896C111.272 245.296 111.338 246.273 111.468 246.826C111.598 247.363 111.842 247.778 112.2 248.071C112.575 248.348 113.177 248.592 114.007 248.804V250H104.437V248.804C105.071 248.608 105.519 248.438 105.779 248.291C106.056 248.145 106.284 247.941 106.463 247.681C106.658 247.42 106.805 247.021 106.902 246.484C107.016 245.947 107.073 245.109 107.073 243.97V233.325C107.073 232.284 107.057 231.445 107.024 230.811C106.992 230.176 106.878 229.671 106.683 229.297C106.487 228.906 106.186 228.621 105.779 228.442C105.389 228.247 104.827 228.084 104.095 227.954V226.66L109.808 226.44H111.297L111.028 230.42L111.37 230.518C112.575 229.297 113.543 228.426 114.275 227.905C115.024 227.384 115.773 226.986 116.521 226.709C117.286 226.416 118.092 226.27 118.938 226.27C119.817 226.27 120.599 226.375 121.282 226.587C121.982 226.782 122.592 227.091 123.113 227.515C123.65 227.938 124.09 228.467 124.432 229.102C124.773 229.72 125.026 230.469 125.188 231.348C125.368 232.227 125.457 233.341 125.457 234.692V243.896C125.457 245.02 125.49 245.833 125.555 246.338C125.62 246.842 125.734 247.233 125.896 247.51C126.059 247.786 126.295 248.022 126.604 248.218C126.914 248.397 127.451 248.592 128.216 248.804V250ZM130.901 227.881C131.715 227.751 132.374 227.523 132.879 227.197C133.383 226.872 133.774 226.457 134.051 225.952C134.344 225.431 134.572 224.788 134.734 224.023C134.897 223.242 135.068 222.111 135.247 220.63H138.714V226.66H146.6V229.126H138.714V239.99C138.714 241.569 138.779 242.83 138.909 243.774C139.039 244.702 139.284 245.435 139.642 245.972C140 246.493 140.407 246.867 140.862 247.095C141.318 247.323 141.904 247.437 142.62 247.437C143.271 247.437 143.882 247.306 144.451 247.046C145.021 246.769 145.582 246.379 146.136 245.874L147.234 247.192C146.079 248.315 144.98 249.129 143.938 249.634C142.913 250.138 141.847 250.391 140.74 250.391C138.641 250.391 137.078 249.772 136.053 248.535C135.027 247.282 134.515 245.329 134.515 242.676V229.126H130.901V227.881ZM156.292 217.09V221.826H151.8V217.09H156.292ZM149.31 248.804C149.944 248.608 150.392 248.438 150.652 248.291C150.929 248.145 151.157 247.941 151.336 247.681C151.531 247.42 151.678 247.021 151.775 246.484C151.889 245.947 151.946 245.109 151.946 243.97V233.325C151.946 232.284 151.93 231.445 151.897 230.811C151.865 230.176 151.751 229.671 151.556 229.297C151.36 228.906 151.059 228.621 150.652 228.442C150.262 228.247 149.7 228.084 148.968 227.954V226.66L154.656 226.44H156.146V243.896C156.146 245.296 156.211 246.273 156.341 246.826C156.471 247.363 156.715 247.778 157.073 248.071C157.448 248.348 158.05 248.592 158.88 248.804V250H149.31V248.804ZM177.337 246.509L176.971 246.411C175.555 247.86 174.22 248.885 172.967 249.487C171.73 250.09 170.411 250.391 169.012 250.391C167.775 250.391 166.684 250.155 165.74 249.683C164.796 249.194 164.072 248.519 163.567 247.656C163.063 246.777 162.811 245.768 162.811 244.629C162.811 242.253 163.982 240.422 166.326 239.136C168.686 237.834 172.218 237.077 176.922 236.865V235.278C176.922 233.586 176.759 232.251 176.434 231.274C176.108 230.298 175.595 229.582 174.896 229.126C174.196 228.67 173.26 228.442 172.088 228.442C170.818 228.442 169.793 228.776 169.012 229.443C168.247 230.111 167.669 231.112 167.278 232.446H164.08V229.272C165.643 228.459 166.945 227.865 167.986 227.49C169.028 227.1 170.07 226.799 171.111 226.587C172.153 226.359 173.211 226.245 174.285 226.245C175.896 226.245 177.19 226.506 178.167 227.026C179.144 227.531 179.876 228.312 180.364 229.37C180.853 230.428 181.097 232.023 181.097 234.155V242.651C181.097 243.856 181.105 244.71 181.121 245.215C181.137 245.703 181.186 246.159 181.268 246.582C181.349 247.005 181.471 247.347 181.634 247.607C181.797 247.852 182.033 248.063 182.342 248.242C182.667 248.421 183.188 248.608 183.904 248.804V250H177.215L177.337 246.509ZM176.922 238.867C173.618 238.9 171.144 239.339 169.5 240.186C167.856 241.032 167.034 242.31 167.034 244.019C167.034 244.946 167.221 245.679 167.596 246.216C167.97 246.753 168.442 247.127 169.012 247.339C169.581 247.534 170.257 247.632 171.038 247.632C172.145 247.632 173.146 247.363 174.041 246.826C174.952 246.289 175.66 245.605 176.165 244.775C176.67 243.945 176.922 243.123 176.922 242.31V238.867ZM194.158 243.896C194.158 245.296 194.223 246.273 194.354 246.826C194.484 247.363 194.728 247.778 195.086 248.071C195.46 248.348 196.062 248.592 196.893 248.804V250H187.2V248.804C188.014 248.592 188.576 248.372 188.885 248.145C189.21 247.917 189.438 247.648 189.568 247.339C189.715 247.013 189.812 246.582 189.861 246.045C189.926 245.492 189.959 244.775 189.959 243.896V223.462C189.959 221.899 189.943 220.809 189.91 220.19C189.894 219.572 189.829 219.051 189.715 218.628C189.617 218.188 189.471 217.847 189.275 217.603C189.096 217.358 188.844 217.163 188.519 217.017C188.209 216.87 187.64 216.724 186.81 216.577V215.308L192.693 215.063H194.158V243.896ZM231.756 245.85C230.714 246.94 229.754 247.795 228.875 248.413C228.012 249.032 227.06 249.52 226.019 249.878C224.977 250.22 223.829 250.391 222.576 250.391C219.223 250.391 216.692 249.39 214.983 247.388C213.274 245.369 212.42 242.399 212.42 238.477C212.42 236.051 212.851 233.911 213.714 232.056C214.593 230.2 215.838 228.768 217.449 227.759C219.061 226.75 220.916 226.245 223.016 226.245C224.66 226.245 226.059 226.506 227.215 227.026C228.37 227.547 229.29 228.263 229.974 229.175C230.674 230.07 231.211 231.209 231.585 232.593C231.976 233.96 232.195 235.75 232.244 237.964H216.863V238.403C216.863 240.324 217.075 241.943 217.498 243.262C217.938 244.564 218.646 245.589 219.622 246.338C220.615 247.07 221.901 247.437 223.479 247.437C224.814 247.437 226.01 247.192 227.068 246.704C228.143 246.2 229.209 245.386 230.267 244.263L231.756 245.85ZM227.654 235.938C227.557 234.18 227.337 232.747 226.995 231.641C226.653 230.518 226.141 229.663 225.457 229.077C224.773 228.475 223.878 228.174 222.771 228.174C221.095 228.174 219.752 228.849 218.743 230.2C217.75 231.535 217.164 233.447 216.985 235.938H227.654ZM260.442 250H250.823V248.804C251.458 248.608 251.914 248.438 252.19 248.291C252.467 248.145 252.695 247.941 252.874 247.681C253.069 247.42 253.216 247.021 253.313 246.484C253.427 245.931 253.484 245.101 253.484 243.994V237.598C253.484 236.458 253.452 235.425 253.387 234.497C253.322 233.569 253.208 232.812 253.045 232.227C252.898 231.624 252.711 231.16 252.483 230.835C252.272 230.493 252.011 230.208 251.702 229.98C251.409 229.736 251.067 229.549 250.677 229.419C250.286 229.272 249.773 229.199 249.139 229.199C248.504 229.199 247.902 229.329 247.332 229.59C246.762 229.834 246.136 230.265 245.452 230.884C244.769 231.502 244.272 232.113 243.963 232.715C243.654 233.317 243.499 234.009 243.499 234.79V243.896C243.499 245.296 243.564 246.273 243.694 246.826C243.825 247.363 244.069 247.778 244.427 248.071C244.801 248.348 245.403 248.592 246.233 248.804V250H236.663V248.804C237.298 248.608 237.745 248.438 238.006 248.291C238.283 248.145 238.51 247.941 238.689 247.681C238.885 247.42 239.031 247.021 239.129 246.484C239.243 245.947 239.3 245.109 239.3 243.97V233.325C239.3 232.284 239.284 231.445 239.251 230.811C239.218 230.176 239.104 229.671 238.909 229.297C238.714 228.906 238.413 228.621 238.006 228.442C237.615 228.247 237.054 228.084 236.321 227.954V226.66L242.034 226.44H243.523L243.255 230.42L243.597 230.518C244.801 229.297 245.77 228.426 246.502 227.905C247.251 227.384 247.999 226.986 248.748 226.709C249.513 226.416 250.319 226.27 251.165 226.27C252.044 226.27 252.825 226.375 253.509 226.587C254.209 226.782 254.819 227.091 255.34 227.515C255.877 227.938 256.316 228.467 256.658 229.102C257 229.72 257.252 230.469 257.415 231.348C257.594 232.227 257.684 233.341 257.684 234.692V243.896C257.684 245.02 257.716 245.833 257.781 246.338C257.846 246.842 257.96 247.233 258.123 247.51C258.286 247.786 258.522 248.022 258.831 248.218C259.14 248.397 259.677 248.592 260.442 248.804V250ZM284.1 245.85C283.058 246.94 282.098 247.795 281.219 248.413C280.356 249.032 279.404 249.52 278.362 249.878C277.321 250.22 276.173 250.391 274.92 250.391C271.567 250.391 269.036 249.39 267.327 247.388C265.618 245.369 264.764 242.399 264.764 238.477C264.764 236.051 265.195 233.911 266.058 232.056C266.937 230.2 268.182 228.768 269.793 227.759C271.404 226.75 273.26 226.245 275.359 226.245C277.003 226.245 278.403 226.506 279.559 227.026C280.714 227.547 281.634 228.263 282.317 229.175C283.017 230.07 283.554 231.209 283.929 232.593C284.319 233.96 284.539 235.75 284.588 237.964H269.207V238.403C269.207 240.324 269.419 241.943 269.842 243.262C270.281 244.564 270.989 245.589 271.966 246.338C272.959 247.07 274.244 247.437 275.823 247.437C277.158 247.437 278.354 247.192 279.412 246.704C280.486 246.2 281.552 245.386 282.61 244.263L284.1 245.85ZM279.998 235.938C279.9 234.18 279.681 232.747 279.339 231.641C278.997 230.518 278.484 229.663 277.801 229.077C277.117 228.475 276.222 228.174 275.115 228.174C273.439 228.174 272.096 228.849 271.087 230.2C270.094 231.535 269.508 233.447 269.329 235.938H279.998ZM295.599 230.713L295.94 230.786C296.836 229.696 297.666 228.841 298.431 228.223C299.196 227.588 300.018 227.1 300.896 226.758C301.792 226.416 302.801 226.245 303.924 226.245C304.868 226.245 305.722 226.294 306.487 226.392V232.007H303.729C303.338 231.128 302.923 230.493 302.483 230.103C302.044 229.696 301.442 229.492 300.677 229.492C300.091 229.492 299.505 229.663 298.919 230.005C298.349 230.347 297.796 230.843 297.259 231.494C296.722 232.145 296.347 232.756 296.136 233.325C295.94 233.895 295.843 234.57 295.843 235.352V243.896C295.843 245.378 295.932 246.403 296.111 246.973C296.29 247.526 296.583 247.933 296.99 248.193C297.413 248.454 298.04 248.657 298.87 248.804V250H289.031V248.804C289.65 248.608 290.089 248.438 290.35 248.291C290.626 248.145 290.862 247.941 291.058 247.681C291.253 247.42 291.399 247.021 291.497 246.484C291.595 245.947 291.644 245.109 291.644 243.97V233.325C291.644 232.284 291.627 231.445 291.595 230.811C291.562 230.176 291.448 229.671 291.253 229.297C291.058 228.906 290.757 228.621 290.35 228.442C289.959 228.247 289.397 228.084 288.665 227.954V226.685L294.378 226.44H295.867L295.599 230.713ZM331.268 229.126L326.751 228.955L326.531 229.224C327.036 229.728 327.435 230.42 327.728 231.299C328.021 232.161 328.167 233.097 328.167 234.106C328.167 236.759 327.345 238.81 325.701 240.259C324.074 241.691 321.754 242.407 318.743 242.407C317.392 242.407 316.229 242.236 315.252 241.895C314.015 242.839 313.396 243.766 313.396 244.678C313.396 245.28 313.51 245.736 313.738 246.045C313.982 246.354 314.373 246.574 314.91 246.704C315.464 246.834 316.294 246.899 317.4 246.899H323.26C324.985 246.899 326.393 247.168 327.483 247.705C328.574 248.242 329.347 248.966 329.803 249.878C330.275 250.773 330.511 251.823 330.511 253.027C330.511 254.557 330.071 255.916 329.192 257.104C328.313 258.309 327.044 259.245 325.384 259.912C323.724 260.579 321.787 260.913 319.573 260.913C317.929 260.913 316.424 260.815 315.057 260.62C313.706 260.425 312.542 260.091 311.565 259.619C310.605 259.163 309.856 258.553 309.319 257.788C308.799 257.039 308.538 256.095 308.538 254.956C308.538 253.931 308.88 252.995 309.563 252.148C310.247 251.318 311.215 250.586 312.469 249.951C311.704 249.642 311.102 249.186 310.662 248.584C310.223 247.982 310.003 247.274 310.003 246.46C310.003 245.532 310.263 244.686 310.784 243.921C311.305 243.14 312.225 242.253 313.543 241.26C312.371 240.576 311.476 239.648 310.857 238.477C310.255 237.305 309.954 235.97 309.954 234.473C309.954 233.073 310.182 231.86 310.638 230.835C311.11 229.793 311.753 228.939 312.566 228.271C313.396 227.588 314.373 227.083 315.496 226.758C316.619 226.416 317.832 226.245 319.134 226.245C320.306 226.245 321.469 226.383 322.625 226.66H331.268V229.126ZM314.324 234.082C314.324 236.117 314.739 237.687 315.569 238.794C316.399 239.901 317.596 240.454 319.158 240.454C319.988 240.454 320.696 240.299 321.282 239.99C321.868 239.665 322.34 239.225 322.698 238.672C323.073 238.118 323.341 237.484 323.504 236.768C323.683 236.035 323.772 235.27 323.772 234.473C323.772 233.04 323.569 231.844 323.162 230.884C322.755 229.924 322.202 229.224 321.502 228.784C320.802 228.328 319.996 228.101 319.085 228.101C317.539 228.101 316.359 228.613 315.545 229.639C314.731 230.664 314.324 232.145 314.324 234.082ZM314.935 250.391C314.104 251.009 313.478 251.66 313.055 252.344C312.648 253.044 312.444 253.833 312.444 254.712C312.444 256.177 313.022 257.251 314.178 257.935C315.35 258.634 317.132 258.984 319.524 258.984C320.989 258.984 322.243 258.789 323.284 258.398C324.342 258.008 325.148 257.446 325.701 256.714C326.255 255.981 326.531 255.127 326.531 254.15C326.531 253.695 326.474 253.247 326.36 252.808C326.246 252.384 326.027 252.002 325.701 251.66C325.392 251.318 324.944 251.042 324.358 250.83C323.772 250.635 323.007 250.537 322.063 250.537H318.426C317.107 250.537 315.944 250.488 314.935 250.391ZM344.402 252.002C343.507 254.02 342.636 255.656 341.79 256.909C340.944 258.162 340.008 259.106 338.982 259.741C337.973 260.376 336.769 260.693 335.369 260.693C334.474 260.693 333.465 260.588 332.342 260.376V255.542H334.515C334.71 256.209 334.954 256.673 335.247 256.934C335.54 257.194 335.963 257.324 336.517 257.324C337.005 257.324 337.436 257.227 337.811 257.031C338.201 256.852 338.6 256.535 339.007 256.079C339.43 255.623 339.918 254.924 340.472 253.979C341.041 253.035 341.676 251.839 342.376 250.391L335.54 232.007C335.101 230.819 334.743 229.989 334.466 229.517C334.205 229.045 333.921 228.687 333.611 228.442C333.302 228.198 332.83 228.003 332.195 227.856V226.66H342.132V227.856C341.367 228.035 340.83 228.215 340.521 228.394C340.211 228.556 339.983 228.776 339.837 229.053C339.69 229.313 339.617 229.655 339.617 230.078C339.617 230.518 339.666 230.973 339.764 231.445C339.878 231.917 340.049 232.471 340.276 233.105L344.622 245.337L349.505 233.618C349.782 232.967 349.993 232.373 350.14 231.836C350.302 231.283 350.384 230.77 350.384 230.298C350.384 229.598 350.188 229.069 349.798 228.711C349.424 228.353 348.764 228.068 347.82 227.856V226.66H356.951V227.856C356.316 227.987 355.828 228.19 355.486 228.467C355.145 228.727 354.803 229.15 354.461 229.736C354.119 230.306 353.712 231.112 353.24 232.153L344.402 252.002Z" fill="#0A6B08"/>
<path d="M416.344 375.878L414.439 376.391L412.657 374.486C411.599 375.137 410.493 375.618 409.337 375.927C408.181 376.236 406.855 376.391 405.357 376.391C401.24 376.391 398.139 374.983 396.056 372.167C393.972 369.335 392.931 365.136 392.931 359.569C392.931 356.103 393.5 353.059 394.64 350.438C395.779 347.818 397.415 345.808 399.547 344.408C401.679 342.992 404.186 342.284 407.066 342.284C408.58 342.284 410.037 342.374 411.437 342.553C412.836 342.715 414.391 343.008 416.1 343.432V350.146H413.683C413.243 348.681 412.722 347.541 412.12 346.728C411.518 345.897 410.794 345.312 409.947 344.97C409.117 344.612 408.059 344.433 406.773 344.433C404.999 344.433 403.445 345.002 402.11 346.142C400.776 347.281 399.734 348.965 398.985 351.195C398.253 353.409 397.887 356.086 397.887 359.228C397.887 362.418 398.196 365.144 398.814 367.406C399.449 369.669 400.385 371.378 401.622 372.533C402.859 373.673 404.381 374.242 406.188 374.242C408.108 374.242 409.532 373.827 410.46 372.997C411.388 372.151 411.852 370.857 411.852 369.115V367.65C411.852 366.186 411.77 365.128 411.607 364.477C411.461 363.826 411.192 363.321 410.802 362.963C410.411 362.605 409.768 362.312 408.873 362.084V360.888H418.736V362.084C418.15 362.279 417.711 362.507 417.418 362.768C417.125 363.012 416.897 363.321 416.734 363.695C416.588 364.07 416.482 364.534 416.417 365.087C416.368 365.624 416.344 366.397 416.344 367.406V375.878ZM429.552 356.713L429.894 356.786C430.789 355.696 431.619 354.841 432.384 354.223C433.149 353.588 433.971 353.1 434.85 352.758C435.745 352.416 436.754 352.245 437.877 352.245C438.821 352.245 439.675 352.294 440.44 352.392V358.007H437.682C437.291 357.128 436.876 356.493 436.437 356.103C435.997 355.696 435.395 355.492 434.63 355.492C434.044 355.492 433.458 355.663 432.872 356.005C432.302 356.347 431.749 356.843 431.212 357.494C430.675 358.145 430.3 358.756 430.089 359.325C429.894 359.895 429.796 360.57 429.796 361.352V369.896C429.796 371.378 429.885 372.403 430.064 372.973C430.243 373.526 430.536 373.933 430.943 374.193C431.367 374.454 431.993 374.657 432.823 374.804V376H422.984V374.804C423.603 374.608 424.042 374.438 424.303 374.291C424.579 374.145 424.815 373.941 425.011 373.681C425.206 373.42 425.353 373.021 425.45 372.484C425.548 371.947 425.597 371.109 425.597 369.97V359.325C425.597 358.284 425.58 357.445 425.548 356.811C425.515 356.176 425.401 355.671 425.206 355.297C425.011 354.906 424.71 354.621 424.303 354.442C423.912 354.247 423.351 354.084 422.618 353.954V352.685L428.331 352.44H429.82L429.552 356.713ZM456.896 372.509L456.529 372.411C455.113 373.86 453.779 374.885 452.525 375.487C451.288 376.09 449.97 376.391 448.57 376.391C447.333 376.391 446.243 376.155 445.299 375.683C444.355 375.194 443.631 374.519 443.126 373.656C442.621 372.777 442.369 371.768 442.369 370.629C442.369 368.253 443.541 366.422 445.885 365.136C448.245 363.834 451.777 363.077 456.48 362.865V361.278C456.48 359.586 456.318 358.251 455.992 357.274C455.667 356.298 455.154 355.582 454.454 355.126C453.754 354.67 452.818 354.442 451.646 354.442C450.377 354.442 449.352 354.776 448.57 355.443C447.805 356.111 447.228 357.112 446.837 358.446H443.639V355.272C445.201 354.459 446.503 353.865 447.545 353.49C448.587 353.1 449.628 352.799 450.67 352.587C451.712 352.359 452.77 352.245 453.844 352.245C455.455 352.245 456.749 352.506 457.726 353.026C458.702 353.531 459.435 354.312 459.923 355.37C460.411 356.428 460.655 358.023 460.655 360.155V368.651C460.655 369.856 460.663 370.71 460.68 371.215C460.696 371.703 460.745 372.159 460.826 372.582C460.908 373.005 461.03 373.347 461.192 373.607C461.355 373.852 461.591 374.063 461.9 374.242C462.226 374.421 462.747 374.608 463.463 374.804V376H456.773L456.896 372.509ZM456.48 364.867C453.176 364.9 450.702 365.339 449.059 366.186C447.415 367.032 446.593 368.31 446.593 370.019C446.593 370.946 446.78 371.679 447.154 372.216C447.529 372.753 448.001 373.127 448.57 373.339C449.14 373.534 449.815 373.632 450.597 373.632C451.703 373.632 452.704 373.363 453.6 372.826C454.511 372.289 455.219 371.605 455.724 370.775C456.228 369.945 456.48 369.123 456.48 368.31V364.867ZM474.278 352.66V353.856C473.53 354.035 473.001 354.206 472.691 354.369C472.382 354.532 472.146 354.743 471.983 355.004C471.837 355.264 471.764 355.614 471.764 356.054C471.764 356.493 471.812 356.957 471.91 357.445C472.024 357.917 472.195 358.471 472.423 359.105L476.671 371.459L481.651 359.618C481.977 358.837 482.205 358.194 482.335 357.689C482.465 357.185 482.53 356.713 482.53 356.273C482.53 355.59 482.343 355.069 481.969 354.711C481.611 354.353 480.943 354.068 479.967 353.856V352.66H489.098V353.856C488.463 353.987 487.975 354.19 487.633 354.467C487.291 354.727 486.949 355.15 486.607 355.736C486.266 356.306 485.859 357.112 485.387 358.153L477.159 376.244H474.278L467.662 358.007C467.206 356.754 466.84 355.899 466.563 355.443C466.303 354.971 466.01 354.621 465.685 354.394C465.375 354.166 464.92 353.987 464.317 353.856V352.66H474.278ZM498.399 343.09V347.826H493.907V343.09H498.399ZM491.417 374.804C492.052 374.608 492.499 374.438 492.76 374.291C493.036 374.145 493.264 373.941 493.443 373.681C493.639 373.42 493.785 373.021 493.883 372.484C493.997 371.947 494.054 371.109 494.054 369.97V359.325C494.054 358.284 494.037 357.445 494.005 356.811C493.972 356.176 493.858 355.671 493.663 355.297C493.468 354.906 493.167 354.621 492.76 354.442C492.369 354.247 491.808 354.084 491.075 353.954V352.66L496.764 352.44H498.253V369.896C498.253 371.296 498.318 372.273 498.448 372.826C498.578 373.363 498.823 373.778 499.181 374.071C499.555 374.348 500.157 374.592 500.987 374.804V376H491.417V374.804ZM503.868 353.881C504.682 353.751 505.341 353.523 505.846 353.197C506.35 352.872 506.741 352.457 507.018 351.952C507.311 351.431 507.538 350.788 507.701 350.023C507.864 349.242 508.035 348.111 508.214 346.63H511.681V352.66H519.566V355.126H511.681V365.99C511.681 367.569 511.746 368.83 511.876 369.774C512.006 370.702 512.25 371.435 512.608 371.972C512.966 372.493 513.373 372.867 513.829 373.095C514.285 373.323 514.871 373.437 515.587 373.437C516.238 373.437 516.848 373.306 517.418 373.046C517.988 372.769 518.549 372.379 519.103 371.874L520.201 373.192C519.046 374.315 517.947 375.129 516.905 375.634C515.88 376.138 514.814 376.391 513.707 376.391C511.607 376.391 510.045 375.772 509.02 374.535C507.994 373.282 507.481 371.329 507.481 368.676V355.126H503.868V353.881ZM536.388 372.509L536.021 372.411C534.605 373.86 533.271 374.885 532.018 375.487C530.781 376.09 529.462 376.391 528.062 376.391C526.826 376.391 525.735 376.155 524.791 375.683C523.847 375.194 523.123 374.519 522.618 373.656C522.114 372.777 521.861 371.768 521.861 370.629C521.861 368.253 523.033 366.422 525.377 365.136C527.737 363.834 531.269 363.077 535.973 362.865V361.278C535.973 359.586 535.81 358.251 535.484 357.274C535.159 356.298 534.646 355.582 533.946 355.126C533.246 354.67 532.311 354.442 531.139 354.442C529.869 354.442 528.844 354.776 528.062 355.443C527.298 356.111 526.72 357.112 526.329 358.446H523.131V355.272C524.693 354.459 525.995 353.865 527.037 353.49C528.079 353.1 529.12 352.799 530.162 352.587C531.204 352.359 532.262 352.245 533.336 352.245C534.947 352.245 536.241 352.506 537.218 353.026C538.194 353.531 538.927 354.312 539.415 355.37C539.903 356.428 540.147 358.023 540.147 360.155V368.651C540.147 369.856 540.156 370.71 540.172 371.215C540.188 371.703 540.237 372.159 540.318 372.582C540.4 373.005 540.522 373.347 540.685 373.607C540.847 373.852 541.083 374.063 541.393 374.242C541.718 374.421 542.239 374.608 542.955 374.804V376H536.266L536.388 372.509ZM535.973 364.867C532.669 364.9 530.195 365.339 528.551 366.186C526.907 367.032 526.085 368.31 526.085 370.019C526.085 370.946 526.272 371.679 526.646 372.216C527.021 372.753 527.493 373.127 528.062 373.339C528.632 373.534 529.308 373.632 530.089 373.632C531.196 373.632 532.197 373.363 533.092 372.826C534.003 372.289 534.711 371.605 535.216 370.775C535.72 369.945 535.973 369.123 535.973 368.31V364.867ZM545.226 353.881C546.039 353.751 546.699 353.523 547.203 353.197C547.708 352.872 548.098 352.457 548.375 351.952C548.668 351.431 548.896 350.788 549.059 350.023C549.221 349.242 549.392 348.111 549.571 346.63H553.038V352.66H560.924V355.126H553.038V365.99C553.038 367.569 553.103 368.83 553.233 369.774C553.364 370.702 553.608 371.435 553.966 371.972C554.324 372.493 554.731 372.867 555.187 373.095C555.642 373.323 556.228 373.437 556.944 373.437C557.595 373.437 558.206 373.306 558.775 373.046C559.345 372.769 559.907 372.379 560.46 371.874L561.559 373.192C560.403 374.315 559.304 375.129 558.263 375.634C557.237 376.138 556.171 376.391 555.064 376.391C552.965 376.391 551.402 375.772 550.377 374.535C549.352 373.282 548.839 371.329 548.839 368.676V355.126H545.226V353.881ZM570.616 343.09V347.826H566.124V343.09H570.616ZM563.634 374.804C564.269 374.608 564.716 374.438 564.977 374.291C565.253 374.145 565.481 373.941 565.66 373.681C565.855 373.42 566.002 373.021 566.1 372.484C566.214 371.947 566.271 371.109 566.271 369.97V359.325C566.271 358.284 566.254 357.445 566.222 356.811C566.189 356.176 566.075 355.671 565.88 355.297C565.685 354.906 565.383 354.621 564.977 354.442C564.586 354.247 564.024 354.084 563.292 353.954V352.66L568.98 352.44H570.47V369.896C570.47 371.296 570.535 372.273 570.665 372.826C570.795 373.363 571.039 373.778 571.397 374.071C571.772 374.348 572.374 374.592 573.204 374.804V376H563.634V374.804ZM588.17 376.391C584.785 376.391 582.197 375.398 580.406 373.412C578.632 371.41 577.745 368.456 577.745 364.55C577.745 361.864 578.209 359.594 579.137 357.738C580.081 355.883 581.367 354.507 582.994 353.612C584.622 352.701 586.477 352.245 588.561 352.245C592.044 352.245 594.68 353.262 596.471 355.297C598.261 357.315 599.156 360.22 599.156 364.013C599.156 366.715 598.709 368.993 597.813 370.849C596.918 372.704 595.649 374.096 594.005 375.023C592.361 375.935 590.416 376.391 588.17 376.391ZM582.359 364.037C582.359 367.39 582.888 369.97 583.946 371.776C585.021 373.567 586.55 374.462 588.536 374.462C589.627 374.462 590.554 374.201 591.319 373.681C592.084 373.144 592.703 372.427 593.175 371.532C593.663 370.637 594.013 369.604 594.225 368.432C594.436 367.243 594.542 366.007 594.542 364.721C594.542 362.328 594.273 360.342 593.736 358.764C593.215 357.185 592.499 356.029 591.588 355.297C590.676 354.548 589.635 354.174 588.463 354.174C586.493 354.174 584.98 355.028 583.922 356.737C582.88 358.446 582.359 360.88 582.359 364.037ZM627.892 376H618.272V374.804C618.907 374.608 619.363 374.438 619.64 374.291C619.916 374.145 620.144 373.941 620.323 373.681C620.519 373.42 620.665 373.021 620.763 372.484C620.877 371.931 620.934 371.101 620.934 369.994V363.598C620.934 362.458 620.901 361.425 620.836 360.497C620.771 359.569 620.657 358.812 620.494 358.227C620.348 357.624 620.16 357.16 619.933 356.835C619.721 356.493 619.461 356.208 619.151 355.98C618.858 355.736 618.517 355.549 618.126 355.419C617.735 355.272 617.223 355.199 616.588 355.199C615.953 355.199 615.351 355.329 614.781 355.59C614.212 355.834 613.585 356.265 612.901 356.884C612.218 357.502 611.721 358.113 611.412 358.715C611.103 359.317 610.948 360.009 610.948 360.79V369.896C610.948 371.296 611.013 372.273 611.144 372.826C611.274 373.363 611.518 373.778 611.876 374.071C612.25 374.348 612.853 374.592 613.683 374.804V376H604.112V374.804C604.747 374.608 605.195 374.438 605.455 374.291C605.732 374.145 605.96 373.941 606.139 373.681C606.334 373.42 606.48 373.021 606.578 372.484C606.692 371.947 606.749 371.109 606.749 369.97V359.325C606.749 358.284 606.733 357.445 606.7 356.811C606.668 356.176 606.554 355.671 606.358 355.297C606.163 354.906 605.862 354.621 605.455 354.442C605.064 354.247 604.503 354.084 603.771 353.954V352.66L609.483 352.44H610.973L610.704 356.42L611.046 356.518C612.25 355.297 613.219 354.426 613.951 353.905C614.7 353.384 615.449 352.986 616.197 352.709C616.962 352.416 617.768 352.27 618.614 352.27C619.493 352.27 620.274 352.375 620.958 352.587C621.658 352.782 622.268 353.091 622.789 353.515C623.326 353.938 623.766 354.467 624.107 355.102C624.449 355.72 624.701 356.469 624.864 357.348C625.043 358.227 625.133 359.341 625.133 360.692V369.896C625.133 371.02 625.165 371.833 625.23 372.338C625.296 372.842 625.41 373.233 625.572 373.51C625.735 373.786 625.971 374.022 626.28 374.218C626.59 374.397 627.127 374.592 627.892 374.804V376ZM646.153 372.509L645.787 372.411C644.371 373.86 643.036 374.885 641.783 375.487C640.546 376.09 639.228 376.391 637.828 376.391C636.591 376.391 635.501 376.155 634.557 375.683C633.613 375.194 632.888 374.519 632.384 373.656C631.879 372.777 631.627 371.768 631.627 370.629C631.627 368.253 632.799 366.422 635.143 365.136C637.503 363.834 641.035 363.077 645.738 362.865V361.278C645.738 359.586 645.576 358.251 645.25 357.274C644.924 356.298 644.412 355.582 643.712 355.126C643.012 354.67 642.076 354.442 640.904 354.442C639.635 354.442 638.609 354.776 637.828 355.443C637.063 356.111 636.485 357.112 636.095 358.446H632.896V355.272C634.459 354.459 635.761 353.865 636.803 353.49C637.844 353.1 638.886 352.799 639.928 352.587C640.969 352.359 642.027 352.245 643.102 352.245C644.713 352.245 646.007 352.506 646.983 353.026C647.96 353.531 648.692 354.312 649.181 355.37C649.669 356.428 649.913 358.023 649.913 360.155V368.651C649.913 369.856 649.921 370.71 649.938 371.215C649.954 371.703 650.003 372.159 650.084 372.582C650.165 373.005 650.287 373.347 650.45 373.607C650.613 373.852 650.849 374.063 651.158 374.242C651.484 374.421 652.005 374.608 652.721 374.804V376H646.031L646.153 372.509ZM645.738 364.867C642.434 364.9 639.96 365.339 638.316 366.186C636.673 367.032 635.851 368.31 635.851 370.019C635.851 370.946 636.038 371.679 636.412 372.216C636.786 372.753 637.258 373.127 637.828 373.339C638.398 373.534 639.073 373.632 639.854 373.632C640.961 373.632 641.962 373.363 642.857 372.826C643.769 372.289 644.477 371.605 644.981 370.775C645.486 369.945 645.738 369.123 645.738 368.31V364.867ZM662.975 369.896C662.975 371.296 663.04 372.273 663.17 372.826C663.3 373.363 663.544 373.778 663.902 374.071C664.277 374.348 664.879 374.592 665.709 374.804V376H656.017V374.804C656.83 374.592 657.392 374.372 657.701 374.145C658.027 373.917 658.255 373.648 658.385 373.339C658.531 373.013 658.629 372.582 658.678 372.045C658.743 371.492 658.775 370.775 658.775 369.896V349.462C658.775 347.899 658.759 346.809 658.727 346.19C658.71 345.572 658.645 345.051 658.531 344.628C658.434 344.188 658.287 343.847 658.092 343.603C657.913 343.358 657.66 343.163 657.335 343.017C657.026 342.87 656.456 342.724 655.626 342.577V341.308L661.51 341.063H662.975V369.896ZM699.254 353.222V358.324H696.153C695.877 357.266 695.535 356.436 695.128 355.834C694.721 355.215 694.249 354.784 693.712 354.54C693.175 354.296 692.507 354.174 691.71 354.174C690.571 354.174 689.562 354.54 688.683 355.272C687.804 356.005 687.104 357.12 686.583 358.617C686.078 360.115 685.826 361.946 685.826 364.11C685.826 365.494 685.924 366.763 686.119 367.919C686.314 369.058 686.648 370.035 687.12 370.849C687.592 371.662 688.219 372.297 689 372.753C689.781 373.209 690.75 373.437 691.905 373.437C693.028 373.437 694.07 373.217 695.03 372.777C696.007 372.338 697.016 371.565 698.058 370.458L699.449 372.069C698.619 372.981 697.887 373.689 697.252 374.193C696.617 374.682 695.934 375.097 695.201 375.438C694.485 375.764 693.769 376 693.053 376.146C692.353 376.309 691.588 376.391 690.758 376.391C687.682 376.391 685.33 375.373 683.702 373.339C682.075 371.288 681.261 368.334 681.261 364.477C681.261 362.068 681.716 359.936 682.628 358.08C683.539 356.208 684.817 354.768 686.461 353.759C688.105 352.75 690.001 352.245 692.149 352.245C693.484 352.245 694.713 352.326 695.836 352.489C696.975 352.636 698.115 352.88 699.254 353.222ZM713.756 376.391C710.37 376.391 707.783 375.398 705.992 373.412C704.218 371.41 703.331 368.456 703.331 364.55C703.331 361.864 703.795 359.594 704.723 357.738C705.667 355.883 706.952 354.507 708.58 353.612C710.208 352.701 712.063 352.245 714.146 352.245C717.63 352.245 720.266 353.262 722.057 355.297C723.847 357.315 724.742 360.22 724.742 364.013C724.742 366.715 724.295 368.993 723.399 370.849C722.504 372.704 721.235 374.096 719.591 375.023C717.947 375.935 716.002 376.391 713.756 376.391ZM707.945 364.037C707.945 367.39 708.474 369.97 709.532 371.776C710.606 373.567 712.136 374.462 714.122 374.462C715.213 374.462 716.14 374.201 716.905 373.681C717.67 373.144 718.289 372.427 718.761 371.532C719.249 370.637 719.599 369.604 719.811 368.432C720.022 367.243 720.128 366.007 720.128 364.721C720.128 362.328 719.859 360.342 719.322 358.764C718.801 357.185 718.085 356.029 717.174 355.297C716.262 354.548 715.221 354.174 714.049 354.174C712.079 354.174 710.566 355.028 709.508 356.737C708.466 358.446 707.945 360.88 707.945 364.037ZM753.478 376H743.858V374.804C744.493 374.608 744.949 374.438 745.226 374.291C745.502 374.145 745.73 373.941 745.909 373.681C746.104 373.42 746.251 373.021 746.349 372.484C746.463 371.931 746.52 371.101 746.52 369.994V363.598C746.52 362.458 746.487 361.425 746.422 360.497C746.357 359.569 746.243 358.812 746.08 358.227C745.934 357.624 745.746 357.16 745.519 356.835C745.307 356.493 745.047 356.208 744.737 355.98C744.444 355.736 744.103 355.549 743.712 355.419C743.321 355.272 742.809 355.199 742.174 355.199C741.539 355.199 740.937 355.329 740.367 355.59C739.798 355.834 739.171 356.265 738.487 356.884C737.804 357.502 737.307 358.113 736.998 358.715C736.689 359.317 736.534 360.009 736.534 360.79V369.896C736.534 371.296 736.599 372.273 736.729 372.826C736.86 373.363 737.104 373.778 737.462 374.071C737.836 374.348 738.438 374.592 739.269 374.804V376H729.698V374.804C730.333 374.608 730.781 374.438 731.041 374.291C731.318 374.145 731.546 373.941 731.725 373.681C731.92 373.42 732.066 373.021 732.164 372.484C732.278 371.947 732.335 371.109 732.335 369.97V359.325C732.335 358.284 732.319 357.445 732.286 356.811C732.254 356.176 732.14 355.671 731.944 355.297C731.749 354.906 731.448 354.621 731.041 354.442C730.65 354.247 730.089 354.084 729.356 353.954V352.66L735.069 352.44H736.559L736.29 356.42L736.632 356.518C737.836 355.297 738.805 354.426 739.537 353.905C740.286 353.384 741.035 352.986 741.783 352.709C742.548 352.416 743.354 352.27 744.2 352.27C745.079 352.27 745.86 352.375 746.544 352.587C747.244 352.782 747.854 353.091 748.375 353.515C748.912 353.938 749.352 354.467 749.693 355.102C750.035 355.72 750.287 356.469 750.45 357.348C750.629 358.227 750.719 359.341 750.719 360.692V369.896C750.719 371.02 750.751 371.833 750.816 372.338C750.882 372.842 750.995 373.233 751.158 373.51C751.321 373.786 751.557 374.022 751.866 374.218C752.175 374.397 752.713 374.592 753.478 374.804V376ZM773.985 358.007H771.642C771.284 357.03 770.86 356.265 770.372 355.712C769.884 355.142 769.33 354.743 768.712 354.516C768.093 354.288 767.337 354.174 766.441 354.174C765.139 354.174 764.098 354.483 763.316 355.102C762.551 355.704 762.169 356.534 762.169 357.592C762.169 358.34 762.324 358.959 762.633 359.447C762.942 359.936 763.422 360.391 764.073 360.814C764.724 361.238 765.872 361.799 767.516 362.499C769.176 363.215 770.453 363.874 771.349 364.477C772.26 365.079 772.968 365.779 773.473 366.576C773.993 367.374 774.254 368.326 774.254 369.433C774.254 370.718 774.034 371.801 773.595 372.68C773.155 373.559 772.537 374.275 771.739 374.828C770.942 375.382 769.99 375.78 768.883 376.024C767.792 376.269 766.596 376.391 765.294 376.391C763.927 376.391 762.6 376.285 761.314 376.073C760.029 375.878 758.775 375.618 757.555 375.292V370.189H759.947C760.387 371.687 761.038 372.777 761.9 373.461C762.763 374.128 763.951 374.462 765.465 374.462C766.051 374.462 766.62 374.405 767.174 374.291C767.743 374.161 768.248 373.957 768.688 373.681C769.127 373.388 769.477 372.997 769.737 372.509C769.998 372.021 770.128 371.41 770.128 370.678C770.128 369.848 769.965 369.172 769.64 368.651C769.314 368.131 768.81 367.659 768.126 367.235C767.442 366.796 766.238 366.21 764.513 365.478C763.032 364.859 761.843 364.257 760.948 363.671C760.053 363.085 759.345 362.393 758.824 361.596C758.32 360.798 758.067 359.854 758.067 358.764C758.067 357.429 758.425 356.273 759.142 355.297C759.874 354.304 760.924 353.547 762.291 353.026C763.658 352.506 765.261 352.245 767.101 352.245C768.175 352.245 769.208 352.302 770.201 352.416C771.21 352.514 772.472 352.717 773.985 353.026V358.007ZM777.647 353.881C778.461 353.751 779.12 353.523 779.625 353.197C780.13 352.872 780.52 352.457 780.797 351.952C781.09 351.431 781.318 350.788 781.48 350.023C781.643 349.242 781.814 348.111 781.993 346.63H785.46V352.66H793.346V355.126H785.46V365.99C785.46 367.569 785.525 368.83 785.655 369.774C785.785 370.702 786.03 371.435 786.388 371.972C786.746 372.493 787.153 372.867 787.608 373.095C788.064 373.323 788.65 373.437 789.366 373.437C790.017 373.437 790.628 373.306 791.197 373.046C791.767 372.769 792.328 372.379 792.882 371.874L793.98 373.192C792.825 374.315 791.726 375.129 790.685 375.634C789.659 376.138 788.593 376.391 787.486 376.391C785.387 376.391 783.824 375.772 782.799 374.535C781.773 373.282 781.261 371.329 781.261 368.676V355.126H777.647V353.881ZM810.167 372.509L809.801 372.411C808.385 373.86 807.05 374.885 805.797 375.487C804.56 376.09 803.242 376.391 801.842 376.391C800.605 376.391 799.514 376.155 798.57 375.683C797.626 375.194 796.902 374.519 796.397 373.656C795.893 372.777 795.641 371.768 795.641 370.629C795.641 368.253 796.812 366.422 799.156 365.136C801.516 363.834 805.048 363.077 809.752 362.865V361.278C809.752 359.586 809.589 358.251 809.264 357.274C808.938 356.298 808.425 355.582 807.726 355.126C807.026 354.67 806.09 354.442 804.918 354.442C803.648 354.442 802.623 354.776 801.842 355.443C801.077 356.111 800.499 357.112 800.108 358.446H796.91V355.272C798.473 354.459 799.775 353.865 800.816 353.49C801.858 353.1 802.9 352.799 803.941 352.587C804.983 352.359 806.041 352.245 807.115 352.245C808.727 352.245 810.021 352.506 810.997 353.026C811.974 353.531 812.706 354.312 813.194 355.37C813.683 356.428 813.927 358.023 813.927 360.155V368.651C813.927 369.856 813.935 370.71 813.951 371.215C813.967 371.703 814.016 372.159 814.098 372.582C814.179 373.005 814.301 373.347 814.464 373.607C814.627 373.852 814.863 374.063 815.172 374.242C815.497 374.421 816.018 374.608 816.734 374.804V376H810.045L810.167 372.509ZM809.752 364.867C806.448 364.9 803.974 365.339 802.33 366.186C800.686 367.032 799.864 368.31 799.864 370.019C799.864 370.946 800.051 371.679 800.426 372.216C800.8 372.753 801.272 373.127 801.842 373.339C802.411 373.534 803.087 373.632 803.868 373.632C804.975 373.632 805.976 373.363 806.871 372.826C807.783 372.289 808.491 371.605 808.995 370.775C809.5 369.945 809.752 369.123 809.752 368.31V364.867ZM844.249 376H834.63V374.804C835.265 374.608 835.72 374.438 835.997 374.291C836.274 374.145 836.502 373.941 836.681 373.681C836.876 373.42 837.022 373.021 837.12 372.484C837.234 371.931 837.291 371.101 837.291 369.994V363.598C837.291 362.458 837.258 361.425 837.193 360.497C837.128 359.569 837.014 358.812 836.852 358.227C836.705 357.624 836.518 357.16 836.29 356.835C836.078 356.493 835.818 356.208 835.509 355.98C835.216 355.736 834.874 355.549 834.483 355.419C834.093 355.272 833.58 355.199 832.945 355.199C832.311 355.199 831.708 355.329 831.139 355.59C830.569 355.834 829.942 356.265 829.259 356.884C828.575 357.502 828.079 358.113 827.77 358.715C827.46 359.317 827.306 360.009 827.306 360.79V369.896C827.306 371.296 827.371 372.273 827.501 372.826C827.631 373.363 827.875 373.778 828.233 374.071C828.608 374.348 829.21 374.592 830.04 374.804V376H820.47V374.804C821.104 374.608 821.552 374.438 821.812 374.291C822.089 374.145 822.317 373.941 822.496 373.681C822.691 373.42 822.838 373.021 822.936 372.484C823.049 371.947 823.106 371.109 823.106 369.97V359.325C823.106 358.284 823.09 357.445 823.058 356.811C823.025 356.176 822.911 355.671 822.716 355.297C822.521 354.906 822.219 354.621 821.812 354.442C821.422 354.247 820.86 354.084 820.128 353.954V352.66L825.841 352.44H827.33L827.062 356.42L827.403 356.518C828.608 355.297 829.576 354.426 830.309 353.905C831.057 353.384 831.806 352.986 832.555 352.709C833.32 352.416 834.125 352.27 834.972 352.27C835.851 352.27 836.632 352.375 837.315 352.587C838.015 352.782 838.626 353.091 839.146 353.515C839.684 353.938 840.123 354.467 840.465 355.102C840.807 355.72 841.059 356.469 841.222 357.348C841.401 358.227 841.49 359.341 841.49 360.692V369.896C841.49 371.02 841.523 371.833 841.588 372.338C841.653 372.842 841.767 373.233 841.93 373.51C842.092 373.786 842.328 374.022 842.638 374.218C842.947 374.397 843.484 374.592 844.249 374.804V376ZM846.935 353.881C847.748 353.751 848.408 353.523 848.912 353.197C849.417 352.872 849.807 352.457 850.084 351.952C850.377 351.431 850.605 350.788 850.768 350.023C850.93 349.242 851.101 348.111 851.28 346.63H854.747V352.66H862.633V355.126H854.747V365.99C854.747 367.569 854.812 368.83 854.942 369.774C855.073 370.702 855.317 371.435 855.675 371.972C856.033 372.493 856.44 372.867 856.896 373.095C857.351 373.323 857.937 373.437 858.653 373.437C859.304 373.437 859.915 373.306 860.484 373.046C861.054 372.769 861.616 372.379 862.169 371.874L863.268 373.192C862.112 374.315 861.013 375.129 859.972 375.634C858.946 376.138 857.88 376.391 856.773 376.391C854.674 376.391 853.111 375.772 852.086 374.535C851.061 373.282 850.548 371.329 850.548 368.676V355.126H846.935V353.881Z" fill="#2BD700"/>
<path d="M197.509 282.871C196.793 283.05 196.272 283.229 195.946 283.408C195.637 283.587 195.385 283.815 195.189 284.092C195.01 284.352 194.872 284.751 194.774 285.288C194.693 285.825 194.652 286.655 194.652 287.778V308.896C194.652 309.987 194.685 310.785 194.75 311.289C194.831 311.794 194.953 312.192 195.116 312.485C195.295 312.778 195.548 313.022 195.873 313.218C196.215 313.413 196.76 313.608 197.509 313.804V315H187.328V313.804C188.256 313.576 188.899 313.315 189.257 313.022C189.615 312.729 189.859 312.298 189.989 311.729C190.119 311.159 190.185 310.215 190.185 308.896V299.546C190.185 297.088 190.217 294.606 190.282 292.1C190.364 289.577 190.453 287.852 190.551 286.924H190.136L180.468 311.118H177.66L168.676 286.533H168.261C168.342 287.526 168.415 289.325 168.48 291.929C168.562 294.533 168.603 297.21 168.603 299.961V308.896C168.603 309.987 168.635 310.785 168.7 311.289C168.782 311.794 168.904 312.192 169.066 312.485C169.245 312.778 169.498 313.022 169.823 313.218C170.165 313.413 170.71 313.608 171.459 313.804V315H162.548V313.804C163.557 313.543 164.232 313.258 164.574 312.949C164.916 312.624 165.136 312.168 165.233 311.582C165.347 310.996 165.404 310.101 165.404 308.896V287.778C165.404 286.655 165.364 285.841 165.282 285.337C165.201 284.816 165.062 284.417 164.867 284.141C164.688 283.848 164.444 283.62 164.135 283.457C163.826 283.278 163.297 283.083 162.548 282.871V281.675H171.264L179.833 305.43L189.257 281.675H197.509V282.871ZM216.942 311.509L216.576 311.411C215.16 312.86 213.826 313.885 212.572 314.487C211.335 315.09 210.017 315.391 208.617 315.391C207.38 315.391 206.29 315.155 205.346 314.683C204.402 314.194 203.677 313.519 203.173 312.656C202.668 311.777 202.416 310.768 202.416 309.629C202.416 307.253 203.588 305.422 205.932 304.136C208.292 302.834 211.824 302.077 216.527 301.865V300.278C216.527 298.586 216.365 297.251 216.039 296.274C215.714 295.298 215.201 294.582 214.501 294.126C213.801 293.67 212.865 293.442 211.693 293.442C210.424 293.442 209.398 293.776 208.617 294.443C207.852 295.111 207.274 296.112 206.884 297.446H203.686V294.272C205.248 293.459 206.55 292.865 207.592 292.49C208.633 292.1 209.675 291.799 210.717 291.587C211.758 291.359 212.816 291.245 213.891 291.245C215.502 291.245 216.796 291.506 217.772 292.026C218.749 292.531 219.481 293.312 219.97 294.37C220.458 295.428 220.702 297.023 220.702 299.155V307.651C220.702 308.856 220.71 309.71 220.727 310.215C220.743 310.703 220.792 311.159 220.873 311.582C220.954 312.005 221.076 312.347 221.239 312.607C221.402 312.852 221.638 313.063 221.947 313.242C222.273 313.421 222.794 313.608 223.51 313.804V315H216.82L216.942 311.509ZM216.527 303.867C213.223 303.9 210.749 304.339 209.105 305.186C207.462 306.032 206.64 307.31 206.64 309.019C206.64 309.946 206.827 310.679 207.201 311.216C207.576 311.753 208.048 312.127 208.617 312.339C209.187 312.534 209.862 312.632 210.644 312.632C211.75 312.632 212.751 312.363 213.646 311.826C214.558 311.289 215.266 310.605 215.771 309.775C216.275 308.945 216.527 308.123 216.527 307.31V303.867ZM243.603 297.007H241.259C240.901 296.03 240.478 295.265 239.989 294.712C239.501 294.142 238.948 293.743 238.329 293.516C237.711 293.288 236.954 293.174 236.059 293.174C234.757 293.174 233.715 293.483 232.934 294.102C232.169 294.704 231.786 295.534 231.786 296.592C231.786 297.34 231.941 297.959 232.25 298.447C232.559 298.936 233.039 299.391 233.69 299.814C234.341 300.238 235.489 300.799 237.133 301.499C238.793 302.215 240.071 302.874 240.966 303.477C241.877 304.079 242.585 304.779 243.09 305.576C243.611 306.374 243.871 307.326 243.871 308.433C243.871 309.718 243.651 310.801 243.212 311.68C242.772 312.559 242.154 313.275 241.356 313.828C240.559 314.382 239.607 314.78 238.5 315.024C237.41 315.269 236.213 315.391 234.911 315.391C233.544 315.391 232.217 315.285 230.932 315.073C229.646 314.878 228.393 314.618 227.172 314.292V309.189H229.564C230.004 310.687 230.655 311.777 231.518 312.461C232.38 313.128 233.568 313.462 235.082 313.462C235.668 313.462 236.238 313.405 236.791 313.291C237.361 313.161 237.865 312.957 238.305 312.681C238.744 312.388 239.094 311.997 239.354 311.509C239.615 311.021 239.745 310.41 239.745 309.678C239.745 308.848 239.582 308.172 239.257 307.651C238.931 307.131 238.427 306.659 237.743 306.235C237.06 305.796 235.855 305.21 234.13 304.478C232.649 303.859 231.461 303.257 230.565 302.671C229.67 302.085 228.962 301.393 228.441 300.596C227.937 299.798 227.685 298.854 227.685 297.764C227.685 296.429 228.043 295.273 228.759 294.297C229.491 293.304 230.541 292.547 231.908 292.026C233.275 291.506 234.879 291.245 236.718 291.245C237.792 291.245 238.826 291.302 239.818 291.416C240.827 291.514 242.089 291.717 243.603 292.026V297.007ZM265.087 297.007H262.743C262.385 296.03 261.962 295.265 261.474 294.712C260.985 294.142 260.432 293.743 259.813 293.516C259.195 293.288 258.438 293.174 257.543 293.174C256.241 293.174 255.199 293.483 254.418 294.102C253.653 294.704 253.271 295.534 253.271 296.592C253.271 297.34 253.425 297.959 253.734 298.447C254.044 298.936 254.524 299.391 255.175 299.814C255.826 300.238 256.973 300.799 258.617 301.499C260.277 302.215 261.555 302.874 262.45 303.477C263.362 304.079 264.07 304.779 264.574 305.576C265.095 306.374 265.355 307.326 265.355 308.433C265.355 309.718 265.136 310.801 264.696 311.68C264.257 312.559 263.638 313.275 262.841 313.828C262.043 314.382 261.091 314.78 259.984 315.024C258.894 315.269 257.698 315.391 256.396 315.391C255.028 315.391 253.702 315.285 252.416 315.073C251.13 314.878 249.877 314.618 248.656 314.292V309.189H251.049C251.488 310.687 252.139 311.777 253.002 312.461C253.865 313.128 255.053 313.462 256.566 313.462C257.152 313.462 257.722 313.405 258.275 313.291C258.845 313.161 259.35 312.957 259.789 312.681C260.229 312.388 260.578 311.997 260.839 311.509C261.099 311.021 261.229 310.41 261.229 309.678C261.229 308.848 261.067 308.172 260.741 307.651C260.416 307.131 259.911 306.659 259.228 306.235C258.544 305.796 257.34 305.21 255.614 304.478C254.133 303.859 252.945 303.257 252.05 302.671C251.155 302.085 250.447 301.393 249.926 300.596C249.421 299.798 249.169 298.854 249.169 297.764C249.169 296.429 249.527 295.273 250.243 294.297C250.976 293.304 252.025 292.547 253.393 292.026C254.76 291.506 256.363 291.245 258.202 291.245C259.276 291.245 260.31 291.302 261.303 291.416C262.312 291.514 263.573 291.717 265.087 292.026V297.007ZM291.869 315.391C288.484 315.391 285.896 314.398 284.105 312.412C282.331 310.41 281.444 307.456 281.444 303.55C281.444 300.864 281.908 298.594 282.836 296.738C283.78 294.883 285.066 293.507 286.693 292.612C288.321 291.701 290.176 291.245 292.26 291.245C295.743 291.245 298.38 292.262 300.17 294.297C301.96 296.315 302.855 299.22 302.855 303.013C302.855 305.715 302.408 307.993 301.513 309.849C300.618 311.704 299.348 313.096 297.704 314.023C296.06 314.935 294.115 315.391 291.869 315.391ZM286.059 303.037C286.059 306.39 286.588 308.97 287.646 310.776C288.72 312.567 290.25 313.462 292.235 313.462C293.326 313.462 294.254 313.201 295.019 312.681C295.784 312.144 296.402 311.427 296.874 310.532C297.362 309.637 297.712 308.604 297.924 307.432C298.135 306.243 298.241 305.007 298.241 303.721C298.241 301.328 297.973 299.342 297.436 297.764C296.915 296.185 296.199 295.029 295.287 294.297C294.376 293.548 293.334 293.174 292.162 293.174C290.193 293.174 288.679 294.028 287.621 295.737C286.579 297.446 286.059 299.88 286.059 303.037ZM320.36 294.126H314.525V308.896C314.525 309.987 314.574 310.809 314.672 311.362C314.786 311.916 314.94 312.339 315.136 312.632C315.347 312.909 315.616 313.136 315.941 313.315C316.283 313.478 316.82 313.641 317.553 313.804V315H307.567V313.804C308.284 313.608 308.796 313.421 309.105 313.242C309.415 313.063 309.651 312.835 309.813 312.559C309.993 312.282 310.123 311.883 310.204 311.362C310.285 310.841 310.326 310.02 310.326 308.896V294.126H307.372V292.881C307.991 292.783 308.397 292.71 308.593 292.661C308.804 292.596 309 292.507 309.179 292.393C309.374 292.279 309.537 292.116 309.667 291.904C309.813 291.693 309.936 291.383 310.033 290.977C310.147 290.553 310.237 289.967 310.302 289.219C310.448 287.445 310.766 286.004 311.254 284.897C311.758 283.791 312.483 282.847 313.427 282.065C314.387 281.284 315.404 280.739 316.479 280.43C317.569 280.104 318.847 279.941 320.312 279.941C321.597 279.941 322.688 280.031 323.583 280.21V284.629H321.166C320.857 283.669 320.491 282.993 320.067 282.603C319.66 282.196 319.083 281.992 318.334 281.992C317.797 281.992 317.341 282.065 316.967 282.212C316.609 282.358 316.275 282.586 315.966 282.896C315.657 283.205 315.388 283.62 315.16 284.141C314.949 284.661 314.786 285.312 314.672 286.094C314.574 286.859 314.525 287.86 314.525 289.097V291.66H320.36V294.126ZM332.519 292.881C333.332 292.751 333.992 292.523 334.496 292.197C335.001 291.872 335.391 291.457 335.668 290.952C335.961 290.431 336.189 289.788 336.352 289.023C336.514 288.242 336.685 287.111 336.864 285.63H340.331V291.66H348.217V294.126H340.331V304.99C340.331 306.569 340.396 307.83 340.526 308.774C340.657 309.702 340.901 310.435 341.259 310.972C341.617 311.493 342.024 311.867 342.479 312.095C342.935 312.323 343.521 312.437 344.237 312.437C344.888 312.437 345.499 312.306 346.068 312.046C346.638 311.769 347.2 311.379 347.753 310.874L348.852 312.192C347.696 313.315 346.597 314.129 345.556 314.634C344.53 315.138 343.464 315.391 342.357 315.391C340.258 315.391 338.695 314.772 337.67 313.535C336.645 312.282 336.132 310.329 336.132 307.676V294.126H332.519V292.881ZM357.47 295.493L357.567 295.518C358.837 294.232 359.838 293.337 360.57 292.832C361.319 292.311 362.051 291.921 362.768 291.66C363.5 291.4 364.281 291.27 365.111 291.27C366.007 291.27 366.804 291.375 367.504 291.587C368.204 291.799 368.814 292.124 369.335 292.563C369.872 292.987 370.303 293.516 370.629 294.15C370.971 294.769 371.223 295.518 371.386 296.396C371.549 297.259 371.63 298.358 371.63 299.692V308.896C371.63 310.312 371.687 311.281 371.801 311.802C371.931 312.306 372.151 312.705 372.46 312.998C372.785 313.275 373.428 313.543 374.389 313.804V315H364.77V313.804C365.404 313.608 365.86 313.438 366.137 313.291C366.413 313.145 366.641 312.941 366.82 312.681C367.016 312.42 367.162 312.021 367.26 311.484C367.374 310.931 367.431 310.101 367.431 308.994V302.598C367.431 300.433 367.317 298.781 367.089 297.642C366.877 296.486 366.446 295.623 365.795 295.054C365.16 294.484 364.265 294.199 363.109 294.199C362.458 294.199 361.872 294.313 361.352 294.541C360.831 294.769 360.229 295.176 359.545 295.762C358.861 296.348 358.34 296.95 357.982 297.568C357.641 298.187 357.47 298.846 357.47 299.546V308.896C357.47 310.003 357.494 310.793 357.543 311.265C357.608 311.737 357.722 312.135 357.885 312.461C358.048 312.77 358.292 313.031 358.617 313.242C358.959 313.438 359.48 313.625 360.18 313.804V315H350.512V313.804C351.228 313.608 351.741 313.421 352.05 313.242C352.359 313.063 352.595 312.835 352.758 312.559C352.937 312.282 353.067 311.883 353.148 311.362C353.23 310.841 353.271 310.02 353.271 308.896V288.462C353.271 286.899 353.254 285.809 353.222 285.19C353.205 284.572 353.14 284.051 353.026 283.628C352.929 283.188 352.782 282.847 352.587 282.603C352.408 282.358 352.156 282.163 351.83 282.017C351.521 281.87 350.951 281.724 350.121 281.577V280.308L356.005 280.063H357.47V295.493ZM398.021 310.85C396.98 311.94 396.02 312.795 395.141 313.413C394.278 314.032 393.326 314.52 392.284 314.878C391.243 315.22 390.095 315.391 388.842 315.391C385.489 315.391 382.958 314.39 381.249 312.388C379.54 310.369 378.686 307.399 378.686 303.477C378.686 301.051 379.117 298.911 379.979 297.056C380.858 295.2 382.104 293.768 383.715 292.759C385.326 291.75 387.182 291.245 389.281 291.245C390.925 291.245 392.325 291.506 393.48 292.026C394.636 292.547 395.556 293.263 396.239 294.175C396.939 295.07 397.476 296.209 397.851 297.593C398.241 298.96 398.461 300.75 398.51 302.964H383.129V303.403C383.129 305.324 383.34 306.943 383.764 308.262C384.203 309.564 384.911 310.589 385.888 311.338C386.881 312.07 388.166 312.437 389.745 312.437C391.08 312.437 392.276 312.192 393.334 311.704C394.408 311.2 395.474 310.386 396.532 309.263L398.021 310.85ZM393.92 300.938C393.822 299.18 393.603 297.747 393.261 296.641C392.919 295.518 392.406 294.663 391.723 294.077C391.039 293.475 390.144 293.174 389.037 293.174C387.361 293.174 386.018 293.849 385.009 295.2C384.016 296.535 383.43 298.447 383.251 300.938H393.92ZM424.584 315.391C421.199 315.391 418.611 314.398 416.82 312.412C415.046 310.41 414.159 307.456 414.159 303.55C414.159 300.864 414.623 298.594 415.551 296.738C416.495 294.883 417.781 293.507 419.408 292.612C421.036 291.701 422.891 291.245 424.975 291.245C428.458 291.245 431.094 292.262 432.885 294.297C434.675 296.315 435.57 299.22 435.57 303.013C435.57 305.715 435.123 307.993 434.228 309.849C433.332 311.704 432.063 313.096 430.419 314.023C428.775 314.935 426.83 315.391 424.584 315.391ZM418.773 303.037C418.773 306.39 419.302 308.97 420.36 310.776C421.435 312.567 422.965 313.462 424.95 313.462C426.041 313.462 426.968 313.201 427.733 312.681C428.498 312.144 429.117 311.427 429.589 310.532C430.077 309.637 430.427 308.604 430.639 307.432C430.85 306.243 430.956 305.007 430.956 303.721C430.956 301.328 430.688 299.342 430.15 297.764C429.63 296.185 428.913 295.029 428.002 294.297C427.09 293.548 426.049 293.174 424.877 293.174C422.908 293.174 421.394 294.028 420.336 295.737C419.294 297.446 418.773 299.88 418.773 303.037ZM446.679 295.493L446.776 295.518C447.916 294.329 448.86 293.467 449.608 292.93C450.373 292.393 451.155 291.986 451.952 291.709C452.766 291.416 453.653 291.27 454.613 291.27C456.355 291.27 457.844 291.717 459.081 292.612C460.334 293.491 461.295 294.818 461.962 296.592C462.646 298.366 462.987 300.539 462.987 303.11C462.987 305.763 462.58 308.009 461.767 309.849C460.969 311.672 459.781 313.055 458.202 313.999C456.64 314.927 454.784 315.391 452.636 315.391C451.431 315.391 450.292 315.277 449.218 315.049C448.16 314.837 447.045 314.455 445.873 313.901L444.164 315.391L442.479 315V288.462C442.479 286.899 442.463 285.809 442.431 285.19C442.414 284.572 442.349 284.051 442.235 283.628C442.138 283.188 441.991 282.847 441.796 282.603C441.617 282.358 441.365 282.163 441.039 282.017C440.73 281.87 440.16 281.724 439.33 281.577V280.308L445.238 280.063H446.679V295.493ZM446.679 306.211C446.679 307.464 446.736 308.465 446.85 309.214C446.964 309.946 447.151 310.557 447.411 311.045C447.688 311.533 448.078 311.981 448.583 312.388C449.104 312.795 449.682 313.079 450.316 313.242C450.951 313.389 451.659 313.462 452.44 313.462C454.394 313.462 455.875 312.664 456.884 311.069C457.893 309.474 458.397 307.082 458.397 303.892C458.397 300.669 457.934 298.252 457.006 296.641C456.094 295.013 454.711 294.199 452.855 294.199C451.928 294.199 451.138 294.346 450.487 294.639C449.836 294.915 449.185 295.355 448.534 295.957C447.899 296.559 447.427 297.153 447.118 297.739C446.825 298.325 446.679 298.993 446.679 299.741V306.211ZM474.657 282.09V286.826H470.189V282.09H474.657ZM474.535 314.536C474.535 316.815 474.299 318.638 473.827 320.005C473.355 321.372 472.533 322.528 471.361 323.472C470.206 324.432 468.586 325.213 466.503 325.815L465.673 323.667C466.682 323.276 467.447 322.902 467.968 322.544C468.505 322.202 468.944 321.795 469.286 321.323C469.628 320.868 469.888 320.249 470.067 319.468C470.246 318.687 470.336 317.686 470.336 316.465V298.325C470.336 297.056 470.312 296.144 470.263 295.591C470.214 295.037 470.108 294.606 469.945 294.297C469.783 293.971 469.53 293.711 469.188 293.516C468.847 293.32 468.228 293.133 467.333 292.954V291.66L473.046 291.44H474.535V314.536ZM500.756 310.85C499.714 311.94 498.754 312.795 497.875 313.413C497.012 314.032 496.06 314.52 495.019 314.878C493.977 315.22 492.829 315.391 491.576 315.391C488.223 315.391 485.692 314.39 483.983 312.388C482.274 310.369 481.42 307.399 481.42 303.477C481.42 301.051 481.851 298.911 482.714 297.056C483.593 295.2 484.838 293.768 486.449 292.759C488.061 291.75 489.916 291.245 492.016 291.245C493.66 291.245 495.059 291.506 496.215 292.026C497.37 292.547 498.29 293.263 498.974 294.175C499.674 295.07 500.211 296.209 500.585 297.593C500.976 298.96 501.195 300.75 501.244 302.964H485.863V303.403C485.863 305.324 486.075 306.943 486.498 308.262C486.938 309.564 487.646 310.589 488.622 311.338C489.615 312.07 490.901 312.437 492.479 312.437C493.814 312.437 495.01 312.192 496.068 311.704C497.143 311.2 498.209 310.386 499.267 309.263L500.756 310.85ZM496.654 300.938C496.557 299.18 496.337 297.747 495.995 296.641C495.653 295.518 495.141 294.663 494.457 294.077C493.773 293.475 492.878 293.174 491.771 293.174C490.095 293.174 488.752 293.849 487.743 295.2C486.75 296.535 486.164 298.447 485.985 300.938H496.654ZM523.852 292.222V297.324H520.751C520.474 296.266 520.132 295.436 519.726 294.834C519.319 294.215 518.847 293.784 518.31 293.54C517.772 293.296 517.105 293.174 516.308 293.174C515.168 293.174 514.159 293.54 513.28 294.272C512.401 295.005 511.701 296.12 511.181 297.617C510.676 299.115 510.424 300.946 510.424 303.11C510.424 304.494 510.521 305.763 510.717 306.919C510.912 308.058 511.246 309.035 511.718 309.849C512.19 310.662 512.816 311.297 513.598 311.753C514.379 312.209 515.347 312.437 516.503 312.437C517.626 312.437 518.668 312.217 519.628 311.777C520.604 311.338 521.614 310.565 522.655 309.458L524.047 311.069C523.217 311.981 522.484 312.689 521.85 313.193C521.215 313.682 520.531 314.097 519.799 314.438C519.083 314.764 518.367 315 517.65 315.146C516.951 315.309 516.186 315.391 515.355 315.391C512.279 315.391 509.927 314.373 508.3 312.339C506.672 310.288 505.858 307.334 505.858 303.477C505.858 301.068 506.314 298.936 507.226 297.08C508.137 295.208 509.415 293.768 511.059 292.759C512.702 291.75 514.599 291.245 516.747 291.245C518.082 291.245 519.311 291.326 520.434 291.489C521.573 291.636 522.712 291.88 523.852 292.222ZM526.269 292.881C527.082 292.751 527.742 292.523 528.246 292.197C528.751 291.872 529.141 291.457 529.418 290.952C529.711 290.431 529.939 289.788 530.102 289.023C530.264 288.242 530.435 287.111 530.614 285.63H534.081V291.66H541.967V294.126H534.081V304.99C534.081 306.569 534.146 307.83 534.276 308.774C534.407 309.702 534.651 310.435 535.009 310.972C535.367 311.493 535.774 311.867 536.229 312.095C536.685 312.323 537.271 312.437 537.987 312.437C538.638 312.437 539.249 312.306 539.818 312.046C540.388 311.769 540.95 311.379 541.503 310.874L542.602 312.192C541.446 313.315 540.347 314.129 539.306 314.634C538.28 315.138 537.214 315.391 536.107 315.391C534.008 315.391 532.445 314.772 531.42 313.535C530.395 312.282 529.882 310.329 529.882 307.676V294.126H526.269V292.881Z" fill="#17A400"/>
<path d="M595.508 234.896C595.508 235.84 595.532 236.549 595.581 237.021C595.63 237.493 595.711 237.875 595.825 238.168C595.939 238.445 596.077 238.673 596.24 238.852C596.403 239.031 596.631 239.193 596.924 239.34C597.233 239.486 597.705 239.641 598.34 239.804V241H588.11V239.804C589.006 239.576 589.632 239.324 589.99 239.047C590.348 238.77 590.592 238.347 590.723 237.777C590.869 237.208 590.942 236.247 590.942 234.896V224.667H577.368V234.896C577.368 235.987 577.401 236.785 577.466 237.289C577.547 237.794 577.669 238.192 577.832 238.485C578.011 238.778 578.263 239.022 578.589 239.218C578.931 239.413 579.476 239.608 580.225 239.804V241H569.946V239.804C570.955 239.543 571.631 239.258 571.973 238.949C572.314 238.624 572.534 238.168 572.632 237.582C572.746 236.996 572.803 236.101 572.803 234.896V213.778C572.803 212.655 572.762 211.841 572.681 211.337C572.599 210.816 572.461 210.417 572.266 210.141C572.087 209.848 571.842 209.62 571.533 209.457C571.224 209.278 570.695 209.083 569.946 208.871V207.675H580.225V208.871C579.508 209.05 578.988 209.229 578.662 209.408C578.353 209.587 578.101 209.815 577.905 210.092C577.726 210.352 577.588 210.751 577.49 211.288C577.409 211.825 577.368 212.655 577.368 213.778V222.421H590.942V213.778C590.942 212.362 590.869 211.394 590.723 210.873C590.592 210.352 590.365 209.953 590.039 209.677C589.714 209.4 589.071 209.132 588.11 208.871V207.675H598.34V208.871C597.428 209.099 596.794 209.359 596.436 209.652C596.077 209.929 595.833 210.352 595.703 210.922C595.573 211.492 595.508 212.444 595.508 213.778V234.896ZM623.193 236.85C622.152 237.94 621.191 238.795 620.312 239.413C619.45 240.032 618.498 240.52 617.456 240.878C616.414 241.22 615.267 241.391 614.014 241.391C610.661 241.391 608.13 240.39 606.421 238.388C604.712 236.369 603.857 233.399 603.857 229.477C603.857 227.051 604.289 224.911 605.151 223.056C606.03 221.2 607.275 219.768 608.887 218.759C610.498 217.75 612.354 217.245 614.453 217.245C616.097 217.245 617.497 217.506 618.652 218.026C619.808 218.547 620.728 219.263 621.411 220.175C622.111 221.07 622.648 222.209 623.022 223.593C623.413 224.96 623.633 226.75 623.682 228.964H608.301V229.403C608.301 231.324 608.512 232.943 608.936 234.262C609.375 235.564 610.083 236.589 611.06 237.338C612.052 238.07 613.338 238.437 614.917 238.437C616.252 238.437 617.448 238.192 618.506 237.704C619.58 237.2 620.646 236.386 621.704 235.263L623.193 236.85ZM619.092 226.938C618.994 225.18 618.774 223.747 618.433 222.641C618.091 221.518 617.578 220.663 616.895 220.077C616.211 219.475 615.316 219.174 614.209 219.174C612.533 219.174 611.19 219.849 610.181 221.2C609.188 222.535 608.602 224.447 608.423 226.938H619.092ZM635.083 208.09V212.826H630.591V208.09H635.083ZM628.101 239.804C628.735 239.608 629.183 239.438 629.443 239.291C629.72 239.145 629.948 238.941 630.127 238.681C630.322 238.42 630.469 238.021 630.566 237.484C630.68 236.947 630.737 236.109 630.737 234.97V224.325C630.737 223.284 630.721 222.445 630.688 221.811C630.656 221.176 630.542 220.671 630.347 220.297C630.151 219.906 629.85 219.621 629.443 219.442C629.053 219.247 628.491 219.084 627.759 218.954V217.66L633.447 217.44H634.937V234.896C634.937 236.296 635.002 237.273 635.132 237.826C635.262 238.363 635.506 238.778 635.864 239.071C636.239 239.348 636.841 239.592 637.671 239.804V241H628.101V239.804ZM663.916 220.126L659.399 219.955L659.18 220.224C659.684 220.728 660.083 221.42 660.376 222.299C660.669 223.161 660.815 224.097 660.815 225.106C660.815 227.759 659.993 229.81 658.35 231.259C656.722 232.691 654.403 233.407 651.392 233.407C650.041 233.407 648.877 233.236 647.9 232.895C646.663 233.839 646.045 234.766 646.045 235.678C646.045 236.28 646.159 236.736 646.387 237.045C646.631 237.354 647.021 237.574 647.559 237.704C648.112 237.834 648.942 237.899 650.049 237.899H655.908C657.633 237.899 659.041 238.168 660.132 238.705C661.222 239.242 661.995 239.966 662.451 240.878C662.923 241.773 663.159 242.823 663.159 244.027C663.159 245.557 662.72 246.916 661.841 248.104C660.962 249.309 659.692 250.245 658.032 250.912C656.372 251.579 654.435 251.913 652.222 251.913C650.578 251.913 649.072 251.815 647.705 251.62C646.354 251.425 645.19 251.091 644.214 250.619C643.254 250.163 642.505 249.553 641.968 248.788C641.447 248.039 641.187 247.095 641.187 245.956C641.187 244.931 641.528 243.995 642.212 243.148C642.896 242.318 643.864 241.586 645.117 240.951C644.352 240.642 643.75 240.186 643.311 239.584C642.871 238.982 642.651 238.274 642.651 237.46C642.651 236.532 642.912 235.686 643.433 234.921C643.953 234.14 644.873 233.253 646.191 232.26C645.02 231.576 644.124 230.648 643.506 229.477C642.904 228.305 642.603 226.97 642.603 225.473C642.603 224.073 642.83 222.86 643.286 221.835C643.758 220.793 644.401 219.939 645.215 219.271C646.045 218.588 647.021 218.083 648.145 217.758C649.268 217.416 650.48 217.245 651.782 217.245C652.954 217.245 654.118 217.383 655.273 217.66H663.916V220.126ZM646.973 225.082C646.973 227.117 647.388 228.687 648.218 229.794C649.048 230.901 650.244 231.454 651.807 231.454C652.637 231.454 653.345 231.299 653.931 230.99C654.517 230.665 654.989 230.225 655.347 229.672C655.721 229.118 655.99 228.484 656.152 227.768C656.331 227.035 656.421 226.27 656.421 225.473C656.421 224.04 656.217 222.844 655.811 221.884C655.404 220.924 654.85 220.224 654.15 219.784C653.451 219.328 652.645 219.101 651.733 219.101C650.187 219.101 649.007 219.613 648.193 220.639C647.38 221.664 646.973 223.145 646.973 225.082ZM647.583 241.391C646.753 242.009 646.126 242.66 645.703 243.344C645.296 244.044 645.093 244.833 645.093 245.712C645.093 247.177 645.671 248.251 646.826 248.935C647.998 249.634 649.78 249.984 652.173 249.984C653.638 249.984 654.891 249.789 655.933 249.398C656.991 249.008 657.796 248.446 658.35 247.714C658.903 246.981 659.18 246.127 659.18 245.15C659.18 244.695 659.123 244.247 659.009 243.808C658.895 243.384 658.675 243.002 658.35 242.66C658.04 242.318 657.593 242.042 657.007 241.83C656.421 241.635 655.656 241.537 654.712 241.537H651.074C649.756 241.537 648.592 241.488 647.583 241.391ZM672.925 221.493L673.022 221.518C674.292 220.232 675.293 219.337 676.025 218.832C676.774 218.311 677.507 217.921 678.223 217.66C678.955 217.4 679.736 217.27 680.566 217.27C681.462 217.27 682.259 217.375 682.959 217.587C683.659 217.799 684.269 218.124 684.79 218.563C685.327 218.987 685.758 219.516 686.084 220.15C686.426 220.769 686.678 221.518 686.841 222.396C687.004 223.259 687.085 224.358 687.085 225.692V234.896C687.085 236.312 687.142 237.281 687.256 237.802C687.386 238.306 687.606 238.705 687.915 238.998C688.241 239.275 688.883 239.543 689.844 239.804V241H680.225V239.804C680.859 239.608 681.315 239.438 681.592 239.291C681.868 239.145 682.096 238.941 682.275 238.681C682.471 238.42 682.617 238.021 682.715 237.484C682.829 236.931 682.886 236.101 682.886 234.994V228.598C682.886 226.433 682.772 224.781 682.544 223.642C682.332 222.486 681.901 221.623 681.25 221.054C680.615 220.484 679.72 220.199 678.564 220.199C677.913 220.199 677.327 220.313 676.807 220.541C676.286 220.769 675.684 221.176 675 221.762C674.316 222.348 673.796 222.95 673.438 223.568C673.096 224.187 672.925 224.846 672.925 225.546V234.896C672.925 236.003 672.949 236.793 672.998 237.265C673.063 237.737 673.177 238.135 673.34 238.461C673.503 238.77 673.747 239.031 674.072 239.242C674.414 239.438 674.935 239.625 675.635 239.804V241H665.967V239.804C666.683 239.608 667.196 239.421 667.505 239.242C667.814 239.063 668.05 238.835 668.213 238.559C668.392 238.282 668.522 237.883 668.604 237.362C668.685 236.841 668.726 236.02 668.726 234.896V214.462C668.726 212.899 668.709 211.809 668.677 211.19C668.66 210.572 668.595 210.051 668.481 209.628C668.384 209.188 668.237 208.847 668.042 208.603C667.863 208.358 667.611 208.163 667.285 208.017C666.976 207.87 666.406 207.724 665.576 207.577V206.308L671.46 206.063H672.925V221.493ZM692.505 218.881C693.319 218.751 693.978 218.523 694.482 218.197C694.987 217.872 695.378 217.457 695.654 216.952C695.947 216.431 696.175 215.788 696.338 215.023C696.501 214.242 696.672 213.111 696.851 211.63H700.317V217.66H708.203V220.126H700.317V230.99C700.317 232.569 700.382 233.83 700.513 234.774C700.643 235.702 700.887 236.435 701.245 236.972C701.603 237.493 702.01 237.867 702.466 238.095C702.922 238.323 703.507 238.437 704.224 238.437C704.875 238.437 705.485 238.306 706.055 238.046C706.624 237.769 707.186 237.379 707.739 236.874L708.838 238.192C707.682 239.315 706.584 240.129 705.542 240.634C704.517 241.138 703.451 241.391 702.344 241.391C700.244 241.391 698.682 240.772 697.656 239.535C696.631 238.282 696.118 236.329 696.118 233.676V220.126H692.505V218.881ZM732.568 241.391C729.183 241.391 726.595 240.398 724.805 238.412C723.031 236.41 722.144 233.456 722.144 229.55C722.144 226.864 722.607 224.594 723.535 222.738C724.479 220.883 725.765 219.507 727.393 218.612C729.02 217.701 730.876 217.245 732.959 217.245C736.442 217.245 739.079 218.262 740.869 220.297C742.66 222.315 743.555 225.22 743.555 229.013C743.555 231.715 743.107 233.993 742.212 235.849C741.317 237.704 740.047 239.096 738.403 240.023C736.759 240.935 734.814 241.391 732.568 241.391ZM726.758 229.037C726.758 232.39 727.287 234.97 728.345 236.776C729.419 238.567 730.949 239.462 732.935 239.462C734.025 239.462 734.953 239.201 735.718 238.681C736.483 238.144 737.101 237.427 737.573 236.532C738.062 235.637 738.411 234.604 738.623 233.432C738.835 232.243 738.94 231.007 738.94 229.721C738.94 227.328 738.672 225.342 738.135 223.764C737.614 222.185 736.898 221.029 735.986 220.297C735.075 219.548 734.033 219.174 732.861 219.174C730.892 219.174 729.378 220.028 728.32 221.737C727.279 223.446 726.758 225.88 726.758 229.037ZM761.06 220.126H755.225V234.896C755.225 235.987 755.273 236.809 755.371 237.362C755.485 237.916 755.64 238.339 755.835 238.632C756.047 238.909 756.315 239.136 756.641 239.315C756.982 239.478 757.52 239.641 758.252 239.804V241H748.267V239.804C748.983 239.608 749.495 239.421 749.805 239.242C750.114 239.063 750.35 238.835 750.513 238.559C750.692 238.282 750.822 237.883 750.903 237.362C750.985 236.841 751.025 236.02 751.025 234.896V220.126H748.071V218.881C748.69 218.783 749.097 218.71 749.292 218.661C749.504 218.596 749.699 218.507 749.878 218.393C750.073 218.279 750.236 218.116 750.366 217.904C750.513 217.693 750.635 217.383 750.732 216.977C750.846 216.553 750.936 215.967 751.001 215.219C751.147 213.445 751.465 212.004 751.953 210.897C752.458 209.791 753.182 208.847 754.126 208.065C755.086 207.284 756.104 206.739 757.178 206.43C758.268 206.104 759.546 205.941 761.011 205.941C762.297 205.941 763.387 206.031 764.282 206.21V210.629H761.865C761.556 209.669 761.19 208.993 760.767 208.603C760.36 208.196 759.782 207.992 759.033 207.992C758.496 207.992 758.04 208.065 757.666 208.212C757.308 208.358 756.974 208.586 756.665 208.896C756.356 209.205 756.087 209.62 755.859 210.141C755.648 210.661 755.485 211.312 755.371 212.094C755.273 212.859 755.225 213.86 755.225 215.097V217.66H761.06V220.126ZM773.218 218.881C774.032 218.751 774.691 218.523 775.195 218.197C775.7 217.872 776.09 217.457 776.367 216.952C776.66 216.431 776.888 215.788 777.051 215.023C777.214 214.242 777.384 213.111 777.563 211.63H781.03V217.66H788.916V220.126H781.03V230.99C781.03 232.569 781.095 233.83 781.226 234.774C781.356 235.702 781.6 236.435 781.958 236.972C782.316 237.493 782.723 237.867 783.179 238.095C783.634 238.323 784.22 238.437 784.937 238.437C785.588 238.437 786.198 238.306 786.768 238.046C787.337 237.769 787.899 237.379 788.452 236.874L789.551 238.192C788.395 239.315 787.297 240.129 786.255 240.634C785.229 241.138 784.163 241.391 783.057 241.391C780.957 241.391 779.395 240.772 778.369 239.535C777.344 238.282 776.831 236.329 776.831 233.676V220.126H773.218V218.881ZM798.169 221.493L798.267 221.518C799.536 220.232 800.537 219.337 801.27 218.832C802.018 218.311 802.751 217.921 803.467 217.66C804.199 217.4 804.98 217.27 805.811 217.27C806.706 217.27 807.503 217.375 808.203 217.587C808.903 217.799 809.513 218.124 810.034 218.563C810.571 218.987 811.003 219.516 811.328 220.15C811.67 220.769 811.922 221.518 812.085 222.396C812.248 223.259 812.329 224.358 812.329 225.692V234.896C812.329 236.312 812.386 237.281 812.5 237.802C812.63 238.306 812.85 238.705 813.159 238.998C813.485 239.275 814.128 239.543 815.088 239.804V241H805.469V239.804C806.104 239.608 806.559 239.438 806.836 239.291C807.113 239.145 807.34 238.941 807.52 238.681C807.715 238.42 807.861 238.021 807.959 237.484C808.073 236.931 808.13 236.101 808.13 234.994V228.598C808.13 226.433 808.016 224.781 807.788 223.642C807.576 222.486 807.145 221.623 806.494 221.054C805.859 220.484 804.964 220.199 803.809 220.199C803.158 220.199 802.572 220.313 802.051 220.541C801.53 220.769 800.928 221.176 800.244 221.762C799.561 222.348 799.04 222.95 798.682 223.568C798.34 224.187 798.169 224.846 798.169 225.546V234.896C798.169 236.003 798.193 236.793 798.242 237.265C798.307 237.737 798.421 238.135 798.584 238.461C798.747 238.77 798.991 239.031 799.316 239.242C799.658 239.438 800.179 239.625 800.879 239.804V241H791.211V239.804C791.927 239.608 792.44 239.421 792.749 239.242C793.058 239.063 793.294 238.835 793.457 238.559C793.636 238.282 793.766 237.883 793.848 237.362C793.929 236.841 793.97 236.02 793.97 234.896V214.462C793.97 212.899 793.953 211.809 793.921 211.19C793.905 210.572 793.84 210.051 793.726 209.628C793.628 209.188 793.481 208.847 793.286 208.603C793.107 208.358 792.855 208.163 792.529 208.017C792.22 207.87 791.65 207.724 790.82 207.577V206.308L796.704 206.063H798.169V221.493ZM838.721 236.85C837.679 237.94 836.719 238.795 835.84 239.413C834.977 240.032 834.025 240.52 832.983 240.878C831.942 241.22 830.794 241.391 829.541 241.391C826.188 241.391 823.657 240.39 821.948 238.388C820.239 236.369 819.385 233.399 819.385 229.477C819.385 227.051 819.816 224.911 820.679 223.056C821.558 221.2 822.803 219.768 824.414 218.759C826.025 217.75 827.881 217.245 829.98 217.245C831.624 217.245 833.024 217.506 834.18 218.026C835.335 218.547 836.255 219.263 836.938 220.175C837.638 221.07 838.175 222.209 838.55 223.593C838.94 224.96 839.16 226.75 839.209 228.964H823.828V229.403C823.828 231.324 824.04 232.943 824.463 234.262C824.902 235.564 825.61 236.589 826.587 237.338C827.58 238.07 828.866 238.437 830.444 238.437C831.779 238.437 832.975 238.192 834.033 237.704C835.107 237.2 836.174 236.386 837.231 235.263L838.721 236.85ZM834.619 226.938C834.521 225.18 834.302 223.747 833.96 222.641C833.618 221.518 833.105 220.663 832.422 220.077C831.738 219.475 830.843 219.174 829.736 219.174C828.06 219.174 826.717 219.849 825.708 221.2C824.715 222.535 824.129 224.447 823.95 226.938H834.619ZM865.283 241.391C861.898 241.391 859.31 240.398 857.52 238.412C855.745 236.41 854.858 233.456 854.858 229.55C854.858 226.864 855.322 224.594 856.25 222.738C857.194 220.883 858.48 219.507 860.107 218.612C861.735 217.701 863.59 217.245 865.674 217.245C869.157 217.245 871.794 218.262 873.584 220.297C875.374 222.315 876.27 225.22 876.27 229.013C876.27 231.715 875.822 233.993 874.927 235.849C874.032 237.704 872.762 239.096 871.118 240.023C869.474 240.935 867.529 241.391 865.283 241.391ZM859.473 229.037C859.473 232.39 860.002 234.97 861.06 236.776C862.134 238.567 863.664 239.462 865.649 239.462C866.74 239.462 867.668 239.201 868.433 238.681C869.198 238.144 869.816 237.427 870.288 236.532C870.776 235.637 871.126 234.604 871.338 233.432C871.549 232.243 871.655 231.007 871.655 229.721C871.655 227.328 871.387 225.342 870.85 223.764C870.329 222.185 869.613 221.029 868.701 220.297C867.79 219.548 866.748 219.174 865.576 219.174C863.607 219.174 862.093 220.028 861.035 221.737C859.993 223.446 859.473 225.88 859.473 229.037ZM887.378 221.493L887.476 221.518C888.615 220.329 889.559 219.467 890.308 218.93C891.073 218.393 891.854 217.986 892.651 217.709C893.465 217.416 894.352 217.27 895.312 217.27C897.054 217.27 898.543 217.717 899.78 218.612C901.034 219.491 901.994 220.818 902.661 222.592C903.345 224.366 903.687 226.539 903.687 229.11C903.687 231.763 903.28 234.009 902.466 235.849C901.668 237.672 900.48 239.055 898.901 239.999C897.339 240.927 895.483 241.391 893.335 241.391C892.131 241.391 890.991 241.277 889.917 241.049C888.859 240.837 887.744 240.455 886.572 239.901L884.863 241.391L883.179 241V214.462C883.179 212.899 883.162 211.809 883.13 211.19C883.114 210.572 883.049 210.051 882.935 209.628C882.837 209.188 882.69 208.847 882.495 208.603C882.316 208.358 882.064 208.163 881.738 208.017C881.429 207.87 880.859 207.724 880.029 207.577V206.308L885.938 206.063H887.378V221.493ZM887.378 232.211C887.378 233.464 887.435 234.465 887.549 235.214C887.663 235.946 887.85 236.557 888.11 237.045C888.387 237.533 888.778 237.981 889.282 238.388C889.803 238.795 890.381 239.079 891.016 239.242C891.65 239.389 892.358 239.462 893.14 239.462C895.093 239.462 896.574 238.664 897.583 237.069C898.592 235.474 899.097 233.082 899.097 229.892C899.097 226.669 898.633 224.252 897.705 222.641C896.794 221.013 895.41 220.199 893.555 220.199C892.627 220.199 891.838 220.346 891.187 220.639C890.535 220.915 889.884 221.355 889.233 221.957C888.599 222.559 888.127 223.153 887.817 223.739C887.524 224.325 887.378 224.993 887.378 225.741V232.211ZM915.356 208.09V212.826H910.889V208.09H915.356ZM915.234 240.536C915.234 242.815 914.998 244.638 914.526 246.005C914.054 247.372 913.232 248.528 912.061 249.472C910.905 250.432 909.285 251.213 907.202 251.815L906.372 249.667C907.381 249.276 908.146 248.902 908.667 248.544C909.204 248.202 909.644 247.795 909.985 247.323C910.327 246.868 910.588 246.249 910.767 245.468C910.946 244.687 911.035 243.686 911.035 242.465V224.325C911.035 223.056 911.011 222.144 910.962 221.591C910.913 221.037 910.807 220.606 910.645 220.297C910.482 219.971 910.229 219.711 909.888 219.516C909.546 219.32 908.927 219.133 908.032 218.954V217.66L913.745 217.44H915.234V240.536ZM941.455 236.85C940.413 237.94 939.453 238.795 938.574 239.413C937.712 240.032 936.759 240.52 935.718 240.878C934.676 241.22 933.529 241.391 932.275 241.391C928.923 241.391 926.392 240.39 924.683 238.388C922.974 236.369 922.119 233.399 922.119 229.477C922.119 227.051 922.55 224.911 923.413 223.056C924.292 221.2 925.537 219.768 927.148 218.759C928.76 217.75 930.615 217.245 932.715 217.245C934.359 217.245 935.758 217.506 936.914 218.026C938.07 218.547 938.989 219.263 939.673 220.175C940.373 221.07 940.91 222.209 941.284 223.593C941.675 224.96 941.895 226.75 941.943 228.964H926.562V229.403C926.562 231.324 926.774 232.943 927.197 234.262C927.637 235.564 928.345 236.589 929.321 237.338C930.314 238.07 931.6 238.437 933.179 238.437C934.513 238.437 935.71 238.192 936.768 237.704C937.842 237.2 938.908 236.386 939.966 235.263L941.455 236.85ZM937.354 226.938C937.256 225.18 937.036 223.747 936.694 222.641C936.353 221.518 935.84 220.663 935.156 220.077C934.473 219.475 933.577 219.174 932.471 219.174C930.794 219.174 929.451 219.849 928.442 221.2C927.45 222.535 926.864 224.447 926.685 226.938H937.354ZM964.551 218.222V223.324H961.45C961.174 222.266 960.832 221.436 960.425 220.834C960.018 220.215 959.546 219.784 959.009 219.54C958.472 219.296 957.804 219.174 957.007 219.174C955.868 219.174 954.858 219.54 953.979 220.272C953.101 221.005 952.401 222.12 951.88 223.617C951.375 225.115 951.123 226.946 951.123 229.11C951.123 230.494 951.221 231.763 951.416 232.919C951.611 234.058 951.945 235.035 952.417 235.849C952.889 236.662 953.516 237.297 954.297 237.753C955.078 238.209 956.047 238.437 957.202 238.437C958.325 238.437 959.367 238.217 960.327 237.777C961.304 237.338 962.313 236.565 963.354 235.458L964.746 237.069C963.916 237.981 963.184 238.689 962.549 239.193C961.914 239.682 961.23 240.097 960.498 240.438C959.782 240.764 959.066 241 958.35 241.146C957.65 241.309 956.885 241.391 956.055 241.391C952.979 241.391 950.627 240.373 948.999 238.339C947.371 236.288 946.558 233.334 946.558 229.477C946.558 227.068 947.013 224.936 947.925 223.08C948.836 221.208 950.114 219.768 951.758 218.759C953.402 217.75 955.298 217.245 957.446 217.245C958.781 217.245 960.01 217.326 961.133 217.489C962.272 217.636 963.411 217.88 964.551 218.222ZM966.968 218.881C967.782 218.751 968.441 218.523 968.945 218.197C969.45 217.872 969.84 217.457 970.117 216.952C970.41 216.431 970.638 215.788 970.801 215.023C970.964 214.242 971.134 213.111 971.313 211.63H974.78V217.66H982.666V220.126H974.78V230.99C974.78 232.569 974.845 233.83 974.976 234.774C975.106 235.702 975.35 236.435 975.708 236.972C976.066 237.493 976.473 237.867 976.929 238.095C977.384 238.323 977.97 238.437 978.687 238.437C979.338 238.437 979.948 238.306 980.518 238.046C981.087 237.769 981.649 237.379 982.202 236.874L983.301 238.192C982.145 239.315 981.047 240.129 980.005 240.634C978.979 241.138 977.913 241.391 976.807 241.391C974.707 241.391 973.145 240.772 972.119 239.535C971.094 238.282 970.581 236.329 970.581 233.676V220.126H966.968V218.881Z" fill="black"/>
<path d="M171 216L179.66 201H162.34L171 216ZM169.5 181V202.5H172.5V181H169.5Z" fill="#0A6B08"/>
<path d="M401 284L414.715 273.422L398.696 266.833L401 284ZM450.613 159.429L404.748 270.944L407.522 272.085L453.387 160.571L450.613 159.429Z" fill="#17A400"/>
<path d="M568 338L574.509 321.949L557.354 324.338L568 338ZM544.514 180.207L564.653 324.836L567.624 324.422L547.486 179.793L544.514 180.207Z" fill="#2BD700"/>
<path d="M654 209L655.179 191.72L639.625 199.338L654 209ZM628.653 160.66L646.715 197.536L649.409 196.216L631.347 159.34L628.653 160.66Z" fill="black"/>
</svg>
