<svg width="535" height="257" viewBox="0 0 535 257" fill="none" xmlns="http://www.w3.org/2000/svg">
<path d="M85.594 251.028C71.9024 153.744 72.1294 89.1728 85.7256 1.87045C168.564 23.7136 216.88 68.5254 266.591 114.632C269.463 117.295 272.339 119.962 275.226 122.63C328.45 171.798 385.497 220.881 489.488 242.967C502.426 245.715 512.273 248.013 519.363 249.915C526.066 251.714 530.146 253.12 532.074 254.157C531.997 254.176 531.917 254.195 531.832 254.213C529.446 254.739 524.94 255.024 518.498 255.077C496.009 255.263 451.738 252.645 399.642 249.565C392.333 249.133 384.87 248.692 377.292 248.248C315.746 244.643 246.655 240.869 190.883 240.416C163.002 240.19 138.406 240.793 119.728 242.669C110.393 243.608 102.488 244.868 96.3698 246.52C91.8716 247.735 88.172 249.203 85.594 251.028ZM533.181 253.763C533.183 253.762 533.18 253.765 533.171 253.771C533.176 253.766 533.18 253.764 533.181 253.763Z" fill="#CDFFA6" stroke="#0A6B08" stroke-width="3"/>
<path d="M74 0L68.2265 10L79.7735 10L74 0ZM74 256L79.7735 246L68.2265 246L74 256ZM73 9L73 247L75 247L75 9L73 9Z" fill="black"/>
<path d="M6.7802 85.838C6.83098 85.838 8.65935 85.711 12.2653 85.4571C15.8712 85.2032 17.725 85.0508 17.8266 85C18.436 85 18.7408 85.2285 18.7408 85.6856C18.7408 86.2443 17.8266 90.0788 15.9982 97.1891C14.0683 104.706 13.1033 108.54 13.1033 108.693C13.1033 108.794 13.2811 108.667 13.6366 108.312C16.7346 105.569 20.0359 104.198 23.5402 104.198C26.2828 104.198 28.4921 104.884 30.1681 106.255C31.8441 107.626 32.7075 109.632 32.7583 112.273C32.7583 114.863 31.7933 118.876 29.8633 124.31C27.9334 129.744 26.9684 132.995 26.9684 134.061C27.0192 134.772 27.1462 135.255 27.3493 135.509C27.5525 135.763 27.9334 135.89 28.4921 135.89C29.9141 135.89 31.2346 135.128 32.4535 133.604C33.6724 132.08 34.6628 129.998 35.4246 127.357C35.577 126.799 35.7294 126.468 35.8817 126.367C36.0341 126.265 36.4404 126.214 37.1006 126.214C38.1164 126.214 38.6243 126.418 38.6243 126.824C38.6243 126.875 38.5227 127.256 38.3195 127.967C37.5069 130.963 36.2118 133.426 34.4343 135.356C32.7075 137.54 30.6506 138.632 28.2635 138.632H27.8826C25.4956 138.632 23.7688 137.946 22.7022 136.575C21.6357 135.204 21.1024 133.756 21.1024 132.233C21.1024 131.42 22.0166 128.424 23.845 123.243C25.6733 118.063 26.6129 114.178 26.6637 111.588C26.6637 108.591 25.5464 107.093 23.3117 107.093H22.9308C18.7154 107.093 15.0586 109.581 11.9606 114.559L11.4273 115.549L8.83711 125.834C7.21189 132.436 6.27232 136.042 6.01838 136.651C5.35813 138.023 4.2408 138.708 2.66637 138.708C1.95534 138.708 1.34588 138.48 0.838002 138.023C0.330122 137.566 0.050788 137.108 0 136.651C0 135.94 1.85376 128.221 5.56128 113.492L11.1988 90.9422C11.1988 90.282 11.021 89.8756 10.6655 89.7233C10.31 89.5709 9.3196 89.444 7.69438 89.3424H6.09456C5.78983 89.0376 5.63747 88.8345 5.63747 88.7329C5.63747 88.6313 5.68825 88.1489 5.78983 87.2855C6.04377 86.3205 6.37389 85.838 6.7802 85.838Z" fill="black"/>
<path d="M45.3947 117.789C47.4055 114.881 50.1524 113.426 53.6354 113.426C55.359 113.426 57.0825 113.893 58.806 114.827C60.5296 115.76 61.93 117.412 63.0072 119.782C64.3357 122.762 65 126.856 65 132.062C65 137.628 64.228 141.883 62.684 144.827C61.9659 146.335 60.9784 147.538 59.7217 148.436C58.4649 149.334 57.3698 149.89 56.4362 150.106C55.5026 150.321 54.587 150.447 53.6893 150.483C52.7557 150.483 51.8221 150.375 50.8885 150.159C49.9549 149.944 48.8598 149.369 47.603 148.436C46.3463 147.502 45.3588 146.299 44.6407 144.827C43.0967 141.883 42.3247 137.628 42.3247 132.062C42.3247 125.814 43.348 121.057 45.3947 117.789ZM57.5134 117.143C56.4362 115.994 55.1615 115.419 53.6893 115.419C52.1812 115.419 50.8885 115.994 49.8113 117.143C48.9136 118.076 48.3212 119.369 48.0339 121.021C47.7467 122.672 47.603 126.12 47.603 131.362C47.603 137.035 47.7467 140.77 48.0339 142.565C48.3212 144.36 48.9675 145.779 49.9729 146.82C50.9783 147.897 52.2171 148.436 53.6893 148.436C55.1256 148.436 56.3464 147.897 57.3518 146.82C58.3931 145.743 59.0394 144.235 59.2908 142.296C59.5421 140.357 59.6858 136.712 59.7217 131.362C59.7217 126.155 59.578 122.726 59.2908 121.075C59.0035 119.423 58.4111 118.112 57.5134 117.143Z" fill="black"/>
</svg>
