<svg width="535" height="266" viewBox="0 0 535 266" fill="none" xmlns="http://www.w3.org/2000/svg">
<path d="M85.594 260.028C71.9024 162.744 72.1294 98.1728 85.7256 10.8705C168.564 32.7136 216.88 77.5254 266.591 123.632C269.463 126.295 272.339 128.962 275.226 131.63C328.45 180.798 385.497 229.881 489.488 251.967C502.426 254.715 512.273 257.013 519.363 258.915C526.066 260.714 530.146 262.12 532.074 263.157C531.997 263.176 531.917 263.195 531.832 263.213C529.446 263.739 524.94 264.024 518.498 264.077C496.009 264.263 451.738 261.645 399.642 258.565C392.333 258.133 384.87 257.692 377.292 257.248C315.746 253.643 246.655 249.869 190.883 249.416C163.002 249.19 138.406 249.793 119.728 251.669C110.393 252.608 102.488 253.868 96.3698 255.52C91.8716 256.735 88.172 258.203 85.594 260.028ZM533.181 262.763C533.183 262.762 533.18 262.765 533.171 262.771C533.176 262.766 533.18 262.764 533.181 262.763Z" fill="#CDFFA6" stroke="#0A6B08" stroke-width="3"/>
<path d="M74 9L68.2265 19L79.7735 19L74 9ZM74 265L79.7735 255L68.2265 255L74 265ZM73 18L73 256L75 256L75 18L73 18Z" fill="black"/>
<path d="M6.7802 94.838C6.83098 94.838 8.65935 94.711 12.2653 94.4571C15.8712 94.2032 17.725 94.0508 17.8266 94C18.436 94 18.7408 94.2285 18.7408 94.6856C18.7408 95.2443 17.8266 99.0788 15.9982 106.189C14.0683 113.706 13.1033 117.54 13.1033 117.693C13.1033 117.794 13.2811 117.667 13.6366 117.312C16.7346 114.569 20.0359 113.198 23.5402 113.198C26.2828 113.198 28.4921 113.883 30.1681 115.255C31.8441 116.626 32.7075 118.632 32.7583 121.273C32.7583 123.863 31.7933 127.876 29.8633 133.31C27.9334 138.744 26.9684 141.995 26.9684 143.061C27.0192 143.772 27.1462 144.255 27.3493 144.509C27.5525 144.763 27.9334 144.89 28.4921 144.89C29.9141 144.89 31.2346 144.128 32.4535 142.604C33.6724 141.08 34.6628 138.998 35.4246 136.357C35.577 135.799 35.7294 135.468 35.8817 135.367C36.0341 135.265 36.4404 135.214 37.1006 135.214C38.1164 135.214 38.6243 135.418 38.6243 135.824C38.6243 135.875 38.5227 136.256 38.3195 136.967C37.5069 139.963 36.2118 142.426 34.4343 144.356C32.7075 146.54 30.6506 147.632 28.2635 147.632H27.8826C25.4956 147.632 23.7688 146.946 22.7022 145.575C21.6357 144.204 21.1024 142.756 21.1024 141.233C21.1024 140.42 22.0166 137.424 23.845 132.243C25.6733 127.063 26.6129 123.178 26.6637 120.588C26.6637 117.591 25.5464 116.093 23.3117 116.093H22.9308C18.7154 116.093 15.0586 118.581 11.9606 123.559L11.4273 124.549L8.83711 134.834C7.21189 141.436 6.27232 145.042 6.01838 145.651C5.35813 147.023 4.2408 147.708 2.66637 147.708C1.95534 147.708 1.34588 147.48 0.838002 147.023C0.330122 146.566 0.050788 146.108 0 145.651C0 144.94 1.85376 137.221 5.56129 122.492L11.1988 99.9422C11.1988 99.282 11.021 98.8756 10.6655 98.7233C10.31 98.5709 9.3196 98.444 7.69438 98.3424H6.09456C5.78983 98.0376 5.63747 97.8345 5.63747 97.7329C5.63747 97.6313 5.68825 97.1489 5.78983 96.2855C6.04377 95.3205 6.37389 94.838 6.7802 94.838Z" fill="black"/>
<path d="M45.3947 126.789C47.4055 123.881 50.1524 122.426 53.6354 122.426C55.359 122.426 57.0825 122.893 58.806 123.827C60.5296 124.76 61.93 126.412 63.0072 128.782C64.3357 131.762 65 135.856 65 141.062C65 146.628 64.228 150.883 62.684 153.827C61.9659 155.335 60.9784 156.538 59.7217 157.436C58.4649 158.334 57.3698 158.89 56.4362 159.106C55.5026 159.321 54.587 159.447 53.6893 159.483C52.7557 159.483 51.8221 159.375 50.8885 159.159C49.9549 158.944 48.8598 158.369 47.603 157.436C46.3463 156.502 45.3588 155.299 44.6407 153.827C43.0967 150.883 42.3247 146.628 42.3247 141.062C42.3247 134.814 43.348 130.057 45.3947 126.789ZM57.5134 126.143C56.4362 124.994 55.1615 124.419 53.6893 124.419C52.1812 124.419 50.8885 124.994 49.8113 126.143C48.9136 127.076 48.3212 128.369 48.0339 130.021C47.7467 131.672 47.603 135.12 47.603 140.362C47.603 146.035 47.7467 149.77 48.0339 151.565C48.3212 153.36 48.9675 154.779 49.9729 155.82C50.9783 156.897 52.2171 157.436 53.6893 157.436C55.1256 157.436 56.3464 156.897 57.3518 155.82C58.3931 154.743 59.0394 153.235 59.2908 151.296C59.5421 149.357 59.6858 145.712 59.7217 140.362C59.7217 135.155 59.578 131.726 59.2908 130.075C59.0035 128.423 58.4111 127.112 57.5134 126.143Z" fill="black"/>
<path d="M89.3185 8.88979C135.406 28.5096 162.038 40.3853 162.994 10.1182" stroke="black" stroke-width="3"/>
<line x1="101.621" y1="13.4091" x2="104.621" y2="6.40912" stroke="black" stroke-width="3"/>
<line x1="129.595" y1="24.4733" x2="132.596" y2="16.4733" stroke="black" stroke-width="3"/>
<rect x="99.6712" width="43.1791" height="4.78611" transform="rotate(20.4368 99.6712 0)" fill="#89481A"/>
</svg>
