<svg width="456" height="329" viewBox="0 0 456 329" fill="none" xmlns="http://www.w3.org/2000/svg">
<path d="M245.089 159.615V154.703C245.089 154.703 251.144 154.301 253.749 153.306C255.146 152.776 256.861 149.876 256.437 147.166C256.035 144.477 254.236 143.08 251.039 143.164C247.778 143.249 243.925 143.524 240.41 144.138C234.44 145.197 230.946 146.7 230.036 147.081C228.639 147.653 227.665 152.713 230.205 153.941C231.688 154.661 235.52 154.83 235.52 154.83L235.435 159.742L245.089 159.615V159.615Z" fill="#B50D22"/>
<path d="M406.758 242.27C406.758 242.27 408.345 234.838 403.137 230.032C397.103 224.464 390.011 222.305 381.796 219.108C374.619 216.313 363.779 213.031 363.779 213.031L341.633 198.867C341.633 198.867 331.746 196.517 314.194 196.856C298.972 197.152 273.777 199.333 273.777 199.333C273.777 199.333 268.42 193.638 260.312 192.664C252.203 191.69 248.604 192.431 248.604 192.431L247.863 158.027C247.863 158.027 234.122 158.027 229.718 158.45C223.092 159.107 214.834 165.966 212.506 168.338C211.892 168.973 199.485 182.332 199.485 182.332L191.63 186.016C191.63 186.016 180.6 142.677 179.033 142.169C179.012 142.169 171.771 141.576 165.25 141.365C156.654 141.089 150.599 141.365 149.879 141.788C149.35 142.106 155.574 171.662 155.574 171.662L214.22 248.388C214.22 248.388 297.468 246.187 297.976 245.446C298.463 244.705 322.049 233.42 322.049 233.42C322.049 233.42 380.017 240.047 380.991 240.534C381.965 241.042 406.758 242.27 406.758 242.27V242.27Z" fill="#FF2A23"/>
<path d="M196.5 214.619L161.334 207.421L155.49 171.598C155.49 171.598 171.221 171.45 183.776 186.08C195.759 200.074 196.5 214.619 196.5 214.619Z" fill="#B50D22"/>
<path d="M302.529 194.76C302.571 197.999 296.389 202.488 289.889 202.678C282.436 202.89 280.235 201.472 280.15 198.867C280.065 196.263 280.235 190.886 280.235 190.886L298.019 187.181C298.04 187.181 302.465 190.187 302.529 194.76V194.76Z" fill="#B50D22"/>
<path d="M298.527 187.604C298.527 187.604 294.335 183.687 289.296 182.65C284.744 181.718 280.32 181.888 280.32 183.37C280.32 185.889 280.235 190.864 280.235 190.864C280.235 190.864 283.03 193.363 290.588 192.643C295.373 192.198 297.871 188.62 298.527 187.604V187.604Z" fill="#FF2A23"/>
<path d="M311.717 233.865C311.717 233.865 297.913 235.092 287.433 230.816C278.837 227.301 275.344 222.538 269.818 219.679C267.045 218.24 261.434 218.451 261.434 218.451L258.957 243.413L306.297 246.737L311.252 239.306L311.717 233.865Z" fill="#CF1A35"/>
<path d="M179.033 142.19L186.803 190.06L217.545 182.883C217.545 182.883 214.39 179.156 213.353 175.896C212.252 172.403 212.485 168.338 212.485 168.338L195.569 181.888C195.569 181.888 189.979 150.617 189.471 148.711C188.963 146.806 187.396 144.773 184.474 143.207C182.654 142.254 179.033 142.19 179.033 142.19V142.19Z" fill="#636866"/>
<path d="M179.393 207.188L161.354 207.442C161.354 207.442 162.265 221.67 163.599 225.375C165.906 231.769 170.797 231.26 170.797 231.26C170.797 231.26 179.478 206.976 179.393 207.188V207.188Z" fill="#636866"/>
<path d="M413.448 239.856C414.104 240.28 414.38 254.634 413.914 254.952C413.448 255.269 397.04 255.269 397.04 255.269C397.04 255.269 396.616 239.856 398.649 239.856C400.681 239.856 412.982 239.539 413.448 239.856V239.856Z" fill="#636866"/>
<path d="M379.891 240.174C379.891 240.174 379.277 256.137 380.272 256.603C381.288 257.069 398.162 257.069 398.797 256.688C399.411 256.307 398.945 240.026 398.882 239.793C398.818 239.539 379.51 239.623 379.891 240.174V240.174Z" fill="#B50D22"/>
<path d="M319.72 241.719H310.913C310.913 241.719 316.587 250.739 317.18 251.628C317.772 252.517 317.561 254.084 314.639 254.168C311.738 254.253 220.488 254.168 220.488 254.168L230.481 240.999H309.134C309.134 240.999 309.642 236.596 311.103 233.018C312.564 229.44 315.909 226.772 315.909 226.772L319.72 241.719Z" fill="#636866"/>
<path d="M265.583 217.71C265.88 218.113 266.155 240.491 265.71 240.936C265.266 241.381 255.209 241.317 254.892 241.063C254.574 240.809 254.511 218.409 254.701 218.028C254.892 217.647 265.266 217.266 265.583 217.71Z" fill="#8C1D0B"/>
<path d="M315.697 229.376C315.697 247.52 330.497 262.235 348.726 262.235C366.955 262.235 381.69 250.04 381.754 229.376C381.817 211.232 367.717 196.644 348.726 196.517C329.819 196.39 315.697 211.232 315.697 229.376Z" fill="#4C4038"/>
<path d="M348.726 201.62C364.245 201.62 376.842 214.09 376.842 229.461C376.842 244.832 364.245 257.302 348.726 257.302C333.207 257.302 320.609 244.832 320.609 229.461C320.609 214.09 333.185 201.62 348.726 201.62ZM348.916 253.3C361.916 253.3 372.459 242.651 372.459 229.524C372.459 216.398 361.916 205.748 348.916 205.748C335.917 205.748 325.373 216.398 325.373 229.524C325.373 242.672 335.917 253.3 348.916 253.3Z" fill="#F8A128"/>
<path d="M349.107 211.888C358.761 211.888 366.595 219.552 366.595 229.016C366.595 238.48 358.761 246.144 349.107 246.144C339.452 246.144 331.619 238.48 331.619 229.016C331.619 219.552 339.452 211.888 349.107 211.888ZM349.17 238.671C354.611 238.671 359.036 234.33 359.036 228.995C359.036 223.66 354.611 219.319 349.17 219.319C343.729 219.319 339.304 223.66 339.304 228.995C339.304 234.33 343.729 238.671 349.17 238.671V238.671Z" fill="#858583"/>
<path d="M168.595 229.461C168.595 247.605 183.395 262.32 201.624 262.32C219.853 262.32 234.588 250.125 234.652 229.461C234.715 211.316 220.615 196.729 201.624 196.602C182.738 196.475 168.595 211.316 168.595 229.461Z" fill="#4C4038"/>
<path d="M201.623 201.704C217.142 201.704 229.74 214.175 229.74 229.545C229.74 244.916 217.142 257.386 201.623 257.386C186.105 257.386 173.507 244.916 173.507 229.545C173.507 214.175 186.105 201.704 201.623 201.704ZM201.814 253.385C214.814 253.385 225.357 242.736 225.357 229.609C225.357 216.482 214.814 205.833 201.814 205.833C188.815 205.833 178.271 216.482 178.271 229.609C178.292 242.757 188.815 253.385 201.814 253.385Z" fill="#F8A128"/>
<path d="M202.005 211.973C211.659 211.973 219.493 219.637 219.493 229.101C219.493 238.565 211.659 246.229 202.005 246.229C192.35 246.229 184.517 238.565 184.517 229.101C184.517 219.637 192.35 211.973 202.005 211.973ZM202.068 238.755C207.509 238.755 211.934 234.415 211.934 229.08C211.934 223.744 207.509 219.404 202.068 219.404C196.627 219.404 192.202 223.744 192.202 229.08C192.202 234.415 196.627 238.755 202.068 238.755Z" fill="#858583"/>
<line x1="73" y1="208.5" x2="270" y2="208.5" stroke="#FF2A23"/>
<line x1="82" y1="207.5" x2="270" y2="207.5" stroke="#FF2A23"/>
<line x1="109" y1="206.5" x2="270" y2="206.5" stroke="#FF2A23"/>
<line x1="73" y1="209.5" x2="270" y2="209.5" stroke="white"/>
<line x1="-4.37114e-08" y1="187.5" x2="177" y2="187.5" stroke="#B50D22"/>
<line x1="9" y1="186.5" x2="177" y2="186.5" stroke="#B50D22"/>
<line x1="36" y1="185.5" x2="177" y2="185.5" stroke="#B50D22"/>
<line x1="-4.37114e-08" y1="188.5" x2="177" y2="188.5" stroke="white"/>
<line x1="18" y1="166.5" x2="171" y2="166.5" stroke="#FF2A23"/>
<line x1="27" y1="165.5" x2="171" y2="165.5" stroke="#FF2A23"/>
<line x1="54" y1="164.5" x2="171" y2="164.5" stroke="#FF2A23"/>
<line x1="18" y1="167.5" x2="171" y2="167.5" stroke="white"/>
<line x1="6" y1="229.5" x2="203" y2="229.5" stroke="#4C4038"/>
<line x1="15" y1="228.5" x2="203" y2="228.5" stroke="#4C4038"/>
<line x1="42" y1="227.5" x2="203" y2="227.5" stroke="#4C4038"/>
<line x1="6" y1="230.5" x2="203" y2="230.5" stroke="white"/>
<path d="M33.7482 319.537C33.0502 319.449 30.52 319.406 26.1577 319.406C21.7662 319.406 19.2215 319.449 18.5235 319.537H18V316.832H22.7114V292.315H18V289.611H18.5235C19.2215 289.698 21.7662 289.742 26.1577 289.742C30.52 289.742 33.0502 289.698 33.7482 289.611H34.2717V292.315H29.5603V304.792L36.8891 298.466L43.9562 292.315H40.9461V289.611H41.426C42.0367 289.698 44.247 289.742 48.0568 289.742C50.5579 289.742 52.0266 289.698 52.4628 289.611H52.7682V292.315H48.1441L43.0837 296.678C39.9719 299.353 38.2705 300.837 37.9797 301.127C37.9506 301.127 37.9652 301.186 38.0233 301.302C38.0815 301.418 38.3142 301.753 38.7213 302.305C39.1285 302.858 39.6956 303.629 40.4227 304.617C41.1497 305.606 42.2258 307.075 43.6508 309.023L49.4092 316.788L51.4159 316.832H53.4662V319.537H53.0299C52.681 319.449 50.6306 319.406 46.879 319.406C42.4875 319.406 39.9428 319.449 39.2448 319.537H38.6777V316.832H40.2482C41.266 316.832 41.775 316.817 41.775 316.788C41.7459 316.73 40.3209 314.796 37.4999 310.986C34.6788 307.177 33.2538 305.257 33.2247 305.228L29.5603 308.369V316.832H34.2717V319.537H33.7482Z" fill="black"/>
<path d="M58.7446 292.926C58.7446 291.792 59.1227 290.89 59.8788 290.221C60.635 289.553 61.522 289.218 62.5399 289.218C63.5287 289.276 64.3721 289.64 65.0701 290.309C65.768 290.978 66.117 291.85 66.117 292.926C66.117 294.031 65.768 294.918 65.0701 295.587C64.3721 296.256 63.4996 296.605 62.4526 296.634C61.3766 296.634 60.4895 296.3 59.7916 295.631C59.0936 294.962 58.7446 294.06 58.7446 292.926ZM57.6104 300.255L61.5365 300.08L65.4627 299.906H65.7244V316.832H68.4291V319.537H68.0801C67.6439 319.449 65.9716 319.406 63.0634 319.406C60.0388 319.406 58.2647 319.449 57.7412 319.537H57.3486V316.832H60.3587V310.419C60.3587 306.086 60.3441 303.861 60.3151 303.745C60.1696 303.221 59.399 302.96 58.003 302.96H57.4795V300.255H57.6104Z" fill="black"/>
<path d="M71.2647 300.255C76.4123 300.022 79.0006 299.906 79.0297 299.906H79.2914V301.782L79.3351 303.614C79.5677 303.236 79.8586 302.858 80.2075 302.48C80.5565 302.102 81.1964 301.651 82.127 301.127C83.0576 300.604 84.1192 300.226 85.3115 299.993C85.6605 299.935 86.184 299.906 86.882 299.906C87.7545 299.906 88.4815 299.95 89.0632 300.037C89.6448 300.124 90.2701 300.313 90.939 300.604C91.6079 300.895 92.1605 301.36 92.5967 302C93.033 302.64 93.3529 303.454 93.5564 304.443C93.6146 304.763 93.6582 306.915 93.6873 310.899V316.832H96.6974V319.537H96.3047C95.7813 319.449 93.9636 319.406 90.8518 319.406C87.5073 319.406 85.7042 319.449 85.4424 319.537H85.0498V316.832H88.0598V311.074V307.54C88.0598 305.417 87.929 303.992 87.6672 303.265C87.4055 302.538 86.7511 302.16 85.7042 302.131C84.3954 302.131 83.1885 302.552 82.0834 303.396C80.9782 304.239 80.2512 305.403 79.9022 306.886C79.844 307.148 79.8004 308.878 79.7713 312.077V316.832H82.7814V319.537H82.3887C81.8653 319.449 80.0621 319.406 76.9794 319.406C73.8675 319.406 72.0499 319.449 71.5264 319.537H71.1338V316.832H74.1438V310.376V306.319C74.1438 304.865 74.1148 303.992 74.0566 303.701C73.9984 303.41 73.8094 303.221 73.4895 303.134C73.0823 303.018 72.4861 302.96 71.7009 302.96H71.1338V300.255H71.2647Z" fill="black"/>
<path d="M98.7915 309.721C98.7915 306.609 99.8094 304.181 101.845 302.436C103.881 300.691 106.353 299.819 109.261 299.819H109.741C112.62 299.819 114.845 300.56 116.416 302.044C118.102 303.73 118.946 306.028 118.946 308.936C118.946 309.43 118.829 309.736 118.597 309.852C118.364 309.969 117.695 310.041 116.59 310.07C116.328 310.07 115.659 310.07 114.583 310.07C113.507 310.07 112.533 310.056 111.661 310.027H105.03V310.419C105.03 311.35 105.088 312.15 105.204 312.819C105.321 313.488 105.568 314.171 105.946 314.869C106.324 315.567 106.906 316.119 107.691 316.527C108.476 316.934 109.494 317.21 110.744 317.355C110.919 317.385 111.166 317.399 111.486 317.399C113.027 317.399 114.293 316.876 115.281 315.829C115.601 315.422 115.848 315.043 116.023 314.694C116.197 314.345 116.299 314.113 116.328 313.996C116.357 313.88 116.474 313.793 116.677 313.735C116.881 313.677 117.186 313.647 117.593 313.647H117.811C118.568 313.647 118.946 313.909 118.946 314.433C118.946 314.636 118.873 314.927 118.728 315.305C118.582 315.683 118.277 316.134 117.811 316.658C117.346 317.181 116.808 317.675 116.197 318.141C115.587 318.606 114.743 318.999 113.667 319.319C112.591 319.638 111.413 319.798 110.134 319.798C106.906 319.798 104.215 318.911 102.063 317.137C99.9112 315.363 98.8206 312.891 98.7915 309.721ZM114.103 307.497C113.929 305.461 113.42 304.036 112.577 303.221C111.733 302.407 110.744 302 109.61 302C108.825 302 108.098 302.174 107.429 302.523C106.76 302.872 106.251 303.352 105.902 303.963C105.437 304.719 105.161 305.853 105.073 307.366V307.933H114.103V307.497Z" fill="black"/>
<path d="M132.251 317.399C133.647 317.399 134.345 316.134 134.345 313.604V313.211V311.815H137.049V313.298C137.049 314.375 137.02 315.014 136.962 315.218C136.788 316.294 136.337 317.21 135.61 317.966C134.883 318.722 133.952 319.275 132.818 319.624L132.251 319.755H131.16C129.008 319.755 127.365 319.29 126.231 318.359C125.504 317.806 125.038 317.123 124.835 316.309C124.631 315.494 124.515 314.244 124.486 312.557C124.486 312.237 124.486 311.67 124.486 310.856C124.486 310.041 124.5 309.372 124.529 308.849V302.872H121.301V300.648H121.476C122.435 300.648 123.381 300.313 124.311 299.644C125.213 298.975 125.94 298.001 126.493 296.721C127.045 295.442 127.365 294.017 127.452 292.446V291.836H130.157V300.168H136.221V302.872H130.157V309.111V310.507V313.037C130.157 314.52 130.215 315.509 130.331 316.003C130.448 316.498 130.753 316.876 131.248 317.137C131.596 317.312 131.931 317.399 132.251 317.399Z" fill="black"/>
<path d="M143.026 292.926C143.026 291.792 143.404 290.89 144.16 290.221C144.916 289.553 145.803 289.218 146.821 289.218C147.81 289.276 148.653 289.64 149.351 290.309C150.049 290.978 150.398 291.85 150.398 292.926C150.398 294.031 150.049 294.918 149.351 295.587C148.653 296.256 147.781 296.605 146.734 296.634C145.658 296.634 144.771 296.3 144.073 295.631C143.375 294.962 143.026 294.06 143.026 292.926ZM141.892 300.255L145.818 300.08L149.744 299.906H150.006V316.832H152.71V319.537H152.361C151.925 319.449 150.253 319.406 147.345 319.406C144.32 319.406 142.546 319.449 142.022 319.537H141.63V316.832H144.64V310.419C144.64 306.086 144.625 303.861 144.596 303.745C144.451 303.221 143.68 302.96 142.284 302.96H141.761V300.255H141.892Z" fill="black"/>
<path d="M173.3 313.822H173.78C174.362 313.822 174.653 314.026 174.653 314.433C174.653 314.578 174.551 314.898 174.347 315.392C174.144 315.887 173.679 316.527 172.951 317.312C172.224 318.097 171.323 318.708 170.247 319.144C168.88 319.58 167.557 319.798 166.277 319.798C163.66 319.798 161.464 319.202 159.69 318.01C156.898 316.236 155.502 313.517 155.502 309.852C155.502 306.886 156.404 304.53 158.207 302.785C160.184 300.778 162.874 299.775 166.277 299.775C168.4 299.775 170.218 300.095 171.73 300.735C173.242 301.375 174.013 302.509 174.042 304.137C174.042 305.126 173.766 305.868 173.213 306.362C172.661 306.857 171.934 307.118 171.032 307.148C170.014 307.148 169.258 306.842 168.764 306.231C168.269 305.621 168.007 304.923 167.978 304.137C167.978 303.352 168.167 302.727 168.545 302.262H168.327C167.862 302.203 167.309 302.174 166.67 302.174H166.539C166.19 302.174 165.884 302.189 165.623 302.218C165.361 302.247 164.983 302.349 164.488 302.523C163.994 302.698 163.601 302.945 163.311 303.265C163.02 303.585 162.714 304.094 162.395 304.792C162.075 305.49 161.871 306.29 161.784 307.191C161.755 307.424 161.74 308.18 161.74 309.46C161.74 310.39 161.769 311.132 161.827 311.684C161.886 312.237 162.016 312.935 162.22 313.778C162.424 314.622 162.816 315.305 163.398 315.829C163.98 316.352 164.707 316.759 165.579 317.05C166.132 317.254 166.815 317.355 167.629 317.355H168.022C169.738 317.355 171.017 316.41 171.861 314.52C172.006 314.171 172.137 313.967 172.254 313.909C172.37 313.851 172.719 313.822 173.3 313.822Z" fill="black"/>
<path d="M188.395 309.721C188.395 306.609 189.413 304.181 191.449 302.436C193.484 300.691 195.956 299.819 198.865 299.819H199.345C202.224 299.819 204.449 300.56 206.019 302.044C207.706 303.73 208.549 306.028 208.549 308.936C208.549 309.43 208.433 309.736 208.2 309.852C207.968 309.969 207.299 310.041 206.194 310.07C205.932 310.07 205.263 310.07 204.187 310.07C203.111 310.07 202.137 310.056 201.264 310.027H194.633V310.419C194.633 311.35 194.691 312.15 194.808 312.819C194.924 313.488 195.171 314.171 195.549 314.869C195.927 315.567 196.509 316.119 197.294 316.527C198.08 316.934 199.097 317.21 200.348 317.355C200.522 317.385 200.77 317.399 201.09 317.399C202.631 317.399 203.896 316.876 204.885 315.829C205.205 315.422 205.452 315.043 205.626 314.694C205.801 314.345 205.903 314.113 205.932 313.996C205.961 313.88 206.077 313.793 206.281 313.735C206.484 313.677 206.79 313.647 207.197 313.647H207.415C208.171 313.647 208.549 313.909 208.549 314.433C208.549 314.636 208.477 314.927 208.331 315.305C208.186 315.683 207.88 316.134 207.415 316.658C206.95 317.181 206.412 317.675 205.801 318.141C205.19 318.606 204.347 318.999 203.271 319.319C202.195 319.638 201.017 319.798 199.737 319.798C196.509 319.798 193.819 318.911 191.667 317.137C189.515 315.363 188.424 312.891 188.395 309.721ZM203.707 307.497C203.532 305.461 203.024 304.036 202.18 303.221C201.337 302.407 200.348 302 199.214 302C198.429 302 197.701 302.174 197.033 302.523C196.364 302.872 195.855 303.352 195.506 303.963C195.04 304.719 194.764 305.853 194.677 307.366V307.933H203.707V307.497Z" fill="black"/>
<path d="M211.733 300.255C216.881 300.022 219.469 299.906 219.498 299.906H219.76V301.782L219.804 303.614C220.036 303.236 220.327 302.858 220.676 302.48C221.025 302.102 221.665 301.651 222.596 301.127C223.526 300.604 224.588 300.226 225.78 299.993C226.129 299.935 226.653 299.906 227.351 299.906C228.223 299.906 228.95 299.95 229.532 300.037C230.114 300.124 230.739 300.313 231.408 300.604C232.077 300.895 232.629 301.36 233.065 302C233.502 302.64 233.822 303.454 234.025 304.443C234.083 304.763 234.127 306.915 234.156 310.899V316.832H237.166V319.537H236.773C236.25 319.449 234.432 319.406 231.321 319.406C227.976 319.406 226.173 319.449 225.911 319.537H225.519V316.832H228.529V311.074V307.54C228.529 305.417 228.398 303.992 228.136 303.265C227.874 302.538 227.22 302.16 226.173 302.131C224.864 302.131 223.657 302.552 222.552 303.396C221.447 304.239 220.72 305.403 220.371 306.886C220.313 307.148 220.269 308.878 220.24 312.077V316.832H223.25V319.537H222.857C222.334 319.449 220.531 319.406 217.448 319.406C214.336 319.406 212.519 319.449 211.995 319.537H211.603V316.832H214.613V310.376V306.319C214.613 304.865 214.584 303.992 214.525 303.701C214.467 303.41 214.278 303.221 213.958 303.134C213.551 303.018 212.955 302.96 212.17 302.96H211.603V300.255H211.733Z" fill="black"/>
<path d="M239.26 309.721C239.26 306.609 240.278 304.181 242.314 302.436C244.35 300.691 246.822 299.819 249.73 299.819H250.21C253.089 299.819 255.314 300.56 256.884 302.044C258.571 303.73 259.414 306.028 259.414 308.936C259.414 309.43 259.298 309.736 259.065 309.852C258.833 309.969 258.164 310.041 257.059 310.07C256.797 310.07 256.128 310.07 255.052 310.07C253.976 310.07 253.002 310.056 252.129 310.027H245.498V310.419C245.498 311.35 245.557 312.15 245.673 312.819C245.789 313.488 246.036 314.171 246.415 314.869C246.793 315.567 247.374 316.119 248.16 316.527C248.945 316.934 249.963 317.21 251.213 317.355C251.388 317.385 251.635 317.399 251.955 317.399C253.496 317.399 254.761 316.876 255.75 315.829C256.07 315.422 256.317 315.043 256.492 314.694C256.666 314.345 256.768 314.113 256.797 313.996C256.826 313.88 256.942 313.793 257.146 313.735C257.35 313.677 257.655 313.647 258.062 313.647H258.28C259.036 313.647 259.414 313.909 259.414 314.433C259.414 314.636 259.342 314.927 259.196 315.305C259.051 315.683 258.746 316.134 258.28 316.658C257.815 317.181 257.277 317.675 256.666 318.141C256.055 318.606 255.212 318.999 254.136 319.319C253.06 319.638 251.882 319.798 250.602 319.798C247.374 319.798 244.684 318.911 242.532 317.137C240.38 315.363 239.289 312.891 239.26 309.721ZM254.572 307.497C254.398 305.461 253.889 304.036 253.045 303.221C252.202 302.407 251.213 302 250.079 302C249.294 302 248.567 302.174 247.898 302.523C247.229 302.872 246.72 303.352 246.371 303.963C245.906 304.719 245.629 305.853 245.542 307.366V307.933H254.572V307.497Z" fill="black"/>
<path d="M278.522 306.755C278.522 306.755 278.071 306.755 277.169 306.755C276.268 306.755 275.541 306.479 274.988 305.926C274.436 305.373 274.159 304.661 274.159 303.788C274.159 303.294 274.261 302.814 274.465 302.349C274.552 302.262 274.596 302.189 274.596 302.131C274.305 302.131 273.999 302.203 273.679 302.349C273.36 302.494 272.952 302.771 272.458 303.178C271.964 303.585 271.556 304.254 271.237 305.184C270.917 306.115 270.684 307.278 270.539 308.674C270.509 308.907 270.495 310.361 270.495 313.037V316.832H274.29V319.537H273.854C273.33 319.449 271.338 319.406 267.877 319.406C264.562 319.406 262.773 319.449 262.512 319.537H262.119V316.832H265.129V310.376V306.319C265.129 304.865 265.1 303.992 265.042 303.701C264.984 303.41 264.795 303.221 264.475 303.134C264.068 303.018 263.471 302.96 262.686 302.96H262.119V300.255H262.25L266.002 300.08C268.503 299.964 269.768 299.906 269.797 299.906H270.015V301.476L270.059 303.047C271.106 300.982 272.618 299.95 274.596 299.95H274.857C276.69 299.95 278.027 300.342 278.871 301.127C279.714 301.913 280.136 302.814 280.136 303.832C280.136 304.646 279.874 305.33 279.351 305.882L278.522 306.755Z" fill="black"/>
<path d="M283.713 306.45C283.713 304.472 284.513 302.887 286.113 301.695C287.712 300.502 289.893 299.906 292.656 299.906C294.779 299.906 296.539 300.255 297.935 300.953L298.458 301.215C299.825 300.197 301.294 299.688 302.864 299.688C303.678 299.688 304.318 299.891 304.784 300.299C305.249 300.706 305.554 301.098 305.7 301.476C305.845 301.854 305.903 302.218 305.874 302.567C305.874 303.207 305.671 303.73 305.263 304.137C304.856 304.545 304.333 304.748 303.693 304.748C302.995 304.748 302.457 304.53 302.079 304.094C301.701 303.658 301.512 303.178 301.512 302.654C301.512 302.363 301.57 302.174 301.686 302.087C301.744 302.058 301.73 302.058 301.643 302.087C301.585 302.087 301.483 302.102 301.337 302.131C300.61 302.334 300.218 302.465 300.159 302.523C300.945 303.599 301.41 304.501 301.555 305.228C301.614 305.606 301.643 306.013 301.643 306.45C301.643 308.194 301.032 309.62 299.81 310.725C298.211 312.266 295.724 313.037 292.351 313.037C290.519 313.037 288.89 312.702 287.465 312.033C287.261 312.441 287.16 312.79 287.16 313.08C287.16 314.331 287.756 315.131 288.948 315.48C289.123 315.538 290.475 315.567 293.005 315.567C293.296 315.567 293.805 315.567 294.532 315.567C295.259 315.567 295.783 315.567 296.102 315.567C296.422 315.567 296.888 315.596 297.498 315.654C298.109 315.712 298.604 315.77 298.982 315.829C299.36 315.887 299.825 316.003 300.378 316.178C300.93 316.352 301.425 316.541 301.861 316.745C304.129 317.966 305.263 319.9 305.263 322.547C305.263 323.855 304.711 324.961 303.606 325.862C301.628 327.491 298.444 328.305 294.052 328.305C290.039 328.305 287.174 327.723 285.458 326.56C283.742 325.397 282.87 324.074 282.841 322.59C282.841 322.241 282.884 321.907 282.972 321.587C283.059 321.267 283.19 320.976 283.364 320.715C283.539 320.453 283.713 320.249 283.888 320.104C284.062 319.958 284.28 319.784 284.542 319.58C284.804 319.377 284.993 319.275 285.109 319.275C285.226 319.275 285.4 319.188 285.633 319.013C285.865 318.839 285.967 318.795 285.938 318.882C284.92 317.661 284.411 316.338 284.411 314.913C284.411 313.604 284.76 312.426 285.458 311.379L285.764 310.943L285.415 310.637C284.28 309.503 283.713 308.107 283.713 306.45ZM302.69 301.956H302.995C302.966 301.927 302.908 301.913 302.821 301.913L302.69 301.956ZM292.656 310.812C293.354 310.812 293.936 310.725 294.401 310.55C294.866 310.376 295.215 310.187 295.448 309.983C295.681 309.779 295.855 309.445 295.972 308.98C296.088 308.514 296.146 308.136 296.146 307.846C296.146 307.555 296.161 307.089 296.19 306.45C296.19 305.373 296.146 304.617 296.059 304.181C295.972 303.745 295.739 303.338 295.361 302.96C294.808 302.407 293.907 302.131 292.656 302.131C291.871 302.131 291.231 302.233 290.737 302.436C290.242 302.64 289.893 302.945 289.69 303.352C289.486 303.759 289.355 304.137 289.297 304.486C289.239 304.835 289.21 305.315 289.21 305.926V306.45V306.929C289.21 308.5 289.472 309.518 289.995 309.983C290.606 310.536 291.493 310.812 292.656 310.812ZM294.052 326.08C296.088 326.08 297.731 325.76 298.982 325.121C300.232 324.481 300.857 323.652 300.857 322.634C300.857 322.459 300.843 322.314 300.814 322.198C300.785 322.081 300.698 321.921 300.552 321.718C300.407 321.514 300.174 321.325 299.854 321.151C299.534 320.976 299.083 320.831 298.502 320.715C297.92 320.598 297.193 320.511 296.321 320.453L294.968 320.409C294.038 320.409 293.238 320.409 292.569 320.409C290.737 320.409 289.675 320.409 289.384 320.409C289.094 320.409 288.745 320.496 288.337 320.671C287.581 321.02 287.203 321.645 287.203 322.547C287.203 323.594 287.828 324.437 289.079 325.077C290.33 325.717 291.987 326.051 294.052 326.08Z" fill="black"/>
<path d="M310.28 323.986C310.28 324.219 310.323 324.466 310.411 324.728C310.498 324.99 310.716 325.266 311.065 325.557C311.414 325.848 311.865 326.008 312.417 326.037C312.854 326.008 313.275 325.92 313.682 325.775C314.09 325.629 314.439 325.455 314.729 325.251C315.02 325.048 315.311 324.801 315.602 324.51C315.893 324.219 316.125 323.943 316.3 323.681C316.474 323.419 316.649 323.143 316.823 322.852C316.998 322.561 317.129 322.314 317.216 322.11C317.303 321.907 317.39 321.703 317.478 321.5C317.565 321.296 317.609 321.18 317.609 321.151L318.35 319.537L310.803 302.872H307.75V300.168H308.099C308.535 300.255 310.163 300.299 312.984 300.299C316.067 300.299 317.87 300.255 318.394 300.168H318.786V302.872H317.739C317.07 302.872 316.736 302.901 316.736 302.96L321.317 312.949L325.897 302.872H323.803V300.168H324.108C324.457 300.255 325.824 300.299 328.209 300.299C330.332 300.299 331.481 300.255 331.655 300.168H331.917V302.872H328.863L324.327 312.906C321.186 319.769 319.601 323.245 319.572 323.332C318.757 324.844 317.71 326.037 316.431 326.909C315.151 327.782 313.784 328.232 312.33 328.261C310.992 328.261 309.873 327.854 308.971 327.04C308.069 326.226 307.619 325.179 307.619 323.899C307.619 322.852 307.924 322.125 308.535 321.718C309.145 321.311 309.771 321.093 310.411 321.064C311.109 321.064 311.734 321.282 312.286 321.718C312.839 322.154 313.159 322.765 313.246 323.55V323.899H310.28V323.986Z" fill="black"/>
<path d="M361.45 319.537C360.752 319.449 358.222 319.406 353.86 319.406C349.468 319.406 346.924 319.449 346.226 319.537H345.702V316.832H350.414V292.315H345.702V289.611H346.226C346.924 289.698 349.468 289.742 353.86 289.742C358.222 289.742 360.752 289.698 361.45 289.611H361.974V292.315H357.262V304.792L364.591 298.466L371.658 292.315H368.648V289.611H369.128C369.739 289.698 371.949 289.742 375.759 289.742C378.26 289.742 379.729 289.698 380.165 289.611H380.47V292.315H375.846L370.786 296.678C367.674 299.353 365.973 300.837 365.682 301.127C365.653 301.127 365.667 301.186 365.725 301.302C365.784 301.418 366.016 301.753 366.423 302.305C366.831 302.858 367.398 303.629 368.125 304.617C368.852 305.606 369.928 307.075 371.353 309.023L377.111 316.788L379.118 316.832H381.168V319.537H380.732C380.383 319.449 378.333 319.406 374.581 319.406C370.19 319.406 367.645 319.449 366.947 319.537H366.38V316.832H367.95C368.968 316.832 369.477 316.817 369.477 316.788C369.448 316.73 368.023 314.796 365.202 310.986C362.381 307.177 360.956 305.257 360.927 305.228L357.262 308.369V316.832H361.974V319.537H361.45Z" fill="black"/>
<path d="M399.221 305.01C398.552 304.719 398.217 304.297 398.217 303.745C398.217 303.134 398.508 302.712 399.09 302.48C399.235 302.422 404.528 302.393 414.969 302.393H430.63C430.659 302.422 430.717 302.465 430.804 302.523C430.892 302.582 430.979 302.64 431.066 302.698C431.153 302.756 431.241 302.829 431.328 302.916C431.415 303.003 431.473 303.105 431.502 303.221C431.531 303.338 431.56 303.498 431.59 303.701C431.59 304.225 431.27 304.661 430.63 305.01H399.221ZM399.221 314.782C398.552 314.52 398.217 314.084 398.217 313.473C398.217 312.891 398.537 312.47 399.177 312.208C399.264 312.179 404.528 312.164 414.969 312.164H430.63L430.848 312.295C430.964 312.382 431.051 312.441 431.11 312.47C431.168 312.499 431.241 312.571 431.328 312.688C431.415 312.804 431.473 312.92 431.502 313.037C431.531 313.153 431.56 313.298 431.59 313.473C431.59 314.084 431.27 314.52 430.63 314.782H399.221Z" fill="black"/>
<path d="M437.26 294.671C437.26 292.984 438.045 291.617 439.616 290.57C441.186 289.523 443.222 289 445.723 289C447.672 289 449.315 289.174 450.653 289.523C451.991 289.872 452.979 290.367 453.619 291.007C454.259 291.647 454.681 292.243 454.884 292.795C455.088 293.348 455.219 293.988 455.277 294.715C455.277 296.576 454.317 298.088 452.398 299.252C448.762 301.404 446.945 303.89 446.945 306.711V307.191C446.945 308.151 446.901 308.718 446.814 308.892C446.727 309.067 446.421 309.169 445.898 309.198H445.592H445.287C444.793 309.198 444.502 309.125 444.415 308.98C444.327 308.834 444.269 308.398 444.24 307.671V307.017C444.298 304.777 444.705 302.872 445.462 301.302C446.072 299.993 446.916 298.743 447.992 297.55C448.69 296.794 449.039 295.762 449.039 294.453C449.039 293.086 448.864 292.214 448.515 291.836C448.166 291.457 447.236 291.268 445.723 291.268C444.909 291.268 444.182 291.327 443.542 291.443C442.902 291.559 442.466 291.676 442.233 291.792C442.001 291.908 441.87 291.995 441.841 292.054L441.928 292.141C441.986 292.17 442.059 292.214 442.146 292.272C442.233 292.33 442.321 292.403 442.408 292.49C442.495 292.577 442.597 292.708 442.713 292.883C442.83 293.057 442.931 293.202 443.019 293.319C443.106 293.435 443.179 293.639 443.237 293.929C443.295 294.22 443.324 294.468 443.324 294.671C443.324 295.573 443.048 296.314 442.495 296.896C441.943 297.478 441.201 297.768 440.27 297.768C439.427 297.768 438.714 297.507 438.133 296.983C437.551 296.46 437.26 295.689 437.26 294.671ZM441.884 315.785C441.884 314.651 442.262 313.749 443.019 313.08C443.775 312.411 444.662 312.077 445.68 312.077C446.668 312.135 447.512 312.499 448.21 313.168C448.908 313.836 449.257 314.709 449.257 315.785C449.257 316.89 448.908 317.777 448.21 318.446C447.512 319.115 446.639 319.464 445.592 319.493C444.487 319.493 443.6 319.159 442.931 318.49C442.262 317.821 441.913 316.919 441.884 315.785Z" fill="black"/>
</svg>
