<svg width="775" height="310" viewBox="0 0 775 310" fill="none" xmlns="http://www.w3.org/2000/svg">
<path d="M316.39 116.783C233.779 273.111 124 224.82 115 239H544C488.463 150.01 399 -39.5448 316.39 116.783Z" fill="#64BC1F" stroke="#0A6B08" stroke-width="3"/>
<path d="M335.165 187.938C291.923 173.489 285.036 287.168 268 187.938C336.71 110.627 341.289 39.0814 408.345 64.0679C408.345 64.0679 470.05 123.753 418.37 114.444C366.69 105.136 424.355 149.748 381.279 158.954C338.203 168.161 378.408 202.387 335.165 187.938Z" fill="#9CFF4F"/>
<path d="M344.116 72.3084C343.694 71.3123 343.287 70.3162 342.889 69.3202C339.885 61.7419 343.654 54.9047 347.017 48.2109L351.894 38.5209C352.874 36.5686 354.38 34.927 356.229 33.7795L370.254 25.0777L384.111 10.7498C384.972 9.8572 386.069 9.2295 387.275 8.94094L396.71 6.66188C401.276 5.57016 403.236 5.74547 404.711 7.84125C409.818 15.0928 413.237 21.0614 417.787 28.2891C420.266 32.2256 425.987 41.2702 426.346 41.8678C427.445 43.7166 426.999 45.2625 426.959 47.3822C426.864 52.267 427.724 57.1758 429.509 61.7259C430.043 63.0806 430.657 64.4194 430.936 65.8458C431.191 67.1287 430.848 75.2808 430.585 78.038C430.37 80.2772 425.079 88.6364 423.182 89.6484C421.094 90.7641 405.619 96.4538 402.2 97.4259C398.782 98.3981 383.96 95.0114 376.262 93.832C371.505 93.1069 366.739 92.3738 361.982 91.6486C357.854 91.0191 353.75 91.4972 351.439 87.3295C348.722 82.4527 346.284 77.4403 344.116 72.3084V72.3084Z" fill="url(#paint0_linear_104_59)"/>
<path d="M361.974 91.6406C366.731 92.3658 371.497 93.0989 376.254 93.8241C378.732 94.2066 381.952 94.8122 385.29 95.4337C383.043 92.7722 379.688 89.6166 377.441 86.955C376.955 86.3812 376.461 85.7836 376.286 85.0505C376.103 84.2695 376.31 83.4647 376.525 82.6917C377.21 80.1576 377.385 77.4084 378.071 74.8744C373.823 75.8625 364.038 77.7431 363.233 77.512C362.34 77.257 361.615 76.6116 360.922 75.982C355.878 71.3761 351.933 66.7303 348.076 61.1123C347.622 60.4509 347.16 59.7656 346.993 58.9767C346.833 58.2356 346.953 57.4706 347.072 56.7295C347.359 54.8808 347.997 49.7569 348.507 45.2386L347.009 48.2109C343.654 54.9047 339.885 61.7419 342.897 69.3201C343.295 70.3242 343.702 71.3203 344.124 72.3084C346.286 77.4391 348.725 82.4482 351.431 87.3136C353.734 91.4892 357.846 91.0111 361.974 91.6406Z" fill="url(#paint1_linear_104_59)"/>
<path d="M404.774 7.92889C403.794 6.77342 401.881 6.99655 399.873 8.82936L392.654 16.049C392.207 16.4953 391.968 17.1089 392.008 17.7384L392.781 32.4806C392.805 32.9747 392.988 33.4369 393.307 33.8114C395.873 36.8076 404.941 51.2072 407.571 51.2072C410.193 51.2072 414.775 40.9912 417.11 41.047C417.508 41.055 419.588 41.1825 421.62 41.804C423.517 42.3778 424.258 39.772 423.867 37.9233C421.907 34.8155 419.269 30.6478 417.787 28.289C413.253 21.0933 409.842 15.1406 404.774 7.92889V7.92889Z" fill="url(#paint2_linear_104_59)"/>
<path d="M371.178 36.9511C373.832 36.5527 382.685 35.0466 384.35 34.3931C387.602 33.1102 390.47 27.6436 392.367 24.7031C392.367 24.7031 393.02 34.2895 392.367 38.0348C391.913 40.6406 390.199 54.2672 388.478 57.5344L378.071 74.8744L362.779 59.5823C361.48 58.2834 360.651 57.5981 360.181 55.7573C359.105 51.5498 357.153 45.3422 357.145 41.6845C357.137 38.0269 366.994 37.5727 371.178 36.9511V36.9511Z" fill="url(#paint3_linear_104_59)"/>
<path d="M390.518 16.5272C389.498 15.308 389.211 13.5787 389.562 12.0328C389.857 10.7419 392.534 8.24765 393.403 7.45874L387.275 8.94093C386.07 9.23276 384.973 9.85997 384.111 10.7498L370.253 25.0776C370.253 25.0776 383.673 19.4836 390.518 16.5272Z" fill="url(#paint4_linear_104_59)"/>
<path d="M429.501 61.7259C428.163 58.31 427.342 54.7138 427.063 51.0558C422.489 54.1875 419.931 58.2516 412.568 59.2477C410.615 59.5106 407.595 59.8772 405.691 60.3792C403.332 61.0008 401.148 62.7459 397.61 63.0727C395.092 63.3117 388.741 63.1284 389.697 64.5469C390.654 65.9653 396.351 68.8261 397.77 69.9816C399.786 71.5992 401.539 73.5038 403.22 75.4641C404.097 76.492 405.412 78.9863 406.942 79.6636C407.332 79.8389 407.747 79.8867 408.161 79.7592C408.886 79.5441 409.468 79.0181 410.034 78.5161C415.519 73.6561 421.686 69.6238 428.338 66.547C429.047 66.2203 429.812 65.8538 430.163 65.1525C430.314 64.8417 430.378 64.4194 430.386 63.9652C430.107 63.2161 429.796 62.475 429.501 61.7259Z" fill="url(#paint5_linear_104_59)"/>
<path d="M430.928 65.8458C430.824 65.3278 430.673 64.8178 430.498 64.3158C430.362 64.786 430.067 65.3039 429.43 65.79C427.597 67.1925 420.529 69.352 412.751 76.1653C407.675 80.6119 407.667 81.2095 406.575 86.1103C404.79 94.1349 401.953 97.0514 401.412 97.5455C401.706 97.5136 401.969 97.4738 402.185 97.41C405.611 96.4458 421.078 90.7481 423.166 89.6325C425.063 88.6205 430.354 80.2613 430.569 78.022C430.84 75.2808 431.183 67.1288 430.928 65.8458V65.8458Z" fill="url(#paint6_linear_104_59)"/>
<path d="M17.4909 300.969C12.1404 300.969 7.8949 299.544 4.75439 296.694C1.61387 293.845 0.0290788 290.137 0 285.572C0 283.536 0.305328 281.675 0.915983 279.989C1.52664 278.302 2.36992 276.892 3.44584 275.758C4.52176 274.624 5.59767 273.708 6.67359 273.01C7.74951 272.312 8.9272 271.745 10.2067 271.309C12.3294 270.523 14.5249 270.131 16.793 270.131C16.8803 270.131 17.0257 270.131 17.2292 270.131C17.4328 270.131 17.5927 270.145 17.709 270.174C18.6395 270.174 19.5264 270.262 20.3697 270.436C21.213 270.611 21.9545 270.829 22.5942 271.09C23.234 271.352 23.7574 271.599 24.1645 271.832C24.5716 272.065 24.9496 272.312 25.2986 272.573C25.6475 272.835 25.822 272.966 25.822 272.966L29.137 270.218C29.1951 270.16 29.3842 270.131 29.704 270.131C30.082 270.131 30.3147 270.204 30.4019 270.349C30.4891 270.494 30.5473 270.843 30.5764 271.396V273.184V279.203V280.948C30.5764 281.559 30.5182 281.922 30.4019 282.039C30.2856 282.155 29.9948 282.228 29.5295 282.257H29.0934H28.788C28.2355 282.257 27.9157 282.213 27.8284 282.126C27.7412 282.039 27.6394 281.719 27.5231 281.166C27.1742 278.956 26.2436 277.023 24.7315 275.365C23.2194 273.708 21.2421 272.864 18.7995 272.835C14.9901 272.835 12.0823 273.882 10.0758 275.976C9.08713 276.993 8.38924 278.244 7.98214 279.727C7.57503 281.21 7.35694 283.158 7.32786 285.572C7.32786 286.938 7.38602 288.145 7.50234 289.192C7.61865 290.239 7.90944 291.329 8.3747 292.463C8.83996 293.597 9.42154 294.543 10.1194 295.299C10.8173 296.055 11.8351 296.694 13.1727 297.218C14.5103 297.741 16.0515 298.09 17.7962 298.265C18.058 298.294 18.436 298.308 18.9303 298.308C20.2679 298.308 21.3584 298.076 22.2017 297.61C23.045 297.145 23.5393 296.549 23.6847 295.822C23.7138 295.735 23.7283 294.921 23.7283 293.379V291.198H17.4473V288.494H18.1016C18.8867 288.581 21.8091 288.625 26.8688 288.625C30.8236 288.625 33.0626 288.581 33.586 288.494H34.0658V291.198H30.5764V295.604V298.308C30.5764 299.326 30.5473 299.951 30.4891 300.184C30.431 300.416 30.242 300.533 29.9221 300.533C29.6895 300.475 29.0934 300.242 28.1338 299.835C27.1742 299.428 26.4327 299.079 25.9092 298.788L25.4731 298.526C23.8446 300.155 21.1839 300.969 17.4909 300.969Z" fill="black"/>
<path d="M54.3048 287.753C54.3048 287.753 53.854 287.753 52.9526 287.753C52.0511 287.753 51.3242 287.476 50.7717 286.924C50.2192 286.371 49.9429 285.659 49.9429 284.787C49.9429 284.292 50.0447 283.812 50.2483 283.347C50.3355 283.26 50.3791 283.187 50.3791 283.129C50.0883 283.129 49.783 283.202 49.4631 283.347C49.1433 283.493 48.7362 283.769 48.2418 284.176C47.7475 284.583 47.3404 285.252 47.0205 286.182C46.7006 287.113 46.468 288.276 46.3226 289.672C46.2935 289.904 46.279 291.358 46.279 294.034V297.828H50.0738V300.533H49.6376C49.1142 300.446 47.1223 300.402 43.6619 300.402C40.3469 300.402 38.5586 300.446 38.2969 300.533H37.9043V297.828H40.914V291.373V287.316C40.914 285.862 40.8849 284.99 40.8267 284.699C40.7686 284.409 40.5795 284.22 40.2597 284.132C39.8526 284.016 39.2565 283.958 38.4713 283.958H37.9043V281.253H38.0352L41.7863 281.079C44.2871 280.963 45.552 280.905 45.5811 280.905H45.7992V282.475L45.8428 284.045C46.8897 281.98 48.4018 280.948 50.3791 280.948H50.6408C52.4728 280.948 53.8104 281.341 54.6537 282.126C55.497 282.911 55.9186 283.812 55.9186 284.83C55.9186 285.644 55.6569 286.328 55.1335 286.88L54.3048 287.753Z" fill="black"/>
<path d="M60.1053 285.31C60.1053 283.856 60.7305 282.737 61.9808 281.951C63.2312 281.166 65.3831 280.774 68.4363 280.774C71.0825 280.774 73.2198 281.21 74.8482 282.082C76.4766 282.955 77.5089 284.147 77.9451 285.659C78.0905 286.066 78.1632 286.517 78.1632 287.011C78.1632 287.505 78.1778 289.163 78.2068 291.984V297.174C78.6139 297.581 79.3409 297.799 80.3877 297.828C80.9693 297.828 81.3183 297.901 81.4346 298.047C81.5509 298.192 81.6236 298.57 81.6527 299.181C81.6527 299.82 81.5654 300.198 81.391 300.315C81.2165 300.431 80.664 300.504 79.7335 300.533H78.992H78.2941C75.2117 300.533 73.5542 299.719 73.3216 298.09L72.8418 298.526C71.2134 300.038 69.0906 300.795 66.4735 300.795C64.1472 300.795 62.2716 300.271 60.8468 299.224C59.4219 298.177 58.7095 296.854 58.7095 295.255C58.7095 293.307 59.8581 291.78 62.1553 290.675C64.4525 289.57 67.6658 288.901 71.7949 288.669H72.5801V287.796C72.5801 287.186 72.551 286.677 72.4928 286.27C72.4347 285.863 72.2747 285.368 72.013 284.787C71.7513 284.205 71.3006 283.769 70.6609 283.478C70.0211 283.187 69.1779 283.027 68.131 282.998C67.0842 282.969 66.299 283.013 65.7756 283.129H65.5575C65.9937 283.798 66.2118 284.452 66.2118 285.092C66.2118 285.877 65.9646 286.575 65.4703 287.186C64.976 287.796 64.2054 288.116 63.1585 288.145C62.0826 288.145 61.312 287.84 60.8468 287.229C60.3815 286.619 60.1343 285.979 60.1053 285.31ZM64.4671 295.255C64.4671 296.186 64.7869 296.971 65.4267 297.61C66.0664 298.25 66.8225 298.57 67.6948 298.57C68.7417 298.57 69.7449 298.308 70.7045 297.785C71.6641 297.261 72.2311 296.607 72.4056 295.822L72.5801 295.429V290.675H72.4492C69.5704 290.908 67.5204 291.446 66.299 292.289C65.0777 293.132 64.4671 294.121 64.4671 295.255Z" fill="black"/>
<path d="M99.1889 281.166C99.5378 281.254 100.905 281.297 103.289 281.297C105.412 281.297 106.56 281.254 106.735 281.166H106.997V283.871H103.943L99.5378 293.728C97.764 297.741 96.7462 299.922 96.4845 300.271C96.2519 300.562 95.9757 300.707 95.6558 300.707C95.5976 300.707 95.4959 300.707 95.3505 300.707C95.2051 300.707 95.0597 300.693 94.9143 300.664H94.26C93.8238 300.664 93.4749 300.446 93.2132 300.009C92.9515 299.573 92.3263 298.265 91.3376 296.084C90.9014 295.124 90.5525 294.339 90.2908 293.728L85.8853 283.871H82.832V281.166H83.181C83.6172 281.254 85.231 281.297 88.0226 281.297C91.134 281.297 92.9515 281.254 93.4749 281.166H93.8674V283.871H91.7738L94.0855 289.018C95.5686 292.362 96.3537 294.034 96.4409 294.034C96.4409 294.005 97.1824 292.333 98.6655 289.018C100.148 285.703 100.919 284.001 100.977 283.914C100.977 283.885 100.628 283.871 99.9304 283.871H98.8835V281.166H99.1889Z" fill="black"/>
<path d="M111.313 273.926C111.313 272.792 111.691 271.89 112.447 271.221C113.203 270.552 114.09 270.218 115.108 270.218C116.096 270.276 116.94 270.64 117.637 271.309C118.335 271.977 118.684 272.85 118.684 273.926C118.684 275.031 118.335 275.918 117.637 276.586C116.94 277.255 116.067 277.604 115.02 277.633C113.944 277.633 113.058 277.299 112.36 276.63C111.662 275.961 111.313 275.06 111.313 273.926ZM110.179 281.253L114.104 281.079L118.03 280.905H118.292V297.828H120.996V300.533H120.647C120.211 300.446 118.539 300.402 115.631 300.402C112.607 300.402 110.833 300.446 110.31 300.533H109.917V297.828H112.927V291.417C112.927 287.084 112.912 284.859 112.883 284.743C112.738 284.22 111.967 283.958 110.571 283.958H110.048V281.253H110.179Z" fill="black"/>
<path d="M133.951 298.395C135.347 298.395 136.045 297.131 136.045 294.601V294.208V292.812H138.749V294.295C138.749 295.371 138.72 296.011 138.662 296.215C138.487 297.29 138.037 298.206 137.31 298.963C136.583 299.719 135.652 300.271 134.518 300.62L133.951 300.751H132.861C130.709 300.751 129.066 300.286 127.932 299.355C127.205 298.803 126.74 298.119 126.536 297.305C126.332 296.491 126.216 295.24 126.187 293.554C126.187 293.234 126.187 292.667 126.187 291.853C126.187 291.039 126.202 290.37 126.231 289.846V283.871H123.003V281.646H123.177C124.137 281.646 125.082 281.312 126.013 280.643C126.914 279.974 127.641 279 128.194 277.72C128.746 276.441 129.066 275.016 129.153 273.446V272.835H131.857V281.166H137.92V283.871H131.857V290.108V291.504V294.034C131.857 295.517 131.916 296.505 132.032 297C132.148 297.494 132.454 297.872 132.948 298.134C133.297 298.308 133.631 298.395 133.951 298.395Z" fill="black"/>
<path d="M144.377 285.31C144.377 283.856 145.002 282.737 146.253 281.951C147.503 281.166 149.655 280.774 152.708 280.774C155.354 280.774 157.492 281.21 159.12 282.082C160.749 282.955 161.781 284.147 162.217 285.659C162.362 286.066 162.435 286.517 162.435 287.011C162.435 287.505 162.45 289.163 162.479 291.984V297.174C162.886 297.581 163.613 297.799 164.66 297.828C165.241 297.828 165.59 297.901 165.707 298.047C165.823 298.192 165.896 298.57 165.925 299.181C165.925 299.82 165.837 300.198 165.663 300.315C165.488 300.431 164.936 300.504 164.005 300.533H163.264H162.566C159.484 300.533 157.826 299.719 157.594 298.09L157.114 298.526C155.485 300.038 153.363 300.795 150.745 300.795C148.419 300.795 146.544 300.271 145.119 299.224C143.694 298.177 142.981 296.854 142.981 295.255C142.981 293.307 144.13 291.78 146.427 290.675C148.725 289.57 151.938 288.901 156.067 288.669H156.852V287.796C156.852 287.186 156.823 286.677 156.765 286.27C156.707 285.863 156.547 285.368 156.285 284.787C156.023 284.205 155.573 283.769 154.933 283.478C154.293 283.187 153.45 283.027 152.403 282.998C151.356 282.969 150.571 283.013 150.048 283.129H149.83C150.266 283.798 150.484 284.452 150.484 285.092C150.484 285.877 150.237 286.575 149.742 287.186C149.248 287.796 148.477 288.116 147.431 288.145C146.355 288.145 145.584 287.84 145.119 287.229C144.653 286.619 144.406 285.979 144.377 285.31ZM148.739 295.255C148.739 296.186 149.059 296.971 149.699 297.61C150.338 298.25 151.094 298.57 151.967 298.57C153.014 298.57 154.017 298.308 154.976 297.785C155.936 297.261 156.503 296.607 156.678 295.822L156.852 295.429V290.675H156.721C153.842 290.908 151.792 291.446 150.571 292.289C149.35 293.132 148.739 294.121 148.739 295.255Z" fill="black"/>
<path d="M177.832 298.395C179.228 298.395 179.926 297.131 179.926 294.601V294.208V292.812H182.63V294.295C182.63 295.371 182.601 296.011 182.543 296.215C182.369 297.29 181.918 298.206 181.191 298.963C180.464 299.719 179.534 300.271 178.399 300.62L177.832 300.751H176.742C174.59 300.751 172.947 300.286 171.813 299.355C171.086 298.803 170.621 298.119 170.417 297.305C170.214 296.491 170.097 295.24 170.068 293.554C170.068 293.234 170.068 292.667 170.068 291.853C170.068 291.039 170.083 290.37 170.112 289.846V283.871H166.884V281.646H167.059C168.018 281.646 168.963 281.312 169.894 280.643C170.795 279.974 171.522 279 172.075 277.72C172.627 276.441 172.947 275.016 173.034 273.446V272.835H175.739V281.166H181.802V283.871H175.739V290.108V291.504V294.034C175.739 295.517 175.797 296.505 175.913 297C176.03 297.494 176.335 297.872 176.829 298.134C177.178 298.308 177.513 298.395 177.832 298.395Z" fill="black"/>
<path d="M188.605 273.926C188.605 272.792 188.983 271.89 189.739 271.221C190.495 270.552 191.382 270.218 192.4 270.218C193.388 270.276 194.232 270.64 194.929 271.309C195.627 271.977 195.976 272.85 195.976 273.926C195.976 275.031 195.627 275.918 194.929 276.586C194.232 277.255 193.359 277.604 192.312 277.633C191.236 277.633 190.349 277.299 189.652 276.63C188.954 275.961 188.605 275.06 188.605 273.926ZM187.471 281.253L191.396 281.079L195.322 280.905H195.584V297.828H198.288V300.533H197.939C197.503 300.446 195.831 300.402 192.923 300.402C189.899 300.402 188.125 300.446 187.602 300.533H187.209V297.828H190.219V291.417C190.219 287.084 190.204 284.859 190.175 284.743C190.03 284.22 189.259 283.958 187.863 283.958H187.34V281.253H187.471Z" fill="black"/>
<path d="M211.898 300.751C210.182 300.751 208.656 300.533 207.318 300.097C205.981 299.66 204.919 299.108 204.134 298.439C203.349 297.77 202.68 296.985 202.128 296.084C201.575 295.182 201.226 294.324 201.081 293.51C200.935 292.696 200.834 291.853 200.775 290.98C200.775 289.439 201.037 288.058 201.561 286.837C202.084 285.615 202.724 284.627 203.48 283.871C204.236 283.115 205.108 282.518 206.097 282.082C207.085 281.646 207.958 281.312 208.714 281.079C209.47 280.846 210.211 280.759 210.938 280.817H211.549C212.712 280.817 213.396 280.832 213.599 280.861C216.565 281.21 218.877 282.3 220.534 284.132C222.192 285.964 223.021 288.218 223.021 290.893C223.021 292.783 222.614 294.426 221.799 295.822C220.985 297.218 219.938 298.308 218.659 299.093C216.972 300.198 214.719 300.751 211.898 300.751ZM216.783 290.501V289.628C216.783 288.756 216.769 288.058 216.74 287.535C216.711 287.011 216.609 286.43 216.434 285.79C216.26 285.15 215.984 284.656 215.606 284.307C215.228 283.958 214.733 283.667 214.123 283.434C213.512 283.202 212.698 283.071 211.68 283.042C210.488 283.042 209.47 283.347 208.627 283.958C207.987 284.452 207.565 285.121 207.362 285.964C207.158 286.808 207.042 288.32 207.013 290.501C207.013 291.315 207.013 291.911 207.013 292.289C207.013 292.667 207.042 293.19 207.1 293.859C207.158 294.528 207.245 295.037 207.362 295.386C207.478 295.735 207.653 296.127 207.885 296.564C208.118 297 208.409 297.334 208.758 297.567C209.106 297.799 209.543 297.974 210.066 298.09C210.589 298.206 211.2 298.294 211.898 298.352C213.672 298.352 214.937 297.858 215.693 296.869C216.1 296.375 216.376 295.677 216.522 294.775C216.667 293.874 216.754 292.449 216.783 290.501Z" fill="black"/>
<path d="M226.204 281.253C231.351 281.021 233.939 280.905 233.968 280.905H234.23V282.78L234.273 284.612C234.506 284.234 234.797 283.856 235.146 283.478C235.495 283.1 236.135 282.649 237.065 282.126C237.996 281.602 239.057 281.224 240.249 280.992C240.598 280.934 241.122 280.905 241.819 280.905C242.692 280.905 243.419 280.948 244 281.035C244.582 281.123 245.207 281.312 245.876 281.602C246.545 281.893 247.097 282.358 247.533 282.998C247.97 283.638 248.289 284.452 248.493 285.441C248.551 285.761 248.595 287.913 248.624 291.896V297.828H251.634V300.533H251.241C250.718 300.446 248.9 300.402 245.789 300.402C242.445 300.402 240.642 300.446 240.38 300.533H239.987V297.828H242.997V292.071V288.538C242.997 286.415 242.866 284.99 242.605 284.263C242.343 283.536 241.689 283.158 240.642 283.129C239.333 283.129 238.126 283.551 237.021 284.394C235.916 285.237 235.189 286.4 234.841 287.883C234.782 288.145 234.739 289.875 234.71 293.074V297.828H237.719V300.533H237.327C236.803 300.446 235 300.402 231.918 300.402C228.807 300.402 226.989 300.446 226.466 300.533H226.073V297.828H229.083V291.373V287.316C229.083 285.862 229.054 284.99 228.996 284.699C228.938 284.409 228.748 284.22 228.429 284.132C228.022 284.016 227.425 283.958 226.64 283.958H226.073V281.253H226.204Z" fill="black"/>
<path d="M255.124 285.31C255.124 283.856 255.749 282.737 256.999 281.951C258.25 281.166 260.402 280.774 263.455 280.774C266.101 280.774 268.238 281.21 269.867 282.082C271.495 282.955 272.527 284.147 272.964 285.659C273.109 286.066 273.182 286.517 273.182 287.011C273.182 287.505 273.196 289.163 273.225 291.984V297.174C273.632 297.581 274.359 297.799 275.406 297.828C275.988 297.828 276.337 297.901 276.453 298.047C276.569 298.192 276.642 298.57 276.671 299.181C276.671 299.82 276.584 300.198 276.41 300.315C276.235 300.431 275.683 300.504 274.752 300.533H274.011H273.313C270.23 300.533 268.573 299.719 268.34 298.09L267.86 298.526C266.232 300.038 264.109 300.795 261.492 300.795C259.166 300.795 257.29 300.271 255.865 299.224C254.44 298.177 253.728 296.854 253.728 295.255C253.728 293.307 254.877 291.78 257.174 290.675C259.471 289.57 262.684 288.901 266.814 288.669H267.599V287.796C267.599 287.186 267.57 286.677 267.511 286.27C267.453 285.863 267.293 285.368 267.032 284.787C266.77 284.205 266.319 283.769 265.679 283.478C265.04 283.187 264.196 283.027 263.15 282.998C262.103 282.969 261.318 283.013 260.794 283.129H260.576C261.012 283.798 261.23 284.452 261.23 285.092C261.23 285.877 260.983 286.575 260.489 287.186C259.995 287.796 259.224 288.116 258.177 288.145C257.101 288.145 256.331 287.84 255.865 287.229C255.4 286.619 255.153 285.979 255.124 285.31ZM259.486 295.255C259.486 296.186 259.806 296.971 260.445 297.61C261.085 298.25 261.841 298.57 262.713 298.57C263.76 298.57 264.763 298.308 265.723 297.785C266.683 297.261 267.25 296.607 267.424 295.822L267.599 295.429V290.675H267.468C264.589 290.908 262.539 291.446 261.318 292.289C260.096 293.132 259.486 294.121 259.486 295.255Z" fill="black"/>
<path d="M278.59 270.611L282.559 270.436C285.205 270.32 286.543 270.262 286.572 270.262H286.834V297.828H289.843V300.533H289.451C288.927 300.446 287.154 300.402 284.129 300.402C281.134 300.402 279.375 300.446 278.852 300.533H278.459V297.828H281.469V286.051C281.469 284.452 281.469 282.693 281.469 280.774C281.469 278.854 281.483 277.677 281.512 277.241C281.512 275.525 281.483 274.493 281.425 274.144C281.367 273.795 281.163 273.577 280.814 273.489C280.407 273.373 279.811 273.315 279.026 273.315H278.459V270.611H278.59Z" fill="black"/>
<path d="M302.928 281.254L306.897 281.079C309.544 280.963 310.881 280.905 310.91 280.905H311.172V282.693C311.201 282.693 311.317 282.635 311.521 282.518C311.725 282.402 312.044 282.257 312.481 282.082C312.917 281.908 313.397 281.719 313.92 281.515C314.443 281.312 315.083 281.166 315.839 281.079C316.595 280.992 317.38 280.934 318.195 280.905C321.044 280.905 323.342 281.806 325.086 283.609C326.831 285.412 327.703 287.811 327.703 290.806C327.703 293.568 326.816 295.924 325.043 297.872C323.269 299.82 320.681 300.794 317.279 300.794H316.973C315.17 300.794 313.455 300.3 311.826 299.311L311.434 299.05V306.29H314.443V308.995H314.051C313.527 308.907 311.725 308.864 308.642 308.864C305.531 308.864 303.713 308.907 303.19 308.995H302.797V306.29H305.807V295.604V288.145C305.807 286.808 305.792 285.877 305.763 285.354C305.734 284.83 305.676 284.51 305.589 284.394C305.502 284.278 305.356 284.19 305.153 284.132C304.746 284.016 304.15 283.958 303.364 283.958H302.797V281.254H302.928ZM321.466 290.762C321.466 288.465 321.03 286.648 320.157 285.31C319.285 283.972 318.166 283.304 316.799 283.304C314.821 283.304 313.149 283.929 311.783 285.179L311.434 285.484V295.996L311.695 296.302C312.888 297.814 314.4 298.57 316.232 298.57C317.569 298.57 318.776 297.974 319.852 296.782C320.928 295.589 321.466 293.583 321.466 290.762Z" fill="black"/>
<path d="M341.923 300.751C340.207 300.751 338.681 300.533 337.343 300.097C336.005 299.66 334.944 299.108 334.159 298.439C333.374 297.77 332.705 296.985 332.152 296.084C331.6 295.182 331.251 294.324 331.106 293.51C330.96 292.696 330.858 291.853 330.8 290.98C330.8 289.439 331.062 288.058 331.585 286.837C332.109 285.615 332.749 284.627 333.505 283.871C334.261 283.115 335.133 282.518 336.122 282.082C337.11 281.646 337.983 281.312 338.739 281.079C339.495 280.846 340.236 280.759 340.963 280.817H341.574C342.737 280.817 343.421 280.832 343.624 280.861C346.59 281.21 348.902 282.3 350.559 284.132C352.217 285.964 353.046 288.218 353.046 290.893C353.046 292.783 352.638 294.426 351.824 295.822C351.01 297.218 349.963 298.308 348.684 299.093C346.997 300.198 344.744 300.751 341.923 300.751ZM346.808 290.501V289.628C346.808 288.756 346.794 288.058 346.765 287.535C346.735 287.011 346.634 286.43 346.459 285.79C346.285 285.15 346.009 284.656 345.63 284.307C345.252 283.958 344.758 283.667 344.147 283.434C343.537 283.202 342.723 283.071 341.705 283.042C340.513 283.042 339.495 283.347 338.652 283.958C338.012 284.452 337.59 285.121 337.387 285.964C337.183 286.808 337.067 288.32 337.038 290.501C337.038 291.315 337.038 291.911 337.038 292.289C337.038 292.667 337.067 293.19 337.125 293.859C337.183 294.528 337.27 295.037 337.387 295.386C337.503 295.735 337.677 296.127 337.91 296.564C338.143 297 338.433 297.334 338.782 297.567C339.131 297.799 339.568 297.974 340.091 298.09C340.614 298.206 341.225 298.294 341.923 298.352C343.697 298.352 344.962 297.858 345.718 296.869C346.125 296.375 346.401 295.677 346.546 294.775C346.692 293.874 346.779 292.449 346.808 290.501Z" fill="black"/>
<path d="M366.35 298.395C367.745 298.395 368.443 297.131 368.443 294.601V294.208V292.812H371.148V294.295C371.148 295.371 371.118 296.011 371.06 296.215C370.886 297.29 370.435 298.206 369.708 298.963C368.981 299.719 368.051 300.271 366.917 300.62L366.35 300.751H365.259C363.107 300.751 361.464 300.286 360.33 299.355C359.603 298.803 359.138 298.119 358.934 297.305C358.731 296.491 358.615 295.24 358.585 293.554C358.585 293.234 358.585 292.667 358.585 291.853C358.585 291.039 358.6 290.37 358.629 289.846V283.871H355.401V281.646H355.576C356.535 281.646 357.481 281.312 358.411 280.643C359.312 279.974 360.039 279 360.592 277.72C361.144 276.441 361.464 275.016 361.552 273.446V272.835H364.256V281.166H370.319V283.871H364.256V290.108V291.504V294.034C364.256 295.517 364.314 296.505 364.43 297C364.547 297.494 364.852 297.872 365.346 298.134C365.695 298.308 366.03 298.395 366.35 298.395Z" fill="black"/>
<path d="M375.379 290.719C375.379 287.607 376.397 285.179 378.433 283.434C380.468 281.69 382.94 280.817 385.848 280.817H386.328C389.206 280.817 391.431 281.559 393.001 283.042C394.688 284.728 395.531 287.026 395.531 289.934C395.531 290.428 395.415 290.733 395.182 290.85C394.949 290.966 394.281 291.039 393.176 291.068C392.914 291.068 392.245 291.068 391.169 291.068C390.093 291.068 389.119 291.053 388.247 291.024H381.617V291.417C381.617 292.347 381.675 293.147 381.791 293.816C381.908 294.484 382.155 295.168 382.533 295.866C382.911 296.564 383.492 297.116 384.278 297.523C385.063 297.93 386.08 298.206 387.331 298.352C387.505 298.381 387.752 298.395 388.072 298.395C389.613 298.395 390.878 297.872 391.867 296.825C392.187 296.418 392.434 296.04 392.609 295.691C392.783 295.342 392.885 295.11 392.914 294.993C392.943 294.877 393.059 294.79 393.263 294.732C393.466 294.673 393.772 294.644 394.179 294.644H394.397C395.153 294.644 395.531 294.906 395.531 295.429C395.531 295.633 395.458 295.924 395.313 296.302C395.168 296.68 394.862 297.131 394.397 297.654C393.932 298.177 393.394 298.672 392.783 299.137C392.172 299.602 391.329 299.995 390.253 300.315C389.177 300.635 388 300.795 386.72 300.795C383.492 300.795 380.803 299.908 378.651 298.134C376.499 296.36 375.408 293.888 375.379 290.719ZM390.689 288.494C390.515 286.459 390.006 285.034 389.163 284.22C388.319 283.405 387.331 282.998 386.197 282.998C385.412 282.998 384.685 283.173 384.016 283.522C383.347 283.871 382.838 284.35 382.489 284.961C382.024 285.717 381.748 286.851 381.66 288.363V288.93H390.689V288.494Z" fill="black"/>
<path d="M398.715 281.253C403.862 281.021 406.45 280.905 406.479 280.905H406.741V282.78L406.784 284.612C407.017 284.234 407.308 283.856 407.657 283.478C408.006 283.1 408.645 282.649 409.576 282.126C410.506 281.602 411.568 281.224 412.76 280.992C413.109 280.934 413.632 280.905 414.33 280.905C415.203 280.905 415.93 280.948 416.511 281.035C417.093 281.123 417.718 281.312 418.387 281.602C419.055 281.893 419.608 282.358 420.044 282.998C420.48 283.638 420.8 284.452 421.004 285.441C421.062 285.761 421.106 287.913 421.135 291.896V297.828H424.144V300.533H423.752C423.228 300.446 421.411 300.402 418.299 300.402C414.955 300.402 413.152 300.446 412.891 300.533H412.498V297.828H415.508V292.071V288.538C415.508 286.415 415.377 284.99 415.115 284.263C414.854 283.536 414.199 283.158 413.152 283.129C411.844 283.129 410.637 283.551 409.532 284.394C408.427 285.237 407.7 286.4 407.351 287.883C407.293 288.145 407.249 289.875 407.22 293.074V297.828H410.23V300.533H409.837C409.314 300.446 407.511 300.402 404.429 300.402C401.317 300.402 399.5 300.446 398.977 300.533H398.584V297.828H401.594V291.373V287.316C401.594 285.862 401.565 284.99 401.506 284.699C401.448 284.409 401.259 284.22 400.939 284.132C400.532 284.016 399.936 283.958 399.151 283.958H398.584V281.253H398.715Z" fill="black"/>
<path d="M436.706 298.395C438.102 298.395 438.8 297.131 438.8 294.601V294.208V292.812H441.504V294.295C441.504 295.371 441.475 296.011 441.417 296.215C441.243 297.29 440.792 298.206 440.065 298.963C439.338 299.719 438.408 300.271 437.274 300.62L436.706 300.751H435.616C433.464 300.751 431.821 300.286 430.687 299.355C429.96 298.803 429.495 298.119 429.291 297.305C429.088 296.491 428.972 295.24 428.942 293.554C428.942 293.234 428.942 292.667 428.942 291.853C428.942 291.039 428.957 290.37 428.986 289.846V283.871H425.758V281.646H425.933C426.892 281.646 427.837 281.312 428.768 280.643C429.669 279.974 430.396 279 430.949 277.72C431.501 276.441 431.821 275.016 431.908 273.446V272.835H434.613V281.166H440.676V283.871H434.613V290.108V291.504V294.034C434.613 295.517 434.671 296.505 434.787 297C434.904 297.494 435.209 297.872 435.703 298.134C436.052 298.308 436.387 298.395 436.706 298.395Z" fill="black"/>
<path d="M447.479 273.926C447.479 272.792 447.857 271.89 448.613 271.221C449.369 270.552 450.256 270.218 451.274 270.218C452.262 270.276 453.106 270.64 453.803 271.309C454.501 271.977 454.85 272.85 454.85 273.926C454.85 275.031 454.501 275.918 453.803 276.586C453.106 277.255 452.233 277.604 451.186 277.633C450.11 277.633 449.224 277.299 448.526 276.63C447.828 275.961 447.479 275.06 447.479 273.926ZM446.345 281.253L450.27 281.079L454.196 280.905H454.458V297.828H457.162V300.533H456.813C456.377 300.446 454.705 300.402 451.797 300.402C448.773 300.402 446.999 300.446 446.476 300.533H446.083V297.828H449.093V291.417C449.093 287.084 449.078 284.859 449.049 284.743C448.904 284.22 448.133 283.958 446.737 283.958H446.214V281.253H446.345Z" fill="black"/>
<path d="M461.045 285.31C461.045 283.856 461.67 282.737 462.92 281.951C464.171 281.166 466.323 280.774 469.376 280.774C472.022 280.774 474.159 281.21 475.788 282.082C477.416 282.955 478.448 284.147 478.885 285.659C479.03 286.066 479.103 286.517 479.103 287.011C479.103 287.505 479.117 289.163 479.146 291.984V297.174C479.553 297.581 480.28 297.799 481.327 297.828C481.909 297.828 482.258 297.901 482.374 298.047C482.49 298.192 482.563 298.57 482.592 299.181C482.592 299.82 482.505 300.198 482.33 300.315C482.156 300.431 481.603 300.504 480.673 300.533H479.931H479.234C476.151 300.533 474.494 299.719 474.261 298.09L473.781 298.526C472.153 300.038 470.03 300.794 467.413 300.794C465.087 300.794 463.211 300.271 461.786 299.224C460.361 298.177 459.649 296.854 459.649 295.255C459.649 293.307 460.798 291.78 463.095 290.675C465.392 289.57 468.605 288.901 472.734 288.669H473.52V287.796C473.52 287.186 473.49 286.677 473.432 286.27C473.374 285.863 473.214 285.368 472.952 284.787C472.691 284.205 472.24 283.769 471.6 283.478C470.961 283.187 470.117 283.027 469.07 282.998C468.024 282.969 467.239 283.013 466.715 283.129H466.497C466.933 283.798 467.151 284.452 467.151 285.092C467.151 285.877 466.904 286.575 466.41 287.186C465.915 287.796 465.145 288.116 464.098 288.145C463.022 288.145 462.251 287.84 461.786 287.229C461.321 286.619 461.074 285.979 461.045 285.31ZM465.407 295.255C465.407 296.185 465.726 296.971 466.366 297.61C467.006 298.25 467.762 298.57 468.634 298.57C469.681 298.57 470.684 298.308 471.644 297.785C472.604 297.261 473.171 296.607 473.345 295.822L473.52 295.429V290.675H473.389C470.51 290.908 468.46 291.446 467.239 292.289C466.017 293.132 465.407 294.121 465.407 295.255Z" fill="black"/>
<path d="M484.512 270.611L488.481 270.436C491.127 270.32 492.465 270.262 492.494 270.262H492.756V297.828H495.765V300.533H495.373C494.849 300.446 493.075 300.402 490.051 300.402C487.056 300.402 485.297 300.446 484.773 300.533H484.381V297.828H487.391V286.051C487.391 284.452 487.391 282.693 487.391 280.774C487.391 278.854 487.405 277.677 487.434 277.241C487.434 275.525 487.405 274.493 487.347 274.144C487.289 273.795 487.085 273.577 486.736 273.489C486.329 273.373 485.733 273.315 484.948 273.315H484.381V270.611H484.512Z" fill="black"/>
<path d="M508.851 290.719C508.851 287.607 509.869 285.179 511.904 283.434C513.94 281.69 516.412 280.817 519.319 280.817H519.799C522.678 280.817 524.903 281.559 526.473 283.042C528.159 284.728 529.003 287.026 529.003 289.934C529.003 290.428 528.886 290.733 528.654 290.85C528.421 290.966 527.752 291.039 526.647 291.068C526.386 291.068 525.717 291.068 524.641 291.068C523.565 291.068 522.591 291.053 521.718 291.024H515.088V291.417C515.088 292.347 515.147 293.147 515.263 293.816C515.379 294.484 515.626 295.168 516.004 295.866C516.382 296.564 516.964 297.116 517.749 297.523C518.534 297.93 519.552 298.206 520.802 298.352C520.977 298.381 521.224 298.395 521.544 298.395C523.085 298.395 524.35 297.872 525.339 296.825C525.659 296.418 525.906 296.04 526.08 295.691C526.255 295.342 526.357 295.11 526.386 294.993C526.415 294.877 526.531 294.79 526.735 294.732C526.938 294.673 527.243 294.644 527.651 294.644H527.869C528.625 294.644 529.003 294.906 529.003 295.429C529.003 295.633 528.93 295.924 528.785 296.302C528.639 296.68 528.334 297.131 527.869 297.654C527.403 298.177 526.865 298.672 526.255 299.137C525.644 299.602 524.801 299.995 523.725 300.315C522.649 300.635 521.471 300.795 520.192 300.795C516.964 300.795 514.274 299.908 512.122 298.134C509.971 296.36 508.88 293.888 508.851 290.719ZM524.161 288.494C523.987 286.459 523.478 285.034 522.634 284.22C521.791 283.405 520.802 282.998 519.668 282.998C518.883 282.998 518.156 283.173 517.487 283.522C516.819 283.871 516.31 284.35 515.961 284.961C515.496 285.717 515.219 286.851 515.132 288.363V288.93H524.161V288.494Z" fill="black"/>
<path d="M532.187 281.253C537.334 281.021 539.922 280.905 539.951 280.905H540.213V282.78L540.256 284.612C540.489 284.234 540.78 283.856 541.129 283.478C541.478 283.1 542.117 282.649 543.048 282.126C543.978 281.602 545.04 281.224 546.232 280.992C546.581 280.934 547.104 280.905 547.802 280.905C548.675 280.905 549.402 280.948 549.983 281.035C550.565 281.123 551.19 281.312 551.859 281.602C552.528 281.893 553.08 282.358 553.516 282.998C553.953 283.638 554.272 284.452 554.476 285.441C554.534 285.761 554.578 287.913 554.607 291.896V297.828H557.616V300.533H557.224C556.7 300.446 554.883 300.402 551.772 300.402C548.428 300.402 546.625 300.446 546.363 300.533H545.97V297.828H548.98V292.071V288.538C548.98 286.415 548.849 284.99 548.587 284.263C548.326 283.536 547.671 283.158 546.625 283.129C545.316 283.129 544.109 283.551 543.004 284.394C541.899 285.237 541.172 286.4 540.823 287.883C540.765 288.145 540.722 289.875 540.693 293.074V297.828H543.702V300.533H543.31C542.786 300.446 540.983 300.402 537.901 300.402C534.79 300.402 532.972 300.446 532.449 300.533H532.056V297.828H535.066V291.373V287.316C535.066 285.862 535.037 284.99 534.979 284.699C534.92 284.409 534.731 284.22 534.412 284.132C534.004 284.016 533.408 283.958 532.623 283.958H532.056V281.253H532.187Z" fill="black"/>
<path d="M559.708 290.719C559.708 287.607 560.726 285.179 562.762 283.434C564.797 281.69 567.269 280.817 570.177 280.817H570.657C573.535 280.817 575.76 281.559 577.33 283.042C579.017 284.728 579.86 287.026 579.86 289.934C579.86 290.428 579.744 290.733 579.511 290.85C579.279 290.966 578.61 291.039 577.505 291.068C577.243 291.068 576.574 291.068 575.498 291.068C574.422 291.068 573.448 291.053 572.576 291.024H565.946V291.417C565.946 292.347 566.004 293.147 566.12 293.816C566.237 294.484 566.484 295.168 566.862 295.866C567.24 296.564 567.821 297.116 568.607 297.523C569.392 297.93 570.41 298.206 571.66 298.352C571.834 298.381 572.082 298.395 572.401 298.395C573.943 298.395 575.208 297.872 576.196 296.825C576.516 296.418 576.763 296.04 576.938 295.691C577.112 295.342 577.214 295.11 577.243 294.993C577.272 294.877 577.388 294.79 577.592 294.732C577.796 294.673 578.101 294.644 578.508 294.644H578.726C579.482 294.644 579.86 294.906 579.86 295.429C579.86 295.633 579.787 295.924 579.642 296.302C579.497 296.68 579.191 297.131 578.726 297.654C578.261 298.177 577.723 298.672 577.112 299.137C576.502 299.602 575.658 299.995 574.582 300.315C573.506 300.635 572.329 300.795 571.049 300.795C567.821 300.795 565.132 299.908 562.98 298.134C560.828 296.36 559.738 293.888 559.708 290.719ZM575.018 288.494C574.844 286.459 574.335 285.034 573.492 284.22C572.649 283.405 571.66 282.998 570.526 282.998C569.741 282.998 569.014 283.173 568.345 283.522C567.676 283.871 567.167 284.35 566.818 284.961C566.353 285.717 566.077 286.851 565.99 288.363V288.93H575.018V288.494Z" fill="black"/>
<path d="M598.966 287.753C598.966 287.753 598.515 287.753 597.614 287.753C596.712 287.753 595.985 287.476 595.433 286.924C594.88 286.371 594.604 285.659 594.604 284.787C594.604 284.292 594.706 283.812 594.909 283.347C594.997 283.26 595.04 283.187 595.04 283.129C594.749 283.129 594.444 283.202 594.124 283.347C593.804 283.493 593.397 283.769 592.903 284.176C592.409 284.583 592.002 285.252 591.682 286.182C591.362 287.113 591.129 288.276 590.984 289.672C590.955 289.904 590.94 291.358 590.94 294.034V297.828H594.735V300.533H594.299C593.775 300.446 591.783 300.402 588.323 300.402C585.008 300.402 583.22 300.446 582.958 300.533H582.565V297.828H585.575V291.373V287.316C585.575 285.862 585.546 284.99 585.488 284.699C585.43 284.409 585.241 284.22 584.921 284.132C584.514 284.016 583.918 283.958 583.132 283.958H582.565V281.253H582.696L586.447 281.079C588.948 280.963 590.213 280.905 590.242 280.905H590.46V282.475L590.504 284.045C591.551 281.98 593.063 280.948 595.04 280.948H595.302C597.134 280.948 598.472 281.341 599.315 282.126C600.158 282.911 600.58 283.812 600.58 284.83C600.58 285.644 600.318 286.328 599.795 286.88L598.966 287.753Z" fill="black"/>
<path d="M604.156 287.447C604.156 285.47 604.955 283.885 606.555 282.693C608.154 281.501 610.335 280.905 613.097 280.905C615.22 280.905 616.979 281.254 618.375 281.951L618.899 282.213C620.265 281.195 621.734 280.686 623.304 280.686C624.118 280.686 624.758 280.89 625.223 281.297C625.688 281.704 625.994 282.097 626.139 282.475C626.285 282.853 626.343 283.216 626.314 283.565C626.314 284.205 626.11 284.728 625.703 285.136C625.296 285.543 624.772 285.746 624.133 285.746C623.435 285.746 622.897 285.528 622.519 285.092C622.141 284.656 621.952 284.176 621.952 283.653C621.952 283.362 622.01 283.173 622.126 283.085C622.184 283.056 622.17 283.056 622.083 283.085C622.025 283.085 621.923 283.1 621.777 283.129C621.05 283.333 620.658 283.464 620.6 283.522C621.385 284.598 621.85 285.499 621.995 286.226C622.054 286.604 622.083 287.011 622.083 287.447C622.083 289.192 621.472 290.617 620.251 291.722C618.651 293.263 616.165 294.034 612.792 294.034C610.96 294.034 609.332 293.699 607.907 293.03C607.703 293.438 607.601 293.786 607.601 294.077C607.601 295.328 608.198 296.127 609.39 296.476C609.564 296.534 610.916 296.564 613.446 296.564C613.737 296.564 614.246 296.564 614.973 296.564C615.7 296.564 616.223 296.564 616.543 296.564C616.863 296.564 617.328 296.593 617.939 296.651C618.55 296.709 619.044 296.767 619.422 296.825C619.8 296.883 620.265 297 620.818 297.174C621.37 297.349 621.865 297.538 622.301 297.741C624.569 298.963 625.703 300.896 625.703 303.542C625.703 304.851 625.15 305.956 624.045 306.857C622.068 308.486 618.884 309.3 614.493 309.3C610.48 309.3 607.616 308.718 605.9 307.555C604.185 306.392 603.312 305.069 603.283 303.586C603.283 303.237 603.327 302.903 603.414 302.583C603.501 302.263 603.632 301.972 603.807 301.71C603.981 301.449 604.156 301.245 604.33 301.1C604.505 300.954 604.723 300.78 604.984 300.576C605.246 300.373 605.435 300.271 605.551 300.271C605.668 300.271 605.842 300.184 606.075 300.009C606.307 299.835 606.409 299.791 606.38 299.879C605.362 298.657 604.853 297.334 604.853 295.909C604.853 294.601 605.202 293.423 605.9 292.376L606.206 291.94L605.857 291.635C604.723 290.501 604.156 289.105 604.156 287.447ZM623.13 282.955H623.435C623.406 282.926 623.348 282.911 623.26 282.911L623.13 282.955ZM613.097 291.809C613.795 291.809 614.377 291.722 614.842 291.547C615.307 291.373 615.656 291.184 615.889 290.98C616.122 290.777 616.296 290.442 616.412 289.977C616.529 289.512 616.587 289.134 616.587 288.843C616.587 288.552 616.601 288.087 616.63 287.447C616.63 286.371 616.587 285.615 616.5 285.179C616.412 284.743 616.18 284.336 615.802 283.958C615.249 283.405 614.348 283.129 613.097 283.129C612.312 283.129 611.672 283.231 611.178 283.434C610.684 283.638 610.335 283.943 610.131 284.35C609.928 284.758 609.797 285.136 609.739 285.484C609.681 285.833 609.651 286.313 609.651 286.924V287.447V287.927C609.651 289.497 609.913 290.515 610.437 290.98C611.047 291.533 611.934 291.809 613.097 291.809ZM614.493 307.076C616.529 307.076 618.172 306.756 619.422 306.116C620.672 305.476 621.298 304.647 621.298 303.63C621.298 303.455 621.283 303.31 621.254 303.193C621.225 303.077 621.138 302.917 620.992 302.714C620.847 302.51 620.614 302.321 620.294 302.147C619.974 301.972 619.524 301.827 618.942 301.71C618.361 301.594 617.634 301.507 616.761 301.449L615.409 301.405C614.479 301.405 613.679 301.405 613.01 301.405C611.178 301.405 610.117 301.405 609.826 301.405C609.535 301.405 609.186 301.492 608.779 301.667C608.023 302.016 607.645 302.641 607.645 303.542C607.645 304.589 608.27 305.433 609.521 306.072C610.771 306.712 612.428 307.046 614.493 307.076Z" fill="black"/>
<path d="M630.72 304.982C630.72 305.214 630.763 305.462 630.851 305.723C630.938 305.985 631.156 306.261 631.505 306.552C631.854 306.843 632.305 307.003 632.857 307.032C633.293 307.003 633.715 306.916 634.122 306.77C634.529 306.625 634.878 306.45 635.169 306.247C635.46 306.043 635.75 305.796 636.041 305.505C636.332 305.214 636.565 304.938 636.739 304.677C636.914 304.415 637.088 304.139 637.263 303.848C637.437 303.557 637.568 303.31 637.655 303.106C637.742 302.903 637.83 302.699 637.917 302.496C638.004 302.292 638.048 302.176 638.048 302.147L638.789 300.533L631.243 283.871H628.19V281.166H628.539C628.975 281.254 630.603 281.297 633.424 281.297C636.506 281.297 638.309 281.254 638.833 281.166H639.225V283.871H638.179C637.51 283.871 637.175 283.9 637.175 283.958L641.755 293.946L646.335 283.871H644.241V281.166H644.547C644.896 281.254 646.262 281.297 648.647 281.297C650.77 281.297 651.918 281.254 652.093 281.166H652.354V283.871H649.301L644.765 293.903C641.624 300.765 640.04 304.24 640.01 304.328C639.196 305.84 638.149 307.032 636.87 307.904C635.59 308.777 634.224 309.227 632.77 309.256C631.432 309.256 630.313 308.849 629.411 308.035C628.51 307.221 628.059 306.174 628.059 304.895C628.059 303.848 628.364 303.121 628.975 302.714C629.586 302.307 630.211 302.088 630.851 302.059C631.549 302.059 632.174 302.277 632.726 302.714C633.279 303.15 633.599 303.761 633.686 304.546V304.895H630.72V304.982Z" fill="black"/>
<path d="M689.298 270.611C689.822 270.698 691.756 270.742 695.1 270.742C698.444 270.742 700.378 270.698 700.901 270.611H701.294V273.315H696.583V282.213C696.583 283.085 696.583 284.176 696.583 285.484C696.583 286.793 696.597 287.68 696.626 288.145C696.626 290.442 696.496 292.187 696.234 293.379C695.972 294.572 695.391 295.749 694.489 296.912C692.308 299.646 689.051 301.013 684.719 301.013C680.531 301.013 677.26 300.111 674.904 298.308C672.549 296.505 671.211 294.237 670.892 291.504C670.863 291.3 670.848 288.189 670.848 282.169V273.315H666.137V270.611H666.661C667.359 270.698 669.903 270.742 674.294 270.742C678.656 270.742 681.186 270.698 681.883 270.611H682.407V273.315H677.696V282.867V284.394V288.843C677.696 291.373 677.798 293.147 678.001 294.165C678.205 295.182 678.714 296.04 679.528 296.738C680.72 297.756 682.465 298.265 684.762 298.265C689.88 298.265 692.802 296.185 693.529 292.027C693.559 291.765 693.588 288.567 693.617 282.431V273.315H688.906V270.611H689.298Z" fill="black"/>
<path d="M718.951 286.008C718.283 285.717 717.948 285.295 717.948 284.743C717.948 284.132 718.239 283.711 718.821 283.478C718.966 283.42 724.258 283.391 734.698 283.391H750.357C750.386 283.42 750.444 283.464 750.531 283.522C750.618 283.58 750.706 283.638 750.793 283.696C750.88 283.754 750.967 283.827 751.054 283.914C751.142 284.001 751.2 284.103 751.229 284.22C751.258 284.336 751.287 284.496 751.316 284.699C751.316 285.223 750.996 285.659 750.357 286.008H718.951ZM718.951 295.778C718.283 295.517 717.948 295.081 717.948 294.47C717.948 293.888 718.268 293.467 718.908 293.205C718.995 293.176 724.258 293.161 734.698 293.161H750.357L750.575 293.292C750.691 293.379 750.778 293.438 750.836 293.467C750.895 293.496 750.967 293.568 751.054 293.685C751.142 293.801 751.2 293.917 751.229 294.034C751.258 294.15 751.287 294.295 751.316 294.47C751.316 295.081 750.996 295.517 750.357 295.778H718.951Z" fill="black"/>
<path d="M756.986 275.67C756.986 273.984 757.771 272.617 759.341 271.57C760.911 270.523 762.947 270 765.448 270C767.396 270 769.039 270.175 770.377 270.523C771.714 270.872 772.703 271.367 773.343 272.006C773.982 272.646 774.404 273.242 774.608 273.795C774.811 274.347 774.942 274.987 775 275.714C775 277.575 774.041 279.087 772.121 280.25C768.487 282.402 766.669 284.888 766.669 287.709V288.189C766.669 289.148 766.625 289.715 766.538 289.89C766.451 290.064 766.146 290.166 765.622 290.195H765.317H765.012C764.517 290.195 764.226 290.123 764.139 289.977C764.052 289.832 763.994 289.396 763.965 288.669V288.014C764.023 285.775 764.43 283.871 765.186 282.3C765.797 280.992 766.64 279.741 767.716 278.549C768.414 277.793 768.763 276.761 768.763 275.452C768.763 274.086 768.588 273.213 768.239 272.835C767.89 272.457 766.96 272.268 765.448 272.268C764.634 272.268 763.907 272.326 763.267 272.443C762.627 272.559 762.191 272.675 761.958 272.792C761.726 272.908 761.595 272.995 761.566 273.053L761.653 273.141C761.711 273.17 761.784 273.213 761.871 273.271C761.958 273.33 762.046 273.402 762.133 273.489C762.22 273.577 762.322 273.708 762.438 273.882C762.554 274.057 762.656 274.202 762.743 274.318C762.831 274.435 762.903 274.638 762.962 274.929C763.02 275.22 763.049 275.467 763.049 275.67C763.049 276.572 762.773 277.313 762.22 277.895C761.668 278.477 760.926 278.767 759.995 278.767C759.152 278.767 758.44 278.506 757.858 277.982C757.277 277.459 756.986 276.688 756.986 275.67ZM761.609 296.782C761.609 295.648 761.987 294.746 762.743 294.077C763.499 293.408 764.386 293.074 765.404 293.074C766.393 293.132 767.236 293.496 767.934 294.165C768.632 294.833 768.981 295.706 768.981 296.782C768.981 297.887 768.632 298.774 767.934 299.442C767.236 300.111 766.364 300.46 765.317 300.489C764.212 300.489 763.325 300.155 762.656 299.486C761.987 298.817 761.638 297.916 761.609 296.782Z" fill="black"/>
<path d="M247.055 105.996C247.116 105.996 249.288 105.845 253.572 105.543C257.856 105.241 260.058 105.06 260.179 105C260.903 105 261.265 105.272 261.265 105.815C261.265 106.478 260.179 111.034 258.007 119.481C255.714 128.411 254.567 132.967 254.567 133.148C254.567 133.269 254.779 133.118 255.201 132.695C258.882 129.437 262.804 127.808 266.967 127.808C270.225 127.808 272.85 128.623 274.841 130.252C276.832 131.881 277.858 134.264 277.918 137.402C277.918 140.479 276.772 145.246 274.479 151.702C272.186 158.158 271.04 162.02 271.04 163.287C271.1 164.132 271.251 164.705 271.492 165.007C271.734 165.308 272.186 165.459 272.85 165.459C274.539 165.459 276.108 164.554 277.556 162.744C279.004 160.934 280.181 158.46 281.086 155.322C281.267 154.659 281.448 154.266 281.629 154.146C281.81 154.025 282.293 153.965 283.077 153.965C284.284 153.965 284.888 154.206 284.888 154.689C284.888 154.749 284.767 155.202 284.525 156.046C283.56 159.606 282.021 162.533 279.91 164.826C277.858 167.42 275.414 168.718 272.578 168.718H272.126C269.29 168.718 267.238 167.903 265.971 166.274C264.704 164.645 264.071 162.925 264.071 161.115C264.071 160.149 265.157 156.59 267.329 150.435C269.501 144.28 270.617 139.665 270.678 136.587C270.678 133.027 269.35 131.247 266.695 131.247H266.243C261.235 131.247 256.89 134.204 253.21 140.117L252.576 141.294L249.499 153.512C247.568 161.356 246.452 165.64 246.15 166.364C245.366 167.994 244.038 168.808 242.168 168.808C241.323 168.808 240.599 168.537 239.996 167.994C239.392 167.45 239.06 166.907 239 166.364C239 165.52 241.202 156.348 245.607 138.85L252.305 112.06C252.305 111.275 252.093 110.793 251.671 110.611C251.249 110.43 250.072 110.28 248.141 110.159H246.241C245.879 109.797 245.698 109.556 245.698 109.435C245.698 109.314 245.758 108.741 245.879 107.715C246.18 106.569 246.572 105.996 247.055 105.996Z" fill="black"/>
<defs>
<linearGradient id="paint0_linear_104_59" x1="406.819" y1="16.7663" x2="370.109" y2="110.036" gradientUnits="userSpaceOnUse">
<stop stop-color="#9E958E"/>
<stop offset="0.46" stop-color="#8E8884"/>
<stop offset="1" stop-color="#757575"/>
</linearGradient>
<linearGradient id="paint1_linear_104_59" x1="344.059" y1="95.7342" x2="374.589" y2="61.7865" gradientUnits="userSpaceOnUse">
<stop stop-color="#37474F"/>
<stop offset="0.612" stop-color="#42565F" stop-opacity="0.192"/>
<stop offset="0.757" stop-color="#455A64" stop-opacity="0"/>
</linearGradient>
<linearGradient id="paint2_linear_104_59" x1="416.331" y1="53.1531" x2="396.589" y2="9.35928" gradientUnits="userSpaceOnUse">
<stop stop-color="#9E958E"/>
<stop offset="0.442" stop-color="#AEA298"/>
<stop offset="1" stop-color="#C9B8A9"/>
</linearGradient>
<linearGradient id="paint3_linear_104_59" x1="366.884" y1="83.3093" x2="374.853" y2="40.0788" gradientUnits="userSpaceOnUse">
<stop stop-color="#4C5C64"/>
<stop offset="1" stop-color="#455A64" stop-opacity="0"/>
</linearGradient>
<linearGradient id="paint4_linear_104_59" x1="370.255" y1="16.269" x2="393.404" y2="16.269" gradientUnits="userSpaceOnUse">
<stop stop-color="#4C5C64"/>
<stop offset="1" stop-color="#455A64" stop-opacity="0"/>
</linearGradient>
<linearGradient id="paint5_linear_104_59" x1="406.536" y1="61.0462" x2="433.913" y2="72.33" gradientUnits="userSpaceOnUse">
<stop stop-color="#9E958E"/>
<stop offset="0.25" stop-color="#AEA298"/>
<stop offset="0.566" stop-color="#C9B8A9"/>
</linearGradient>
<linearGradient id="paint6_linear_104_59" x1="420.39" y1="98.3001" x2="414.78" y2="76.1709" gradientUnits="userSpaceOnUse">
<stop stop-color="#37474F"/>
<stop offset="0.808" stop-color="#42565F" stop-opacity="0.192"/>
<stop offset="1" stop-color="#455A64" stop-opacity="0"/>
</linearGradient>
</defs>
</svg>
