<svg width="535" height="266" viewBox="0 0 535 266" fill="none" xmlns="http://www.w3.org/2000/svg">
<path d="M84.4999 9C262.594 55.0766 282.623 206.499 489.8 250.5C696.976 294.501 117.469 224.319 84.4999 263C70.3081 163.426 70.496 98.1208 84.4999 9Z" fill="#D9D9D9"/>
<path d="M74 9L68.2265 19L79.7735 19L74 9ZM74 265L79.7735 255L68.2265 255L74 265ZM73 18L73 256L75 256L75 18L73 18Z" fill="black"/>
<path d="M89.3185 8.88979C135.406 28.5096 162.038 40.3853 162.994 10.1182" stroke="black" stroke-width="3"/>
<line x1="101.621" y1="13.4091" x2="104.621" y2="6.40912" stroke="black" stroke-width="3"/>
<line x1="129.595" y1="24.4733" x2="132.596" y2="16.4733" stroke="black" stroke-width="3"/>
<rect x="99.6712" width="43.1791" height="4.78611" transform="rotate(20.4368 99.6712 0)" fill="#89481A"/>
<path d="M6.42045 129.875V143H3.06818V113.909H6.42045V124.591H6.70455C7.21591 123.464 7.98295 122.569 9.00568 121.906C10.0379 121.234 11.411 120.898 13.125 120.898C14.6117 120.898 15.9138 121.196 17.0312 121.793C18.1487 122.38 19.0152 123.284 19.6307 124.506C20.2557 125.718 20.5682 127.261 20.5682 129.136V143H17.2159V129.364C17.2159 127.631 16.7661 126.291 15.8665 125.344C14.9763 124.387 13.7405 123.909 12.1591 123.909C11.0606 123.909 10.0758 124.141 9.20455 124.605C8.3428 125.069 7.66098 125.746 7.15909 126.636C6.66667 127.527 6.42045 128.606 6.42045 129.875ZM41.7578 143V146.125H23.576V143H41.7578ZM52.3828 143.398C50.2427 143.398 48.4197 142.815 46.9141 141.651C45.4084 140.476 44.2578 138.777 43.4624 136.551C42.6669 134.316 42.2692 131.617 42.2692 128.455C42.2692 125.311 42.6669 122.626 43.4624 120.401C44.2673 118.166 45.4226 116.461 46.9283 115.287C48.4434 114.103 50.2616 113.511 52.3828 113.511C54.504 113.511 56.3175 114.103 57.8232 115.287C59.3383 116.461 60.4936 118.166 61.2891 120.401C62.094 122.626 62.4964 125.311 62.4964 128.455C62.4964 131.617 62.0987 134.316 61.3033 136.551C60.5078 138.777 59.3572 140.476 57.8516 141.651C56.3459 142.815 54.523 143.398 52.3828 143.398ZM52.3828 140.273C54.504 140.273 56.1518 139.25 57.326 137.205C58.5002 135.159 59.0874 132.242 59.0874 128.455C59.0874 125.936 58.8175 123.791 58.2777 122.02C57.7474 120.249 56.9804 118.9 55.9766 117.972C54.9822 117.044 53.7843 116.58 52.3828 116.58C50.2805 116.58 48.6375 117.616 47.4538 119.69C46.2701 121.755 45.6783 124.676 45.6783 128.455C45.6783 130.973 45.9434 133.114 46.4737 134.875C47.004 136.636 47.7663 137.976 48.7607 138.895C49.7644 139.813 50.9718 140.273 52.3828 140.273Z" fill="black"/>
</svg>
