<svg width="850" height="1001" viewBox="0 0 850 1001" fill="none" xmlns="http://www.w3.org/2000/svg">
<rect x="78.5" y="605.5" width="292" height="367" fill="#FFD87C" stroke="black" stroke-width="7"/>
<rect x="82" y="609" width="146" height="360" fill="#FFF0CC"/>
<rect x="203" y="876" width="55" height="95" fill="black"/>
<rect x="280" y="812" width="35" height="35" fill="black"/>
<rect x="280" y="742" width="35" height="35" fill="black"/>
<rect x="280" y="672" width="35" height="35" fill="black"/>
<rect x="136" y="812" width="35" height="35" fill="black"/>
<rect x="136" y="742" width="35" height="35" fill="black"/>
<rect x="136" y="672" width="35" height="35" fill="black"/>
<rect x="305.5" y="341.5" width="292" height="631" fill="#A9B2FF" stroke="black" stroke-width="7"/>
<rect x="309" y="345" width="146" height="624" fill="#D9DCF9"/>
<rect x="430" y="876" width="55" height="95" fill="black"/>
<rect x="507" y="812" width="35" height="35" fill="black"/>
<rect x="507" y="742" width="35" height="35" fill="black"/>
<rect x="507" y="672" width="35" height="35" fill="black"/>
<rect x="508" y="602" width="35" height="35" fill="black"/>
<rect x="507" y="532" width="35" height="35" fill="black"/>
<rect x="507" y="462" width="35" height="35" fill="black"/>
<rect x="508" y="392" width="35" height="35" fill="black"/>
<rect x="363" y="812" width="35" height="35" fill="black"/>
<rect x="363" y="742" width="35" height="35" fill="black"/>
<rect x="363" y="672" width="35" height="35" fill="black"/>
<rect x="364" y="602" width="35" height="35" fill="black"/>
<rect x="363" y="532" width="35" height="35" fill="black"/>
<rect x="363" y="462" width="35" height="35" fill="black"/>
<rect x="364" y="392" width="35" height="35" fill="black"/>
<path fill-rule="evenodd" clip-rule="evenodd" d="M167.122 951.369C169.61 947.005 171 942.135 171 937C171 918.222 152.42 903 129.5 903C124.181 903 119.096 903.82 114.423 905.313C111.123 883.567 94.0569 867 73.5 867C53.4409 867 36.7058 882.775 32.8407 903.743C14.1061 907.203 0 922.345 0 940.5C0 946.56 1.57144 952.284 4.36192 957.35L14.1885 978.832C14.514 979.544 15.2247 980 16.0072 980H147.564C148.227 980 148.847 979.672 149.219 979.124L166.878 953.124C167.257 952.566 167.309 951.925 167.122 951.369Z" fill="#64BC1F"/>
<path d="M611 228.115C684.16 -231.35 742.943 471.672 814 976" stroke="black" stroke-width="3" stroke-dasharray="10 10"/>
<g clip-path="url(#clip0_130_111)">
<path d="M568.096 269.188C571.251 271.992 577.409 270.212 581.861 265.211C586.307 260.21 605.64 233.321 602.493 230.512C599.334 227.711 574.886 250.062 570.44 255.061C565.992 260.056 564.941 266.381 568.096 269.188Z" fill="#F24603"/>
<path d="M608.682 231.148C608.682 233.581 606.71 235.555 604.276 235.555H602.073C599.641 235.555 597.667 233.581 597.667 231.148V228.945C597.667 226.513 599.641 224.539 602.073 224.539H604.276C606.71 224.539 608.682 226.513 608.682 228.945V231.148Z" fill="#32A01C"/>
<path d="M556.578 253.993C559.382 257.148 557.602 263.308 552.601 267.76C547.6 272.206 520.707 291.541 517.902 288.392C515.102 285.233 537.45 260.783 542.447 256.337C547.446 251.891 553.771 250.84 556.578 253.993Z" fill="#FF6D00"/>
<path d="M552.98 298.225C552.98 303.68 548.556 333.094 543.097 333.094C537.644 333.094 533.223 303.677 533.223 298.225C533.223 292.772 537.647 288.346 543.097 288.346C548.557 288.346 552.98 292.772 552.98 298.225Z" fill="#087C66"/>
<path d="M586.082 298.225C586.082 303.68 581.658 333.094 576.199 333.094C570.746 333.094 566.325 303.677 566.325 298.225C566.325 292.772 570.749 288.346 576.199 288.346C581.658 288.346 586.082 292.772 586.082 298.225Z" fill="#087C66"/>
<path d="M587.521 285.171C587.521 320.505 575.043 308.738 559.652 308.738C544.261 308.738 531.78 320.507 531.78 285.171C531.78 264.969 544.263 248.593 559.649 248.593C575.04 248.595 587.521 264.971 587.521 285.171Z" fill="#FF6D00"/>
<path d="M560.89 298.941C560.89 299.626 560.335 300.179 559.652 300.179C558.967 300.179 558.414 299.624 558.414 298.941V262.589C558.414 261.904 558.969 261.351 559.652 261.351C560.337 261.351 560.89 261.906 560.89 262.589V298.941Z" fill="#3D3C39"/>
<path d="M559.65 266.306C568.091 266.306 574.935 262.053 574.935 256.806C574.935 251.559 568.091 247.306 559.65 247.306C551.208 247.306 544.364 251.559 544.364 256.806C544.364 262.053 551.208 266.306 559.65 266.306Z" fill="#32A01C"/>
<path d="M559.649 299.377C545.212 299.377 533.337 309.727 531.921 281.851C531.826 282.818 531.78 283.92 531.78 285.173C531.78 320.507 544.258 308.74 559.649 308.74C575.04 308.74 587.519 320.507 587.519 285.173C587.519 283.922 587.473 282.82 587.378 281.851C585.959 309.727 574.091 299.377 559.649 299.377Z" fill="#F24603"/>
<path d="M554.214 333.272C554.214 337.449 549.235 338 543.095 338C536.964 338 531.98 337.452 531.98 333.272C531.98 329.093 536.964 323.34 543.095 323.34C549.238 323.343 554.214 329.093 554.214 333.272Z" fill="#3D3C39"/>
<path d="M554.214 333.272C554.214 337.449 549.235 338 543.095 338C536.964 338 531.98 337.452 531.98 333.272" fill="#1C1B1A"/>
<path d="M587.314 333.272C587.314 337.449 582.339 338 576.204 338C570.068 338 565.089 337.452 565.089 333.272C565.089 329.093 570.068 323.34 576.204 323.34C582.339 323.34 587.314 329.093 587.314 333.272Z" fill="#3D3C39"/>
<path d="M587.314 333.272C587.314 337.449 582.339 338 576.204 338C570.068 338 565.089 337.452 565.089 333.272" fill="#1C1B1A"/>
<path d="M595.717 231.754C595.717 249.377 579.563 258.236 559.654 258.236C539.735 258.236 523.582 249.377 523.582 231.754C523.582 214.127 539.735 197 559.654 197C579.563 197 595.717 214.127 595.717 231.754Z" fill="#E8B085"/>
<path d="M595.717 231.754C595.717 249.377 579.563 258.236 559.654 258.236C539.735 258.236 523.582 249.377 523.582 231.754" fill="#DD9F76"/>
<path d="M542.5 238.383C544.282 238.383 545.726 236.939 545.726 235.158C545.726 233.377 544.282 231.933 542.5 231.933C540.719 231.933 539.275 233.377 539.275 235.158C539.275 236.939 540.719 238.383 542.5 238.383Z" fill="#113E49"/>
<path d="M545.726 235.158C545.726 236.945 544.276 238.386 542.498 238.386C540.716 238.386 539.275 236.945 539.275 235.158" fill="black"/>
<path d="M548.863 241.886C548.691 241.886 548.515 241.825 548.381 241.686C546.805 240.113 544.715 239.247 542.494 239.247H542.489C540.269 239.247 538.182 240.115 536.616 241.684C536.349 241.95 535.92 241.957 535.651 241.686C535.384 241.428 535.38 240.998 535.646 240.73C537.475 238.899 539.903 237.888 542.487 237.888H542.492C545.082 237.888 547.508 238.892 549.341 240.725C549.603 240.987 549.603 241.426 549.341 241.686C549.215 241.825 549.043 241.886 548.863 241.886Z" fill="#F4C3A2"/>
<path d="M573.578 235.158C573.578 236.945 575.014 238.386 576.805 238.386C578.588 238.386 580.028 236.945 580.028 235.158C580.028 233.378 578.588 231.933 576.805 231.933C575.016 231.933 573.578 233.38 573.578 235.158Z" fill="#113E49"/>
<path d="M573.578 235.158C573.578 236.945 575.014 238.386 576.805 238.386C578.588 238.386 580.028 236.945 580.028 235.158" fill="black"/>
<path d="M570.443 241.886C570.606 241.886 570.786 241.825 570.921 241.686C572.496 240.113 574.587 239.247 576.807 239.247C579.033 239.247 581.123 240.115 582.685 241.684C582.947 241.95 583.377 241.957 583.646 241.686C583.917 241.428 583.921 240.998 583.655 240.73C581.835 238.899 579.398 237.888 576.81 237.888C574.223 237.888 571.789 238.892 569.951 240.725C569.693 240.987 569.693 241.426 569.951 241.686C570.088 241.825 570.262 241.886 570.443 241.886Z" fill="#F4C3A2"/>
<path d="M524.752 223.625H594.543C590.551 209.214 576.462 197 559.654 197C542.838 197 528.751 209.214 524.752 223.625Z" fill="#54C911"/>
<path d="M524.752 223.625H594.543C590.551 209.214 576.462 203.246 559.654 203.246C542.838 203.246 528.751 209.214 524.752 223.625Z" fill="#32A01C"/>
<path d="M527.786 241.772C526.869 245.385 523.203 247.571 519.588 246.659C515.977 245.744 513.787 242.076 514.699 238.461C515.616 234.85 521.919 222.252 525.534 223.165C529.145 224.079 528.698 238.161 527.786 241.772Z" fill="#54C911"/>
<path d="M525.536 223.164C529.147 224.079 528.7 238.161 527.786 241.772C526.869 245.385 523.203 247.57 519.588 246.658" fill="#32A01C"/>
<path d="M591.513 241.772C592.425 245.385 596.096 247.571 599.711 246.659C603.322 245.744 605.512 242.076 604.595 238.461C603.683 234.85 597.376 222.252 593.765 223.165C590.149 224.079 590.601 238.161 591.513 241.772Z" fill="#54C911"/>
<path d="M593.765 223.164C590.149 224.079 590.601 238.161 591.515 241.772C592.43 245.383 596.098 247.57 599.713 246.658" fill="#32A01C"/>
<path d="M596.001 223.62C596.001 225.141 594.765 226.374 593.247 226.374H526.052C524.529 226.374 523.298 225.141 523.298 223.62C523.298 222.1 524.529 220.867 526.052 220.867H593.247C594.767 220.867 596.001 222.1 596.001 223.62Z" fill="#32A01C"/>
<path d="M525.334 289.168C525.334 291.6 523.36 293.574 520.927 293.574H518.724C516.29 293.574 514.318 291.6 514.318 289.168V286.965C514.318 284.53 516.29 282.558 518.724 282.558H520.927C523.36 282.558 525.334 284.53 525.334 286.965V289.168Z" fill="#32A01C"/>
<path d="M552.765 282.554H540.647V270.437H552.765V282.554ZM542.85 280.351H550.561V272.64H542.85V280.351Z" fill="#3D3C39"/>
<path d="M546.706 277.214L542.498 273.006L544.056 271.448L546.706 274.098L549.356 271.448L550.914 273.006L546.706 277.214Z" fill="#3D3C39"/>
<path d="M578.651 282.554H566.534V270.437H578.651V282.554ZM568.737 280.351H576.448V272.64H568.737V280.351Z" fill="#3D3C39"/>
<path d="M572.593 277.214L568.385 273.006L569.942 271.448L572.593 274.098L575.243 271.448L576.801 273.006L572.593 277.214Z" fill="#3D3C39"/>
</g>
<g clip-path="url(#clip1_130_111)">
<path d="M628.996 214.5C628.996 217.565 628.087 220.562 626.384 223.11C624.68 225.658 622.26 227.644 619.428 228.817C616.596 229.99 613.48 230.296 610.474 229.698C607.468 229.1 604.706 227.624 602.539 225.456C600.372 223.289 598.896 220.527 598.298 217.521C597.7 214.515 598.007 211.399 599.18 208.567C600.353 205.735 602.34 203.315 604.888 201.612C607.437 199.909 610.433 199 613.498 199C617.609 199 621.551 200.634 624.457 203.541C627.364 206.447 628.996 210.39 628.996 214.5Z" fill="#B9D613"/>
<path d="M615.577 199.154C614.895 199.058 614.208 199.006 613.519 199C612.552 202.477 610.581 205.591 607.852 207.953C605.122 210.314 601.757 211.817 598.177 212.274C598.074 212.959 598.017 213.65 598.007 214.343L598.089 214.331C602.185 213.86 606.044 212.165 609.161 209.467C612.279 206.769 614.51 203.193 615.564 199.207L615.577 199.154ZM628.844 214.64C625.188 215.539 621.854 217.436 619.214 220.121C616.574 222.805 614.733 226.171 613.895 229.841L613.864 229.981C614.585 229.963 615.303 229.896 616.014 229.778C616.829 226.679 618.439 223.846 620.685 221.56C622.931 219.274 625.735 217.615 628.819 216.746C628.925 216.036 628.983 215.321 628.993 214.603L628.844 214.64Z" fill="#F7F7F7"/>
</g>
<path d="M625 165L613.134 177.618L629.994 181.585L625 165ZM618.46 199.344L623.368 178.485L620.448 177.798L615.54 198.656L618.46 199.344Z" fill="#FF0000"/>
<path d="M568.094 176V174.086C569.396 173.826 570.359 173.539 570.984 173.227C571.635 172.914 572.117 172.484 572.43 171.938C572.742 171.365 572.898 170.609 572.898 169.672C572.898 168.786 572.794 167.836 572.586 166.82C572.378 165.779 572.078 164.62 571.688 163.344L570.242 158.305H552.039L550.711 162.133C550.034 164.06 549.591 165.518 549.383 166.508C549.174 167.497 549.07 168.396 549.07 169.203C549.07 170.766 549.461 171.911 550.242 172.641C551.049 173.37 552.273 173.852 553.914 174.086V176H537.234V174.086C538.693 173.852 539.956 173.005 541.023 171.547C542.117 170.089 543.172 168.005 544.188 165.297L560.477 122.055H566.648L579.93 165.609C580.555 167.641 581.102 169.19 581.57 170.258C582.065 171.326 582.651 172.159 583.328 172.758C584.005 173.357 584.93 173.799 586.102 174.086V176H568.094ZM553.094 154.906H569.422L562 129.711L553.094 154.906Z" fill="black"/>
<path d="M662.727 69V67.0859C664.341 66.6693 665.422 66.2135 665.969 65.7188C666.516 65.1979 666.867 64.4688 667.023 63.5312C667.206 62.5938 667.297 61.1615 667.297 59.2344V25.4453C667.297 23.6484 667.232 22.3464 667.102 21.5391C666.971 20.7057 666.75 20.0677 666.438 19.625C666.151 19.1562 665.76 18.7917 665.266 18.5312C664.771 18.2448 663.924 17.9323 662.727 17.5938V15.6797H684.094C688.234 15.6797 691.555 16.1224 694.055 17.0078C696.581 17.8932 698.456 19.2083 699.68 20.9531C700.904 22.6719 701.516 24.8984 701.516 27.6328C701.516 29.8984 701.073 31.8646 700.188 33.5312C699.328 35.1979 698.195 36.5781 696.789 37.6719C695.383 38.7656 693.573 39.7812 691.359 40.7188V41.0703C694.901 42.138 697.583 43.7917 699.406 46.0312C701.229 48.2448 702.141 50.888 702.141 53.9609C702.141 57.5026 701.346 60.3932 699.758 62.6328C698.195 64.8724 695.995 66.5 693.156 67.5156C690.318 68.5052 686.88 69 682.844 69H662.727ZM681.438 39.5859C685.396 39.5859 688.417 38.6354 690.5 36.7344C692.609 34.8073 693.664 32.0208 693.664 28.375C693.664 26.5781 693.365 25.0938 692.766 23.9219C692.193 22.724 691.385 21.7734 690.344 21.0703C689.328 20.3672 688.117 19.8724 686.711 19.5859C685.305 19.2734 683.781 19.1172 682.141 19.1172C681.151 19.1172 679.849 19.1432 678.234 19.1953C676.62 19.2474 675.409 19.2995 674.602 19.3516V39.5859H681.438ZM674.602 65.2891C676.503 65.4714 678.625 65.5625 680.969 65.5625C684.38 65.5625 687.023 65.1328 688.898 64.2734C690.799 63.4141 692.167 62.151 693 60.4844C693.859 58.7917 694.289 56.6823 694.289 54.1562C694.289 51.6302 693.82 49.5469 692.883 47.9062C691.971 46.2656 690.552 45.0417 688.625 44.2344C686.698 43.4271 684.042 43.0234 680.656 43.0234H674.602V65.2891Z" fill="black"/>
<path d="M770.703 923.812V934.633H766.836C766.211 932.367 765.417 930.57 764.453 929.242C763.49 927.888 762.37 926.924 761.094 926.352C759.818 925.779 758.281 925.492 756.484 925.492C753.802 925.492 751.406 926.391 749.297 928.188C747.214 929.958 745.573 932.641 744.375 936.234C743.177 939.802 742.578 944.125 742.578 949.203C742.578 954.307 743.073 958.669 744.062 962.289C745.052 965.883 746.51 968.604 748.438 970.453C750.365 972.276 752.734 973.188 755.547 973.188C757.682 973.188 759.427 972.888 760.781 972.289C762.135 971.664 763.268 970.688 764.18 969.359C765.117 968.031 766.003 966.078 766.836 963.5H770.703V974.672C768.255 975.323 765.742 975.805 763.164 976.117C760.612 976.456 757.799 976.625 754.727 976.625C748.112 976.625 743.112 974.385 739.727 969.906C736.341 965.427 734.648 958.747 734.648 949.867C734.648 944.294 735.521 939.411 737.266 935.219C739.036 931.026 741.628 927.784 745.039 925.492C748.451 923.201 752.526 922.055 757.266 922.055C759.635 922.055 761.823 922.185 763.828 922.445C765.833 922.68 768.125 923.135 770.703 923.812Z" fill="black"/>
<path d="M240.88 265.05C240.88 263.967 240.468 263.425 239.645 263.425C238.605 263.425 237.522 264.053 236.395 265.31C235.268 266.567 234.337 268.495 233.6 271.095C233.557 271.138 233.513 271.203 233.47 271.29C233.427 271.377 233.405 271.442 233.405 271.485C233.405 271.528 233.362 271.572 233.275 271.615C233.188 271.658 233.123 271.68 233.08 271.68C233.037 271.68 232.95 271.68 232.82 271.68C232.69 271.68 232.517 271.68 232.3 271.68H231.39C231.13 271.42 231 271.225 231 271.095C231 270.792 231.173 270.163 231.52 269.21C231.867 268.257 232.387 267.13 233.08 265.83C233.773 264.53 234.727 263.425 235.94 262.515C237.153 261.605 238.518 261.128 240.035 261.085C241.855 261.085 243.263 261.605 244.26 262.645C245.257 263.685 245.777 264.898 245.82 266.285C245.82 267.022 245.755 267.585 245.625 267.975C245.625 268.235 245.3 269.188 244.65 270.835C244 272.482 243.328 274.41 242.635 276.62C241.942 278.83 241.552 280.758 241.465 282.405C241.465 283.575 241.573 284.528 241.79 285.265C242.353 287.128 243.718 288.06 245.885 288.06C247.488 288.06 248.983 287.323 250.37 285.85C251.757 284.377 252.84 282.665 253.62 280.715C254.4 278.765 255.028 276.967 255.505 275.32C255.982 273.673 256.22 272.482 256.22 271.745C256.22 270.748 256.047 269.882 255.7 269.145C255.353 268.408 254.963 267.845 254.53 267.455C254.097 267.065 253.707 266.675 253.36 266.285C253.013 265.895 252.84 265.418 252.84 264.855C252.84 263.902 253.252 263.013 254.075 262.19C254.898 261.367 255.787 260.955 256.74 260.955C257.563 260.955 258.3 261.345 258.95 262.125C259.6 262.905 259.947 264.162 259.99 265.895C259.99 267.065 259.73 268.863 259.21 271.29C258.69 273.717 257.888 276.425 256.805 279.415C255.722 282.405 254.183 284.983 252.19 287.15C250.197 289.317 247.9 290.422 245.3 290.465C242.527 290.465 240.317 289.75 238.67 288.32C237.067 286.933 236.265 284.875 236.265 282.145C236.265 280.802 236.438 279.415 236.785 277.985C237.132 276.555 238.02 274.02 239.45 270.38C240.403 267.607 240.88 265.83 240.88 265.05Z" fill="black"/>
<path d="M255.46 245.485C255.46 245.139 255.568 244.835 255.785 244.575C256.001 244.315 256.326 244.185 256.76 244.185C257.063 244.185 257.323 244.294 257.54 244.51C257.756 244.684 257.973 245.095 258.19 245.745C258.623 247.349 259.511 248.584 260.855 249.45C261.331 249.754 261.57 250.144 261.57 250.62C261.57 251.01 261.505 251.27 261.375 251.4C261.245 251.53 260.941 251.725 260.465 251.985C258.601 252.939 256.976 254.304 255.59 256.08C255.503 256.167 255.395 256.297 255.265 256.47C255.135 256.644 255.026 256.774 254.94 256.86C254.853 256.947 254.745 256.99 254.615 256.99C254.485 256.99 254.333 257.012 254.16 257.055C253.856 257.055 253.575 256.947 253.315 256.73C253.055 256.514 252.903 256.189 252.86 255.755C252.86 254.932 253.878 253.654 255.915 251.92H244.8L233.685 251.855C233.122 251.465 232.84 251.054 232.84 250.62C232.84 250.317 233.122 249.884 233.685 249.32H257.02C255.98 247.674 255.46 246.395 255.46 245.485Z" fill="black"/>
<path d="M285.151 267.195C285.151 266.632 285.455 266.198 286.061 265.895H327.466C328.116 266.242 328.441 266.675 328.441 267.195C328.441 267.672 328.138 268.083 327.531 268.43L306.861 268.495H286.191C285.498 268.278 285.151 267.845 285.151 267.195ZM285.151 279.805C285.151 279.155 285.498 278.722 286.191 278.505H327.531C328.138 278.938 328.441 279.372 328.441 279.805C328.441 280.368 328.116 280.802 327.466 281.105H286.061C285.455 280.802 285.151 280.368 285.151 279.805Z" fill="black"/>
<path d="M360.798 279.545C360.798 280.585 360.452 281.452 359.758 282.145C359.065 282.838 358.22 283.185 357.223 283.185H356.768C358.762 286.608 361.405 288.32 364.698 288.32C367.732 288.32 369.942 287.02 371.328 284.42C372.152 282.99 372.563 280.217 372.563 276.1C372.563 271.637 371.978 268.625 370.808 267.065C369.682 265.635 368.425 264.92 367.038 264.92H366.648C363.268 264.92 360.712 266.393 358.978 269.34C358.805 269.643 358.653 269.817 358.523 269.86C358.393 269.903 358.068 269.947 357.548 269.99C356.812 269.99 356.4 269.86 356.313 269.6C356.227 269.427 356.183 265.635 356.183 258.225V249.84C356.183 247.673 356.292 246.59 356.508 246.59C356.595 246.503 356.682 246.46 356.768 246.46C356.812 246.46 357.267 246.633 358.133 246.98C359 247.327 360.192 247.673 361.708 248.02C363.225 248.367 364.85 248.54 366.583 248.54C369.66 248.54 372.607 247.933 375.423 246.72C375.77 246.547 376.052 246.46 376.268 246.46C376.615 246.46 376.788 246.85 376.788 247.63V248.475C373.235 252.678 368.793 254.78 363.463 254.78C362.12 254.78 360.907 254.65 359.823 254.39L359.173 254.26V265.44C359.997 264.833 360.647 264.357 361.123 264.01C361.6 263.663 362.38 263.317 363.463 262.97C364.547 262.623 365.652 262.45 366.778 262.45C370.288 262.45 373.257 263.858 375.683 266.675C378.11 269.492 379.323 272.828 379.323 276.685C379.323 280.672 377.936 284.073 375.163 286.89C372.39 289.707 369.01 291.137 365.023 291.18C361.513 291.18 358.697 290.01 356.573 287.67C354.45 285.33 353.388 282.687 353.388 279.74C353.388 278.7 353.627 277.877 354.103 277.27C354.58 276.663 355.078 276.273 355.598 276.1C356.118 275.927 356.617 275.84 357.093 275.84C358.177 275.84 359.065 276.208 359.758 276.945C360.452 277.682 360.798 278.548 360.798 279.545Z" fill="black"/>
<path d="M384.003 271.095C384.047 270.835 384.112 270.488 384.198 270.055C384.285 269.622 384.545 268.798 384.978 267.585C385.412 266.372 385.845 265.353 386.278 264.53C386.712 263.707 387.405 262.905 388.358 262.125C389.312 261.345 390.265 260.977 391.218 261.02C392.172 261.063 393.103 261.215 394.013 261.475C394.923 261.735 395.573 262.125 395.963 262.645C396.353 263.165 396.7 263.642 397.003 264.075C397.307 264.508 397.48 264.92 397.523 265.31L397.653 265.765C397.653 265.852 397.675 265.895 397.718 265.895L398.433 265.18C401.033 262.407 404.088 261.02 407.598 261.02C408.335 261.02 409.007 261.063 409.613 261.15C410.22 261.237 410.783 261.388 411.303 261.605C411.823 261.822 412.235 262.038 412.538 262.255C412.842 262.472 413.167 262.732 413.513 263.035C413.86 263.338 414.077 263.62 414.163 263.88C414.25 264.14 414.423 264.422 414.683 264.725C414.943 265.028 415.03 265.288 414.943 265.505C414.857 265.722 414.922 265.917 415.138 266.09C415.355 266.263 415.398 266.415 415.268 266.545L415.788 265.895C418.518 262.645 421.747 261.02 425.473 261.02C427.813 261.02 429.698 261.605 431.128 262.775C432.558 263.945 433.295 265.657 433.338 267.91C433.338 270.12 432.515 273.543 430.868 278.18C429.222 282.817 428.398 285.59 428.398 286.5C428.442 287.107 428.55 287.518 428.723 287.735C428.897 287.952 429.222 288.06 429.698 288.06C430.912 288.06 432.038 287.41 433.078 286.11C434.118 284.81 434.963 283.033 435.613 280.78C435.743 280.303 435.873 280.022 436.003 279.935C436.133 279.848 436.48 279.805 437.043 279.805C437.91 279.805 438.343 279.978 438.343 280.325C438.343 280.368 438.257 280.693 438.083 281.3C437.737 282.557 437.26 283.792 436.653 285.005C436.047 286.218 435.05 287.432 433.663 288.645C432.277 289.858 430.782 290.443 429.178 290.4C427.142 290.4 425.668 289.815 424.758 288.645C423.848 287.475 423.393 286.262 423.393 285.005C423.393 284.182 424.173 281.582 425.733 277.205C427.293 272.828 428.095 269.535 428.138 267.325C428.138 264.768 427.185 263.49 425.278 263.49H424.953C421.227 263.49 418.085 265.678 415.528 270.055L415.073 270.835L412.928 279.545C411.498 285.222 410.675 288.277 410.458 288.71C409.895 289.88 408.963 290.465 407.663 290.465C407.1 290.465 406.645 290.313 406.298 290.01C405.952 289.707 405.713 289.447 405.583 289.23C405.453 289.013 405.388 288.797 405.388 288.58C405.388 288.103 406.125 285.005 407.598 279.285L409.938 269.795C410.068 269.145 410.133 268.322 410.133 267.325C410.133 264.768 409.18 263.49 407.273 263.49H406.948C403.222 263.49 400.08 265.678 397.523 270.055L397.068 270.835L394.923 279.545C393.493 285.222 392.67 288.277 392.453 288.71C391.89 289.88 390.958 290.465 389.658 290.465C389.095 290.465 388.64 290.335 388.293 290.075C387.947 289.815 387.708 289.555 387.578 289.295C387.448 289.035 387.405 288.818 387.448 288.645C387.448 288.082 388.272 284.528 389.918 277.985C391.608 271.312 392.453 267.823 392.453 267.52C392.583 266.87 392.648 266.285 392.648 265.765C392.648 264.205 392.107 263.425 391.023 263.425C390.07 263.425 389.268 264.032 388.618 265.245C387.968 266.458 387.47 267.78 387.123 269.21C386.777 270.64 386.517 271.42 386.343 271.55C386.257 271.637 385.91 271.68 385.303 271.68H384.393C384.133 271.42 384.003 271.225 384.003 271.095Z" fill="black"/>
<path d="M467.203 241C467.593 241 467.918 241.13 468.178 241.39C468.438 241.65 468.568 241.953 468.568 242.3C468.568 242.517 464.82 252.96 457.323 273.63C449.826 294.3 445.948 304.873 445.688 305.35C445.385 305.783 445.016 306 444.583 306C444.28 306 443.998 305.892 443.738 305.675C443.478 305.458 443.348 305.155 443.348 304.765C443.348 304.332 447.118 293.758 454.658 273.045C462.198 252.332 466.033 241.867 466.163 241.65C466.336 241.217 466.683 241 467.203 241Z" fill="black"/>
<path d="M480.723 270.965C480.723 269.578 481.069 268.17 481.763 266.74C482.456 265.31 483.669 263.988 485.403 262.775C487.136 261.562 489.238 260.977 491.708 261.02C494.394 261.02 496.344 261.605 497.558 262.775C498.771 263.945 499.399 265.245 499.443 266.675C499.443 268.062 499.074 269.08 498.338 269.73C497.601 270.38 496.778 270.727 495.868 270.77C495.304 270.77 494.784 270.597 494.308 270.25C493.831 269.903 493.571 269.34 493.528 268.56C493.528 267.867 493.723 267.26 494.113 266.74C494.503 266.22 494.871 265.83 495.218 265.57C495.564 265.31 495.846 265.18 496.063 265.18C496.106 265.18 496.128 265.158 496.128 265.115C496.128 264.985 495.976 264.79 495.673 264.53C495.369 264.27 494.828 264.032 494.048 263.815C493.268 263.598 492.423 263.468 491.513 263.425C489.433 263.425 487.916 263.988 486.963 265.115C486.009 266.242 485.511 267.39 485.468 268.56C485.468 269.643 485.879 270.402 486.703 270.835C487.526 271.268 488.718 271.637 490.278 271.94C491.838 272.243 492.964 272.568 493.658 272.915C496.518 274.172 497.948 276.252 497.948 279.155C497.948 280.368 497.709 281.582 497.233 282.795C496.756 284.008 496.041 285.222 495.088 286.435C494.134 287.648 492.769 288.602 490.993 289.295C489.216 289.988 487.179 290.357 484.883 290.4C481.546 290.4 479.184 289.772 477.798 288.515C476.411 287.258 475.696 285.785 475.653 284.095C475.653 282.405 476.108 281.192 477.018 280.455C477.928 279.718 478.881 279.35 479.878 279.35C480.528 279.35 481.134 279.545 481.698 279.935C482.261 280.325 482.564 280.997 482.608 281.95C482.608 283.077 482.218 284.03 481.438 284.81C480.658 285.59 479.986 285.98 479.423 285.98C479.336 286.023 479.271 286.045 479.228 286.045C479.184 286.045 479.163 286.088 479.163 286.175C479.206 286.305 479.379 286.478 479.683 286.695C479.986 286.912 480.658 287.193 481.698 287.54C482.738 287.887 483.929 288.038 485.273 287.995C486.833 287.995 488.176 287.757 489.303 287.28C490.429 286.803 491.253 286.197 491.773 285.46C492.293 284.723 492.661 284.052 492.878 283.445C493.094 282.838 493.203 282.297 493.203 281.82C493.203 280.607 492.748 279.697 491.838 279.09C490.928 278.483 489.888 278.115 488.718 277.985C487.548 277.855 486.269 277.53 484.883 277.01C483.496 276.49 482.478 275.732 481.828 274.735C481.091 273.652 480.723 272.395 480.723 270.965Z" fill="black"/>
<path d="M841 224L832.34 239L849.66 239L841 224ZM841 976L849.66 961L832.34 961L841 976ZM839.5 237.5L839.5 962.5L842.5 962.5L842.5 237.5L839.5 237.5Z" fill="black"/>
<path d="M614.787 532.592C614.823 532.592 616.113 532.502 618.659 532.323C621.205 532.143 622.514 532.036 622.585 532C623.016 532 623.231 532.161 623.231 532.484C623.231 532.878 622.585 535.586 621.295 540.605C619.932 545.912 619.251 548.619 619.251 548.727C619.251 548.798 619.376 548.709 619.627 548.458C621.814 546.522 624.145 545.553 626.619 545.553C628.555 545.553 630.115 546.038 631.298 547.006C632.482 547.974 633.091 549.39 633.127 551.255C633.127 553.083 632.446 555.916 631.083 559.752C629.721 563.589 629.039 565.884 629.039 566.637C629.075 567.139 629.165 567.479 629.308 567.659C629.452 567.838 629.721 567.927 630.115 567.927C631.119 567.927 632.051 567.39 632.912 566.314C633.772 565.238 634.472 563.768 635.009 561.904C635.117 561.509 635.225 561.276 635.332 561.205C635.44 561.133 635.727 561.097 636.193 561.097C636.91 561.097 637.268 561.24 637.268 561.527C637.268 561.563 637.197 561.832 637.053 562.334C636.479 564.449 635.565 566.188 634.31 567.551C633.091 569.093 631.639 569.864 629.954 569.864H629.685C628 569.864 626.781 569.38 626.028 568.412C625.275 567.443 624.898 566.422 624.898 565.346C624.898 564.772 625.543 562.657 626.834 558.999C628.125 555.342 628.788 552.599 628.824 550.77C628.824 548.655 628.035 547.597 626.458 547.597H626.189C623.213 547.597 620.631 549.354 618.444 552.868L618.068 553.567L616.239 560.828C615.092 565.489 614.428 568.035 614.249 568.465C613.783 569.433 612.994 569.917 611.882 569.917C611.38 569.917 610.95 569.756 610.592 569.433C610.233 569.111 610.036 568.788 610 568.465C610 567.963 611.309 562.513 613.926 552.115L617.906 536.195C617.906 535.729 617.781 535.442 617.53 535.335C617.279 535.227 616.58 535.137 615.432 535.066H614.303C614.088 534.851 613.98 534.707 613.98 534.635C613.98 534.564 614.016 534.223 614.088 533.613C614.267 532.932 614.5 532.592 614.787 532.592Z" fill="black"/>
<path d="M656.351 550.663C656.351 550.197 656.602 549.838 657.104 549.587H691.364C691.902 549.874 692.171 550.233 692.171 550.663C692.171 551.057 691.92 551.398 691.418 551.685L674.314 551.739H657.211C656.637 551.559 656.351 551.201 656.351 550.663ZM656.351 561.097C656.351 560.559 656.637 560.201 657.211 560.021H691.418C691.92 560.38 692.171 560.738 692.171 561.097C692.171 561.563 691.902 561.922 691.364 562.173H657.104C656.602 561.922 656.351 561.563 656.351 561.097Z" fill="black"/>
<path d="M716.954 544.424C715.986 544.424 715.233 544.119 714.696 543.51C714.158 542.9 713.871 542.111 713.835 541.143C713.835 539.171 714.696 537.414 716.417 535.872C718.138 534.331 720.217 533.56 722.655 533.56C723.91 533.56 724.699 533.578 725.022 533.614C727.675 534.044 729.701 534.994 731.1 536.464C732.498 537.934 733.215 539.53 733.251 541.251C733.251 543.115 732.641 544.926 731.422 546.683C730.203 548.44 728.518 549.713 726.367 550.502L726.205 550.609C726.205 550.645 726.367 550.699 726.689 550.771C727.012 550.842 727.532 551.004 728.249 551.255C728.966 551.506 729.647 551.882 730.293 552.384C733.233 554.284 734.703 556.794 734.703 559.914C734.703 562.746 733.592 565.22 731.368 567.336C729.145 569.451 726.331 570.509 722.924 570.509C720.056 570.509 717.582 569.738 715.502 568.196C713.423 566.655 712.383 564.701 712.383 562.334C712.383 561.33 712.706 560.523 713.351 559.914C713.996 559.304 714.803 558.982 715.771 558.946C716.775 558.946 717.6 559.268 718.245 559.914C718.891 560.559 719.213 561.366 719.213 562.334C719.213 562.728 719.16 563.087 719.052 563.41C718.944 563.732 718.819 564.019 718.676 564.27C718.532 564.521 718.335 564.736 718.084 564.916C717.833 565.095 717.618 565.238 717.438 565.346C717.259 565.453 717.08 565.525 716.901 565.561C716.721 565.597 716.578 565.651 716.47 565.722L716.255 565.776C718.084 567.39 720.307 568.196 722.924 568.196C724.896 568.196 726.384 567.246 727.388 565.346C727.998 564.163 728.303 562.352 728.303 559.914V558.838C728.303 555.432 727.155 553.155 724.861 552.008C724.323 551.792 723.229 551.667 721.58 551.631L719.321 551.577L719.16 551.47C719.088 551.362 719.052 551.075 719.052 550.609C719.052 549.964 719.195 549.641 719.482 549.641C720.486 549.641 721.526 549.551 722.602 549.372C723.821 549.193 724.932 548.44 725.936 547.113C726.94 545.787 727.442 543.779 727.442 541.089V540.659C727.442 538.615 726.815 537.199 725.56 536.41C724.771 535.908 723.928 535.657 723.032 535.657C721.885 535.657 720.827 535.855 719.859 536.249C718.891 536.643 718.209 537.056 717.815 537.486C717.421 537.916 717.223 538.131 717.223 538.131H717.385C717.492 538.167 717.636 538.203 717.815 538.239C717.994 538.275 718.174 538.364 718.353 538.508C718.532 538.651 718.747 538.777 718.998 538.884C719.249 538.992 719.428 539.189 719.536 539.476C719.644 539.763 719.787 540.032 719.966 540.283C720.146 540.534 720.199 540.892 720.128 541.358C720.128 542.147 719.877 542.846 719.375 543.456C718.873 544.066 718.066 544.388 716.954 544.424Z" fill="black"/>
<path d="M742.179 537.862C744.187 534.958 746.93 533.506 750.408 533.506C752.129 533.506 753.85 533.972 755.571 534.904C757.292 535.837 758.691 537.486 759.766 539.852C761.093 542.828 761.756 546.916 761.756 552.115C761.756 557.673 760.985 561.922 759.444 564.862C758.726 566.368 757.74 567.569 756.485 568.465C755.23 569.362 754.137 569.918 753.205 570.133C752.272 570.348 751.358 570.473 750.462 570.509C749.529 570.509 748.597 570.402 747.665 570.186C746.733 569.971 745.639 569.398 744.384 568.465C743.129 567.533 742.143 566.332 741.426 564.862C739.884 561.922 739.113 557.673 739.113 552.115C739.113 545.876 740.135 541.125 742.179 537.862ZM754.28 537.217C753.205 536.07 751.932 535.496 750.462 535.496C748.956 535.496 747.665 536.07 746.589 537.217C745.693 538.149 745.101 539.44 744.814 541.089C744.528 542.739 744.384 546.181 744.384 551.416C744.384 557.081 744.528 560.81 744.814 562.603C745.101 564.396 745.747 565.812 746.751 566.852C747.755 567.928 748.992 568.465 750.462 568.465C751.896 568.465 753.115 567.928 754.119 566.852C755.159 565.776 755.804 564.27 756.055 562.334C756.306 560.398 756.45 556.758 756.485 551.416C756.485 546.217 756.342 542.793 756.055 541.143C755.768 539.494 755.177 538.185 754.28 537.217Z" fill="black"/>
<path d="M765.037 553.89C765.072 553.675 765.126 553.388 765.198 553.029C765.27 552.671 765.485 551.99 765.843 550.986C766.202 549.982 766.56 549.139 766.919 548.458C767.278 547.777 767.851 547.113 768.64 546.468C769.429 545.822 770.218 545.518 771.007 545.553C771.795 545.589 772.566 545.715 773.319 545.93C774.072 546.145 774.61 546.468 774.933 546.898C775.256 547.328 775.542 547.723 775.793 548.081C776.044 548.44 776.188 548.78 776.224 549.103L776.331 549.48C776.331 549.551 776.349 549.587 776.385 549.587L776.977 548.996C779.128 546.701 781.656 545.553 784.56 545.553C785.17 545.553 785.725 545.589 786.227 545.661C786.729 545.733 787.195 545.858 787.626 546.038C788.056 546.217 788.397 546.396 788.648 546.575C788.899 546.755 789.168 546.97 789.454 547.221C789.741 547.472 789.921 547.705 789.992 547.92C790.064 548.135 790.207 548.368 790.423 548.619C790.638 548.87 790.709 549.085 790.638 549.265C790.566 549.444 790.62 549.605 790.799 549.749C790.978 549.892 791.014 550.018 790.907 550.125L791.337 549.587C793.596 546.898 796.267 545.553 799.351 545.553C801.287 545.553 802.847 546.038 804.03 547.006C805.213 547.974 805.823 549.39 805.858 551.255C805.858 553.083 805.177 555.916 803.815 559.752C802.452 563.589 801.771 565.884 801.771 566.637C801.807 567.139 801.896 567.479 802.04 567.659C802.183 567.838 802.452 567.927 802.847 567.927C803.851 567.927 804.783 567.39 805.643 566.314C806.504 565.238 807.203 563.768 807.741 561.904C807.848 561.509 807.956 561.276 808.064 561.205C808.171 561.133 808.458 561.097 808.924 561.097C809.641 561.097 810 561.24 810 561.527C810 561.563 809.928 561.832 809.785 562.334C809.498 563.374 809.103 564.396 808.601 565.4C808.099 566.404 807.275 567.408 806.127 568.412C804.98 569.415 803.743 569.9 802.416 569.864C800.731 569.864 799.512 569.38 798.759 568.412C798.006 567.443 797.63 566.439 797.63 565.4C797.63 564.718 798.275 562.567 799.566 558.946C800.857 555.324 801.52 552.599 801.556 550.77C801.556 548.655 800.767 547.597 799.189 547.597H798.92C795.837 547.597 793.237 549.408 791.122 553.029L790.745 553.675L788.97 560.882C787.787 565.579 787.106 568.107 786.927 568.465C786.46 569.433 785.69 569.917 784.614 569.917C784.148 569.917 783.771 569.792 783.484 569.541C783.198 569.29 783 569.075 782.893 568.896C782.785 568.716 782.731 568.537 782.731 568.358C782.731 567.963 783.341 565.4 784.56 560.667L786.496 552.814C786.604 552.276 786.658 551.595 786.658 550.77C786.658 548.655 785.869 547.597 784.291 547.597H784.022C780.939 547.597 778.339 549.408 776.224 553.029L775.847 553.675L774.072 560.882C772.889 565.579 772.208 568.107 772.028 568.465C771.562 569.433 770.791 569.917 769.716 569.917C769.25 569.917 768.873 569.81 768.586 569.595C768.299 569.38 768.102 569.165 767.995 568.949C767.887 568.734 767.851 568.555 767.887 568.412C767.887 567.945 768.568 565.005 769.931 559.591C771.329 554.069 772.028 551.183 772.028 550.932C772.136 550.394 772.19 549.91 772.19 549.48C772.19 548.189 771.742 547.543 770.845 547.543C770.056 547.543 769.393 548.045 768.855 549.049C768.317 550.053 767.905 551.147 767.618 552.33C767.331 553.513 767.116 554.159 766.973 554.266C766.901 554.338 766.614 554.374 766.112 554.374H765.359C765.144 554.159 765.037 553.998 765.037 553.89Z" fill="black"/>
<defs>
<clipPath id="clip0_130_111">
<rect width="141" height="141" fill="white" transform="translate(491 197)"/>
</clipPath>
<clipPath id="clip1_130_111">
<rect width="31" height="31" fill="white" transform="translate(598 199)"/>
</clipPath>
</defs>
</svg>
