<svg width="1999" height="1240" viewBox="0 0 1999 1240" fill="none" xmlns="http://www.w3.org/2000/svg">
<g clip-path="url(#clip0_132_248)">
<path d="M236.076 984.913C236.076 1004.42 220.259 1109.58 200.74 1109.58C181.245 1109.58 165.436 1004.41 165.436 984.913C165.436 965.418 181.253 949.593 200.74 949.593C220.26 949.593 236.076 965.418 236.076 984.913Z" fill="#232728"/>
<path d="M354.427 984.913C354.427 1004.42 338.61 1109.58 319.091 1109.58C299.596 1109.58 283.787 1004.41 283.787 984.913C283.787 965.418 299.604 949.593 319.091 949.593C338.61 949.593 354.427 965.418 354.427 984.913Z" fill="#232728"/>
<path d="M359.563 938.242C359.563 1064.57 314.964 1022.5 259.92 1022.5C204.892 1022.5 160.277 1064.57 160.277 938.242C160.277 866.011 204.908 807.454 259.92 807.454C314.948 807.462 359.563 866.019 359.563 938.242Z" fill="#6E9681"/>
<path d="M266.615 884.498C264.869 869.507 282.717 855.107 306.494 852.319C330.258 849.55 448.655 848.054 450.432 863.029C452.162 878.018 336.563 903.826 312.803 906.588C289.058 909.371 268.375 899.47 266.615 884.498Z" fill="#6E9681"/>
<path d="M259.92 971.31C210.366 971.31 169.28 1005.35 161.584 919.921C160.741 925.025 160.276 931.059 160.276 938.251C160.276 1064.58 204.891 1022.51 259.919 1022.51C314.963 1022.51 359.562 1064.58 359.562 938.251C359.562 931.059 359.097 925.026 358.254 919.921C350.568 1005.35 309.489 971.31 259.92 971.31Z" fill="#587A67"/>
<path d="M240.488 1110.22C240.488 1125.15 222.686 1127.12 200.749 1127.12C178.812 1127.12 161.01 1125.16 161.01 1110.22C161.01 1095.28 178.812 1074.71 200.749 1074.71C222.686 1074.71 240.488 1095.28 240.488 1110.22Z" fill="#0DCEAE"/>
<path d="M240.488 1110.22C240.488 1125.15 222.686 1127.12 200.749 1127.12C178.812 1127.12 161.01 1125.16 161.01 1110.22" fill="#08B5B0"/>
<path d="M358.846 1110.22C358.846 1125.15 341.044 1127.12 319.107 1127.12C297.17 1127.12 279.368 1125.16 279.368 1110.22C279.368 1095.28 297.17 1074.71 319.107 1074.71C341.044 1074.71 358.846 1095.28 358.846 1110.22Z" fill="#0DCEAE"/>
<path d="M358.846 1110.22C358.846 1125.15 341.044 1127.12 319.107 1127.12C297.17 1127.12 279.368 1125.16 279.368 1110.22" fill="#08B5B0"/>
<path d="M269.183 899.638C272.149 884.845 293.567 876.656 317.037 881.329C340.496 886.024 453.58 921.126 450.669 935.918C447.686 950.716 329.754 939.599 306.303 934.906C282.867 930.223 266.232 914.432 269.183 899.638Z" fill="#6E9681"/>
<path d="M259.92 860.946C274.602 860.946 286.505 849.043 286.505 834.361C286.505 819.679 274.602 807.776 259.92 807.776C245.237 807.776 233.335 819.679 233.335 834.361C233.335 849.043 245.237 860.946 259.92 860.946Z" fill="#A56B44"/>
<path d="M388.873 747.258C388.873 810.266 331.135 841.939 259.936 841.939C188.721 841.939 130.967 810.266 130.967 747.258C130.967 684.235 188.72 623 259.936 623C331.135 623 388.873 684.235 388.873 747.258Z" fill="#D8A17C"/>
<path d="M388.873 747.258C388.873 810.266 331.135 841.939 259.936 841.939C188.721 841.939 130.967 810.266 130.967 747.258C130.967 684.235 188.721 635.469 259.936 635.469C331.135 635.469 388.873 684.235 388.873 747.258Z" fill="#C48960"/>
<path d="M388.873 747.258C388.873 810.266 331.135 841.939 259.936 841.939C188.721 841.939 130.967 810.266 130.967 747.258C130.967 684.235 188.721 635.469 259.936 635.469C331.135 635.469 388.873 684.235 388.873 747.258Z" fill="#C48960"/>
<path d="M388.873 747.258C388.873 810.266 331.135 841.939 259.936 841.939C188.721 841.939 130.967 810.266 130.967 747.258" fill="#BC8158"/>
<path d="M384.738 718.374C370.528 666.78 320.107 623 259.936 623C188.72 623 130.967 684.235 130.967 747.258C130.967 763.445 134.827 777.529 141.687 789.565C147.933 785.642 152.1 778.758 152.1 770.849C152.1 769.912 151.935 769.022 151.824 768.108C157.039 764.044 160.473 757.781 160.473 750.661C160.473 749.724 160.315 748.834 160.197 747.92C165.412 743.856 168.846 737.593 168.846 730.473C168.846 723.384 165.443 717.153 160.276 713.089C161.079 712.317 161.922 711.6 162.615 710.734C167.184 716.421 174.107 720.131 181.984 720.131C189.845 720.131 196.777 716.413 201.353 710.734C205.922 716.421 212.845 720.131 220.707 720.131C228.584 720.131 235.508 716.413 240.076 710.734C244.645 716.421 251.568 720.131 259.445 720.131C267.306 720.131 274.238 716.413 278.806 710.734C283.383 716.421 290.306 720.131 298.167 720.131C306.044 720.131 312.968 716.413 317.536 710.734C322.105 716.421 329.028 720.131 336.905 720.131C344.766 720.131 351.698 716.413 356.266 710.734C360.843 716.421 367.766 720.131 375.627 720.131C378.854 720.146 381.91 719.484 384.738 718.374Z" fill="#63391C"/>
<path d="M211.729 780.153C218.098 780.153 223.261 774.99 223.261 768.621C223.261 762.252 218.098 757.089 211.729 757.089C205.36 757.089 200.197 762.252 200.197 768.621C200.197 774.99 205.36 780.153 211.729 780.153Z" fill="#113E49"/>
<path d="M223.261 768.621C223.261 775.009 218.094 780.161 211.721 780.161C205.349 780.161 200.197 775.009 200.197 768.621" fill="black"/>
<path d="M234.477 792.677C233.863 792.677 233.232 792.456 232.752 791.96C227.12 786.336 219.645 783.24 211.705 783.24H211.689C203.749 783.24 196.29 786.344 190.689 791.952C189.736 792.905 188.2 792.929 187.255 791.96C186.302 791.038 186.27 789.502 187.224 788.541C193.762 781.995 202.442 778.38 211.682 778.38H211.698C220.961 778.38 229.649 781.972 236.203 788.525C237.14 789.462 237.14 791.03 236.203 791.959C235.738 792.456 235.123 792.677 234.477 792.677Z" fill="#E5A376"/>
<path d="M334.373 780.153C340.742 780.153 345.905 774.99 345.905 768.621C345.905 762.252 340.742 757.089 334.373 757.089C328.004 757.089 322.841 762.252 322.841 768.621C322.841 774.99 328.004 780.153 334.373 780.153Z" fill="#113E49"/>
<path d="M322.841 768.621C322.841 775.009 327.993 780.161 334.381 780.161C340.753 780.161 345.905 775.009 345.905 768.621" fill="black"/>
<path d="M311.632 792.677C312.231 792.677 312.861 792.456 313.341 791.96C318.973 786.336 326.448 783.24 334.388 783.24H334.404C342.344 783.24 349.819 786.344 355.42 791.952C356.357 792.905 357.893 792.929 358.854 791.96C359.807 791.038 359.823 789.502 358.87 788.541C352.364 781.995 343.652 778.38 334.412 778.38H334.381C325.134 778.38 316.445 781.972 309.876 788.525C308.954 789.462 308.954 791.03 309.876 791.959C310.364 792.456 310.978 792.677 311.632 792.677Z" fill="#E5A376"/>
<path d="M275.193 826.65C278.639 826.65 281.432 819.745 281.432 811.227C281.432 802.709 278.639 795.804 275.193 795.804C271.747 795.804 268.954 802.709 268.954 811.227C268.954 819.745 271.747 826.65 275.193 826.65Z" fill="#AA1111"/>
<path d="M268.963 811.227C268.963 802.704 271.751 795.796 275.202 795.796C278.644 795.796 281.433 802.704 281.433 811.227" fill="#870E0E"/>
<path d="M255.595 919.212V879L220.764 899.118L255.595 919.212Z" fill="#0DCEAE"/>
<path d="M214.817 909.436V932.185V949.656L249.625 929.546L214.817 909.436Z" fill="#0DCEAE"/>
<path d="M267.521 879V919.204L302.345 899.11L267.521 879Z" fill="#0DCEAE"/>
<path d="M267.521 980.092L302.345 959.975L267.521 939.873V980.092Z" fill="#0DCEAE"/>
<path d="M255.595 980.092V939.873L220.756 959.975L255.595 980.092Z" fill="#0DCEAE"/>
<path d="M273.484 929.546L308.316 949.656V932.177V909.436L273.484 929.546Z" fill="#0DCEAE"/>
</g>
<path d="M614.767 1115.5L1956.5 282.493L1956.5 1115.5H614.767Z" fill="#B3A590" stroke="#312513" stroke-width="5"/>
<g clip-path="url(#clip1_132_248)">
<path d="M609.418 937.157C610.08 936.75 610.539 936.038 610.658 935.161L618.688 876.013C618.797 875.195 618.6 874.314 618.135 873.559L608.603 858.077C607.61 856.464 605.693 855.841 604.321 856.686L572.092 876.527C570.719 877.372 570.412 879.365 571.405 880.978L605.136 935.767C605.869 936.957 607.144 937.65 608.358 937.518C608.747 937.474 609.105 937.35 609.418 937.157Z" fill="#724502"/>
<path d="M663.887 863.413L656.193 920.075C656.083 920.893 656.281 921.774 656.747 922.531L698.818 990.867C699.811 992.478 701.729 993.102 703.101 992.257L733.976 973.249C735.348 972.404 735.655 970.41 734.663 968.799L669.41 862.808C668.676 861.617 667.4 860.924 666.186 861.057C664.972 861.19 664.064 862.122 663.887 863.413Z" fill="#724502"/>
<path d="M598.96 1014.2C599.622 1013.8 600.08 1013.09 600.199 1012.21L607.892 955.547C608.003 954.728 607.805 953.849 607.339 953.091L565.267 884.755C564.274 883.142 562.357 882.519 560.984 883.364L530.11 902.372C528.737 903.217 528.43 905.209 529.423 906.823L594.676 1012.81C595.41 1014 596.686 1014.7 597.899 1014.56C598.288 1014.52 598.647 1014.4 598.96 1014.2Z" fill="#724502"/>
<path d="M577.971 1069.29L606.677 1051.62C608.049 1050.78 608.357 1048.78 607.365 1047.17L523.285 910.601C522.292 908.988 520.374 908.366 519.002 909.211L490.295 926.884C488.923 927.729 488.616 929.721 489.609 931.334L573.687 1067.9C574.681 1069.52 576.598 1070.14 577.971 1069.29Z" fill="#724502"/>
<path d="M613.502 1043.39C614.495 1045 616.413 1045.63 617.785 1044.78L631.645 1036.25C632.319 1035.83 632.767 1035.11 632.884 1034.25L658.387 846.463C658.498 845.643 658.301 844.764 657.835 844.008L650.584 832.23C649.591 830.616 647.673 829.994 646.301 830.839L632.44 839.372C631.766 839.787 631.318 840.508 631.201 841.367L605.676 1029.12C605.565 1029.94 605.762 1030.82 606.228 1031.58L613.502 1043.39Z" fill="#724502"/>
<path d="M778.231 955.95L582.412 1076.51C581.039 1077.35 580.733 1079.35 581.725 1080.96L602.498 1114.7C603.491 1116.31 605.409 1116.94 606.781 1116.09L802.601 995.534C803.973 994.689 804.28 992.695 803.288 991.083L782.515 957.342C781.522 955.729 779.604 955.105 778.231 955.95ZM609.395 1087.17C607.036 1083.34 607.769 1078.59 611.03 1076.58C614.29 1074.58 618.863 1076.06 621.221 1079.89C623.58 1083.72 622.846 1088.47 619.587 1090.48C616.326 1092.49 611.754 1091 609.395 1087.17ZM763.778 992.127C761.419 988.295 762.152 983.543 765.412 981.536C768.673 979.529 773.246 981.015 775.604 984.846C777.963 988.677 777.23 993.428 773.969 995.435C770.709 997.442 766.137 995.957 763.778 992.127Z" fill="#724502"/>
<path d="M620.215 857.626C620.876 857.218 621.335 856.507 621.455 855.631L621.85 852.716C622.022 851.447 621.45 850.078 620.396 849.239C619.343 848.401 618.012 848.256 617.015 848.87L615.426 849.848C614.054 850.693 613.746 852.685 614.74 854.298L615.932 856.235C616.665 857.426 617.941 858.12 619.153 857.986C619.543 857.944 619.902 857.818 620.215 857.626Z" fill="black"/>
<path d="M653.428 940.459L645.397 999.607C645.287 1000.43 645.484 1001.31 645.951 1002.06L655.483 1017.55C656.475 1019.16 658.393 1019.78 659.765 1018.94L691.994 999.095C693.367 998.249 693.674 996.257 692.681 994.645L658.95 939.856C658.217 938.665 656.942 937.971 655.728 938.105C654.514 938.236 653.604 939.169 653.428 940.459Z" fill="#724502"/>
<path d="M657.304 759.53L461.485 880.087C460.112 880.932 459.805 882.924 460.799 884.538L481.571 918.279C482.564 919.892 484.482 920.515 485.855 919.67L681.674 799.113C683.047 798.268 683.354 796.275 682.361 794.662L661.588 760.921C660.594 759.308 658.677 758.685 657.304 759.53ZM488.482 890.775C486.123 886.943 486.857 882.192 490.117 880.185C493.377 878.178 497.949 879.662 500.308 883.494C502.667 887.326 501.933 892.076 498.674 894.083C495.413 896.09 490.841 894.607 488.482 890.775ZM642.865 795.728C640.506 791.896 641.239 787.146 644.5 785.139C647.76 783.132 652.332 784.616 654.691 788.447C657.05 792.28 656.317 797.03 653.056 799.037C649.796 801.044 645.224 799.561 642.865 795.728Z" fill="#724502"/>
<path d="M686.116 806.327L657.41 824C656.037 824.845 655.729 826.838 656.722 828.451L740.801 965.019C741.794 966.631 743.712 967.254 745.084 966.409L773.79 948.737C775.163 947.892 775.47 945.899 774.477 944.286L690.398 807.718C689.405 806.105 687.488 805.483 686.116 806.327Z" fill="#724502"/>
<path d="M642.632 1019.99L642.236 1022.9C642.063 1024.17 642.635 1025.54 643.689 1026.38C644.743 1027.22 646.074 1027.37 647.071 1026.75L648.66 1025.77C650.032 1024.93 650.339 1022.94 649.347 1021.32L648.154 1019.39C647.421 1018.2 646.145 1017.5 644.932 1017.64C643.718 1017.77 642.807 1018.7 642.632 1019.99Z" fill="#63471C"/>
</g>
<path d="M828.004 1043.01C828.004 1039.13 829.661 1035.78 832.976 1032.97C836.291 1030.15 840.701 1028.75 846.205 1028.75C851.959 1028.75 856.556 1029.75 859.996 1031.75C863.436 1033.75 865.625 1036.41 866.563 1039.72C866.688 1040.35 866.751 1041.22 866.751 1042.35C866.751 1046.35 865.5 1049.57 862.998 1052.01C860.496 1054.45 857.619 1056.3 854.367 1057.55L855.774 1057.92C860.528 1059.18 864.062 1061.15 866.376 1063.83C868.69 1066.52 869.847 1069.56 869.847 1072.94C869.847 1074.94 869.472 1076.91 868.721 1078.85C867.971 1080.78 866.72 1082.75 864.968 1084.76C863.217 1086.76 860.653 1088.32 857.275 1089.45C853.898 1090.57 849.926 1091.17 845.36 1091.23C839.731 1091.23 834.915 1089.82 830.912 1087.01C826.909 1084.19 824.939 1080.5 825.001 1075.94C825.127 1073.75 825.877 1071.97 827.253 1070.59C828.629 1069.21 830.506 1068.49 832.882 1068.43C835.322 1068.43 837.229 1069.18 838.605 1070.68C839.981 1072.18 840.701 1074.09 840.763 1076.41C840.763 1077.09 840.701 1077.75 840.575 1078.38C840.45 1079 840.231 1079.57 839.919 1080.07C839.606 1080.57 839.293 1081 838.981 1081.38C838.668 1081.75 838.355 1082.07 838.042 1082.32C837.73 1082.57 837.448 1082.79 837.198 1082.97C836.948 1083.16 836.698 1083.32 836.447 1083.44L836.26 1083.54C836.26 1083.6 836.604 1083.79 837.292 1084.1C837.98 1084.41 839.106 1084.76 840.669 1085.13C842.233 1085.51 843.828 1085.69 845.454 1085.69H845.829C849.645 1085.69 852.146 1083.91 853.335 1080.35C853.835 1078.91 854.085 1076.41 854.085 1072.84C854.085 1069.46 853.773 1066.87 853.147 1065.05C852.522 1063.24 851.302 1061.83 849.488 1060.83C848.425 1060.33 846.33 1060.05 843.202 1059.99C840.888 1059.99 839.512 1059.93 839.074 1059.8C838.637 1059.68 838.418 1059.14 838.418 1058.21V1057.55C838.418 1056.42 838.574 1055.77 838.887 1055.58C839.199 1055.39 840.325 1055.2 842.264 1055.02C842.702 1055.02 843.171 1054.98 843.671 1054.92C844.172 1054.86 844.578 1054.83 844.891 1054.83C845.204 1054.83 845.454 1054.8 845.642 1054.73C846.642 1054.42 847.549 1053.95 848.362 1053.33C849.176 1052.7 850.082 1051.36 851.083 1049.29C852.084 1047.23 852.553 1044.7 852.49 1041.69C852.49 1040.51 852.428 1039.57 852.303 1038.88C852.178 1038.19 851.928 1037.38 851.552 1036.44C851.177 1035.5 850.458 1034.88 849.394 1034.56C848.331 1034.25 847.018 1034.03 845.454 1033.91C844.328 1033.91 843.546 1033.94 843.109 1034C841.42 1034.38 839.606 1035.09 837.667 1036.16C840.857 1037.41 842.452 1039.69 842.452 1043.01C842.452 1045.57 841.701 1047.42 840.2 1048.54C838.699 1049.67 837.042 1050.23 835.228 1050.23C833.289 1050.23 831.6 1049.61 830.162 1048.35C828.723 1047.1 828.004 1045.32 828.004 1043.01Z" fill="black"/>
<path d="M899.4 1028.84H900.714H900.901C914.536 1028.84 922.104 1036.22 923.605 1050.98C923.918 1053.98 924.075 1057.05 924.075 1060.18C924.075 1072.37 921.792 1080.75 917.226 1085.32C913.536 1089.2 908.25 1091.14 901.37 1091.14C890.3 1091.14 883.294 1086.01 880.355 1075.75C879.229 1072.12 878.666 1067.06 878.666 1060.55C878.666 1048.79 880.793 1040.38 885.046 1035.31C886.734 1033.25 888.986 1031.65 891.801 1030.53C894.615 1029.4 897.148 1028.84 899.4 1028.84ZM909.533 1038.79C907.844 1035.28 905.092 1033.53 901.276 1033.53C898.837 1033.53 896.711 1034.44 894.897 1036.25C893.583 1037.69 892.801 1039.69 892.551 1042.26C892.301 1044.82 892.145 1051.08 892.082 1061.02C892.082 1070.53 892.332 1076.63 892.833 1079.32C893.208 1081.13 894.115 1082.76 895.553 1084.19C896.992 1085.63 898.931 1086.35 901.37 1086.35C904.623 1086.35 907.125 1084.91 908.876 1082.04C909.626 1080.78 910.095 1078.75 910.283 1075.94C910.471 1073.12 910.596 1067.59 910.658 1059.33C910.658 1047.51 910.283 1040.66 909.533 1038.79Z" fill="black"/>
<path d="M932.039 1034.8C932.039 1031.4 933.299 1028.41 935.819 1025.85C938.34 1023.28 941.369 1022 944.907 1022C948.444 1022 951.473 1023.24 953.994 1025.71C956.514 1028.19 957.797 1031.26 957.841 1034.93C957.841 1038.38 956.603 1041.39 954.127 1043.96C951.65 1046.52 948.599 1047.8 944.973 1047.8C941.435 1047.8 938.406 1046.54 935.886 1044.02C933.365 1041.5 932.083 1038.43 932.039 1034.8ZM944.641 1024.72C942.121 1024.72 939.843 1025.65 937.809 1027.51C935.775 1029.36 934.758 1031.82 934.758 1034.87C934.758 1037.83 935.753 1040.26 937.743 1042.16C939.733 1044.07 942.143 1045.04 944.973 1045.08C946.476 1045.08 947.869 1044.8 949.152 1044.22C950.434 1043.65 951.341 1043.07 951.871 1042.5C952.402 1041.92 952.866 1041.37 953.264 1040.84C954.502 1039.2 955.121 1037.21 955.121 1034.87C955.121 1032.08 954.171 1029.69 952.269 1027.7C950.368 1025.71 947.825 1024.72 944.641 1024.72Z" fill="black"/>
<path d="M765.5 1022C812.5 1046 810.5 1096 774.5 1115.5" stroke="black" stroke-width="3"/>
<path d="M442 837L470.852 836.046L455.6 811.537L442 837ZM1787 2.18438e-05L1758.15 0.95421L1773.4 25.4635L1787 2.18438e-05ZM462.424 827.235L1769.22 14.0105L1766.58 9.76539L459.782 822.99L462.424 827.235Z" fill="black"/>
<path d="M783.07 927.229C782.937 926.907 782.766 926.473 782.559 925.927C782.351 925.382 782.054 924.286 781.668 922.641C781.282 920.996 781.029 919.572 780.909 918.37C780.789 917.168 780.949 915.832 781.39 914.36C781.83 912.889 782.552 911.885 783.555 911.349C784.558 910.814 785.613 910.415 786.72 910.152C787.827 909.889 788.757 909.934 789.51 910.286C790.264 910.637 790.943 910.967 791.549 911.273C792.155 911.58 792.613 911.941 792.923 912.358L793.367 912.796C793.426 912.894 793.478 912.93 793.522 912.903L793.764 911.652C794.524 906.904 796.696 903.453 800.28 901.3C801.032 900.848 801.748 900.485 802.426 900.211C803.105 899.938 803.784 899.765 804.463 899.692C805.142 899.619 805.71 899.613 806.168 899.673C806.626 899.733 807.135 899.83 807.696 899.962C808.257 900.094 808.671 900.281 808.937 900.524C809.203 900.766 809.572 900.98 810.045 901.165C810.518 901.35 810.784 901.593 810.843 901.892C810.903 902.192 811.103 902.374 811.442 902.438C811.782 902.502 811.93 902.648 811.886 902.875L811.973 901.817C812.54 896.448 814.726 892.62 818.532 890.333C820.921 888.898 823.245 888.406 825.505 888.859C827.764 889.312 829.685 890.806 831.269 893.341C832.778 895.853 834.276 900.25 835.762 906.531C837.248 912.813 838.301 916.471 838.923 917.505C839.382 918.168 839.773 918.57 840.098 918.71C840.423 918.85 840.829 918.773 841.316 918.481C842.555 917.736 843.261 916.306 843.435 914.19C843.609 912.074 843.258 909.536 842.383 906.576C842.19 905.954 842.13 905.554 842.204 905.376C842.277 905.198 842.602 904.936 843.177 904.59C844.062 904.058 844.623 903.99 844.859 904.384C844.889 904.433 845.022 904.856 845.26 905.652C845.764 907.293 846.121 908.989 846.331 910.741C846.54 912.492 846.351 914.483 845.764 916.713C845.177 918.943 844.05 920.526 842.383 921.46C840.304 922.71 838.4 922.948 836.671 922.177C834.943 921.405 833.65 920.305 832.791 918.876C832.229 917.94 831.249 914.506 829.853 908.573C828.456 902.641 827.025 898.405 825.56 895.866C823.813 892.96 821.967 892.091 820.02 893.261L819.688 893.46C815.883 895.747 814.17 900.162 814.549 906.706L814.617 907.872L818.376 919.089C820.794 926.42 822.04 930.398 822.115 931.024C822.339 932.7 821.787 933.936 820.46 934.734C819.884 935.079 819.316 935.186 818.755 935.054C818.194 934.922 817.773 934.772 817.492 934.606C817.211 934.439 816.997 934.233 816.849 933.987C816.523 933.445 815.159 929.47 812.756 922.064L808.663 909.84C808.352 909.021 807.856 908.045 807.175 906.912C805.429 904.006 803.582 903.137 801.636 904.307L801.304 904.507C797.499 906.793 795.785 911.208 796.165 917.752L796.233 918.918L799.992 930.136C802.41 937.467 803.656 941.445 803.73 942.07C803.954 943.746 803.403 944.983 802.075 945.78C801.5 946.126 800.947 946.257 800.415 946.174C799.884 946.091 799.463 945.942 799.152 945.726C798.842 945.51 798.65 945.291 798.576 945.067C798.191 944.427 796.604 939.882 793.816 931.433C790.983 922.81 789.463 918.326 789.256 917.981C788.945 917.162 788.612 916.457 788.256 915.866C787.191 914.093 786.105 913.538 784.999 914.203C784.025 914.788 783.621 915.969 783.786 917.748C783.952 919.526 784.345 921.334 784.968 923.172C785.591 925.011 785.858 926.057 785.77 926.311C785.741 926.463 785.417 926.725 784.797 927.097L783.868 927.655C783.425 927.519 783.159 927.377 783.07 927.229Z" fill="black"/>
<path d="M859.438 875.308C859.054 874.668 859.067 873.989 859.48 873.272L901.757 847.87C902.657 847.865 903.285 848.158 903.64 848.749C903.966 849.291 903.937 849.945 903.555 850.712L882.494 863.467L861.388 876.148C860.532 876.327 859.882 876.047 859.438 875.308ZM868.052 889.644C867.608 888.905 867.666 888.199 868.226 887.528L910.437 862.165C911.352 862.285 911.958 862.592 912.254 863.085C912.638 863.725 912.603 864.417 912.146 865.161L869.869 890.563C869.042 890.591 868.437 890.284 868.052 889.644Z" fill="black"/>
<path d="M929.388 825.032C928.194 825.75 926.976 825.878 925.735 825.416C924.495 824.955 923.489 824.084 922.72 822.803C920.618 819.306 919.97 815.571 920.776 811.601C921.582 807.63 923.733 804.595 927.228 802.494C931.255 800.075 935.446 799.434 939.803 800.571C944.159 801.708 947.677 804.455 950.355 808.813C951.628 810.931 952.399 813.217 952.669 815.67C952.938 818.123 952.883 820.436 952.502 822.609C952.122 824.782 951.447 827.668 950.478 831.267C949.803 833.751 948.952 837.347 947.926 842.053L946.497 848.544L951.585 845.587C958.532 841.413 962.152 839.07 962.447 838.558C962.697 838.273 961.911 835.762 960.088 831.024L959.955 830.803L962.61 829.207L962.743 829.429C962.787 829.604 963.847 832.018 965.92 836.672C967.994 841.326 969.024 843.791 969.01 844.068L969.143 844.29L944.52 859.085L943.676 857.681L943.144 856.794C942.936 856.449 942.847 856 942.876 855.446C942.905 854.893 943.05 853.632 943.313 851.664C943.649 849.316 943.926 847.272 944.145 845.532C944.247 844.8 944.452 843.437 944.759 841.442C945.066 839.447 945.27 838.084 945.373 837.352C945.475 836.62 945.628 835.422 945.832 833.757C946.036 832.092 946.152 830.883 946.181 830.128C946.209 829.374 946.274 828.329 946.375 826.994C946.477 825.659 946.468 824.592 946.348 823.792C946.229 822.992 946.132 822.078 946.056 821.051C945.981 820.024 945.795 819.063 945.498 818.168C945.202 817.273 944.912 816.441 944.631 815.672C944.349 814.903 943.927 814.05 943.365 813.114C941.5 810.01 939.135 807.778 936.269 806.415C933.403 805.053 930.576 805.21 927.788 806.885C926.328 807.762 925.297 808.952 924.694 810.454C924.091 811.956 923.805 813.234 923.836 814.288C923.867 815.342 923.927 815.943 924.016 816.091C924.046 816.14 924.171 816.098 924.392 815.965C925.189 815.487 926.214 815.34 927.469 815.524C928.725 815.709 929.826 816.589 930.773 818.166C931.513 819.397 931.781 820.644 931.576 821.907C931.371 823.17 930.642 824.212 929.388 825.032Z" fill="black"/>
<path d="M954.784 794.083C954.864 788.604 957.05 784.575 961.342 781.997C963.466 780.72 965.974 780.085 968.868 780.089C971.761 780.094 974.848 781.323 978.129 783.777C982.223 786.882 986.416 792.006 990.708 799.149C995.296 806.785 997.852 813.194 998.377 818.377C998.735 820.978 998.51 823.359 997.701 825.521C996.893 827.683 996.002 829.257 995.029 830.244C994.056 831.231 993.032 832.081 991.955 832.795C990.805 833.487 989.565 834.03 988.237 834.426C986.909 834.821 985.086 834.844 982.768 834.494C980.45 834.143 978.242 833.224 976.143 831.736C971.813 828.84 967.354 823.574 962.767 815.938C957.616 807.367 954.955 800.082 954.784 794.083ZM969.184 784.224C966.909 783.445 964.865 783.601 963.051 784.691C961.193 785.807 960.073 787.553 959.693 789.927C959.357 791.872 959.692 794.084 960.7 796.563C961.707 799.042 964.372 803.877 968.693 811.069C973.37 818.853 976.626 823.87 978.46 826.12C980.293 828.371 982.259 829.838 984.356 830.522C986.483 831.256 988.454 831.077 990.268 829.987C992.038 828.924 993.098 827.281 993.449 825.059C993.844 822.81 993.397 820.262 992.109 817.416C990.82 814.57 987.993 809.463 983.626 802.097C979.335 794.954 976.331 790.356 974.615 788.302C972.9 786.249 971.089 784.889 969.184 784.224Z" fill="black"/>
<path d="M986.874 768.566C986.578 768.073 986.326 767.454 986.118 766.707C985.911 765.96 985.984 765.48 986.338 765.268C986.382 765.241 987.901 764.161 990.894 762.027C993.888 759.893 995.414 758.775 995.473 758.672C996.004 758.353 996.388 758.391 996.624 758.785C996.832 759.13 998.819 764.942 1002.59 776.223C1006.23 787.306 1008.16 793.02 1008.37 793.365C1008.91 792.367 1009.27 791.514 1009.45 790.804C1009.98 789.28 1010.57 786.811 1011.23 783.397C1011.89 779.984 1012.54 777.551 1013.17 776.098C1014.14 773.705 1015.42 772.03 1017.02 771.073C1018.34 770.275 1019.66 770.118 1020.98 770.602C1022.29 771.086 1023.49 772.177 1024.57 773.875C1025.31 775.106 1025.78 776.234 1025.97 777.257C1026.16 778.281 1026.11 779.149 1025.82 779.862C1025.53 780.576 1025.22 781.126 1024.91 781.513C1024.6 781.9 1024.25 782.213 1023.85 782.452C1022.97 782.984 1022.1 783.138 1021.24 782.915C1020.38 782.693 1019.69 782.138 1019.16 781.251C1018.42 780.02 1018.16 778.797 1018.4 777.583C1018.63 776.37 1019.03 775.427 1019.59 774.756L1020.52 773.896C1019.63 773.624 1018.92 773.647 1018.39 773.966L1018.13 774.126C1016.8 775.124 1015.78 776.577 1015.06 778.485C1014.34 780.393 1013.67 782.94 1013.05 786.126C1012.44 789.311 1011.88 791.691 1011.38 793.265C1011.5 793.261 1011.87 793.136 1012.51 792.889C1013.14 792.642 1013.76 792.47 1014.37 792.375C1014.97 792.28 1015.67 792.131 1016.45 791.929C1017.23 791.727 1018.04 791.713 1018.86 791.887C1019.69 792.061 1020.44 792.211 1021.12 792.34C1021.8 792.468 1022.56 792.882 1023.4 793.583C1024.25 794.284 1024.87 795.017 1025.27 795.782C1025.77 796.62 1026.27 797.696 1026.76 799.011C1027.25 800.326 1027.7 801.391 1028.13 802.206C1029.32 804.177 1030.51 804.803 1031.7 804.085C1033.83 802.809 1033.79 798.841 1031.6 792.181C1031.45 791.734 1031.77 791.271 1032.57 790.793L1032.83 790.633C1033.54 790.208 1034.03 790.217 1034.29 790.66C1034.44 790.907 1034.58 791.291 1034.72 791.814C1037.08 799.85 1036.55 804.892 1033.15 806.939C1031.15 808.135 1029.16 808.465 1027.15 807.929C1025.14 807.392 1023.41 805.917 1021.96 803.503C1021.43 802.617 1021.03 801.813 1020.78 801.093C1020.53 800.373 1020.24 799.742 1019.91 799.2C1019.26 798.116 1018.39 797.366 1017.3 796.95C1016.21 796.534 1015.09 796.433 1013.95 796.647C1012.82 796.86 1011.9 797.041 1011.21 797.19C1010.52 797.338 1010.07 797.504 1009.88 797.686L1009.75 797.766C1010.46 800.154 1011.19 802.428 1011.95 804.588C1012.71 806.749 1013.26 808.364 1013.6 809.432C1013.94 810.501 1014.29 811.532 1014.64 812.525C1015 813.518 1015.2 814.203 1015.24 814.578C1015.29 814.953 1015.33 815.367 1015.36 815.818C1015.39 816.269 1015.28 816.637 1015.03 816.921C1014.72 817.71 1014.23 818.304 1013.57 818.703C1012.81 819.155 1012.09 819.254 1011.4 819.001C1010.7 818.748 1010.25 818.449 1010.05 818.104C1009.75 817.611 1008.2 813.178 1005.4 804.805C1002.59 796.432 999.843 788.196 997.144 780.096L993.162 767.906C992.821 767.239 992.43 766.938 991.987 767.002C991.544 767.067 990.607 767.463 989.176 768.188L988.845 768.388C988.402 768.654 988.115 768.826 987.982 768.906C987.849 768.986 987.65 769.005 987.384 768.964C987.118 768.922 986.948 768.79 986.874 768.566Z" fill="black"/>
<path d="M1060.88 784.844C1060.6 785.883 1060.04 787.158 1059.2 788.668C1058.36 790.178 1057.24 791.358 1055.82 792.209C1053.03 793.884 1050.13 794.118 1047.12 792.911C1044.11 791.705 1041.54 789.391 1039.42 785.969C1036.32 780.796 1035.16 775.019 1035.97 768.637C1036.77 762.255 1039.23 757.789 1043.36 755.241C1045.44 753.992 1048.08 754.017 1051.27 755.318L1051.29 754.903C1051.29 754.702 1051.31 754.488 1051.36 754.261C1051.4 754.033 1051.48 753.716 1051.6 753.31C1051.72 752.905 1051.9 752.559 1052.15 752.275C1052.4 751.99 1052.71 751.704 1053.08 751.415C1053.7 751.043 1054.34 750.959 1055 751.163C1055.67 751.367 1056.17 751.702 1056.51 752.168C1056.96 752.907 1059.28 759.625 1063.47 772.323C1067.67 785.021 1069.78 791.533 1069.79 791.859C1070.59 794.998 1070.21 798.214 1068.63 801.506C1067.06 804.799 1064.6 807.48 1061.27 809.55C1055.03 813.299 1050.91 813.498 1048.89 810.148C1048.12 808.868 1047.84 807.495 1048.05 806.031C1048.25 804.568 1048.97 803.464 1050.21 802.719C1050.88 802.32 1051.63 802.17 1052.47 802.268C1053.31 802.365 1054.08 802.943 1054.78 804C1055.07 804.493 1055.31 804.987 1055.49 805.484C1055.66 805.98 1055.72 806.418 1055.64 806.797C1055.57 807.177 1055.54 807.529 1055.56 807.855C1055.57 808.181 1055.53 808.472 1055.45 808.726L1055.4 808.953L1055.47 808.913C1056 808.795 1057.37 808.072 1059.58 806.742C1061.27 805.732 1062.42 804.639 1063.03 803.463C1063.73 802.309 1064.19 800.925 1064.42 799.31C1064.66 797.694 1064.58 796.164 1064.19 794.72C1063.9 793.625 1063.33 791.885 1062.5 789.501C1061.66 786.79 1061.12 785.238 1060.88 784.844ZM1053.07 760.873L1052.32 760.22C1051.86 759.758 1051.53 759.455 1051.32 759.311C1051.11 759.167 1050.77 758.902 1050.3 758.516C1049.83 758.13 1049.4 757.918 1049.01 757.88C1048.63 757.843 1048.18 757.744 1047.66 757.586C1047.15 757.427 1046.61 757.445 1046.07 757.638C1045.52 757.832 1044.99 758.051 1044.48 758.294C1042.53 759.464 1041.43 761.899 1041.19 765.6C1041.01 768.319 1041.67 771.915 1043.15 776.387C1044.64 780.86 1045.91 783.983 1046.97 785.757C1049.31 789.648 1051.85 790.77 1054.6 789.122C1057.08 787.633 1058.47 784.446 1058.79 779.563L1058.88 778.505L1053.07 760.873Z" fill="black"/>
<path d="M904 718L863.633 719.961L885.514 753.939L904 718ZM714.895 843.943L879.411 737.998L875.621 732.112L711.105 838.057L714.895 843.943Z" fill="#FF0000"/>
<path d="M758 603.479C757.581 603.423 757.32 603.31 757.218 603.14C757.15 603.026 755.979 590.23 753.706 564.751C751.434 539.272 750.343 526.351 750.433 525.989C750.365 525.49 751.039 524.814 752.456 523.963C753.759 523.18 754.672 522.901 755.194 523.128C755.5 523.252 766.368 530.299 787.798 544.267C809.227 558.235 820.004 565.259 820.129 565.339C820.231 565.509 820.209 565.792 820.062 566.189L758 603.479ZM779.195 550.94L755.865 535.8L760.612 591.265L781.577 578.784L802.576 566.166C802.508 566.053 794.714 560.978 779.195 550.94Z" fill="black"/>
<path d="M814.14 536.307C813.106 533.688 812.985 530.02 813.775 525.302C814.566 520.584 816.9 517.022 820.777 514.615C822.76 513.424 824.88 512.844 827.137 512.876C829.394 512.909 831.378 513.452 833.091 514.506C833.326 509.505 835.116 506 838.46 503.99C840.557 502.73 842.745 502.264 845.025 502.591C847.304 502.919 849.102 504.114 850.419 506.177C851.407 507.821 851.81 509.391 851.63 510.888C851.449 512.385 851.059 513.468 850.458 514.137C849.857 514.807 849.274 515.312 848.707 515.652C847.63 516.299 846.564 516.516 845.51 516.301C844.455 516.086 843.621 515.468 843.008 514.448C841.441 511.841 841.786 509.204 844.041 506.538C842.974 506.176 841.62 506.489 839.976 507.476C839.239 507.919 838.735 508.299 838.463 508.617C836.854 510.818 836.391 513.642 837.073 517.089C841.199 531.657 843.892 539.99 845.152 542.088C846.105 543.674 847.24 544.536 848.555 544.671C849.871 544.806 851.067 544.55 852.144 543.903C854.241 542.643 855.748 540.465 856.664 537.369C857.581 534.272 857.59 531.142 856.692 527.979C856.522 527.31 856.504 526.896 856.64 526.738C856.776 526.579 857.196 526.25 857.899 525.75L858.239 525.546C859.089 525.035 859.65 525.006 859.922 525.46C859.957 525.516 860.087 525.862 860.314 526.497C861.349 530.273 861.311 534.191 860.203 538.251C859.094 542.311 856.811 545.38 853.354 547.457C849.386 549.841 845.31 549.861 841.124 547.516C840.911 552.426 839.303 555.784 836.299 557.589L835.789 557.895C833.012 559.564 830.586 560.019 828.51 559.261C826.435 558.502 824.875 557.318 823.83 555.709C822.741 553.895 822.394 552.098 822.789 550.317C823.185 548.537 824.12 547.204 825.593 546.318C828.03 544.854 829.964 545.312 831.394 547.692C832.076 548.826 832.331 550.022 832.162 551.281C831.993 552.54 831.682 553.498 831.228 554.156C830.775 554.814 830.492 555.177 830.379 555.245L830.175 555.484C830.209 555.54 830.447 555.551 830.889 555.517C831.331 555.483 831.904 555.409 832.607 555.295C833.31 555.181 833.899 554.943 834.375 554.579C836.416 553.353 837.407 551.022 837.348 547.587C837.313 546.373 836.807 544.055 835.829 540.631C834.852 537.207 833.807 533.669 832.693 530.019C831.579 526.368 830.909 524.225 830.682 523.59C830.046 521.89 829.523 520.699 829.115 520.019C828.161 518.432 827.055 517.554 825.796 517.385C824.537 517.216 823.37 517.454 822.293 518.101C820.026 519.464 818.445 521.648 817.551 524.653C816.657 527.659 816.665 530.817 817.574 534.127C817.767 534.706 817.796 535.074 817.66 535.233C817.524 535.392 817.105 535.721 816.402 536.22L815.212 536.936C814.667 536.8 814.31 536.59 814.14 536.307Z" fill="black"/>
<path d="M883.763 487.762C883.32 487.025 883.377 486.22 883.932 485.346L938.087 452.807C939.209 452.749 939.975 453.061 940.384 453.741C940.758 454.364 940.685 455.141 940.164 456.071L913.18 472.401L886.145 488.645C885.068 488.906 884.274 488.612 883.763 487.762ZM893.673 504.255C893.162 503.405 893.275 502.565 894.012 501.737L948.082 469.249C949.216 469.339 949.953 469.667 950.294 470.234C950.736 470.971 950.652 471.793 950.04 472.7L895.885 505.24C894.853 505.32 894.116 504.992 893.673 504.255Z" fill="black"/>
<path d="M967.768 424.443C967.757 424.296 966.382 420.918 963.645 414.308L959.54 404.394C959.472 404.281 960.004 403.884 961.138 403.203L962.838 402.181L963.042 402.521C963.383 403.088 964.098 403.314 965.186 403.2C966.275 403.086 967.902 402.455 970.067 401.309C972.232 400.162 977.055 397.341 984.536 392.846L994.823 386.665L996.816 389.981L995.785 401.361C995.684 402.347 995.515 403.992 995.278 406.294C995.041 408.596 994.906 410.104 994.873 410.818C994.839 411.533 994.789 412.797 994.722 414.612C994.655 416.426 994.701 417.787 994.861 418.694C995.02 419.601 995.253 420.888 995.56 422.555C995.868 424.221 996.283 425.746 996.805 427.129C997.328 428.513 998.02 430.179 998.883 432.129C999.746 434.079 1000.73 436.108 1001.85 438.216C1002.96 440.325 1004.27 442.7 1005.78 445.341C1006.26 446.134 1006.73 446.928 1007.21 447.721C1007.69 448.515 1008.07 449.212 1008.35 449.813L1008.81 450.578C1009.16 451.678 1009.12 452.823 1008.68 454.014C1008.24 455.205 1007.48 456.124 1006.4 456.771C1005.78 457.146 1005.13 457.418 1004.46 457.589C1003.79 457.759 1002.87 457.578 1001.71 457.046C1000.54 456.514 999.545 455.568 998.727 454.207C993.347 445.252 990.51 434.306 990.219 421.367C990.262 418.873 990.583 414.013 991.179 406.79L991.872 399.084L983.965 403.834C974.103 409.76 969.02 413.046 968.714 413.693C968.476 414.067 968.573 414.934 969.005 416.295C969.436 417.655 969.885 419.044 970.351 420.461L971.169 422.4L971.322 422.655L967.921 424.698L967.768 424.443Z" fill="black"/>
<path d="M1016.12 415.176C1015.97 414.802 1015.78 414.298 1015.56 413.663C1015.33 413.028 1015.02 411.747 1014.64 409.819C1014.25 407.892 1014.02 406.219 1013.94 404.802C1013.86 403.385 1014.13 401.791 1014.77 400.022C1015.4 398.252 1016.36 397.021 1017.64 396.329C1018.92 395.636 1020.26 395.103 1021.65 394.727C1023.05 394.352 1024.2 394.352 1025.12 394.725C1026.04 395.099 1026.87 395.45 1027.61 395.778C1028.34 396.107 1028.89 396.509 1029.26 396.985L1029.78 397.478C1029.85 397.591 1029.91 397.631 1029.97 397.597L1030.34 396.1C1031.57 390.429 1034.47 386.215 1039.06 383.456C1040.03 382.877 1040.94 382.406 1041.8 382.043C1042.66 381.679 1043.52 381.435 1044.37 381.31C1045.22 381.184 1045.93 381.144 1046.49 381.189C1047.06 381.234 1047.69 381.319 1048.38 381.443C1049.07 381.567 1049.58 381.766 1049.9 382.037C1050.21 382.309 1050.66 382.542 1051.24 382.734C1051.82 382.926 1052.14 383.198 1052.19 383.55C1052.25 383.901 1052.49 384.105 1052.91 384.162C1053.33 384.218 1053.5 384.383 1053.44 384.655L1053.61 383.396C1054.62 377 1057.57 372.337 1062.44 369.408C1065.5 367.569 1068.43 366.853 1071.22 367.26C1074.01 367.666 1076.32 369.326 1078.14 372.239C1079.88 375.13 1081.49 380.254 1082.98 387.613C1084.47 394.971 1085.58 399.246 1086.29 400.436C1086.83 401.195 1087.29 401.649 1087.69 401.796C1088.08 401.943 1088.59 401.829 1089.22 401.455C1090.81 400.501 1091.77 398.765 1092.11 396.248C1092.45 393.73 1092.15 390.742 1091.23 387.284C1091.03 386.559 1090.98 386.088 1091.08 385.873C1091.18 385.657 1091.6 385.328 1092.34 384.885C1093.47 384.204 1094.17 384.09 1094.45 384.544C1094.48 384.6 1094.62 385.094 1094.87 386.023C1095.41 387.939 1095.75 389.929 1095.91 391.993C1096.07 394.057 1095.72 396.427 1094.86 399.104C1094 401.78 1092.51 403.72 1090.38 404.924C1087.71 406.524 1085.33 406.917 1083.22 406.102C1081.11 405.287 1079.56 404.057 1078.57 402.414C1077.92 401.337 1076.9 397.323 1075.5 390.373C1074.1 383.423 1072.56 378.485 1070.88 375.561C1068.87 372.217 1066.62 371.294 1064.13 372.792L1063.7 373.048C1058.83 375.976 1056.44 381.308 1056.53 389.041L1056.55 390.419L1060.59 403.497C1063.18 412.045 1064.51 416.688 1064.56 417.425C1064.75 419.398 1063.99 420.895 1062.29 421.917C1061.55 422.36 1060.84 422.519 1060.15 422.395C1059.45 422.27 1058.94 422.118 1058.6 421.936C1058.26 421.755 1058 421.523 1057.83 421.24C1057.46 420.616 1055.98 415.985 1053.42 407.345L1049.02 393.094C1048.68 392.142 1048.12 391.014 1047.33 389.71C1045.32 386.366 1043.07 385.444 1040.58 386.942L1040.15 387.198C1035.28 390.126 1032.89 395.457 1032.99 403.191L1033 404.569L1037.04 417.647C1039.63 426.195 1040.96 430.838 1041.02 431.575C1041.2 433.548 1040.44 435.045 1038.74 436.067C1038 436.51 1037.3 436.697 1036.65 436.63C1035.99 436.562 1035.47 436.409 1035.1 436.171C1034.72 435.933 1034.5 435.684 1034.42 435.423C1033.98 434.686 1032.26 429.392 1029.27 419.54C1026.24 409.483 1024.6 404.257 1024.36 403.86C1024.02 402.908 1023.65 402.091 1023.24 401.411C1022.01 399.371 1020.69 398.776 1019.27 399.628C1018.03 400.377 1017.45 401.8 1017.56 403.898C1017.66 405.996 1018.05 408.116 1018.72 410.259C1019.39 412.402 1019.66 413.626 1019.54 413.933C1019.49 414.114 1019.07 414.443 1018.28 414.92L1017.09 415.635C1016.55 415.499 1016.22 415.347 1016.12 415.176Z" fill="black"/>
<path d="M1984 277.999L1969.57 302.999L1998.43 302.999L1984 277.999ZM1984 1115L1998.43 1090L1969.57 1090L1984 1115ZM1981.5 300.499L1981.5 1092.5L1986.5 1092.5L1986.5 300.499L1981.5 300.499Z" fill="black"/>
<path d="M1867.96 677.479C1868.05 677.479 1871.28 677.255 1877.64 676.807C1884 676.358 1887.27 676.09 1887.45 676C1888.53 676 1889.07 676.403 1889.07 677.21C1889.07 678.195 1887.45 684.961 1884.23 697.507C1880.82 710.769 1879.12 717.535 1879.12 717.804C1879.12 717.983 1879.43 717.759 1880.06 717.132C1885.53 712.293 1891.35 709.873 1897.54 709.873C1902.37 709.873 1906.27 711.083 1909.23 713.503C1912.19 715.922 1913.71 719.462 1913.8 724.122C1913.8 728.692 1912.1 735.771 1908.69 745.36C1905.29 754.948 1903.58 760.683 1903.58 762.565C1903.67 763.82 1903.9 764.671 1904.26 765.119C1904.61 765.567 1905.29 765.791 1906.27 765.791C1908.78 765.791 1911.11 764.447 1913.26 761.759C1915.41 759.07 1917.16 755.396 1918.5 750.736C1918.77 749.751 1919.04 749.168 1919.31 748.989C1919.58 748.81 1920.3 748.72 1921.46 748.72C1923.25 748.72 1924.15 749.078 1924.15 749.795C1924.15 749.885 1923.97 750.557 1923.61 751.812C1922.18 757.099 1919.89 761.445 1916.76 764.85C1913.71 768.703 1910.08 770.63 1905.87 770.63H1905.2C1900.99 770.63 1897.94 769.42 1896.06 767.001C1894.17 764.581 1893.23 762.027 1893.23 759.339C1893.23 757.905 1894.85 752.618 1898.07 743.478C1901.3 734.337 1902.96 727.482 1903.05 722.912C1903.05 717.625 1901.07 714.981 1897.13 714.981H1896.46C1889.02 714.981 1882.57 719.372 1877.1 728.154L1876.16 729.902L1871.59 748.048C1868.72 759.697 1867.07 766.06 1866.62 767.135C1865.45 769.555 1863.48 770.765 1860.7 770.765C1859.45 770.765 1858.37 770.361 1857.48 769.555C1856.58 768.748 1856.09 767.942 1856 767.135C1856 765.881 1859.27 752.26 1865.81 726.272L1875.76 686.485C1875.76 685.32 1875.45 684.603 1874.82 684.334C1874.19 684.065 1872.44 683.841 1869.58 683.662H1866.75C1866.22 683.124 1865.95 682.766 1865.95 682.586C1865.95 682.407 1866.04 681.556 1866.22 680.033C1866.66 678.33 1867.25 677.479 1867.96 677.479Z" fill="black"/>
<path d="M713.203 759.33C712.332 757.88 711.345 757.486 710.244 758.148C708.852 758.984 707.908 760.696 707.411 763.283C706.914 765.87 707.217 769.2 708.322 773.271C708.299 773.363 708.293 773.485 708.305 773.636C708.316 773.787 708.34 773.891 708.374 773.949C708.409 774.007 708.386 774.1 708.305 774.228C708.224 774.355 708.154 774.436 708.096 774.471C708.038 774.506 707.922 774.576 707.749 774.68C707.575 774.785 707.343 774.924 707.053 775.098L705.835 775.83C705.278 775.691 704.948 775.535 704.843 775.361C704.599 774.955 704.326 773.975 704.023 772.421C703.721 770.866 703.511 768.941 703.393 766.644C703.276 764.347 703.663 762.102 704.555 759.909C705.447 757.716 706.89 755.981 708.884 754.704C711.319 753.241 713.622 752.804 715.792 753.394C717.961 753.985 719.632 755.19 720.805 757.011C721.397 757.996 721.763 758.802 721.903 759.429C722.112 759.776 722.444 761.313 722.898 764.039C723.352 766.765 724.003 769.885 724.852 773.399C725.701 776.914 726.73 779.807 727.938 782.08C728.878 783.646 729.79 784.834 730.672 785.646C732.924 787.686 735.499 787.835 738.398 786.093C740.543 784.804 741.951 782.617 742.622 779.53C743.293 776.444 743.366 773.283 742.842 770.047C742.318 766.811 741.713 763.9 741.027 761.313C740.341 758.727 739.702 756.941 739.11 755.955C738.309 754.621 737.38 753.601 736.324 752.894C735.268 752.187 734.293 751.747 733.4 751.574C732.506 751.4 731.671 751.192 730.894 750.949C730.116 750.706 729.501 750.207 729.048 749.454C728.282 748.178 728.118 746.658 728.558 744.895C728.998 743.131 729.855 741.866 731.131 741.1C732.233 740.438 733.532 740.368 735.029 740.889C736.525 741.41 737.999 742.812 739.451 745.097C740.392 746.662 741.489 749.277 742.745 752.942C744 756.607 745.104 760.876 746.059 765.747C747.013 770.619 747.028 775.305 746.102 779.807C745.177 784.308 742.993 787.633 739.549 789.781C735.838 792.011 732.306 792.831 728.953 792.241C725.693 791.675 722.966 789.566 720.771 785.913C719.691 784.115 718.808 782.121 718.123 779.929C717.437 777.737 716.587 773.631 715.574 767.611C714.62 763.134 713.83 760.373 713.203 759.33Z" fill="#FF0000"/>
<path d="M716.981 721.431C716.702 720.967 716.603 720.474 716.684 719.952C716.765 719.43 717.095 718.995 717.675 718.646C718.081 718.402 718.516 718.338 718.98 718.454C719.409 718.512 720.03 718.888 720.843 719.584C722.711 721.381 724.893 722.319 727.387 722.399C728.269 722.421 728.901 722.751 729.284 723.389C729.598 723.911 729.72 724.311 729.65 724.59C729.581 724.868 729.332 725.373 728.903 726.104C727.176 728.877 726.1 732.01 725.673 735.502C725.626 735.688 725.586 735.949 725.551 736.285C725.517 736.622 725.476 736.883 725.43 737.068C725.384 737.254 725.274 737.399 725.1 737.504C724.926 737.608 724.74 737.759 724.543 737.956C724.137 738.2 723.673 738.282 723.151 738.201C722.629 738.12 722.165 737.807 721.759 737.262C721.097 736.161 721.431 733.631 722.763 729.675L707.891 738.611L692.967 747.46C691.9 747.391 691.192 747.066 690.844 746.487C690.6 746.081 690.628 745.274 690.929 744.068L722.151 725.308C719.436 723.941 717.712 722.648 716.981 721.431Z" fill="#FF0000"/>
<path d="M774.162 726.608C773.709 725.854 773.766 725.03 774.334 724.137L829.734 690.849C830.882 690.791 831.665 691.109 832.084 691.805C832.467 692.443 832.392 693.237 831.859 694.189L804.255 710.893L776.598 727.511C775.497 727.779 774.684 727.477 774.162 726.608ZM784.3 743.48C783.777 742.61 783.892 741.752 784.646 740.904L839.959 707.669C841.119 707.761 841.873 708.097 842.221 708.677C842.674 709.431 842.588 710.272 841.962 711.2L786.562 744.488C785.507 744.57 784.752 744.234 784.3 743.48Z" fill="#FF0000"/>
<path d="M839.835 649.151C837.747 650.405 836.101 651.868 834.896 653.539C833.69 655.211 833.007 656.568 832.845 657.612L832.55 659.092C832.666 659.022 832.828 658.964 833.037 658.917C833.246 658.871 833.634 658.795 834.203 658.69C834.771 658.586 835.363 658.585 835.978 658.689C836.593 658.793 837.219 659.048 837.857 659.454C838.496 659.859 839.059 660.468 839.546 661.28C840.348 662.613 840.575 663.976 840.228 665.368C839.88 666.761 839.04 667.857 837.707 668.659C836.373 669.46 835.028 669.716 833.67 669.427C832.313 669.138 831.187 668.315 830.293 666.958C828.238 663.537 827.887 659.999 829.242 656.344C830.597 652.689 832.718 649.718 835.605 647.431C835.721 647.362 836.04 647.17 836.562 646.857C837.084 646.543 837.472 646.27 837.727 646.038L838.075 645.829C841.148 643.983 844.041 642.757 846.756 642.152C849.47 641.547 851.778 641.58 853.681 642.252C855.584 642.924 857.191 643.694 858.502 644.563C859.814 645.432 860.859 646.58 861.637 648.006C863.866 651.717 864.101 655.719 862.34 660.012C859.224 667.172 858.689 673.767 860.735 679.798C861.281 681.363 862.216 683.248 863.54 685.451L864.428 686.93C865.09 688.031 865.386 688.721 865.317 689C865.247 689.278 864.824 689.69 864.047 690.236C863.27 690.782 862.725 690.991 862.412 690.863C862.099 690.736 861.716 690.295 861.263 689.542L859.643 686.846C857.285 682.659 855.682 678.809 854.833 675.295C853.984 671.78 853.71 669.026 854.01 667.03C854.31 665.035 854.582 663.057 854.824 661.096C855.066 659.135 854.932 657.401 854.42 655.893C854.223 655.302 853.636 654.195 852.661 652.571L851.982 651.44C851.389 650.455 850.844 649.678 850.344 649.11C849.845 648.542 849.091 648.009 848.081 647.51C847.072 647.012 845.923 646.874 844.636 647.095C843.348 647.316 841.748 648.002 839.835 649.151ZM865.988 705.286C865.013 703.663 864.768 702.074 865.254 700.519C865.741 698.964 866.737 697.734 868.245 696.828C869.648 696.143 871.104 695.939 872.612 696.216C874.12 696.494 875.362 697.444 876.338 699.068C877.383 700.807 877.674 702.408 877.211 703.87C876.748 705.332 875.791 706.498 874.342 707.369C872.892 708.24 871.413 708.537 869.905 708.259C868.397 707.982 867.091 706.991 865.988 705.286Z" fill="#FF0000"/>
<path d="M456 1215L484.85 1213.99L469.548 1189.51L456 1215ZM672.236 1076.88L473.754 1200.95L476.404 1205.19L674.887 1081.12L672.236 1076.88Z" fill="black"/>
<path d="M538.495 1235.65H538.345C537.747 1235.65 537.299 1235.3 537 1234.61V1198.29L537.075 1161.97C537.573 1161.32 538.046 1161 538.495 1161C539.142 1161 539.64 1161.37 539.989 1162.12V1234.61C539.591 1235.3 539.142 1235.65 538.644 1235.65H538.495Z" fill="black"/>
<path d="M552.469 1216.97C551.622 1216.97 551.198 1216.72 551.198 1216.22C551.198 1216.12 551.273 1215.78 551.422 1215.18C551.622 1214.38 551.821 1213.93 552.02 1213.83C552.22 1213.73 552.792 1213.66 553.739 1213.61C555.084 1213.61 556.579 1213.53 558.223 1213.38C558.92 1213.23 559.393 1212.94 559.642 1212.49C559.742 1212.24 561.511 1205.24 564.948 1191.49C568.386 1177.74 570.129 1170.76 570.179 1170.57C570.179 1170.22 570.079 1170.04 569.88 1170.04C569.482 1169.89 568.161 1169.77 565.92 1169.67H563.603C563.304 1169.37 563.155 1169.17 563.155 1169.07C563.155 1168.97 563.204 1168.55 563.304 1167.8C563.503 1166.95 563.752 1166.43 564.051 1166.23H604.33C604.678 1166.43 604.853 1166.7 604.853 1167.05C604.853 1167.3 604.529 1170.09 603.881 1175.42C603.234 1180.75 602.885 1183.49 602.835 1183.64C602.735 1183.99 602.237 1184.17 601.34 1184.17H600.444C600.095 1183.92 599.921 1183.59 599.921 1183.19C599.921 1183.14 599.995 1182.55 600.145 1181.4C600.294 1180.25 600.369 1178.93 600.369 1177.44C600.369 1175.95 600.195 1174.72 599.846 1173.78C599.497 1172.83 599.024 1172.06 598.426 1171.46C597.828 1170.86 596.907 1170.47 595.661 1170.27C594.416 1170.07 593.145 1169.89 591.85 1169.74C590.555 1169.59 588.761 1169.57 586.47 1169.67H584.751C580.666 1169.72 578.499 1169.79 578.25 1169.89C578.001 1169.99 577.826 1170.19 577.727 1170.49C577.677 1170.54 576.83 1173.8 575.186 1180.28L572.795 1189.92H576.905C577.054 1189.92 577.627 1189.92 578.623 1189.92C579.62 1189.92 580.317 1189.89 580.716 1189.84C581.114 1189.8 581.662 1189.72 582.36 1189.62C583.057 1189.52 583.655 1189.35 584.153 1189.1C584.651 1188.85 585.075 1188.55 585.423 1188.2C586.071 1187.6 586.619 1186.78 587.067 1185.73C587.516 1184.69 587.84 1183.74 588.039 1182.9C588.238 1182.05 588.363 1181.6 588.413 1181.55C588.562 1181.3 589.035 1181.18 589.832 1181.18H590.729C591.078 1181.43 591.252 1181.67 591.252 1181.92C591.252 1182.07 590.48 1185.34 588.936 1191.71C587.391 1198.09 586.544 1201.38 586.395 1201.58C586.295 1201.93 585.797 1202.1 584.9 1202.1H584.004C583.655 1201.8 583.481 1201.5 583.481 1201.2C583.481 1201.05 583.605 1200.51 583.854 1199.56C584.103 1198.61 584.228 1197.62 584.228 1196.57C584.228 1195.13 583.73 1194.23 582.733 1193.88C581.737 1193.53 579.52 1193.36 576.083 1193.36H571.973L569.581 1202.85C567.987 1209.02 567.19 1212.26 567.19 1212.56C567.19 1213.26 569.407 1213.61 573.841 1213.61H575.709C576.008 1213.91 576.157 1214.08 576.157 1214.13C576.157 1214.18 576.107 1214.68 576.008 1215.63C575.809 1216.27 575.559 1216.75 575.261 1217.05H573.99C571.948 1216.95 568.186 1216.9 562.706 1216.9C559.468 1216.9 557.002 1216.9 555.308 1216.9C553.614 1216.9 552.668 1216.92 552.469 1216.97Z" fill="black"/>
<path d="M603.165 1236.81C603.236 1236.81 603.341 1236.85 603.482 1236.92C603.623 1236.99 603.817 1237.04 604.064 1237.08C604.31 1237.11 604.521 1237.13 604.697 1237.13C605.155 1237.13 605.578 1236.9 605.965 1236.44C606.353 1235.99 606.635 1235.48 606.811 1234.91C607.163 1233.96 607.762 1231.27 608.607 1226.83C609.452 1222.39 610.263 1218.16 611.037 1214.15C611.812 1210.13 612.2 1208.11 612.2 1208.07V1207.91H609.717C608.061 1207.91 607.181 1207.88 607.075 1207.81C606.934 1207.7 606.864 1207.53 606.864 1207.28L607.233 1205.8C607.304 1205.62 607.445 1205.54 607.656 1205.54C607.867 1205.54 608.695 1205.52 610.139 1205.48C611.83 1205.48 612.675 1205.47 612.675 1205.43C612.675 1205.36 612.834 1204.48 613.151 1202.79C613.468 1201.1 613.679 1200.08 613.785 1199.73C615.088 1193.91 617.659 1191.01 621.498 1191.01C622.801 1191.08 623.876 1191.47 624.721 1192.17C625.566 1192.87 625.989 1193.81 625.989 1194.97C625.989 1196.24 625.619 1197.15 624.879 1197.72C624.14 1198.28 623.4 1198.58 622.661 1198.62C621.111 1198.62 620.336 1197.88 620.336 1196.4C620.336 1195.73 620.53 1195.15 620.917 1194.65C621.304 1194.16 621.727 1193.79 622.185 1193.54L622.661 1193.28C622.097 1193.07 621.569 1192.96 621.076 1192.96C620.653 1192.96 620.248 1193.14 619.86 1193.49C619.473 1193.84 619.209 1194.34 619.068 1194.97C618.821 1195.99 618.54 1197.37 618.223 1199.09C617.906 1200.82 617.624 1202.28 617.377 1203.48C617.131 1204.67 617.007 1205.31 617.007 1205.38C617.007 1205.45 617.976 1205.48 619.913 1205.48C621.498 1205.48 622.414 1205.5 622.661 1205.54C622.907 1205.57 623.101 1205.68 623.242 1205.85C623.277 1205.99 623.242 1206.29 623.136 1206.75C623.03 1207.21 622.942 1207.49 622.872 1207.6C622.801 1207.77 622.643 1207.86 622.396 1207.86C622.15 1207.86 621.199 1207.88 619.543 1207.91H616.585L615.37 1214.36C613.679 1223.09 612.499 1228.55 611.83 1230.74C610.879 1233.73 609.646 1235.95 608.132 1237.39C606.828 1238.52 605.543 1239.09 604.275 1239.09C603.148 1239.09 602.126 1238.75 601.211 1238.08C600.295 1237.41 599.837 1236.46 599.837 1235.23C599.837 1233.93 600.207 1232.97 600.946 1232.38C601.686 1231.78 602.426 1231.48 603.165 1231.48C604.715 1231.48 605.49 1232.22 605.49 1233.7C605.49 1234.37 605.296 1234.95 604.909 1235.44C604.521 1235.93 604.099 1236.3 603.641 1236.55L603.165 1236.81Z" fill="black"/>
<path d="M640.116 1235.65H639.967C639.369 1235.65 638.92 1235.3 638.622 1234.61V1198.29L638.696 1161.97C639.194 1161.32 639.668 1161 640.116 1161C640.764 1161 641.262 1161.37 641.611 1162.12V1234.61C641.212 1235.3 640.764 1235.65 640.266 1235.65H640.116Z" fill="black"/>
<path d="M675.447 1191.12C675.447 1190.47 675.796 1189.97 676.493 1189.62H724.095C724.842 1190.02 725.216 1190.52 725.216 1191.12C725.216 1191.66 724.867 1192.14 724.17 1192.54L700.406 1192.61H676.643C675.846 1192.36 675.447 1191.86 675.447 1191.12ZM675.447 1205.61C675.447 1204.87 675.846 1204.37 676.643 1204.12H724.17C724.867 1204.62 725.216 1205.11 725.216 1205.61C725.216 1206.26 724.842 1206.76 724.095 1207.11H676.493C675.796 1206.76 675.447 1206.26 675.447 1205.61Z" fill="black"/>
<path d="M759.651 1182.45C758.306 1182.45 757.26 1182.02 756.513 1181.18C755.765 1180.33 755.367 1179.23 755.317 1177.89C755.317 1175.15 756.513 1172.71 758.904 1170.57C761.295 1168.42 764.185 1167.35 767.572 1167.35C769.316 1167.35 770.412 1167.38 770.86 1167.43C774.547 1168.02 777.362 1169.34 779.305 1171.39C781.247 1173.43 782.244 1175.65 782.294 1178.04C782.294 1180.63 781.447 1183.14 779.753 1185.59C778.059 1188.03 775.718 1189.8 772.728 1190.89L772.504 1191.04C772.504 1191.09 772.728 1191.17 773.177 1191.26C773.625 1191.36 774.348 1191.59 775.344 1191.94C776.34 1192.29 777.287 1192.81 778.184 1193.51C782.269 1196.15 784.311 1199.63 784.311 1203.97C784.311 1207.9 782.767 1211.34 779.678 1214.28C776.589 1217.22 772.679 1218.69 767.946 1218.69C763.96 1218.69 760.523 1217.62 757.634 1215.48C754.744 1213.33 753.299 1210.62 753.299 1207.33C753.299 1205.94 753.748 1204.82 754.644 1203.97C755.541 1203.12 756.662 1202.67 758.007 1202.62C759.402 1202.62 760.548 1203.07 761.445 1203.97C762.341 1204.87 762.79 1205.99 762.79 1207.33C762.79 1207.88 762.715 1208.38 762.566 1208.83C762.416 1209.27 762.242 1209.67 762.042 1210.02C761.843 1210.37 761.569 1210.67 761.22 1210.92C760.872 1211.17 760.573 1211.37 760.324 1211.52C760.075 1211.67 759.826 1211.76 759.576 1211.81C759.327 1211.86 759.128 1211.94 758.979 1212.04L758.68 1212.11C761.22 1214.36 764.309 1215.48 767.946 1215.48C770.686 1215.48 772.753 1214.16 774.148 1211.52C774.995 1209.87 775.419 1207.36 775.419 1203.97V1202.47C775.419 1197.74 773.824 1194.58 770.636 1192.98C769.889 1192.68 768.369 1192.51 766.078 1192.46L762.939 1192.39L762.715 1192.24C762.615 1192.09 762.566 1191.69 762.566 1191.04C762.566 1190.14 762.765 1189.7 763.163 1189.7C764.558 1189.7 766.003 1189.57 767.498 1189.32C769.191 1189.07 770.736 1188.03 772.131 1186.18C773.526 1184.34 774.223 1181.55 774.223 1177.81V1177.22C774.223 1174.38 773.351 1172.41 771.608 1171.31C770.512 1170.61 769.341 1170.27 768.095 1170.27C766.501 1170.27 765.032 1170.54 763.686 1171.09C762.341 1171.64 761.395 1172.21 760.847 1172.81C760.299 1173.4 760.025 1173.7 760.025 1173.7H760.249C760.398 1173.75 760.598 1173.8 760.847 1173.85C761.096 1173.9 761.345 1174.03 761.594 1174.23C761.843 1174.43 762.142 1174.6 762.491 1174.75C762.84 1174.9 763.089 1175.17 763.238 1175.57C763.388 1175.97 763.587 1176.34 763.836 1176.69C764.085 1177.04 764.16 1177.54 764.06 1178.19C764.06 1179.28 763.711 1180.25 763.014 1181.1C762.316 1181.95 761.196 1182.4 759.651 1182.45Z" fill="black"/>
<path d="M822.049 1217.05C821.152 1216.9 817.939 1216.82 812.409 1216.82C806.63 1216.82 803.292 1216.9 802.396 1217.05H801.723V1213.61H804.04C805.036 1213.61 805.709 1213.61 806.057 1213.61C806.406 1213.61 806.829 1213.56 807.328 1213.46C807.826 1213.36 808.175 1213.23 808.374 1213.09C808.573 1212.94 808.747 1212.74 808.897 1212.49C808.947 1212.39 808.972 1211.04 808.972 1208.45V1204.72H789.617V1201.28L800.901 1184.02C808.523 1172.46 812.384 1166.65 812.484 1166.6C812.583 1166.5 813.107 1166.46 814.053 1166.46H815.398L815.847 1166.9V1201.28H822.721V1204.72H815.847V1208.53C815.847 1210.57 815.847 1211.76 815.847 1212.11C815.847 1212.46 815.996 1212.76 816.295 1213.01C816.693 1213.36 818.113 1213.56 820.554 1213.61H822.721V1217.05H822.049ZM809.42 1201.28V1176.32L793.055 1201.2L801.2 1201.28H809.42Z" fill="black"/>
<path d="M842.374 1169.44C842.224 1169.44 842.025 1169.44 841.776 1169.44C840.531 1169.44 839.783 1169.42 839.534 1169.37C839.285 1169.32 839.161 1169.05 839.161 1168.55C839.161 1167.2 839.435 1166.38 839.983 1166.08C840.082 1166.03 842.498 1166.01 847.231 1166.01C851.067 1166.01 853.259 1166.01 853.807 1166.01C854.355 1166.01 854.704 1166.16 854.853 1166.46C865.365 1191.17 870.72 1203.84 870.92 1204.49L874.955 1188.57C877.595 1178.06 878.916 1172.46 878.916 1171.76C878.916 1170.42 877.321 1169.64 874.133 1169.44C872.937 1169.44 872.34 1169.17 872.34 1168.62C872.34 1168.52 872.389 1168.22 872.489 1167.73C872.688 1166.93 872.838 1166.46 872.937 1166.31C873.037 1166.16 873.286 1166.06 873.685 1166.01C873.834 1166.01 874.606 1166.03 876.001 1166.08C877.396 1166.13 879.464 1166.18 882.204 1166.23C884.695 1166.23 886.588 1166.21 887.883 1166.16C889.178 1166.11 889.925 1166.08 890.125 1166.08C890.872 1166.08 891.246 1166.33 891.246 1166.83C891.246 1167.92 891.046 1168.67 890.648 1169.07C890.548 1169.32 890 1169.44 889.004 1169.44C885.467 1169.64 883.25 1170.64 882.353 1172.43L871.219 1216.52C871.119 1216.87 870.596 1217.05 869.649 1217.05C868.952 1217.05 868.528 1217 868.379 1216.9C868.23 1216.75 865.016 1209.2 858.739 1194.25L849.249 1171.91L844.391 1191.34C841.153 1204.09 839.534 1210.69 839.534 1211.14C839.783 1212.79 841.577 1213.61 844.915 1213.61H845.662C845.961 1213.86 846.11 1214.06 846.11 1214.21C846.11 1214.36 846.06 1214.83 845.961 1215.63C845.761 1216.27 845.512 1216.75 845.213 1217.05H844.242C842.698 1216.95 840.007 1216.9 836.171 1216.9C834.776 1216.9 833.506 1216.9 832.36 1216.9C831.214 1216.9 830.293 1216.9 829.595 1216.9C828.898 1216.9 828.474 1216.92 828.325 1216.97C827.578 1216.97 827.204 1216.75 827.204 1216.3C827.204 1216.1 827.279 1215.7 827.428 1215.1C827.578 1214.5 827.702 1214.16 827.802 1214.06C827.902 1213.76 828.474 1213.61 829.521 1213.61C832.908 1213.46 835.1 1212.49 836.097 1210.69C836.296 1210.39 838.065 1203.5 841.402 1189.99L846.484 1169.67C846.384 1169.62 845.014 1169.54 842.374 1169.44Z" fill="black"/>
<defs>
<clipPath id="clip0_132_248">
<rect width="504.123" height="504.123" fill="white" transform="translate(0 623)"/>
</clipPath>
<clipPath id="clip1_132_248">
<rect width="235.791" height="277.144" fill="white" transform="translate(459 881.617) rotate(-31.6187)"/>
</clipPath>
</defs>
</svg>
