<svg width="317" height="199" viewBox="0 0 317 199" fill="none" xmlns="http://www.w3.org/2000/svg">
<path d="M114.517 31.6627H103.346V48.3033H114.517V31.6627Z" fill="#FFBCAB"/>
<path d="M114.517 31.6627H103.346V40.8808H114.517V31.6627Z" fill="#FF9478"/>
<path d="M120.711 48.3029L141.243 71.0425L161.114 57.8397L162.217 59.6377C164.793 63.8389 163.581 69.3257 159.475 72.0511L145.409 81.3862C142.169 83.5068 137.872 82.9813 135.238 80.1432L119.318 62.6274L120.711 48.3029Z" fill="#FFBCAB"/>
<path d="M94.5069 162.089L106.127 109.328L87.3639 116.311L81.6644 150.674C81.5719 151.232 81.0888 151.642 80.5225 151.642H49.3997L45.918 163.088L89.8432 165.621C92.054 165.748 94.0304 164.251 94.5069 162.089Z" fill="#FFBCAB"/>
<path d="M35.4316 179.413V151.612H49.8451L42.9804 175.915C42.2338 178.47 39.8916 179.413 37.23 179.413H35.4316Z" fill="#9CE0B8"/>
<path d="M123.164 4.84284C121.369 1.94297 118.159 0 114.516 0H104.769C99.1783 0 94.604 4.57388 94.604 10.1645V18.395C111.607 17.7732 120.02 9.13105 123.164 4.84284Z" fill="#781900"/>
<path d="M94.604 18.3946V26.706C94.604 32.2962 99.1779 36.8705 104.769 36.8705H114.516C120.107 36.8705 124.681 32.2966 124.681 26.706V10.1645C124.681 8.21729 124.124 6.39364 123.165 4.84323C120.02 9.13105 111.607 17.7732 94.604 18.3946Z" fill="#FFBCAB"/>
<path d="M145.179 199H117.378V184.587L141.058 191.506C143.5 192.22 145.179 194.46 145.179 197.004V199Z" fill="#9CE0B8"/>
<path d="M128.013 187.952L117.378 184.587V145.648L118.323 147.19L96.106 109.254L115.56 103.46L130.944 140.179C131.213 140.821 131.328 141.518 131.278 142.212L128.013 187.952Z" fill="#FFBCAB"/>
<path d="M123.833 123.204L115.561 103.459L121.64 51.8421C121.929 48.952 119.801 46.3514 116.91 46.0626L100.11 44.3839L93.617 55.5598L90.707 80.3239L89.2876 93.3977C83.0471 99.6382 82.4092 109.354 87.3648 116.311L87.3636 116.311L84.3514 134.47C88.7069 134.493 95.9809 134.526 100.58 134.516L103.4 121.709L110.185 133.294L123.833 123.204Z" fill="#52A2E7"/>
<path d="M92.4496 65.4934C92.4655 65.3578 91.0127 77.7206 91.0127 77.7206L118.102 81.8833L119.603 69.136L92.4496 65.4934Z" fill="#315591"/>
<g opacity="0.46">
<path d="M117.389 195.943V199H145.19V197.004C145.19 196.643 145.153 196.289 145.088 195.943H117.389Z" fill="#24763D"/>
</g>
<g opacity="0.46">
<path d="M38.4881 151.612H35.4316V179.413H37.4275C37.7885 179.413 38.143 179.376 38.4881 179.311V151.612Z" fill="#24763D"/>
</g>
<path d="M99.4773 55.3697L74.3575 56.1809L71.6033 79.8797L69.5376 79.5633C64.6555 78.8155 61.2418 74.3368 61.8147 69.431L63.7697 52.682C64.2435 48.8389 67.4197 45.8974 71.2874 45.719L99.0303 44.3645C102.105 44.2144 104.705 46.6133 104.803 49.69C104.9 52.7291 102.516 55.2714 99.4773 55.3697Z" fill="#FFBCAB"/>
<path d="M99.5513 115.137L100.865 133.218L103.405 121.687L99.5513 115.137Z" fill="#315591"/>
<path d="M313 126L288 111.566L288 140.434L313 126ZM156 128.5L290.5 128.5L290.5 123.5L156 123.5L156 128.5Z" fill="black"/>
<path d="M166.776 90.06C166.776 89.4267 166.535 89.11 166.054 89.11C165.446 89.11 164.813 89.4773 164.154 90.212C163.495 90.9467 162.951 92.074 162.52 93.594C162.495 93.6193 162.469 93.6573 162.444 93.708C162.419 93.7587 162.406 93.7967 162.406 93.822C162.406 93.8473 162.381 93.8727 162.33 93.898C162.279 93.9233 162.241 93.936 162.216 93.936C162.191 93.936 162.14 93.936 162.064 93.936C161.988 93.936 161.887 93.936 161.76 93.936H161.228C161.076 93.784 161 93.67 161 93.594C161 93.4167 161.101 93.0493 161.304 92.492C161.507 91.9347 161.811 91.276 162.216 90.516C162.621 89.756 163.179 89.11 163.888 88.578C164.597 88.046 165.395 87.7673 166.282 87.742C167.346 87.742 168.169 88.046 168.752 88.654C169.335 89.262 169.639 89.9713 169.664 90.782C169.664 91.2127 169.626 91.542 169.55 91.77C169.55 91.922 169.36 92.4793 168.98 93.442C168.6 94.4047 168.207 95.532 167.802 96.824C167.397 98.116 167.169 99.2433 167.118 100.206C167.118 100.89 167.181 101.447 167.308 101.878C167.637 102.967 168.435 103.512 169.702 103.512C170.639 103.512 171.513 103.081 172.324 102.22C173.135 101.359 173.768 100.358 174.224 99.218C174.68 98.078 175.047 97.0267 175.326 96.064C175.605 95.1013 175.744 94.4047 175.744 93.974C175.744 93.3913 175.643 92.8847 175.44 92.454C175.237 92.0233 175.009 91.694 174.756 91.466C174.503 91.238 174.275 91.01 174.072 90.782C173.869 90.554 173.768 90.2753 173.768 89.946C173.768 89.3887 174.009 88.8693 174.49 88.388C174.971 87.9067 175.491 87.666 176.048 87.666C176.529 87.666 176.96 87.894 177.34 88.35C177.72 88.806 177.923 89.5407 177.948 90.554C177.948 91.238 177.796 92.2893 177.492 93.708C177.188 95.1267 176.719 96.71 176.086 98.458C175.453 100.206 174.553 101.713 173.388 102.98C172.223 104.247 170.88 104.893 169.36 104.918C167.739 104.918 166.447 104.5 165.484 103.664C164.547 102.853 164.078 101.65 164.078 100.054C164.078 99.2687 164.179 98.458 164.382 97.622C164.585 96.786 165.104 95.304 165.94 93.176C166.497 91.5547 166.776 90.516 166.776 90.06Z" fill="black"/>
<path d="M191.316 91.314C191.316 90.9847 191.494 90.7313 191.848 90.554H216.054C216.434 90.7567 216.624 91.01 216.624 91.314C216.624 91.5927 216.447 91.8333 216.092 92.036L204.008 92.074H191.924C191.519 91.9473 191.316 91.694 191.316 91.314ZM191.316 98.686C191.316 98.306 191.519 98.0527 191.924 97.926H216.092C216.447 98.1793 216.624 98.4327 216.624 98.686C216.624 99.0153 216.434 99.2687 216.054 99.446H191.848C191.494 99.2687 191.316 99.0153 191.316 98.686Z" fill="black"/>
<path d="M230.905 92.606C230.905 88.4767 231.931 85.2087 233.983 82.802C236.035 80.3953 238.315 79.192 240.823 79.192C242.571 79.192 243.825 79.648 244.585 80.56C245.345 81.472 245.725 82.4853 245.725 83.6C245.725 84.2333 245.547 84.74 245.193 85.12C244.838 85.5 244.344 85.69 243.711 85.69C243.128 85.69 242.647 85.5127 242.267 85.158C241.887 84.8033 241.697 84.3093 241.697 83.676C241.697 82.5613 242.292 81.89 243.483 81.662C242.925 81.1047 242.14 80.788 241.127 80.712C239.328 80.712 237.846 81.472 236.681 82.992C235.49 84.664 234.895 87.2227 234.895 90.668L234.933 90.82C235.059 90.668 235.161 90.5033 235.237 90.326C236.275 88.806 237.631 88.046 239.303 88.046H239.455C240.62 88.046 241.646 88.2867 242.533 88.768C243.141 89.1227 243.749 89.6293 244.357 90.288C244.965 90.9467 245.459 91.6687 245.839 92.454C246.371 93.6953 246.637 95.0507 246.637 96.52V97.204C246.637 97.7867 246.573 98.3313 246.447 98.838C246.168 100.333 245.357 101.789 244.015 103.208C242.672 104.627 240.975 105.336 238.923 105.336C238.213 105.336 237.529 105.235 236.871 105.032C236.212 104.829 235.503 104.449 234.743 103.892C233.983 103.335 233.337 102.587 232.805 101.65C232.273 100.713 231.817 99.484 231.437 97.964C231.057 96.444 230.879 94.658 230.905 92.606ZM239.075 89.414C238.315 89.414 237.656 89.6293 237.099 90.06C236.541 90.4907 236.111 91.0607 235.807 91.77C235.503 92.4793 235.287 93.2013 235.161 93.936C235.034 94.6707 234.958 95.456 234.933 96.292C234.933 98.3947 235.085 99.902 235.389 100.814C235.693 101.726 236.174 102.461 236.833 103.018C237.441 103.474 238.112 103.702 238.847 103.702C240.139 103.702 241.127 103.221 241.811 102.258C242.14 101.802 242.368 101.232 242.495 100.548C242.621 99.864 242.685 98.534 242.685 96.558C242.685 94.5313 242.621 93.176 242.495 92.492C242.368 91.808 242.14 91.238 241.811 90.782C241.127 89.87 240.215 89.414 239.075 89.414Z" fill="black"/>
<path d="M249.107 93.594C249.132 93.442 249.17 93.2393 249.221 92.986C249.272 92.7327 249.424 92.2513 249.677 91.542C249.93 90.8327 250.184 90.2373 250.437 89.756C250.69 89.2747 251.096 88.806 251.653 88.35C252.21 87.894 252.768 87.6787 253.325 87.704C253.882 87.7293 254.427 87.818 254.959 87.97C255.491 88.122 255.871 88.35 256.099 88.654C256.327 88.958 256.53 89.2367 256.707 89.49C256.884 89.7433 256.986 89.984 257.011 90.212L257.087 90.478C257.087 90.5287 257.1 90.554 257.125 90.554L257.543 90.136C259.063 88.5147 260.849 87.704 262.901 87.704C263.332 87.704 263.724 87.7293 264.079 87.78C264.434 87.8307 264.763 87.9193 265.067 88.046C265.371 88.1727 265.612 88.2993 265.789 88.426C265.966 88.5527 266.156 88.7047 266.359 88.882C266.562 89.0593 266.688 89.224 266.739 89.376C266.79 89.528 266.891 89.6927 267.043 89.87C267.195 90.0473 267.246 90.1993 267.195 90.326C267.144 90.4527 267.182 90.5667 267.309 90.668C267.436 90.7693 267.461 90.858 267.385 90.934L267.689 90.554C269.285 88.654 271.172 87.704 273.351 87.704C274.719 87.704 275.821 88.046 276.657 88.73C277.493 89.414 277.924 90.4147 277.949 91.732C277.949 93.024 277.468 95.0253 276.505 97.736C275.542 100.447 275.061 102.068 275.061 102.6C275.086 102.955 275.15 103.195 275.251 103.322C275.352 103.449 275.542 103.512 275.821 103.512C276.53 103.512 277.189 103.132 277.797 102.372C278.405 101.612 278.899 100.573 279.279 99.256C279.355 98.9773 279.431 98.8127 279.507 98.762C279.583 98.7113 279.786 98.686 280.115 98.686C280.622 98.686 280.875 98.7873 280.875 98.99C280.875 99.0153 280.824 99.2053 280.723 99.56C280.52 100.295 280.242 101.017 279.887 101.726C279.532 102.435 278.95 103.145 278.139 103.854C277.328 104.563 276.454 104.905 275.517 104.88C274.326 104.88 273.465 104.538 272.933 103.854C272.401 103.17 272.135 102.461 272.135 101.726C272.135 101.245 272.591 99.7247 273.503 97.166C274.415 94.6073 274.884 92.682 274.909 91.39C274.909 89.8953 274.352 89.148 273.237 89.148H273.047C270.868 89.148 269.032 90.4273 267.537 92.986L267.271 93.442L266.017 98.534C265.181 101.853 264.7 103.639 264.573 103.892C264.244 104.576 263.699 104.918 262.939 104.918C262.61 104.918 262.344 104.829 262.141 104.652C261.938 104.475 261.799 104.323 261.723 104.196C261.647 104.069 261.609 103.943 261.609 103.816C261.609 103.537 262.04 101.726 262.901 98.382L264.269 92.834C264.345 92.454 264.383 91.9727 264.383 91.39C264.383 89.8953 263.826 89.148 262.711 89.148H262.521C260.342 89.148 258.506 90.4273 257.011 92.986L256.745 93.442L255.491 98.534C254.655 101.853 254.174 103.639 254.047 103.892C253.718 104.576 253.173 104.918 252.413 104.918C252.084 104.918 251.818 104.842 251.615 104.69C251.412 104.538 251.273 104.386 251.197 104.234C251.121 104.082 251.096 103.955 251.121 103.854C251.121 103.525 251.602 101.447 252.565 97.622C253.553 93.7207 254.047 91.6813 254.047 91.504C254.123 91.124 254.161 90.782 254.161 90.478C254.161 89.566 253.844 89.11 253.211 89.11C252.654 89.11 252.185 89.4647 251.805 90.174C251.425 90.8833 251.134 91.656 250.931 92.492C250.728 93.328 250.576 93.784 250.475 93.86C250.424 93.9107 250.222 93.936 249.867 93.936H249.335C249.183 93.784 249.107 93.67 249.107 93.594Z" fill="black"/>
<path d="M297.746 76C297.974 76 298.164 76.076 298.316 76.228C298.468 76.38 298.544 76.5573 298.544 76.76C298.544 76.8867 296.353 82.992 291.97 95.076C287.588 107.16 285.32 113.341 285.168 113.62C284.991 113.873 284.776 114 284.522 114C284.345 114 284.18 113.937 284.028 113.81C283.876 113.683 283.8 113.506 283.8 113.278C283.8 113.025 286.004 106.843 290.412 94.734C294.82 82.6247 297.062 76.5067 297.138 76.38C297.24 76.1267 297.442 76 297.746 76Z" fill="black"/>
<path d="M305.651 93.518C305.651 92.7073 305.854 91.884 306.259 91.048C306.665 90.212 307.374 89.4393 308.387 88.73C309.401 88.0207 310.629 87.6787 312.073 87.704C313.644 87.704 314.784 88.046 315.493 88.73C316.203 89.414 316.57 90.174 316.595 91.01C316.595 91.8207 316.38 92.416 315.949 92.796C315.519 93.176 315.037 93.3787 314.505 93.404C314.176 93.404 313.872 93.3027 313.593 93.1C313.315 92.8973 313.163 92.568 313.137 92.112C313.137 91.7067 313.251 91.352 313.479 91.048C313.707 90.744 313.923 90.516 314.125 90.364C314.328 90.212 314.493 90.136 314.619 90.136C314.645 90.136 314.657 90.1233 314.657 90.098C314.657 90.022 314.569 89.908 314.391 89.756C314.214 89.604 313.897 89.4647 313.441 89.338C312.985 89.2113 312.491 89.1353 311.959 89.11C310.743 89.11 309.857 89.4393 309.299 90.098C308.742 90.7567 308.451 91.428 308.425 92.112C308.425 92.7453 308.666 93.1887 309.147 93.442C309.629 93.6953 310.325 93.9107 311.237 94.088C312.149 94.2653 312.808 94.4553 313.213 94.658C314.885 95.3927 315.721 96.6087 315.721 98.306C315.721 99.0153 315.582 99.7247 315.303 100.434C315.025 101.143 314.607 101.853 314.049 102.562C313.492 103.271 312.694 103.829 311.655 104.234C310.617 104.639 309.426 104.855 308.083 104.88C306.133 104.88 304.752 104.513 303.941 103.778C303.131 103.043 302.713 102.182 302.688 101.194C302.688 100.206 302.953 99.4967 303.485 99.066C304.017 98.6353 304.575 98.42 305.157 98.42C305.537 98.42 305.892 98.534 306.221 98.762C306.551 98.99 306.728 99.3827 306.753 99.94C306.753 100.599 306.525 101.156 306.069 101.612C305.613 102.068 305.221 102.296 304.891 102.296C304.841 102.321 304.803 102.334 304.777 102.334C304.752 102.334 304.739 102.359 304.739 102.41C304.765 102.486 304.866 102.587 305.043 102.714C305.221 102.841 305.613 103.005 306.221 103.208C306.829 103.411 307.526 103.499 308.311 103.474C309.223 103.474 310.009 103.335 310.667 103.056C311.326 102.777 311.807 102.423 312.111 101.992C312.415 101.561 312.631 101.169 312.757 100.814C312.884 100.459 312.947 100.143 312.947 99.864C312.947 99.1547 312.681 98.6227 312.149 98.268C311.617 97.9133 311.009 97.698 310.325 97.622C309.641 97.546 308.894 97.356 308.083 97.052C307.273 96.748 306.677 96.3047 306.297 95.722C305.867 95.0887 305.651 94.354 305.651 93.518Z" fill="black"/>
</svg>
