<svg width="323" height="187" viewBox="0 0 323 187" fill="none" xmlns="http://www.w3.org/2000/svg">
<path d="M322.25 112.713C322.25 118.891 319.124 123.678 314.356 127.407C309.577 131.144 303.178 133.789 296.736 135.651C290.301 137.512 283.86 138.581 279.024 139.185C276.607 139.487 274.593 139.672 273.185 139.782C272.481 139.837 271.928 139.873 271.552 139.895C271.534 139.896 271.517 139.897 271.5 139.898V85.5271C271.517 85.5281 271.534 85.5291 271.552 85.5302C271.928 85.5524 272.481 85.5884 273.185 85.6433C274.593 85.7531 276.607 85.9384 279.024 86.2403C283.86 86.8442 290.301 87.9136 296.736 89.7742C303.178 91.6367 309.577 94.2819 314.356 98.0187C319.124 101.747 322.25 106.534 322.25 112.713Z" fill="#F3B337" stroke="black"/>
<rect x="180.5" y="83.5" width="91" height="58" fill="#D0690A" stroke="black"/>
<rect x="-0.5" y="0.5" width="6" height="64" rx="2.5" transform="matrix(-1 0 0 1 180 79.9999)" fill="#D0690A" stroke="black"/>
<line x1="185.5" y1="136.5" x2="205.5" y2="136.5" stroke="black" stroke-width="3" stroke-linecap="round"/>
<path d="M291 92C297.5 93 306.501 96.5 308.758 98.5277" stroke="black" stroke-width="3" stroke-linecap="round"/>
<circle cx="212" cy="136" r="1.5" fill="black" stroke="black"/>
<circle cx="285" cy="91" r="1.5" fill="black" stroke="black"/>
<line x1="75" y1="91" x2="167" y2="91" stroke="#9A9A9A" stroke-width="8" stroke-linecap="round"/>
<line x1="132" y1="114" x2="167" y2="114" stroke="#D4D1D1" stroke-width="8" stroke-linecap="round"/>
<line x1="59" y1="136" x2="130" y2="136" stroke="#D4D1D1" stroke-width="8" stroke-linecap="round"/>
<line x1="42" y1="91" x2="64" y2="91" stroke="#D5D1D1" stroke-width="8" stroke-linecap="round"/>
<line x1="4" y1="114" x2="120" y2="114" stroke="#9A9A9A" stroke-width="8" stroke-linecap="round"/>
<line x1="142" y1="136" x2="167" y2="136" stroke="#9A9A9A" stroke-width="8" stroke-linecap="round"/>
<path d="M277 56.9999L252 42.5662L252 71.4337L277 56.9999ZM196 59.5L254.5 59.4999L254.5 54.4999L196 54.5L196 59.5Z" fill="black"/>
<path d="M133.669 14.2551C133.669 13.6336 133.433 13.3228 132.96 13.3228C132.363 13.3228 131.742 13.6833 131.095 14.4043C130.449 15.1253 129.914 16.2317 129.492 17.7235C129.467 17.7484 129.442 17.7857 129.417 17.8354C129.392 17.8851 129.38 17.9224 129.38 17.9473C129.38 17.9722 129.355 17.997 129.305 18.0219C129.256 18.0467 129.218 18.0592 129.193 18.0592C129.169 18.0592 129.119 18.0592 129.044 18.0592C128.97 18.0592 128.87 18.0592 128.746 18.0592H128.224C128.075 17.91 128 17.7981 128 17.7235C128 17.5495 128.099 17.189 128.298 16.642C128.497 16.095 128.796 15.4486 129.193 14.7027C129.591 13.9568 130.138 13.3228 130.834 12.8007C131.531 12.2785 132.314 12.005 133.184 11.9802C134.228 11.9802 135.036 12.2785 135.608 12.8753C136.18 13.472 136.478 14.1681 136.503 14.9637C136.503 15.3864 136.466 15.7096 136.391 15.9334C136.391 16.0826 136.205 16.6296 135.832 17.5743C135.459 18.5191 135.074 19.6255 134.676 20.8935C134.278 22.1616 134.054 23.268 134.004 24.2127C134.004 24.884 134.067 25.431 134.191 25.8537C134.514 26.9228 135.297 27.4574 136.54 27.4574C137.46 27.4574 138.318 27.0347 139.114 26.1893C139.909 25.344 140.531 24.3619 140.978 23.2431C141.426 22.1243 141.786 21.0924 142.06 20.1477C142.333 19.2029 142.47 18.5191 142.47 18.0965C142.47 17.5246 142.371 17.0274 142.172 16.6047C141.973 16.182 141.749 15.8588 141.501 15.635C141.252 15.4113 141.028 15.1875 140.829 14.9637C140.63 14.74 140.531 14.4665 140.531 14.1433C140.531 13.5963 140.767 13.0866 141.24 12.6142C141.712 12.1418 142.222 11.9056 142.769 11.9056C143.241 11.9056 143.664 12.1294 144.037 12.5769C144.41 13.0244 144.608 13.7455 144.633 14.74C144.633 15.4113 144.484 16.4431 144.186 17.8354C143.887 19.2277 143.427 20.7817 142.806 22.4972C142.184 24.2127 141.302 25.6921 140.158 26.9352C139.014 28.1784 137.697 28.8124 136.205 28.8372C134.614 28.8372 133.346 28.427 132.401 27.6065C131.481 26.8109 131.021 25.6299 131.021 24.0636C131.021 23.2928 131.12 22.4972 131.319 21.6767C131.518 20.8563 132.028 19.4018 132.848 17.3133C133.395 15.7221 133.669 14.7027 133.669 14.2551Z" fill="black"/>
<path d="M157.754 15.4859C157.754 15.1626 157.928 14.914 158.276 14.74H182.033C182.405 14.9389 182.592 15.1875 182.592 15.4859C182.592 15.7594 182.418 15.9955 182.07 16.1945L170.21 16.2317H158.351C157.953 16.1074 157.754 15.8588 157.754 15.4859ZM157.754 22.721C157.754 22.348 157.953 22.0994 158.351 21.9751H182.07C182.418 22.2237 182.592 22.4723 182.592 22.721C182.592 23.0442 182.405 23.2928 182.033 23.4669H158.276C157.928 23.2928 157.754 23.0442 157.754 22.721Z" fill="black"/>
<path d="M199.777 11.1597C199.106 11.1597 198.584 10.9484 198.211 10.5257C197.838 10.103 197.639 9.55604 197.614 8.88474C197.614 7.51728 198.211 6.299 199.405 5.22989C200.598 4.16079 202.04 3.62624 203.731 3.62624C204.601 3.62624 205.148 3.63867 205.372 3.66353C207.211 3.96189 208.616 4.62075 209.586 5.64013C210.556 6.65951 211.053 7.76591 211.078 8.95933C211.078 10.2522 210.655 11.5078 209.81 12.7261C208.964 13.9444 207.796 14.827 206.304 15.374L206.192 15.4486C206.192 15.4734 206.304 15.5107 206.528 15.5604C206.751 15.6102 207.112 15.722 207.609 15.8961C208.107 16.0701 208.579 16.3312 209.026 16.6793C211.065 17.997 212.085 19.7374 212.085 21.9005C212.085 23.8647 211.314 25.5802 209.772 27.0471C208.231 28.514 206.279 29.2475 203.917 29.2475C201.928 29.2475 200.213 28.7129 198.77 27.6438C197.328 26.5747 196.607 25.2197 196.607 23.5787C196.607 22.8826 196.831 22.3232 197.279 21.9005C197.726 21.4778 198.286 21.2541 198.957 21.2292C199.653 21.2292 200.225 21.453 200.673 21.9005C201.12 22.348 201.344 22.9074 201.344 23.5787C201.344 23.8522 201.307 24.1009 201.232 24.3246C201.157 24.5484 201.07 24.7473 200.971 24.9213C200.871 25.0954 200.735 25.2446 200.561 25.3689C200.387 25.4932 200.237 25.5926 200.113 25.6672C199.989 25.7418 199.864 25.7915 199.74 25.8164C199.616 25.8413 199.516 25.8786 199.442 25.9283L199.293 25.9656C200.561 27.0844 202.102 27.6438 203.917 27.6438C205.285 27.6438 206.316 26.985 207.013 25.6672C207.435 24.8467 207.647 23.5912 207.647 21.9005V21.1546C207.647 18.7926 206.851 17.2138 205.26 16.4182C204.887 16.269 204.128 16.182 202.985 16.1572L201.418 16.1199L201.307 16.0453C201.257 15.9707 201.232 15.7718 201.232 15.4486C201.232 15.001 201.331 14.7773 201.53 14.7773C202.226 14.7773 202.947 14.7151 203.693 14.5908C204.539 14.4665 205.309 13.9444 206.006 13.0244C206.702 12.1045 207.05 10.7122 207.05 8.84745V8.5491C207.05 7.13191 206.615 6.14982 205.745 5.60284C205.198 5.25476 204.613 5.08072 203.992 5.08072C203.196 5.08072 202.463 5.21746 201.791 5.49096C201.12 5.76445 200.648 6.05037 200.374 6.34873C200.101 6.64708 199.964 6.79626 199.964 6.79626H200.076C200.15 6.82112 200.25 6.84598 200.374 6.87085C200.498 6.89571 200.623 6.95787 200.747 7.05732C200.871 7.15677 201.021 7.24379 201.195 7.31838C201.369 7.39297 201.493 7.52971 201.568 7.72862C201.642 7.92752 201.742 8.11399 201.866 8.28803C201.99 8.46207 202.028 8.7107 201.978 9.03392C201.978 9.58091 201.804 10.0657 201.456 10.4884C201.108 10.9111 200.548 11.1348 199.777 11.1597Z" fill="black"/>
<path d="M219.805 22.5718C219.805 23.1685 219.606 23.6658 219.208 24.0636C218.81 24.4614 218.325 24.6603 217.754 24.6603H217.493C218.636 26.6244 220.153 27.6065 222.042 27.6065C223.783 27.6065 225.051 26.8606 225.846 25.3689C226.319 24.5484 226.555 22.9572 226.555 20.5952C226.555 18.0343 226.219 16.3063 225.548 15.4113C224.902 14.5908 224.181 14.1805 223.385 14.1805H223.161C221.222 14.1805 219.755 15.0259 218.761 16.7166C218.661 16.8906 218.574 16.9901 218.499 17.0149C218.425 17.0398 218.238 17.0646 217.94 17.0895C217.517 17.0895 217.281 17.0149 217.231 16.8657C217.182 16.7663 217.157 14.5908 217.157 10.3392V5.52825C217.157 4.2851 217.219 3.66353 217.343 3.66353C217.393 3.6138 217.443 3.58894 217.493 3.58894C217.517 3.58894 217.778 3.68839 218.276 3.8873C218.773 4.0862 219.457 4.2851 220.327 4.48401C221.197 4.68291 222.129 4.78236 223.124 4.78236C224.889 4.78236 226.58 4.43428 228.196 3.73812C228.395 3.63867 228.557 3.58894 228.681 3.58894C228.88 3.58894 228.979 3.81271 228.979 4.26024V4.74507C226.94 7.15677 224.392 8.36262 221.334 8.36262C220.563 8.36262 219.867 8.28803 219.245 8.13886L218.872 8.06427V14.4789C219.345 14.1308 219.718 13.8573 219.991 13.6584C220.265 13.4595 220.712 13.2606 221.334 13.0617C221.955 12.8628 222.589 12.7634 223.236 12.7634C225.25 12.7634 226.953 13.5714 228.345 15.1875C229.738 16.8036 230.434 18.718 230.434 20.9308C230.434 23.2182 229.638 25.17 228.047 26.7861C226.456 28.4021 224.516 29.2226 222.229 29.2475C220.215 29.2475 218.599 28.5762 217.381 27.2336C216.162 25.891 215.553 24.3743 215.553 22.6837C215.553 22.087 215.69 21.6146 215.963 21.2665C216.237 20.9184 216.523 20.6946 216.821 20.5952C217.12 20.4957 217.406 20.446 217.679 20.446C218.301 20.446 218.81 20.6573 219.208 21.08C219.606 21.5027 219.805 21.9999 219.805 22.5718Z" fill="black"/>
<path d="M235.915 6.60979C237.307 4.59589 239.209 3.58894 241.621 3.58894C242.814 3.58894 244.008 3.91216 245.201 4.5586C246.395 5.20503 247.364 6.34873 248.11 7.98968C249.03 10.0533 249.49 12.8877 249.49 16.4928C249.49 20.3466 248.955 23.2928 247.886 25.3316C247.389 26.3758 246.705 27.2087 245.835 27.8303C244.965 28.4519 244.207 28.8372 243.56 28.9864C242.914 29.1356 242.28 29.2226 241.658 29.2475C241.012 29.2475 240.365 29.1729 239.719 29.0237C239.072 28.8745 238.314 28.4767 237.444 27.8303C236.574 27.1839 235.89 26.351 235.393 25.3316C234.324 23.2928 233.789 20.3466 233.789 16.4928C233.789 12.1667 234.498 8.87231 235.915 6.60979ZM244.306 6.16225C243.56 5.36664 242.678 4.96883 241.658 4.96883C240.614 4.96883 239.719 5.36664 238.973 6.16225C238.351 6.80869 237.941 7.70376 237.742 8.84745C237.543 9.99114 237.444 12.378 237.444 16.008C237.444 19.9363 237.543 22.5221 237.742 23.7652C237.941 25.0084 238.389 25.9904 239.085 26.7115C239.781 27.4574 240.639 27.8303 241.658 27.8303C242.653 27.8303 243.498 27.4574 244.194 26.7115C244.915 25.9656 245.363 24.9213 245.537 23.5787C245.711 22.2361 245.81 19.7125 245.835 16.008C245.835 12.4028 245.736 10.0284 245.537 8.88474C245.338 7.74105 244.928 6.83355 244.306 6.16225Z" fill="black"/>
<path d="M251.765 17.7235C251.79 17.5743 251.827 17.3754 251.877 17.1268C251.927 16.8782 252.076 16.4058 252.325 15.7096C252.573 15.0135 252.822 14.4292 253.07 13.9568C253.319 13.4844 253.717 13.0244 254.264 12.5769C254.811 12.1294 255.358 11.918 255.905 11.9429C256.452 11.9678 256.986 12.0548 257.508 12.204C258.031 12.3531 258.404 12.5769 258.627 12.8753C258.851 13.1736 259.05 13.4471 259.224 13.6957C259.398 13.9444 259.498 14.1806 259.522 14.4043L259.597 14.6654C259.597 14.7151 259.609 14.74 259.634 14.74L260.044 14.3297C261.536 12.7385 263.289 11.9429 265.303 11.9429C265.726 11.9429 266.111 11.9678 266.459 12.0175C266.807 12.0672 267.13 12.1542 267.429 12.2785C267.727 12.4029 267.963 12.5272 268.137 12.6515C268.311 12.7758 268.498 12.925 268.697 13.099C268.896 13.2731 269.02 13.4347 269.07 13.5838C269.119 13.733 269.219 13.8946 269.368 14.0687C269.517 14.2427 269.567 14.3919 269.517 14.5162C269.468 14.6405 269.505 14.7524 269.629 14.8519C269.753 14.9513 269.778 15.0383 269.704 15.1129L270.002 14.74C271.568 12.8753 273.421 11.9429 275.559 11.9429C276.902 11.9429 277.983 12.2785 278.804 12.9498C279.624 13.6211 280.047 14.6032 280.072 15.8961C280.072 17.1641 279.599 19.1283 278.654 21.7886C277.71 24.4489 277.237 26.0402 277.237 26.5623C277.262 26.9104 277.324 27.1466 277.424 27.2709C277.523 27.3952 277.71 27.4574 277.983 27.4574C278.679 27.4574 279.326 27.0844 279.922 26.3385C280.519 25.5926 281.004 24.5733 281.377 23.2804C281.451 23.0069 281.526 22.8453 281.601 22.7956C281.675 22.7458 281.874 22.721 282.197 22.721C282.695 22.721 282.943 22.8204 282.943 23.0193C282.943 23.0442 282.894 23.2307 282.794 23.5787C282.595 24.2998 282.322 25.0084 281.974 25.7045C281.626 26.4007 281.054 27.0968 280.258 27.793C279.462 28.4892 278.605 28.8248 277.685 28.8C276.516 28.8 275.671 28.4643 275.149 27.793C274.627 27.1217 274.366 26.4255 274.366 25.7045C274.366 25.2321 274.813 23.7404 275.708 21.2292C276.603 18.718 277.063 16.8285 277.088 15.5604C277.088 14.0935 276.541 13.3601 275.447 13.3601H275.261C273.122 13.3601 271.32 14.6157 269.853 17.1268L269.592 17.5743L268.361 22.5718C267.541 25.8288 267.068 27.5817 266.944 27.8303C266.621 28.5016 266.086 28.8372 265.34 28.8372C265.017 28.8372 264.756 28.7502 264.557 28.5762C264.358 28.4021 264.221 28.253 264.147 28.1287C264.072 28.0043 264.035 27.88 264.035 27.7557C264.035 27.4822 264.458 25.7045 265.303 22.4226L266.646 16.9776C266.72 16.6047 266.757 16.1323 266.757 15.5604C266.757 14.0935 266.21 13.3601 265.117 13.3601H264.93C262.792 13.3601 260.989 14.6157 259.522 17.1268L259.261 17.5743L258.031 22.5718C257.21 25.8288 256.738 27.5817 256.613 27.8303C256.29 28.5016 255.756 28.8372 255.01 28.8372C254.687 28.8372 254.425 28.7627 254.227 28.6135C254.028 28.4643 253.891 28.3151 253.816 28.166C253.742 28.0168 253.717 27.8925 253.742 27.793C253.742 27.4698 254.214 25.431 255.159 21.6767C256.129 17.8478 256.613 15.8464 256.613 15.6723C256.688 15.2994 256.725 14.9637 256.725 14.6654C256.725 13.7703 256.415 13.3228 255.793 13.3228C255.246 13.3228 254.786 13.6709 254.413 14.367C254.04 15.0632 253.754 15.8215 253.555 16.642C253.356 17.4625 253.207 17.91 253.108 17.9846C253.058 18.0343 252.859 18.0592 252.511 18.0592H251.989C251.84 17.91 251.765 17.7981 251.765 17.7235Z" fill="black"/>
<path d="M299.502 0.456223C299.726 0.456223 299.913 0.530811 300.062 0.679989C300.211 0.829166 300.286 1.00321 300.286 1.20211C300.286 1.32642 298.135 7.31839 293.834 19.178C289.532 31.0376 287.307 37.1042 287.158 37.3777C286.984 37.6263 286.773 37.7506 286.524 37.7506C286.35 37.7506 286.188 37.6885 286.039 37.5641C285.89 37.4398 285.815 37.2658 285.815 37.042C285.815 36.7934 287.979 30.7268 292.305 18.8424C296.631 6.95788 298.831 0.95348 298.906 0.829166C299.005 0.580536 299.204 0.456223 299.502 0.456223Z" fill="black"/>
<path d="M307.259 17.6489C307.259 16.8533 307.458 16.0453 307.856 15.2248C308.254 14.4043 308.95 13.646 309.944 12.9498C310.939 12.2537 312.145 11.918 313.562 11.9429C315.103 11.9429 316.222 12.2785 316.918 12.9498C317.614 13.6211 317.975 14.367 318 15.1875C318 15.9831 317.789 16.5674 317.366 16.9403C316.943 17.3133 316.471 17.5122 315.949 17.5371C315.625 17.5371 315.327 17.4376 315.054 17.2387C314.78 17.0398 314.631 16.7166 314.606 16.269C314.606 15.8712 314.718 15.5232 314.942 15.2248C315.165 14.9264 315.377 14.7027 315.576 14.5535C315.775 14.4043 315.936 14.3297 316.061 14.3297C316.085 14.3297 316.098 14.3173 316.098 14.2924C316.098 14.2178 316.011 14.106 315.837 13.9568C315.663 13.8076 315.352 13.6709 314.904 13.5466C314.457 13.4222 313.972 13.3476 313.45 13.3228C312.257 13.3228 311.386 13.646 310.839 14.2924C310.292 14.9389 310.006 15.5977 309.982 16.269C309.982 16.8906 310.218 17.3257 310.69 17.5743C311.163 17.823 311.846 18.0343 312.741 18.2084C313.636 18.3824 314.283 18.5689 314.681 18.7678C316.322 19.4888 317.142 20.6822 317.142 22.348C317.142 23.0442 317.005 23.7404 316.732 24.4365C316.458 25.1327 316.048 25.8288 315.501 26.525C314.954 27.2212 314.171 27.7681 313.152 28.166C312.132 28.5638 310.964 28.7751 309.646 28.8C307.731 28.8 306.376 28.4394 305.581 27.7184C304.785 26.9974 304.375 26.1521 304.35 25.1824C304.35 24.2127 304.611 23.5166 305.133 23.0939C305.655 22.6712 306.202 22.4599 306.774 22.4599C307.147 22.4599 307.495 22.5718 307.818 22.7956C308.142 23.0193 308.316 23.4047 308.341 23.9517C308.341 24.5981 308.117 25.1451 307.669 25.5926C307.222 26.0402 306.836 26.2639 306.513 26.2639C306.463 26.2888 306.426 26.3012 306.401 26.3012C306.376 26.3012 306.364 26.3261 306.364 26.3758C306.389 26.4504 306.488 26.5499 306.662 26.6742C306.836 26.7985 307.222 26.9601 307.818 27.159C308.415 27.3579 309.099 27.4449 309.87 27.4201C310.765 27.4201 311.535 27.2833 312.182 27.0098C312.828 26.7363 313.301 26.3883 313.599 25.9656C313.897 25.5429 314.109 25.1575 314.233 24.8095C314.357 24.4614 314.42 24.1506 314.42 23.8771C314.42 23.1809 314.159 22.6588 313.636 22.3107C313.114 21.9627 312.518 21.7513 311.846 21.6767C311.175 21.6021 310.442 21.4157 309.646 21.1173C308.85 20.819 308.266 20.3839 307.893 19.812C307.47 19.1904 307.259 18.4694 307.259 17.6489Z" fill="black"/>
<path d="M182 168.042C182.025 167.894 182.062 167.697 182.111 167.45C182.161 167.203 182.309 166.733 182.556 166.042C182.803 165.35 183.05 164.77 183.297 164.3C183.544 163.831 183.939 163.374 184.482 162.929C185.026 162.485 185.569 162.275 186.113 162.299C186.656 162.324 187.187 162.411 187.706 162.559C188.225 162.707 188.595 162.929 188.817 163.226C189.04 163.522 189.237 163.794 189.41 164.041C189.583 164.288 189.682 164.523 189.707 164.745L189.781 165.004C189.781 165.054 189.793 165.078 189.818 165.078L190.225 164.671C191.707 163.09 193.449 162.299 195.45 162.299C195.869 162.299 196.252 162.324 196.598 162.374C196.944 162.423 197.265 162.509 197.561 162.633C197.858 162.756 198.093 162.88 198.265 163.003C198.438 163.127 198.624 163.275 198.821 163.448C199.019 163.621 199.142 163.782 199.192 163.93C199.241 164.078 199.34 164.238 199.488 164.411C199.636 164.584 199.686 164.732 199.636 164.856C199.587 164.98 199.624 165.091 199.748 165.189C199.871 165.288 199.896 165.375 199.822 165.449L200.118 165.078C201.674 163.226 203.514 162.299 205.639 162.299C206.972 162.299 208.047 162.633 208.862 163.3C209.677 163.967 210.097 164.942 210.122 166.227C210.122 167.487 209.653 169.438 208.714 172.081C207.775 174.724 207.306 176.305 207.306 176.824C207.331 177.169 207.392 177.404 207.491 177.527C207.59 177.651 207.775 177.713 208.047 177.713C208.739 177.713 209.381 177.342 209.974 176.601C210.566 175.86 211.048 174.847 211.419 173.563C211.493 173.291 211.567 173.131 211.641 173.081C211.715 173.032 211.913 173.007 212.234 173.007C212.728 173.007 212.975 173.106 212.975 173.304C212.975 173.328 212.925 173.514 212.827 173.859C212.629 174.576 212.357 175.28 212.011 175.971C211.666 176.663 211.098 177.355 210.307 178.046C209.517 178.738 208.664 179.071 207.751 179.047C206.59 179.047 205.75 178.713 205.231 178.046C204.712 177.379 204.453 176.688 204.453 175.971C204.453 175.502 204.898 174.02 205.787 171.525C206.676 169.03 207.133 167.153 207.158 165.893C207.158 164.436 206.614 163.707 205.527 163.707H205.342C203.218 163.707 201.427 164.955 199.97 167.45L199.71 167.894L198.488 172.859C197.673 176.095 197.203 177.836 197.08 178.083C196.759 178.75 196.228 179.084 195.487 179.084C195.166 179.084 194.906 178.997 194.709 178.824C194.511 178.651 194.375 178.503 194.301 178.38C194.227 178.256 194.19 178.133 194.19 178.009C194.19 177.737 194.61 175.971 195.45 172.711L196.783 167.301C196.858 166.931 196.895 166.462 196.895 165.893C196.895 164.436 196.351 163.707 195.264 163.707H195.079C192.955 163.707 191.164 164.955 189.707 167.45L189.447 167.894L188.225 172.859C187.409 176.095 186.94 177.836 186.817 178.083C186.496 178.75 185.964 179.084 185.223 179.084C184.902 179.084 184.643 179.01 184.445 178.861C184.248 178.713 184.112 178.565 184.038 178.417C183.964 178.269 183.939 178.145 183.964 178.046C183.964 177.725 184.433 175.7 185.372 171.97C186.335 168.166 186.817 166.177 186.817 166.005C186.891 165.634 186.928 165.301 186.928 165.004C186.928 164.115 186.619 163.67 186.002 163.67C185.458 163.67 185.001 164.016 184.631 164.708C184.26 165.399 183.976 166.153 183.778 166.968C183.581 167.783 183.433 168.228 183.334 168.302C183.284 168.351 183.087 168.376 182.741 168.376H182.222C182.074 168.228 182 168.117 182 168.042Z" fill="black"/>
<path d="M226.121 165.819C226.121 165.498 226.294 165.251 226.639 165.078H250.241C250.611 165.276 250.797 165.523 250.797 165.819C250.797 166.091 250.624 166.326 250.278 166.523L238.496 166.56H226.713C226.318 166.437 226.121 166.19 226.121 165.819ZM226.121 173.007C226.121 172.637 226.318 172.39 226.713 172.266H250.278C250.624 172.513 250.797 172.76 250.797 173.007C250.797 173.328 250.611 173.575 250.241 173.748H226.639C226.294 173.575 226.121 173.328 226.121 173.007Z" fill="black"/>
<path d="M271.056 157.261L270.575 157.446C270.229 157.569 269.735 157.693 269.093 157.816C268.45 157.94 267.734 158.026 266.944 158.076H266.24V156.371H266.944C268.105 156.322 269.179 156.137 270.167 155.816C271.155 155.494 271.847 155.198 272.242 154.926C272.637 154.655 272.983 154.383 273.279 154.111C273.329 154.037 273.477 154 273.724 154C273.946 154 274.156 154.074 274.354 154.222V165.301L274.391 176.416C274.564 176.589 274.712 176.7 274.836 176.749C274.959 176.799 275.256 176.848 275.725 176.898C276.194 176.947 276.96 176.972 278.022 176.972H278.985V178.676H278.578C278.059 178.602 276.095 178.565 272.687 178.565C269.327 178.565 267.388 178.602 266.87 178.676H266.425V176.972H267.388C267.932 176.972 268.401 176.972 268.796 176.972C269.191 176.972 269.5 176.959 269.723 176.935C269.945 176.91 270.142 176.873 270.315 176.824C270.488 176.774 270.587 176.749 270.612 176.749C270.636 176.749 270.711 176.688 270.834 176.564C270.958 176.441 271.032 176.391 271.056 176.416V157.261Z" fill="black"/>
<path d="M287.766 172.859C287.766 173.452 287.569 173.946 287.173 174.341C286.778 174.736 286.297 174.934 285.728 174.934H285.469C286.605 176.885 288.112 177.861 289.989 177.861C291.718 177.861 292.978 177.12 293.769 175.638C294.238 174.823 294.473 173.242 294.473 170.895C294.473 168.351 294.139 166.634 293.472 165.745C292.83 164.93 292.114 164.523 291.323 164.523H291.101C289.174 164.523 287.717 165.362 286.729 167.042C286.63 167.215 286.544 167.314 286.47 167.338C286.395 167.363 286.21 167.388 285.914 167.413C285.494 167.413 285.259 167.338 285.21 167.19C285.16 167.091 285.136 164.93 285.136 160.706V155.927C285.136 154.692 285.197 154.074 285.321 154.074C285.37 154.025 285.42 154 285.469 154C285.494 154 285.753 154.099 286.247 154.296C286.741 154.494 287.421 154.692 288.285 154.889C289.15 155.087 290.076 155.186 291.064 155.186C292.818 155.186 294.497 154.84 296.103 154.148C296.3 154.049 296.461 154 296.584 154C296.782 154 296.881 154.222 296.881 154.667V155.149C294.855 157.545 292.324 158.743 289.285 158.743C288.52 158.743 287.828 158.668 287.211 158.52L286.84 158.446V164.819C287.309 164.473 287.68 164.201 287.952 164.004C288.223 163.806 288.668 163.609 289.285 163.411C289.903 163.213 290.533 163.115 291.175 163.115C293.176 163.115 294.868 163.917 296.251 165.523C297.634 167.128 298.326 169.03 298.326 171.229C298.326 173.501 297.535 175.44 295.955 177.046C294.374 178.651 292.447 179.467 290.175 179.491C288.174 179.491 286.568 178.824 285.358 177.49C284.148 176.157 283.542 174.65 283.542 172.97C283.542 172.377 283.678 171.908 283.95 171.562C284.222 171.216 284.506 170.994 284.802 170.895C285.099 170.797 285.383 170.747 285.654 170.747C286.272 170.747 286.778 170.957 287.173 171.377C287.569 171.797 287.766 172.291 287.766 172.859Z" fill="black"/>
<path d="M311.738 177.083C311.368 177.404 310.824 177.75 310.108 178.12C309.392 178.491 308.638 178.676 307.848 178.676C306.292 178.676 305.044 178.12 304.106 177.009C303.167 175.897 302.686 174.477 302.661 172.748C302.661 170.154 303.612 167.771 305.514 165.597C307.416 163.423 309.528 162.324 311.849 162.299C313.01 162.299 314.085 162.892 315.073 164.078L315.184 163.93C315.233 163.856 315.295 163.782 315.369 163.707C315.443 163.633 315.555 163.535 315.703 163.411C315.851 163.288 316.012 163.201 316.184 163.152C316.357 163.102 316.555 163.065 316.777 163.04C317.123 163.04 317.407 163.152 317.629 163.374C317.852 163.596 317.975 163.831 318 164.078C318 164.448 317.296 167.437 315.888 173.044C314.48 178.651 313.739 181.517 313.665 181.64C313.22 182.974 312.269 184.073 310.812 184.938C309.355 185.802 307.687 186.247 305.81 186.272C302.327 186.272 300.586 185.432 300.586 183.752C300.586 183.11 300.808 182.542 301.253 182.048C301.697 181.554 302.266 181.307 302.957 181.307C303.328 181.307 303.674 181.418 303.995 181.64C304.316 181.862 304.489 182.245 304.513 182.789C304.513 183.036 304.489 183.27 304.439 183.493C304.39 183.715 304.303 183.888 304.18 184.011C304.056 184.135 303.958 184.258 303.883 184.382C303.809 184.505 303.723 184.604 303.624 184.678L303.55 184.752H303.587C303.834 184.827 304.575 184.864 305.81 184.864C306.749 184.864 307.49 184.715 308.033 184.419C308.601 184.147 309.132 183.74 309.626 183.196C310.12 182.653 310.466 182.072 310.664 181.455C310.812 180.986 311.01 180.22 311.257 179.158C311.578 177.972 311.738 177.28 311.738 177.083ZM314.443 166.523L314.295 166.116C314.221 165.844 314.159 165.659 314.11 165.56C314.06 165.461 313.986 165.288 313.887 165.041C313.789 164.794 313.665 164.621 313.517 164.523C313.369 164.424 313.208 164.288 313.035 164.115C312.862 163.942 312.64 163.831 312.368 163.782C312.096 163.732 311.825 163.695 311.553 163.67C310.466 163.67 309.416 164.325 308.404 165.634C307.663 166.597 307.045 168.067 306.551 170.043C306.057 172.019 305.81 173.452 305.81 174.341C305.81 176.292 306.576 177.268 308.107 177.268C309.491 177.268 310.849 176.404 312.183 174.675L312.479 174.304L314.443 166.523Z" fill="black"/>
</svg>
