<svg width="850" height="1009" viewBox="0 0 850 1009" fill="none" xmlns="http://www.w3.org/2000/svg">
<rect x="78.5" y="620.5" width="292" height="367" fill="#FFD87C" stroke="black" stroke-width="7"/>
<rect x="82" y="624" width="146" height="360" fill="#FFF0CC"/>
<rect x="203" y="891" width="55" height="95" fill="black"/>
<rect x="280" y="827" width="35" height="35" fill="black"/>
<rect x="280" y="757" width="35" height="35" fill="black"/>
<rect x="280" y="687" width="35" height="35" fill="black"/>
<rect x="136" y="827" width="35" height="35" fill="black"/>
<rect x="136" y="757" width="35" height="35" fill="black"/>
<rect x="136" y="687" width="35" height="35" fill="black"/>
<rect x="305.5" y="356.5" width="292" height="631" fill="#A9B2FF" stroke="black" stroke-width="7"/>
<rect x="309" y="360" width="146" height="624" fill="#D9DCF9"/>
<rect x="430" y="891" width="55" height="95" fill="black"/>
<rect x="507" y="827" width="35" height="35" fill="black"/>
<rect x="507" y="757" width="35" height="35" fill="black"/>
<rect x="507" y="687" width="35" height="35" fill="black"/>
<rect x="508" y="617" width="35" height="35" fill="black"/>
<rect x="507" y="547" width="35" height="35" fill="black"/>
<rect x="507" y="477" width="35" height="35" fill="black"/>
<rect x="508" y="407" width="35" height="35" fill="black"/>
<rect x="363" y="827" width="35" height="35" fill="black"/>
<rect x="363" y="757" width="35" height="35" fill="black"/>
<rect x="363" y="687" width="35" height="35" fill="black"/>
<rect x="364" y="617" width="35" height="35" fill="black"/>
<rect x="363" y="547" width="35" height="35" fill="black"/>
<rect x="363" y="477" width="35" height="35" fill="black"/>
<rect x="364" y="407" width="35" height="35" fill="black"/>
<path fill-rule="evenodd" clip-rule="evenodd" d="M167.123 966.369C169.61 962.005 171 957.135 171 952C171 933.222 152.42 918 129.5 918C124.181 918 119.097 918.82 114.423 920.313C111.123 898.567 94.0571 882 73.5 882C53.4409 882 36.7061 897.775 32.8408 918.743C14.1064 922.203 0 937.345 0 955.5C0 961.56 1.57129 967.284 4.36182 972.35L14.1885 993.832C14.5142 994.544 15.2246 995 16.0073 995H147.564C148.227 995 148.847 994.672 149.219 994.124L166.878 968.124C167.257 967.566 167.309 966.925 167.123 966.369Z" fill="#64BC1F"/>
<path d="M611 243.115C633.345 -216.35 651.298 486.672 673 991" stroke="black" stroke-width="3" stroke-dasharray="10 10"/>
<g clip-path="url(#clip0_130_111)">
<path d="M568.096 284.188C571.251 286.992 577.409 285.212 581.861 280.211C586.307 275.21 605.64 248.321 602.493 245.512C599.334 242.711 574.886 265.062 570.44 270.061C565.992 275.056 564.941 281.381 568.096 284.188Z" fill="#F24603"/>
<path d="M608.682 246.148C608.682 248.581 606.71 250.555 604.276 250.555H602.073C599.641 250.555 597.667 248.581 597.667 246.148V243.945C597.667 241.513 599.641 239.539 602.073 239.539H604.276C606.71 239.539 608.682 241.513 608.682 243.945V246.148Z" fill="#32A01C"/>
<path d="M556.578 268.993C559.382 272.148 557.602 278.308 552.601 282.76C547.6 287.206 520.707 306.541 517.902 303.392C515.102 300.233 537.45 275.783 542.447 271.337C547.446 266.891 553.771 265.84 556.578 268.993Z" fill="#FF6D00"/>
<path d="M552.98 313.225C552.98 318.68 548.556 348.094 543.097 348.094C537.644 348.094 533.223 318.677 533.223 313.225C533.223 307.772 537.647 303.346 543.097 303.346C548.557 303.346 552.98 307.772 552.98 313.225Z" fill="#087C66"/>
<path d="M586.082 313.225C586.082 318.68 581.658 348.094 576.199 348.094C570.746 348.094 566.325 318.677 566.325 313.225C566.325 307.772 570.749 303.346 576.199 303.346C581.658 303.346 586.082 307.772 586.082 313.225Z" fill="#087C66"/>
<path d="M587.521 300.171C587.521 335.505 575.043 323.738 559.652 323.738C544.261 323.738 531.78 335.507 531.78 300.171C531.78 279.969 544.263 263.593 559.649 263.593C575.04 263.595 587.521 279.971 587.521 300.171Z" fill="#FF6D00"/>
<path d="M560.89 313.941C560.89 314.626 560.335 315.179 559.652 315.179C558.967 315.179 558.414 314.624 558.414 313.941V277.589C558.414 276.904 558.969 276.351 559.652 276.351C560.337 276.351 560.89 276.906 560.89 277.589V313.941Z" fill="#3D3C39"/>
<path d="M559.65 281.306C568.091 281.306 574.935 277.053 574.935 271.806C574.935 266.559 568.091 262.306 559.65 262.306C551.208 262.306 544.364 266.559 544.364 271.806C544.364 277.053 551.208 281.306 559.65 281.306Z" fill="#32A01C"/>
<path d="M559.649 314.377C545.212 314.377 533.337 324.727 531.921 296.851C531.826 297.818 531.78 298.92 531.78 300.173C531.78 335.507 544.258 323.74 559.649 323.74C575.04 323.74 587.519 335.507 587.519 300.173C587.519 298.922 587.473 297.82 587.378 296.851C585.959 324.727 574.091 314.377 559.649 314.377Z" fill="#F24603"/>
<path d="M554.214 348.272C554.214 352.449 549.235 353 543.095 353C536.964 353 531.98 352.452 531.98 348.272C531.98 344.093 536.964 338.34 543.095 338.34C549.238 338.343 554.214 344.093 554.214 348.272Z" fill="#3D3C39"/>
<path d="M554.214 348.272C554.214 352.449 549.235 353 543.095 353C536.964 353 531.98 352.452 531.98 348.272" fill="#1C1B1A"/>
<path d="M587.314 348.272C587.314 352.449 582.339 353 576.204 353C570.068 353 565.089 352.452 565.089 348.272C565.089 344.093 570.068 338.34 576.204 338.34C582.339 338.34 587.314 344.093 587.314 348.272Z" fill="#3D3C39"/>
<path d="M587.314 348.272C587.314 352.449 582.339 353 576.204 353C570.068 353 565.089 352.452 565.089 348.272" fill="#1C1B1A"/>
<path d="M595.717 246.754C595.717 264.377 579.563 273.236 559.654 273.236C539.735 273.236 523.582 264.377 523.582 246.754C523.582 229.127 539.735 212 559.654 212C579.563 212 595.717 229.127 595.717 246.754Z" fill="#E8B085"/>
<path d="M595.717 246.754C595.717 264.377 579.563 273.236 559.654 273.236C539.735 273.236 523.582 264.377 523.582 246.754" fill="#DD9F76"/>
<path d="M542.5 253.383C544.282 253.383 545.726 251.939 545.726 250.158C545.726 248.377 544.282 246.933 542.5 246.933C540.719 246.933 539.275 248.377 539.275 250.158C539.275 251.939 540.719 253.383 542.5 253.383Z" fill="#113E49"/>
<path d="M545.726 250.158C545.726 251.945 544.276 253.386 542.498 253.386C540.716 253.386 539.275 251.945 539.275 250.158" fill="black"/>
<path d="M548.863 256.886C548.691 256.886 548.515 256.825 548.381 256.686C546.805 255.113 544.715 254.247 542.494 254.247H542.489C540.269 254.247 538.182 255.115 536.616 256.684C536.349 256.95 535.92 256.957 535.651 256.686C535.384 256.428 535.38 255.998 535.646 255.73C537.475 253.899 539.903 252.888 542.487 252.888H542.492C545.082 252.888 547.508 253.892 549.341 255.725C549.603 255.987 549.603 256.426 549.341 256.686C549.215 256.825 549.043 256.886 548.863 256.886Z" fill="#F4C3A2"/>
<path d="M573.578 250.158C573.578 251.945 575.014 253.386 576.805 253.386C578.588 253.386 580.028 251.945 580.028 250.158C580.028 248.378 578.588 246.933 576.805 246.933C575.016 246.933 573.578 248.38 573.578 250.158Z" fill="#113E49"/>
<path d="M573.578 250.158C573.578 251.945 575.014 253.386 576.805 253.386C578.588 253.386 580.028 251.945 580.028 250.158" fill="black"/>
<path d="M570.443 256.886C570.606 256.886 570.786 256.825 570.921 256.686C572.496 255.113 574.587 254.247 576.807 254.247C579.033 254.247 581.123 255.115 582.685 256.684C582.947 256.95 583.377 256.957 583.646 256.686C583.917 256.428 583.921 255.998 583.655 255.73C581.835 253.899 579.398 252.888 576.81 252.888C574.223 252.888 571.789 253.892 569.951 255.725C569.693 255.987 569.693 256.426 569.951 256.686C570.088 256.825 570.262 256.886 570.443 256.886Z" fill="#F4C3A2"/>
<path d="M524.752 238.625H594.543C590.551 224.214 576.462 212 559.654 212C542.838 212 528.751 224.214 524.752 238.625Z" fill="#54C911"/>
<path d="M524.752 238.625H594.543C590.551 224.214 576.462 218.246 559.654 218.246C542.838 218.246 528.751 224.214 524.752 238.625Z" fill="#32A01C"/>
<path d="M527.786 256.772C526.869 260.385 523.203 262.571 519.588 261.659C515.977 260.744 513.787 257.076 514.699 253.461C515.616 249.85 521.919 237.252 525.534 238.165C529.145 239.079 528.698 253.161 527.786 256.772Z" fill="#54C911"/>
<path d="M525.536 238.164C529.147 239.079 528.7 253.161 527.786 256.772C526.869 260.385 523.203 262.57 519.588 261.658" fill="#32A01C"/>
<path d="M591.513 256.772C592.425 260.385 596.096 262.571 599.711 261.659C603.322 260.744 605.512 257.076 604.595 253.461C603.683 249.85 597.376 237.252 593.765 238.165C590.149 239.079 590.601 253.161 591.513 256.772Z" fill="#54C911"/>
<path d="M593.765 238.164C590.149 239.079 590.601 253.161 591.515 256.772C592.43 260.383 596.098 262.57 599.713 261.658" fill="#32A01C"/>
<path d="M596.001 238.62C596.001 240.141 594.765 241.374 593.247 241.374H526.052C524.529 241.374 523.298 240.141 523.298 238.62C523.298 237.1 524.529 235.867 526.052 235.867H593.247C594.767 235.867 596.001 237.1 596.001 238.62Z" fill="#32A01C"/>
<path d="M525.334 304.168C525.334 306.6 523.36 308.574 520.927 308.574H518.724C516.29 308.574 514.318 306.6 514.318 304.168V301.965C514.318 299.53 516.29 297.558 518.724 297.558H520.927C523.36 297.558 525.334 299.53 525.334 301.965V304.168Z" fill="#32A01C"/>
<path d="M552.765 297.554H540.647V285.437H552.765V297.554ZM542.85 295.351H550.561V287.64H542.85V295.351Z" fill="#3D3C39"/>
<path d="M546.706 292.214L542.498 288.006L544.056 286.448L546.706 289.098L549.356 286.448L550.914 288.006L546.706 292.214Z" fill="#3D3C39"/>
<path d="M578.651 297.554H566.534V285.437H578.651V297.554ZM568.737 295.351H576.448V287.64H568.737V295.351Z" fill="#3D3C39"/>
<path d="M572.593 292.214L568.385 288.006L569.942 286.448L572.593 289.098L575.243 286.448L576.801 288.006L572.593 292.214Z" fill="#3D3C39"/>
</g>
<g clip-path="url(#clip1_130_111)">
<path d="M628.996 229.5C628.996 232.565 628.087 235.562 626.384 238.11C624.68 240.658 622.26 242.644 619.428 243.817C616.596 244.99 613.48 245.296 610.474 244.698C607.468 244.1 604.706 242.624 602.539 240.456C600.372 238.289 598.896 235.527 598.298 232.521C597.7 229.515 598.007 226.399 599.18 223.567C600.353 220.735 602.34 218.315 604.888 216.612C607.437 214.909 610.433 214 613.498 214C617.609 214 621.551 215.634 624.457 218.541C627.364 221.447 628.996 225.39 628.996 229.5Z" fill="#B9D613"/>
<path d="M615.577 214.154C614.895 214.058 614.208 214.006 613.519 214C612.552 217.477 610.581 220.591 607.852 222.953C605.122 225.314 601.757 226.817 598.177 227.274C598.074 227.959 598.017 228.65 598.007 229.343L598.089 229.331C602.185 228.86 606.044 227.165 609.161 224.467C612.279 221.769 614.51 218.193 615.564 214.207L615.577 214.154ZM628.844 229.64C625.188 230.539 621.854 232.436 619.214 235.121C616.574 237.805 614.733 241.171 613.895 244.841L613.864 244.981C614.585 244.963 615.303 244.896 616.014 244.778C616.829 241.679 618.439 238.846 620.685 236.56C622.931 234.274 625.735 232.615 628.819 231.746C628.925 231.036 628.983 230.321 628.993 229.603L628.844 229.64Z" fill="#F7F7F7"/>
</g>
<path d="M625 180L613.134 192.618L629.994 196.585L625 180ZM618.46 214.344L623.368 193.485L620.448 192.798L615.54 213.656L618.46 214.344Z" fill="#FF0000"/>
<path d="M568.094 191V189.086C569.396 188.826 570.359 188.539 570.984 188.227C571.635 187.914 572.117 187.484 572.43 186.938C572.742 186.365 572.898 185.609 572.898 184.672C572.898 183.786 572.794 182.836 572.586 181.82C572.378 180.779 572.078 179.62 571.688 178.344L570.242 173.305H552.039L550.711 177.133C550.034 179.06 549.591 180.518 549.383 181.508C549.174 182.497 549.07 183.396 549.07 184.203C549.07 185.766 549.461 186.911 550.242 187.641C551.049 188.37 552.273 188.852 553.914 189.086V191H537.234V189.086C538.693 188.852 539.956 188.005 541.023 186.547C542.117 185.089 543.172 183.005 544.188 180.297L560.477 137.055H566.648L579.93 180.609C580.555 182.641 581.102 184.19 581.57 185.258C582.065 186.326 582.651 187.159 583.328 187.758C584.005 188.357 584.93 188.799 586.102 189.086V191H568.094ZM553.094 169.906H569.422L562 144.711L553.094 169.906Z" fill="black"/>
<path d="M604.727 69V67.0859C606.341 66.6693 607.422 66.2135 607.969 65.7188C608.516 65.1979 608.867 64.4688 609.023 63.5312C609.206 62.5938 609.297 61.1615 609.297 59.2344V25.4453C609.297 23.6484 609.232 22.3464 609.102 21.5391C608.971 20.7057 608.75 20.0677 608.438 19.625C608.151 19.1562 607.76 18.7917 607.266 18.5312C606.771 18.2448 605.924 17.9323 604.727 17.5938V15.6797H626.094C630.234 15.6797 633.555 16.1224 636.055 17.0078C638.581 17.8932 640.456 19.2083 641.68 20.9531C642.904 22.6719 643.516 24.8984 643.516 27.6328C643.516 29.8984 643.073 31.8646 642.188 33.5312C641.328 35.1979 640.195 36.5781 638.789 37.6719C637.383 38.7656 635.573 39.7812 633.359 40.7188V41.0703C636.901 42.138 639.583 43.7917 641.406 46.0312C643.229 48.2448 644.141 50.888 644.141 53.9609C644.141 57.5026 643.346 60.3932 641.758 62.6328C640.195 64.8724 637.995 66.5 635.156 67.5156C632.318 68.5052 628.88 69 624.844 69H604.727ZM623.438 39.5859C627.396 39.5859 630.417 38.6354 632.5 36.7344C634.609 34.8073 635.664 32.0208 635.664 28.375C635.664 26.5781 635.365 25.0938 634.766 23.9219C634.193 22.724 633.385 21.7734 632.344 21.0703C631.328 20.3672 630.117 19.8724 628.711 19.5859C627.305 19.2734 625.781 19.1172 624.141 19.1172C623.151 19.1172 621.849 19.1432 620.234 19.1953C618.62 19.2474 617.409 19.2995 616.602 19.3516V39.5859H623.438ZM616.602 65.2891C618.503 65.4714 620.625 65.5625 622.969 65.5625C626.38 65.5625 629.023 65.1328 630.898 64.2734C632.799 63.4141 634.167 62.151 635 60.4844C635.859 58.7917 636.289 56.6823 636.289 54.1562C636.289 51.6302 635.82 49.5469 634.883 47.9062C633.971 46.2656 632.552 45.0417 630.625 44.2344C628.698 43.4271 626.042 43.0234 622.656 43.0234H616.602V65.2891Z" fill="black"/>
<path d="M724.703 931.812V942.633H720.836C720.211 940.367 719.417 938.57 718.453 937.242C717.49 935.888 716.37 934.924 715.094 934.352C713.818 933.779 712.281 933.492 710.484 933.492C707.802 933.492 705.406 934.391 703.297 936.188C701.214 937.958 699.573 940.641 698.375 944.234C697.177 947.802 696.578 952.125 696.578 957.203C696.578 962.307 697.073 966.669 698.062 970.289C699.052 973.883 700.51 976.604 702.438 978.453C704.365 980.276 706.734 981.188 709.547 981.188C711.682 981.188 713.427 980.888 714.781 980.289C716.135 979.664 717.268 978.688 718.18 977.359C719.117 976.031 720.003 974.078 720.836 971.5H724.703V982.672C722.255 983.323 719.742 983.805 717.164 984.117C714.612 984.456 711.799 984.625 708.727 984.625C702.112 984.625 697.112 982.385 693.727 977.906C690.341 973.427 688.648 966.747 688.648 957.867C688.648 952.294 689.521 947.411 691.266 943.219C693.036 939.026 695.628 935.784 699.039 933.492C702.451 931.201 706.526 930.055 711.266 930.055C713.635 930.055 715.823 930.185 717.828 930.445C719.833 930.68 722.125 931.135 724.703 931.812Z" fill="black"/>
<path d="M238.269 278.79C238.269 277.673 237.841 277.115 236.985 277.115C235.904 277.115 234.778 277.763 233.607 279.058C232.436 280.353 231.468 282.341 230.702 285.021C230.657 285.066 230.612 285.133 230.567 285.222C230.522 285.311 230.5 285.378 230.5 285.423C230.5 285.468 230.455 285.512 230.365 285.557C230.274 285.602 230.207 285.624 230.162 285.624C230.117 285.624 230.027 285.624 229.892 285.624C229.757 285.624 229.576 285.624 229.351 285.624H228.405C228.135 285.356 228 285.155 228 285.021C228 284.708 228.18 284.061 228.54 283.078C228.901 282.095 229.441 280.934 230.162 279.594C230.882 278.254 231.873 277.115 233.134 276.177C234.395 275.239 235.814 274.748 237.391 274.703C239.282 274.703 240.746 275.239 241.782 276.311C242.818 277.383 243.358 278.634 243.403 280.063C243.403 280.822 243.336 281.403 243.2 281.805C243.2 282.073 242.863 283.056 242.187 284.753C241.512 286.45 240.813 288.438 240.093 290.716C239.372 292.994 238.967 294.982 238.877 296.679C238.877 297.885 238.989 298.868 239.215 299.627C239.8 301.548 241.219 302.508 243.471 302.508C245.137 302.508 246.691 301.749 248.132 300.23C249.573 298.711 250.699 296.947 251.51 294.937C252.321 292.927 252.974 291.073 253.469 289.376C253.965 287.679 254.212 286.45 254.212 285.691C254.212 284.664 254.032 283.77 253.672 283.011C253.312 282.252 252.906 281.671 252.456 281.269C252.006 280.867 251.6 280.465 251.24 280.063C250.88 279.661 250.699 279.17 250.699 278.589C250.699 277.606 251.127 276.691 251.983 275.842C252.839 274.993 253.762 274.569 254.753 274.569C255.609 274.569 256.374 274.971 257.05 275.775C257.725 276.579 258.086 277.874 258.131 279.661C258.131 280.867 257.861 282.721 257.32 285.222C256.78 287.723 255.946 290.515 254.82 293.597C253.694 296.679 252.096 299.337 250.024 301.57C247.952 303.803 245.565 304.942 242.863 304.987C239.98 304.987 237.683 304.25 235.972 302.776C234.305 301.347 233.472 299.225 233.472 296.411C233.472 295.026 233.652 293.597 234.013 292.123C234.373 290.649 235.296 288.036 236.783 284.284C237.773 281.425 238.269 279.594 238.269 278.79Z" fill="black"/>
<path d="M281.898 281.001C281.898 280.42 282.213 279.974 282.844 279.661H325.878C326.554 280.018 326.891 280.465 326.891 281.001C326.891 281.492 326.576 281.917 325.946 282.274L304.462 282.341H282.979C282.258 282.118 281.898 281.671 281.898 281.001ZM281.898 293.999C281.898 293.329 282.258 292.882 282.979 292.659H325.946C326.576 293.106 326.891 293.552 326.891 293.999C326.891 294.58 326.554 295.026 325.878 295.339H282.844C282.213 295.026 281.898 294.58 281.898 293.999Z" fill="black"/>
<path d="M360.521 293.731C360.521 294.803 360.161 295.696 359.44 296.411C358.72 297.126 357.842 297.483 356.806 297.483H356.333C358.405 301.012 361.152 302.776 364.575 302.776C367.728 302.776 370.025 301.436 371.466 298.756C372.321 297.282 372.749 294.423 372.749 290.18C372.749 285.579 372.141 282.475 370.925 280.867C369.754 279.393 368.448 278.656 367.007 278.656H366.602C363.089 278.656 360.431 280.175 358.63 283.212C358.45 283.525 358.292 283.703 358.157 283.748C358.022 283.793 357.684 283.837 357.144 283.882C356.378 283.882 355.95 283.748 355.86 283.48C355.77 283.301 355.725 279.393 355.725 271.755V263.112C355.725 260.879 355.837 259.762 356.063 259.762C356.153 259.673 356.243 259.628 356.333 259.628C356.378 259.628 356.851 259.807 357.752 260.164C358.652 260.521 359.891 260.879 361.467 261.236C363.044 261.593 364.733 261.772 366.534 261.772C369.732 261.772 372.794 261.147 375.722 259.896C376.082 259.717 376.375 259.628 376.6 259.628C376.96 259.628 377.141 260.03 377.141 260.834V261.705C373.447 266.038 368.831 268.204 363.291 268.204C361.895 268.204 360.634 268.07 359.508 267.802L358.832 267.668V279.192C359.688 278.567 360.364 278.075 360.859 277.718C361.355 277.361 362.165 277.003 363.291 276.646C364.417 276.289 365.566 276.11 366.737 276.11C370.385 276.11 373.47 277.562 375.992 280.465C378.514 283.368 379.775 286.808 379.775 290.783C379.775 294.892 378.334 298.399 375.452 301.302C372.569 304.205 369.056 305.679 364.913 305.724C361.265 305.724 358.337 304.518 356.13 302.106C353.923 299.694 352.82 296.969 352.82 293.932C352.82 292.86 353.068 292.011 353.563 291.386C354.058 290.761 354.576 290.359 355.117 290.18C355.657 290.001 356.175 289.912 356.671 289.912C357.797 289.912 358.72 290.292 359.44 291.051C360.161 291.81 360.521 292.704 360.521 293.731Z" fill="black"/>
<path d="M384.639 285.021C384.684 284.753 384.752 284.396 384.842 283.949C384.932 283.502 385.202 282.654 385.653 281.403C386.103 280.152 386.553 279.103 387.004 278.254C387.454 277.405 388.175 276.579 389.166 275.775C390.156 274.971 391.147 274.591 392.138 274.636C393.129 274.681 394.097 274.837 395.043 275.105C395.989 275.373 396.664 275.775 397.07 276.311C397.475 276.847 397.835 277.338 398.151 277.785C398.466 278.232 398.646 278.656 398.691 279.058L398.826 279.527C398.826 279.616 398.849 279.661 398.894 279.661L399.637 278.924C402.339 276.065 405.515 274.636 409.163 274.636C409.928 274.636 410.626 274.681 411.257 274.77C411.887 274.859 412.473 275.016 413.013 275.239C413.554 275.462 413.982 275.686 414.297 275.909C414.612 276.132 414.95 276.4 415.31 276.713C415.671 277.026 415.896 277.316 415.986 277.584C416.076 277.852 416.256 278.142 416.526 278.455C416.797 278.768 416.887 279.036 416.797 279.259C416.707 279.482 416.774 279.683 416.999 279.862C417.225 280.041 417.27 280.197 417.134 280.331L417.675 279.661C420.512 276.311 423.868 274.636 427.741 274.636C430.173 274.636 432.132 275.239 433.619 276.445C435.105 277.651 435.87 279.415 435.915 281.738C435.915 284.016 435.06 287.545 433.348 292.324C431.637 297.103 430.781 299.962 430.781 300.9C430.826 301.525 430.939 301.95 431.119 302.173C431.299 302.396 431.637 302.508 432.132 302.508C433.393 302.508 434.564 301.838 435.645 300.498C436.726 299.158 437.604 297.327 438.28 295.004C438.415 294.513 438.55 294.222 438.685 294.133C438.82 294.044 439.181 293.999 439.766 293.999C440.667 293.999 441.117 294.178 441.117 294.535C441.117 294.58 441.027 294.915 440.847 295.54C440.487 296.835 439.991 298.108 439.361 299.359C438.73 300.61 437.695 301.86 436.253 303.111C434.812 304.362 433.258 304.965 431.592 304.92C429.475 304.92 427.944 304.317 426.998 303.111C426.052 301.905 425.579 300.654 425.579 299.359C425.579 298.51 426.39 295.83 428.011 291.319C429.633 286.808 430.466 283.413 430.511 281.135C430.511 278.5 429.52 277.182 427.538 277.182H427.201C423.327 277.182 420.062 279.438 417.405 283.949L416.932 284.753L414.702 293.731C413.216 299.582 412.36 302.731 412.135 303.178C411.55 304.384 410.581 304.987 409.23 304.987C408.645 304.987 408.172 304.831 407.811 304.518C407.451 304.205 407.203 303.937 407.068 303.714C406.933 303.491 406.866 303.267 406.866 303.044C406.866 302.553 407.631 299.359 409.163 293.463L411.595 283.681C411.73 283.011 411.797 282.162 411.797 281.135C411.797 278.5 410.807 277.182 408.825 277.182H408.487C404.614 277.182 401.348 279.438 398.691 283.949L398.218 284.753L395.989 293.731C394.503 299.582 393.647 302.731 393.422 303.178C392.836 304.384 391.868 304.987 390.517 304.987C389.931 304.987 389.458 304.853 389.098 304.585C388.738 304.317 388.49 304.049 388.355 303.781C388.22 303.513 388.175 303.29 388.22 303.111C388.22 302.53 389.075 298.868 390.787 292.123C392.543 285.244 393.422 281.649 393.422 281.336C393.557 280.666 393.624 280.063 393.624 279.527C393.624 277.919 393.061 277.115 391.935 277.115C390.945 277.115 390.111 277.74 389.436 278.991C388.76 280.242 388.242 281.604 387.882 283.078C387.522 284.552 387.251 285.356 387.071 285.49C386.981 285.579 386.621 285.624 385.99 285.624H385.045C384.774 285.356 384.639 285.155 384.639 285.021Z" fill="black"/>
<path d="M471.113 254C471.518 254 471.856 254.134 472.126 254.402C472.397 254.67 472.532 254.983 472.532 255.34C472.532 255.563 468.636 266.328 460.844 287.634C453.053 308.94 449.022 319.839 448.751 320.33C448.436 320.777 448.053 321 447.603 321C447.288 321 446.995 320.888 446.725 320.665C446.454 320.442 446.319 320.129 446.319 319.727C446.319 319.28 450.238 308.382 458.074 287.031C465.911 265.68 469.897 254.893 470.032 254.67C470.212 254.223 470.573 254 471.113 254Z" fill="black"/>
<path d="M485.166 284.887C485.166 283.458 485.526 282.006 486.247 280.532C486.968 279.058 488.229 277.696 490.03 276.445C491.832 275.194 494.016 274.591 496.583 274.636C499.376 274.636 501.402 275.239 502.663 276.445C503.925 277.651 504.578 278.991 504.623 280.465C504.623 281.894 504.24 282.944 503.474 283.614C502.708 284.284 501.853 284.641 500.907 284.686C500.321 284.686 499.781 284.507 499.286 284.15C498.79 283.793 498.52 283.212 498.475 282.408C498.475 281.693 498.678 281.068 499.083 280.532C499.488 279.996 499.871 279.594 500.231 279.326C500.592 279.058 500.884 278.924 501.11 278.924C501.155 278.924 501.177 278.902 501.177 278.857C501.177 278.723 501.02 278.522 500.704 278.254C500.389 277.986 499.826 277.74 499.015 277.517C498.205 277.294 497.326 277.16 496.381 277.115C494.219 277.115 492.642 277.696 491.652 278.857C490.661 280.018 490.143 281.202 490.098 282.408C490.098 283.525 490.526 284.306 491.381 284.753C492.237 285.2 493.476 285.579 495.097 285.892C496.718 286.205 497.889 286.54 498.61 286.897C501.583 288.192 503.069 290.336 503.069 293.329C503.069 294.58 502.821 295.83 502.326 297.081C501.83 298.332 501.087 299.582 500.096 300.833C499.105 302.084 497.687 303.066 495.84 303.781C493.994 304.496 491.877 304.875 489.49 304.92C486.022 304.92 483.567 304.272 482.126 302.977C480.685 301.682 479.942 300.163 479.896 298.421C479.896 296.679 480.369 295.428 481.315 294.669C482.261 293.91 483.252 293.53 484.288 293.53C484.963 293.53 485.594 293.731 486.179 294.133C486.765 294.535 487.08 295.227 487.125 296.21C487.125 297.371 486.72 298.354 485.909 299.158C485.098 299.962 484.4 300.364 483.815 300.364C483.725 300.409 483.657 300.431 483.612 300.431C483.567 300.431 483.545 300.476 483.545 300.565C483.59 300.699 483.77 300.878 484.085 301.101C484.4 301.324 485.098 301.615 486.179 301.972C487.26 302.329 488.499 302.486 489.895 302.441C491.516 302.441 492.913 302.195 494.084 301.704C495.255 301.213 496.11 300.587 496.651 299.828C497.191 299.069 497.574 298.376 497.799 297.751C498.024 297.126 498.137 296.567 498.137 296.076C498.137 294.825 497.664 293.887 496.718 293.262C495.773 292.637 494.692 292.257 493.476 292.123C492.26 291.989 490.931 291.654 489.49 291.118C488.048 290.582 486.99 289.8 486.314 288.773C485.549 287.656 485.166 286.361 485.166 284.887Z" fill="black"/>
<path d="M841 239L832.34 254L849.66 254L841 239ZM841 991L849.66 976L832.34 976L841 991ZM839.5 252.5L839.5 977.5L842.5 977.5L842.5 252.5L839.5 252.5Z" fill="black"/>
<path d="M621.787 493.592C621.823 493.592 623.113 493.502 625.659 493.323C628.205 493.143 629.514 493.036 629.585 493C630.016 493 630.231 493.161 630.231 493.484C630.231 493.878 629.585 496.586 628.295 501.605C626.932 506.912 626.251 509.619 626.251 509.727C626.251 509.798 626.376 509.709 626.627 509.458C628.814 507.522 631.145 506.553 633.619 506.553C635.555 506.553 637.115 507.038 638.298 508.006C639.482 508.974 640.091 510.39 640.127 512.255C640.127 514.083 639.446 516.916 638.083 520.752C636.721 524.589 636.039 526.884 636.039 527.637C636.075 528.139 636.165 528.479 636.308 528.659C636.452 528.838 636.721 528.927 637.115 528.927C638.119 528.927 639.051 528.39 639.912 527.314C640.772 526.238 641.472 524.768 642.009 522.904C642.117 522.509 642.225 522.276 642.332 522.205C642.44 522.133 642.727 522.097 643.193 522.097C643.91 522.097 644.268 522.24 644.268 522.527C644.268 522.563 644.197 522.832 644.053 523.334C643.479 525.449 642.565 527.188 641.31 528.551C640.091 530.093 638.639 530.864 636.954 530.864H636.685C635 530.864 633.781 530.38 633.028 529.412C632.275 528.443 631.898 527.422 631.898 526.346C631.898 525.772 632.543 523.657 633.834 519.999C635.125 516.342 635.788 513.599 635.824 511.77C635.824 509.655 635.035 508.597 633.458 508.597H633.189C630.213 508.597 627.631 510.354 625.444 513.868L625.068 514.567L623.239 521.828C622.092 526.489 621.428 529.035 621.249 529.465C620.783 530.433 619.994 530.917 618.882 530.917C618.38 530.917 617.95 530.756 617.592 530.433C617.233 530.111 617.036 529.788 617 529.465C617 528.963 618.309 523.513 620.926 513.115L624.906 497.195C624.906 496.729 624.781 496.442 624.53 496.335C624.279 496.227 623.58 496.137 622.432 496.066H621.303C621.088 495.851 620.98 495.707 620.98 495.635C620.98 495.564 621.016 495.223 621.088 494.613C621.267 493.932 621.5 493.592 621.787 493.592Z" fill="black"/>
<path d="M663.351 511.663C663.351 511.197 663.602 510.838 664.104 510.587H698.364C698.902 510.874 699.171 511.233 699.171 511.663C699.171 512.057 698.92 512.398 698.418 512.685L681.314 512.739H664.211C663.637 512.559 663.351 512.201 663.351 511.663ZM663.351 522.097C663.351 521.559 663.637 521.201 664.211 521.021H698.418C698.92 521.38 699.171 521.738 699.171 522.097C699.171 522.563 698.902 522.922 698.364 523.173H664.104C663.602 522.922 663.351 522.563 663.351 522.097Z" fill="black"/>
<path d="M723.954 505.424C722.986 505.424 722.233 505.119 721.696 504.51C721.158 503.9 720.871 503.111 720.835 502.143C720.835 500.171 721.696 498.414 723.417 496.872C725.138 495.331 727.217 494.56 729.655 494.56C730.91 494.56 731.699 494.578 732.022 494.614C734.675 495.044 736.701 495.994 738.1 497.464C739.498 498.934 740.215 500.53 740.251 502.251C740.251 504.115 739.641 505.926 738.422 507.683C737.203 509.44 735.518 510.713 733.367 511.502L733.205 511.609C733.205 511.645 733.367 511.699 733.689 511.771C734.012 511.842 734.532 512.004 735.249 512.255C735.966 512.506 736.647 512.882 737.293 513.384C740.233 515.284 741.703 517.794 741.703 520.914C741.703 523.746 740.592 526.22 738.368 528.336C736.145 530.451 733.331 531.509 729.924 531.509C727.056 531.509 724.582 530.738 722.502 529.196C720.423 527.655 719.383 525.701 719.383 523.334C719.383 522.33 719.706 521.523 720.351 520.914C720.996 520.304 721.803 519.982 722.771 519.946C723.775 519.946 724.6 520.268 725.245 520.914C725.891 521.559 726.213 522.366 726.213 523.334C726.213 523.728 726.16 524.087 726.052 524.41C725.944 524.732 725.819 525.019 725.676 525.27C725.532 525.521 725.335 525.736 725.084 525.916C724.833 526.095 724.618 526.238 724.438 526.346C724.259 526.453 724.08 526.525 723.901 526.561C723.721 526.597 723.578 526.651 723.47 526.722L723.255 526.776C725.084 528.39 727.307 529.196 729.924 529.196C731.896 529.196 733.384 528.246 734.388 526.346C734.998 525.163 735.303 523.352 735.303 520.914V519.838C735.303 516.432 734.155 514.155 731.861 513.008C731.323 512.792 730.229 512.667 728.58 512.631L726.321 512.577L726.16 512.47C726.088 512.362 726.052 512.075 726.052 511.609C726.052 510.964 726.195 510.641 726.482 510.641C727.486 510.641 728.526 510.551 729.602 510.372C730.821 510.193 731.932 509.44 732.936 508.113C733.94 506.787 734.442 504.779 734.442 502.089V501.659C734.442 499.615 733.815 498.199 732.56 497.41C731.771 496.908 730.928 496.657 730.032 496.657C728.885 496.657 727.827 496.855 726.859 497.249C725.891 497.643 725.209 498.056 724.815 498.486C724.421 498.916 724.223 499.131 724.223 499.131H724.385C724.492 499.167 724.636 499.203 724.815 499.239C724.994 499.275 725.174 499.364 725.353 499.508C725.532 499.651 725.747 499.777 725.998 499.884C726.249 499.992 726.428 500.189 726.536 500.476C726.644 500.763 726.787 501.032 726.966 501.283C727.146 501.534 727.199 501.892 727.128 502.358C727.128 503.147 726.877 503.846 726.375 504.456C725.873 505.066 725.066 505.388 723.954 505.424Z" fill="black"/>
<path d="M749.179 498.862C751.187 495.958 753.93 494.506 757.408 494.506C759.129 494.506 760.85 494.972 762.571 495.904C764.292 496.837 765.691 498.486 766.766 500.852C768.093 503.828 768.756 507.916 768.756 513.115C768.756 518.673 767.985 522.922 766.444 525.862C765.726 527.368 764.74 528.569 763.485 529.465C762.23 530.362 761.137 530.918 760.205 531.133C759.272 531.348 758.358 531.473 757.462 531.509C756.529 531.509 755.597 531.402 754.665 531.186C753.733 530.971 752.639 530.398 751.384 529.465C750.129 528.533 749.143 527.332 748.426 525.862C746.884 522.922 746.113 518.673 746.113 513.115C746.113 506.876 747.135 502.125 749.179 498.862ZM761.28 498.217C760.205 497.07 758.932 496.496 757.462 496.496C755.956 496.496 754.665 497.07 753.589 498.217C752.693 499.149 752.101 500.44 751.814 502.089C751.528 503.739 751.384 507.181 751.384 512.416C751.384 518.081 751.528 521.81 751.814 523.603C752.101 525.396 752.747 526.812 753.751 527.852C754.755 528.928 755.992 529.465 757.462 529.465C758.896 529.465 760.115 528.928 761.119 527.852C762.159 526.776 762.804 525.27 763.055 523.334C763.306 521.398 763.45 517.758 763.485 512.416C763.485 507.217 763.342 503.793 763.055 502.143C762.768 500.494 762.177 499.185 761.28 498.217Z" fill="black"/>
<path d="M772.037 514.89C772.072 514.675 772.126 514.388 772.198 514.029C772.27 513.671 772.485 512.99 772.843 511.986C773.202 510.982 773.56 510.139 773.919 509.458C774.278 508.777 774.851 508.113 775.64 507.468C776.429 506.822 777.218 506.518 778.007 506.553C778.795 506.589 779.566 506.715 780.319 506.93C781.072 507.145 781.61 507.468 781.933 507.898C782.256 508.328 782.542 508.723 782.793 509.081C783.044 509.44 783.188 509.78 783.224 510.103L783.331 510.48C783.331 510.551 783.349 510.587 783.385 510.587L783.977 509.996C786.128 507.701 788.656 506.553 791.56 506.553C792.17 506.553 792.725 506.589 793.227 506.661C793.729 506.733 794.195 506.858 794.626 507.038C795.056 507.217 795.397 507.396 795.648 507.575C795.899 507.755 796.168 507.97 796.454 508.221C796.741 508.472 796.921 508.705 796.992 508.92C797.064 509.135 797.207 509.368 797.423 509.619C797.638 509.87 797.709 510.085 797.638 510.265C797.566 510.444 797.62 510.605 797.799 510.749C797.978 510.892 798.014 511.018 797.907 511.125L798.337 510.587C800.596 507.898 803.267 506.553 806.351 506.553C808.287 506.553 809.847 507.038 811.03 508.006C812.213 508.974 812.823 510.39 812.858 512.255C812.858 514.083 812.177 516.916 810.815 520.752C809.452 524.589 808.771 526.884 808.771 527.637C808.807 528.139 808.896 528.479 809.04 528.659C809.183 528.838 809.452 528.927 809.847 528.927C810.851 528.927 811.783 528.39 812.643 527.314C813.504 526.238 814.203 524.768 814.741 522.904C814.848 522.509 814.956 522.276 815.064 522.205C815.171 522.133 815.458 522.097 815.924 522.097C816.641 522.097 817 522.24 817 522.527C817 522.563 816.928 522.832 816.785 523.334C816.498 524.374 816.103 525.396 815.601 526.4C815.099 527.404 814.275 528.408 813.127 529.412C811.98 530.415 810.743 530.9 809.416 530.864C807.731 530.864 806.512 530.38 805.759 529.412C805.006 528.443 804.63 527.439 804.63 526.4C804.63 525.718 805.275 523.567 806.566 519.946C807.857 516.324 808.52 513.599 808.556 511.77C808.556 509.655 807.767 508.597 806.189 508.597H805.92C802.837 508.597 800.237 510.408 798.122 514.029L797.745 514.675L795.97 521.882C794.787 526.579 794.106 529.107 793.927 529.465C793.46 530.433 792.69 530.917 791.614 530.917C791.148 530.917 790.771 530.792 790.484 530.541C790.198 530.29 790 530.075 789.893 529.896C789.785 529.716 789.731 529.537 789.731 529.358C789.731 528.963 790.341 526.4 791.56 521.667L793.496 513.814C793.604 513.276 793.658 512.595 793.658 511.77C793.658 509.655 792.869 508.597 791.291 508.597H791.022C787.939 508.597 785.339 510.408 783.224 514.029L782.847 514.675L781.072 521.882C779.889 526.579 779.208 529.107 779.028 529.465C778.562 530.433 777.791 530.917 776.716 530.917C776.25 530.917 775.873 530.81 775.586 530.595C775.299 530.38 775.102 530.165 774.995 529.949C774.887 529.734 774.851 529.555 774.887 529.412C774.887 528.945 775.568 526.005 776.931 520.591C778.329 515.069 779.028 512.183 779.028 511.932C779.136 511.394 779.19 510.91 779.19 510.48C779.19 509.189 778.742 508.543 777.845 508.543C777.056 508.543 776.393 509.045 775.855 510.049C775.317 511.053 774.905 512.147 774.618 513.33C774.331 514.513 774.116 515.159 773.973 515.266C773.901 515.338 773.614 515.374 773.112 515.374H772.359C772.144 515.159 772.037 514.998 772.037 514.89Z" fill="black"/>
<defs>
<clipPath id="clip0_130_111">
<rect width="141" height="141" fill="white" transform="translate(491 212)"/>
</clipPath>
<clipPath id="clip1_130_111">
<rect width="31" height="31" fill="white" transform="translate(598 214)"/>
</clipPath>
</defs>
</svg>
