<svg width="418" height="271" viewBox="0 0 418 271" fill="none" xmlns="http://www.w3.org/2000/svg">
<path d="M245.089 159.615V154.703C245.089 154.703 251.144 154.301 253.749 153.306C255.146 152.776 256.861 149.876 256.437 147.166C256.035 144.477 254.236 143.08 251.039 143.164C247.778 143.249 243.925 143.524 240.41 144.138C234.44 145.197 230.946 146.7 230.036 147.081C228.639 147.653 227.665 152.713 230.205 153.941C231.688 154.661 235.52 154.83 235.52 154.83L235.435 159.742L245.089 159.615V159.615Z" fill="#B50D22"/>
<path d="M406.758 242.27C406.758 242.27 408.345 234.838 403.137 230.032C397.103 224.464 390.011 222.305 381.796 219.108C374.619 216.313 363.779 213.031 363.779 213.031L341.633 198.867C341.633 198.867 331.746 196.517 314.194 196.856C298.972 197.152 273.777 199.333 273.777 199.333C273.777 199.333 268.42 193.638 260.312 192.664C252.203 191.69 248.604 192.431 248.604 192.431L247.863 158.027C247.863 158.027 234.122 158.027 229.718 158.45C223.092 159.107 214.834 165.966 212.506 168.338C211.892 168.973 199.485 182.332 199.485 182.332L191.63 186.016C191.63 186.016 180.6 142.677 179.033 142.169C179.012 142.169 171.771 141.576 165.25 141.365C156.654 141.089 150.599 141.365 149.879 141.788C149.35 142.106 155.574 171.662 155.574 171.662L214.22 248.388C214.22 248.388 297.468 246.187 297.976 245.446C298.463 244.705 322.049 233.42 322.049 233.42C322.049 233.42 380.017 240.047 380.991 240.534C381.965 241.042 406.758 242.27 406.758 242.27V242.27Z" fill="#FF2A23"/>
<path d="M196.5 214.619L161.334 207.421L155.49 171.598C155.49 171.598 171.221 171.45 183.776 186.08C195.759 200.074 196.5 214.619 196.5 214.619Z" fill="#B50D22"/>
<path d="M302.529 194.76C302.571 197.999 296.389 202.488 289.889 202.678C282.436 202.89 280.235 201.472 280.15 198.867C280.065 196.263 280.235 190.886 280.235 190.886L298.019 187.181C298.04 187.181 302.465 190.187 302.529 194.76V194.76Z" fill="#B50D22"/>
<path d="M298.527 187.604C298.527 187.604 294.335 183.687 289.296 182.65C284.744 181.718 280.32 181.888 280.32 183.37C280.32 185.889 280.235 190.864 280.235 190.864C280.235 190.864 283.03 193.363 290.588 192.643C295.373 192.198 297.871 188.62 298.527 187.604V187.604Z" fill="#FF2A23"/>
<path d="M311.717 233.865C311.717 233.865 297.913 235.092 287.433 230.816C278.837 227.301 275.344 222.538 269.818 219.679C267.045 218.24 261.434 218.451 261.434 218.451L258.957 243.413L306.297 246.737L311.252 239.306L311.717 233.865Z" fill="#CF1A35"/>
<path d="M179.033 142.19L186.803 190.06L217.545 182.883C217.545 182.883 214.39 179.156 213.353 175.896C212.252 172.403 212.485 168.338 212.485 168.338L195.569 181.888C195.569 181.888 189.979 150.617 189.471 148.711C188.963 146.806 187.396 144.773 184.474 143.207C182.654 142.254 179.033 142.19 179.033 142.19V142.19Z" fill="#636866"/>
<path d="M179.393 207.188L161.354 207.442C161.354 207.442 162.265 221.67 163.599 225.375C165.906 231.769 170.797 231.26 170.797 231.26C170.797 231.26 179.478 206.976 179.393 207.188V207.188Z" fill="#636866"/>
<path d="M413.448 239.856C414.104 240.28 414.38 254.634 413.914 254.952C413.448 255.269 397.04 255.269 397.04 255.269C397.04 255.269 396.616 239.856 398.649 239.856C400.681 239.856 412.982 239.539 413.448 239.856V239.856Z" fill="#636866"/>
<path d="M379.891 240.174C379.891 240.174 379.277 256.137 380.272 256.603C381.288 257.069 398.162 257.069 398.797 256.688C399.411 256.307 398.945 240.026 398.882 239.793C398.818 239.539 379.51 239.623 379.891 240.174V240.174Z" fill="#B50D22"/>
<path d="M319.72 241.719H310.913C310.913 241.719 316.587 250.739 317.18 251.628C317.772 252.517 317.561 254.084 314.639 254.168C311.738 254.253 220.488 254.168 220.488 254.168L230.481 240.999H309.134C309.134 240.999 309.642 236.596 311.103 233.018C312.564 229.44 315.909 226.772 315.909 226.772L319.72 241.719Z" fill="#636866"/>
<path d="M265.583 217.71C265.88 218.113 266.155 240.491 265.71 240.936C265.266 241.381 255.209 241.317 254.892 241.063C254.574 240.809 254.511 218.409 254.701 218.028C254.892 217.647 265.266 217.266 265.583 217.71Z" fill="#8C1D0B"/>
<path d="M315.697 229.376C315.697 247.52 330.497 262.235 348.726 262.235C366.955 262.235 381.69 250.04 381.754 229.376C381.817 211.232 367.717 196.644 348.726 196.517C329.819 196.39 315.697 211.232 315.697 229.376Z" fill="#4C4038"/>
<path d="M348.726 201.62C364.245 201.62 376.842 214.09 376.842 229.461C376.842 244.832 364.245 257.302 348.726 257.302C333.207 257.302 320.609 244.832 320.609 229.461C320.609 214.09 333.185 201.62 348.726 201.62ZM348.916 253.3C361.916 253.3 372.459 242.651 372.459 229.524C372.459 216.398 361.916 205.748 348.916 205.748C335.917 205.748 325.373 216.398 325.373 229.524C325.373 242.672 335.917 253.3 348.916 253.3Z" fill="#F8A128"/>
<path d="M349.107 211.888C358.761 211.888 366.595 219.552 366.595 229.016C366.595 238.48 358.761 246.144 349.107 246.144C339.452 246.144 331.619 238.48 331.619 229.016C331.619 219.552 339.452 211.888 349.107 211.888ZM349.17 238.671C354.611 238.671 359.036 234.33 359.036 228.995C359.036 223.66 354.611 219.319 349.17 219.319C343.729 219.319 339.304 223.66 339.304 228.995C339.304 234.33 343.729 238.671 349.17 238.671V238.671Z" fill="#858583"/>
<path d="M168.595 229.461C168.595 247.605 183.395 262.32 201.624 262.32C219.853 262.32 234.588 250.125 234.652 229.461C234.715 211.316 220.615 196.729 201.624 196.602C182.738 196.475 168.595 211.316 168.595 229.461Z" fill="#4C4038"/>
<path d="M201.623 201.704C217.142 201.704 229.74 214.175 229.74 229.545C229.74 244.916 217.142 257.386 201.623 257.386C186.105 257.386 173.507 244.916 173.507 229.545C173.507 214.175 186.105 201.704 201.623 201.704ZM201.814 253.385C214.814 253.385 225.357 242.736 225.357 229.609C225.357 216.482 214.814 205.833 201.814 205.833C188.815 205.833 178.271 216.482 178.271 229.609C178.292 242.757 188.815 253.385 201.814 253.385Z" fill="#F8A128"/>
<path d="M202.005 211.973C211.659 211.973 219.493 219.637 219.493 229.101C219.493 238.565 211.659 246.229 202.005 246.229C192.35 246.229 184.517 238.565 184.517 229.101C184.517 219.637 192.35 211.973 202.005 211.973ZM202.068 238.755C207.509 238.755 211.934 234.415 211.934 229.08C211.934 223.744 207.509 219.404 202.068 219.404C196.627 219.404 192.202 223.744 192.202 229.08C192.202 234.415 196.627 238.755 202.068 238.755Z" fill="#858583"/>
<line x1="73" y1="208.5" x2="270" y2="208.5" stroke="#FF2A23"/>
<line x1="82" y1="207.5" x2="270" y2="207.5" stroke="#FF2A23"/>
<line x1="109" y1="206.5" x2="270" y2="206.5" stroke="#FF2A23"/>
<line x1="73" y1="209.5" x2="270" y2="209.5" stroke="white"/>
<line x1="-4.37114e-08" y1="187.5" x2="177" y2="187.5" stroke="#B50D22"/>
<line x1="9" y1="186.5" x2="177" y2="186.5" stroke="#B50D22"/>
<line x1="36" y1="185.5" x2="177" y2="185.5" stroke="#B50D22"/>
<line x1="-4.37114e-08" y1="188.5" x2="177" y2="188.5" stroke="white"/>
<line x1="18" y1="166.5" x2="171" y2="166.5" stroke="#FF2A23"/>
<line x1="27" y1="165.5" x2="171" y2="165.5" stroke="#FF2A23"/>
<line x1="54" y1="164.5" x2="171" y2="164.5" stroke="#FF2A23"/>
<line x1="18" y1="167.5" x2="171" y2="167.5" stroke="white"/>
<line x1="6" y1="229.5" x2="203" y2="229.5" stroke="#4C4038"/>
<line x1="15" y1="228.5" x2="203" y2="228.5" stroke="#4C4038"/>
<line x1="42" y1="227.5" x2="203" y2="227.5" stroke="#4C4038"/>
<line x1="6" y1="230.5" x2="203" y2="230.5" stroke="white"/>
</svg>
