<svg width="186" height="203" viewBox="0 0 186 203" fill="none" xmlns="http://www.w3.org/2000/svg">
<mask id="path-1-inside-1_1_10" fill="white">
<path d="M49.4993 27.8009C66.8847 18.6004 86.7396 15.149 106.21 17.943C125.68 20.7369 143.764 29.6323 157.86 43.3504C171.957 57.0686 181.341 74.903 184.664 94.2902C187.986 113.677 185.076 133.619 176.352 151.248C167.628 168.877 153.539 183.287 136.11 192.405C118.681 201.523 98.8103 204.88 79.3534 201.993C59.8964 199.107 41.8557 190.126 27.8243 176.341C13.793 162.556 4.49361 144.677 1.26296 125.275L19.8053 122.187C22.3829 137.668 29.8027 151.933 40.9979 162.932C52.1932 173.931 66.5875 181.096 82.1117 183.399C97.6359 185.702 113.49 183.024 127.397 175.749C141.303 168.474 152.544 156.977 159.505 142.911C166.465 128.845 168.787 112.934 166.136 97.4655C163.485 81.997 155.998 67.7673 144.75 56.8219C133.503 45.8766 119.075 38.7792 103.54 36.5499C88.005 34.3207 72.1632 37.0745 58.2918 44.4154L49.4993 27.8009Z"/>
</mask>
<path d="M49.4993 27.8009C66.8847 18.6004 86.7396 15.149 106.21 17.943C125.68 20.7369 143.764 29.6323 157.86 43.3504C171.957 57.0686 181.341 74.903 184.664 94.2902C187.986 113.677 185.076 133.619 176.352 151.248C167.628 168.877 153.539 183.287 136.11 192.405C118.681 201.523 98.8103 204.88 79.3534 201.993C59.8964 199.107 41.8557 190.126 27.8243 176.341C13.793 162.556 4.49361 144.677 1.26296 125.275L19.8053 122.187C22.3829 137.668 29.8027 151.933 40.9979 162.932C52.1932 173.931 66.5875 181.096 82.1117 183.399C97.6359 185.702 113.49 183.024 127.397 175.749C141.303 168.474 152.544 156.977 159.505 142.911C166.465 128.845 168.787 112.934 166.136 97.4655C163.485 81.997 155.998 67.7673 144.75 56.8219C133.503 45.8766 119.075 38.7792 103.54 36.5499C88.005 34.3207 72.1632 37.0745 58.2918 44.4154L49.4993 27.8009Z" fill="#0F0F0F" stroke="black" stroke-width="16" mask="url(#path-1-inside-1_1_10)"/>
<path d="M22.2305 53.2669L68.5788 61.597L40.4668 9.85036L22.2305 53.2669Z" fill="black"/>
</svg>
