<svg width="1020" height="499" viewBox="0 0 1020 499" fill="none" xmlns="http://www.w3.org/2000/svg">
<line x1="408.439" y1="104.668" x2="336.439" y2="426.668" stroke="#6B0000" stroke-width="5"/>
<line x1="518.441" y1="263.661" x2="482.441" y2="426.661" stroke="#6B0000" stroke-width="5"/>
<line x1="588.447" y1="345.13" x2="571.447" y2="427.13" stroke="#6B0000" stroke-width="5"/>
<line x1="686.459" y1="297.073" x2="662.459" y2="428.073" stroke="#6B0000" stroke-width="5"/>
<line x1="754.165" y1="349.871" x2="709.165" y2="427.871" stroke="#6B0000" stroke-width="5"/>
<line x1="299.438" y1="285.672" x2="267.438" y2="427.672" stroke="#6B0000" stroke-width="5"/>
<line y1="-2.5" x2="333.098" y2="-2.5" transform="matrix(0.219155 0.97569 0.97569 -0.219155 412 101.122)" stroke="#6B0000" stroke-width="5"/>
<line x1="297.422" y1="277.504" x2="335.422" y2="426.504" stroke="#6B0000" stroke-width="5"/>
<line x1="200.858" y1="385.45" x2="236.858" y2="425.45" stroke="#6B0000" stroke-width="5"/>
<line x1="518.476" y1="268.777" x2="540.476" y2="426.777" stroke="#6B0000" stroke-width="5"/>
<line x1="590.46" y1="337.18" x2="606.46" y2="426.18" stroke="#6B0000" stroke-width="5"/>
<line x1="820.31" y1="377.546" x2="800.321" y2="427.55" stroke="#6B0000" stroke-width="5"/>
<line x1="820.381" y1="375.86" x2="836.381" y2="425.86" stroke="#6B0000" stroke-width="5"/>
<line x1="894.255" y1="356.543" x2="927.255" y2="425.543" stroke="#6B0000" stroke-width="5"/>
<line y1="-2.5" x2="76.4853" y2="-2.5" transform="matrix(-0.431455 0.902134 0.902134 0.431455 962 358.622)" stroke="#6B0000" stroke-width="5"/>
<line x1="688.468" y1="296.226" x2="709.468" y2="427.226" stroke="#6B0000" stroke-width="5"/>
<line x1="618.236" y1="338.504" x2="662.236" y2="426.504" stroke="#6B0000" stroke-width="5"/>
<line x1="436.877" y1="88.1008" x2="430.877" y2="99.1008" stroke="black" stroke-width="2"/>
<line x1="446.789" y1="96.2359" x2="439.789" y2="105.236" stroke="black" stroke-width="2"/>
<line x1="455.624" y1="105.403" x2="445.624" y2="113.403" stroke="black" stroke-width="2"/>
<line x1="462.624" y1="112.403" x2="452.624" y2="120.403" stroke="black" stroke-width="2"/>
<line x1="469.536" y1="121.466" x2="458.536" y2="128.466" stroke="black" stroke-width="2"/>
<line x1="475.536" y1="130.466" x2="464.536" y2="137.466" stroke="black" stroke-width="2"/>
<line x1="480.503" y1="139.486" x2="468.503" y2="146.486" stroke="black" stroke-width="2"/>
<line x1="486.503" y1="148.486" x2="474.503" y2="155.486" stroke="black" stroke-width="2"/>
<line x1="490.503" y1="158.486" x2="478.503" y2="165.486" stroke="black" stroke-width="2"/>
<line x1="495.503" y1="168.486" x2="483.503" y2="175.486" stroke="black" stroke-width="2"/>
<line x1="502.503" y1="177.486" x2="490.503" y2="184.486" stroke="black" stroke-width="2"/>
<line x1="506.503" y1="187.486" x2="494.503" y2="194.486" stroke="black" stroke-width="2"/>
<line x1="511.503" y1="197.486" x2="499.503" y2="204.486" stroke="black" stroke-width="2"/>
<line x1="516.447" y1="207.516" x2="504.447" y2="213.516" stroke="black" stroke-width="2"/>
<line x1="521.419" y1="217.53" x2="508.419" y2="223.53" stroke="black" stroke-width="2"/>
<line x1="525.447" y1="227.516" x2="513.447" y2="233.516" stroke="black" stroke-width="2"/>
<line x1="530.447" y1="236.516" x2="518.447" y2="242.516" stroke="black" stroke-width="2"/>
<line x1="534.447" y1="246.516" x2="522.447" y2="252.516" stroke="black" stroke-width="2"/>
<line x1="539.478" y1="255.5" x2="528.478" y2="261.5" stroke="black" stroke-width="2"/>
<line x1="544.503" y1="264.486" x2="532.503" y2="271.486" stroke="black" stroke-width="2"/>
<line x1="550.503" y1="273.486" x2="538.503" y2="280.486" stroke="black" stroke-width="2"/>
<line x1="555.503" y1="282.486" x2="543.503" y2="289.486" stroke="black" stroke-width="2"/>
<line x1="561.588" y1="290.431" x2="550.588" y2="298.431" stroke="black" stroke-width="2"/>
<line x1="567.624" y1="298.403" x2="557.624" y2="306.403" stroke="black" stroke-width="2"/>
<line x1="574.707" y1="305.329" x2="563.707" y2="316.329" stroke="black" stroke-width="2"/>
<line x1="582.792" y1="310.232" x2="572.792" y2="323.232" stroke="black" stroke-width="2"/>
<line x1="589.894" y1="314.069" x2="581.894" y2="330.069" stroke="black" stroke-width="2"/>
<line x1="596.998" y1="314.677" x2="595.998" y2="332.677" stroke="black" stroke-width="2"/>
<line x1="604.96" y1="314.345" x2="609.871" y2="331.359" stroke="black" stroke-width="2"/>
<line x1="612.896" y1="312.18" x2="619.807" y2="326.194" stroke="black" stroke-width="2"/>
<line x1="620.803" y1="308.026" x2="629.713" y2="320.041" stroke="black" stroke-width="2"/>
<line x1="628.803" y1="302.026" x2="637.713" y2="314.041" stroke="black" stroke-width="2"/>
<line x1="636.803" y1="295.026" x2="645.713" y2="307.041" stroke="black" stroke-width="2"/>
<line x1="645.835" y1="288.072" x2="653.745" y2="300.087" stroke="black" stroke-width="2"/>
<line x1="656.883" y1="281.153" x2="663.793" y2="294.168" stroke="black" stroke-width="2"/>
<line x1="668.943" y1="274.291" x2="673.854" y2="288.306" stroke="black" stroke-width="2"/>
<line x1="684.998" y1="268.561" x2="685.908" y2="283.576" stroke="black" stroke-width="2"/>
<line x1="702.964" y1="269.885" x2="698.875" y2="284.899" stroke="black" stroke-width="2"/>
<line x1="718.832" y1="279.176" x2="710.832" y2="291.191" stroke="black" stroke-width="2"/>
<line x1="731.707" y1="289.329" x2="720.707" y2="300.343" stroke="black" stroke-width="2"/>
<line x1="741.64" y1="299.39" x2="729.64" y2="309.404" stroke="black" stroke-width="2"/>
<line x1="752.655" y1="307.377" x2="737.655" y2="320.392" stroke="black" stroke-width="2"/>
<line x1="761.684" y1="316.351" x2="745.684" y2="331.366" stroke="black" stroke-width="2"/>
<line x1="770.75" y1="324.283" x2="755.75" y2="341.298" stroke="black" stroke-width="2"/>
<line x1="778.845" y1="330.156" x2="766.845" y2="349.17" stroke="black" stroke-width="2"/>
<line x1="788.885" y1="336.087" x2="778.885" y2="355.102" stroke="black" stroke-width="2"/>
<line x1="797.957" y1="341.909" x2="791.957" y2="361.924" stroke="black" stroke-width="2"/>
<line x1="807.98" y1="347.818" x2="803.98" y2="367.833" stroke="black" stroke-width="2"/>
<line x1="816.998" y1="351.672" x2="815.998" y2="371.686" stroke="black" stroke-width="2"/>
<line x1="827" y1="353.622" x2="827" y2="373.637" stroke="black" stroke-width="2"/>
<line x1="238.658" y1="328.869" x2="246.658" y2="335.869" stroke="black" stroke-width="2"/>
<line x1="245.658" y1="321.869" x2="253.658" y2="328.869" stroke="black" stroke-width="2"/>
<line x1="250.462" y1="314.031" x2="258.782" y2="320.648" stroke="black" stroke-width="2"/>
<line x1="255.573" y1="305.803" x2="265.573" y2="312.803" stroke="black" stroke-width="2"/>
<line x1="261.573" y1="297.803" x2="271.573" y2="304.803" stroke="black" stroke-width="2"/>
<line x1="266.397" y1="289.983" x2="276.556" y2="296.791" stroke="black" stroke-width="2"/>
<line x1="271.536" y1="281.778" x2="282.536" y2="288.778" stroke="black" stroke-width="2"/>
<line x1="275.536" y1="272.778" x2="286.536" y2="279.778" stroke="black" stroke-width="2"/>
<line x1="281.533" y1="264.776" x2="291.875" y2="271.304" stroke="black" stroke-width="2"/>
<line x1="285.503" y1="256.758" x2="297.503" y2="263.758" stroke="black" stroke-width="2"/>
<line x1="288.503" y1="248.758" x2="300.503" y2="255.758" stroke="black" stroke-width="2"/>
<line x1="294.447" y1="240.728" x2="306.447" y2="246.728" stroke="black" stroke-width="2"/>
<line x1="297.447" y1="231.728" x2="307.447" y2="236.728" stroke="black" stroke-width="2"/>
<path d="M301.504 221.758L313 227.622" stroke="black" stroke-width="2"/>
<path d="M306.473 212.741L317.999 218.622" stroke="black" stroke-width="2"/>
<line x1="310.447" y1="204.728" x2="320.447" y2="209.728" stroke="black" stroke-width="2"/>
<path d="M314 194.758L325.496 200.622" stroke="black" stroke-width="2"/>
<path d="M318.97 185.741L330.495 191.622" stroke="black" stroke-width="2"/>
<line x1="322.943" y1="177.728" x2="332.943" y2="182.728" stroke="black" stroke-width="2"/>
<path d="M328 167.758L339.496 173.622" stroke="black" stroke-width="2"/>
<path d="M332.97 158.741L344.495 164.622" stroke="black" stroke-width="2"/>
<line x1="336.943" y1="150.728" x2="346.943" y2="155.728" stroke="black" stroke-width="2"/>
<path d="M341 141.25L352.496 147.114" stroke="black" stroke-width="2"/>
<path d="M345.999 132.622L357.495 138.622" stroke="black" stroke-width="2"/>
<line x1="350.534" y1="123.777" x2="360.03" y2="129.777" stroke="black" stroke-width="2"/>
<path d="M357.351 114.709L367.646 122.165" stroke="black" stroke-width="2"/>
<path d="M362.521 105.784L373.069 113.325" stroke="black" stroke-width="2"/>
<line x1="371.707" y1="97.9148" x2="380.707" y2="106.915" stroke="black" stroke-width="2"/>
<line x1="380.819" y1="90.0485" x2="387.819" y2="100.048" stroke="black" stroke-width="2"/>
<line x1="391.923" y1="83.2373" x2="396.923" y2="95.2373" stroke="black" stroke-width="2"/>
<line x1="407.997" y1="78.5554" x2="408.997" y2="93.5554" stroke="black" stroke-width="2"/>
<line x1="423.955" y1="81.916" x2="419.955" y2="94.916" stroke="black" stroke-width="2"/>
<line x1="157.982" y1="372.438" x2="160.982" y2="388.438" stroke="black" stroke-width="2"/>
<line x1="170.966" y1="371.364" x2="174.966" y2="386.364" stroke="black" stroke-width="2"/>
<line x1="182.948" y1="368.306" x2="187.948" y2="383.306" stroke="black" stroke-width="2"/>
<line x1="193.907" y1="363.203" x2="199.907" y2="376.203" stroke="black" stroke-width="2"/>
<line x1="203.851" y1="357.098" x2="211.851" y2="370.098" stroke="black" stroke-width="2"/>
<line x1="214.78" y1="350.997" x2="222.78" y2="360.997" stroke="black" stroke-width="2"/>
<line x1="222.743" y1="343.953" x2="231.743" y2="353.953" stroke="black" stroke-width="2"/>
<line x1="230.707" y1="336.915" x2="238.707" y2="344.915" stroke="black" stroke-width="2"/>
<line x1="836.994" y1="354.517" x2="838.994" y2="373.532" stroke="black" stroke-width="2"/>
<line x1="846.987" y1="353.466" x2="849.987" y2="372.481" stroke="black" stroke-width="2"/>
<line x1="855.963" y1="350.355" x2="860.963" y2="368.369" stroke="black" stroke-width="2"/>
<line x1="864.936" y1="347.271" x2="870.936" y2="363.286" stroke="black" stroke-width="2"/>
<line x1="872.882" y1="342.152" x2="880.882" y2="357.166" stroke="black" stroke-width="2"/>
<line x1="880.841" y1="337.082" x2="889.841" y2="351.096" stroke="black" stroke-width="2"/>
<line x1="888.792" y1="331.013" x2="898.792" y2="344.027" stroke="black" stroke-width="2"/>
<line x1="895.763" y1="322.976" x2="906.763" y2="335.991" stroke="black" stroke-width="2"/>
<line x1="888.792" y1="331.013" x2="898.792" y2="344.027" stroke="black" stroke-width="2"/>
<line x1="903.707" y1="313.915" x2="915.707" y2="325.93" stroke="black" stroke-width="2"/>
<line x1="942.335" y1="325.875" x2="951.335" y2="317.875" stroke="black" stroke-width="2"/>
<line x1="951.292" y1="333.915" x2="959.292" y2="325.915" stroke="black" stroke-width="2"/>
<line x1="960.21" y1="342.008" x2="967.21" y2="333.008" stroke="black" stroke-width="2"/>
<line x1="970.125" y1="349.136" x2="975.125" y2="340.136" stroke="black" stroke-width="2"/>
<line x1="980.071" y1="355.251" x2="984.071" y2="345.251" stroke="black" stroke-width="2"/>
<line x1="991.042" y1="359.335" x2="994.042" y2="349.335" stroke="black" stroke-width="2"/>
<line x1="1002.02" y1="362.443" x2="1004.02" y2="351.443" stroke="black" stroke-width="2"/>
<line x1="1014" y1="363.622" x2="1014" y2="351.622" stroke="black" stroke-width="2"/>
<line x1="930.447" y1="275.728" x2="942.447" y2="281.728" stroke="black" stroke-width="2"/>
<line x1="935.447" y1="264.728" x2="947.447" y2="270.728" stroke="black" stroke-width="2"/>
<line x1="941.358" y1="254.689" x2="954.359" y2="259.689" stroke="black" stroke-width="2"/>
<line x1="945.224" y1="245.648" x2="958.224" y2="248.648" stroke="black" stroke-width="2"/>
<line x1="949.152" y1="234.634" x2="962.152" y2="236.634" stroke="black" stroke-width="2"/>
<line x1="952.152" y1="223.634" x2="965.152" y2="225.634" stroke="black" stroke-width="2"/>
<line x1="955.152" y1="211.634" x2="968.152" y2="213.634" stroke="black" stroke-width="2"/>
<line x1="898.875" y1="234.63" x2="906.875" y2="233.63" stroke="black" stroke-width="2"/>
<line x1="901.875" y1="244.63" x2="909.875" y2="243.63" stroke="black" stroke-width="2"/>
<line x1="904.757" y1="254.652" x2="912.757" y2="252.652" stroke="black" stroke-width="2"/>
<line x1="908.648" y1="264.686" x2="916.648" y2="261.686" stroke="black" stroke-width="2"/>
<line x1="912.648" y1="274.686" x2="920.648" y2="271.686" stroke="black" stroke-width="2"/>
<line x1="916.628" y1="284.693" x2="926.628" y2="280.693" stroke="black" stroke-width="2"/>
<line x1="932" y1="147.622" x2="932" y2="160.622" stroke="black" stroke-width="2"/>
<line x1="918.964" y1="150.359" x2="921.964" y2="161.359" stroke="black" stroke-width="2"/>
<line x1="908.868" y1="158.126" x2="912.868" y2="165.126" stroke="black" stroke-width="2"/>
<line x1="943.986" y1="148.786" x2="941.986" y2="160.786" stroke="black" stroke-width="2"/>
<line x1="953.928" y1="156.993" x2="949.928" y2="166.993" stroke="black" stroke-width="2"/>
<path d="M150.999 396.122C309.499 383.622 335 98.6221 410.5 98.6217C486 98.6213 532.999 416.622 634 322.122C735 227.622 703 370.622 826.999 370.622C950.998 370.622 1012.5 166.121 932.999 166.121C853.498 166.121 904.999 370.622 1019 370.622M410.5 98.6217C486 98.6213 532.999 416.622 634 322.122" stroke="#FF0000" stroke-width="15"/>
<path d="M150 373.122C300.253 369.735 315 78.6219 410 78.6219C505 78.622 539 378.27 628.5 302.196C718 226.122 709 290.122 805.5 346.122C902 402.122 1012.5 146.121 932.999 146.121C853.498 146.121 932.999 364.122 1019 350.622" stroke="black" stroke-width="3"/>
<line x1="911.668" y1="304.878" x2="921.668" y2="313.878" stroke="black" stroke-width="2"/>
<line x1="923.47" y1="295.774" x2="931.47" y2="290.774" stroke="black" stroke-width="2"/>
<line x1="929.514" y1="306.747" x2="938.514" y2="301.747" stroke="black" stroke-width="2"/>
<line x1="936.4" y1="315.822" x2="944.4" y2="309.822" stroke="black" stroke-width="2"/>
<line x1="919.573" y1="295.802" x2="929.573" y2="302.802" stroke="black" stroke-width="2"/>
<line x1="925.573" y1="285.802" x2="935.573" y2="292.802" stroke="black" stroke-width="2"/>
<path d="M151 410.122C297.5 387.122 886 430.122 1019 410.122V498.122H151V410.122Z" fill="black"/>
<path d="M416.595 56.9326C413.916 58.4701 411.198 59.7164 408.235 61.2912C410.914 59.7536 413.877 58.1788 416.595 56.9326" fill="#94989B"/>
<path d="M367.425 90.6578L369.744 88.5749C369.744 88.5749 369.461 88.6121 369.499 88.9034C368.688 89.3064 368.198 89.9635 367.425 90.6578" fill="#94989B"/>
<path d="M355.511 50.4416L363.397 44.6638L367.677 50.9167L359.791 56.6946L355.511 50.4416Z" fill="#FFDD67"/>
<path d="M331.554 47.9605C327.282 46.1514 326.83 47.0998 326.417 48.3395C326.004 49.5791 325.873 50.7815 330.146 52.5906L331.554 47.9605" fill="#FFDD67"/>
<path d="M399.226 59.465L399.374 55.7158L427.773 57.0675L427.5 61.1101L399.226 59.465Z" fill="#384044"/>
<path d="M364.999 96.3098C366.799 99.0365 366.125 102.681 363.484 104.51C360.842 106.339 357.29 105.62 355.49 102.894C353.691 100.167 363.2 93.583 364.999 96.3098" fill="#384044"/>
<path d="M401.582 69.8697C403.381 72.5965 402.708 76.241 400.066 78.0698C397.425 79.8987 393.872 79.1803 392.073 76.4535C390.273 73.7268 399.783 67.1429 401.582 69.8697" fill="#384044"/>
<path d="M381.896 47.269C381.896 47.269 378.198 49.8294 381.138 56.8511L384.079 63.8729L389.852 59.5581L381.896 47.269" fill="#384044"/>
<path d="M386.112 39.9002L379.773 44.2894L387.008 55.4878C388.448 57.6692 387.981 60.6939 385.868 62.1569L362.7 78.8334C360.587 80.2965 357.922 79.7577 356.483 77.5763L349.247 66.3779L340.021 72.9245C338.72 73.9846 338.459 76.3894 339.539 78.0255L344.348 105.841C345.428 107.477 347.809 108.053 349.394 106.956L404.389 67.1307C405.974 66.0334 406.517 63.5913 405.154 61.9924L391.12 40.7236C390.04 39.0876 387.697 38.8029 386.112 39.9002" fill="#83BF4F"/>
<path d="M415.989 56.1231C415.192 54.4498 413.056 53.5452 411.433 54.3512C409.81 55.1573 408.945 57.3453 409.779 59.3099C410.614 61.2745 412.712 61.8877 414.335 61.0817C415.958 60.2757 416.823 58.0877 415.989 56.1231Z" fill="#384044"/>
<path d="M383.757 63.6194L375.793 46.8864L374.614 20.3719L369.683 20.131L369.99 44.3896L365.557 47.9356C366.315 49.3176 365.45 51.5056 363.092 53.2973C360.978 54.7603 358.429 55.0955 357.387 53.7507L352.916 57.0054L331.271 47.9974L329.862 52.6275L352.87 63.2343L365.06 77.0411L383.757 63.6194" fill="#384044"/>
<path d="M335.398 42.1213L338.537 44.0793L364.652 27.9043L364.155 24.1175C357.807 13.0987 352.532 10.2362 340.795 17.4092C328.736 24.3282 328.767 31.1397 335.398 42.1213" fill="#FFB300"/>
<path d="M363.097 24.8491C363.457 25.3944 363.571 26.2683 363.61 26.5596C363.725 27.4335 363.235 28.0905 363.235 28.0905C363.235 28.0905 362.76 26.6713 361.68 25.0352C355.241 15.5101 357.347 20.5673 346.704 27.3001C336.062 34.0329 332.578 29.4532 337.999 40.0011L339.799 42.7279C339.799 42.7279 338.949 42.8396 338.306 42.3315C337.984 42.0775 337.341 41.5693 336.981 41.024C335.886 41.4642 334.585 42.5243 336.422 45.5424C337.54 47.4697 339.11 48.4487 341.544 47.2397C346.031 52.8728 356.589 52.0777 360.326 49.8086C364.062 47.5395 369.467 38.2355 366.565 31.505C368.678 30.0419 368.41 28.0029 367.293 26.0755C365.21 23.386 363.832 23.8635 363.097 24.8491" fill="#FFDD67"/>
<path d="M346.638 42.1254C348.046 41.9403 349.033 40.6165 348.843 39.1686C348.652 37.7207 347.357 36.6969 345.949 36.882C344.54 37.0671 343.553 38.3909 343.744 39.8388C343.934 41.2867 345.23 42.3104 346.638 42.1254Z" fill="#937237"/>
<path d="M357.562 35.3559C358.97 35.1709 359.957 33.8471 359.767 32.3992C359.577 30.9512 358.281 29.9275 356.873 30.1126C355.465 30.2977 354.478 31.6215 354.668 33.0694C354.858 34.5173 356.154 35.541 357.562 35.3559Z" fill="#937237"/>
<path d="M359.46 41.0328C358.181 44.4605 355.785 45.9608 352.271 45.5338C351.987 45.571 351.742 45.8995 352.347 46.1164C353.917 47.0954 355.976 47.4173 357.845 46.2828C359.713 45.1482 360.295 42.9974 360.348 41.2124C360.31 40.9211 359.705 40.7043 359.46 41.0328" fill="#937237"/>
<path d="M369.468 19.9159C369.601 15.4354 370.678 15.3368 372.025 15.2136C373.397 15.3673 374.499 15.5456 374.366 20.0261L369.468 19.9159Z" fill="#FFDD67"/>
<path d="M428.92 76.075C427.12 78.8193 423.442 79.3906 420.959 77.8592C418.268 76.132 417.8 72.4619 419.6 69.7176C421.198 67.1872 430.72 73.3306 428.92 76.075" fill="#384044"/>
<path d="M464.953 100.329C463.153 103.074 459.474 103.645 456.992 102.114C454.301 100.386 453.833 96.7163 455.633 93.972C457.433 91.2276 466.954 97.3711 464.953 100.329Z" fill="#384044"/>
<path d="M479.079 74.0812C479.079 74.0812 475.355 71.7842 470.111 76.9348L464.665 82.2994L470.463 86.1458L479.079 74.0812" fill="#384044"/>
<path d="M466.41 50.4421L474.483 55.624L470.285 62.164L462.005 56.7862L466.41 50.4421Z" fill="#FFDD67"/>
<path d="M460.299 26.9262C460.428 22.2048 459.402 22.0448 457.764 22.1166C456.536 22.1705 455.106 22.4382 454.976 27.1596L460.299 26.9262Z" fill="#FFDD67"/>
<path d="M487.085 75.1634L480.872 70.9251L473.263 81.9204C471.658 84.0411 469.006 84.7724 466.933 83.2231L443.535 67.6416C441.462 66.0922 440.805 63.4556 442.41 61.3349L450.02 50.3397L440.297 44.4101C438.639 43.2526 436.397 43.966 435.195 45.6589L418.299 65.2626C417.097 66.9555 417.546 69.3962 418.995 70.3578L468.065 102.856C469.723 104.014 471.965 103.3 473.167 101.608L487.58 80.4725C489.191 78.7616 488.743 76.3209 487.085 75.1634" fill="#C28FEF"/>
<path d="M476.738 68.6459L500.523 57.1464L498.807 52.3009L476.834 61.8757L472.278 58.7949C471.479 60.0602 468.815 59.972 466.54 58.6365C464.265 57.301 463.407 54.8783 464.206 53.6131L459.65 50.5323L460.298 26.9254L455.385 27.1409L453.756 53.4562L445.614 69.6006L464.456 82.1014L476.738 68.6459" fill="#89664C"/>
<path d="M499.014 52.4966C503.492 50.66 503.914 51.4616 504.551 52.8689C504.98 54.0803 505 55.3096 500.73 57.3421L499.014 52.4966Z" fill="#FFDD67"/>
<path d="M465.868 29.3466L465.517 33.0525L490.988 50.1834L494.231 47.9909C501.437 37.4233 502.165 31.6506 490.771 23.7439C479.176 16.0511 473.276 18.5652 465.868 29.3466" fill="#FFB300"/>
<path d="M492.996 47.6349C492.392 48.2765 491.989 48.7042 491.58 48.7222C490.767 49.1679 490.15 48.9899 490.15 48.9899C490.15 48.9899 491.157 47.9206 492.158 46.4415C498.142 36.3376 494.523 40.5969 483.961 33.4739C473.608 26.5468 476.188 21.3079 468.962 30.6461C467.759 32.3391 467.162 33.3904 467.162 33.3904C467.162 33.3904 466.739 32.5888 466.934 31.9652C466.927 31.5554 467.122 30.9318 467.519 30.0943C466.687 29.3106 465.445 28.5449 463.236 31.3072C462.034 33.0002 461.657 35.067 463.73 36.6163C460.352 43.1204 465.415 52.3298 468.938 54.8408C472.46 57.3517 483.132 58.524 487.96 52.9815C490.235 54.317 492.061 53.2118 493.263 51.5188C495.271 48.9704 494.023 47.7949 492.996 47.6349" fill="#FFDD67"/>
<path d="M470.959 40.1959C471.992 41.1697 473.642 41.0973 474.644 40.0343C475.645 38.9713 475.619 37.3201 474.585 36.3463C473.551 35.3725 471.901 35.4449 470.9 36.5079C469.899 37.5709 469.925 39.2221 470.959 40.1959Z" fill="#937237"/>
<path d="M481.727 47.5141C482.761 48.4879 484.411 48.4156 485.412 47.3525C486.413 46.2895 486.387 44.6383 485.353 43.6646C484.32 42.6908 482.67 42.7631 481.668 43.8261C480.667 44.8892 480.693 46.5403 481.727 47.5141Z" fill="#937237"/>
<path d="M476.866 51.0078C473.389 51.3653 470.9 49.4242 469.827 46.3957C469.82 45.986 469.21 46.2178 469.216 46.6275C469.041 48.4805 469.483 50.5114 471.342 51.4551C473.201 52.3987 475.248 52.309 476.671 51.6315C477.282 51.3996 477.275 50.9899 476.866 51.0078Z" fill="#937237"/>
<path d="M119 407L127.66 392L110.339 392L119 407ZM118.999 88L110.339 103L127.66 103L118.999 88ZM120.5 393.5L120.499 101.5L117.499 101.5L117.5 393.5L120.5 393.5Z" fill="black"/>
<path d="M8.20392 17.014C8.26537 17.014 10.4777 16.8604 14.8408 16.5531C19.2039 16.2458 21.4469 16.0615 21.5698 16C22.3073 16 22.676 16.2766 22.676 16.8296C22.676 17.5056 21.5698 22.1453 19.3576 30.7486C17.0224 39.8436 15.8548 44.4833 15.8548 44.6676C15.8548 44.7905 16.0698 44.6369 16.5 44.2067C20.2486 40.8883 24.243 39.2291 28.4833 39.2291C31.8017 39.2291 34.4749 40.0587 36.5028 41.7179C38.5308 43.3771 39.5754 45.8045 39.6369 49C39.6369 52.1341 38.4693 56.9889 36.1341 63.5643C33.7989 70.1397 32.6313 74.0727 32.6313 75.3632C32.6928 76.2235 32.8464 76.8073 33.0922 77.1146C33.338 77.4218 33.7989 77.5755 34.4749 77.5755C36.1956 77.5755 37.7933 76.6537 39.2682 74.8101C40.743 72.9665 41.9414 70.447 42.8632 67.2514C43.0475 66.5755 43.2319 66.176 43.4162 66.0531C43.6006 65.9302 44.0922 65.8688 44.8911 65.8688C46.1201 65.8688 46.7347 66.1146 46.7347 66.6062C46.7347 66.6676 46.6118 67.1285 46.366 67.9889C45.3827 71.6146 43.8157 74.595 41.6648 76.9302C39.5754 79.5727 37.0866 80.8939 34.1983 80.8939H33.7375C30.8492 80.8939 28.7598 80.0643 27.4693 78.4051C26.1788 76.7459 25.5335 74.9945 25.5335 73.1509C25.5335 72.1676 26.6397 68.5419 28.852 62.2738C31.0643 56.0056 32.2011 51.3045 32.2626 48.1704C32.2626 44.5447 30.9106 42.7319 28.2067 42.7319H27.7458C22.6453 42.7319 18.2207 45.743 14.4721 51.7654L13.8268 52.9637L10.6927 65.4079C8.72626 73.3967 7.58939 77.7598 7.28213 78.4973C6.48324 80.1565 5.13129 80.9861 3.22626 80.9861C2.36592 80.9861 1.62849 80.7095 1.01397 80.1565C0.399442 79.6034 0.0614526 79.0503 0 78.4973C0 77.6369 2.24302 68.2961 6.72905 50.4749L13.5503 23.19C13.5503 22.3911 13.3352 21.8995 12.905 21.7151C12.4749 21.5307 11.2765 21.3771 9.31006 21.2542H7.37431C7.00559 20.8855 6.82123 20.6397 6.82123 20.5168C6.82123 20.3939 6.88269 19.8101 7.00559 18.7654C7.31285 17.5978 7.7123 17.014 8.20392 17.014Z" fill="black"/>
<path d="M79.4399 47.986C79.4399 47.1871 79.8701 46.5726 80.7304 46.1424H139.448C140.37 46.6341 140.831 47.2486 140.831 47.986C140.831 48.662 140.401 49.2458 139.541 49.7374L110.228 49.8296H80.9148C79.9316 49.5223 79.4399 48.9078 79.4399 47.986ZM79.4399 65.8687C79.4399 64.9469 79.9316 64.3324 80.9148 64.0251H139.541C140.401 64.6397 140.831 65.2542 140.831 65.8687C140.831 66.6676 140.37 67.2821 139.448 67.7123H80.7304C79.8701 67.2821 79.4399 66.6676 79.4399 65.8687Z" fill="black"/>
<path d="M178.053 41.5335C178.053 41.5335 178.053 39.1676 178.053 34.4357C178.053 29.7039 179.712 25.8938 183.031 23.0056C186.349 20.1173 190.159 18.6424 194.461 18.581C198.824 18.581 202.696 19.8715 206.076 22.4525C209.456 25.0335 211.145 28.3827 211.145 32.5C211.145 34.3435 210.807 36.0642 210.132 37.662C209.456 39.2598 208.657 40.5503 207.735 41.5335C206.813 42.5167 205.861 43.3771 204.877 44.1145C203.894 44.8519 203.095 45.405 202.481 45.7737C201.866 46.1424 201.528 46.3882 201.467 46.5112L202.757 47.3408C203.618 47.9553 204.478 48.5698 205.338 49.1843C206.199 49.7989 206.69 50.1369 206.813 50.1983C211.422 53.824 213.726 58.4022 213.726 63.933C213.726 68.7877 211.944 72.9972 208.38 76.5614C204.816 80.1257 200.207 81.9385 194.553 82C189.023 82 184.475 80.433 180.911 77.2989C177.347 74.1648 175.564 70.2933 175.564 65.6843C175.564 59.0475 179.528 53.5167 187.456 49.0922L185.796 47.8938C184.506 47.095 183.676 46.4804 183.307 46.0503C179.805 43.0391 178.053 39.1676 178.053 34.4357V41.5335ZM197.964 44.391L198.517 44.0223C198.886 43.7765 199.162 43.5922 199.347 43.4693C199.531 43.3463 199.838 43.1313 200.268 42.824C200.699 42.5167 201.067 42.2095 201.375 41.9022C201.682 41.5949 202.02 41.2262 202.388 40.7961C202.757 40.3659 203.095 39.9665 203.402 39.5977C203.71 39.229 204.017 38.7374 204.324 38.1229C204.632 37.5084 204.908 36.986 205.154 36.5558C205.4 36.1257 205.553 35.5111 205.615 34.7123C205.676 33.9134 205.738 33.2374 205.799 32.6843C205.799 30.0419 204.908 27.7989 203.126 25.9553C201.344 24.1117 199.285 22.9441 196.95 22.4525C196.52 22.391 195.506 22.3603 193.908 22.3603C191.388 22.3603 189.023 23.1592 186.81 24.757C184.598 26.3547 183.461 28.3519 183.4 30.7486C183.4 32.162 183.799 33.4525 184.598 34.6201C185.397 35.7877 186.196 36.6787 186.995 37.2933C187.794 37.9078 189.33 38.891 191.604 40.243C192.034 40.5503 192.372 40.7653 192.618 40.8882L197.964 44.391ZM194.645 78.0363C198.21 78.0363 201.282 76.9916 203.863 74.9022C206.444 72.8128 207.735 70.2933 207.735 67.3436C207.735 66.2989 207.581 65.3156 207.274 64.3938C206.967 63.4721 206.598 62.7039 206.168 62.0894C205.738 61.4748 205.062 60.7989 204.14 60.0614C203.218 59.324 202.511 58.7709 202.02 58.4022C201.528 58.0335 200.637 57.4497 199.347 56.6508C198.056 55.8519 197.226 55.3296 196.858 55.0838C195.997 54.5307 195.076 53.9469 194.092 53.3324C193.109 52.7179 192.31 52.1955 191.696 51.7653L190.958 51.3045C190.59 51.3045 189.699 51.8268 188.285 52.8715C186.872 53.9162 185.397 55.6061 183.861 57.9413C182.324 60.2765 181.525 62.7961 181.464 65.5C181.464 69.1257 182.785 72.1061 185.428 74.4413C188.07 76.7765 191.143 77.9749 194.645 78.0363Z" fill="black"/>
<path d="M219.625 53.5168C219.686 53.1481 219.779 52.6565 219.902 52.0419C220.024 51.4274 220.393 50.2598 221.008 48.5391C221.622 46.8185 222.237 45.3743 222.851 44.2067C223.466 43.0391 224.449 41.9023 225.801 40.7961C227.153 39.69 228.505 39.1676 229.857 39.2291C231.209 39.2905 232.53 39.5056 233.821 39.8743C235.111 40.243 236.033 40.7961 236.586 41.5336C237.139 42.271 237.631 42.947 238.061 43.5615C238.491 44.176 238.737 44.7598 238.798 45.3129L238.983 45.9581C238.983 46.081 239.013 46.1425 239.075 46.1425L240.089 45.1285C243.776 41.1956 248.108 39.2291 253.086 39.2291C254.131 39.2291 255.083 39.2905 255.943 39.4134C256.804 39.5363 257.603 39.7514 258.34 40.0587C259.078 40.366 259.661 40.6732 260.091 40.9805C260.522 41.2877 260.983 41.6565 261.474 42.0866C261.966 42.5168 262.273 42.9162 262.396 43.2849C262.519 43.6537 262.765 44.0531 263.133 44.4833C263.502 44.9134 263.625 45.2822 263.502 45.5894C263.379 45.8967 263.471 46.1732 263.779 46.419C264.086 46.6648 264.147 46.8799 263.963 47.0643L264.7 46.1425C268.572 41.5336 273.15 39.2291 278.435 39.2291C281.754 39.2291 284.427 40.0587 286.455 41.7179C288.483 43.3771 289.527 45.8045 289.589 49C289.589 52.1341 288.421 56.9889 286.086 63.5643C283.751 70.1397 282.583 74.0727 282.583 75.3632C282.645 76.2235 282.798 76.8073 283.044 77.1146C283.29 77.4218 283.751 77.5755 284.427 77.5755C286.147 77.5755 287.745 76.6537 289.22 74.8101C290.695 72.9665 291.893 70.447 292.815 67.2514C292.999 66.5755 293.184 66.176 293.368 66.0531C293.552 65.9302 294.044 65.8688 294.843 65.8688C296.072 65.8688 296.686 66.1146 296.686 66.6062C296.686 66.6676 296.564 67.1285 296.318 67.9889C295.826 69.771 295.15 71.5224 294.29 73.2431C293.429 74.9637 292.016 76.6844 290.05 78.4051C288.083 80.1257 285.963 80.9554 283.689 80.8939C280.801 80.8939 278.712 80.0643 277.421 78.4051C276.131 76.7459 275.485 75.0252 275.485 73.2431C275.485 72.0755 276.592 68.3883 278.804 62.1816C281.016 55.9749 282.153 51.3045 282.214 48.1704C282.214 44.5447 280.862 42.7319 278.159 42.7319H277.698C272.413 42.7319 267.957 45.8352 264.332 52.0419L263.686 53.1481L260.645 65.5C258.617 73.5503 257.449 77.8827 257.142 78.4973C256.343 80.1565 255.022 80.9861 253.178 80.9861C252.379 80.9861 251.734 80.771 251.242 80.3408C250.751 79.9107 250.413 79.5419 250.228 79.2347C250.044 78.9274 249.952 78.6202 249.952 78.3129C249.952 77.6369 250.997 73.2431 253.086 65.1313L256.404 51.6732C256.589 50.7514 256.681 49.5838 256.681 48.1704C256.681 44.5447 255.329 42.7319 252.625 42.7319H252.164C246.879 42.7319 242.424 45.8352 238.798 52.0419L238.153 53.1481L235.111 65.5C233.083 73.5503 231.916 77.8827 231.608 78.4973C230.809 80.1565 229.488 80.9861 227.645 80.9861C226.846 80.9861 226.2 80.8017 225.709 80.433C225.217 80.0643 224.879 79.6956 224.695 79.3269C224.51 78.9582 224.449 78.6509 224.51 78.4051C224.51 77.6062 225.678 72.5671 228.013 63.2878C230.41 53.8241 231.608 48.8771 231.608 48.447C231.793 47.5252 231.885 46.6956 231.885 45.9581C231.885 43.7458 231.117 42.6397 229.58 42.6397C228.228 42.6397 227.091 43.5 226.17 45.2207C225.248 46.9414 224.541 48.8157 224.05 50.8436C223.558 52.8715 223.189 53.9777 222.943 54.162C222.821 54.285 222.329 54.3464 221.469 54.3464H220.178C219.809 53.9777 219.625 53.7012 219.625 53.5168Z" fill="black"/>
<path d="M524 60.3871C524.065 60 524.161 59.4839 524.29 58.8387C524.419 58.1936 524.806 56.9678 525.452 55.1613C526.097 53.3548 526.742 51.8387 527.387 50.6129C528.032 49.3871 529.065 48.1936 530.484 47.0323C531.903 45.871 533.323 45.3226 534.742 45.3871C536.161 45.4516 537.548 45.6774 538.903 46.0645C540.258 46.4516 541.226 47.0323 541.806 47.8065C542.387 48.5807 542.903 49.2903 543.355 49.9355C543.806 50.5807 544.065 51.1936 544.129 51.7742L544.323 52.4516C544.323 52.5807 544.355 52.6452 544.419 52.6452L545.484 51.5807C549.355 47.4516 553.903 45.3871 559.129 45.3871C560.226 45.3871 561.226 45.4516 562.129 45.5807C563.032 45.7097 563.871 45.9355 564.645 46.2581C565.419 46.5807 566.032 46.9032 566.484 47.2258C566.936 47.5484 567.419 47.9355 567.936 48.3871C568.452 48.8387 568.774 49.2581 568.903 49.6452C569.032 50.0323 569.29 50.4516 569.677 50.9032C570.065 51.3548 570.194 51.7419 570.065 52.0645C569.936 52.3871 570.032 52.6774 570.355 52.9355C570.677 53.1936 570.742 53.4194 570.548 53.6129L571.323 52.6452C575.387 47.8065 580.194 45.3871 585.742 45.3871C589.226 45.3871 592.032 46.2581 594.161 48C596.29 49.7419 597.387 52.2903 597.452 55.6452C597.452 58.9355 596.226 64.0323 593.774 70.9355C591.323 77.8387 590.097 81.9678 590.097 83.3226C590.161 84.2258 590.323 84.8387 590.581 85.1613C590.839 85.4839 591.323 85.6452 592.032 85.6452C593.839 85.6452 595.516 84.6774 597.065 82.742C598.613 80.8065 599.871 78.1613 600.839 74.8065C601.032 74.0968 601.226 73.6774 601.419 73.5484C601.613 73.4194 602.129 73.3549 602.968 73.3549C604.258 73.3549 604.903 73.6129 604.903 74.1291C604.903 74.1936 604.774 74.6774 604.516 75.5807C604 77.4516 603.29 79.2903 602.387 81.0968C601.484 82.9032 600 84.7097 597.936 86.5162C595.871 88.3226 593.645 89.1936 591.258 89.1291C588.226 89.1291 586.032 88.2581 584.677 86.5162C583.323 84.7742 582.645 82.9678 582.645 81.0968C582.645 79.871 583.806 76 586.129 69.4839C588.452 62.9678 589.645 58.0645 589.71 54.7742C589.71 50.9678 588.29 49.0645 585.452 49.0645H584.968C579.419 49.0645 574.742 52.3226 570.936 58.8387L570.258 60L567.065 72.9678C564.936 81.4194 563.71 85.9678 563.387 86.6129C562.548 88.3549 561.161 89.2258 559.226 89.2258C558.387 89.2258 557.71 89 557.194 88.5484C556.677 88.0968 556.323 87.7097 556.129 87.3871C555.935 87.0645 555.839 86.742 555.839 86.4194C555.839 85.7097 556.935 81.0968 559.129 72.5807L562.613 58.4516C562.806 57.4839 562.903 56.2581 562.903 54.7742C562.903 50.9678 561.484 49.0645 558.645 49.0645H558.161C552.613 49.0645 547.935 52.3226 544.129 58.8387L543.452 60L540.258 72.9678C538.129 81.4194 536.903 85.9678 536.581 86.6129C535.742 88.3549 534.355 89.2258 532.419 89.2258C531.581 89.2258 530.903 89.0323 530.387 88.6452C529.871 88.2581 529.516 87.871 529.323 87.4839C529.129 87.0968 529.065 86.7742 529.129 86.5162C529.129 85.6774 530.355 80.3871 532.806 70.6452C535.323 60.7097 536.581 55.5161 536.581 55.0645C536.774 54.0968 536.871 53.2258 536.871 52.4516C536.871 50.129 536.065 48.9678 534.452 48.9678C533.032 48.9678 531.839 49.871 530.871 51.6774C529.903 53.4839 529.161 55.4516 528.645 57.5807C528.129 59.7097 527.742 60.871 527.484 61.0645C527.355 61.1936 526.839 61.2581 525.935 61.2581H524.581C524.194 60.871 524 60.5807 524 60.3871Z" fill="black"/>
<path d="M639.239 54.5805C639.239 53.7418 639.69 53.0966 640.594 52.645H702.239C703.207 53.1611 703.69 53.8063 703.69 54.5805C703.69 55.2902 703.239 55.9031 702.336 56.4192L671.561 56.516H640.787C639.755 56.1934 639.239 55.5482 639.239 54.5805ZM639.239 73.3547C639.239 72.3869 639.755 71.7418 640.787 71.4192H702.336C703.239 72.0644 703.69 72.7095 703.69 73.3547C703.69 74.1934 703.207 74.8385 702.239 75.2902H640.594C639.69 74.8385 639.239 74.1934 639.239 73.3547Z" fill="black"/>
<path d="M741.316 43.8387C741.381 43.7096 741.929 40.1935 742.962 33.2903L744.51 22.9354C744.51 22.8064 745.155 22.7419 746.445 22.7419H748.381V23.129C748.381 23.7741 748.865 24.3225 749.833 24.7741C750.8 25.2257 752.478 25.5161 754.865 25.6451C757.252 25.7741 762.704 25.8386 771.22 25.8386H782.929V29.6128L776.349 38.6128C775.768 39.387 774.8 40.6774 773.445 42.4838C772.091 44.2903 771.22 45.4838 770.833 46.0645C770.445 46.6451 769.768 47.6774 768.8 49.1612C767.833 50.6451 767.187 51.8064 766.865 52.6451C766.542 53.4838 766.091 54.6774 765.51 56.2258C764.929 57.7741 764.51 59.258 764.252 60.6774C763.994 62.0967 763.736 63.8387 763.478 65.9032C763.22 67.9677 763.026 70.1612 762.897 72.4838C762.768 74.8064 762.671 77.4516 762.607 80.4193C762.607 81.3225 762.607 82.2258 762.607 83.129C762.607 84.0322 762.574 84.8064 762.51 85.4516V86.3225C762.252 87.4193 761.639 88.3548 760.671 89.129C759.704 89.9032 758.607 90.2903 757.381 90.2903C756.671 90.2903 755.994 90.1935 755.349 90C754.704 89.8064 754.026 89.1935 753.316 88.1613C752.607 87.129 752.252 85.8387 752.252 84.2903C752.252 74.0967 755.381 63.5161 761.639 52.5483C762.929 50.4838 765.639 46.5806 769.768 40.8387L774.22 34.7419H765.22C753.994 34.7419 748.091 34.9354 747.51 35.3225C747.123 35.5161 746.768 36.2903 746.445 37.6451C746.123 38.9999 745.8 40.387 745.478 41.8064L745.187 43.8387V44.129H741.316V43.8387Z" fill="black"/>
<path d="M796.672 43.3548C794.93 43.3548 793.575 42.8064 792.607 41.7096C791.639 40.6129 791.123 39.1935 791.059 37.4516C791.059 33.9032 792.607 30.7419 795.704 27.9677C798.801 25.1935 802.543 23.8064 806.93 23.8064C809.188 23.8064 810.607 23.8387 811.188 23.9032C815.962 24.6774 819.607 26.387 822.123 29.0322C824.639 31.6774 825.93 34.5483 825.994 37.6451C825.994 41 824.897 44.258 822.704 47.4193C820.51 50.5806 817.478 52.8709 813.607 54.2903L813.317 54.4838C813.317 54.5483 813.607 54.6451 814.188 54.7741C814.768 54.9032 815.704 55.1935 816.994 55.6451C818.285 56.0967 819.51 56.7741 820.672 57.6774C825.962 61.0967 828.607 65.6129 828.607 71.2258C828.607 76.3225 826.607 80.7742 822.607 84.5806C818.607 88.3871 813.543 90.2903 807.414 90.2903C802.252 90.2903 797.801 88.9032 794.059 86.129C790.317 83.3548 788.446 79.8387 788.446 75.5806C788.446 73.7742 789.026 72.3225 790.188 71.2258C791.349 70.129 792.801 69.5483 794.543 69.4838C796.349 69.4838 797.833 70.0645 798.994 71.2258C800.155 72.3871 800.736 73.8387 800.736 75.5806C800.736 76.2903 800.639 76.9354 800.446 77.5161C800.252 78.0967 800.026 78.6129 799.768 79.0645C799.51 79.5161 799.155 79.9032 798.704 80.2258C798.252 80.5483 797.865 80.8064 797.543 81C797.22 81.1935 796.897 81.3225 796.575 81.3871C796.252 81.4516 795.994 81.5483 795.801 81.6774L795.414 81.7742C798.704 84.6774 802.704 86.129 807.414 86.129C810.962 86.129 813.639 84.4193 815.446 81C816.543 78.8709 817.091 75.6129 817.091 71.2258V69.2903C817.091 63.1612 815.026 59.0645 810.897 57C809.93 56.6129 807.962 56.3871 804.994 56.3225L800.93 56.2258L800.639 56.0322C800.51 55.8387 800.446 55.3225 800.446 54.4838C800.446 53.3225 800.704 52.7419 801.22 52.7419C803.026 52.7419 804.897 52.5806 806.833 52.258C809.026 51.9354 811.026 50.5806 812.833 48.1935C814.639 45.8064 815.543 42.1935 815.543 37.3548V36.5806C815.543 32.9032 814.414 30.3548 812.155 28.9354C810.736 28.0322 809.22 27.5806 807.607 27.5806C805.543 27.5806 803.639 27.9354 801.897 28.6451C800.155 29.3548 798.93 30.0967 798.22 30.8709C797.51 31.6451 797.155 32.0322 797.155 32.0322H797.446C797.639 32.0967 797.897 32.1612 798.22 32.2258C798.543 32.2903 798.865 32.4516 799.188 32.7096C799.51 32.9677 799.897 33.1935 800.349 33.387C800.801 33.5806 801.123 33.9354 801.317 34.4516C801.51 34.9677 801.768 35.4516 802.091 35.9032C802.414 36.3548 802.51 36.9999 802.381 37.8387C802.381 39.258 801.93 40.5161 801.026 41.6129C800.123 42.7096 798.672 43.2903 796.672 43.3548Z" fill="black"/>
<path d="M838.091 43.8387C838.155 43.7096 838.704 40.1935 839.736 33.2903L841.284 22.9354C841.284 22.8064 841.93 22.7419 843.22 22.7419H845.155V23.129C845.155 23.7741 845.639 24.3225 846.607 24.7741C847.575 25.2257 849.252 25.5161 851.639 25.6451C854.026 25.7741 859.478 25.8386 867.994 25.8386H879.704V29.6128L873.123 38.6128C872.542 39.387 871.575 40.6774 870.22 42.4838C868.865 44.2903 867.994 45.4838 867.607 46.0645C867.22 46.6451 866.542 47.6774 865.575 49.1612C864.607 50.6451 863.962 51.8064 863.639 52.6451C863.317 53.4838 862.865 54.6774 862.284 56.2258C861.704 57.7741 861.284 59.258 861.026 60.6774C860.768 62.0967 860.51 63.8387 860.252 65.9032C859.994 67.9677 859.801 70.1612 859.671 72.4838C859.542 74.8064 859.446 77.4516 859.381 80.4193C859.381 81.3225 859.381 82.2258 859.381 83.129C859.381 84.0322 859.349 84.8064 859.284 85.4516V86.3225C859.026 87.4193 858.413 88.3548 857.446 89.129C856.478 89.9032 855.381 90.2903 854.155 90.2903C853.446 90.2903 852.768 90.1935 852.123 90C851.478 89.8064 850.801 89.1935 850.091 88.1613C849.381 87.129 849.026 85.8387 849.026 84.2903C849.026 74.0967 852.155 63.5161 858.413 52.5483C859.704 50.4838 862.413 46.5806 866.542 40.8387L870.994 34.7419H861.994C850.768 34.7419 844.865 34.9354 844.284 35.3225C843.897 35.5161 843.542 36.2903 843.22 37.6451C842.897 38.9999 842.575 40.387 842.252 41.8064L841.962 43.8387V44.129H838.091V43.8387Z" fill="black"/>
<path d="M892.864 25.5484C892.864 24.9032 892.993 24.1613 893.251 23.3226C893.509 22.4839 893.897 22.0645 894.413 22.0645C894.477 22.0645 896.8 21.9032 901.38 21.5806C905.961 21.2581 908.316 21.0645 908.445 21C909.219 21 909.606 21.2581 909.606 21.7742C909.606 22.2258 907.993 28.9677 904.768 42C901.542 54.7742 899.929 61.3871 899.929 61.8387C901.155 61.1936 902.09 60.5807 902.735 60C904.284 58.8387 906.509 56.8065 909.413 53.9032C912.316 51 914.574 49.0323 916.187 48C918.768 46.2581 921.219 45.3871 923.542 45.3871C925.477 45.3871 926.993 46 928.09 47.2258C929.187 48.4516 929.768 50.1936 929.832 52.4516C929.832 54.0645 929.606 55.4194 929.155 56.5161C928.703 57.6129 928.09 58.4194 927.316 58.9355C926.542 59.4516 925.864 59.8065 925.284 60C924.703 60.1936 924.122 60.2903 923.542 60.2903C922.251 60.2903 921.219 59.9355 920.445 59.2258C919.671 58.5161 919.284 57.5807 919.284 56.4194C919.284 54.8065 919.8 53.4839 920.832 52.4516C921.864 51.4194 922.897 50.7419 923.929 50.4194L925.477 50.129C924.703 49.3548 923.929 48.9678 923.155 48.9678H922.768C920.703 49.1613 918.671 49.9678 916.671 51.3871C914.671 52.8065 912.316 54.871 909.606 57.5807C906.897 60.2903 904.768 62.2581 903.219 63.4839C903.348 63.5484 903.832 63.6452 904.671 63.7742C905.509 63.9032 906.284 64.0968 906.993 64.3549C907.703 64.6129 908.542 64.871 909.509 65.129C910.477 65.3871 911.348 65.8387 912.122 66.4839C912.897 67.129 913.606 67.7097 914.251 68.2258C914.897 68.742 915.445 69.5807 915.897 70.742C916.348 71.9032 916.542 72.9678 916.477 73.9355C916.477 75.0323 916.316 76.3549 915.993 77.9032C915.671 79.4516 915.477 80.742 915.413 81.7742C915.413 84.3549 916.284 85.6452 918.026 85.6452C921.122 85.6452 923.639 81.8065 925.574 74.1291C925.703 73.6129 926.348 73.3549 927.51 73.3549H927.897C928.929 73.3549 929.445 73.6452 929.445 74.2258C929.445 74.5484 929.348 75 929.155 75.5807C926.509 84.6774 922.703 89.2258 917.735 89.2258C914.832 89.2258 912.477 88.3871 910.671 86.7097C908.864 85.0323 907.961 82.6129 907.961 79.4516C907.961 78.2903 908.058 77.2903 908.251 76.4516C908.445 75.6129 908.542 74.8387 908.542 74.1291C908.542 72.7097 908.09 71.4839 907.187 70.4516C906.284 69.4194 905.155 68.6774 903.8 68.2258C902.445 67.7742 901.348 67.4194 900.509 67.1613C899.671 66.9032 899.09 66.8065 898.768 66.871H898.574C897.8 69.5807 897.122 72.1936 896.542 74.7097C895.961 77.2258 895.509 79.0968 895.187 80.3226C894.864 81.5484 894.574 82.742 894.316 83.9032C894.058 85.0645 893.832 85.8387 893.639 86.2258C893.445 86.6129 893.219 87.0323 892.961 87.4839C892.703 87.9355 892.348 88.2258 891.897 88.3549C891.058 88.9355 890.155 89.2258 889.187 89.2258C888.09 89.2258 887.251 88.9032 886.671 88.2581C886.09 87.6129 885.8 87.0645 885.8 86.6129C885.8 85.9678 886.993 80.8065 889.38 71.129C891.768 61.4516 894.122 51.9355 896.445 42.5807L900.026 28.5484C900.09 27.7097 899.864 27.1935 899.348 27C898.832 26.8065 897.574 26.6452 895.574 26.5161H895.09C894.445 26.5161 894.026 26.5161 893.832 26.5161C893.639 26.5161 893.413 26.4194 893.155 26.2258C892.897 26.0323 892.8 25.8065 892.864 25.5484Z" fill="black"/>
<path d="M961.671 84C960.703 84.8387 959.284 85.7419 957.413 86.7097C955.542 87.6774 953.574 88.1613 951.51 88.1613C947.445 88.1613 944.187 86.7097 941.736 83.8064C939.284 80.9032 938.026 77.1935 937.961 72.6774C937.961 65.9032 940.445 59.6774 945.413 54C950.381 48.3226 955.897 45.4516 961.961 45.3871C964.994 45.3871 967.8 46.9355 970.381 50.0322L970.671 49.6451C970.8 49.4516 970.961 49.258 971.155 49.0645C971.348 48.8709 971.639 48.6129 972.026 48.2903C972.413 47.9677 972.832 47.7419 973.284 47.6129C973.736 47.4838 974.252 47.3871 974.832 47.3226C975.736 47.3226 976.477 47.6129 977.058 48.1935C977.639 48.7742 977.961 49.3871 978.026 50.0322C978.026 51 976.187 58.8064 972.51 73.4516C968.832 88.0968 966.897 95.5806 966.703 95.9032C965.542 99.3871 963.058 102.258 959.252 104.516C955.445 106.774 951.09 107.935 946.187 108C937.09 108 932.542 105.806 932.542 101.419C932.542 99.7419 933.123 98.2581 934.284 96.9677C935.445 95.6774 936.929 95.0323 938.736 95.0323C939.703 95.0323 940.607 95.3226 941.445 95.9032C942.284 96.4839 942.736 97.4839 942.8 98.9032C942.8 99.5484 942.736 100.161 942.607 100.742C942.477 101.323 942.252 101.774 941.929 102.097C941.607 102.419 941.348 102.742 941.155 103.065C940.961 103.387 940.736 103.645 940.477 103.839L940.284 104.032H940.381C941.026 104.226 942.961 104.323 946.187 104.323C948.639 104.323 950.574 103.935 951.994 103.161C953.477 102.452 954.865 101.387 956.155 99.9677C957.445 98.5484 958.348 97.0323 958.865 95.4193C959.252 94.1935 959.768 92.1935 960.413 89.4193C961.252 86.3226 961.671 84.5161 961.671 84ZM968.736 56.4193L968.348 55.3548C968.155 54.6451 967.994 54.1613 967.865 53.9032C967.736 53.6451 967.542 53.1935 967.284 52.5484C967.026 51.9032 966.703 51.4516 966.316 51.1935C965.929 50.9355 965.51 50.5806 965.058 50.129C964.607 49.6774 964.026 49.3871 963.316 49.258C962.607 49.129 961.897 49.0322 961.187 48.9677C958.348 48.9677 955.607 50.6774 952.961 54.0968C951.026 56.6129 949.413 60.4516 948.123 65.6129C946.832 70.7742 946.187 74.5161 946.187 76.8387C946.187 81.9355 948.187 84.4839 952.187 84.4839C955.8 84.4839 959.348 82.2258 962.832 77.7097L963.607 76.7419L968.736 56.4193Z" fill="black"/>
</svg>
