<svg width="317" height="199" viewBox="0 0 317 199" fill="none" xmlns="http://www.w3.org/2000/svg">
<path d="M114.517 31.6627H103.346V48.3033H114.517V31.6627Z" fill="#FFBCAB"/>
<path d="M114.517 31.6627H103.346V40.8808H114.517V31.6627Z" fill="#FF9478"/>
<path d="M120.711 48.3029L141.243 71.0425L161.114 57.8397L162.217 59.6377C164.793 63.8389 163.581 69.3257 159.475 72.0511L145.409 81.3862C142.169 83.5068 137.872 82.9813 135.238 80.1432L119.318 62.6274L120.711 48.3029Z" fill="#FFBCAB"/>
<path d="M94.5069 162.089L106.127 109.328L87.3639 116.311L81.6644 150.674C81.5719 151.232 81.0888 151.642 80.5225 151.642H49.3997L45.918 163.088L89.8432 165.621C92.054 165.748 94.0304 164.251 94.5069 162.089Z" fill="#FFBCAB"/>
<path d="M35.4316 179.413V151.612H49.8451L42.9804 175.915C42.2338 178.47 39.8916 179.413 37.23 179.413H35.4316Z" fill="#9CE0B8"/>
<path d="M123.164 4.84284C121.369 1.94297 118.159 0 114.516 0H104.769C99.1783 0 94.604 4.57388 94.604 10.1645V18.395C111.607 17.7732 120.02 9.13105 123.164 4.84284Z" fill="#781900"/>
<path d="M94.604 18.3946V26.706C94.604 32.2962 99.1779 36.8705 104.769 36.8705H114.516C120.107 36.8705 124.681 32.2966 124.681 26.706V10.1645C124.681 8.21729 124.124 6.39364 123.165 4.84323C120.02 9.13105 111.607 17.7732 94.604 18.3946Z" fill="#FFBCAB"/>
<path d="M145.179 199H117.378V184.587L141.058 191.506C143.5 192.22 145.179 194.46 145.179 197.004V199Z" fill="#9CE0B8"/>
<path d="M128.013 187.952L117.378 184.587V145.648L118.323 147.19L96.106 109.254L115.56 103.46L130.944 140.179C131.213 140.821 131.328 141.518 131.278 142.212L128.013 187.952Z" fill="#FFBCAB"/>
<path d="M123.833 123.204L115.561 103.459L121.64 51.8421C121.929 48.952 119.801 46.3514 116.91 46.0626L100.11 44.3839L93.617 55.5598L90.707 80.3239L89.2876 93.3977C83.0471 99.6382 82.4092 109.354 87.3648 116.311L87.3636 116.311L84.3514 134.47C88.7069 134.493 95.9809 134.526 100.58 134.516L103.4 121.709L110.185 133.294L123.833 123.204Z" fill="#52A2E7"/>
<path d="M92.4496 65.4934C92.4655 65.3578 91.0127 77.7206 91.0127 77.7206L118.102 81.8833L119.603 69.136L92.4496 65.4934Z" fill="#315591"/>
<g opacity="0.46">
<path d="M117.389 195.943V199H145.19V197.004C145.19 196.643 145.153 196.289 145.088 195.943H117.389Z" fill="#24763D"/>
</g>
<g opacity="0.46">
<path d="M38.4881 151.612H35.4316V179.413H37.4275C37.7885 179.413 38.143 179.376 38.4881 179.311V151.612Z" fill="#24763D"/>
</g>
<path d="M99.4773 55.3697L74.3575 56.1809L71.6033 79.8797L69.5376 79.5633C64.6555 78.8155 61.2418 74.3368 61.8147 69.431L63.7697 52.682C64.2435 48.8389 67.4197 45.8974 71.2874 45.719L99.0303 44.3645C102.105 44.2144 104.705 46.6133 104.803 49.69C104.9 52.7291 102.516 55.2714 99.4773 55.3697Z" fill="#FFBCAB"/>
<path d="M99.5513 115.137L100.865 133.218L103.405 121.687L99.5513 115.137Z" fill="#315591"/>
<path d="M313 126L288 111.566L288 140.434L313 126ZM156 128.5L290.5 128.5L290.5 123.5L156 123.5L156 128.5Z" fill="black"/>
<path d="M166.776 90.06C166.776 89.4267 166.535 89.11 166.054 89.11C165.446 89.11 164.813 89.4773 164.154 90.212C163.495 90.9467 162.951 92.074 162.52 93.594C162.495 93.6193 162.469 93.6573 162.444 93.708C162.419 93.7587 162.406 93.7967 162.406 93.822C162.406 93.8473 162.381 93.8727 162.33 93.898C162.279 93.9233 162.241 93.936 162.216 93.936C162.191 93.936 162.14 93.936 162.064 93.936C161.988 93.936 161.887 93.936 161.76 93.936H161.228C161.076 93.784 161 93.67 161 93.594C161 93.4167 161.101 93.0493 161.304 92.492C161.507 91.9347 161.811 91.276 162.216 90.516C162.621 89.756 163.179 89.11 163.888 88.578C164.597 88.046 165.395 87.7673 166.282 87.742C167.346 87.742 168.169 88.046 168.752 88.654C169.335 89.262 169.639 89.9713 169.664 90.782C169.664 91.2127 169.626 91.542 169.55 91.77C169.55 91.922 169.36 92.4793 168.98 93.442C168.6 94.4047 168.207 95.532 167.802 96.824C167.397 98.116 167.169 99.2433 167.118 100.206C167.118 100.89 167.181 101.447 167.308 101.878C167.637 102.967 168.435 103.512 169.702 103.512C170.639 103.512 171.513 103.081 172.324 102.22C173.135 101.359 173.768 100.358 174.224 99.218C174.68 98.078 175.047 97.0267 175.326 96.064C175.605 95.1013 175.744 94.4047 175.744 93.974C175.744 93.3913 175.643 92.8847 175.44 92.454C175.237 92.0233 175.009 91.694 174.756 91.466C174.503 91.238 174.275 91.01 174.072 90.782C173.869 90.554 173.768 90.2753 173.768 89.946C173.768 89.3887 174.009 88.8693 174.49 88.388C174.971 87.9067 175.491 87.666 176.048 87.666C176.529 87.666 176.96 87.894 177.34 88.35C177.72 88.806 177.923 89.5407 177.948 90.554C177.948 91.238 177.796 92.2893 177.492 93.708C177.188 95.1267 176.719 96.71 176.086 98.458C175.453 100.206 174.553 101.713 173.388 102.98C172.223 104.247 170.88 104.893 169.36 104.918C167.739 104.918 166.447 104.5 165.484 103.664C164.547 102.853 164.078 101.65 164.078 100.054C164.078 99.2687 164.179 98.458 164.382 97.622C164.585 96.786 165.104 95.304 165.94 93.176C166.497 91.5547 166.776 90.516 166.776 90.06Z" fill="black"/>
<path d="M191.316 91.314C191.316 90.9847 191.494 90.7313 191.848 90.554H216.054C216.434 90.7567 216.624 91.01 216.624 91.314C216.624 91.5927 216.447 91.8333 216.092 92.036L204.008 92.074H191.924C191.519 91.9473 191.316 91.694 191.316 91.314ZM191.316 98.686C191.316 98.306 191.519 98.0527 191.924 97.926H216.092C216.447 98.1793 216.624 98.4327 216.624 98.686C216.624 99.0153 216.434 99.2687 216.054 99.446H191.848C191.494 99.2687 191.316 99.0153 191.316 98.686Z" fill="black"/>
<path d="M230.905 92.606C230.905 88.4767 231.931 85.2087 233.983 82.802C236.035 80.3953 238.315 79.192 240.823 79.192C242.571 79.192 243.825 79.648 244.585 80.56C245.345 81.472 245.725 82.4853 245.725 83.6C245.725 84.2333 245.547 84.74 245.193 85.12C244.838 85.5 244.344 85.69 243.711 85.69C243.128 85.69 242.647 85.5127 242.267 85.158C241.887 84.8033 241.697 84.3093 241.697 83.676C241.697 82.5613 242.292 81.89 243.483 81.662C242.925 81.1047 242.14 80.788 241.127 80.712C239.328 80.712 237.846 81.472 236.681 82.992C235.49 84.664 234.895 87.2227 234.895 90.668L234.933 90.82C235.059 90.668 235.161 90.5033 235.237 90.326C236.275 88.806 237.631 88.046 239.303 88.046H239.455C240.62 88.046 241.646 88.2867 242.533 88.768C243.141 89.1227 243.749 89.6293 244.357 90.288C244.965 90.9467 245.459 91.6687 245.839 92.454C246.371 93.6953 246.637 95.0507 246.637 96.52V97.204C246.637 97.7867 246.573 98.3313 246.447 98.838C246.168 100.333 245.357 101.789 244.015 103.208C242.672 104.627 240.975 105.336 238.923 105.336C238.213 105.336 237.529 105.235 236.871 105.032C236.212 104.829 235.503 104.449 234.743 103.892C233.983 103.335 233.337 102.587 232.805 101.65C232.273 100.713 231.817 99.484 231.437 97.964C231.057 96.444 230.879 94.658 230.905 92.606ZM239.075 89.414C238.315 89.414 237.656 89.6293 237.099 90.06C236.541 90.4907 236.111 91.0607 235.807 91.77C235.503 92.4793 235.287 93.2013 235.161 93.936C235.034 94.6707 234.958 95.456 234.933 96.292C234.933 98.3947 235.085 99.902 235.389 100.814C235.693 101.726 236.174 102.461 236.833 103.018C237.441 103.474 238.112 103.702 238.847 103.702C240.139 103.702 241.127 103.221 241.811 102.258C242.14 101.802 242.368 101.232 242.495 100.548C242.621 99.864 242.685 98.534 242.685 96.558C242.685 94.5313 242.621 93.176 242.495 92.492C242.368 91.808 242.14 91.238 241.811 90.782C241.127 89.87 240.215 89.414 239.075 89.414Z" fill="black"/>
<path d="M249.107 93.594C249.132 93.442 249.17 93.2393 249.221 92.986C249.272 92.7327 249.424 92.2513 249.677 91.542C249.93 90.8327 250.184 90.2373 250.437 89.756C250.69 89.2747 251.096 88.806 251.653 88.35C252.21 87.894 252.768 87.6787 253.325 87.704C253.882 87.7293 254.427 87.818 254.959 87.97C255.491 88.122 255.871 88.35 256.099 88.654C256.327 88.958 256.53 89.2367 256.707 89.49C256.884 89.7433 256.986 89.984 257.011 90.212L257.087 90.478C257.087 90.5287 257.1 90.554 257.125 90.554L257.543 90.136C259.063 88.5147 260.849 87.704 262.901 87.704C263.332 87.704 263.724 87.7293 264.079 87.78C264.434 87.8307 264.763 87.9193 265.067 88.046C265.371 88.1727 265.612 88.2993 265.789 88.426C265.966 88.5527 266.156 88.7047 266.359 88.882C266.562 89.0593 266.688 89.224 266.739 89.376C266.79 89.528 266.891 89.6927 267.043 89.87C267.195 90.0473 267.246 90.1993 267.195 90.326C267.144 90.4527 267.182 90.5667 267.309 90.668C267.436 90.7693 267.461 90.858 267.385 90.934L267.689 90.554C269.285 88.654 271.172 87.704 273.351 87.704C274.719 87.704 275.821 88.046 276.657 88.73C277.493 89.414 277.924 90.4147 277.949 91.732C277.949 93.024 277.468 95.0253 276.505 97.736C275.542 100.447 275.061 102.068 275.061 102.6C275.086 102.955 275.15 103.195 275.251 103.322C275.352 103.449 275.542 103.512 275.821 103.512C276.53 103.512 277.189 103.132 277.797 102.372C278.405 101.612 278.899 100.573 279.279 99.256C279.355 98.9773 279.431 98.8127 279.507 98.762C279.583 98.7113 279.786 98.686 280.115 98.686C280.622 98.686 280.875 98.7873 280.875 98.99C280.875 99.0153 280.824 99.2053 280.723 99.56C280.52 100.295 280.242 101.017 279.887 101.726C279.532 102.435 278.95 103.145 278.139 103.854C277.328 104.563 276.454 104.905 275.517 104.88C274.326 104.88 273.465 104.538 272.933 103.854C272.401 103.17 272.135 102.461 272.135 101.726C272.135 101.245 272.591 99.7247 273.503 97.166C274.415 94.6073 274.884 92.682 274.909 91.39C274.909 89.8953 274.352 89.148 273.237 89.148H273.047C270.868 89.148 269.032 90.4273 267.537 92.986L267.271 93.442L266.017 98.534C265.181 101.853 264.7 103.639 264.573 103.892C264.244 104.576 263.699 104.918 262.939 104.918C262.61 104.918 262.344 104.829 262.141 104.652C261.938 104.475 261.799 104.323 261.723 104.196C261.647 104.069 261.609 103.943 261.609 103.816C261.609 103.537 262.04 101.726 262.901 98.382L264.269 92.834C264.345 92.454 264.383 91.9727 264.383 91.39C264.383 89.8953 263.826 89.148 262.711 89.148H262.521C260.342 89.148 258.506 90.4273 257.011 92.986L256.745 93.442L255.491 98.534C254.655 101.853 254.174 103.639 254.047 103.892C253.718 104.576 253.173 104.918 252.413 104.918C252.084 104.918 251.818 104.842 251.615 104.69C251.412 104.538 251.273 104.386 251.197 104.234C251.121 104.082 251.096 103.955 251.121 103.854C251.121 103.525 251.602 101.447 252.565 97.622C253.553 93.7207 254.047 91.6813 254.047 91.504C254.123 91.124 254.161 90.782 254.161 90.478C254.161 89.566 253.844 89.11 253.211 89.11C252.654 89.11 252.185 89.4647 251.805 90.174C251.425 90.8833 251.134 91.656 250.931 92.492C250.728 93.328 250.576 93.784 250.475 93.86C250.424 93.9107 250.222 93.936 249.867 93.936H249.335C249.183 93.784 249.107 93.67 249.107 93.594Z" fill="black"/>
<path d="M297.746 76C297.974 76 298.164 76.076 298.316 76.228C298.468 76.38 298.544 76.5573 298.544 76.76C298.544 76.8867 296.353 82.992 291.97 95.076C287.588 107.16 285.32 113.341 285.168 113.62C284.991 113.873 284.776 114 284.522 114C284.345 114 284.18 113.937 284.028 113.81C283.876 113.683 283.8 113.506 283.8 113.278C283.8 113.025 286.004 106.843 290.412 94.734C294.82 82.6247 297.062 76.5067 297.138 76.38C297.24 76.1267 297.442 76 297.746 76Z" fill="black"/>
<path d="M305.651 93.518C305.651 92.7073 305.854 91.884 306.259 91.048C306.665 90.212 307.374 89.4393 308.387 88.73C309.401 88.0207 310.629 87.6787 312.073 87.704C313.644 87.704 314.784 88.046 315.493 88.73C316.203 89.414 316.57 90.174 316.595 91.01C316.595 91.8207 316.38 92.416 315.949 92.796C315.519 93.176 315.037 93.3787 314.505 93.404C314.176 93.404 313.872 93.3027 313.593 93.1C313.315 92.8973 313.163 92.568 313.137 92.112C313.137 91.7067 313.252 91.352 313.479 91.048C313.707 90.744 313.923 90.516 314.125 90.364C314.328 90.212 314.493 90.136 314.619 90.136C314.645 90.136 314.657 90.1233 314.657 90.098C314.657 90.022 314.569 89.908 314.391 89.756C314.214 89.604 313.898 89.4647 313.441 89.338C312.985 89.2113 312.491 89.1353 311.959 89.11C310.743 89.11 309.857 89.4393 309.299 90.098C308.742 90.7567 308.451 91.428 308.425 92.112C308.425 92.7453 308.666 93.1887 309.147 93.442C309.629 93.6953 310.325 93.9107 311.238 94.088C312.149 94.2653 312.808 94.4553 313.214 94.658C314.885 95.3927 315.721 96.6087 315.721 98.306C315.721 99.0153 315.582 99.7247 315.303 100.434C315.025 101.143 314.607 101.853 314.049 102.562C313.492 103.271 312.694 103.829 311.655 104.234C310.617 104.639 309.426 104.855 308.083 104.88C306.133 104.88 304.752 104.513 303.941 103.778C303.131 103.043 302.713 102.182 302.688 101.194C302.688 100.206 302.954 99.4967 303.485 99.066C304.017 98.6353 304.575 98.42 305.158 98.42C305.537 98.42 305.892 98.534 306.221 98.762C306.551 98.99 306.728 99.3827 306.753 99.94C306.753 100.599 306.525 101.156 306.069 101.612C305.613 102.068 305.221 102.296 304.891 102.296C304.841 102.321 304.803 102.334 304.777 102.334C304.752 102.334 304.74 102.359 304.74 102.41C304.765 102.486 304.866 102.587 305.043 102.714C305.221 102.841 305.613 103.005 306.221 103.208C306.829 103.411 307.526 103.499 308.311 103.474C309.223 103.474 310.009 103.335 310.667 103.056C311.326 102.777 311.807 102.423 312.111 101.992C312.415 101.561 312.631 101.169 312.757 100.814C312.884 100.459 312.947 100.143 312.947 99.864C312.947 99.1547 312.681 98.6227 312.149 98.268C311.617 97.9133 311.009 97.698 310.325 97.622C309.641 97.546 308.894 97.356 308.083 97.052C307.273 96.748 306.677 96.3047 306.297 95.722C305.867 95.0887 305.651 94.354 305.651 93.518Z" fill="black"/>
<path d="M160 164.953C160.024 164.806 160.061 164.61 160.11 164.365C160.159 164.12 160.306 163.655 160.551 162.969C160.796 162.283 161.041 161.708 161.286 161.242C161.531 160.777 161.923 160.324 162.462 159.883C163 159.442 163.539 159.234 164.078 159.259C164.617 159.283 165.144 159.369 165.658 159.516C166.172 159.663 166.54 159.883 166.76 160.177C166.981 160.471 167.177 160.74 167.348 160.985C167.519 161.23 167.617 161.463 167.642 161.683L167.715 161.941C167.715 161.99 167.728 162.014 167.752 162.014L168.156 161.61C169.626 160.042 171.353 159.259 173.337 159.259C173.753 159.259 174.133 159.283 174.476 159.332C174.819 159.381 175.137 159.467 175.431 159.589C175.725 159.712 175.957 159.834 176.129 159.957C176.3 160.079 176.484 160.226 176.68 160.397C176.876 160.569 176.998 160.728 177.047 160.875C177.096 161.022 177.194 161.181 177.341 161.353C177.488 161.524 177.537 161.671 177.488 161.794C177.439 161.916 177.476 162.026 177.599 162.124C177.721 162.222 177.745 162.308 177.672 162.381L177.966 162.014C179.509 160.177 181.334 159.259 183.44 159.259C184.763 159.259 185.828 159.589 186.637 160.25C187.445 160.912 187.861 161.879 187.886 163.153C187.886 164.402 187.42 166.337 186.49 168.958C185.559 171.579 185.094 173.146 185.094 173.661C185.118 174.004 185.179 174.236 185.277 174.359C185.375 174.481 185.559 174.542 185.828 174.542C186.514 174.542 187.151 174.175 187.739 173.44C188.327 172.705 188.804 171.701 189.172 170.428C189.245 170.158 189.319 169.999 189.392 169.95C189.466 169.901 189.662 169.876 189.98 169.876C190.47 169.876 190.715 169.974 190.715 170.17C190.715 170.195 190.666 170.379 190.568 170.721C190.372 171.432 190.102 172.13 189.76 172.816C189.417 173.501 188.853 174.187 188.069 174.873C187.286 175.559 186.441 175.89 185.534 175.865C184.383 175.865 183.55 175.534 183.036 174.873C182.522 174.212 182.265 173.526 182.265 172.816C182.265 172.35 182.705 170.881 183.587 168.407C184.469 165.933 184.922 164.071 184.947 162.822C184.947 161.377 184.408 160.655 183.33 160.655H183.146C181.04 160.655 179.264 161.892 177.819 164.365L177.562 164.806L176.349 169.729C175.541 172.938 175.076 174.665 174.953 174.91C174.635 175.571 174.108 175.902 173.373 175.902C173.055 175.902 172.798 175.816 172.602 175.645C172.406 175.473 172.271 175.326 172.198 175.204C172.124 175.081 172.088 174.959 172.088 174.836C172.088 174.567 172.504 172.816 173.337 169.582L174.659 164.218C174.733 163.851 174.77 163.386 174.77 162.822C174.77 161.377 174.231 160.655 173.153 160.655H172.969C170.863 160.655 169.087 161.892 167.642 164.365L167.385 164.806L166.172 169.729C165.364 172.938 164.899 174.665 164.776 174.91C164.458 175.571 163.931 175.902 163.196 175.902C162.878 175.902 162.621 175.828 162.425 175.681C162.229 175.534 162.094 175.387 162.021 175.24C161.947 175.094 161.923 174.971 161.947 174.873C161.947 174.555 162.413 172.546 163.343 168.848C164.299 165.076 164.776 163.104 164.776 162.933C164.85 162.565 164.886 162.234 164.886 161.941C164.886 161.059 164.58 160.618 163.968 160.618C163.429 160.618 162.976 160.961 162.609 161.647C162.241 162.332 161.959 163.079 161.764 163.888C161.568 164.696 161.421 165.137 161.323 165.21C161.274 165.259 161.078 165.284 160.735 165.284H160.22C160.073 165.137 160 165.027 160 164.953Z" fill="black"/>
<path d="M203.75 162.749C203.75 162.43 203.921 162.185 204.264 162.014H227.668C228.035 162.21 228.219 162.455 228.219 162.749C228.219 163.018 228.047 163.251 227.705 163.447L216.021 163.484H204.338C203.946 163.361 203.75 163.116 203.75 162.749ZM203.75 169.876C203.75 169.509 203.946 169.264 204.338 169.142H227.705C228.047 169.387 228.219 169.631 228.219 169.876C228.219 170.195 228.035 170.44 227.668 170.611H204.264C203.921 170.44 203.75 170.195 203.75 169.876Z" fill="black"/>
<path d="M242.026 163.998C242.026 160.006 243.018 156.846 245.002 154.519C246.986 152.192 249.191 151.029 251.615 151.029C253.305 151.029 254.518 151.47 255.253 152.351C255.987 153.233 256.355 154.213 256.355 155.291C256.355 155.903 256.183 156.393 255.841 156.76C255.498 157.128 255.02 157.311 254.408 157.311C253.844 157.311 253.379 157.14 253.012 156.797C252.644 156.454 252.46 155.976 252.46 155.364C252.46 154.286 253.036 153.637 254.187 153.417C253.648 152.878 252.889 152.572 251.909 152.498C250.17 152.498 248.737 153.233 247.611 154.703C246.46 156.319 245.884 158.793 245.884 162.124L245.921 162.271C246.043 162.124 246.141 161.965 246.215 161.794C247.219 160.324 248.529 159.589 250.146 159.589H250.293C251.419 159.589 252.411 159.822 253.269 160.287C253.857 160.63 254.444 161.12 255.032 161.757C255.62 162.394 256.098 163.092 256.465 163.851C256.979 165.051 257.237 166.362 257.237 167.782V168.444C257.237 169.007 257.175 169.534 257.053 170.023C256.784 171.468 256 172.877 254.702 174.248C253.403 175.62 251.762 176.306 249.778 176.306C249.093 176.306 248.431 176.208 247.794 176.012C247.158 175.816 246.472 175.449 245.737 174.91C245.002 174.371 244.378 173.648 243.863 172.742C243.349 171.836 242.908 170.648 242.541 169.178C242.173 167.709 242.002 165.982 242.026 163.998ZM249.925 160.912C249.191 160.912 248.554 161.12 248.015 161.536C247.476 161.953 247.06 162.504 246.766 163.19C246.472 163.876 246.264 164.574 246.141 165.284C246.019 165.994 245.945 166.754 245.921 167.562C245.921 169.595 246.068 171.052 246.362 171.934C246.655 172.816 247.121 173.526 247.758 174.065C248.346 174.506 248.995 174.726 249.705 174.726C250.954 174.726 251.909 174.261 252.571 173.33C252.889 172.889 253.109 172.338 253.232 171.677C253.354 171.015 253.416 169.729 253.416 167.819C253.416 165.859 253.354 164.549 253.232 163.888C253.109 163.226 252.889 162.675 252.571 162.234C251.909 161.353 251.028 160.912 249.925 160.912Z" fill="black"/>
<path d="M275.827 175.498C275.386 175.424 273.806 175.387 271.088 175.387C268.246 175.387 266.605 175.424 266.164 175.498H265.834V173.808H266.973C267.463 173.808 267.793 173.808 267.965 173.808C268.136 173.808 268.344 173.783 268.589 173.734C268.834 173.685 269.006 173.624 269.104 173.55C269.202 173.477 269.287 173.379 269.361 173.257C269.385 173.208 269.398 172.546 269.398 171.273V169.436H259.882V167.745L265.43 159.259C269.177 153.576 271.075 150.723 271.124 150.698C271.173 150.649 271.43 150.625 271.896 150.625H272.557L272.778 150.845V167.745H276.158V169.436H272.778V171.309C272.778 172.314 272.778 172.901 272.778 173.073C272.778 173.244 272.851 173.391 272.998 173.514C273.194 173.685 273.892 173.783 275.092 173.808H276.158V175.498H275.827ZM269.618 167.745V155.474L261.572 167.709L265.577 167.745H269.618Z" fill="black"/>
<path d="M281.669 151.727C281.669 151.482 281.718 151.2 281.816 150.882C281.914 150.563 282.061 150.404 282.257 150.404C282.281 150.404 283.163 150.343 284.902 150.22C286.641 150.098 287.535 150.024 287.584 150C287.878 150 288.025 150.098 288.025 150.294C288.025 150.465 287.413 153.025 286.188 157.973C284.963 162.822 284.351 165.333 284.351 165.504C284.816 165.259 285.171 165.027 285.416 164.806C286.004 164.365 286.849 163.594 287.951 162.492C289.054 161.389 289.911 160.642 290.523 160.25C291.503 159.589 292.434 159.259 293.315 159.259C294.05 159.259 294.626 159.491 295.042 159.957C295.459 160.422 295.679 161.083 295.704 161.941C295.704 162.553 295.618 163.067 295.446 163.484C295.275 163.9 295.042 164.206 294.748 164.402C294.454 164.598 294.197 164.733 293.977 164.806C293.756 164.88 293.536 164.916 293.315 164.916C292.826 164.916 292.434 164.782 292.14 164.512C291.846 164.243 291.699 163.888 291.699 163.447C291.699 162.835 291.895 162.332 292.287 161.941C292.679 161.549 293.071 161.291 293.462 161.169L294.05 161.059C293.756 160.765 293.462 160.618 293.169 160.618H293.022C292.238 160.691 291.466 160.998 290.707 161.536C289.948 162.075 289.054 162.859 288.025 163.888C286.996 164.916 286.188 165.664 285.6 166.129C285.649 166.153 285.833 166.19 286.151 166.239C286.47 166.288 286.763 166.362 287.033 166.46C287.302 166.558 287.621 166.656 287.988 166.753C288.356 166.851 288.686 167.023 288.98 167.268C289.274 167.513 289.543 167.733 289.788 167.929C290.033 168.125 290.242 168.444 290.413 168.884C290.584 169.325 290.658 169.729 290.633 170.097C290.633 170.513 290.572 171.015 290.45 171.603C290.327 172.191 290.254 172.681 290.229 173.073C290.229 174.053 290.56 174.542 291.221 174.542C292.397 174.542 293.352 173.085 294.087 170.17C294.136 169.974 294.381 169.876 294.822 169.876H294.969C295.361 169.876 295.557 169.987 295.557 170.207C295.557 170.33 295.52 170.501 295.446 170.721C294.442 174.175 292.997 175.902 291.111 175.902C290.009 175.902 289.115 175.583 288.429 174.947C287.743 174.31 287.4 173.391 287.4 172.191C287.4 171.75 287.437 171.371 287.511 171.052C287.584 170.734 287.621 170.44 287.621 170.17C287.621 169.631 287.449 169.166 287.106 168.774C286.763 168.382 286.335 168.101 285.82 167.929C285.306 167.758 284.89 167.623 284.571 167.525C284.253 167.427 284.032 167.39 283.91 167.415H283.837C283.543 168.444 283.285 169.436 283.065 170.391C282.845 171.346 282.673 172.056 282.551 172.522C282.428 172.987 282.318 173.44 282.22 173.881C282.122 174.322 282.036 174.616 281.963 174.763C281.889 174.91 281.804 175.069 281.706 175.24C281.608 175.412 281.473 175.522 281.301 175.571C280.983 175.792 280.64 175.902 280.273 175.902C279.856 175.902 279.538 175.779 279.317 175.534C279.097 175.289 278.987 175.081 278.987 174.91C278.987 174.665 279.44 172.705 280.346 169.031C281.252 165.357 282.146 161.745 283.028 158.193L284.388 152.866C284.412 152.547 284.326 152.351 284.13 152.278C283.934 152.204 283.457 152.143 282.698 152.094H282.514C282.269 152.094 282.11 152.094 282.036 152.094C281.963 152.094 281.877 152.057 281.779 151.984C281.681 151.91 281.644 151.825 281.669 151.727Z" fill="black"/>
<path d="M307.791 173.918C307.423 174.236 306.884 174.579 306.174 174.947C305.464 175.314 304.717 175.498 303.933 175.498C302.39 175.498 301.153 174.947 300.222 173.844C299.291 172.742 298.814 171.334 298.789 169.619C298.789 167.047 299.732 164.684 301.618 162.528C303.504 160.373 305.599 159.283 307.901 159.259C309.052 159.259 310.118 159.846 311.097 161.022L311.208 160.875C311.257 160.802 311.318 160.728 311.391 160.655C311.465 160.581 311.575 160.483 311.722 160.361C311.869 160.238 312.028 160.153 312.2 160.104C312.371 160.055 312.567 160.018 312.787 159.993C313.13 159.993 313.412 160.104 313.632 160.324C313.853 160.544 313.975 160.777 314 161.022C314 161.389 313.302 164.353 311.906 169.913C310.509 175.473 309.775 178.314 309.701 178.437C309.26 179.76 308.317 180.849 306.872 181.707C305.427 182.564 303.774 183.005 301.912 183.029C298.459 183.029 296.732 182.197 296.732 180.531C296.732 179.894 296.952 179.331 297.393 178.841C297.834 178.351 298.397 178.106 299.083 178.106C299.451 178.106 299.794 178.216 300.112 178.437C300.43 178.657 300.602 179.037 300.626 179.576C300.626 179.821 300.602 180.053 300.553 180.274C300.504 180.494 300.418 180.666 300.296 180.788C300.173 180.911 300.075 181.033 300.002 181.156C299.928 181.278 299.843 181.376 299.745 181.45L299.671 181.523H299.708C299.953 181.597 300.688 181.633 301.912 181.633C302.843 181.633 303.578 181.486 304.117 181.192C304.68 180.923 305.207 180.519 305.697 179.98C306.186 179.441 306.529 178.866 306.725 178.253C306.872 177.788 307.068 177.028 307.313 175.975C307.632 174.8 307.791 174.114 307.791 173.918ZM310.473 163.447L310.326 163.043C310.252 162.773 310.191 162.59 310.142 162.492C310.093 162.394 310.02 162.222 309.922 161.977C309.824 161.732 309.701 161.561 309.554 161.463C309.407 161.365 309.248 161.23 309.077 161.059C308.905 160.887 308.685 160.777 308.415 160.728C308.146 160.679 307.876 160.642 307.607 160.618C306.529 160.618 305.488 161.267 304.484 162.565C303.749 163.52 303.137 164.978 302.647 166.937C302.157 168.897 301.912 170.317 301.912 171.199C301.912 173.134 302.672 174.102 304.19 174.102C305.562 174.102 306.909 173.244 308.232 171.53L308.526 171.162L310.473 163.447Z" fill="black"/>
</svg>
