<svg width="937" height="555" viewBox="0 0 937 555" fill="none" xmlns="http://www.w3.org/2000/svg">
<path d="M74 167L68.2265 177L79.7735 177L74 167ZM74 423L79.7735 413L68.2265 413L74 423ZM73 176L73 414L75 414L75 176L73 176Z" fill="black"/>
<path d="M6.7802 252.838C6.83099 252.838 8.65935 252.711 12.2653 252.457C15.8712 252.203 17.725 252.051 17.8266 252C18.436 252 18.7408 252.228 18.7408 252.686C18.7408 253.244 17.8266 257.079 15.9982 264.189C14.0683 271.706 13.1033 275.54 13.1033 275.693C13.1033 275.794 13.2811 275.667 13.6366 275.312C16.7346 272.569 20.0359 271.198 23.5402 271.198C26.2828 271.198 28.4921 271.883 30.1681 273.255C31.8441 274.626 32.7075 276.632 32.7583 279.273C32.7583 281.863 31.7933 285.876 29.8633 291.31C27.9334 296.744 26.9684 299.995 26.9684 301.061C27.0192 301.772 27.1462 302.255 27.3493 302.509C27.5525 302.763 27.9334 302.889 28.4921 302.889C29.9141 302.889 31.2346 302.128 32.4535 300.604C33.6724 299.08 34.6628 296.998 35.4246 294.357C35.577 293.798 35.7294 293.468 35.8817 293.367C36.0341 293.265 36.4404 293.214 37.1006 293.214C38.1164 293.214 38.6243 293.418 38.6243 293.824C38.6243 293.875 38.5227 294.256 38.3195 294.967C37.5069 297.963 36.2118 300.426 34.4343 302.356C32.7075 304.54 30.6506 305.632 28.2635 305.632H27.8826C25.4956 305.632 23.7688 304.946 22.7022 303.575C21.6357 302.204 21.1024 300.756 21.1024 299.233C21.1024 298.42 22.0166 295.424 23.845 290.243C25.6733 285.063 26.6129 281.178 26.6637 278.587C26.6637 275.591 25.5464 274.093 23.3117 274.093H22.9308C18.7154 274.093 15.0586 276.581 11.9606 281.559L11.4273 282.549L8.83711 292.833C7.2119 299.436 6.27232 303.042 6.01838 303.651C5.35813 305.023 4.2408 305.708 2.66637 305.708C1.95534 305.708 1.34588 305.48 0.838002 305.023C0.330122 304.565 0.050788 304.108 0 303.651C0 302.94 1.85376 295.221 5.56129 280.492L11.1988 257.942C11.1988 257.282 11.021 256.876 10.6655 256.723C10.31 256.571 9.3196 256.444 7.69438 256.342H6.09456C5.78983 256.038 5.63747 255.834 5.63747 255.733C5.63747 255.631 5.68826 255.149 5.78983 254.285C6.04377 253.32 6.37389 252.838 6.7802 252.838Z" fill="#008000"/>
<path d="M45.3948 284.789C47.4056 281.881 50.1525 280.426 53.6354 280.426C55.359 280.426 57.0825 280.893 58.8061 281.827C60.5296 282.76 61.93 284.412 63.0072 286.782C64.3358 289.762 65 293.856 65 299.062C65 304.628 64.228 308.883 62.684 311.827C61.9659 313.335 60.9785 314.538 59.7217 315.436C58.465 316.333 57.3698 316.89 56.4362 317.105C55.5026 317.321 54.587 317.447 53.6893 317.482C52.7557 317.482 51.8221 317.375 50.8886 317.159C49.955 316.944 48.8598 316.369 47.6031 315.436C46.3463 314.502 45.3589 313.299 44.6407 311.827C43.0967 308.883 42.3247 304.628 42.3247 299.062C42.3247 292.814 43.3481 288.057 45.3948 284.789ZM57.5134 284.143C56.4362 282.994 55.1615 282.419 53.6893 282.419C52.1812 282.419 50.8886 282.994 49.8113 284.143C48.9137 285.076 48.3212 286.369 48.0339 288.021C47.7467 289.672 47.6031 293.119 47.6031 298.362C47.6031 304.035 47.7467 307.77 48.0339 309.565C48.3212 311.36 48.9675 312.779 49.9729 313.82C50.9783 314.897 52.2171 315.436 53.6893 315.436C55.1256 315.436 56.3464 314.897 57.3518 313.82C58.3931 312.743 59.0395 311.235 59.2908 309.296C59.5422 307.357 59.6858 303.712 59.7217 298.362C59.7217 293.155 59.5781 289.726 59.2908 288.075C59.0036 286.423 58.4111 285.112 57.5134 284.143Z" fill="#008000"/>
<path d="M86 412.5V170.633L494.028 412.5H86Z" fill="#CDFFA6" stroke="#0A6B08" stroke-width="3"/>
<path d="M111 106L119.577 121.047L128.32 106.095L111 106ZM530 351L521.423 335.952L512.68 350.904L530 351ZM121.897 114.109L517.589 345.48L519.103 342.891L123.411 111.519L121.897 114.109Z" fill="#80510A"/>
<path d="M141.903 197.318C71.4036 159.113 29.9907 137.573 66.9657 106.222" stroke="black" stroke-width="3"/>
<line y1="-1.5" x2="12.1916" y2="-1.5" transform="matrix(0.474324 -0.88035 -0.88035 -0.474324 121.87 185.266)" stroke="black" stroke-width="3"/>
<line y1="-1.5" x2="13.6776" y2="-1.5" transform="matrix(0.514408 -0.857546 -0.857546 -0.514408 80.1909 161.138)" stroke="black" stroke-width="3"/>
<rect width="69.1229" height="7.66179" transform="matrix(-0.856473 -0.516191 -0.516191 0.856473 142.729 175.49)" fill="#89481A"/>
<path d="M4 85.9999L18.2494 111.105L32.8667 86.2123L4 85.9999ZM58.648 115.19L24.6682 95.2372L22.1364 99.5488L56.1162 119.502L58.648 115.19Z" fill="#FF0606"/>
<path d="M100.4 125.141C100.57 124.935 100.804 124.665 101.101 124.329C101.398 123.994 102.046 123.405 103.045 122.564C104.043 121.722 104.942 121.051 105.742 120.55C106.542 120.05 107.558 119.702 108.791 119.505C110.024 119.308 111.047 119.471 111.86 119.996C112.674 120.52 113.412 121.128 114.077 121.82C114.742 122.512 115.112 123.185 115.188 123.84C115.265 124.494 115.325 125.089 115.37 125.623C115.415 126.158 115.356 126.607 115.195 126.97L115.077 127.435C115.033 127.511 115.03 127.56 115.068 127.582L116.059 127.321C119.752 126.218 123.135 126.561 126.21 128.352C126.856 128.728 127.422 129.108 127.909 129.494C128.397 129.879 128.813 130.299 129.158 130.755C129.503 131.21 129.753 131.61 129.908 131.954C130.063 132.299 130.215 132.692 130.364 133.135C130.513 133.577 130.559 133.935 130.503 134.207C130.446 134.479 130.454 134.814 130.527 135.212C130.6 135.611 130.543 135.883 130.357 136.028C130.171 136.174 130.128 136.378 130.229 136.64C130.331 136.903 130.291 137.058 130.111 137.105L130.898 136.801C134.948 135.346 138.605 135.57 141.87 137.471C143.92 138.665 145.273 140.139 145.929 141.893C146.585 143.648 146.357 145.523 145.245 147.52C144.118 149.456 141.65 152.035 137.842 155.257C134.034 158.479 131.898 160.488 131.434 161.285C131.162 161.839 131.047 162.255 131.088 162.533C131.13 162.811 131.359 163.072 131.777 163.315C132.84 163.934 134.158 163.94 135.733 163.331C137.307 162.723 138.954 161.598 140.673 159.955C141.03 159.604 141.287 159.423 141.445 159.414C141.603 159.404 141.929 159.543 142.423 159.83C143.182 160.273 143.473 160.645 143.296 160.949C143.274 160.987 143.033 161.228 142.571 161.671C141.626 162.595 140.579 163.434 139.428 164.187C138.278 164.94 136.786 165.495 134.952 165.85C133.118 166.206 131.51 165.956 130.127 165.1C128.343 164.061 127.351 162.797 127.151 161.308C126.95 159.818 127.171 158.523 127.812 157.422C128.232 156.701 130.241 154.821 133.841 151.783C137.44 148.744 139.823 146.268 140.988 144.354C142.293 142.114 142.109 140.508 140.439 139.535L140.154 139.37C136.89 137.468 133.021 137.783 128.548 140.313L127.752 140.764L121.429 147.3C117.28 151.544 115.001 153.8 114.59 154.069C113.499 154.807 112.385 154.844 111.246 154.181C110.752 153.893 110.431 153.528 110.282 153.086C110.133 152.643 110.057 152.294 110.054 152.038C110.05 151.782 110.104 151.559 110.214 151.369C110.458 150.951 112.684 148.613 116.892 144.353L123.784 137.233C124.229 136.73 124.706 136.042 125.215 135.169C126.519 132.929 126.336 131.323 124.666 130.35L124.381 130.184C121.116 128.283 117.247 128.597 112.775 131.127L111.978 131.579L105.656 138.115C101.507 142.358 99.227 144.615 98.8161 144.884C97.7257 145.621 96.6111 145.659 95.4722 144.995C94.9787 144.708 94.6464 144.362 94.4753 143.957C94.3043 143.553 94.2281 143.203 94.2469 142.909C94.2656 142.615 94.3382 142.403 94.4646 142.274C94.752 141.78 97.286 139.087 102.067 134.195C106.952 129.211 109.472 126.586 109.626 126.32C110.072 125.817 110.427 125.338 110.693 124.882C111.488 123.515 111.412 122.556 110.463 122.003C109.628 121.517 108.616 121.639 107.427 122.371C106.239 123.102 105.128 124.006 104.095 125.081C103.062 126.157 102.436 126.708 102.218 126.733C102.098 126.765 101.772 126.626 101.24 126.317L100.443 125.853C100.348 125.492 100.334 125.255 100.4 125.141Z" fill="black"/>
<path d="M17.1589 54.4538C17.1589 53.3398 16.7356 52.7829 15.889 52.7829C14.8197 52.7829 13.7058 53.429 12.5473 54.7211C11.3888 56.0132 10.4309 57.996 9.67339 60.6694C9.62883 60.7139 9.58428 60.7808 9.53972 60.8699C9.49516 60.959 9.47289 61.0258 9.47289 61.0704C9.47289 61.115 9.42833 61.1595 9.33922 61.2041C9.2501 61.2486 9.18327 61.2709 9.13871 61.2709C9.09416 61.2709 9.00504 61.2709 8.87137 61.2709C8.7377 61.2709 8.55948 61.2709 8.33669 61.2709H7.40101C7.13367 61.0036 7 60.8031 7 60.6694C7 60.3575 7.17823 59.7114 7.53468 58.7312C7.89113 57.7509 8.42581 56.5925 9.13871 55.2558C9.85162 53.9191 10.8319 52.7829 12.0794 51.8472C13.327 50.9115 14.7306 50.4214 16.29 50.3768C18.1614 50.3768 19.6095 50.9115 20.6343 51.9809C21.6591 53.0502 22.1938 54.2978 22.2383 55.7236C22.2383 56.4811 22.1715 57.0603 22.0378 57.4613C22.0378 57.7287 21.7036 58.7089 21.0353 60.402C20.3669 62.0952 19.6763 64.078 18.9634 66.3503C18.2505 68.6227 17.8495 70.6055 17.7604 72.2986C17.7604 73.5017 17.8718 74.4819 18.0946 75.2394C18.6738 77.1553 20.0773 78.1133 22.3052 78.1133C23.9537 78.1133 25.4909 77.3558 26.9168 75.8409C28.3426 74.3259 29.4565 72.566 30.2585 70.5609C31.0605 68.5559 31.7066 66.7068 32.1967 65.0136C32.6868 63.3205 32.9319 62.0952 32.9319 61.3377C32.9319 60.3129 32.7537 59.4218 32.3972 58.6643C32.0407 57.9069 31.6397 57.3276 31.1942 56.9266C30.7486 56.5256 30.3476 56.1246 29.9911 55.7236C29.6347 55.3226 29.4565 54.8325 29.4565 54.2533C29.4565 53.273 29.8798 52.3596 30.7263 51.513C31.5729 50.6665 32.4863 50.2432 33.4666 50.2432C34.3131 50.2432 35.0706 50.6442 35.7389 51.4462C36.4073 52.2482 36.7637 53.5403 36.8083 55.3226C36.8083 56.5256 36.541 58.3747 36.0063 60.8699C35.4716 63.3651 34.6473 66.1498 33.5334 69.2242C32.4195 72.2986 30.8377 74.9497 28.7881 77.1776C26.7385 79.4054 24.377 80.5416 21.7036 80.5861C18.852 80.5861 16.5796 79.851 14.8865 78.3806C13.2379 76.9548 12.4136 74.8383 12.4136 72.0313C12.4136 70.65 12.5918 69.2242 12.9483 67.7539C13.3047 66.2835 14.2182 63.6769 15.6885 59.9342C16.6688 57.0826 17.1589 55.2558 17.1589 54.4538Z" fill="#FF0000"/>
<path d="M43.587 97.531C43.65 97.531 43.7445 97.5625 43.8705 97.6255C43.9965 97.6885 44.1698 97.7358 44.3903 97.7673C44.6108 97.7988 44.7998 97.8145 44.9573 97.8145C45.3668 97.8145 45.7448 97.6098 46.0914 97.2003C46.4379 96.7907 46.6899 96.334 46.8474 95.8299C47.1624 94.9794 47.6979 92.5695 48.454 88.6004C49.21 84.6312 49.9345 80.851 50.6276 77.2598C51.3206 73.6687 51.6671 71.8574 51.6671 71.8259V71.6841H49.4463C47.9657 71.6841 47.1782 71.6526 47.0837 71.5896C46.9576 71.4951 46.8946 71.3376 46.8946 71.1171L47.2254 69.794C47.2884 69.6365 47.4144 69.5577 47.6034 69.5577C47.7924 69.5577 48.5327 69.542 49.8243 69.5105C51.3363 69.5105 52.0924 69.4947 52.0924 69.4632C52.0924 69.4002 52.2341 68.6127 52.5177 67.1006C52.8012 65.5886 52.9902 64.675 53.0847 64.36C54.2502 59.1623 56.5498 56.5634 59.9835 56.5634C61.149 56.6264 62.1098 56.9729 62.8659 57.603C63.6219 58.233 63.9999 59.0678 63.9999 60.1073C63.9999 61.2414 63.6692 62.0604 63.0076 62.5644C62.3461 63.0685 61.6846 63.3362 61.023 63.3677C59.637 63.3677 58.9439 62.7062 58.9439 61.3831C58.9439 60.7846 59.1172 60.2648 59.4637 59.8238C59.8102 59.3828 60.1883 59.052 60.5978 58.8315L61.023 58.5952C60.519 58.4062 60.0465 58.3117 59.6055 58.3117C59.2275 58.3117 58.8652 58.4692 58.5187 58.7843C58.1722 59.0993 57.9359 59.5403 57.8099 60.1073C57.5894 61.0209 57.3374 62.2494 57.0539 63.793C56.7703 65.3366 56.5183 66.6439 56.2978 67.7149C56.0773 68.786 55.9671 69.353 55.9671 69.416C55.9671 69.479 56.8333 69.5105 58.5659 69.5105C59.9835 69.5105 60.8025 69.5262 61.023 69.5577C61.2436 69.5892 61.4168 69.6838 61.5428 69.8413C61.5743 69.9673 61.5428 70.235 61.4483 70.6445C61.3538 71.0541 61.2751 71.3061 61.212 71.4006C61.149 71.5581 61.0073 71.6368 60.7868 71.6368C60.5663 71.6368 59.7157 71.6526 58.2352 71.6841H55.589L54.5022 77.4489C52.9902 85.2612 51.9349 90.1439 51.3363 92.097C50.4858 94.7746 49.3833 96.7592 48.0287 98.0508C46.8631 99.0588 45.7133 99.5629 44.5793 99.5629C43.5712 99.5629 42.6577 99.2636 41.8387 98.6651C41.0196 98.0665 40.6101 97.216 40.6101 96.1135C40.6101 94.9479 40.9409 94.0974 41.6024 93.5618C42.2639 93.0263 42.9255 92.7586 43.587 92.7586C44.9731 92.7586 45.6661 93.4201 45.6661 94.7431C45.6661 95.3417 45.4928 95.8614 45.1463 96.3025C44.7998 96.7435 44.4218 97.0743 44.0123 97.2948L43.587 97.531Z" fill="#FF0000"/>
<path d="M46.8203 34.3365C46.8203 33.9801 46.9316 33.6682 47.1544 33.4008C47.3772 33.1335 47.7114 32.9998 48.1569 32.9998C48.4688 32.9998 48.7362 33.1112 48.959 33.334C49.1817 33.5122 49.4045 33.9355 49.6273 34.6038C50.0729 36.2524 50.9863 37.5223 52.3675 38.4134C52.8577 38.7253 53.1027 39.1263 53.1027 39.6165C53.1027 40.0175 53.0359 40.2848 52.9022 40.4185C52.7685 40.5521 52.4566 40.7526 51.9665 41.02C50.0506 42.0002 48.3797 43.4038 46.9539 45.2306C46.8648 45.3197 46.7534 45.4534 46.6198 45.6316C46.4861 45.8098 46.3747 45.9435 46.2856 46.0326C46.1965 46.1217 46.0851 46.1663 45.9514 46.1663C45.8177 46.1663 45.6618 46.1885 45.4836 46.2331C45.1717 46.2331 44.882 46.1217 44.6147 45.8989C44.3474 45.6761 44.1914 45.342 44.1469 44.8964C44.1469 44.0498 45.1939 42.7354 47.2881 40.9531H35.8594L24.4306 40.8863C23.8514 40.4853 23.5618 40.062 23.5618 39.6165C23.5618 39.3046 23.8514 38.859 24.4306 38.2798H48.4243C47.3549 36.5866 46.8203 35.2722 46.8203 34.3365Z" fill="#FF0000"/>
<path d="M294.205 197.881C294.114 197.645 294.098 197.475 294.158 197.373C294.198 197.304 300.575 193.003 313.29 184.469C326.005 175.935 332.47 171.639 332.687 171.582C332.929 171.402 333.478 171.562 334.333 172.06C335.119 172.518 335.528 172.917 335.56 173.256C335.583 173.452 335.017 181.186 333.862 196.455C332.707 211.725 332.127 219.404 332.121 219.492C332.061 219.595 331.906 219.665 331.655 219.702L294.205 197.881ZM327.881 193.864L329.104 177.259L301.367 195.732L313.957 203.137L326.629 210.52C326.669 210.452 327.086 204.9 327.881 193.864Z" fill="#A52A2A"/>
<path d="M345.629 207.985C346.706 206.688 348.596 205.567 351.299 204.623C354.003 203.678 356.544 203.876 358.924 205.217C360.121 205.915 361.036 206.86 361.669 208.054C362.302 209.247 362.589 210.445 362.53 211.647C365.222 210.33 367.577 210.259 369.595 211.434C370.86 212.172 371.735 213.186 372.22 214.476C372.705 215.767 372.596 217.055 371.893 218.34C371.315 219.332 370.608 219.996 369.77 220.333C368.933 220.669 368.252 220.776 367.727 220.654C367.203 220.532 366.77 220.371 366.428 220.172C365.778 219.793 365.358 219.296 365.166 218.681C364.975 218.066 365.059 217.45 365.418 216.834C366.334 215.261 367.817 214.682 369.866 215.097C369.749 214.433 369.194 213.812 368.202 213.234C367.758 212.975 367.413 212.82 367.168 212.769C365.549 212.559 363.934 213.13 362.322 214.481C355.866 220.844 352.269 224.658 351.532 225.923C350.974 226.881 350.849 227.725 351.157 228.454C351.465 229.183 351.944 229.737 352.594 230.116C353.86 230.853 355.437 231.016 357.326 230.605C359.214 230.193 360.859 229.297 362.26 227.914C362.562 227.632 362.775 227.503 362.897 227.529C363.02 227.555 363.313 227.68 363.778 227.905L363.983 228.024C364.496 228.323 364.673 228.609 364.513 228.883C364.493 228.917 364.35 229.085 364.082 229.388C362.399 231.018 360.332 232.128 357.882 232.716C355.432 233.304 353.164 232.99 351.078 231.775C348.684 230.38 347.499 228.246 347.523 225.374C344.885 226.678 342.66 226.801 340.847 225.745L340.539 225.566C338.864 224.589 337.926 223.447 337.725 222.139C337.525 220.832 337.697 219.672 338.241 218.66C338.879 217.566 339.722 216.866 340.77 216.561C341.818 216.255 342.787 216.361 343.676 216.88C345.147 217.736 345.464 218.883 344.627 220.32C344.228 221.004 343.674 221.483 342.965 221.756C342.256 222.03 341.663 222.143 341.187 222.095C340.711 222.047 340.439 222.003 340.371 221.963L340.187 221.925C340.167 221.959 340.23 222.087 340.375 222.309C340.521 222.531 340.725 222.81 340.987 223.146C341.249 223.483 341.544 223.723 341.872 223.868C343.103 224.586 344.612 224.434 346.398 223.413C347.024 223.045 348.095 222.111 349.61 220.612C351.125 219.113 352.68 217.545 354.275 215.908C355.87 214.272 356.801 213.303 357.069 213.001C357.778 212.177 358.252 211.56 358.491 211.149C359.049 210.192 359.191 209.358 358.917 208.649C358.643 207.94 358.181 207.396 357.532 207.017C356.164 206.22 354.562 206.02 352.727 206.417C350.893 206.814 349.238 207.728 347.763 209.159C347.515 209.427 347.33 209.548 347.207 209.522C347.085 209.497 346.791 209.372 346.327 209.147L345.608 208.728C345.523 208.404 345.53 208.156 345.629 207.985Z" fill="#A52A2A"/>
<path d="M375.029 226.86C377.524 225.691 379.944 225.789 382.29 227.156C383.451 227.832 384.428 228.823 385.222 230.128C386.017 231.433 386.312 233.094 386.107 235.113C385.833 237.641 384.674 240.658 382.631 244.164C380.447 247.912 378.258 250.475 376.063 251.852C374.987 252.586 373.85 253.008 372.652 253.12C371.453 253.231 370.497 253.176 369.784 252.955C369.071 252.734 368.405 252.459 367.787 252.131C367.158 251.765 366.571 251.326 366.027 250.814C365.483 250.303 364.971 249.486 364.491 248.365C364.011 247.243 363.818 246.045 363.912 244.772C364.028 242.184 365.177 239.015 367.361 235.267C369.813 231.06 372.368 228.258 375.029 226.86ZM383.443 231.18C383.169 229.984 382.536 229.097 381.544 228.519C380.529 227.927 379.433 227.807 378.257 228.158C377.286 228.434 376.38 229.072 375.538 230.072C374.697 231.072 373.247 233.337 371.19 236.867C368.964 240.687 367.596 243.258 367.085 244.58C366.574 245.902 366.453 247.111 366.721 248.206C366.975 249.326 367.598 250.175 368.59 250.753C369.557 251.316 370.59 251.432 371.69 251.102C372.814 250.785 373.841 250.023 374.771 248.816C375.701 247.609 377.228 245.211 379.351 241.622C381.394 238.116 382.643 235.75 383.097 234.525C383.552 233.3 383.667 232.185 383.443 231.18Z" fill="#A52A2A"/>
<rect x="633.5" y="413.5" width="24" height="54" transform="rotate(-90 633.5 413.5)" fill="#FF0000" stroke="black"/>
<rect x="633.5" y="389.5" width="24" height="54" transform="rotate(-90 633.5 389.5)" fill="#64BC1F" stroke="black"/>
<rect x="633.5" y="365.5" width="24" height="54" transform="rotate(-90 633.5 365.5)" fill="#64BC1F" stroke="black"/>
<rect x="633.5" y="341.5" width="24" height="54" transform="rotate(-90 633.5 341.5)" fill="#64BC1F" stroke="black"/>
<rect x="633.5" y="317.5" width="24" height="54" transform="rotate(-90 633.5 317.5)" fill="#64BC1F" stroke="black"/>
<rect x="633.5" y="293.5" width="24" height="54" transform="rotate(-90 633.5 293.5)" fill="#64BC1F" stroke="black"/>
<rect x="633.5" y="269.5" width="24" height="54" transform="rotate(-90 633.5 269.5)" fill="#64BC1F" stroke="black"/>
<rect x="633.5" y="245.5" width="24" height="54" transform="rotate(-90 633.5 245.5)" fill="#64BC1F" stroke="black"/>
<rect x="633.5" y="221.5" width="24" height="54" transform="rotate(-90 633.5 221.5)" fill="#64BC1F" stroke="black"/>
<rect x="633.5" y="197.5" width="24" height="54" transform="rotate(-90 633.5 197.5)" fill="#64BC1F" stroke="black"/>
<rect x="633.5" y="173.5" width="24" height="54" transform="rotate(-90 633.5 173.5)" fill="#B0833E" stroke="black"/>
<rect x="633.5" y="149.5" width="24" height="54" transform="rotate(-90 633.5 149.5)" fill="#B0833E" stroke="black"/>
<rect x="633.5" y="125.5" width="24" height="54" transform="rotate(-90 633.5 125.5)" fill="#B0833E" stroke="black"/>
<rect x="633.5" y="101.5" width="24" height="54" transform="rotate(-90 633.5 101.5)" fill="#B0833E" stroke="black"/>
<path d="M627.413 25.7438C626.678 25.7438 626.311 25.5049 626.311 25.0271C626.311 24.8801 626.402 24.4391 626.586 23.7041C626.77 22.9691 626.862 22.326 626.862 21.7747C626.862 20.6354 626.476 19.9372 625.704 19.6799C624.932 19.4227 623.15 19.294 620.357 19.294H617.49C617.454 19.3675 616.81 21.9033 615.561 26.9014C614.311 31.8995 613.687 34.472 613.687 34.619C613.687 34.766 613.889 34.8395 614.293 34.8395C614.697 34.8395 616.167 34.8763 618.703 34.9498C622.158 34.9498 624.436 34.913 625.539 34.8395C626.641 34.766 627.744 34.5272 628.846 34.1229C630.647 33.5349 632.135 32.5059 633.312 31.0358C634.488 29.5658 635.792 27.1587 637.225 23.8144C637.593 23.0058 637.832 22.5648 637.942 22.4913C638.199 22.4178 638.475 22.3811 638.769 22.3811C639.504 22.3811 639.871 22.62 639.871 23.0977C636.013 32.4324 633.991 37.1916 633.808 37.3753C633.697 37.4488 628.442 37.4856 618.042 37.4856H607.623C603.874 37.4856 602 37.2835 602 36.8792C602 36.8057 602.055 36.5484 602.165 36.1074C602.312 35.5194 602.459 35.1887 602.606 35.1152C602.753 35.0417 603.176 34.9865 603.874 34.9498C604.867 34.9498 605.969 34.8947 607.182 34.7844C607.696 34.6742 608.045 34.4537 608.229 34.1229C608.303 33.9391 609.607 28.7757 612.143 18.6325C614.679 8.48935 615.965 3.34426 616.002 3.19727C616.002 2.94001 615.928 2.81138 615.781 2.81138C615.487 2.70113 614.514 2.60925 612.86 2.53575H611.151C610.93 2.31525 610.82 2.16825 610.82 2.09475C610.82 2.02124 610.857 1.70887 610.93 1.1576C611.077 0.532845 611.261 0.146965 611.482 -3.8147e-05H642.021C642.279 0.146965 642.407 0.349091 642.407 0.606346C642.407 0.7901 642.168 2.84813 641.691 6.78045C641.213 10.7128 640.956 12.734 640.919 12.8443C640.845 13.1016 640.478 13.2302 639.816 13.2302H639.155C638.898 13.0464 638.769 12.8075 638.769 12.5135L638.934 11.2456C639.045 10.3636 639.1 9.40812 639.1 8.3791C639.1 7.27658 638.971 6.35782 638.714 5.6228C638.457 4.88779 638.107 4.31816 637.666 3.9139C637.225 3.50964 636.582 3.21564 635.737 3.03189C634.892 2.84813 634.028 2.71951 633.146 2.646C632.264 2.5725 631.088 2.53575 629.618 2.53575H627.027C623.793 2.5725 622.084 2.62763 621.9 2.70113C621.753 2.77463 621.643 2.94001 621.57 3.19727C621.533 3.30751 620.963 5.56768 619.861 9.97775C618.758 14.3878 618.189 16.6296 618.152 16.7031C618.997 16.7399 619.879 16.7582 620.798 16.7582H622.231C624.657 16.7582 626.329 16.4826 627.248 15.9313C628.166 15.3801 628.993 13.8917 629.728 11.4662C629.875 10.8781 629.986 10.5474 630.059 10.4739C630.133 10.4004 630.445 10.3453 630.996 10.3085C631.18 10.3085 631.327 10.3085 631.437 10.3085C631.547 10.3085 631.639 10.3269 631.713 10.3636C631.786 10.4004 631.823 10.4188 631.823 10.4188C631.823 10.4188 631.86 10.4923 631.933 10.6393C632.007 10.7863 632.062 10.8598 632.099 10.8598L630.28 18.1364C629.067 23.0242 628.405 25.5049 628.295 25.5784C628.185 25.6886 627.891 25.7438 627.413 25.7438Z" fill="black"/>
<path d="M641.987 30.7495C641.806 30.5676 641.715 30.4377 641.715 30.3597C641.715 30.2558 641.754 30.048 641.832 29.7362C641.909 29.4244 641.974 29.2425 642.026 29.1905C642.078 29.0606 642.195 28.9957 642.377 28.9957C642.559 28.9957 643.222 28.9827 644.365 28.9567H646.43L647.171 25.8388C647.249 25.553 647.34 25.1762 647.444 24.7085C647.548 24.2408 647.639 23.9031 647.717 23.6952C647.795 23.4873 647.872 23.2275 647.95 22.9157C648.028 22.6039 648.132 22.3831 648.262 22.2532C648.392 22.1232 648.522 21.9673 648.652 21.7855C648.782 21.6036 648.964 21.4867 649.198 21.4347C649.431 21.3827 649.665 21.3568 649.899 21.3568C650.367 21.3827 650.692 21.5256 650.873 21.7855C651.055 22.0453 651.146 22.2921 651.146 22.526C651.146 22.7078 651.029 23.3184 650.796 24.3577C650.562 25.3971 650.302 26.4234 650.016 27.4367L649.626 28.8787C649.626 28.9307 650.276 28.9567 651.575 28.9567H653.563C653.745 29.1386 653.836 29.2815 653.836 29.3854C653.836 29.957 653.667 30.4117 653.329 30.7495H649.159L647.756 36.4007C646.742 40.5579 646.236 42.7925 646.236 43.1042C646.236 44.1955 646.586 44.7412 647.288 44.7412C648.197 44.7412 649.081 44.2995 649.938 43.416C650.796 42.5326 651.484 41.4414 652.004 40.1422C652.056 39.9863 652.121 39.8954 652.199 39.8694C652.277 39.8434 652.471 39.8174 652.783 39.7915H652.939C653.329 39.7915 653.524 39.8954 653.524 40.1033C653.524 40.1812 653.485 40.3371 653.407 40.5709C653.277 40.9867 653.043 41.4803 652.705 42.052C652.367 42.6236 651.926 43.2342 651.38 43.8837C650.835 44.5333 650.172 45.0789 649.392 45.5206C648.613 45.9623 647.821 46.1832 647.015 46.1832C646.236 46.1832 645.495 45.9883 644.794 45.5986C644.092 45.2088 643.585 44.5333 643.274 43.5719C643.222 43.3641 643.196 43.0133 643.196 42.5196V41.8181L644.56 36.3617C645.469 32.6982 645.937 30.8534 645.963 30.8274C645.963 30.7755 645.3 30.7495 643.975 30.7495H641.987Z" fill="black"/>
<path d="M662.878 46.1832C660.929 46.1832 659.357 45.5466 658.162 44.2734C656.966 43.0003 656.369 41.4673 656.369 39.6745C656.369 37.9856 656.759 36.3877 657.538 34.8807C658.318 33.3737 659.383 32.0616 660.734 30.9443C662.709 29.3594 664.722 28.5669 666.775 28.5669C667.606 28.5669 668.126 28.5799 668.334 28.6059C668.672 28.6838 669.009 28.7748 669.347 28.8787C669.685 28.9826 670.14 29.1905 670.711 29.5023C671.283 29.8141 671.751 30.2038 672.114 30.6715C672.478 31.1392 672.816 31.7758 673.128 32.5812C673.44 33.3867 673.595 34.2961 673.595 35.3094C673.595 38.0896 672.478 40.5969 670.244 42.8314C668.009 45.0659 665.554 46.1832 662.878 46.1832ZM659.76 41.0776C659.76 42.3767 660.097 43.3121 660.773 43.8837C661.449 44.4553 662.215 44.7411 663.072 44.7411C664.216 44.7411 665.294 44.3254 666.307 43.494C667.321 42.6625 668.126 41.5712 668.724 40.2201C668.958 39.6745 669.256 38.7131 669.62 37.3361C669.984 35.959 670.166 34.7638 670.166 33.7505C670.166 32.6072 669.932 31.7368 669.464 31.1392C668.841 30.3597 668.009 29.97 666.97 29.97C665.333 29.97 663.891 30.7235 662.644 32.2305C661.682 33.3737 660.968 34.8937 660.5 36.7904C660.032 38.6872 659.786 40.1162 659.76 41.0776Z" fill="black"/>
<path d="M674.959 30.7495C674.777 30.5676 674.687 30.4377 674.687 30.3597C674.687 30.2558 674.725 30.0479 674.803 29.7361C674.881 29.4243 674.946 29.2425 674.998 29.1905C675.05 29.0606 675.167 28.9956 675.349 28.9956C675.531 28.9956 676.194 28.9826 677.337 28.9567H679.402L680.143 25.8387C680.221 25.5529 680.312 25.1762 680.416 24.7085C680.52 24.2408 680.611 23.903 680.689 23.6952C680.766 23.4873 680.844 23.2275 680.922 22.9157C681 22.6039 681.104 22.383 681.234 22.2531C681.364 22.1232 681.494 21.9673 681.624 21.7854C681.754 21.6036 681.936 21.4866 682.17 21.4347C682.403 21.3827 682.637 21.3567 682.871 21.3567C683.339 21.3827 683.664 21.5256 683.845 21.7854C684.027 22.0453 684.118 22.2921 684.118 22.5259C684.118 22.7078 684.001 23.3184 683.767 24.3577C683.534 25.397 683.274 26.4233 682.988 27.4367L682.598 28.8787C682.598 28.9307 683.248 28.9567 684.547 28.9567H686.535C686.717 29.1385 686.807 29.2814 686.807 29.3854C686.807 29.957 686.639 30.4117 686.301 30.7495H682.131L680.727 36.4007C679.714 40.5579 679.208 42.7924 679.208 43.1042C679.208 44.1955 679.558 44.7411 680.26 44.7411C681.169 44.7411 682.053 44.2994 682.91 43.416C683.767 42.5326 684.456 41.4413 684.976 40.1422C685.028 39.9863 685.093 39.8954 685.171 39.8694C685.248 39.8434 685.443 39.8174 685.755 39.7914H685.911C686.301 39.7914 686.496 39.8954 686.496 40.1032C686.496 40.1812 686.457 40.3371 686.379 40.5709C686.249 40.9866 686.015 41.4803 685.677 42.0519C685.339 42.6235 684.898 43.2341 684.352 43.8837C683.806 44.5333 683.144 45.0789 682.364 45.5206C681.585 45.9623 680.792 46.1832 679.987 46.1832C679.208 46.1832 678.467 45.9883 677.765 45.5986C677.064 45.2088 676.557 44.5333 676.245 43.5719C676.194 43.364 676.168 43.0133 676.168 42.5196V41.8181L677.532 36.3617C678.441 32.6982 678.909 30.8534 678.935 30.8274C678.935 30.7754 678.272 30.7495 676.947 30.7495H674.959Z" fill="black"/>
<path d="M689.302 39.6356C689.302 37.0113 690.289 34.517 692.264 32.1526C694.238 29.7882 696.46 28.593 698.928 28.567C700.253 28.567 701.423 29.2036 702.436 30.4767C702.852 29.6972 703.449 29.3075 704.229 29.3075C704.567 29.3075 704.865 29.4114 705.125 29.6193C705.385 29.8271 705.515 30.087 705.515 30.3988C705.515 30.7365 705.034 32.8151 704.073 36.6346C703.112 40.4541 702.618 42.6106 702.592 43.1043C702.592 43.7539 702.683 44.1826 702.865 44.3904C703.047 44.5983 703.319 44.7152 703.683 44.7412C703.917 44.7152 704.177 44.5983 704.463 44.3904C705.008 43.8708 705.541 42.6236 706.061 40.6489C706.216 40.1293 706.346 39.8564 706.45 39.8305C706.502 39.8045 706.632 39.7915 706.84 39.7915H706.996C707.49 39.7915 707.736 39.9084 707.736 40.1423C707.736 40.2982 707.672 40.6489 707.542 41.1946C707.412 41.7402 707.152 42.4417 706.762 43.2992C706.372 44.1566 705.957 44.8061 705.515 45.2479C705.177 45.5856 704.761 45.8584 704.268 46.0663C704.06 46.1183 703.748 46.1443 703.332 46.1443C702.449 46.1443 701.708 45.9494 701.111 45.5596C700.513 45.1699 700.124 44.7672 699.942 44.3515L699.708 43.7668C699.682 43.7409 699.63 43.7539 699.552 43.8058C699.5 43.8578 699.448 43.9097 699.396 43.9617C697.863 45.4167 696.304 46.1443 694.719 46.1443C693.29 46.1443 692.03 45.6246 690.939 44.5853C689.847 43.546 689.302 41.8961 689.302 39.6356ZM701.695 32.971C701.695 32.8151 701.631 32.5293 701.501 32.1136C701.371 31.6979 701.072 31.2432 700.604 30.7495C700.137 30.2559 699.539 29.996 698.811 29.97C697.902 29.97 697.032 30.3728 696.2 31.1782C695.369 31.9837 694.719 33.036 694.251 34.3351C693.498 36.3878 692.965 38.5183 692.654 40.7269C692.654 40.8048 692.654 40.9477 692.654 41.1556C692.654 41.3634 692.641 41.5193 692.615 41.6233C692.615 42.7925 692.848 43.598 693.316 44.0397C693.784 44.4814 694.342 44.7152 694.992 44.7412C695.979 44.7412 696.954 44.3125 697.915 43.455C698.876 42.5976 699.448 41.9351 699.63 41.4674C699.682 41.3634 700.033 39.9734 700.682 37.2972C701.332 34.6209 701.67 33.1789 701.695 32.971Z" fill="black"/>
<path d="M713.193 43.455C713.193 44.3124 713.518 44.7412 714.167 44.7412C715.129 44.7412 715.947 43.3771 716.623 40.6489C716.779 40.1292 716.908 39.8564 717.012 39.8304C717.064 39.8044 717.194 39.7915 717.402 39.7915H717.558C717.792 39.7915 717.948 39.7915 718.026 39.7915C718.104 39.7915 718.169 39.8174 718.221 39.8694C718.273 39.9214 718.299 40.0123 718.299 40.1422C718.273 40.2981 718.234 40.506 718.182 40.7658C718.13 41.0256 717.987 41.5193 717.753 42.2468C717.519 42.9743 717.259 43.5849 716.973 44.0786C716.688 44.5723 716.285 45.0529 715.765 45.5206C715.246 45.9883 714.648 46.2092 713.972 46.1832C713.037 46.1832 712.167 45.8974 711.361 45.3258C710.556 44.7541 710.14 43.7928 710.114 42.4417C710.114 42.1299 710.127 41.909 710.153 41.7791L712.686 31.7238C714.323 25.0982 715.142 21.6815 715.142 21.4737C715.142 21.3957 715.129 21.3308 715.103 21.2788C715.077 21.2268 715.025 21.1749 714.947 21.1229C714.869 21.0709 714.804 21.045 714.752 21.045C714.7 21.045 714.596 21.032 714.44 21.006C714.284 20.98 714.18 20.967 714.128 20.967C714.076 20.967 713.959 20.954 713.778 20.928C713.596 20.902 713.466 20.902 713.388 20.928C713.128 20.928 712.959 20.928 712.881 20.928C712.803 20.928 712.699 20.915 712.569 20.8891C712.439 20.8631 712.362 20.8241 712.336 20.7721C712.31 20.7202 712.297 20.6422 712.297 20.5383C712.297 20.4863 712.323 20.3044 712.375 19.9927C712.504 19.499 712.647 19.2262 712.803 19.1742C712.959 19.1222 713.894 19.0443 715.609 18.9404C715.999 18.9144 716.441 18.8884 716.934 18.8624C717.428 18.8364 717.818 18.7975 718.104 18.7455C718.389 18.6935 718.532 18.6805 718.532 18.7065C718.844 18.7065 719 18.8104 719 19.0183C719 19.3041 718.052 23.2015 716.155 30.7105C714.258 38.2195 713.284 42.1559 713.232 42.5196C713.232 42.5716 713.232 42.6755 713.232 42.8314C713.232 42.9873 713.219 43.1172 713.193 43.2212V43.455Z" fill="black"/>
<path d="M715 390L706.34 405L723.66 405L715 390ZM715 414L723.66 399L706.34 399L715 414Z" fill="#FF0000"/>
<path d="M715 174L706.34 189L723.66 189L715 174ZM715 390L723.66 375L706.34 375L715 390ZM713.5 187.5L713.5 376.5L716.5 376.5L716.5 187.5L713.5 187.5Z" fill="#64BC1F"/>
<path d="M715 77L706.34 92L723.66 92L715 77ZM715 174L723.66 159L706.34 159L715 174ZM713.5 90.5L713.5 160.5L716.5 160.5L716.5 90.5L713.5 90.5Z" fill="#B0833E"/>
<path d="M744.609 104.368C744.939 104.368 745.528 104.38 746.376 104.404C747.225 104.427 748.014 104.451 748.745 104.474C749.947 104.474 750.948 104.463 751.749 104.439C752.551 104.416 753.01 104.404 753.128 104.404C753.552 104.404 753.764 104.498 753.764 104.687C753.764 104.781 753.729 104.958 753.658 105.217C753.54 105.641 753.434 105.877 753.34 105.924C753.246 105.971 752.987 105.994 752.562 105.994C751.973 106.018 751.502 106.077 751.148 106.171C750.795 106.265 750.548 106.36 750.406 106.454C750.265 106.548 750.229 106.654 750.3 106.772C750.3 107.055 750.489 109.859 750.866 115.185C751.243 120.511 751.431 123.327 751.431 123.633L751.502 123.527C751.549 123.456 751.62 123.339 751.714 123.174C751.808 123.009 751.95 122.785 752.138 122.502C752.327 122.219 752.527 121.866 752.739 121.442C752.951 121.017 753.234 120.534 753.587 119.992C753.941 119.45 754.294 118.814 754.648 118.084C755.001 117.353 755.461 116.564 756.027 115.715C758.477 111.379 759.868 108.905 760.198 108.292C760.528 107.679 760.704 107.302 760.728 107.161C760.728 106.807 760.504 106.525 760.056 106.313C759.608 106.1 759.114 105.994 758.572 105.994C758.242 105.994 758.077 105.877 758.077 105.641C758.077 105.57 758.1 105.417 758.147 105.181C758.242 104.804 758.312 104.581 758.359 104.51C758.407 104.439 758.572 104.404 758.854 104.404C758.925 104.404 759.125 104.404 759.455 104.404C759.785 104.404 760.245 104.404 760.834 104.404C761.423 104.404 762.059 104.416 762.743 104.439C764.298 104.439 765.3 104.416 765.747 104.368C766.077 104.368 766.242 104.498 766.242 104.757C766.242 104.899 766.207 105.099 766.136 105.358C766.065 105.617 765.983 105.794 765.889 105.888C765.794 105.983 765.677 106.018 765.535 105.994C765.017 105.994 764.545 106.065 764.121 106.207C763.697 106.348 763.344 106.513 763.061 106.701C762.778 106.89 762.554 107.09 762.389 107.302C762.224 107.514 762.083 107.703 761.965 107.868L761.824 108.08L755.85 118.543C751.891 125.518 749.899 129.018 749.876 129.041C749.735 129.206 749.452 129.289 749.028 129.289C748.674 129.289 748.45 129.23 748.356 129.112C748.285 129.041 748.061 126.143 747.684 120.417C747.307 114.69 747.107 111.733 747.083 111.544L746.659 112.18C746.141 113.052 744.633 115.68 742.135 120.063C738.741 126.002 737.021 128.994 736.974 129.041C736.927 129.089 736.868 129.136 736.797 129.183C736.679 129.254 736.467 129.289 736.161 129.289C735.713 129.289 735.466 129.206 735.419 129.041C735.419 128.971 735.159 125.212 734.641 117.765C734.122 110.319 733.851 106.572 733.828 106.525C733.781 106.313 733.663 106.183 733.474 106.136C733.286 106.089 732.826 106.042 732.096 105.994H731.247C731.082 105.829 731 105.7 731 105.606C731.024 105.064 731.177 104.651 731.46 104.368H731.884C732.873 104.439 734.052 104.474 735.419 104.474C738.364 104.474 739.978 104.439 740.261 104.368H740.615C740.756 104.51 740.827 104.616 740.827 104.687C740.827 104.757 740.803 104.969 740.756 105.323C740.638 105.676 740.532 105.9 740.438 105.994H739.696C738.258 106.065 737.492 106.265 737.398 106.595C738.105 117.435 738.506 123.138 738.6 123.704L746.907 109.07L746.836 107.762C746.765 106.772 746.647 106.242 746.483 106.171C746.341 106.077 745.846 106.018 744.998 105.994C744.55 105.994 744.256 105.971 744.114 105.924C743.973 105.877 743.902 105.771 743.902 105.606C743.902 105.558 743.926 105.417 743.973 105.181C743.996 105.087 744.02 104.981 744.043 104.863C744.067 104.745 744.079 104.663 744.079 104.616C744.079 104.569 744.114 104.522 744.185 104.474C744.256 104.427 744.303 104.404 744.326 104.404C744.35 104.404 744.444 104.392 744.609 104.368Z" fill="#A52A2A"/>
<path d="M778.041 116.245C778.041 115.939 778.206 115.703 778.536 115.538H801.053C801.406 115.727 801.583 115.963 801.583 116.245C801.583 116.505 801.418 116.729 801.088 116.917L789.848 116.952H778.607C778.23 116.835 778.041 116.599 778.041 116.245ZM778.041 123.103C778.041 122.749 778.23 122.514 778.607 122.396H801.088C801.418 122.632 801.583 122.867 801.583 123.103C801.583 123.409 801.406 123.645 801.053 123.81H778.536C778.206 123.645 778.041 123.409 778.041 123.103Z" fill="#A52A2A"/>
<path d="M818.296 137.313H818.225C817.942 137.313 817.73 137.148 817.589 136.818V119.639L817.624 102.46C817.86 102.153 818.084 102 818.296 102C818.602 102 818.838 102.177 819.003 102.53V136.818C818.814 137.148 818.602 137.313 818.367 137.313H818.296Z" fill="#A52A2A"/>
<path d="M824.906 128.476C824.505 128.476 824.305 128.358 824.305 128.122C824.305 128.075 824.341 127.91 824.411 127.628C824.505 127.25 824.6 127.038 824.694 126.991C824.788 126.944 825.059 126.909 825.507 126.885C826.143 126.885 826.85 126.85 827.628 126.779C827.958 126.708 828.182 126.567 828.3 126.355C828.347 126.237 829.183 122.926 830.809 116.422C832.435 109.918 833.26 106.619 833.284 106.525C833.284 106.36 833.236 106.277 833.142 106.277C832.954 106.207 832.329 106.148 831.269 106.1H830.173C830.032 105.959 829.961 105.865 829.961 105.818C829.961 105.771 829.984 105.57 830.032 105.217C830.126 104.816 830.244 104.569 830.385 104.474H849.438C849.603 104.569 849.685 104.698 849.685 104.863C849.685 104.981 849.532 106.301 849.226 108.822C848.919 111.344 848.754 112.64 848.731 112.711C848.684 112.876 848.448 112.958 848.024 112.958H847.6C847.435 112.84 847.352 112.687 847.352 112.499C847.352 112.475 847.388 112.192 847.458 111.65C847.529 111.108 847.564 110.484 847.564 109.777C847.564 109.07 847.482 108.492 847.317 108.045C847.152 107.597 846.928 107.232 846.645 106.949C846.362 106.666 845.926 106.478 845.337 106.383C844.748 106.289 844.147 106.207 843.535 106.136C842.922 106.065 842.074 106.053 840.99 106.1H840.177C838.244 106.124 837.219 106.159 837.101 106.207C836.983 106.254 836.901 106.348 836.854 106.489C836.83 106.513 836.43 108.056 835.652 111.12L834.521 115.68H836.465C836.536 115.68 836.807 115.68 837.278 115.68C837.749 115.68 838.079 115.668 838.268 115.644C838.456 115.621 838.715 115.586 839.045 115.538C839.375 115.491 839.658 115.409 839.894 115.291C840.129 115.173 840.33 115.032 840.495 114.867C840.801 114.584 841.06 114.195 841.272 113.7C841.484 113.205 841.638 112.758 841.732 112.357C841.826 111.956 841.885 111.744 841.909 111.721C841.979 111.603 842.203 111.544 842.58 111.544H843.004C843.169 111.662 843.252 111.78 843.252 111.898C843.252 111.968 842.887 113.512 842.156 116.528C841.425 119.545 841.025 121.1 840.954 121.194C840.907 121.359 840.671 121.442 840.247 121.442H839.823C839.658 121.3 839.576 121.159 839.576 121.017C839.576 120.947 839.635 120.688 839.752 120.24C839.87 119.792 839.929 119.321 839.929 118.826C839.929 118.142 839.693 117.718 839.222 117.553C838.751 117.388 837.702 117.306 836.076 117.306H834.132L833.001 121.795C832.247 124.717 831.87 126.249 831.87 126.39C831.87 126.72 832.918 126.885 835.016 126.885H835.899C836.041 127.027 836.111 127.109 836.111 127.133C836.111 127.156 836.088 127.392 836.041 127.84C835.947 128.146 835.829 128.37 835.687 128.511H835.086C834.12 128.464 832.341 128.441 829.749 128.441C828.217 128.441 827.051 128.441 826.249 128.441C825.448 128.441 825 128.452 824.906 128.476Z" fill="#A52A2A"/>
<path d="M848.887 137.862C848.921 137.862 848.97 137.879 849.037 137.912C849.104 137.945 849.195 137.97 849.312 137.987C849.429 138.004 849.529 138.012 849.612 138.012C849.829 138.012 850.028 137.904 850.212 137.687C850.395 137.47 850.528 137.229 850.612 136.962C850.778 136.513 851.061 135.238 851.461 133.139C851.861 131.039 852.244 129.04 852.611 127.141C852.977 125.241 853.161 124.283 853.161 124.267V124.192H851.986C851.203 124.192 850.787 124.175 850.737 124.142C850.67 124.092 850.637 124.009 850.637 123.892L850.812 123.192C850.845 123.109 850.911 123.067 851.011 123.067C851.111 123.067 851.503 123.059 852.186 123.042C852.986 123.042 853.386 123.034 853.386 123.017C853.386 122.984 853.461 122.567 853.611 121.768C853.76 120.968 853.86 120.485 853.91 120.318C854.527 117.569 855.743 116.195 857.559 116.195C858.176 116.228 858.684 116.411 859.084 116.744C859.483 117.078 859.683 117.519 859.683 118.069C859.683 118.669 859.508 119.102 859.159 119.369C858.809 119.635 858.459 119.777 858.109 119.793C857.376 119.793 857.009 119.444 857.009 118.744C857.009 118.427 857.101 118.152 857.284 117.919C857.467 117.686 857.667 117.511 857.884 117.394L858.109 117.269C857.842 117.169 857.592 117.119 857.359 117.119C857.159 117.119 856.968 117.203 856.784 117.369C856.601 117.536 856.476 117.769 856.41 118.069C856.293 118.552 856.16 119.202 856.01 120.018C855.86 120.835 855.726 121.526 855.61 122.093C855.493 122.659 855.435 122.959 855.435 122.992C855.435 123.026 855.893 123.042 856.809 123.042C857.559 123.042 857.992 123.051 858.109 123.067C858.226 123.084 858.317 123.134 858.384 123.217C858.4 123.284 858.384 123.425 858.334 123.642C858.284 123.859 858.242 123.992 858.209 124.042C858.176 124.125 858.101 124.167 857.984 124.167C857.867 124.167 857.418 124.175 856.634 124.192H855.235L854.66 127.241C853.86 131.373 853.302 133.955 852.986 134.988C852.536 136.404 851.953 137.454 851.236 138.137C850.62 138.67 850.012 138.937 849.412 138.937C848.879 138.937 848.396 138.778 847.963 138.462C847.529 138.145 847.313 137.695 847.313 137.112C847.313 136.496 847.488 136.046 847.838 135.763C848.187 135.48 848.537 135.338 848.887 135.338C849.62 135.338 849.987 135.688 849.987 136.388C849.987 136.704 849.895 136.979 849.712 137.212C849.529 137.446 849.329 137.62 849.112 137.737L848.887 137.862Z" fill="#A52A2A"/>
<path d="M863.255 128.511C863.137 128.417 863.078 128.334 863.078 128.264C863.078 128.217 865.07 124.093 869.052 115.892C873.035 107.691 875.073 103.544 875.167 103.449C875.238 103.284 875.568 103.202 876.157 103.202C876.699 103.202 877.029 103.284 877.147 103.449C877.218 103.544 879.244 107.691 883.227 115.892C887.209 124.093 889.212 128.217 889.236 128.264C889.236 128.334 889.177 128.417 889.059 128.511H863.255ZM879.374 116.351L875.026 107.444L866.295 125.259L874.991 125.295H883.722C883.722 125.247 882.272 122.266 879.374 116.351Z" fill="#A52A2A"/>
<path d="M892.736 118.296C892.901 117.306 893.537 116.163 894.644 114.867C895.752 113.571 897.119 112.911 898.745 112.887C899.57 112.887 900.324 113.099 901.007 113.524C901.691 113.948 902.197 114.478 902.527 115.114C903.517 113.63 904.707 112.887 906.097 112.887C906.969 112.887 907.723 113.147 908.36 113.665C908.996 114.183 909.326 114.879 909.349 115.751C909.349 116.434 909.184 116.988 908.854 117.412C908.525 117.836 908.206 118.095 907.9 118.19C907.594 118.284 907.323 118.331 907.087 118.331C906.639 118.331 906.274 118.201 905.991 117.942C905.708 117.683 905.567 117.341 905.567 116.917C905.567 115.833 906.156 115.091 907.334 114.69C907.075 114.384 906.604 114.231 905.921 114.231C905.614 114.231 905.39 114.254 905.249 114.301C904.353 114.678 903.694 115.456 903.269 116.634C901.856 121.842 901.149 124.882 901.149 125.754C901.149 126.414 901.337 126.885 901.714 127.168C902.091 127.451 902.504 127.592 902.951 127.592C903.823 127.592 904.683 127.203 905.532 126.426C906.38 125.648 906.957 124.694 907.264 123.562C907.334 123.327 907.405 123.197 907.476 123.174C907.547 123.15 907.735 123.127 908.041 123.103H908.183C908.536 123.103 908.713 123.197 908.713 123.386C908.713 123.409 908.689 123.539 908.642 123.775C908.265 125.118 907.535 126.308 906.451 127.345C905.367 128.382 904.106 128.9 902.669 128.9C901.019 128.9 899.77 128.158 898.922 126.673C897.955 128.134 896.848 128.865 895.599 128.865H895.387C894.232 128.865 893.407 128.558 892.912 127.946C892.418 127.333 892.158 126.685 892.135 126.002C892.135 125.247 892.359 124.635 892.806 124.163C893.254 123.692 893.784 123.456 894.397 123.456C895.41 123.456 895.917 123.951 895.917 124.941C895.917 125.412 895.776 125.825 895.493 126.178C895.21 126.532 894.939 126.767 894.68 126.885C894.421 127.003 894.267 127.062 894.22 127.062L894.114 127.097C894.114 127.121 894.185 127.168 894.326 127.239C894.468 127.309 894.656 127.392 894.892 127.486C895.128 127.58 895.351 127.616 895.564 127.592C896.412 127.592 897.142 127.062 897.755 126.002C897.967 125.624 898.238 124.823 898.568 123.598C898.898 122.372 899.228 121.1 899.558 119.78C899.888 118.461 900.076 117.683 900.123 117.447C900.241 116.811 900.3 116.351 900.3 116.069C900.3 115.409 900.123 114.938 899.77 114.655C899.416 114.372 899.016 114.231 898.568 114.231C897.626 114.231 896.742 114.608 895.917 115.362C895.092 116.116 894.515 117.082 894.185 118.26C894.138 118.472 894.079 118.59 894.008 118.614C893.938 118.637 893.749 118.661 893.443 118.684H892.948C892.806 118.543 892.736 118.413 892.736 118.296Z" fill="#A52A2A"/>
<path d="M913.516 119.194C914.449 117.844 915.723 117.169 917.339 117.169C918.139 117.169 918.939 117.386 919.739 117.819C920.538 118.252 921.188 119.019 921.688 120.118C922.304 121.501 922.613 123.4 922.613 125.816C922.613 128.399 922.254 130.373 921.538 131.739C921.205 132.439 920.747 132.997 920.163 133.414C919.58 133.83 919.072 134.088 918.639 134.188C918.206 134.288 917.781 134.347 917.364 134.363C916.931 134.363 916.498 134.313 916.065 134.213C915.632 134.113 915.124 133.847 914.54 133.414C913.957 132.98 913.499 132.422 913.166 131.739C912.45 130.373 912.091 128.399 912.091 125.816C912.091 122.917 912.566 120.71 913.516 119.194ZM919.139 118.894C918.639 118.361 918.048 118.094 917.364 118.094C916.665 118.094 916.065 118.361 915.565 118.894C915.149 119.327 914.874 119.927 914.74 120.693C914.607 121.459 914.54 123.059 914.54 125.491C914.54 128.124 914.607 129.857 914.74 130.69C914.874 131.523 915.174 132.181 915.64 132.664C916.107 133.164 916.681 133.414 917.364 133.414C918.031 133.414 918.597 133.164 919.064 132.664C919.547 132.164 919.847 131.464 919.964 130.565C920.08 129.665 920.147 127.974 920.163 125.491C920.163 123.076 920.097 121.484 919.964 120.718C919.83 119.952 919.555 119.344 919.139 118.894Z" fill="#A52A2A"/>
<path d="M930.293 137.313H930.222C929.94 137.313 929.728 137.148 929.586 136.818V119.639L929.622 102.46C929.857 102.153 930.081 102 930.293 102C930.599 102 930.835 102.177 931 102.53V136.818C930.812 137.148 930.599 137.313 930.364 137.313H930.293Z" fill="#A52A2A"/>
<path d="M733.188 251.653C732.133 251.653 731.574 251.591 731.512 251.467C731.481 251.405 731.465 251.281 731.465 251.095C731.465 250.35 731.636 249.838 731.977 249.559C732.04 249.528 732.303 249.512 732.769 249.512C734.041 249.574 736.151 249.605 739.099 249.605C740.154 249.605 741.132 249.605 742.031 249.605C742.931 249.605 743.629 249.59 744.126 249.559C744.622 249.528 744.933 249.528 745.057 249.559C745.553 249.559 745.802 249.714 745.802 250.024C745.802 250.086 745.771 250.303 745.709 250.676C745.553 251.203 745.398 251.514 745.243 251.607H745.15C745.088 251.607 745.01 251.607 744.917 251.607C744.824 251.607 744.716 251.607 744.591 251.607C744.467 251.607 744.328 251.622 744.173 251.653C744.017 251.684 743.878 251.684 743.754 251.653C742.543 251.684 741.768 251.731 741.426 251.793C741.085 251.855 740.806 252.026 740.588 252.305C740.557 252.367 740.123 253.996 739.285 257.192C738.447 260.388 737.61 263.74 736.772 267.246C735.934 270.753 735.468 272.816 735.375 273.437C735.313 273.871 735.282 274.321 735.282 274.787C735.282 276.462 735.763 277.781 736.725 278.743C737.687 279.705 739.021 280.186 740.728 280.186C742.807 280.186 744.886 279.488 746.965 278.091C749.044 276.695 750.565 274.585 751.527 271.761L753.901 262.405C755.359 256.447 756.088 253.344 756.088 253.096C756.088 252.258 755.095 251.777 753.109 251.653C752.365 251.653 751.992 251.483 751.992 251.141C751.992 251.079 752.023 250.893 752.085 250.583C752.209 250.086 752.303 249.791 752.365 249.698C752.427 249.605 752.582 249.543 752.83 249.512C752.923 249.512 753.42 249.528 754.32 249.559C755.219 249.59 756.523 249.621 758.229 249.652C759.812 249.652 761.022 249.636 761.86 249.605C762.698 249.574 763.148 249.559 763.21 249.559C763.675 249.559 763.908 249.714 763.908 250.024C763.908 250.707 763.784 251.172 763.536 251.42C763.443 251.576 763.101 251.653 762.512 251.653C760.308 251.777 758.928 252.398 758.369 253.515C758.307 253.67 757.531 256.665 756.042 262.498C754.77 267.743 753.994 270.83 753.714 271.761C752.69 274.864 750.906 277.393 748.362 279.348C745.817 281.303 743.18 282.296 740.449 282.327C737.594 282.327 735.313 281.458 733.607 279.72C731.9 277.983 731.031 275.919 731 273.53V272.785C731 272.227 731.853 268.534 733.56 261.707C735.081 255.47 735.841 252.258 735.841 252.072C735.841 251.855 734.956 251.715 733.188 251.653Z" fill="#008000"/>
<path d="M779.445 265.152C779.445 264.748 779.662 264.438 780.097 264.221H809.747C810.212 264.469 810.445 264.779 810.445 265.152C810.445 265.493 810.228 265.788 809.793 266.036L794.991 266.082H780.19C779.693 265.927 779.445 265.617 779.445 265.152ZM779.445 274.181C779.445 273.716 779.693 273.406 780.19 273.251H809.793C810.228 273.561 810.445 273.871 810.445 274.181C810.445 274.585 810.212 274.895 809.747 275.112H780.097C779.662 274.895 779.445 274.585 779.445 274.181Z" fill="#008000"/>
<path d="M826.959 267.944C826.99 267.758 827.037 267.51 827.099 267.2C827.161 266.889 827.347 266.3 827.657 265.431C827.968 264.562 828.278 263.833 828.588 263.243C828.899 262.654 829.395 262.08 830.078 261.521C830.76 260.962 831.443 260.699 832.126 260.73C832.809 260.761 833.476 260.869 834.127 261.055C834.779 261.242 835.244 261.521 835.524 261.893C835.803 262.266 836.051 262.607 836.268 262.917C836.486 263.228 836.61 263.522 836.641 263.802L836.734 264.128C836.734 264.19 836.749 264.221 836.78 264.221L837.292 263.709C839.154 261.723 841.342 260.73 843.855 260.73C844.383 260.73 844.864 260.761 845.298 260.823C845.733 260.885 846.136 260.993 846.509 261.149C846.881 261.304 847.176 261.459 847.393 261.614C847.61 261.769 847.843 261.955 848.091 262.173C848.339 262.39 848.495 262.592 848.557 262.778C848.619 262.964 848.743 263.166 848.929 263.383C849.115 263.6 849.177 263.786 849.115 263.941C849.053 264.097 849.1 264.236 849.255 264.36C849.41 264.484 849.441 264.593 849.348 264.686L849.72 264.221C851.675 261.893 853.987 260.73 856.656 260.73C858.331 260.73 859.681 261.149 860.705 261.986C861.729 262.824 862.257 264.05 862.288 265.664C862.288 267.246 861.698 269.698 860.519 273.018C859.34 276.338 858.75 278.324 858.75 278.976C858.781 279.41 858.859 279.705 858.983 279.86C859.107 280.015 859.34 280.093 859.681 280.093C860.55 280.093 861.357 279.627 862.101 278.696C862.846 277.766 863.451 276.493 863.917 274.88C864.01 274.538 864.103 274.337 864.196 274.275C864.289 274.213 864.537 274.181 864.941 274.181C865.561 274.181 865.872 274.306 865.872 274.554C865.872 274.585 865.81 274.818 865.686 275.252C865.437 276.152 865.096 277.036 864.662 277.905C864.227 278.774 863.513 279.643 862.52 280.512C861.527 281.381 860.457 281.8 859.309 281.768C857.85 281.768 856.795 281.35 856.144 280.512C855.492 279.674 855.166 278.805 855.166 277.905C855.166 277.316 855.725 275.454 856.842 272.32C857.959 269.186 858.533 266.827 858.564 265.245C858.564 263.414 857.881 262.498 856.516 262.498H856.283C853.615 262.498 851.365 264.065 849.534 267.2L849.208 267.758L847.672 273.995C846.648 278.06 846.059 280.248 845.903 280.558C845.5 281.396 844.833 281.815 843.902 281.815C843.499 281.815 843.173 281.706 842.925 281.489C842.676 281.272 842.506 281.086 842.413 280.931C842.319 280.776 842.273 280.62 842.273 280.465C842.273 280.124 842.8 277.905 843.855 273.809L845.531 267.013C845.624 266.548 845.671 265.958 845.671 265.245C845.671 263.414 844.988 262.498 843.623 262.498H843.39C840.721 262.498 838.472 264.065 836.641 267.2L836.315 267.758L834.779 273.995C833.755 278.06 833.165 280.248 833.01 280.558C832.607 281.396 831.94 281.815 831.009 281.815C830.605 281.815 830.28 281.722 830.031 281.536C829.783 281.35 829.612 281.163 829.519 280.977C829.426 280.791 829.395 280.636 829.426 280.512C829.426 280.108 830.016 277.564 831.195 272.878C832.405 268.099 833.01 265.601 833.01 265.384C833.103 264.919 833.15 264.5 833.15 264.128C833.15 263.01 832.762 262.452 831.986 262.452C831.304 262.452 830.729 262.886 830.264 263.755C829.799 264.624 829.442 265.57 829.193 266.594C828.945 267.618 828.759 268.177 828.635 268.27C828.573 268.332 828.325 268.363 827.89 268.363H827.239C827.052 268.177 826.959 268.037 826.959 267.944Z" fill="#008000"/>
<path d="M881.325 279.302C880.86 279.705 880.177 280.139 879.277 280.605C878.377 281.07 877.431 281.303 876.438 281.303C874.483 281.303 872.916 280.605 871.737 279.208C870.557 277.812 869.952 276.028 869.921 273.856C869.921 270.597 871.116 267.603 873.505 264.872C875.895 262.142 878.548 260.761 881.465 260.73C882.923 260.73 884.273 261.474 885.514 262.964L885.654 262.778C885.716 262.685 885.793 262.592 885.887 262.498C885.98 262.405 886.119 262.281 886.305 262.126C886.492 261.971 886.693 261.862 886.911 261.8C887.128 261.738 887.376 261.692 887.655 261.661C888.09 261.661 888.447 261.8 888.726 262.08C889.005 262.359 889.16 262.654 889.191 262.964C889.191 263.429 888.307 267.184 886.538 274.228C884.769 281.272 883.839 284.872 883.745 285.027C883.187 286.702 881.992 288.083 880.161 289.169C878.331 290.255 876.236 290.814 873.878 290.845C869.502 290.845 867.315 289.79 867.315 287.68C867.315 286.873 867.594 286.159 868.153 285.539C868.711 284.918 869.425 284.608 870.294 284.608C870.759 284.608 871.194 284.747 871.597 285.027C872 285.306 872.218 285.787 872.249 286.47C872.249 286.78 872.218 287.075 872.155 287.354C872.093 287.633 871.985 287.851 871.83 288.006C871.675 288.161 871.55 288.316 871.457 288.471C871.364 288.626 871.256 288.75 871.131 288.843L871.038 288.937H871.085C871.395 289.03 872.326 289.076 873.878 289.076C875.057 289.076 875.988 288.89 876.67 288.518C877.384 288.176 878.051 287.664 878.672 286.982C879.293 286.299 879.727 285.57 879.975 284.794C880.161 284.204 880.41 283.242 880.72 281.908C881.123 280.419 881.325 279.55 881.325 279.302ZM884.723 266.036L884.537 265.524C884.444 265.183 884.366 264.95 884.304 264.826C884.242 264.702 884.149 264.484 884.025 264.174C883.901 263.864 883.745 263.647 883.559 263.522C883.373 263.398 883.171 263.228 882.954 263.01C882.737 262.793 882.458 262.654 882.116 262.592C881.775 262.529 881.434 262.483 881.092 262.452C879.727 262.452 878.408 263.274 877.136 264.919C876.205 266.129 875.429 267.975 874.809 270.458C874.188 272.94 873.878 274.74 873.878 275.857C873.878 278.309 874.84 279.534 876.764 279.534C878.501 279.534 880.208 278.448 881.884 276.276L882.256 275.811L884.723 266.036Z" fill="#008000"/>
<path d="M895.428 249.512C895.46 249.512 896.577 249.435 898.78 249.279C900.983 249.124 902.116 249.031 902.178 249C902.55 249 902.736 249.14 902.736 249.419C902.736 249.76 902.178 252.103 901.061 256.447C899.881 261.04 899.292 263.383 899.292 263.476C899.292 263.538 899.4 263.46 899.618 263.243C901.511 261.568 903.527 260.73 905.669 260.73C907.344 260.73 908.694 261.149 909.718 261.986C910.742 262.824 911.27 264.05 911.301 265.664C911.301 267.246 910.711 269.698 909.532 273.018C908.353 276.338 907.763 278.324 907.763 278.976C907.794 279.41 907.872 279.705 907.996 279.86C908.12 280.015 908.353 280.093 908.694 280.093C909.563 280.093 910.37 279.627 911.115 278.696C911.859 277.766 912.464 276.493 912.93 274.88C913.023 274.538 913.116 274.337 913.209 274.275C913.302 274.213 913.55 274.181 913.954 274.181C914.574 274.181 914.885 274.306 914.885 274.554C914.885 274.585 914.823 274.818 914.699 275.252C914.202 277.083 913.411 278.588 912.325 279.767C911.27 281.101 910.013 281.768 908.554 281.768H908.322C906.863 281.768 905.808 281.35 905.157 280.512C904.505 279.674 904.179 278.79 904.179 277.859C904.179 277.362 904.738 275.531 905.855 272.366C906.972 269.201 907.546 266.827 907.577 265.245C907.577 263.414 906.894 262.498 905.529 262.498H905.296C902.721 262.498 900.486 264.019 898.594 267.06L898.268 267.665L896.685 273.949C895.692 277.983 895.118 280.186 894.963 280.558C894.56 281.396 893.877 281.815 892.915 281.815C892.481 281.815 892.108 281.675 891.798 281.396C891.488 281.117 891.317 280.838 891.286 280.558C891.286 280.124 892.419 275.407 894.684 266.408L898.128 252.631C898.128 252.227 898.02 251.979 897.802 251.886C897.585 251.793 896.98 251.715 895.987 251.653H895.01C894.823 251.467 894.73 251.343 894.73 251.281C894.73 251.219 894.761 250.924 894.823 250.396C894.979 249.807 895.18 249.512 895.428 249.512Z" fill="#008000"/>
<path d="M919.021 269.034C920.25 267.257 921.928 266.368 924.056 266.368C925.109 266.368 926.162 266.653 927.215 267.224C928.268 267.794 929.124 268.803 929.782 270.251C930.594 272.072 931 274.573 931 277.754C931 281.155 930.528 283.755 929.585 285.554C929.146 286.475 928.543 287.21 927.775 287.758C927.007 288.307 926.338 288.647 925.767 288.779C925.197 288.91 924.638 288.987 924.089 289.009C923.519 289.009 922.948 288.943 922.378 288.811C921.807 288.68 921.138 288.329 920.37 287.758C919.603 287.188 918.999 286.453 918.561 285.554C917.617 283.755 917.146 281.155 917.146 277.754C917.146 273.937 917.771 271.03 919.021 269.034ZM926.426 268.639C925.767 267.937 924.989 267.586 924.089 267.586C923.168 267.586 922.378 267.937 921.72 268.639C921.171 269.209 920.809 269.999 920.634 271.008C920.458 272.017 920.37 274.124 920.37 277.327C920.37 280.793 920.458 283.074 920.634 284.171C920.809 285.268 921.204 286.135 921.818 286.771C922.433 287.429 923.19 287.758 924.089 287.758C924.967 287.758 925.713 287.429 926.327 286.771C926.963 286.113 927.358 285.192 927.512 284.007C927.665 282.822 927.753 280.595 927.775 277.327C927.775 274.145 927.687 272.05 927.512 271.041C927.336 270.032 926.974 269.231 926.426 268.639Z" fill="#008000"/>
<path d="M747.402 383.242C747.402 383.05 746.624 382.928 745.068 382.873C744.44 382.873 744.031 382.859 743.839 382.832C743.648 382.805 743.553 382.682 743.553 382.463C743.553 382.409 743.58 382.218 743.635 381.89C743.798 381.344 743.935 381.057 744.044 381.03C744.099 381.003 744.249 380.989 744.495 380.989H744.699C745.819 381.044 747.676 381.071 750.269 381.071C751.198 381.071 752.058 381.071 752.849 381.071C753.641 381.071 754.256 381.057 754.692 381.03C755.129 381.003 755.402 381.003 755.512 381.03C755.976 381.03 756.208 381.139 756.208 381.358C756.208 381.494 756.167 381.685 756.085 381.931C756.058 381.986 756.044 382.068 756.044 382.177C756.044 382.286 756.03 382.368 756.003 382.423C755.976 382.477 755.948 382.532 755.921 382.586C755.894 382.641 755.853 382.682 755.798 382.709C755.744 382.737 755.689 382.764 755.634 382.791C755.58 382.818 755.484 382.832 755.348 382.832C755.211 382.832 755.088 382.846 754.979 382.873C754.87 382.9 754.679 382.9 754.406 382.873C753.314 382.9 752.617 382.941 752.317 382.996C752.017 383.05 751.771 383.201 751.58 383.446L748.263 396.47C748.29 396.47 750.802 394.504 755.798 390.572C760.795 386.641 763.361 384.62 763.498 384.511C763.88 384.129 764.071 383.815 764.071 383.569C764.071 383.16 763.73 382.928 763.047 382.873C762.61 382.873 762.392 382.723 762.392 382.423C762.392 382.368 762.433 382.177 762.515 381.849C762.597 381.522 762.665 381.317 762.72 381.235C762.801 381.098 763.034 381.03 763.416 381.03C763.525 381.03 764.003 381.044 764.849 381.071C765.696 381.098 766.788 381.112 768.126 381.112C768.754 381.112 769.409 381.098 770.091 381.071C770.774 381.044 771.183 381.03 771.32 381.03C771.866 381.03 772.139 381.167 772.139 381.44C772.139 382.04 772.03 382.45 771.811 382.668C771.73 382.805 771.47 382.873 771.033 382.873C768.986 383.01 767.129 383.706 765.463 384.962C765.027 385.235 764.071 385.945 762.597 387.091C761.122 388.238 759.757 389.317 758.501 390.327L756.576 391.842L756.945 392.743C757.191 393.344 757.573 394.258 758.092 395.487C758.61 396.716 759.088 397.876 759.525 398.968C761.573 403.801 762.665 406.299 762.801 406.463C762.856 406.518 762.924 406.572 763.006 406.627C763.388 406.9 764.085 407.05 765.095 407.077H765.955C766.119 407.296 766.201 407.419 766.201 407.446C766.201 407.473 766.16 407.719 766.078 408.183C765.969 408.538 765.832 408.797 765.668 408.961H765.218C764.126 408.879 762.829 408.838 761.327 408.838C757.996 408.838 756.126 408.879 755.716 408.961H755.307C755.143 408.797 755.061 408.674 755.061 408.593C755.061 408.511 755.088 408.265 755.143 407.855C755.252 407.5 755.334 407.282 755.389 407.2C755.443 407.118 755.593 407.077 755.839 407.077H755.962C757.327 407.077 758.01 406.736 758.01 406.053C758.01 405.944 757.641 404.989 756.904 403.187C756.167 401.385 755.73 400.361 755.593 400.115L753.218 394.463L750.433 396.634L747.648 398.804L746.706 402.613C746.078 405.125 745.764 406.449 745.764 406.586C745.764 406.777 745.874 406.9 746.092 406.954C746.31 407.009 746.993 407.05 748.14 407.077H749.409C749.573 407.323 749.655 407.473 749.655 407.528C749.655 407.965 749.559 408.374 749.368 408.756C749.232 408.893 749.013 408.961 748.713 408.961C748.631 408.961 748.126 408.947 747.198 408.92C746.269 408.893 744.904 408.879 743.102 408.879C741.409 408.879 740.113 408.879 739.212 408.879C738.311 408.879 737.819 408.893 737.737 408.92C737.246 408.92 737 408.784 737 408.511C737 408.456 737.041 408.265 737.123 407.937C737.232 407.5 737.341 407.255 737.451 407.2C737.56 407.145 737.874 407.105 738.392 407.077C739.13 407.077 739.949 407.036 740.85 406.954C741.232 406.872 741.491 406.709 741.628 406.463C741.71 406.354 742.693 402.559 744.577 395.078C746.461 387.596 747.402 383.651 747.402 383.242Z" fill="#FF0000"/>
<path d="M785.81 394.75C785.81 394.395 786.001 394.122 786.383 393.931H812.471C812.881 394.149 813.086 394.422 813.086 394.75C813.086 395.05 812.894 395.31 812.512 395.528L799.489 395.569H786.465C786.028 395.432 785.81 395.159 785.81 394.75ZM785.81 402.695C785.81 402.286 786.028 402.012 786.465 401.876H812.512C812.894 402.149 813.086 402.422 813.086 402.695C813.086 403.05 812.881 403.323 812.471 403.514H786.383C786.001 403.323 785.81 403.05 785.81 402.695Z" fill="#FF0000"/>
<path d="M844.49 357.604L843.957 357.809C843.575 357.945 843.029 358.082 842.319 358.218C841.609 358.355 840.817 358.45 839.944 358.505H839.166V356.621H839.944C841.227 356.566 842.415 356.362 843.507 356.007C844.599 355.652 845.363 355.324 845.8 355.024C846.237 354.724 846.619 354.423 846.947 354.123C847.002 354.041 847.165 354 847.438 354C847.684 354 847.916 354.082 848.135 354.246V366.491L848.176 378.778C848.367 378.969 848.53 379.092 848.667 379.146C848.804 379.201 849.131 379.255 849.65 379.31C850.169 379.365 851.015 379.392 852.189 379.392H853.254V381.276H852.803C852.23 381.194 850.059 381.153 846.292 381.153C842.578 381.153 840.435 381.194 839.862 381.276H839.37V379.392H840.435C841.036 379.392 841.555 379.392 841.991 379.392C842.428 379.392 842.77 379.378 843.015 379.351C843.261 379.324 843.479 379.283 843.671 379.228C843.862 379.173 843.971 379.146 843.998 379.146C844.025 379.146 844.107 379.078 844.244 378.941C844.38 378.805 844.462 378.75 844.49 378.778V357.604Z" fill="#FF0000"/>
<path d="M840.231 419.486C839.493 419.486 838.906 419.241 838.469 418.749C838.033 418.258 837.814 417.657 837.814 416.947C837.814 415.009 838.538 413.33 839.985 411.91C841.432 410.49 843.234 409.78 845.391 409.78C847.875 409.78 849.95 410.545 851.616 412.074C853.281 413.603 854.128 415.582 854.155 418.012C854.155 419.186 853.882 420.306 853.336 421.37C852.79 422.435 852.135 423.364 851.37 424.155C850.606 424.947 849.514 425.957 848.094 427.186C847.111 428.032 845.746 429.288 843.998 430.954L841.582 433.247L844.695 433.288C848.981 433.288 851.261 433.22 851.534 433.083C851.725 433.029 852.053 431.814 852.517 429.438V429.316H854.155V429.438C854.128 429.52 853.95 430.763 853.623 433.165C853.295 435.568 853.09 436.824 853.008 436.933V437.056H837.814V436.278V435.786C837.814 435.595 837.896 435.391 838.06 435.172C838.224 434.954 838.633 434.476 839.289 433.739C840.08 432.865 840.763 432.101 841.336 431.445C841.582 431.172 842.046 430.667 842.729 429.93C843.411 429.193 843.875 428.688 844.121 428.415C844.367 428.142 844.763 427.691 845.309 427.063C845.855 426.435 846.237 425.971 846.456 425.671C846.674 425.37 846.988 424.961 847.398 424.442C847.807 423.923 848.094 423.486 848.258 423.131C848.421 422.777 848.626 422.381 848.872 421.944C849.118 421.507 849.295 421.07 849.404 420.633C849.514 420.196 849.609 419.787 849.691 419.405C849.773 419.022 849.814 418.572 849.814 418.053C849.814 416.333 849.35 414.845 848.421 413.589C847.493 412.333 846.169 411.705 844.449 411.705C843.548 411.705 842.756 411.937 842.073 412.401C841.391 412.865 840.913 413.316 840.64 413.753C840.367 414.19 840.231 414.449 840.231 414.531C840.231 414.558 840.299 414.572 840.435 414.572C840.927 414.572 841.432 414.763 841.951 415.145C842.469 415.528 842.729 416.156 842.729 417.029C842.729 417.712 842.51 418.285 842.073 418.749C841.637 419.213 841.022 419.459 840.231 419.486Z" fill="#FF0000"/>
<path d="M860.339 399.951H831.671V397.494H860.339V399.951Z" fill="#FF0000"/>
<path d="M866.114 397.207C866.141 397.043 866.182 396.825 866.237 396.552C866.291 396.279 866.455 395.76 866.728 394.996C867.001 394.231 867.274 393.589 867.547 393.071C867.82 392.552 868.257 392.047 868.858 391.555C869.458 391.064 870.059 390.832 870.66 390.859C871.26 390.886 871.847 390.982 872.421 391.146C872.994 391.31 873.404 391.555 873.649 391.883C873.895 392.211 874.114 392.511 874.305 392.784C874.496 393.057 874.605 393.316 874.632 393.562L874.714 393.849C874.714 393.903 874.728 393.931 874.755 393.931L875.206 393.48C876.844 391.733 878.769 390.859 880.98 390.859C881.444 390.859 881.868 390.886 882.25 390.941C882.632 390.996 882.987 391.091 883.315 391.228C883.642 391.364 883.902 391.501 884.093 391.637C884.284 391.774 884.489 391.938 884.707 392.129C884.926 392.32 885.062 392.497 885.117 392.661C885.171 392.825 885.281 393.002 885.444 393.194C885.608 393.385 885.663 393.549 885.608 393.685C885.554 393.822 885.595 393.944 885.731 394.054C885.868 394.163 885.895 394.258 885.813 394.34L886.141 393.931C887.861 391.883 889.895 390.859 892.243 390.859C893.717 390.859 894.905 391.228 895.806 391.965C896.707 392.702 897.171 393.781 897.198 395.2C897.198 396.593 896.68 398.75 895.642 401.671C894.605 404.593 894.086 406.34 894.086 406.913C894.113 407.296 894.181 407.555 894.291 407.692C894.4 407.828 894.605 407.896 894.905 407.896C895.669 407.896 896.379 407.487 897.035 406.668C897.69 405.849 898.222 404.729 898.632 403.309C898.714 403.009 898.796 402.832 898.877 402.777C898.959 402.722 899.178 402.695 899.533 402.695C900.079 402.695 900.352 402.804 900.352 403.023C900.352 403.05 900.297 403.255 900.188 403.637C899.97 404.429 899.669 405.207 899.287 405.971C898.905 406.736 898.277 407.5 897.403 408.265C896.529 409.029 895.587 409.398 894.577 409.371C893.294 409.371 892.366 409.002 891.792 408.265C891.219 407.528 890.932 406.763 890.932 405.971C890.932 405.453 891.424 403.815 892.407 401.057C893.39 398.299 893.895 396.224 893.922 394.832C893.922 393.221 893.321 392.415 892.12 392.415H891.915C889.567 392.415 887.588 393.794 885.977 396.552L885.69 397.043L884.339 402.531C883.438 406.108 882.919 408.033 882.782 408.306C882.427 409.043 881.84 409.412 881.021 409.412C880.666 409.412 880.38 409.316 880.161 409.125C879.943 408.934 879.793 408.77 879.711 408.633C879.629 408.497 879.588 408.36 879.588 408.224C879.588 407.924 880.052 405.971 880.98 402.367L882.455 396.388C882.537 395.979 882.578 395.46 882.578 394.832C882.578 393.221 881.977 392.415 880.776 392.415H880.571C878.223 392.415 876.243 393.794 874.632 396.552L874.346 397.043L872.994 402.531C872.093 406.108 871.574 408.033 871.438 408.306C871.083 409.043 870.496 409.412 869.677 409.412C869.322 409.412 869.035 409.33 868.817 409.166C868.598 409.002 868.448 408.838 868.366 408.674C868.284 408.511 868.257 408.374 868.284 408.265C868.284 407.91 868.803 405.671 869.841 401.548C870.905 397.344 871.438 395.146 871.438 394.955C871.52 394.545 871.561 394.177 871.561 393.849C871.561 392.866 871.219 392.375 870.537 392.375C869.936 392.375 869.431 392.757 869.022 393.521C868.612 394.286 868.298 395.118 868.08 396.019C867.861 396.92 867.697 397.412 867.588 397.494C867.534 397.548 867.315 397.576 866.933 397.576H866.359C866.196 397.412 866.114 397.289 866.114 397.207Z" fill="#FF0000"/>
<path d="M908.297 393.398C908.297 392.716 908.038 392.375 907.519 392.375C906.863 392.375 906.181 392.77 905.471 393.562C904.761 394.354 904.174 395.569 903.71 397.207C903.683 397.234 903.655 397.275 903.628 397.33C903.601 397.385 903.587 397.426 903.587 397.453C903.587 397.48 903.56 397.507 903.505 397.535C903.451 397.562 903.41 397.576 903.382 397.576C903.355 397.576 903.3 397.576 903.219 397.576C903.137 397.576 903.027 397.576 902.891 397.576H902.318C902.154 397.412 902.072 397.289 902.072 397.207C902.072 397.016 902.181 396.62 902.399 396.019C902.618 395.419 902.945 394.709 903.382 393.89C903.819 393.071 904.42 392.375 905.184 391.801C905.949 391.228 906.809 390.927 907.764 390.9C908.911 390.9 909.799 391.228 910.427 391.883C911.054 392.538 911.382 393.303 911.409 394.177C911.409 394.641 911.368 394.996 911.287 395.241C911.287 395.405 911.082 396.006 910.672 397.043C910.263 398.081 909.84 399.296 909.403 400.688C908.966 402.081 908.72 403.296 908.665 404.333C908.665 405.07 908.734 405.671 908.87 406.135C909.225 407.309 910.085 407.896 911.45 407.896C912.461 407.896 913.403 407.432 914.276 406.504C915.15 405.576 915.833 404.497 916.324 403.268C916.815 402.04 917.211 400.907 917.512 399.869C917.812 398.832 917.962 398.081 917.962 397.617C917.962 396.989 917.853 396.443 917.635 395.979C917.416 395.514 917.17 395.159 916.897 394.914C916.624 394.668 916.379 394.422 916.16 394.177C915.942 393.931 915.833 393.63 915.833 393.276C915.833 392.675 916.092 392.115 916.611 391.596C917.129 391.078 917.689 390.818 918.29 390.818C918.809 390.818 919.273 391.064 919.682 391.555C920.092 392.047 920.31 392.839 920.338 393.931C920.338 394.668 920.174 395.801 919.846 397.33C919.518 398.859 919.013 400.565 918.331 402.449C917.648 404.333 916.679 405.958 915.423 407.323C914.167 408.688 912.72 409.384 911.082 409.412C909.334 409.412 907.942 408.961 906.904 408.06C905.894 407.186 905.389 405.89 905.389 404.169C905.389 403.323 905.498 402.449 905.717 401.548C905.935 400.647 906.495 399.05 907.396 396.757C907.997 395.009 908.297 393.89 908.297 393.398Z" fill="#FF0000"/>
<path d="M924.231 379.625C923.71 379.625 923.295 379.451 922.986 379.104C922.677 378.757 922.522 378.332 922.522 377.83C922.522 376.459 923.034 375.272 924.057 374.269C925.08 373.265 926.354 372.763 927.879 372.763C929.636 372.763 931.103 373.303 932.28 374.384C933.458 375.465 934.056 376.865 934.075 378.583C934.075 379.413 933.882 380.204 933.496 380.957C933.11 381.71 932.647 382.366 932.107 382.926C931.566 383.486 930.794 384.2 929.79 385.069C929.095 385.667 928.13 386.555 926.895 387.733L925.186 389.354L927.387 389.383C930.418 389.383 932.029 389.335 932.222 389.238C932.357 389.2 932.589 388.341 932.917 386.661V386.574H934.075V386.661C934.056 386.719 933.931 387.597 933.699 389.296C933.467 390.995 933.323 391.883 933.265 391.96V392.047H922.522V391.497V391.149C922.522 391.014 922.58 390.869 922.696 390.715C922.812 390.561 923.102 390.223 923.565 389.702C924.125 389.084 924.607 388.543 925.013 388.08C925.186 387.887 925.514 387.53 925.997 387.009C926.48 386.488 926.808 386.13 926.982 385.937C927.155 385.744 927.435 385.426 927.821 384.982C928.207 384.538 928.478 384.21 928.632 383.997C928.786 383.785 929.008 383.496 929.298 383.129C929.587 382.762 929.79 382.453 929.906 382.202C930.022 381.951 930.167 381.671 930.34 381.362C930.514 381.054 930.639 380.745 930.717 380.436C930.794 380.127 930.861 379.838 930.919 379.567C930.977 379.297 931.006 378.979 931.006 378.612C931.006 377.396 930.678 376.344 930.022 375.456C929.365 374.568 928.429 374.124 927.213 374.124C926.576 374.124 926.016 374.288 925.534 374.616C925.051 374.944 924.713 375.263 924.52 375.572C924.327 375.88 924.231 376.064 924.231 376.122C924.231 376.141 924.279 376.151 924.376 376.151C924.723 376.151 925.08 376.286 925.447 376.556C925.814 376.826 925.997 377.27 925.997 377.888C925.997 378.37 925.843 378.776 925.534 379.104C925.225 379.432 924.791 379.606 924.231 379.625Z" fill="#FF0000"/>
<path d="M924.491 424.525C924.53 424.525 924.588 424.545 924.665 424.583C924.742 424.622 924.849 424.651 924.984 424.67C925.119 424.689 925.235 424.699 925.331 424.699C925.582 424.699 925.814 424.574 926.026 424.323C926.238 424.072 926.393 423.792 926.489 423.483C926.682 422.962 927.01 421.485 927.474 419.053C927.937 416.621 928.381 414.304 928.806 412.104C929.23 409.903 929.443 408.793 929.443 408.774V408.687H928.082C927.175 408.687 926.692 408.668 926.634 408.629C926.557 408.571 926.518 408.475 926.518 408.339L926.721 407.529C926.76 407.432 926.837 407.384 926.953 407.384C927.068 407.384 927.522 407.374 928.313 407.355C929.24 407.355 929.703 407.345 929.703 407.326C929.703 407.287 929.79 406.805 929.964 405.878C930.138 404.952 930.253 404.392 930.311 404.199C931.026 401.014 932.435 399.421 934.539 399.421C935.253 399.46 935.842 399.672 936.305 400.058C936.768 400.444 937 400.956 937 401.593C937 402.288 936.797 402.79 936.392 403.099C935.987 403.407 935.581 403.572 935.176 403.591C934.326 403.591 933.902 403.186 933.902 402.375C933.902 402.008 934.008 401.689 934.22 401.419C934.433 401.149 934.664 400.946 934.915 400.811L935.176 400.666C934.867 400.551 934.577 400.493 934.307 400.493C934.075 400.493 933.853 400.589 933.641 400.782C933.429 400.975 933.284 401.246 933.207 401.593C933.072 402.153 932.917 402.906 932.744 403.851C932.57 404.797 932.415 405.598 932.28 406.255C932.145 406.911 932.078 407.258 932.078 407.297C932.078 407.336 932.608 407.355 933.67 407.355C934.539 407.355 935.041 407.365 935.176 407.384C935.311 407.403 935.417 407.461 935.494 407.558C935.514 407.635 935.494 407.799 935.436 408.05C935.378 408.301 935.33 408.455 935.292 408.513C935.253 408.61 935.166 408.658 935.031 408.658C934.896 408.658 934.375 408.668 933.467 408.687H931.846L931.18 412.219C930.253 417.007 929.607 419.999 929.24 421.195C928.719 422.836 928.043 424.052 927.213 424.844C926.499 425.462 925.794 425.77 925.099 425.77C924.482 425.77 923.922 425.587 923.42 425.22C922.918 424.853 922.667 424.332 922.667 423.657C922.667 422.942 922.87 422.421 923.275 422.093C923.681 421.765 924.086 421.601 924.491 421.601C925.341 421.601 925.765 422.006 925.765 422.817C925.765 423.184 925.659 423.502 925.447 423.772C925.235 424.043 925.003 424.245 924.752 424.381L924.491 424.525Z" fill="#FF0000"/>
<path d="M256.646 479.859V487.975H253.746C253.277 486.275 252.682 484.928 251.959 483.932C251.236 482.916 250.396 482.193 249.439 481.764C248.482 481.334 247.33 481.119 245.982 481.119C243.971 481.119 242.174 481.793 240.592 483.141C239.029 484.469 237.799 486.48 236.9 489.176C236.002 491.852 235.553 495.094 235.553 498.902C235.553 502.73 235.924 506.002 236.666 508.717C237.408 511.412 238.502 513.453 239.947 514.84C241.393 516.207 243.17 516.891 245.279 516.891C246.881 516.891 248.189 516.666 249.205 516.217C250.221 515.748 251.07 515.016 251.754 514.02C252.457 513.023 253.121 511.559 253.746 509.625H256.646V518.004C254.811 518.492 252.926 518.854 250.992 519.088C249.078 519.342 246.969 519.469 244.664 519.469C239.703 519.469 235.953 517.789 233.414 514.43C230.875 511.07 229.605 506.061 229.605 499.4C229.605 495.221 230.26 491.559 231.568 488.414C232.896 485.27 234.84 482.838 237.398 481.119C239.957 479.4 243.014 478.541 246.568 478.541C248.346 478.541 249.986 478.639 251.49 478.834C252.994 479.01 254.713 479.352 256.646 479.859ZM270.533 511.676C270.533 513.355 270.611 514.527 270.768 515.191C270.924 515.836 271.217 516.334 271.646 516.686C272.096 517.018 272.818 517.311 273.814 517.564V519H262.184V517.564C263.16 517.311 263.834 517.047 264.205 516.773C264.596 516.5 264.869 516.178 265.025 515.807C265.201 515.416 265.318 514.898 265.377 514.254C265.455 513.59 265.494 512.73 265.494 511.676V487.154C265.494 485.279 265.475 483.971 265.436 483.229C265.416 482.486 265.338 481.861 265.201 481.354C265.084 480.826 264.908 480.416 264.674 480.123C264.459 479.83 264.156 479.596 263.766 479.42C263.395 479.244 262.711 479.068 261.715 478.893V477.369L268.775 477.076H270.533V511.676ZM287.379 479.508V485.191H281.988V479.508H287.379ZM279 517.564C279.762 517.33 280.299 517.125 280.611 516.949C280.943 516.773 281.217 516.529 281.432 516.217C281.666 515.904 281.842 515.426 281.959 514.781C282.096 514.137 282.164 513.131 282.164 511.764V498.99C282.164 497.74 282.145 496.734 282.105 495.973C282.066 495.211 281.93 494.605 281.695 494.156C281.461 493.688 281.1 493.346 280.611 493.131C280.143 492.896 279.469 492.701 278.59 492.545V490.992L285.416 490.729H287.203V511.676C287.203 513.355 287.281 514.527 287.438 515.191C287.594 515.836 287.887 516.334 288.316 516.686C288.766 517.018 289.488 517.311 290.484 517.564V519H279V517.564ZM317.525 491.666V497.789H313.805C313.473 496.52 313.062 495.523 312.574 494.801C312.086 494.059 311.52 493.541 310.875 493.248C310.23 492.955 309.43 492.809 308.473 492.809C307.105 492.809 305.895 493.248 304.84 494.127C303.785 495.006 302.945 496.344 302.32 498.141C301.715 499.938 301.412 502.135 301.412 504.732C301.412 506.393 301.529 507.916 301.764 509.303C301.998 510.67 302.398 511.842 302.965 512.818C303.531 513.795 304.283 514.557 305.221 515.104C306.158 515.65 307.32 515.924 308.707 515.924C310.055 515.924 311.305 515.66 312.457 515.133C313.629 514.605 314.84 513.678 316.09 512.35L317.76 514.283C316.764 515.377 315.885 516.227 315.123 516.832C314.361 517.418 313.541 517.916 312.662 518.326C311.803 518.717 310.943 519 310.084 519.176C309.244 519.371 308.326 519.469 307.33 519.469C303.639 519.469 300.816 518.248 298.863 515.807C296.91 513.346 295.934 509.801 295.934 505.172C295.934 502.281 296.48 499.723 297.574 497.496C298.668 495.25 300.201 493.521 302.174 492.311C304.146 491.1 306.422 490.494 309 490.494C310.602 490.494 312.076 490.592 313.424 490.787C314.791 490.963 316.158 491.256 317.525 491.666ZM330.006 502.682H330.943C331.588 502.682 332.115 502.613 332.525 502.477C333.014 502.301 333.551 502.008 334.137 501.598C334.723 501.168 335.553 500.455 336.627 499.459C337.525 498.619 338.199 497.906 338.648 497.32C339.117 496.734 339.439 496.197 339.615 495.709C339.771 495.299 339.85 494.889 339.85 494.479C339.85 493.893 339.664 493.434 339.293 493.102C338.941 492.77 338.355 492.545 337.535 492.428V490.992H350.162V492.428C349.264 492.604 348.307 493.004 347.291 493.629C346.275 494.254 345.23 495.074 344.156 496.09L337.418 502.477L345.855 513.492C346.832 514.781 347.711 515.738 348.492 516.363C349.293 516.969 350.162 517.369 351.1 517.564V519H339.85V517.564C340.357 517.506 340.729 517.398 340.963 517.242C341.217 517.066 341.344 516.783 341.344 516.393C341.344 516.1 341.285 515.816 341.168 515.543C341.07 515.25 340.855 514.859 340.523 514.371C340.191 513.883 339.586 513.033 338.707 511.822L335.221 507.135C334.557 506.256 334.078 505.68 333.785 505.406C333.512 505.133 333.219 504.938 332.906 504.82C332.594 504.703 332.174 504.645 331.646 504.645H330.006V511.676C330.006 513.355 330.084 514.527 330.24 515.191C330.396 515.836 330.689 516.334 331.119 516.686C331.568 517.018 332.291 517.311 333.287 517.564V519H321.656V517.564C322.633 517.311 323.307 517.047 323.678 516.773C324.068 516.5 324.342 516.178 324.498 515.807C324.674 515.416 324.791 514.898 324.85 514.254C324.928 513.59 324.967 512.73 324.967 511.676V487.154C324.967 485.279 324.947 483.971 324.908 483.229C324.889 482.486 324.811 481.861 324.674 481.354C324.557 480.826 324.381 480.416 324.146 480.123C323.932 479.83 323.629 479.596 323.238 479.42C322.867 479.244 322.184 479.068 321.188 478.893V477.369L328.248 477.076H330.006V502.682ZM374.742 495.592L374.859 495.621C376.383 494.078 377.584 493.004 378.463 492.398C379.361 491.773 380.24 491.305 381.1 490.992C381.979 490.68 382.916 490.523 383.912 490.523C384.986 490.523 385.943 490.65 386.783 490.904C387.623 491.158 388.355 491.549 388.98 492.076C389.625 492.584 390.143 493.219 390.533 493.98C390.943 494.723 391.246 495.621 391.441 496.676C391.637 497.711 391.734 499.029 391.734 500.631V511.676C391.734 513.375 391.803 514.537 391.939 515.162C392.096 515.768 392.359 516.246 392.73 516.598C393.121 516.93 393.893 517.252 395.045 517.564V519H383.502V517.564C384.264 517.33 384.811 517.125 385.143 516.949C385.475 516.773 385.748 516.529 385.963 516.217C386.197 515.904 386.373 515.426 386.49 514.781C386.627 514.117 386.695 513.121 386.695 511.793V504.117C386.695 501.52 386.559 499.537 386.285 498.17C386.031 496.783 385.514 495.748 384.732 495.064C383.971 494.381 382.896 494.039 381.51 494.039C380.729 494.039 380.025 494.176 379.4 494.449C378.775 494.723 378.053 495.211 377.232 495.914C376.412 496.617 375.787 497.34 375.357 498.082C374.947 498.824 374.742 499.615 374.742 500.455V511.676C374.742 513.004 374.771 513.951 374.83 514.518C374.908 515.084 375.045 515.562 375.24 515.953C375.436 516.324 375.729 516.637 376.119 516.891C376.529 517.125 377.154 517.35 377.994 517.564V519H366.393V517.564C367.252 517.33 367.867 517.105 368.238 516.891C368.609 516.676 368.893 516.402 369.088 516.07C369.303 515.738 369.459 515.26 369.557 514.635C369.654 514.01 369.703 513.023 369.703 511.676V487.154C369.703 485.279 369.684 483.971 369.645 483.229C369.625 482.486 369.547 481.861 369.41 481.354C369.293 480.826 369.117 480.416 368.883 480.123C368.668 479.83 368.365 479.596 367.975 479.42C367.604 479.244 366.92 479.068 365.924 478.893V477.369L372.984 477.076H374.742V495.592ZM423.404 514.02C422.154 515.328 421.002 516.354 419.947 517.096C418.912 517.838 417.77 518.424 416.52 518.854C415.27 519.264 413.893 519.469 412.389 519.469C408.365 519.469 405.328 518.268 403.277 515.865C401.227 513.443 400.201 509.879 400.201 505.172C400.201 502.262 400.719 499.693 401.754 497.467C402.809 495.24 404.303 493.521 406.236 492.311C408.17 491.1 410.396 490.494 412.916 490.494C414.889 490.494 416.568 490.807 417.955 491.432C419.342 492.057 420.445 492.916 421.266 494.01C422.105 495.084 422.75 496.451 423.199 498.111C423.668 499.752 423.932 501.9 423.99 504.557H405.533V505.084C405.533 507.389 405.787 509.332 406.295 510.914C406.822 512.477 407.672 513.707 408.844 514.605C410.035 515.484 411.578 515.924 413.473 515.924C415.074 515.924 416.51 515.631 417.779 515.045C419.068 514.439 420.348 513.463 421.617 512.115L423.404 514.02ZM418.482 502.125C418.365 500.016 418.102 498.297 417.691 496.969C417.281 495.621 416.666 494.596 415.846 493.893C415.025 493.17 413.951 492.809 412.623 492.809C410.611 492.809 409 493.619 407.789 495.24C406.598 496.842 405.895 499.137 405.68 502.125H418.482ZM437.203 495.855L437.613 495.943C438.688 494.635 439.684 493.609 440.602 492.867C441.52 492.105 442.506 491.52 443.561 491.109C444.635 490.699 445.846 490.494 447.193 490.494C448.326 490.494 449.352 490.553 450.27 490.67V497.408H446.959C446.49 496.354 445.992 495.592 445.465 495.123C444.938 494.635 444.215 494.391 443.297 494.391C442.594 494.391 441.891 494.596 441.188 495.006C440.504 495.416 439.84 496.012 439.195 496.793C438.551 497.574 438.102 498.307 437.848 498.99C437.613 499.674 437.496 500.484 437.496 501.422V511.676C437.496 513.453 437.604 514.684 437.818 515.367C438.033 516.031 438.385 516.52 438.873 516.832C439.381 517.145 440.133 517.389 441.129 517.564V519H429.322V517.564C430.064 517.33 430.592 517.125 430.904 516.949C431.236 516.773 431.52 516.529 431.754 516.217C431.988 515.904 432.164 515.426 432.281 514.781C432.398 514.137 432.457 513.131 432.457 511.764V498.99C432.457 497.74 432.438 496.734 432.398 495.973C432.359 495.211 432.223 494.605 431.988 494.156C431.754 493.688 431.393 493.346 430.904 493.131C430.436 492.896 429.762 492.701 428.883 492.545V491.021L435.738 490.729H437.525L437.203 495.855ZM476.666 514.02C475.416 515.328 474.264 516.354 473.209 517.096C472.174 517.838 471.031 518.424 469.781 518.854C468.531 519.264 467.154 519.469 465.65 519.469C461.627 519.469 458.59 518.268 456.539 515.865C454.488 513.443 453.463 509.879 453.463 505.172C453.463 502.262 453.98 499.693 455.016 497.467C456.07 495.24 457.564 493.521 459.498 492.311C461.432 491.1 463.658 490.494 466.178 490.494C468.15 490.494 469.83 490.807 471.217 491.432C472.604 492.057 473.707 492.916 474.527 494.01C475.367 495.084 476.012 496.451 476.461 498.111C476.93 499.752 477.193 501.9 477.252 504.557H458.795V505.084C458.795 507.389 459.049 509.332 459.557 510.914C460.084 512.477 460.934 513.707 462.105 514.605C463.297 515.484 464.84 515.924 466.734 515.924C468.336 515.924 469.771 515.631 471.041 515.045C472.33 514.439 473.609 513.463 474.879 512.115L476.666 514.02ZM471.744 502.125C471.627 500.016 471.363 498.297 470.953 496.969C470.543 495.621 469.928 494.596 469.107 493.893C468.287 493.17 467.213 492.809 465.885 492.809C463.873 492.809 462.262 493.619 461.051 495.24C459.859 496.842 459.156 499.137 458.941 502.125H471.744ZM491.52 479.01L489.615 506.812H486.773L485.338 479.01H491.52ZM491.227 512.203V519H485.367V512.203H491.227Z" fill="black"/>
<path d="M183 226L169.129 200.683L154.14 225.354L183 226ZM102.702 180.137L162.473 216.453L165.069 212.18L105.298 175.863L102.702 180.137Z" fill="#89481A"/>
<path d="M149.715 276.395C149.238 276.395 149 276.255 149 275.975C149 275.919 149.042 275.722 149.126 275.386C149.238 274.938 149.35 274.685 149.462 274.629C149.575 274.573 149.897 274.531 150.429 274.503C151.186 274.503 152.027 274.461 152.952 274.377C153.345 274.293 153.611 274.125 153.751 273.872C153.807 273.732 154.802 269.794 156.736 262.058C158.67 254.322 159.651 250.398 159.679 250.286C159.679 250.09 159.623 249.992 159.511 249.992C159.287 249.907 158.544 249.837 157.283 249.781H155.979C155.811 249.613 155.727 249.501 155.727 249.445C155.727 249.389 155.755 249.151 155.811 248.73C155.923 248.254 156.063 247.959 156.232 247.847H178.893C179.089 247.959 179.187 248.114 179.187 248.31C179.187 248.45 179.005 250.02 178.641 253.019C178.277 256.018 178.08 257.559 178.052 257.644C177.996 257.84 177.716 257.938 177.211 257.938H176.707C176.511 257.798 176.413 257.615 176.413 257.391C176.413 257.363 176.455 257.027 176.539 256.382C176.623 255.738 176.665 254.995 176.665 254.154C176.665 253.313 176.567 252.626 176.371 252.094C176.174 251.561 175.908 251.127 175.572 250.79C175.235 250.454 174.717 250.23 174.016 250.118C173.315 250.006 172.601 249.907 171.872 249.823C171.143 249.739 170.134 249.725 168.845 249.781H167.878C165.579 249.809 164.36 249.851 164.22 249.907C164.08 249.964 163.982 250.076 163.926 250.244C163.898 250.272 163.421 252.108 162.496 255.752L161.151 261.175H163.463C163.547 261.175 163.869 261.175 164.43 261.175C164.991 261.175 165.383 261.161 165.607 261.133C165.832 261.105 166.14 261.063 166.532 261.007C166.925 260.951 167.261 260.853 167.541 260.713C167.822 260.573 168.06 260.404 168.256 260.208C168.62 259.872 168.929 259.409 169.181 258.821C169.433 258.232 169.615 257.7 169.728 257.223C169.84 256.747 169.91 256.494 169.938 256.466C170.022 256.326 170.288 256.256 170.737 256.256H171.241C171.437 256.396 171.535 256.536 171.535 256.677C171.535 256.761 171.101 258.597 170.232 262.184C169.363 265.772 168.887 267.622 168.803 267.734C168.747 267.93 168.466 268.028 167.962 268.028H167.457C167.261 267.86 167.163 267.692 167.163 267.524C167.163 267.44 167.233 267.131 167.373 266.599C167.513 266.066 167.583 265.506 167.583 264.917C167.583 264.104 167.303 263.6 166.742 263.404C166.182 263.207 164.935 263.109 163.001 263.109H160.688L159.343 268.449C158.446 271.924 157.997 273.746 157.997 273.914C157.997 274.307 159.245 274.503 161.739 274.503H162.79C162.959 274.671 163.043 274.769 163.043 274.797C163.043 274.825 163.015 275.106 162.959 275.638C162.846 276.003 162.706 276.269 162.538 276.437H161.823C160.674 276.381 158.558 276.353 155.475 276.353C153.653 276.353 152.265 276.353 151.312 276.353C150.359 276.353 149.827 276.367 149.715 276.395Z" fill="#A52A2A"/>
<path d="M178.238 287.559C178.278 287.559 178.337 287.579 178.417 287.619C178.496 287.658 178.605 287.688 178.744 287.708C178.882 287.728 179.001 287.737 179.1 287.737C179.358 287.737 179.596 287.609 179.814 287.351C180.032 287.093 180.19 286.806 180.289 286.489C180.488 285.954 180.824 284.438 181.3 281.941C181.776 279.444 182.231 277.066 182.667 274.807C183.103 272.548 183.321 271.409 183.321 271.389V271.3H181.924C180.993 271.3 180.497 271.28 180.438 271.24C180.359 271.181 180.319 271.082 180.319 270.943L180.527 270.111C180.567 270.011 180.646 269.962 180.765 269.962C180.884 269.962 181.35 269.952 182.162 269.932C183.113 269.932 183.589 269.922 183.589 269.902C183.589 269.863 183.678 269.367 183.856 268.416C184.035 267.465 184.154 266.89 184.213 266.692C184.946 263.422 186.393 261.788 188.553 261.788C189.286 261.827 189.891 262.045 190.366 262.442C190.842 262.838 191.08 263.363 191.08 264.017C191.08 264.73 190.872 265.246 190.455 265.563C190.039 265.88 189.623 266.048 189.207 266.068C188.335 266.068 187.899 265.652 187.899 264.82C187.899 264.443 188.008 264.116 188.226 263.839C188.444 263.561 188.682 263.353 188.939 263.214L189.207 263.066C188.89 262.947 188.593 262.887 188.315 262.887C188.077 262.887 187.849 262.986 187.631 263.185C187.414 263.383 187.265 263.66 187.186 264.017C187.047 264.592 186.888 265.364 186.71 266.335C186.532 267.306 186.373 268.129 186.234 268.803C186.096 269.476 186.026 269.833 186.026 269.873C186.026 269.912 186.571 269.932 187.661 269.932C188.553 269.932 189.068 269.942 189.207 269.962C189.346 269.982 189.455 270.041 189.534 270.14C189.554 270.22 189.534 270.388 189.474 270.646C189.415 270.903 189.365 271.062 189.326 271.121C189.286 271.22 189.197 271.27 189.058 271.27C188.92 271.27 188.385 271.28 187.453 271.3H185.789L185.105 274.926C184.154 279.841 183.49 282.912 183.113 284.141C182.578 285.825 181.885 287.074 181.033 287.886C180.299 288.52 179.576 288.837 178.863 288.837C178.228 288.837 177.654 288.649 177.139 288.273C176.623 287.896 176.366 287.361 176.366 286.667C176.366 285.934 176.574 285.399 176.99 285.062C177.406 284.725 177.822 284.557 178.238 284.557C179.11 284.557 179.546 284.973 179.546 285.805C179.546 286.182 179.437 286.509 179.219 286.786C179.001 287.064 178.764 287.272 178.506 287.41L178.238 287.559Z" fill="#A52A2A"/>
<path d="M179.284 237.841C179.284 237.617 179.354 237.42 179.494 237.252C179.634 237.084 179.845 237 180.125 237C180.321 237 180.489 237.07 180.629 237.21C180.77 237.322 180.91 237.589 181.05 238.009C181.33 239.046 181.905 239.845 182.774 240.406C183.082 240.602 183.236 240.854 183.236 241.162C183.236 241.415 183.194 241.583 183.11 241.667C183.026 241.751 182.83 241.877 182.521 242.045C181.316 242.662 180.265 243.545 179.368 244.694C179.312 244.75 179.242 244.834 179.158 244.946C179.074 245.058 179.004 245.142 178.948 245.199C178.892 245.255 178.822 245.283 178.738 245.283C178.653 245.283 178.555 245.297 178.443 245.325C178.247 245.325 178.065 245.255 177.897 245.114C177.728 244.974 177.63 244.764 177.602 244.484C177.602 243.951 178.261 243.124 179.578 242.003H172.389L165.199 241.961C164.835 241.709 164.653 241.443 164.653 241.162C164.653 240.966 164.835 240.686 165.199 240.321H180.293C179.62 239.256 179.284 238.429 179.284 237.841Z" fill="#A52A2A"/>
</svg>
