<svg width="924" height="548" viewBox="0 0 924 548" fill="none" xmlns="http://www.w3.org/2000/svg">
<path d="M74 160L68.2265 170L79.7735 170L74 160ZM74 416L79.7735 406L68.2265 406L74 416ZM73 169L73 407L75 407L75 169L73 169Z" fill="black"/>
<path d="M6.7802 245.838C6.83099 245.838 8.65935 245.711 12.2653 245.457C15.8712 245.203 17.725 245.051 17.8266 245C18.436 245 18.7408 245.229 18.7408 245.686C18.7408 246.244 17.8266 250.079 15.9982 257.189C14.0683 264.706 13.1033 268.54 13.1033 268.693C13.1033 268.794 13.2811 268.667 13.6366 268.312C16.7346 265.569 20.0359 264.198 23.5402 264.198C26.2828 264.198 28.4921 264.884 30.1681 266.255C31.8441 267.626 32.7075 269.632 32.7583 272.273C32.7583 274.863 31.7933 278.876 29.8633 284.31C27.9334 289.744 26.9684 292.995 26.9684 294.061C27.0192 294.772 27.1462 295.255 27.3493 295.509C27.5525 295.763 27.9334 295.89 28.4921 295.89C29.9141 295.89 31.2346 295.128 32.4535 293.604C33.6724 292.081 34.6628 289.998 35.4246 287.357C35.577 286.799 35.7294 286.468 35.8817 286.367C36.0341 286.265 36.4404 286.215 37.1006 286.215C38.1164 286.215 38.6243 286.418 38.6243 286.824C38.6243 286.875 38.5227 287.256 38.3195 287.967C37.5069 290.963 36.2118 293.426 34.4343 295.356C32.7075 297.54 30.6506 298.632 28.2635 298.632H27.8826C25.4956 298.632 23.7688 297.947 22.7022 296.575C21.6357 295.204 21.1024 293.757 21.1024 292.233C21.1024 291.42 22.0166 288.424 23.845 283.243C25.6733 278.063 26.6129 274.178 26.6637 271.588C26.6637 268.591 25.5464 267.093 23.3117 267.093H22.9308C18.7154 267.093 15.0586 269.581 11.9606 274.559L11.4273 275.549L8.83711 285.834C7.2119 292.436 6.27232 296.042 6.01838 296.651C5.35813 298.023 4.2408 298.708 2.66637 298.708C1.95534 298.708 1.34588 298.48 0.838002 298.023C0.330122 297.566 0.050788 297.109 0 296.651C0 295.94 1.85376 288.221 5.56129 273.492L11.1988 250.942C11.1988 250.282 11.021 249.876 10.6655 249.723C10.31 249.571 9.3196 249.444 7.69438 249.342H6.09456C5.78983 249.038 5.63747 248.835 5.63747 248.733C5.63747 248.631 5.68826 248.149 5.78983 247.286C6.04377 246.321 6.37389 245.838 6.7802 245.838Z" fill="#008000"/>
<path d="M45.3948 277.789C47.4056 274.881 50.1525 273.426 53.6354 273.426C55.359 273.426 57.0825 273.893 58.8061 274.827C60.5296 275.76 61.93 277.412 63.0072 279.782C64.3358 282.762 65 286.856 65 292.062C65 297.628 64.228 301.883 62.684 304.827C61.9659 306.335 60.9785 307.538 59.7217 308.436C58.465 309.334 57.3698 309.89 56.4362 310.106C55.5026 310.321 54.587 310.447 53.6893 310.483C52.7557 310.483 51.8221 310.375 50.8886 310.159C49.955 309.944 48.8598 309.369 47.6031 308.436C46.3463 307.502 45.3589 306.299 44.6407 304.827C43.0967 301.883 42.3247 297.628 42.3247 292.062C42.3247 285.814 43.3481 281.057 45.3948 277.789ZM57.5134 277.143C56.4362 275.994 55.1615 275.419 53.6893 275.419C52.1812 275.419 50.8886 275.994 49.8113 277.143C48.9137 278.076 48.3212 279.369 48.0339 281.021C47.7467 282.672 47.6031 286.12 47.6031 291.362C47.6031 297.035 47.7467 300.77 48.0339 302.565C48.3212 304.36 48.9675 305.779 49.9729 306.82C50.9783 307.897 52.2171 308.436 53.6893 308.436C55.1256 308.436 56.3464 307.897 57.3518 306.82C58.3931 305.743 59.0395 304.235 59.2908 302.296C59.5422 300.357 59.6858 296.712 59.7217 291.362C59.7217 286.155 59.5781 282.726 59.2908 281.075C59.0036 279.423 58.4111 278.112 57.5134 277.143Z" fill="#008000"/>
<path d="M86 405.5V163.633L494.028 405.5H86Z" fill="#CDFFA6" stroke="#0A6B08" stroke-width="3"/>
<path d="M573.325 410.487C493.647 401.473 447.18 397.015 469.719 354.096" stroke="black" stroke-width="3"/>
<line y1="-1.5" x2="12.1916" y2="-1.5" transform="matrix(0.109998 -0.993932 -0.993932 -0.109998 550.235 406.816)" stroke="black" stroke-width="3"/>
<line y1="-1.5" x2="13.6776" y2="-1.5" transform="matrix(0.155706 -0.987803 -0.987803 -0.155706 502.553 400.059)" stroke="black" stroke-width="3"/>
<rect width="69.1229" height="7.66179" transform="matrix(-0.987477 -0.157762 -0.157762 0.987477 565.913 389.938)" fill="#89481A"/>
<path d="M410 337L424.692 361.849L438.866 336.701L410 337ZM466.228 365.822L430.828 345.87L428.373 350.226L463.772 370.178L466.228 365.822Z" fill="#FF0606"/>
<path d="M507.805 359.112C507.886 358.858 508.002 358.519 508.152 358.097C508.301 357.675 508.681 356.886 509.292 355.732C509.903 354.577 510.485 353.618 511.039 352.855C511.593 352.091 512.405 351.387 513.474 350.743C514.544 350.098 515.554 349.867 516.504 350.048C517.454 350.23 518.367 350.517 519.242 350.91C520.118 351.302 520.714 351.788 521.03 352.366C521.346 352.944 521.624 353.473 521.866 353.952C522.108 354.43 522.222 354.868 522.209 355.266L522.273 355.741C522.261 355.828 522.276 355.875 522.32 355.881L523.141 355.267C526.151 352.861 529.417 351.912 532.939 352.421C533.678 352.527 534.346 352.668 534.942 352.843C535.538 353.018 536.082 353.252 536.572 353.544C537.062 353.837 537.444 354.114 537.717 354.375C537.99 354.637 538.279 354.945 538.582 355.299C538.886 355.654 539.063 355.968 539.112 356.241C539.162 356.515 539.295 356.822 539.512 357.164C539.729 357.506 539.778 357.78 539.66 357.985C539.541 358.189 539.578 358.395 539.77 358.6C539.963 358.805 539.984 358.964 539.835 359.075L540.451 358.498C543.661 355.633 547.135 354.47 550.875 355.009C553.223 355.348 555.029 356.208 556.295 357.589C557.56 358.97 558.051 360.795 557.768 363.062C557.448 365.279 556.126 368.595 553.803 373.009C551.479 377.423 550.251 380.086 550.119 380.999C550.075 381.614 550.124 382.043 550.267 382.285C550.409 382.528 550.72 382.684 551.198 382.753C552.415 382.929 553.64 382.439 554.872 381.286C556.103 380.132 557.209 378.472 558.187 376.305C558.387 375.845 558.558 375.582 558.701 375.513C558.844 375.445 559.198 375.452 559.763 375.534C560.633 375.659 561.043 375.896 560.992 376.244C560.986 376.287 560.852 376.601 560.59 377.184C560.06 378.395 559.403 379.565 558.619 380.695C557.834 381.824 556.659 382.897 555.091 383.914C553.524 384.931 551.94 385.301 550.337 385.025C548.294 384.73 546.9 383.93 546.156 382.624C545.413 381.319 545.132 380.035 545.314 378.774C545.433 377.948 546.592 375.452 548.792 371.287C550.991 367.121 552.272 363.933 552.636 361.722C553.006 359.156 552.234 357.736 550.321 357.46L549.995 357.413C546.256 356.873 542.787 358.614 539.588 362.635L539.018 363.351L535.604 371.78C533.347 377.269 532.079 380.215 531.799 380.618C531.064 381.711 530.044 382.163 528.74 381.975C528.175 381.893 527.74 381.675 527.436 381.32C527.132 380.966 526.931 380.67 526.832 380.434C526.733 380.198 526.699 379.971 526.73 379.754C526.799 379.275 527.987 376.273 530.294 370.747L534.016 361.564C534.241 360.931 534.425 360.114 534.57 359.114C534.94 356.549 534.169 355.128 532.255 354.852L531.929 354.805C528.19 354.265 524.721 356.006 521.522 360.027L520.952 360.744L517.538 369.173C515.281 374.661 514.013 377.607 513.733 378.011C512.998 379.103 511.979 379.555 510.674 379.367C510.109 379.285 509.671 379.089 509.361 378.778C509.051 378.467 508.849 378.171 508.757 377.892C508.664 377.612 508.652 377.388 508.72 377.221C508.802 376.656 510.143 373.209 512.742 366.882C515.405 360.431 516.758 357.054 516.802 356.749C517.026 356.116 517.176 355.538 517.251 355.017C517.477 353.451 517.047 352.59 515.96 352.433C515.003 352.295 514.111 352.788 513.283 353.911C512.455 355.034 511.764 356.288 511.209 357.673C510.654 359.058 510.28 359.803 510.087 359.908C509.988 359.982 509.634 359.976 509.025 359.888L508.112 359.756C507.889 359.457 507.787 359.243 507.805 359.112Z" fill="black"/>
<path d="M419.204 304.438C419.204 303.428 418.821 302.924 418.054 302.924C417.085 302.924 416.075 303.509 415.026 304.68C413.976 305.85 413.108 307.647 412.422 310.069C412.382 310.109 412.341 310.17 412.301 310.251C412.261 310.331 412.24 310.392 412.24 310.432C412.24 310.473 412.2 310.513 412.119 310.553C412.039 310.594 411.978 310.614 411.938 310.614C411.897 310.614 411.817 310.614 411.695 310.614C411.574 310.614 411.413 310.614 411.211 310.614H410.363C410.121 310.372 410 310.19 410 310.069C410 309.786 410.161 309.201 410.484 308.313C410.807 307.425 411.292 306.375 411.938 305.164C412.584 303.953 413.472 302.924 414.602 302.076C415.732 301.228 417.004 300.784 418.417 300.744C420.112 300.744 421.424 301.228 422.353 302.197C423.281 303.166 423.766 304.296 423.806 305.588C423.806 306.274 423.746 306.799 423.624 307.162C423.624 307.405 423.322 308.293 422.716 309.827C422.111 311.361 421.485 313.157 420.839 315.216C420.193 317.275 419.83 319.071 419.749 320.605C419.749 321.695 419.85 322.583 420.052 323.27C420.577 325.005 421.848 325.873 423.867 325.873C425.36 325.873 426.753 325.187 428.045 323.814C429.337 322.442 430.346 320.847 431.072 319.031C431.799 317.214 432.384 315.539 432.829 314.005C433.273 312.471 433.495 311.361 433.495 310.674C433.495 309.746 433.333 308.939 433.01 308.252C432.687 307.566 432.324 307.041 431.92 306.678C431.517 306.315 431.153 305.951 430.83 305.588C430.507 305.225 430.346 304.781 430.346 304.256C430.346 303.368 430.729 302.54 431.496 301.773C432.263 301.006 433.091 300.623 433.979 300.623C434.746 300.623 435.432 300.986 436.038 301.713C436.643 302.439 436.966 303.61 437.007 305.225C437.007 306.315 436.764 307.99 436.28 310.251C435.796 312.511 435.049 315.034 434.04 317.82C433.03 320.605 431.597 323.007 429.74 325.026C427.883 327.044 425.744 328.073 423.322 328.114C420.738 328.114 418.679 327.448 417.145 326.116C415.652 324.824 414.905 322.906 414.905 320.363C414.905 319.112 415.066 317.82 415.389 316.488C415.712 315.155 416.54 312.794 417.872 309.403C418.76 306.819 419.204 305.164 419.204 304.438Z" fill="#FF0000"/>
<path d="M442.206 311.486C443.805 309.174 445.988 308.019 448.756 308.019C450.126 308.019 451.496 308.39 452.866 309.132C454.236 309.874 455.349 311.187 456.206 313.07C457.262 315.439 457.79 318.693 457.79 322.831C457.79 327.255 457.176 330.637 455.949 332.977C455.378 334.176 454.593 335.132 453.594 335.846C452.595 336.559 451.725 337.002 450.983 337.173C450.241 337.344 449.513 337.444 448.799 337.473C448.057 337.473 447.315 337.387 446.573 337.216C445.831 337.044 444.961 336.588 443.962 335.846C442.963 335.104 442.178 334.148 441.607 332.977C440.38 330.637 439.766 327.255 439.766 322.831C439.766 317.865 440.58 314.083 442.206 311.486ZM451.839 310.972C450.983 310.059 449.969 309.603 448.799 309.603C447.601 309.603 446.573 310.059 445.717 310.972C445.003 311.715 444.532 312.742 444.304 314.055C444.076 315.368 443.962 318.108 443.962 322.275C443.962 326.784 444.076 329.752 444.304 331.179C444.532 332.606 445.046 333.734 445.845 334.561C446.644 335.418 447.629 335.846 448.799 335.846C449.941 335.846 450.911 335.418 451.71 334.561C452.538 333.705 453.052 332.506 453.252 330.965C453.451 329.424 453.566 326.527 453.594 322.275C453.594 318.136 453.48 315.411 453.252 314.098C453.023 312.785 452.552 311.743 451.839 310.972Z" fill="#FF0000"/>
<path d="M445.006 286.211C445.006 285.888 445.107 285.606 445.309 285.363C445.51 285.121 445.813 285 446.217 285C446.499 285 446.742 285.101 446.944 285.303C447.145 285.464 447.347 285.848 447.549 286.453C447.953 287.947 448.78 289.097 450.032 289.905C450.476 290.187 450.698 290.551 450.698 290.995C450.698 291.358 450.637 291.6 450.516 291.721C450.395 291.842 450.112 292.024 449.668 292.266C447.933 293.154 446.419 294.426 445.127 296.081C445.046 296.162 444.945 296.283 444.824 296.445C444.703 296.606 444.602 296.727 444.521 296.808C444.441 296.889 444.34 296.929 444.219 296.929C444.098 296.929 443.956 296.949 443.795 296.99C443.512 296.99 443.25 296.889 443.008 296.687C442.765 296.485 442.624 296.182 442.584 295.778C442.584 295.011 443.532 293.821 445.43 292.206H435.075L424.721 292.145C424.196 291.782 423.933 291.398 423.933 290.995C423.933 290.712 424.196 290.308 424.721 289.784H446.459C445.49 288.25 445.006 287.059 445.006 286.211Z" fill="#FF0000"/>
<rect x="614.5" y="406.5" width="24" height="54" transform="rotate(-90 614.5 406.5)" fill="#FF2A23" stroke="black"/>
<rect x="614.5" y="382.5" width="24" height="54" transform="rotate(-90 614.5 382.5)" fill="#FF2A23" stroke="black"/>
<rect x="614.5" y="358.5" width="24" height="54" transform="rotate(-90 614.5 358.5)" fill="#FF2A23" stroke="black"/>
<rect x="614.5" y="334.5" width="24" height="54" transform="rotate(-90 614.5 334.5)" fill="#FF2A23" stroke="black"/>
<rect x="614.5" y="310.5" width="24" height="54" transform="rotate(-90 614.5 310.5)" fill="#FF2A23" stroke="black"/>
<rect x="614.5" y="286.5" width="24" height="54" transform="rotate(-90 614.5 286.5)" fill="#FF0000" stroke="black"/>
<rect x="614.5" y="262.5" width="24" height="54" transform="rotate(-90 614.5 262.5)" fill="#FF0000" stroke="black"/>
<rect x="614.5" y="238.5" width="24" height="54" transform="rotate(-90 614.5 238.5)" fill="#FF0000" stroke="black"/>
<rect x="614.5" y="214.5" width="24" height="54" transform="rotate(-90 614.5 214.5)" fill="#FF0000" stroke="black"/>
<rect x="614.5" y="190.5" width="24" height="54" transform="rotate(-90 614.5 190.5)" fill="#FF0000" stroke="black"/>
<rect x="614.5" y="166.5" width="24" height="54" transform="rotate(-90 614.5 166.5)" fill="#FF0000" stroke="black"/>
<rect x="614.5" y="142.5" width="24" height="54" transform="rotate(-90 614.5 142.5)" fill="#FF0000" stroke="black"/>
<rect x="614.5" y="118.5" width="24" height="54" transform="rotate(-90 614.5 118.5)" fill="#FF0000" stroke="black"/>
<rect x="614.5" y="94.5" width="24" height="54" transform="rotate(-90 614.5 94.5)" fill="#FF0000" stroke="black"/>
<path d="M733.801 226.55C733.801 226.37 733.068 226.254 731.601 226.203C731.01 226.203 730.624 226.19 730.444 226.164C730.264 226.138 730.174 226.023 730.174 225.817C730.174 225.765 730.199 225.585 730.251 225.277C730.405 224.762 730.534 224.492 730.637 224.466C730.688 224.441 730.83 224.428 731.061 224.428H731.254C732.309 224.479 734.058 224.505 736.502 224.505C737.376 224.505 738.187 224.505 738.933 224.505C739.678 224.505 740.257 224.492 740.669 224.466C741.08 224.441 741.338 224.441 741.441 224.466C741.878 224.466 742.097 224.569 742.097 224.775C742.097 224.904 742.058 225.084 741.981 225.315C741.955 225.367 741.942 225.444 741.942 225.547C741.942 225.65 741.929 225.727 741.904 225.778C741.878 225.83 741.852 225.881 741.826 225.933C741.801 225.984 741.762 226.023 741.711 226.048C741.659 226.074 741.608 226.1 741.556 226.125C741.505 226.151 741.415 226.164 741.286 226.164C741.158 226.164 741.042 226.177 740.939 226.203C740.836 226.228 740.656 226.228 740.399 226.203C739.37 226.228 738.714 226.267 738.431 226.318C738.148 226.37 737.916 226.511 737.736 226.743L734.611 239.013C734.637 239.013 737.003 237.161 741.711 233.457C746.418 229.753 748.836 227.849 748.965 227.746C749.325 227.386 749.505 227.09 749.505 226.859C749.505 226.473 749.183 226.254 748.54 226.203C748.129 226.203 747.923 226.061 747.923 225.778C747.923 225.727 747.961 225.547 748.039 225.238C748.116 224.929 748.18 224.736 748.232 224.659C748.309 224.531 748.527 224.466 748.888 224.466C748.99 224.466 749.441 224.479 750.238 224.505C751.035 224.531 752.064 224.543 753.325 224.543C753.916 224.543 754.534 224.531 755.177 224.505C755.82 224.479 756.206 224.466 756.334 224.466C756.849 224.466 757.106 224.595 757.106 224.852C757.106 225.418 757.003 225.804 756.798 226.01C756.72 226.138 756.476 226.203 756.064 226.203C754.135 226.331 752.386 226.987 750.817 228.171C750.405 228.428 749.505 229.097 748.116 230.177C746.727 231.257 745.441 232.273 744.257 233.225L742.444 234.653L742.791 235.502C743.023 236.068 743.383 236.929 743.871 238.087C744.36 239.244 744.81 240.338 745.222 241.367C747.151 245.92 748.18 248.273 748.309 248.428C748.36 248.479 748.424 248.531 748.502 248.582C748.862 248.839 749.518 248.981 750.47 249.007H751.28C751.434 249.212 751.511 249.328 751.511 249.354C751.511 249.38 751.473 249.611 751.396 250.048C751.293 250.383 751.164 250.627 751.01 250.781H750.585C749.556 250.704 748.334 250.666 746.92 250.666C743.781 250.666 742.019 250.704 741.633 250.781H741.248C741.093 250.627 741.016 250.511 741.016 250.434C741.016 250.357 741.042 250.126 741.093 249.74C741.196 249.405 741.273 249.199 741.325 249.122C741.376 249.045 741.518 249.007 741.749 249.007H741.865C743.151 249.007 743.794 248.685 743.794 248.042C743.794 247.939 743.447 247.039 742.752 245.341C742.058 243.643 741.646 242.679 741.518 242.447L739.28 237.122L736.656 239.167L734.032 241.212L733.145 244.801C732.553 247.167 732.257 248.415 732.257 248.544C732.257 248.724 732.36 248.839 732.566 248.891C732.772 248.942 733.415 248.981 734.495 249.007H735.691C735.846 249.238 735.923 249.38 735.923 249.431C735.923 249.843 735.833 250.228 735.653 250.589C735.524 250.717 735.318 250.781 735.035 250.781C734.958 250.781 734.482 250.769 733.608 250.743C732.733 250.717 731.447 250.704 729.749 250.704C728.154 250.704 726.932 250.704 726.084 250.704C725.235 250.704 724.772 250.717 724.695 250.743C724.232 250.743 724 250.614 724 250.357C724 250.306 724.039 250.126 724.116 249.817C724.219 249.405 724.322 249.174 724.424 249.122C724.527 249.071 724.823 249.032 725.312 249.007C726.006 249.007 726.778 248.968 727.627 248.891C727.987 248.814 728.232 248.659 728.36 248.428C728.437 248.325 729.363 244.749 731.138 237.701C732.913 230.653 733.801 226.936 733.801 226.55Z" fill="#FF0000"/>
<path d="M758.182 240.611C759.2 239.137 760.591 238.401 762.355 238.401C763.228 238.401 764.101 238.637 764.974 239.11C765.847 239.583 766.557 240.42 767.102 241.62C767.775 243.129 768.112 245.203 768.112 247.84C768.112 250.659 767.72 252.814 766.938 254.305C766.575 255.069 766.075 255.678 765.438 256.133C764.802 256.587 764.247 256.869 763.774 256.978C763.301 257.088 762.837 257.151 762.383 257.169C761.91 257.169 761.437 257.115 760.964 257.006C760.491 256.897 759.937 256.606 759.3 256.133C758.664 255.66 758.163 255.051 757.8 254.305C757.018 252.814 756.627 250.659 756.627 247.84C756.627 244.675 757.145 242.266 758.182 240.611ZM764.32 240.283C763.774 239.701 763.128 239.41 762.383 239.41C761.619 239.41 760.964 239.701 760.419 240.283C759.964 240.756 759.664 241.411 759.518 242.247C759.373 243.084 759.3 244.83 759.3 247.485C759.3 250.359 759.373 252.25 759.518 253.159C759.664 254.069 759.991 254.787 760.5 255.314C761.01 255.86 761.637 256.133 762.383 256.133C763.11 256.133 763.729 255.86 764.238 255.314C764.765 254.769 765.093 254.005 765.22 253.023C765.347 252.041 765.42 250.195 765.438 247.485C765.438 244.848 765.365 243.111 765.22 242.275C765.074 241.438 764.774 240.774 764.32 240.283Z" fill="#FF0000"/>
<path d="M784.012 237.392C784.012 237.058 784.192 236.801 784.552 236.621H809.131C809.517 236.826 809.71 237.084 809.71 237.392C809.71 237.675 809.529 237.92 809.169 238.126L796.899 238.164H784.629C784.218 238.035 784.012 237.778 784.012 237.392ZM784.012 244.878C784.012 244.492 784.218 244.235 784.629 244.106H809.169C809.529 244.363 809.71 244.621 809.71 244.878C809.71 245.212 809.517 245.47 809.131 245.65H784.552C784.192 245.47 784.012 245.212 784.012 244.878Z" fill="#FF0000"/>
<path d="M839.297 202.395L838.795 202.588C838.435 202.717 837.92 202.846 837.252 202.974C836.583 203.103 835.837 203.193 835.014 203.244H834.281V201.469H835.014C836.223 201.418 837.342 201.225 838.371 200.891C839.4 200.556 840.12 200.248 840.531 199.965C840.943 199.682 841.303 199.399 841.612 199.116C841.663 199.039 841.818 199 842.075 199C842.306 199 842.525 199.077 842.731 199.231V210.768L842.769 222.344C842.949 222.524 843.104 222.64 843.232 222.691C843.361 222.743 843.67 222.794 844.158 222.846C844.647 222.897 845.445 222.923 846.551 222.923H847.554V224.698H847.129C846.589 224.621 844.544 224.582 840.994 224.582C837.496 224.582 835.477 224.621 834.936 224.698H834.473V222.923H835.477C836.043 222.923 836.531 222.923 836.943 222.923C837.354 222.923 837.676 222.91 837.908 222.884C838.139 222.859 838.345 222.82 838.525 222.768C838.705 222.717 838.808 222.691 838.834 222.691C838.859 222.691 838.936 222.627 839.065 222.498C839.194 222.37 839.271 222.318 839.297 222.344V202.395Z" fill="#FF0000"/>
<path d="M835.284 260.698C834.589 260.698 834.036 260.466 833.625 260.003C833.213 259.54 833.007 258.974 833.007 258.306C833.007 256.479 833.689 254.897 835.052 253.56C836.416 252.222 838.113 251.553 840.146 251.553C842.486 251.553 844.441 252.273 846.011 253.714C847.58 255.154 848.377 257.019 848.403 259.309C848.403 260.415 848.146 261.47 847.631 262.473C847.117 263.476 846.499 264.351 845.779 265.097C845.059 265.843 844.03 266.794 842.692 267.952C841.766 268.749 840.48 269.933 838.834 271.502L836.557 273.663L839.49 273.701C843.528 273.701 845.676 273.637 845.933 273.508C846.113 273.457 846.422 272.312 846.859 270.074V269.958H848.403V270.074C848.377 270.151 848.21 271.322 847.901 273.585C847.593 275.849 847.4 277.032 847.322 277.135V277.251H833.007V276.518V276.055C833.007 275.875 833.084 275.682 833.239 275.476C833.393 275.27 833.779 274.82 834.396 274.126C835.142 273.302 835.785 272.582 836.326 271.965C836.557 271.708 836.994 271.232 837.638 270.537C838.281 269.843 838.718 269.367 838.949 269.109C839.181 268.852 839.554 268.428 840.068 267.836C840.583 267.245 840.943 266.807 841.149 266.524C841.355 266.241 841.65 265.855 842.036 265.367C842.422 264.878 842.692 264.466 842.847 264.132C843.001 263.798 843.194 263.425 843.425 263.013C843.657 262.601 843.824 262.19 843.927 261.778C844.03 261.367 844.12 260.981 844.197 260.621C844.274 260.261 844.313 259.836 844.313 259.347C844.313 257.727 843.876 256.325 843.001 255.142C842.126 253.958 840.879 253.367 839.258 253.367C838.409 253.367 837.663 253.585 837.02 254.023C836.377 254.46 835.927 254.884 835.67 255.296C835.412 255.708 835.284 255.952 835.284 256.029C835.284 256.055 835.348 256.068 835.477 256.068C835.94 256.068 836.416 256.248 836.904 256.608C837.393 256.968 837.638 257.56 837.638 258.383C837.638 259.026 837.432 259.566 837.02 260.003C836.609 260.441 836.03 260.672 835.284 260.698Z" fill="#FF0000"/>
<path d="M854.229 242.293H827.219V239.978H854.229V242.293Z" fill="#FF0000"/>
<path d="M859.67 239.708C859.696 239.553 859.734 239.347 859.786 239.09C859.837 238.833 859.991 238.344 860.249 237.624C860.506 236.904 860.763 236.299 861.02 235.81C861.278 235.322 861.689 234.846 862.255 234.383C862.821 233.92 863.387 233.701 863.953 233.727C864.519 233.753 865.072 233.843 865.612 233.997C866.152 234.151 866.538 234.383 866.77 234.691C867.001 235 867.207 235.283 867.387 235.54C867.567 235.798 867.67 236.042 867.696 236.273L867.773 236.544C867.773 236.595 867.786 236.621 867.811 236.621L868.236 236.196C869.779 234.55 871.593 233.727 873.676 233.727C874.114 233.727 874.512 233.753 874.873 233.804C875.233 233.855 875.567 233.945 875.876 234.074C876.184 234.203 876.429 234.331 876.609 234.46C876.789 234.589 876.982 234.743 877.188 234.923C877.393 235.103 877.522 235.27 877.574 235.425C877.625 235.579 877.728 235.746 877.882 235.926C878.037 236.106 878.088 236.261 878.037 236.389C877.985 236.518 878.024 236.634 878.152 236.736C878.281 236.839 878.307 236.929 878.229 237.007L878.538 236.621C880.159 234.691 882.075 233.727 884.287 233.727C885.676 233.727 886.795 234.074 887.644 234.769C888.493 235.463 888.93 236.479 888.956 237.817C888.956 239.129 888.467 241.161 887.49 243.913C886.512 246.666 886.024 248.312 886.024 248.852C886.049 249.212 886.114 249.457 886.217 249.585C886.32 249.714 886.512 249.778 886.795 249.778C887.516 249.778 888.184 249.392 888.802 248.621C889.419 247.849 889.921 246.794 890.307 245.457C890.384 245.174 890.461 245.007 890.538 244.955C890.615 244.904 890.821 244.878 891.156 244.878C891.67 244.878 891.927 244.981 891.927 245.187C891.927 245.212 891.876 245.405 891.773 245.765C891.567 246.511 891.284 247.245 890.924 247.965C890.564 248.685 889.972 249.405 889.149 250.126C888.326 250.846 887.438 251.193 886.487 251.167C885.278 251.167 884.403 250.82 883.863 250.126C883.323 249.431 883.053 248.711 883.053 247.965C883.053 247.476 883.516 245.933 884.442 243.335C885.368 240.736 885.844 238.781 885.869 237.47C885.869 235.952 885.303 235.193 884.172 235.193H883.979C881.766 235.193 879.901 236.492 878.384 239.09L878.114 239.553L876.84 244.724C875.992 248.093 875.503 249.907 875.374 250.164C875.04 250.859 874.487 251.206 873.715 251.206C873.381 251.206 873.11 251.116 872.905 250.936C872.699 250.756 872.557 250.601 872.48 250.473C872.403 250.344 872.364 250.216 872.364 250.087C872.364 249.804 872.802 247.965 873.676 244.569L875.065 238.936C875.143 238.55 875.181 238.061 875.181 237.47C875.181 235.952 874.615 235.193 873.483 235.193H873.291C871.078 235.193 869.213 236.492 867.696 239.09L867.426 239.553L866.152 244.724C865.303 248.093 864.815 249.907 864.686 250.164C864.352 250.859 863.799 251.206 863.027 251.206C862.692 251.206 862.422 251.129 862.217 250.974C862.011 250.82 861.869 250.666 861.792 250.511C861.715 250.357 861.689 250.228 861.715 250.126C861.715 249.791 862.204 247.682 863.181 243.798C864.184 239.836 864.686 237.765 864.686 237.585C864.763 237.199 864.802 236.852 864.802 236.544C864.802 235.617 864.48 235.154 863.837 235.154C863.271 235.154 862.795 235.515 862.409 236.235C862.024 236.955 861.728 237.74 861.522 238.589C861.316 239.437 861.162 239.9 861.059 239.978C861.008 240.029 860.802 240.055 860.442 240.055H859.901C859.747 239.9 859.67 239.785 859.67 239.708Z" fill="#FF0000"/>
<path d="M899.413 236.119C899.413 235.476 899.168 235.154 898.679 235.154C898.062 235.154 897.419 235.527 896.75 236.273C896.081 237.019 895.528 238.164 895.091 239.708C895.065 239.733 895.04 239.772 895.014 239.823C894.988 239.875 894.975 239.913 894.975 239.939C894.975 239.965 894.95 239.99 894.898 240.016C894.847 240.042 894.808 240.055 894.782 240.055C894.757 240.055 894.705 240.055 894.628 240.055C894.551 240.055 894.448 240.055 894.319 240.055H893.779C893.625 239.9 893.548 239.785 893.548 239.708C893.548 239.527 893.651 239.154 893.856 238.589C894.062 238.023 894.371 237.354 894.782 236.582C895.194 235.81 895.76 235.154 896.48 234.614C897.2 234.074 898.011 233.791 898.911 233.765C899.991 233.765 900.827 234.074 901.419 234.691C902.011 235.309 902.319 236.029 902.345 236.852C902.345 237.29 902.306 237.624 902.229 237.855C902.229 238.01 902.036 238.576 901.651 239.553C901.265 240.531 900.866 241.675 900.454 242.987C900.043 244.299 899.811 245.444 899.76 246.421C899.76 247.116 899.824 247.682 899.953 248.119C900.287 249.225 901.097 249.778 902.384 249.778C903.335 249.778 904.223 249.341 905.046 248.466C905.869 247.592 906.512 246.576 906.975 245.418C907.438 244.261 907.811 243.193 908.094 242.216C908.377 241.238 908.519 240.531 908.519 240.093C908.519 239.502 908.416 238.987 908.21 238.55C908.004 238.113 907.773 237.778 907.515 237.547C907.258 237.315 907.027 237.084 906.821 236.852C906.615 236.621 906.512 236.338 906.512 236.003C906.512 235.437 906.757 234.91 907.245 234.421C907.734 233.933 908.261 233.688 908.827 233.688C909.316 233.688 909.753 233.92 910.139 234.383C910.525 234.846 910.731 235.592 910.757 236.621C910.757 237.315 910.602 238.383 910.294 239.823C909.985 241.264 909.509 242.872 908.866 244.646C908.223 246.421 907.31 247.952 906.126 249.238C904.943 250.524 903.58 251.18 902.036 251.206C900.39 251.206 899.078 250.781 898.101 249.933C897.149 249.109 896.673 247.888 896.673 246.267C896.673 245.47 896.776 244.646 896.982 243.798C897.187 242.949 897.715 241.444 898.564 239.283C899.13 237.637 899.413 236.582 899.413 236.119Z" fill="#FF0000"/>
<path d="M914.425 223.143C913.934 223.143 913.543 222.979 913.252 222.652C912.961 222.324 912.815 221.924 912.815 221.451C912.815 220.16 913.297 219.042 914.261 218.096C915.225 217.15 916.425 216.677 917.862 216.677C919.517 216.677 920.899 217.187 922.008 218.205C923.118 219.224 923.682 220.542 923.7 222.161C923.7 222.943 923.518 223.688 923.154 224.398C922.791 225.107 922.354 225.725 921.845 226.253C921.336 226.78 920.608 227.453 919.662 228.271C919.008 228.835 918.098 229.672 916.934 230.781L915.325 232.309L917.398 232.336C920.253 232.336 921.772 232.291 921.954 232.2C922.081 232.163 922.299 231.354 922.609 229.772V229.69H923.7V229.772C923.682 229.826 923.563 230.654 923.345 232.254C923.127 233.855 922.991 234.691 922.936 234.764V234.846H912.815V234.328V234C912.815 233.873 912.87 233.736 912.979 233.591C913.088 233.445 913.361 233.127 913.797 232.636C914.325 232.054 914.779 231.545 915.161 231.108C915.325 230.927 915.634 230.59 916.089 230.099C916.543 229.608 916.853 229.272 917.016 229.09C917.18 228.908 917.444 228.608 917.807 228.19C918.171 227.771 918.426 227.462 918.571 227.262C918.717 227.062 918.926 226.789 919.199 226.444C919.471 226.098 919.662 225.807 919.772 225.571C919.881 225.334 920.017 225.071 920.181 224.78C920.344 224.489 920.463 224.198 920.535 223.907C920.608 223.616 920.672 223.343 920.726 223.088C920.781 222.834 920.808 222.534 920.808 222.188C920.808 221.042 920.499 220.051 919.881 219.214C919.262 218.378 918.38 217.96 917.235 217.96C916.634 217.96 916.107 218.114 915.652 218.423C915.198 218.733 914.879 219.033 914.697 219.324C914.516 219.615 914.425 219.787 914.425 219.842C914.425 219.86 914.47 219.869 914.561 219.869C914.888 219.869 915.225 219.997 915.57 220.251C915.916 220.506 916.089 220.924 916.089 221.506C916.089 221.961 915.943 222.343 915.652 222.652C915.361 222.961 914.952 223.125 914.425 223.143Z" fill="#FF0000"/>
<path d="M914.07 244.353C915.089 242.88 916.48 242.144 918.244 242.144C919.117 242.144 919.99 242.38 920.863 242.853C921.736 243.326 922.445 244.162 922.991 245.363C923.663 246.872 924 248.945 924 251.583C924 254.401 923.609 256.557 922.827 258.048C922.463 258.812 921.963 259.421 921.327 259.876C920.69 260.33 920.135 260.612 919.662 260.721C919.19 260.83 918.726 260.894 918.271 260.912C917.798 260.912 917.325 260.858 916.853 260.749C916.38 260.639 915.825 260.348 915.189 259.876C914.552 259.403 914.052 258.793 913.688 258.048C912.906 256.557 912.515 254.401 912.515 251.583C912.515 248.418 913.033 246.008 914.07 244.353ZM920.208 244.026C919.662 243.444 919.017 243.153 918.271 243.153C917.507 243.153 916.853 243.444 916.307 244.026C915.852 244.499 915.552 245.154 915.407 245.99C915.261 246.827 915.189 248.573 915.189 251.228C915.189 254.101 915.261 255.993 915.407 256.902C915.552 257.811 915.88 258.53 916.389 259.057C916.898 259.603 917.526 259.876 918.271 259.876C918.999 259.876 919.617 259.603 920.126 259.057C920.654 258.512 920.981 257.748 921.108 256.766C921.236 255.784 921.308 253.938 921.327 251.228C921.327 248.591 921.254 246.854 921.108 246.017C920.963 245.181 920.663 244.517 920.208 244.026Z" fill="#FF0000"/>
<path d="M695 70L686.34 85L703.66 85L695 70ZM695 407L703.66 392L686.34 392L695 407ZM693.5 83.5L693.5 393.5L696.5 393.5L696.5 83.5L693.5 83.5Z" fill="#FF0000"/>
<path d="M608.413 25.7438C607.678 25.7438 607.311 25.5049 607.311 25.0271C607.311 24.8801 607.402 24.4391 607.586 23.7041C607.77 22.9691 607.862 22.326 607.862 21.7747C607.862 20.6354 607.476 19.9372 606.704 19.6799C605.932 19.4227 604.15 19.294 601.357 19.294H598.49C598.454 19.3675 597.81 21.9033 596.561 26.9014C595.311 31.8995 594.687 34.472 594.687 34.619C594.687 34.7661 594.889 34.8396 595.293 34.8396C595.697 34.8396 597.167 34.8763 599.703 34.9498C603.158 34.9498 605.436 34.9131 606.539 34.8396C607.641 34.7661 608.744 34.5272 609.846 34.1229C611.647 33.5349 613.135 32.5059 614.312 31.0359C615.488 29.5658 616.792 27.1587 618.225 23.8144C618.593 23.0059 618.832 22.5648 618.942 22.4913C619.199 22.4178 619.475 22.3811 619.769 22.3811C620.504 22.3811 620.871 22.62 620.871 23.0977C617.013 32.4324 614.991 37.1916 614.808 37.3753C614.697 37.4488 609.442 37.4856 599.042 37.4856H588.623C584.874 37.4856 583 37.2835 583 36.8792C583 36.8057 583.055 36.5485 583.165 36.1074C583.312 35.5194 583.459 35.1887 583.606 35.1152C583.753 35.0417 584.176 34.9866 584.874 34.9498C585.867 34.9498 586.969 34.8947 588.182 34.7844C588.696 34.6742 589.045 34.4537 589.229 34.1229C589.303 33.9392 590.607 28.7757 593.143 18.6325C595.679 8.48937 596.965 3.34428 597.002 3.19728C597.002 2.94002 596.928 2.8114 596.781 2.8114C596.487 2.70115 595.514 2.60927 593.86 2.53577H592.151C591.93 2.31526 591.82 2.16826 591.82 2.09476C591.82 2.02126 591.857 1.70888 591.93 1.15762C592.077 0.53286 592.261 0.146979 592.482 -2.36332e-05H623.021C623.279 0.146979 623.407 0.349107 623.407 0.606361C623.407 0.790114 623.168 2.84815 622.691 6.78046C622.213 10.7128 621.956 12.7341 621.919 12.8443C621.845 13.1016 621.478 13.2302 620.816 13.2302H620.155C619.898 13.0464 619.769 12.8076 619.769 12.5136L619.934 11.2457C620.045 10.3636 620.1 9.40813 620.1 8.37911C620.1 7.2766 619.971 6.35783 619.714 5.62282C619.457 4.88781 619.107 4.31817 618.666 3.91392C618.225 3.50966 617.582 3.21565 616.737 3.0319C615.892 2.84815 615.028 2.71952 614.146 2.64602C613.264 2.57252 612.088 2.53577 610.618 2.53577H608.027C604.793 2.57252 603.084 2.62764 602.9 2.70115C602.753 2.77465 602.643 2.94002 602.57 3.19728C602.533 3.30753 601.963 5.56769 600.861 9.97777C599.758 14.3878 599.189 16.6296 599.152 16.7031C599.997 16.7399 600.879 16.7583 601.798 16.7583H603.231C605.657 16.7583 607.329 16.4826 608.248 15.9314C609.166 15.3801 609.993 13.8917 610.728 11.4662C610.875 10.8782 610.986 10.5474 611.059 10.4739C611.133 10.4004 611.445 10.3453 611.996 10.3085C612.18 10.3085 612.327 10.3085 612.437 10.3085C612.547 10.3085 612.639 10.3269 612.713 10.3636C612.786 10.4004 612.823 10.4188 612.823 10.4188C612.823 10.4188 612.86 10.4923 612.933 10.6393C613.007 10.7863 613.062 10.8598 613.099 10.8598L611.28 18.1364C610.067 23.0242 609.405 25.5049 609.295 25.5784C609.185 25.6887 608.891 25.7438 608.413 25.7438Z" fill="black"/>
<path d="M622.987 30.7495C622.806 30.5676 622.715 30.4377 622.715 30.3598C622.715 30.2558 622.754 30.048 622.832 29.7362C622.909 29.4244 622.974 29.2425 623.026 29.1906C623.078 29.0606 623.195 28.9957 623.377 28.9957C623.559 28.9957 624.222 28.9827 625.365 28.9567H627.43L628.171 25.8388C628.249 25.553 628.34 25.1762 628.444 24.7085C628.548 24.2409 628.639 23.9031 628.717 23.6952C628.795 23.4874 628.872 23.2275 628.95 22.9157C629.028 22.6039 629.132 22.3831 629.262 22.2532C629.392 22.1233 629.522 21.9674 629.652 21.7855C629.782 21.6036 629.964 21.4867 630.198 21.4347C630.431 21.3828 630.665 21.3568 630.899 21.3568C631.367 21.3828 631.692 21.5257 631.873 21.7855C632.055 22.0453 632.146 22.2922 632.146 22.526C632.146 22.7079 632.029 23.3185 631.796 24.3578C631.562 25.3971 631.302 26.4234 631.016 27.4367L630.626 28.8788C630.626 28.9307 631.276 28.9567 632.575 28.9567H634.563C634.745 29.1386 634.836 29.2815 634.836 29.3854C634.836 29.957 634.667 30.4117 634.329 30.7495H630.159L628.756 36.4008C627.742 40.558 627.236 42.7925 627.236 43.1043C627.236 44.1956 627.586 44.7412 628.288 44.7412C629.197 44.7412 630.081 44.2995 630.938 43.4161C631.796 42.5327 632.484 41.4414 633.004 40.1423C633.056 39.9864 633.121 39.8954 633.199 39.8694C633.277 39.8435 633.471 39.8175 633.783 39.7915H633.939C634.329 39.7915 634.524 39.8954 634.524 40.1033C634.524 40.1812 634.485 40.3371 634.407 40.571C634.277 40.9867 634.043 41.4804 633.705 42.052C633.367 42.6236 632.926 43.2342 632.38 43.8838C631.835 44.5333 631.172 45.079 630.392 45.5207C629.613 45.9624 628.821 46.1832 628.015 46.1832C627.236 46.1832 626.495 45.9884 625.794 45.5986C625.092 45.2089 624.585 44.5333 624.274 43.572C624.222 43.3641 624.196 43.0133 624.196 42.5197V41.8181L625.56 36.3618C626.469 32.6982 626.937 30.8534 626.963 30.8275C626.963 30.7755 626.3 30.7495 624.975 30.7495H622.987Z" fill="black"/>
<path d="M643.878 46.1832C641.929 46.1832 640.357 45.5467 639.162 44.2735C637.966 43.0003 637.369 41.4674 637.369 39.6746C637.369 37.9857 637.759 36.3878 638.538 34.8808C639.318 33.3738 640.383 32.0616 641.734 30.9444C643.709 29.3594 645.722 28.567 647.775 28.567C648.606 28.567 649.126 28.58 649.334 28.6059C649.672 28.6839 650.009 28.7748 650.347 28.8788C650.685 28.9827 651.14 29.1906 651.711 29.5023C652.283 29.8141 652.751 30.2039 653.114 30.6716C653.478 31.1393 653.816 31.7758 654.128 32.5813C654.44 33.3868 654.595 34.2962 654.595 35.3095C654.595 38.0896 653.478 40.597 651.244 42.8315C649.009 45.066 646.554 46.1832 643.878 46.1832ZM640.76 41.0776C640.76 42.3768 641.097 43.3121 641.773 43.8838C642.449 44.4554 643.215 44.7412 644.072 44.7412C645.216 44.7412 646.294 44.3255 647.307 43.494C648.321 42.6626 649.126 41.5713 649.724 40.2202C649.958 39.6746 650.256 38.7132 650.62 37.3361C650.984 35.959 651.166 34.7638 651.166 33.7505C651.166 32.6073 650.932 31.7369 650.464 31.1393C649.841 30.3598 649.009 29.97 647.97 29.97C646.333 29.97 644.891 30.7235 643.644 32.2305C642.682 33.3738 641.968 34.8938 641.5 36.7905C641.032 38.6872 640.786 40.1163 640.76 41.0776Z" fill="black"/>
<path d="M655.959 30.7495C655.777 30.5676 655.687 30.4377 655.687 30.3598C655.687 30.2558 655.725 30.048 655.803 29.7362C655.881 29.4244 655.946 29.2425 655.998 29.1906C656.05 29.0606 656.167 28.9957 656.349 28.9957C656.531 28.9957 657.194 28.9827 658.337 28.9567H660.402L661.143 25.8388C661.221 25.553 661.312 25.1762 661.416 24.7085C661.52 24.2409 661.611 23.9031 661.689 23.6952C661.766 23.4874 661.844 23.2275 661.922 22.9157C662 22.6039 662.104 22.3831 662.234 22.2532C662.364 22.1233 662.494 21.9674 662.624 21.7855C662.754 21.6036 662.936 21.4867 663.17 21.4347C663.403 21.3828 663.637 21.3568 663.871 21.3568C664.339 21.3828 664.664 21.5257 664.845 21.7855C665.027 22.0453 665.118 22.2922 665.118 22.526C665.118 22.7079 665.001 23.3185 664.767 24.3578C664.534 25.3971 664.274 26.4234 663.988 27.4367L663.598 28.8788C663.598 28.9307 664.248 28.9567 665.547 28.9567H667.535C667.717 29.1386 667.807 29.2815 667.807 29.3854C667.807 29.957 667.639 30.4117 667.301 30.7495H663.131L661.727 36.4008C660.714 40.558 660.208 42.7925 660.208 43.1043C660.208 44.1956 660.558 44.7412 661.26 44.7412C662.169 44.7412 663.053 44.2995 663.91 43.4161C664.767 42.5327 665.456 41.4414 665.976 40.1423C666.028 39.9864 666.093 39.8954 666.171 39.8694C666.248 39.8435 666.443 39.8175 666.755 39.7915H666.911C667.301 39.7915 667.496 39.8954 667.496 40.1033C667.496 40.1812 667.457 40.3371 667.379 40.571C667.249 40.9867 667.015 41.4804 666.677 42.052C666.339 42.6236 665.898 43.2342 665.352 43.8838C664.806 44.5333 664.144 45.079 663.364 45.5207C662.585 45.9624 661.792 46.1832 660.987 46.1832C660.208 46.1832 659.467 45.9884 658.765 45.5986C658.064 45.2089 657.557 44.5333 657.245 43.572C657.194 43.3641 657.168 43.0133 657.168 42.5197V41.8181L658.532 36.3618C659.441 32.6982 659.909 30.8534 659.935 30.8275C659.935 30.7755 659.272 30.7495 657.947 30.7495H655.959Z" fill="black"/>
<path d="M670.302 39.6356C670.302 37.0114 671.289 34.517 673.264 32.1526C675.238 29.7882 677.46 28.593 679.928 28.567C681.253 28.567 682.423 29.2036 683.436 30.4767C683.852 29.6973 684.449 29.3075 685.229 29.3075C685.567 29.3075 685.865 29.4114 686.125 29.6193C686.385 29.8272 686.515 30.087 686.515 30.3988C686.515 30.7366 686.034 32.8152 685.073 36.6346C684.112 40.4541 683.618 42.6106 683.592 43.1043C683.592 43.7539 683.683 44.1826 683.865 44.3905C684.047 44.5983 684.319 44.7152 684.683 44.7412C684.917 44.7152 685.177 44.5983 685.463 44.3905C686.008 43.8708 686.541 42.6236 687.061 40.649C687.216 40.1293 687.346 39.8565 687.45 39.8305C687.502 39.8045 687.632 39.7915 687.84 39.7915H687.996C688.49 39.7915 688.736 39.9084 688.736 40.1423C688.736 40.2982 688.672 40.649 688.542 41.1946C688.412 41.7402 688.152 42.4418 687.762 43.2992C687.372 44.1566 686.957 44.8062 686.515 45.2479C686.177 45.5857 685.761 45.8585 685.268 46.0663C685.06 46.1183 684.748 46.1443 684.332 46.1443C683.449 46.1443 682.708 45.9494 682.111 45.5597C681.513 45.1699 681.124 44.7672 680.942 44.3515L680.708 43.7669C680.682 43.7409 680.63 43.7539 680.552 43.8058C680.5 43.8578 680.448 43.9098 680.396 43.9617C678.863 45.4168 677.304 46.1443 675.719 46.1443C674.29 46.1443 673.03 45.6246 671.939 44.5853C670.847 43.546 670.302 41.8961 670.302 39.6356ZM682.695 32.9711C682.695 32.8152 682.631 32.5294 682.501 32.1136C682.371 31.6979 682.072 31.2432 681.604 30.7496C681.137 30.2559 680.539 29.9961 679.811 29.9701C678.902 29.9701 678.032 30.3728 677.2 31.1783C676.369 31.9837 675.719 33.036 675.251 34.3352C674.498 36.3878 673.965 38.5184 673.654 40.7269C673.654 40.8048 673.654 40.9478 673.654 41.1556C673.654 41.3635 673.641 41.5194 673.615 41.6233C673.615 42.7925 673.848 43.598 674.316 44.0397C674.784 44.4814 675.342 44.7152 675.992 44.7412C676.979 44.7412 677.954 44.3125 678.915 43.4551C679.876 42.5977 680.448 41.9351 680.63 41.4674C680.682 41.3635 681.033 39.9734 681.682 37.2972C682.332 34.621 682.67 33.1789 682.695 32.9711Z" fill="black"/>
<path d="M694.193 43.4551C694.193 44.3125 694.518 44.7412 695.167 44.7412C696.129 44.7412 696.947 43.3771 697.623 40.6489C697.779 40.1293 697.908 39.8565 698.012 39.8305C698.064 39.8045 698.194 39.7915 698.402 39.7915H698.558C698.792 39.7915 698.948 39.7915 699.026 39.7915C699.104 39.7915 699.169 39.8175 699.221 39.8695C699.273 39.9214 699.299 40.0124 699.299 40.1423C699.273 40.2982 699.234 40.506 699.182 40.7659C699.13 41.0257 698.987 41.5194 698.753 42.2469C698.519 42.9744 698.259 43.585 697.973 44.0787C697.688 44.5723 697.285 45.053 696.765 45.5207C696.246 45.9884 695.648 46.2092 694.972 46.1833C694.037 46.1833 693.167 45.8974 692.361 45.3258C691.556 44.7542 691.14 43.7928 691.114 42.4417C691.114 42.13 691.127 41.9091 691.153 41.7792L693.686 31.7239C695.323 25.0983 696.142 21.6816 696.142 21.4737C696.142 21.3958 696.129 21.3308 696.103 21.2789C696.077 21.2269 696.025 21.1749 695.947 21.123C695.869 21.071 695.804 21.045 695.752 21.045C695.7 21.045 695.596 21.032 695.44 21.006C695.284 20.9801 695.18 20.9671 695.128 20.9671C695.076 20.9671 694.959 20.9541 694.778 20.9281C694.596 20.9021 694.466 20.9021 694.388 20.9281C694.128 20.9281 693.959 20.9281 693.881 20.9281C693.803 20.9281 693.699 20.9151 693.569 20.8891C693.439 20.8631 693.362 20.8242 693.336 20.7722C693.31 20.7202 693.297 20.6423 693.297 20.5384C693.297 20.4864 693.323 20.3045 693.375 19.9927C693.504 19.499 693.647 19.2262 693.803 19.1743C693.959 19.1223 694.894 19.0443 696.609 18.9404C696.999 18.9144 697.441 18.8885 697.934 18.8625C698.428 18.8365 698.818 18.7975 699.104 18.7455C699.389 18.6936 699.532 18.6806 699.532 18.7066C699.844 18.7066 700 18.8105 700 19.0184C700 19.3042 699.052 23.2016 697.155 30.7106C695.258 38.2196 694.284 42.1559 694.232 42.5197C694.232 42.5717 694.232 42.6756 694.232 42.8315C694.232 42.9874 694.219 43.1173 694.193 43.2212V43.4551Z" fill="black"/>
<path d="M237.646 472.859V480.975H234.746C234.277 479.275 233.682 477.928 232.959 476.932C232.236 475.916 231.396 475.193 230.439 474.764C229.482 474.334 228.33 474.119 226.982 474.119C224.971 474.119 223.174 474.793 221.592 476.141C220.029 477.469 218.799 479.48 217.9 482.176C217.002 484.852 216.553 488.094 216.553 491.902C216.553 495.73 216.924 499.002 217.666 501.717C218.408 504.412 219.502 506.453 220.947 507.84C222.393 509.207 224.17 509.891 226.279 509.891C227.881 509.891 229.189 509.666 230.205 509.217C231.221 508.748 232.07 508.016 232.754 507.02C233.457 506.023 234.121 504.559 234.746 502.625H237.646V511.004C235.811 511.492 233.926 511.854 231.992 512.088C230.078 512.342 227.969 512.469 225.664 512.469C220.703 512.469 216.953 510.789 214.414 507.43C211.875 504.07 210.605 499.061 210.605 492.4C210.605 488.221 211.26 484.559 212.568 481.414C213.896 478.27 215.84 475.838 218.398 474.119C220.957 472.4 224.014 471.541 227.568 471.541C229.346 471.541 230.986 471.639 232.49 471.834C233.994 472.01 235.713 472.352 237.646 472.859ZM251.533 504.676C251.533 506.355 251.611 507.527 251.768 508.191C251.924 508.836 252.217 509.334 252.646 509.686C253.096 510.018 253.818 510.311 254.814 510.564V512H243.184V510.564C244.16 510.311 244.834 510.047 245.205 509.773C245.596 509.5 245.869 509.178 246.025 508.807C246.201 508.416 246.318 507.898 246.377 507.254C246.455 506.59 246.494 505.73 246.494 504.676V480.154C246.494 478.279 246.475 476.971 246.436 476.229C246.416 475.486 246.338 474.861 246.201 474.354C246.084 473.826 245.908 473.416 245.674 473.123C245.459 472.83 245.156 472.596 244.766 472.42C244.395 472.244 243.711 472.068 242.715 471.893V470.369L249.775 470.076H251.533V504.676ZM268.379 472.508V478.191H262.988V472.508H268.379ZM260 510.564C260.762 510.33 261.299 510.125 261.611 509.949C261.943 509.773 262.217 509.529 262.432 509.217C262.666 508.904 262.842 508.426 262.959 507.781C263.096 507.137 263.164 506.131 263.164 504.764V491.99C263.164 490.74 263.145 489.734 263.105 488.973C263.066 488.211 262.93 487.605 262.695 487.156C262.461 486.688 262.1 486.346 261.611 486.131C261.143 485.896 260.469 485.701 259.59 485.545V483.992L266.416 483.729H268.203V504.676C268.203 506.355 268.281 507.527 268.438 508.191C268.594 508.836 268.887 509.334 269.316 509.686C269.766 510.018 270.488 510.311 271.484 510.564V512H260V510.564ZM298.525 484.666V490.789H294.805C294.473 489.52 294.062 488.523 293.574 487.801C293.086 487.059 292.52 486.541 291.875 486.248C291.23 485.955 290.43 485.809 289.473 485.809C288.105 485.809 286.895 486.248 285.84 487.127C284.785 488.006 283.945 489.344 283.32 491.141C282.715 492.938 282.412 495.135 282.412 497.732C282.412 499.393 282.529 500.916 282.764 502.303C282.998 503.67 283.398 504.842 283.965 505.818C284.531 506.795 285.283 507.557 286.221 508.104C287.158 508.65 288.32 508.924 289.707 508.924C291.055 508.924 292.305 508.66 293.457 508.133C294.629 507.605 295.84 506.678 297.09 505.35L298.76 507.283C297.764 508.377 296.885 509.227 296.123 509.832C295.361 510.418 294.541 510.916 293.662 511.326C292.803 511.717 291.943 512 291.084 512.176C290.244 512.371 289.326 512.469 288.33 512.469C284.639 512.469 281.816 511.248 279.863 508.807C277.91 506.346 276.934 502.801 276.934 498.172C276.934 495.281 277.48 492.723 278.574 490.496C279.668 488.25 281.201 486.521 283.174 485.311C285.146 484.1 287.422 483.494 290 483.494C291.602 483.494 293.076 483.592 294.424 483.787C295.791 483.963 297.158 484.256 298.525 484.666ZM311.006 495.682H311.943C312.588 495.682 313.115 495.613 313.525 495.477C314.014 495.301 314.551 495.008 315.137 494.598C315.723 494.168 316.553 493.455 317.627 492.459C318.525 491.619 319.199 490.906 319.648 490.32C320.117 489.734 320.439 489.197 320.615 488.709C320.771 488.299 320.85 487.889 320.85 487.479C320.85 486.893 320.664 486.434 320.293 486.102C319.941 485.77 319.355 485.545 318.535 485.428V483.992H331.162V485.428C330.264 485.604 329.307 486.004 328.291 486.629C327.275 487.254 326.23 488.074 325.156 489.09L318.418 495.477L326.855 506.492C327.832 507.781 328.711 508.738 329.492 509.363C330.293 509.969 331.162 510.369 332.1 510.564V512H320.85V510.564C321.357 510.506 321.729 510.398 321.963 510.242C322.217 510.066 322.344 509.783 322.344 509.393C322.344 509.1 322.285 508.816 322.168 508.543C322.07 508.25 321.855 507.859 321.523 507.371C321.191 506.883 320.586 506.033 319.707 504.822L316.221 500.135C315.557 499.256 315.078 498.68 314.785 498.406C314.512 498.133 314.219 497.938 313.906 497.82C313.594 497.703 313.174 497.645 312.646 497.645H311.006V504.676C311.006 506.355 311.084 507.527 311.24 508.191C311.396 508.836 311.689 509.334 312.119 509.686C312.568 510.018 313.291 510.311 314.287 510.564V512H302.656V510.564C303.633 510.311 304.307 510.047 304.678 509.773C305.068 509.5 305.342 509.178 305.498 508.807C305.674 508.416 305.791 507.898 305.85 507.254C305.928 506.59 305.967 505.73 305.967 504.676V480.154C305.967 478.279 305.947 476.971 305.908 476.229C305.889 475.486 305.811 474.861 305.674 474.354C305.557 473.826 305.381 473.416 305.146 473.123C304.932 472.83 304.629 472.596 304.238 472.42C303.867 472.244 303.184 472.068 302.188 471.893V470.369L309.248 470.076H311.006V495.682ZM355.742 488.592L355.859 488.621C357.383 487.078 358.584 486.004 359.463 485.398C360.361 484.773 361.24 484.305 362.1 483.992C362.979 483.68 363.916 483.523 364.912 483.523C365.986 483.523 366.943 483.65 367.783 483.904C368.623 484.158 369.355 484.549 369.98 485.076C370.625 485.584 371.143 486.219 371.533 486.98C371.943 487.723 372.246 488.621 372.441 489.676C372.637 490.711 372.734 492.029 372.734 493.631V504.676C372.734 506.375 372.803 507.537 372.939 508.162C373.096 508.768 373.359 509.246 373.73 509.598C374.121 509.93 374.893 510.252 376.045 510.564V512H364.502V510.564C365.264 510.33 365.811 510.125 366.143 509.949C366.475 509.773 366.748 509.529 366.963 509.217C367.197 508.904 367.373 508.426 367.49 507.781C367.627 507.117 367.695 506.121 367.695 504.793V497.117C367.695 494.52 367.559 492.537 367.285 491.17C367.031 489.783 366.514 488.748 365.732 488.064C364.971 487.381 363.896 487.039 362.51 487.039C361.729 487.039 361.025 487.176 360.4 487.449C359.775 487.723 359.053 488.211 358.232 488.914C357.412 489.617 356.787 490.34 356.357 491.082C355.947 491.824 355.742 492.615 355.742 493.455V504.676C355.742 506.004 355.771 506.951 355.83 507.518C355.908 508.084 356.045 508.562 356.24 508.953C356.436 509.324 356.729 509.637 357.119 509.891C357.529 510.125 358.154 510.35 358.994 510.564V512H347.393V510.564C348.252 510.33 348.867 510.105 349.238 509.891C349.609 509.676 349.893 509.402 350.088 509.07C350.303 508.738 350.459 508.26 350.557 507.635C350.654 507.01 350.703 506.023 350.703 504.676V480.154C350.703 478.279 350.684 476.971 350.645 476.229C350.625 475.486 350.547 474.861 350.41 474.354C350.293 473.826 350.117 473.416 349.883 473.123C349.668 472.83 349.365 472.596 348.975 472.42C348.604 472.244 347.92 472.068 346.924 471.893V470.369L353.984 470.076H355.742V488.592ZM404.404 507.02C403.154 508.328 402.002 509.354 400.947 510.096C399.912 510.838 398.77 511.424 397.52 511.854C396.27 512.264 394.893 512.469 393.389 512.469C389.365 512.469 386.328 511.268 384.277 508.865C382.227 506.443 381.201 502.879 381.201 498.172C381.201 495.262 381.719 492.693 382.754 490.467C383.809 488.24 385.303 486.521 387.236 485.311C389.17 484.1 391.396 483.494 393.916 483.494C395.889 483.494 397.568 483.807 398.955 484.432C400.342 485.057 401.445 485.916 402.266 487.01C403.105 488.084 403.75 489.451 404.199 491.111C404.668 492.752 404.932 494.9 404.99 497.557H386.533V498.084C386.533 500.389 386.787 502.332 387.295 503.914C387.822 505.477 388.672 506.707 389.844 507.605C391.035 508.484 392.578 508.924 394.473 508.924C396.074 508.924 397.51 508.631 398.779 508.045C400.068 507.439 401.348 506.463 402.617 505.115L404.404 507.02ZM399.482 495.125C399.365 493.016 399.102 491.297 398.691 489.969C398.281 488.621 397.666 487.596 396.846 486.893C396.025 486.17 394.951 485.809 393.623 485.809C391.611 485.809 390 486.619 388.789 488.24C387.598 489.842 386.895 492.137 386.68 495.125H399.482ZM418.203 488.855L418.613 488.943C419.688 487.635 420.684 486.609 421.602 485.867C422.52 485.105 423.506 484.52 424.561 484.109C425.635 483.699 426.846 483.494 428.193 483.494C429.326 483.494 430.352 483.553 431.27 483.67V490.408H427.959C427.49 489.354 426.992 488.592 426.465 488.123C425.938 487.635 425.215 487.391 424.297 487.391C423.594 487.391 422.891 487.596 422.188 488.006C421.504 488.416 420.84 489.012 420.195 489.793C419.551 490.574 419.102 491.307 418.848 491.99C418.613 492.674 418.496 493.484 418.496 494.422V504.676C418.496 506.453 418.604 507.684 418.818 508.367C419.033 509.031 419.385 509.52 419.873 509.832C420.381 510.145 421.133 510.389 422.129 510.564V512H410.322V510.564C411.064 510.33 411.592 510.125 411.904 509.949C412.236 509.773 412.52 509.529 412.754 509.217C412.988 508.904 413.164 508.426 413.281 507.781C413.398 507.137 413.457 506.131 413.457 504.764V491.99C413.457 490.74 413.438 489.734 413.398 488.973C413.359 488.211 413.223 487.605 412.988 487.156C412.754 486.688 412.393 486.346 411.904 486.131C411.436 485.896 410.762 485.701 409.883 485.545V484.021L416.738 483.729H418.525L418.203 488.855ZM457.666 507.02C456.416 508.328 455.264 509.354 454.209 510.096C453.174 510.838 452.031 511.424 450.781 511.854C449.531 512.264 448.154 512.469 446.65 512.469C442.627 512.469 439.59 511.268 437.539 508.865C435.488 506.443 434.463 502.879 434.463 498.172C434.463 495.262 434.98 492.693 436.016 490.467C437.07 488.24 438.564 486.521 440.498 485.311C442.432 484.1 444.658 483.494 447.178 483.494C449.15 483.494 450.83 483.807 452.217 484.432C453.604 485.057 454.707 485.916 455.527 487.01C456.367 488.084 457.012 489.451 457.461 491.111C457.93 492.752 458.193 494.9 458.252 497.557H439.795V498.084C439.795 500.389 440.049 502.332 440.557 503.914C441.084 505.477 441.934 506.707 443.105 507.605C444.297 508.484 445.84 508.924 447.734 508.924C449.336 508.924 450.771 508.631 452.041 508.045C453.33 507.439 454.609 506.463 455.879 505.115L457.666 507.02ZM452.744 495.125C452.627 493.016 452.363 491.297 451.953 489.969C451.543 488.621 450.928 487.596 450.107 486.893C449.287 486.17 448.213 485.809 446.885 485.809C444.873 485.809 443.262 486.619 442.051 488.24C440.859 489.842 440.156 492.137 439.941 495.125H452.744ZM472.52 472.01L470.615 499.812H467.773L466.338 472.01H472.52ZM472.227 505.203V512H466.367V505.203H472.227Z" fill="black"/>
</svg>
