<svg width="913" height="550" viewBox="0 0 913 550" fill="none" xmlns="http://www.w3.org/2000/svg">
<path d="M74 162L68.2265 172L79.7735 172L74 162ZM74 418L79.7735 408L68.2265 408L74 418ZM73 171L73 409L75 409L75 171L73 171Z" fill="black"/>
<path d="M6.7802 247.838C6.83099 247.838 8.65935 247.711 12.2653 247.457C15.8712 247.203 17.725 247.051 17.8266 247C18.436 247 18.7408 247.229 18.7408 247.686C18.7408 248.244 17.8266 252.079 15.9982 259.189C14.0683 266.706 13.1033 270.54 13.1033 270.693C13.1033 270.794 13.2811 270.667 13.6366 270.312C16.7346 267.569 20.0359 266.198 23.5402 266.198C26.2828 266.198 28.4921 266.884 30.1681 268.255C31.8441 269.626 32.7075 271.632 32.7583 274.273C32.7583 276.863 31.7933 280.876 29.8633 286.31C27.9334 291.744 26.9684 294.995 26.9684 296.061C27.0192 296.772 27.1462 297.255 27.3493 297.509C27.5525 297.763 27.9334 297.89 28.4921 297.89C29.9141 297.89 31.2346 297.128 32.4535 295.604C33.6724 294.08 34.6628 291.998 35.4246 289.357C35.577 288.799 35.7294 288.468 35.8817 288.367C36.0341 288.265 36.4404 288.214 37.1006 288.214C38.1164 288.214 38.6243 288.418 38.6243 288.824C38.6243 288.875 38.5227 289.256 38.3195 289.967C37.5069 292.963 36.2118 295.426 34.4343 297.356C32.7075 299.54 30.6506 300.632 28.2635 300.632H27.8826C25.4956 300.632 23.7688 299.946 22.7022 298.575C21.6357 297.204 21.1024 295.756 21.1024 294.233C21.1024 293.42 22.0166 290.424 23.845 285.243C25.6733 280.063 26.6129 276.178 26.6637 273.588C26.6637 270.591 25.5464 269.093 23.3117 269.093H22.9308C18.7154 269.093 15.0586 271.581 11.9606 276.559L11.4273 277.549L8.83711 287.834C7.2119 294.436 6.27232 298.042 6.01838 298.651C5.35813 300.023 4.2408 300.708 2.66637 300.708C1.95534 300.708 1.34588 300.48 0.838002 300.023C0.330122 299.566 0.050788 299.108 0 298.651C0 297.94 1.85376 290.221 5.56129 275.492L11.1988 252.942C11.1988 252.282 11.021 251.876 10.6655 251.723C10.31 251.571 9.3196 251.444 7.69438 251.342H6.09456C5.78983 251.038 5.63747 250.835 5.63747 250.733C5.63747 250.631 5.68826 250.149 5.78983 249.285C6.04377 248.321 6.37389 247.838 6.7802 247.838Z" fill="#008000"/>
<path d="M45.3948 279.789C47.4056 276.881 50.1525 275.426 53.6354 275.426C55.359 275.426 57.0825 275.893 58.8061 276.827C60.5296 277.76 61.93 279.412 63.0072 281.782C64.3358 284.762 65 288.856 65 294.062C65 299.628 64.228 303.883 62.684 306.827C61.9659 308.335 60.9785 309.538 59.7217 310.436C58.465 311.334 57.3698 311.89 56.4362 312.106C55.5026 312.321 54.587 312.447 53.6893 312.483C52.7557 312.483 51.8221 312.375 50.8886 312.159C49.955 311.944 48.8598 311.369 47.6031 310.436C46.3463 309.502 45.3589 308.299 44.6407 306.827C43.0967 303.883 42.3247 299.628 42.3247 294.062C42.3247 287.814 43.3481 283.057 45.3948 279.789ZM57.5134 279.143C56.4362 277.994 55.1615 277.419 53.6893 277.419C52.1812 277.419 50.8886 277.994 49.8113 279.143C48.9137 280.076 48.3212 281.369 48.0339 283.021C47.7467 284.672 47.6031 288.12 47.6031 293.362C47.6031 299.035 47.7467 302.77 48.0339 304.565C48.3212 306.36 48.9675 307.779 49.9729 308.82C50.9783 309.897 52.2171 310.436 53.6893 310.436C55.1256 310.436 56.3464 309.897 57.3518 308.82C58.3931 307.743 59.0395 306.235 59.2908 304.296C59.5422 302.357 59.6858 298.712 59.7217 293.362C59.7217 288.155 59.5781 284.726 59.2908 283.075C59.0036 281.423 58.4111 280.112 57.5134 279.143Z" fill="#008000"/>
<path d="M86 407.5V165.633L494.028 407.5H86Z" fill="#CDFFA6" stroke="#0A6B08" stroke-width="3"/>
<path d="M284 288L278.226 298L289.774 298L284 288ZM284 409L289.774 399L278.227 399L284 409ZM283 297L283 400L285 400L285 297L283 297Z" fill="black"/>
<path d="M319 230L327.374 245.162L336.317 230.329L319 230ZM523 353L514.626 337.838L505.683 352.671L523 353ZM329.787 238.255L510.664 347.314L512.213 344.745L331.336 235.686L329.787 238.255Z" fill="#80510A"/>
<path d="M332.903 310.318C262.404 272.113 220.991 250.573 257.966 219.222" stroke="black" stroke-width="3"/>
<line y1="-1.5" x2="12.1916" y2="-1.5" transform="matrix(0.474324 -0.88035 -0.88035 -0.474324 312.87 298.266)" stroke="black" stroke-width="3"/>
<line y1="-1.5" x2="13.6776" y2="-1.5" transform="matrix(0.514408 -0.857546 -0.857546 -0.514408 271.191 274.138)" stroke="black" stroke-width="3"/>
<rect width="69.1229" height="7.66179" transform="matrix(-0.856473 -0.516191 -0.516191 0.856473 333.729 288.49)" fill="#89481A"/>
<path d="M195 199L209.249 224.106L223.867 199.212L195 199ZM249.648 228.19L215.668 208.237L213.136 212.549L247.116 232.502L249.648 228.19Z" fill="#FF0606"/>
<path d="M291.4 238.141C291.57 237.935 291.804 237.665 292.101 237.329C292.398 236.994 293.046 236.405 294.045 235.563C295.043 234.722 295.942 234.051 296.742 233.55C297.542 233.05 298.558 232.701 299.791 232.505C301.024 232.308 302.047 232.471 302.86 232.996C303.674 233.52 304.412 234.128 305.077 234.82C305.742 235.512 306.112 236.185 306.188 236.84C306.265 237.494 306.325 238.089 306.37 238.623C306.415 239.158 306.356 239.607 306.195 239.97L306.077 240.435C306.033 240.511 306.03 240.56 306.068 240.582L307.059 240.321C310.752 239.218 314.135 239.561 317.21 241.352C317.856 241.728 318.422 242.108 318.909 242.494C319.397 242.879 319.813 243.299 320.158 243.755C320.503 244.21 320.753 244.609 320.908 244.954C321.063 245.299 321.215 245.692 321.364 246.135C321.513 246.577 321.559 246.935 321.503 247.207C321.446 247.479 321.454 247.814 321.527 248.212C321.6 248.611 321.543 248.883 321.357 249.028C321.171 249.174 321.128 249.378 321.229 249.64C321.331 249.903 321.291 250.057 321.111 250.105L321.898 249.801C325.948 248.346 329.605 248.57 332.87 250.471C334.92 251.665 336.273 253.139 336.929 254.893C337.585 256.648 337.357 258.523 336.245 260.519C335.118 262.456 332.65 265.035 328.842 268.257C325.034 271.478 322.898 273.488 322.434 274.285C322.162 274.839 322.047 275.255 322.088 275.533C322.13 275.811 322.359 276.072 322.777 276.315C323.84 276.934 325.158 276.939 326.733 276.331C328.307 275.723 329.954 274.597 331.673 272.955C332.03 272.604 332.287 272.423 332.445 272.414C332.603 272.404 332.929 272.543 333.423 272.83C334.182 273.272 334.473 273.645 334.296 273.949C334.274 273.987 334.033 274.228 333.571 274.671C332.626 275.595 331.579 276.433 330.428 277.187C329.278 277.94 327.786 278.495 325.952 278.85C324.118 279.206 322.51 278.956 321.127 278.1C319.343 277.061 318.351 275.797 318.151 274.307C317.95 272.818 318.171 271.523 318.812 270.422C319.232 269.701 321.241 267.821 324.841 264.783C328.44 261.744 330.823 259.268 331.988 257.354C333.293 255.114 333.109 253.508 331.439 252.535L331.154 252.37C327.89 250.468 324.021 250.783 319.548 253.313L318.752 253.764L312.429 260.3C308.28 264.544 306.001 266.8 305.59 267.069C304.499 267.807 303.385 267.844 302.246 267.181C301.752 266.893 301.431 266.528 301.282 266.086C301.133 265.643 301.057 265.294 301.054 265.038C301.05 264.782 301.104 264.559 301.214 264.369C301.458 263.951 303.684 261.613 307.892 257.353L314.784 250.233C315.229 249.73 315.706 249.042 316.215 248.169C317.519 245.929 317.336 244.323 315.666 243.35L315.381 243.184C312.116 241.283 308.247 241.597 303.775 244.127L302.978 244.578L296.656 251.115C292.507 255.358 290.227 257.615 289.816 257.884C288.726 258.621 287.611 258.659 286.472 257.995C285.979 257.708 285.646 257.362 285.475 256.957C285.304 256.553 285.228 256.203 285.247 255.909C285.266 255.615 285.338 255.403 285.465 255.273C285.752 254.78 288.286 252.087 293.067 247.195C297.952 242.211 300.472 239.586 300.626 239.32C301.072 238.817 301.427 238.338 301.693 237.882C302.488 236.515 302.412 235.556 301.463 235.003C300.628 234.517 299.616 234.639 298.427 235.37C297.239 236.102 296.128 237.005 295.095 238.081C294.062 239.157 293.436 239.708 293.218 239.733C293.098 239.765 292.772 239.626 292.24 239.317L291.443 238.853C291.348 238.492 291.334 238.255 291.4 238.141Z" fill="black"/>
<path d="M202.438 169.931C202.438 168.896 202.044 168.379 201.258 168.379C200.265 168.379 199.23 168.979 198.153 170.179C197.077 171.38 196.187 173.222 195.484 175.705C195.442 175.747 195.401 175.809 195.359 175.892C195.318 175.974 195.297 176.036 195.297 176.078C195.297 176.119 195.256 176.161 195.173 176.202C195.09 176.243 195.028 176.264 194.987 176.264C194.945 176.264 194.863 176.264 194.739 176.264C194.614 176.264 194.449 176.264 194.242 176.264H193.373C193.124 176.016 193 175.83 193 175.705C193 175.416 193.166 174.815 193.497 173.905C193.828 172.994 194.325 171.918 194.987 170.676C195.649 169.434 196.56 168.379 197.719 167.509C198.878 166.64 200.182 166.185 201.631 166.143C203.369 166.143 204.714 166.64 205.666 167.634C206.618 168.627 207.115 169.786 207.157 171.111C207.157 171.814 207.094 172.352 206.97 172.725C206.97 172.973 206.66 173.884 206.039 175.457C205.418 177.03 204.776 178.872 204.114 180.983C203.452 183.094 203.079 184.936 202.997 186.509C202.997 187.627 203.1 188.537 203.307 189.241C203.845 191.021 205.149 191.911 207.219 191.911C208.75 191.911 210.178 191.207 211.503 189.8C212.827 188.392 213.862 186.757 214.607 184.895C215.352 183.032 215.953 181.314 216.408 179.741C216.863 178.168 217.091 177.03 217.091 176.326C217.091 175.374 216.925 174.546 216.594 173.843C216.263 173.139 215.891 172.601 215.477 172.228C215.063 171.856 214.69 171.483 214.359 171.111C214.028 170.738 213.862 170.283 213.862 169.745C213.862 168.834 214.256 167.985 215.042 167.199C215.828 166.412 216.677 166.019 217.588 166.019C218.374 166.019 219.078 166.392 219.699 167.137C220.32 167.882 220.651 169.082 220.692 170.738C220.692 171.856 220.444 173.574 219.947 175.892C219.45 178.21 218.685 180.797 217.65 183.653C216.615 186.509 215.145 188.972 213.241 191.042C211.337 193.111 209.143 194.167 206.66 194.208C204.011 194.208 201.9 193.525 200.327 192.159C198.795 190.835 198.029 188.868 198.029 186.261C198.029 184.977 198.195 183.653 198.526 182.287C198.857 180.921 199.706 178.499 201.072 175.022C201.982 172.373 202.438 170.676 202.438 169.931Z" fill="#FF0000"/>
<path d="M216.364 151.242C216.364 150.911 216.468 150.621 216.675 150.373C216.882 150.124 217.192 150 217.606 150C217.896 150 218.144 150.103 218.351 150.31C218.558 150.476 218.765 150.869 218.972 151.49C219.386 153.022 220.235 154.201 221.518 155.029C221.973 155.319 222.201 155.692 222.201 156.147C222.201 156.519 222.139 156.768 222.015 156.892C221.89 157.016 221.601 157.202 221.145 157.451C219.365 158.361 217.813 159.665 216.489 161.362C216.406 161.445 216.302 161.569 216.178 161.735C216.054 161.901 215.951 162.025 215.868 162.108C215.785 162.19 215.681 162.232 215.557 162.232C215.433 162.232 215.288 162.252 215.123 162.294C214.833 162.294 214.564 162.19 214.315 161.983C214.067 161.776 213.922 161.466 213.881 161.052C213.881 160.266 214.854 159.044 216.799 157.389H206.182L195.564 157.327C195.026 156.954 194.757 156.561 194.757 156.147C194.757 155.857 195.026 155.443 195.564 154.905H217.855C216.861 153.332 216.364 152.111 216.364 151.242Z" fill="#FF0000"/>
<path d="M402.518 265.597C402.438 265.387 402.424 265.237 402.477 265.147C402.513 265.086 408.162 261.291 419.425 253.761C430.688 246.23 436.415 242.44 436.606 242.39C436.821 242.231 437.306 242.373 438.062 242.815C438.757 243.222 439.118 243.575 439.145 243.875C439.165 244.049 438.652 250.89 437.606 264.398C436.56 277.906 436.035 284.699 436.03 284.777C435.977 284.868 435.839 284.929 435.617 284.962L402.518 265.597ZM432.319 262.096L433.427 247.407L408.858 263.707L419.986 270.278L431.185 276.83C431.22 276.77 431.598 271.858 432.319 262.096Z" fill="#A52A2A"/>
<path d="M447.999 274.617C448.954 273.471 450.628 272.483 453.021 271.652C455.414 270.82 457.663 271 459.766 272.19C460.824 272.809 461.632 273.647 462.19 274.704C462.749 275.761 463.001 276.821 462.946 277.885C465.33 276.723 467.413 276.664 469.197 277.707C470.315 278.362 471.088 279.26 471.515 280.403C471.942 281.545 471.844 282.684 471.22 283.821C470.707 284.697 470.079 285.284 469.338 285.58C468.596 285.877 467.994 285.97 467.53 285.861C467.066 285.752 466.683 285.61 466.381 285.433C465.807 285.097 465.436 284.656 465.267 284.112C465.099 283.567 465.174 283.022 465.493 282.478C466.306 281.088 467.619 280.578 469.431 280.948C469.328 280.361 468.839 279.811 467.962 279.298C467.569 279.068 467.264 278.93 467.048 278.884C465.616 278.696 464.186 279.198 462.758 280.391C457.036 286.01 453.847 289.379 453.193 290.498C452.698 291.344 452.586 292.09 452.857 292.736C453.129 293.381 453.552 293.872 454.126 294.208C455.244 294.863 456.64 295.009 458.311 294.649C459.983 294.288 461.44 293.497 462.682 292.276C462.949 292.027 463.137 291.913 463.246 291.936C463.354 291.959 463.614 292.07 464.024 292.27L464.206 292.376C464.659 292.641 464.815 292.895 464.673 293.137C464.656 293.167 464.528 293.315 464.291 293.582C462.799 295.022 460.969 296.001 458.801 296.517C456.632 297.034 454.626 296.752 452.782 295.674C450.666 294.436 449.621 292.546 449.647 290.005C447.311 291.154 445.342 291.26 443.74 290.323L443.468 290.164C441.987 289.297 441.159 288.285 440.984 287.128C440.809 285.971 440.963 284.945 441.446 284.05C442.011 283.083 442.758 282.465 443.686 282.197C444.614 281.928 445.471 282.024 446.257 282.484C447.557 283.244 447.836 284.259 447.093 285.529C446.739 286.133 446.248 286.556 445.62 286.797C444.992 287.038 444.468 287.137 444.047 287.094C443.626 287.051 443.385 287.011 443.325 286.976L443.162 286.942C443.145 286.972 443.2 287.085 443.328 287.282C443.457 287.479 443.636 287.726 443.868 288.024C444.099 288.322 444.36 288.535 444.65 288.664C445.738 289.301 447.073 289.169 448.655 288.268C449.21 287.944 450.159 287.12 451.501 285.795C452.844 284.471 454.222 283.086 455.636 281.641C457.05 280.196 457.875 279.34 458.112 279.073C458.741 278.346 459.161 277.8 459.374 277.438C459.869 276.591 459.996 275.854 459.755 275.226C459.513 274.598 459.106 274.116 458.531 273.78C457.322 273.073 455.906 272.893 454.282 273.241C452.658 273.59 451.192 274.396 449.885 275.659C449.665 275.896 449.501 276.003 449.393 275.98C449.284 275.957 449.025 275.846 448.614 275.646L447.98 275.275C447.904 274.988 447.911 274.768 447.999 274.617Z" fill="#A52A2A"/>
<path d="M234.846 307.846C234.897 307.846 236.744 307.718 240.385 307.462C244.026 307.205 245.897 307.051 246 307C246.615 307 246.923 307.231 246.923 307.692C246.923 308.256 246 312.128 244.154 319.308C242.205 326.898 241.231 330.769 241.231 330.923C241.231 331.026 241.41 330.898 241.769 330.539C244.897 327.769 248.231 326.385 251.769 326.385C254.538 326.385 256.769 327.077 258.462 328.462C260.154 329.846 261.026 331.872 261.077 334.539C261.077 337.154 260.103 341.205 258.154 346.692C256.205 352.18 255.231 355.462 255.231 356.539C255.282 357.256 255.41 357.744 255.615 358C255.821 358.256 256.205 358.385 256.769 358.385C258.205 358.385 259.538 357.615 260.769 356.077C262 354.539 263 352.436 263.769 349.769C263.923 349.205 264.077 348.872 264.231 348.769C264.385 348.667 264.795 348.615 265.462 348.615C266.487 348.615 267 348.821 267 349.231C267 349.282 266.897 349.667 266.692 350.385C265.872 353.41 264.564 355.898 262.769 357.846C261.026 360.051 258.949 361.154 256.538 361.154H256.154C253.744 361.154 252 360.462 250.923 359.077C249.846 357.692 249.308 356.231 249.308 354.692C249.308 353.872 250.231 350.846 252.077 345.615C253.923 340.385 254.872 336.462 254.923 333.846C254.923 330.821 253.795 329.308 251.538 329.308H251.154C246.897 329.308 243.205 331.821 240.077 336.846L239.538 337.846L236.923 348.231C235.282 354.898 234.333 358.539 234.077 359.154C233.41 360.539 232.282 361.231 230.692 361.231C229.974 361.231 229.359 361 228.846 360.539C228.333 360.077 228.051 359.615 228 359.154C228 358.436 229.872 350.641 233.615 335.769L239.308 313C239.308 312.333 239.128 311.923 238.769 311.769C238.41 311.615 237.41 311.487 235.769 311.385H234.154C233.846 311.077 233.692 310.872 233.692 310.769C233.692 310.667 233.744 310.18 233.846 309.308C234.103 308.333 234.436 307.846 234.846 307.846Z" fill="#008000"/>
<rect x="614.5" y="408.5" width="24" height="54" transform="rotate(-90 614.5 408.5)" fill="#FF2A23" stroke="black"/>
<rect x="614.5" y="384.5" width="24" height="54" transform="rotate(-90 614.5 384.5)" fill="#FF2A23" stroke="black"/>
<rect x="614.5" y="360.5" width="24" height="54" transform="rotate(-90 614.5 360.5)" fill="#FF2A23" stroke="black"/>
<rect x="614.5" y="336.5" width="24" height="54" transform="rotate(-90 614.5 336.5)" fill="#FF2A23" stroke="black"/>
<rect x="614.5" y="312.5" width="24" height="54" transform="rotate(-90 614.5 312.5)" fill="#FF2A23" stroke="black"/>
<rect x="614.5" y="288.5" width="24" height="54" transform="rotate(-90 614.5 288.5)" fill="#FF2A23" stroke="black"/>
<rect x="614.5" y="264.5" width="24" height="54" transform="rotate(-90 614.5 264.5)" fill="#FF2A23" stroke="black"/>
<rect x="614.5" y="240.5" width="24" height="54" transform="rotate(-90 614.5 240.5)" fill="#FF2A23" stroke="black"/>
<rect x="614.5" y="216.5" width="24" height="54" transform="rotate(-90 614.5 216.5)" fill="#FF2A23" stroke="black"/>
<rect x="614.5" y="192.5" width="24" height="54" transform="rotate(-90 614.5 192.5)" fill="#64BC1F" stroke="black"/>
<rect x="614.5" y="168.5" width="24" height="54" transform="rotate(-90 614.5 168.5)" fill="#64BC1F" stroke="black"/>
<rect x="614.5" y="144.5" width="24" height="54" transform="rotate(-90 614.5 144.5)" fill="#64BC1F" stroke="black"/>
<rect x="614.5" y="120.5" width="24" height="54" transform="rotate(-90 614.5 120.5)" fill="#64BC1F" stroke="black"/>
<rect x="614.5" y="96.5" width="24" height="54" transform="rotate(-90 614.5 96.5)" fill="#B0833E" stroke="black"/>
<path d="M723.557 300.676C723.557 300.482 722.767 300.357 721.188 300.302C720.551 300.302 720.135 300.288 719.941 300.26C719.747 300.232 719.65 300.108 719.65 299.886C719.65 299.831 719.678 299.637 719.733 299.304C719.899 298.75 720.038 298.459 720.149 298.431C720.204 298.404 720.357 298.39 720.606 298.39H720.814C721.95 298.445 723.834 298.473 726.466 298.473C727.408 298.473 728.281 298.473 729.085 298.473C729.888 298.473 730.512 298.459 730.955 298.431C731.398 298.404 731.675 298.404 731.786 298.431C732.257 298.431 732.493 298.542 732.493 298.764C732.493 298.902 732.451 299.096 732.368 299.346C732.34 299.401 732.327 299.484 732.327 299.595C732.327 299.706 732.313 299.789 732.285 299.844C732.257 299.9 732.23 299.955 732.202 300.011C732.174 300.066 732.133 300.108 732.077 300.135C732.022 300.163 731.966 300.191 731.911 300.218C731.855 300.246 731.758 300.26 731.62 300.26C731.481 300.26 731.357 300.274 731.246 300.302C731.135 300.329 730.941 300.329 730.664 300.302C729.556 300.329 728.849 300.371 728.544 300.426C728.24 300.482 727.99 300.634 727.796 300.883L724.43 314.1C724.457 314.1 727.007 312.105 732.077 308.115C737.148 304.125 739.752 302.075 739.891 301.964C740.279 301.576 740.473 301.257 740.473 301.008C740.473 300.592 740.126 300.357 739.434 300.302C738.99 300.302 738.769 300.149 738.769 299.844C738.769 299.789 738.81 299.595 738.893 299.262C738.976 298.93 739.046 298.722 739.101 298.639C739.184 298.501 739.42 298.431 739.808 298.431C739.919 298.431 740.403 298.445 741.262 298.473C742.121 298.501 743.23 298.514 744.587 298.514C745.225 298.514 745.89 298.501 746.582 298.473C747.275 298.445 747.691 298.431 747.829 298.431C748.383 298.431 748.661 298.57 748.661 298.847C748.661 299.456 748.55 299.872 748.328 300.094C748.245 300.232 747.982 300.302 747.538 300.302C745.46 300.44 743.576 301.147 741.886 302.421C741.443 302.698 740.473 303.419 738.976 304.582C737.48 305.746 736.095 306.841 734.82 307.866L732.867 309.404L733.241 310.318C733.49 310.928 733.878 311.856 734.405 313.103C734.931 314.35 735.416 315.527 735.859 316.636C737.937 321.54 739.046 324.075 739.184 324.241C739.24 324.297 739.309 324.352 739.392 324.408C739.78 324.685 740.487 324.837 741.512 324.865H742.385C742.551 325.087 742.634 325.211 742.634 325.239C742.634 325.267 742.592 325.516 742.509 325.987C742.398 326.347 742.26 326.611 742.094 326.777H741.636C740.528 326.694 739.212 326.652 737.688 326.652C734.308 326.652 732.41 326.694 731.994 326.777H731.578C731.412 326.611 731.329 326.486 731.329 326.403C731.329 326.32 731.357 326.07 731.412 325.655C731.523 325.294 731.606 325.073 731.662 324.99C731.717 324.906 731.869 324.865 732.119 324.865H732.243C733.629 324.865 734.322 324.519 734.322 323.826C734.322 323.715 733.947 322.745 733.199 320.916C732.451 319.088 732.008 318.049 731.869 317.799L729.459 312.064L726.632 314.267L723.806 316.469L722.85 320.335C722.213 322.884 721.894 324.228 721.894 324.366C721.894 324.56 722.005 324.685 722.227 324.74C722.449 324.796 723.141 324.837 724.305 324.865H725.593C725.76 325.114 725.843 325.267 725.843 325.322C725.843 325.765 725.746 326.181 725.552 326.569C725.413 326.708 725.192 326.777 724.887 326.777C724.804 326.777 724.291 326.763 723.349 326.735C722.407 326.708 721.022 326.694 719.193 326.694C717.475 326.694 716.159 326.694 715.244 326.694C714.33 326.694 713.831 326.708 713.748 326.735C713.249 326.735 713 326.597 713 326.32C713 326.264 713.042 326.07 713.125 325.738C713.236 325.294 713.346 325.045 713.457 324.99C713.568 324.934 713.887 324.893 714.413 324.865C715.161 324.865 715.992 324.823 716.907 324.74C717.295 324.657 717.558 324.491 717.697 324.241C717.78 324.131 718.777 320.279 720.689 312.687C722.601 305.095 723.557 301.091 723.557 300.676Z" fill="#FF0000"/>
<path d="M762.534 312.355C762.534 311.994 762.728 311.717 763.116 311.523H789.591C790.007 311.745 790.214 312.022 790.214 312.355C790.214 312.659 790.021 312.923 789.633 313.144L776.416 313.186H763.199C762.756 313.047 762.534 312.77 762.534 312.355ZM762.534 320.418C762.534 320.002 762.756 319.725 763.199 319.586H789.633C790.021 319.864 790.214 320.141 790.214 320.418C790.214 320.778 790.007 321.055 789.591 321.249H763.116C762.728 321.055 762.534 320.778 762.534 320.418Z" fill="#FF0000"/>
<path d="M822.085 274.658L821.544 274.865C821.157 275.004 820.602 275.142 819.882 275.281C819.162 275.42 818.358 275.516 817.471 275.572H816.682V273.66H817.471C818.774 273.605 819.979 273.397 821.087 273.037C822.196 272.676 822.971 272.344 823.415 272.039C823.858 271.734 824.246 271.43 824.578 271.125C824.634 271.042 824.8 271 825.077 271C825.327 271 825.562 271.083 825.784 271.249V283.677L825.825 296.145C826.019 296.339 826.186 296.464 826.324 296.519C826.463 296.575 826.795 296.63 827.322 296.686C827.848 296.741 828.707 296.769 829.898 296.769H830.979V298.681H830.522C829.94 298.597 827.737 298.556 823.913 298.556C820.145 298.556 817.97 298.597 817.388 298.681H816.889V296.769H817.97C818.58 296.769 819.106 296.769 819.549 296.769C819.993 296.769 820.339 296.755 820.589 296.727C820.838 296.699 821.06 296.658 821.254 296.602C821.447 296.547 821.558 296.519 821.586 296.519C821.614 296.519 821.697 296.45 821.835 296.312C821.974 296.173 822.057 296.118 822.085 296.145V274.658Z" fill="#FF0000"/>
<path d="M817.762 337.458C817.014 337.458 816.418 337.209 815.975 336.71C815.532 336.211 815.31 335.602 815.31 334.881C815.31 332.914 816.044 331.21 817.513 329.769C818.981 328.328 820.81 327.608 822.999 327.608C825.521 327.608 827.626 328.384 829.317 329.936C831.007 331.487 831.866 333.496 831.893 335.962C831.893 337.154 831.616 338.29 831.062 339.37C830.508 340.451 829.843 341.393 829.067 342.196C828.291 343 827.183 344.025 825.742 345.272C824.745 346.131 823.359 347.406 821.586 349.096L819.134 351.423L822.293 351.465C826.643 351.465 828.956 351.396 829.233 351.257C829.427 351.202 829.76 349.969 830.231 347.558V347.433H831.893V347.558C831.866 347.641 831.686 348.902 831.353 351.34C831.021 353.778 830.813 355.053 830.73 355.164V355.289H815.31V354.499V354C815.31 353.806 815.393 353.598 815.559 353.377C815.726 353.155 816.141 352.67 816.806 351.922C817.61 351.035 818.303 350.26 818.884 349.595C819.134 349.317 819.605 348.805 820.298 348.057C820.99 347.309 821.461 346.796 821.711 346.519C821.96 346.242 822.362 345.785 822.916 345.147C823.47 344.51 823.858 344.039 824.08 343.734C824.301 343.429 824.62 343.014 825.036 342.487C825.451 341.961 825.742 341.518 825.908 341.157C826.075 340.797 826.283 340.395 826.532 339.952C826.781 339.509 826.961 339.065 827.072 338.622C827.183 338.179 827.28 337.763 827.363 337.375C827.446 336.987 827.488 336.53 827.488 336.004C827.488 334.258 827.017 332.748 826.075 331.473C825.133 330.199 823.789 329.561 822.043 329.561C821.129 329.561 820.325 329.797 819.633 330.268C818.94 330.739 818.455 331.196 818.178 331.64C817.901 332.083 817.762 332.346 817.762 332.429C817.762 332.457 817.832 332.471 817.97 332.471C818.469 332.471 818.981 332.665 819.508 333.053C820.034 333.441 820.298 334.078 820.298 334.965C820.298 335.657 820.076 336.239 819.633 336.71C819.189 337.181 818.566 337.431 817.762 337.458Z" fill="#FF0000"/>
<path d="M838.169 317.633H809.076V315.139H838.169V317.633Z" fill="#FF0000"/>
<path d="M844.03 314.848C844.057 314.682 844.099 314.46 844.154 314.183C844.21 313.906 844.376 313.38 844.653 312.604C844.93 311.828 845.207 311.177 845.484 310.651C845.761 310.124 846.205 309.611 846.814 309.113C847.424 308.614 848.033 308.378 848.643 308.406C849.253 308.434 849.848 308.531 850.43 308.697C851.012 308.863 851.428 309.113 851.677 309.445C851.926 309.778 852.148 310.083 852.342 310.36C852.536 310.637 852.647 310.9 852.675 311.149L852.758 311.44C852.758 311.496 852.771 311.523 852.799 311.523L853.256 311.066C854.919 309.293 856.872 308.406 859.117 308.406C859.588 308.406 860.017 308.434 860.405 308.489C860.793 308.545 861.153 308.642 861.486 308.78C861.818 308.919 862.081 309.057 862.275 309.196C862.469 309.334 862.677 309.501 862.899 309.695C863.121 309.889 863.259 310.069 863.314 310.235C863.37 310.401 863.481 310.581 863.647 310.775C863.813 310.969 863.869 311.135 863.813 311.274C863.758 311.413 863.799 311.537 863.938 311.648C864.076 311.759 864.104 311.856 864.021 311.939L864.354 311.523C866.099 309.445 868.163 308.406 870.546 308.406C872.043 308.406 873.248 308.78 874.162 309.528C875.077 310.276 875.548 311.371 875.575 312.812C875.575 314.225 875.049 316.414 873.996 319.379C872.943 322.343 872.417 324.117 872.417 324.699C872.444 325.087 872.514 325.35 872.624 325.488C872.735 325.627 872.943 325.696 873.248 325.696C874.024 325.696 874.744 325.281 875.409 324.449C876.074 323.618 876.614 322.482 877.03 321.041C877.113 320.736 877.196 320.556 877.279 320.501C877.363 320.445 877.584 320.418 877.944 320.418C878.499 320.418 878.776 320.529 878.776 320.75C878.776 320.778 878.72 320.986 878.609 321.374C878.388 322.177 878.083 322.967 877.695 323.743C877.307 324.519 876.67 325.294 875.783 326.07C874.897 326.846 873.941 327.22 872.915 327.192C871.613 327.192 870.671 326.818 870.089 326.07C869.507 325.322 869.216 324.546 869.216 323.743C869.216 323.216 869.715 321.554 870.713 318.755C871.71 315.957 872.223 313.851 872.25 312.438C872.25 310.803 871.641 309.986 870.422 309.986H870.214C867.831 309.986 865.822 311.385 864.187 314.183L863.896 314.682L862.525 320.251C861.61 323.881 861.084 325.835 860.945 326.112C860.585 326.86 859.989 327.234 859.158 327.234C858.798 327.234 858.507 327.137 858.285 326.943C858.064 326.749 857.911 326.583 857.828 326.444C857.745 326.306 857.704 326.167 857.704 326.029C857.704 325.724 858.175 323.743 859.117 320.085L860.613 314.017C860.696 313.601 860.738 313.075 860.738 312.438C860.738 310.803 860.128 309.986 858.909 309.986H858.701C856.318 309.986 854.309 311.385 852.675 314.183L852.384 314.682L851.012 320.251C850.098 323.881 849.571 325.835 849.433 326.112C849.072 326.86 848.477 327.234 847.645 327.234C847.285 327.234 846.994 327.151 846.773 326.985C846.551 326.818 846.399 326.652 846.315 326.486C846.232 326.32 846.205 326.181 846.232 326.07C846.232 325.71 846.759 323.438 847.812 319.254C848.892 314.987 849.433 312.756 849.433 312.562C849.516 312.147 849.557 311.773 849.557 311.44C849.557 310.443 849.211 309.944 848.518 309.944C847.909 309.944 847.396 310.332 846.98 311.108C846.565 311.884 846.246 312.729 846.025 313.643C845.803 314.557 845.637 315.056 845.526 315.139C845.47 315.195 845.249 315.222 844.861 315.222H844.279C844.113 315.056 844.03 314.931 844.03 314.848Z" fill="#FF0000"/>
<path d="M886.839 310.983C886.839 310.29 886.576 309.944 886.049 309.944C885.384 309.944 884.692 310.346 883.971 311.149C883.251 311.953 882.655 313.186 882.184 314.848C882.156 314.876 882.129 314.918 882.101 314.973C882.073 315.028 882.059 315.07 882.059 315.098C882.059 315.125 882.032 315.153 881.976 315.181C881.921 315.209 881.879 315.222 881.851 315.222C881.824 315.222 881.768 315.222 881.685 315.222C881.602 315.222 881.491 315.222 881.353 315.222H880.771C880.605 315.056 880.521 314.931 880.521 314.848C880.521 314.654 880.632 314.253 880.854 313.643C881.076 313.033 881.408 312.313 881.851 311.482C882.295 310.651 882.904 309.944 883.68 309.362C884.456 308.78 885.329 308.475 886.299 308.448C887.462 308.448 888.363 308.78 889 309.445C889.638 310.11 889.97 310.886 889.998 311.773C889.998 312.244 889.956 312.604 889.873 312.853C889.873 313.02 889.665 313.629 889.25 314.682C888.834 315.735 888.404 316.968 887.961 318.381C887.518 319.794 887.268 321.027 887.213 322.08C887.213 322.828 887.282 323.438 887.421 323.909C887.781 325.1 888.654 325.696 890.039 325.696C891.064 325.696 892.02 325.225 892.907 324.283C893.794 323.341 894.486 322.246 894.985 321C895.484 319.753 895.886 318.603 896.191 317.55C896.495 316.497 896.648 315.735 896.648 315.264C896.648 314.627 896.537 314.073 896.315 313.601C896.094 313.13 895.844 312.77 895.567 312.521C895.29 312.271 895.041 312.022 894.819 311.773C894.597 311.523 894.486 311.219 894.486 310.858C894.486 310.249 894.75 309.681 895.276 309.154C895.803 308.628 896.371 308.365 896.98 308.365C897.507 308.365 897.978 308.614 898.393 309.113C898.809 309.611 899.031 310.415 899.058 311.523C899.058 312.271 898.892 313.421 898.56 314.973C898.227 316.525 897.714 318.256 897.022 320.168C896.329 322.08 895.345 323.729 894.071 325.114C892.796 326.5 891.328 327.206 889.665 327.234C887.892 327.234 886.479 326.777 885.426 325.862C884.401 324.976 883.888 323.66 883.888 321.914C883.888 321.055 883.999 320.168 884.221 319.254C884.442 318.34 885.01 316.719 885.925 314.391C886.534 312.618 886.839 311.482 886.839 310.983Z" fill="#FF0000"/>
<path d="M903.009 297.006C902.48 297.006 902.059 296.829 901.746 296.477C901.432 296.124 901.276 295.693 901.276 295.184C901.276 293.793 901.795 292.588 902.833 291.569C903.871 290.551 905.164 290.041 906.712 290.041C908.494 290.041 909.983 290.59 911.178 291.687C912.373 292.784 912.981 294.204 913 295.948C913 296.79 912.804 297.593 912.412 298.357C912.021 299.121 911.55 299.787 911.002 300.355C910.453 300.923 909.67 301.648 908.651 302.53C907.946 303.137 906.966 304.038 905.713 305.233L903.979 306.879L906.212 306.908C909.288 306.908 910.924 306.859 911.119 306.761C911.257 306.722 911.492 305.85 911.825 304.146V304.058H913V304.146C912.981 304.205 912.853 305.096 912.618 306.82C912.383 308.544 912.236 309.445 912.177 309.523V309.612H901.276V309.053V308.701C901.276 308.563 901.334 308.417 901.452 308.26C901.569 308.103 901.863 307.76 902.333 307.231C902.902 306.604 903.391 306.056 903.803 305.586C903.979 305.39 904.312 305.028 904.802 304.499C905.292 303.97 905.625 303.607 905.801 303.411C905.977 303.215 906.261 302.892 906.653 302.442C907.045 301.991 907.319 301.658 907.476 301.443C907.633 301.227 907.858 300.933 908.152 300.561C908.445 300.189 908.651 299.875 908.769 299.621C908.886 299.366 909.033 299.082 909.209 298.769C909.386 298.455 909.513 298.142 909.591 297.828C909.67 297.515 909.738 297.221 909.797 296.947C909.856 296.672 909.885 296.349 909.885 295.977C909.885 294.743 909.552 293.675 908.886 292.774C908.22 291.873 907.27 291.422 906.036 291.422C905.389 291.422 904.821 291.589 904.332 291.922C903.842 292.255 903.499 292.578 903.303 292.892C903.107 293.205 903.009 293.391 903.009 293.45C903.009 293.47 903.058 293.479 903.156 293.479C903.509 293.479 903.871 293.616 904.243 293.891C904.616 294.165 904.802 294.616 904.802 295.242C904.802 295.732 904.645 296.144 904.332 296.477C904.018 296.81 903.577 296.986 903.009 297.006Z" fill="#FF0000"/>
<path d="M714.937 127.349C714.003 127.349 713.508 127.294 713.453 127.184C713.426 127.129 713.412 127.019 713.412 126.854C713.412 126.195 713.563 125.742 713.865 125.494C713.92 125.467 714.154 125.453 714.566 125.453C715.692 125.508 717.56 125.536 720.17 125.536C721.104 125.536 721.969 125.536 722.766 125.536C723.563 125.536 724.181 125.522 724.62 125.494C725.06 125.467 725.334 125.467 725.444 125.494C725.884 125.494 726.104 125.632 726.104 125.907C726.104 125.961 726.076 126.154 726.021 126.483C725.884 126.95 725.746 127.225 725.609 127.308H725.527C725.472 127.308 725.403 127.308 725.321 127.308C725.238 127.308 725.142 127.308 725.032 127.308C724.922 127.308 724.799 127.321 724.661 127.349C724.524 127.376 724.4 127.376 724.29 127.349C723.219 127.376 722.532 127.417 722.23 127.472C721.928 127.527 721.681 127.678 721.488 127.926C721.461 127.981 721.076 129.423 720.335 132.252C719.593 135.082 718.851 138.049 718.11 141.153C717.368 144.257 716.956 146.084 716.873 146.633C716.818 147.018 716.791 147.416 716.791 147.828C716.791 149.312 717.217 150.479 718.068 151.331C718.92 152.182 720.101 152.608 721.612 152.608C723.453 152.608 725.293 151.99 727.134 150.754C728.974 149.518 730.32 147.65 731.172 145.15L733.273 136.867C734.565 131.593 735.21 128.846 735.21 128.626C735.21 127.884 734.331 127.459 732.573 127.349C731.914 127.349 731.584 127.198 731.584 126.895C731.584 126.841 731.611 126.676 731.666 126.401C731.776 125.961 731.859 125.701 731.914 125.618C731.969 125.536 732.106 125.481 732.326 125.453C732.408 125.453 732.848 125.467 733.644 125.494C734.441 125.522 735.595 125.549 737.106 125.577C738.507 125.577 739.578 125.563 740.32 125.536C741.061 125.508 741.46 125.494 741.515 125.494C741.927 125.494 742.133 125.632 742.133 125.907C742.133 126.511 742.023 126.923 741.803 127.143C741.721 127.28 741.418 127.349 740.897 127.349C738.946 127.459 737.724 128.008 737.229 128.997C737.174 129.134 736.487 131.785 735.169 136.95C734.043 141.592 733.356 144.326 733.109 145.15C732.202 147.897 730.622 150.136 728.37 151.866C726.117 153.597 723.782 154.476 721.365 154.504C718.838 154.504 716.818 153.734 715.308 152.196C713.797 150.658 713.027 148.831 713 146.716V146.056C713 145.562 713.755 142.293 715.266 136.249C716.612 130.728 717.285 127.884 717.285 127.72C717.285 127.527 716.503 127.404 714.937 127.349Z" fill="#008000"/>
<path d="M755.887 139.299C755.887 138.941 756.08 138.667 756.464 138.474H782.712C783.124 138.694 783.33 138.969 783.33 139.299C783.33 139.601 783.138 139.862 782.754 140.081L769.65 140.123H756.547C756.107 139.985 755.887 139.711 755.887 139.299ZM755.887 147.293C755.887 146.88 756.107 146.606 756.547 146.468H782.754C783.138 146.743 783.33 147.018 783.33 147.293C783.33 147.65 783.124 147.924 782.712 148.117H756.464C756.08 147.924 755.887 147.65 755.887 147.293Z" fill="#008000"/>
<path d="M797.95 141.771C797.978 141.606 798.019 141.386 798.074 141.112C798.129 140.837 798.294 140.315 798.569 139.546C798.843 138.777 799.118 138.131 799.393 137.609C799.667 137.087 800.107 136.579 800.711 136.084C801.316 135.59 801.92 135.357 802.524 135.384C803.129 135.411 803.719 135.508 804.296 135.672C804.873 135.837 805.285 136.084 805.532 136.414C805.78 136.744 805.999 137.046 806.192 137.321C806.384 137.595 806.494 137.856 806.521 138.104L806.604 138.392C806.604 138.447 806.617 138.474 806.645 138.474L807.098 138.021C808.746 136.263 810.683 135.384 812.908 135.384C813.375 135.384 813.801 135.411 814.186 135.466C814.57 135.521 814.927 135.617 815.257 135.755C815.587 135.892 815.848 136.03 816.04 136.167C816.232 136.304 816.438 136.469 816.658 136.661C816.878 136.854 817.015 137.032 817.07 137.197C817.125 137.362 817.235 137.54 817.4 137.733C817.565 137.925 817.62 138.09 817.565 138.227C817.51 138.365 817.551 138.488 817.688 138.598C817.826 138.708 817.853 138.804 817.771 138.886L818.1 138.474C819.831 136.414 821.877 135.384 824.24 135.384C825.723 135.384 826.918 135.755 827.825 136.497C828.731 137.238 829.198 138.323 829.226 139.752C829.226 141.153 828.704 143.323 827.66 146.262C826.616 149.202 826.094 150.96 826.094 151.537C826.122 151.921 826.19 152.182 826.3 152.32C826.41 152.457 826.616 152.526 826.918 152.526C827.688 152.526 828.402 152.114 829.061 151.29C829.72 150.465 830.256 149.339 830.668 147.911C830.751 147.608 830.833 147.43 830.915 147.375C830.998 147.32 831.218 147.293 831.575 147.293C832.124 147.293 832.399 147.402 832.399 147.622C832.399 147.65 832.344 147.856 832.234 148.24C832.014 149.037 831.712 149.82 831.327 150.589C830.943 151.358 830.311 152.127 829.432 152.897C828.553 153.666 827.605 154.037 826.589 154.009C825.298 154.009 824.364 153.638 823.787 152.897C823.21 152.155 822.921 151.386 822.921 150.589C822.921 150.067 823.416 148.419 824.405 145.644C825.394 142.87 825.902 140.782 825.929 139.381C825.929 137.76 825.325 136.95 824.116 136.95H823.91C821.548 136.95 819.556 138.337 817.935 141.112L817.647 141.606L816.287 147.128C815.381 150.726 814.859 152.663 814.721 152.938C814.364 153.679 813.774 154.05 812.949 154.05C812.592 154.05 812.304 153.954 812.084 153.762C811.864 153.57 811.713 153.405 811.631 153.267C811.548 153.13 811.507 152.993 811.507 152.855C811.507 152.553 811.974 150.589 812.908 146.963L814.392 140.947C814.474 140.535 814.515 140.013 814.515 139.381C814.515 137.76 813.911 136.95 812.702 136.95H812.496C810.134 136.95 808.142 138.337 806.521 141.112L806.233 141.606L804.873 147.128C803.967 150.726 803.445 152.663 803.307 152.938C802.95 153.679 802.359 154.05 801.535 154.05C801.178 154.05 800.89 153.968 800.67 153.803C800.45 153.638 800.299 153.473 800.217 153.309C800.134 153.144 800.107 153.006 800.134 152.897C800.134 152.539 800.656 150.287 801.7 146.139C802.772 141.908 803.307 139.697 803.307 139.505C803.39 139.093 803.431 138.722 803.431 138.392C803.431 137.403 803.087 136.909 802.401 136.909C801.796 136.909 801.288 137.293 800.876 138.062C800.464 138.832 800.148 139.669 799.928 140.576C799.709 141.482 799.544 141.977 799.434 142.059C799.379 142.114 799.159 142.142 798.775 142.142H798.198C798.033 141.977 797.95 141.853 797.95 141.771Z" fill="#008000"/>
<path d="M846.079 151.825C845.667 152.182 845.063 152.567 844.266 152.979C843.47 153.391 842.632 153.597 841.753 153.597C840.022 153.597 838.635 152.979 837.591 151.743C836.547 150.507 836.011 148.927 835.984 147.004C835.984 144.12 837.041 141.469 839.157 139.051C841.272 136.634 843.621 135.411 846.203 135.384C847.494 135.384 848.689 136.043 849.788 137.362L849.911 137.197C849.966 137.115 850.035 137.032 850.118 136.95C850.2 136.867 850.324 136.757 850.488 136.62C850.653 136.483 850.832 136.387 851.024 136.332C851.216 136.277 851.436 136.236 851.683 136.208C852.068 136.208 852.384 136.332 852.631 136.579C852.878 136.826 853.016 137.087 853.043 137.362C853.043 137.774 852.26 141.098 850.694 147.334C849.129 153.57 848.304 156.756 848.222 156.894C847.728 158.377 846.67 159.599 845.049 160.561C843.428 161.522 841.574 162.017 839.486 162.044C835.613 162.044 833.676 161.11 833.676 159.242C833.676 158.528 833.924 157.896 834.418 157.347C834.912 156.797 835.544 156.523 836.313 156.523C836.726 156.523 837.11 156.646 837.467 156.894C837.824 157.141 838.017 157.567 838.044 158.171C838.044 158.446 838.017 158.707 837.962 158.954C837.907 159.201 837.811 159.393 837.673 159.531C837.536 159.668 837.426 159.805 837.344 159.943C837.261 160.08 837.165 160.19 837.055 160.272L836.973 160.355H837.014C837.289 160.437 838.113 160.478 839.486 160.478C840.53 160.478 841.354 160.314 841.959 159.984C842.591 159.682 843.181 159.229 843.731 158.624C844.28 158.02 844.665 157.374 844.884 156.688C845.049 156.166 845.269 155.314 845.544 154.133C845.901 152.814 846.079 152.045 846.079 151.825ZM849.087 140.081L848.923 139.628C848.84 139.326 848.771 139.12 848.717 139.01C848.662 138.9 848.579 138.708 848.469 138.433C848.359 138.158 848.222 137.966 848.057 137.856C847.892 137.746 847.714 137.595 847.522 137.403C847.329 137.211 847.082 137.087 846.78 137.032C846.478 136.977 846.175 136.936 845.873 136.909C844.665 136.909 843.497 137.637 842.371 139.092C841.547 140.164 840.86 141.798 840.31 143.996C839.761 146.194 839.486 147.787 839.486 148.776C839.486 150.946 840.338 152.031 842.041 152.031C843.579 152.031 845.09 151.07 846.574 149.147L846.903 148.735L849.087 140.081Z" fill="#008000"/>
<path d="M858.565 125.453C858.592 125.453 859.581 125.385 861.532 125.247C863.482 125.11 864.485 125.028 864.54 125C864.869 125 865.034 125.124 865.034 125.371C865.034 125.673 864.54 127.747 863.551 131.593C862.507 135.659 861.985 137.733 861.985 137.815C861.985 137.87 862.081 137.801 862.273 137.609C863.949 136.126 865.735 135.384 867.63 135.384C869.114 135.384 870.309 135.755 871.215 136.497C872.122 137.238 872.589 138.323 872.616 139.752C872.616 141.153 872.094 143.323 871.05 146.262C870.006 149.202 869.484 150.96 869.484 151.537C869.512 151.921 869.581 152.182 869.69 152.32C869.8 152.457 870.006 152.526 870.309 152.526C871.078 152.526 871.792 152.114 872.451 151.29C873.111 150.465 873.646 149.339 874.058 147.911C874.141 147.608 874.223 147.43 874.306 147.375C874.388 147.32 874.608 147.293 874.965 147.293C875.514 147.293 875.789 147.402 875.789 147.622C875.789 147.65 875.734 147.856 875.624 148.24C875.185 149.861 874.484 151.193 873.523 152.237C872.589 153.419 871.476 154.009 870.185 154.009H869.979C868.688 154.009 867.754 153.638 867.177 152.897C866.6 152.155 866.312 151.372 866.312 150.548C866.312 150.108 866.806 148.488 867.795 145.686C868.784 142.883 869.292 140.782 869.32 139.381C869.32 137.76 868.715 136.95 867.507 136.95H867.301C865.02 136.95 863.043 138.296 861.367 140.988L861.078 141.524L859.677 147.087C858.798 150.658 858.29 152.608 858.153 152.938C857.796 153.679 857.191 154.05 856.34 154.05C855.955 154.05 855.625 153.927 855.351 153.679C855.076 153.432 854.925 153.185 854.897 152.938C854.897 152.553 855.9 148.378 857.906 140.411L860.955 128.214C860.955 127.857 860.859 127.637 860.666 127.555C860.474 127.472 859.938 127.404 859.059 127.349H858.194C858.029 127.184 857.947 127.074 857.947 127.019C857.947 126.964 857.974 126.703 858.029 126.236C858.166 125.714 858.345 125.453 858.565 125.453Z" fill="#008000"/>
<path d="M727.654 66.5502C728.009 66.5502 728.644 66.5629 729.557 66.5883C730.471 66.6136 731.321 66.639 732.107 66.6644C733.402 66.6644 734.48 66.6517 735.343 66.6263C736.206 66.6009 736.7 66.5883 736.827 66.5883C737.284 66.5883 737.512 66.6898 737.512 66.8928C737.512 66.9943 737.474 67.1846 737.398 67.4637C737.271 67.9204 737.157 68.1742 737.056 68.225C736.954 68.2757 736.675 68.3011 736.218 68.3011C735.584 68.3265 735.076 68.3899 734.696 68.4914C734.315 68.5929 734.049 68.6944 733.896 68.7959C733.744 68.8974 733.706 69.0116 733.782 69.1385C733.782 69.443 733.985 72.4626 734.391 78.1974C734.797 83.9321 735 86.9644 735 87.2943L735.076 87.1801C735.127 87.104 735.203 86.9771 735.305 86.7995C735.406 86.6219 735.558 86.3808 735.761 86.0763C735.964 85.7718 736.18 85.3912 736.409 84.9344C736.637 84.4777 736.941 83.9575 737.322 83.3739C737.703 82.7902 738.083 82.1051 738.464 81.3185C738.845 80.5319 739.339 79.6818 739.948 78.7683C742.587 74.0993 744.084 71.4349 744.44 70.7751C744.795 70.1154 744.985 69.7094 745.011 69.5571C745.011 69.1765 744.77 68.872 744.287 68.6436C743.805 68.4153 743.272 68.3011 742.689 68.3011C742.334 68.3011 742.156 68.1742 742.156 67.9204C742.156 67.8443 742.181 67.6794 742.232 67.4256C742.334 67.0196 742.41 66.7786 742.46 66.7024C742.511 66.6263 742.689 66.5883 742.993 66.5883C743.069 66.5883 743.285 66.5883 743.64 66.5883C743.996 66.5883 744.49 66.5883 745.125 66.5883C745.759 66.5883 746.444 66.6009 747.18 66.6263C748.855 66.6263 749.933 66.6009 750.416 66.5502C750.771 66.5502 750.948 66.6898 750.948 66.9689C750.948 67.1211 750.91 67.3368 750.834 67.6159C750.758 67.8951 750.669 68.0854 750.568 68.1869C750.466 68.2884 750.339 68.3265 750.187 68.3011C749.629 68.3011 749.121 68.3772 748.665 68.5295C748.208 68.6817 747.827 68.8593 747.523 69.0623C747.218 69.2653 746.977 69.481 746.8 69.7094C746.622 69.9378 746.47 70.1408 746.343 70.3184L746.191 70.5468L739.758 81.8133C735.495 89.3243 733.351 93.0925 733.325 93.1179C733.173 93.2955 732.869 93.3843 732.412 93.3843C732.031 93.3843 731.79 93.3209 731.689 93.194C731.613 93.1179 731.372 89.9968 730.966 83.8306C730.56 77.6645 730.344 74.4799 730.318 74.2769L729.862 74.962C729.303 75.9009 727.679 78.7302 724.99 83.45C721.336 89.8445 719.483 93.0671 719.433 93.1179C719.382 93.1687 719.318 93.2194 719.242 93.2702C719.115 93.3463 718.887 93.3843 718.557 93.3843C718.075 93.3843 717.809 93.2955 717.758 93.1179C717.758 93.0418 717.479 88.9945 716.92 80.9759C716.362 72.9574 716.07 68.9228 716.045 68.872C715.994 68.6436 715.867 68.5041 715.664 68.4533C715.461 68.4026 714.967 68.3518 714.18 68.3011H713.266C713.089 68.1235 713 67.9839 713 67.8824C713.025 67.2988 713.19 66.8547 713.495 66.5502H713.952C715.017 66.6263 716.286 66.6644 717.758 66.6644C720.93 66.6644 722.668 66.6263 722.972 66.5502H723.353C723.505 66.7024 723.581 66.8166 723.581 66.8928C723.581 66.9689 723.556 67.1973 723.505 67.5779C723.378 67.9585 723.264 68.1996 723.163 68.3011H722.363C720.816 68.3772 719.991 68.5929 719.889 68.9481C720.651 80.6207 721.082 86.7614 721.183 87.3704L730.128 71.6125L730.052 70.2042C729.976 69.1385 729.849 68.5675 729.671 68.4914C729.519 68.3899 728.986 68.3265 728.073 68.3011C727.591 68.3011 727.273 68.2757 727.121 68.225C726.969 68.1742 726.893 68.06 726.893 67.8824C726.893 67.8316 726.918 67.6794 726.969 67.4256C726.994 67.3241 727.02 67.2099 727.045 67.0831C727.07 66.9562 727.083 66.8674 727.083 66.8166C727.083 66.7659 727.121 66.7151 727.197 66.6644C727.273 66.6136 727.324 66.5883 727.35 66.5883C727.375 66.5883 727.476 66.5756 727.654 66.5502Z" fill="#A52A2A"/>
<path d="M763.654 79.3392C763.654 79.0093 763.831 78.7556 764.187 78.578H788.433C788.813 78.781 789.004 79.0347 789.004 79.3392C789.004 79.6183 788.826 79.8594 788.471 80.0624L776.367 80.1005H764.263C763.857 79.9736 763.654 79.7198 763.654 79.3392ZM763.654 86.7234C763.654 86.3427 763.857 86.089 764.263 85.9621H788.471C788.826 86.2159 789.004 86.4696 789.004 86.7234C789.004 87.0532 788.813 87.307 788.433 87.4846H764.187C763.831 87.307 763.654 87.0532 763.654 86.7234Z" fill="#A52A2A"/>
<path d="M807 102.025H806.923C806.619 102.025 806.391 101.847 806.238 101.492V82.9932L806.276 64.4948C806.53 64.1649 806.771 64 807 64C807.329 64 807.583 64.1903 807.761 64.5709V101.492C807.558 101.847 807.329 102.025 807.076 102.025H807Z" fill="#A52A2A"/>
<path d="M814.117 92.5089C813.686 92.5089 813.47 92.382 813.47 92.1282C813.47 92.0775 813.508 91.8999 813.584 91.5954C813.686 91.1894 813.787 90.961 813.889 90.9102C813.99 90.8595 814.282 90.8214 814.764 90.7961C815.449 90.7961 816.21 90.758 817.048 90.6819C817.403 90.6057 817.644 90.4535 817.771 90.2251C817.822 90.0982 818.723 86.533 820.473 79.5295C822.224 72.526 823.112 68.9735 823.138 68.872C823.138 68.6944 823.087 68.6056 822.986 68.6056C822.783 68.5294 822.11 68.466 820.968 68.4152H819.788C819.636 68.263 819.56 68.1615 819.56 68.1107C819.56 68.06 819.585 67.8443 819.636 67.4637C819.738 67.0323 819.864 66.7659 820.017 66.6644H840.532C840.71 66.7659 840.799 66.9054 840.799 67.083C840.799 67.2099 840.634 68.6309 840.304 71.3461C839.974 74.0612 839.797 75.4568 839.771 75.5329C839.72 75.7106 839.467 75.7994 839.01 75.7994H838.553C838.376 75.6725 838.287 75.5076 838.287 75.3046C838.287 75.2792 838.325 74.9747 838.401 74.3911C838.477 73.8074 838.515 73.135 838.515 72.3738C838.515 71.6125 838.426 70.9908 838.249 70.5087C838.071 70.0266 837.83 69.6332 837.526 69.3287C837.221 69.0242 836.752 68.8212 836.117 68.7197C835.483 68.6182 834.836 68.5294 834.176 68.4533C833.516 68.3772 832.603 68.3645 831.436 68.4152H830.56C828.479 68.4406 827.376 68.4787 827.249 68.5294C827.122 68.5802 827.033 68.6817 826.982 68.8339C826.957 68.8593 826.525 70.5214 825.688 73.8201L824.47 78.7302H826.564C826.64 78.7302 826.931 78.7302 827.439 78.7302C827.946 78.7302 828.302 78.7175 828.505 78.6921C828.708 78.6668 828.987 78.6287 829.342 78.578C829.697 78.5272 830.002 78.4384 830.256 78.3115C830.509 78.1846 830.725 78.0324 830.903 77.8548C831.233 77.5503 831.512 77.1316 831.74 76.5987C831.968 76.0658 832.133 75.5837 832.235 75.1523C832.336 74.7209 832.4 74.4926 832.425 74.4672C832.501 74.3403 832.742 74.2769 833.148 74.2769H833.605C833.783 74.4038 833.872 74.5306 833.872 74.6575C833.872 74.7336 833.478 76.3957 832.692 79.6437C831.905 82.8917 831.474 84.5665 831.397 84.668C831.347 84.8456 831.093 84.9344 830.636 84.9344H830.179C830.002 84.7822 829.913 84.6299 829.913 84.4777C829.913 84.4015 829.976 84.1224 830.103 83.6403C830.23 83.1582 830.294 82.6507 830.294 82.1178C830.294 81.3819 830.04 80.9252 829.532 80.7475C829.025 80.5699 827.896 80.4811 826.145 80.4811H824.051L822.833 85.315C822.021 88.4615 821.615 90.1109 821.615 90.2632C821.615 90.6184 822.745 90.7961 825.003 90.7961H825.955C826.107 90.9483 826.183 91.0371 826.183 91.0625C826.183 91.0879 826.158 91.3416 826.107 91.8237C826.005 92.1536 825.878 92.3947 825.726 92.5469H825.079C824.039 92.4962 822.123 92.4708 819.332 92.4708C817.682 92.4708 816.426 92.4708 815.563 92.4708C814.701 92.4708 814.219 92.4835 814.117 92.5089Z" fill="#A52A2A"/>
<path d="M839.94 102.616C839.976 102.616 840.029 102.634 840.101 102.67C840.173 102.706 840.272 102.732 840.397 102.75C840.523 102.768 840.63 102.777 840.72 102.777C840.953 102.777 841.169 102.661 841.366 102.427C841.563 102.194 841.707 101.934 841.797 101.647C841.976 101.163 842.281 99.7902 842.711 97.5298C843.142 95.2693 843.555 93.1165 843.949 91.0713C844.344 89.0261 844.541 87.9946 844.541 87.9766V87.8959H843.277C842.433 87.8959 841.985 87.878 841.931 87.8421C841.859 87.7883 841.823 87.6985 841.823 87.573L842.012 86.8195C842.048 86.7298 842.119 86.6849 842.227 86.6849C842.335 86.6849 842.756 86.676 843.492 86.658C844.353 86.658 844.784 86.649 844.784 86.6311C844.784 86.5952 844.864 86.1467 845.026 85.2856C845.187 84.4245 845.295 83.9042 845.349 83.7248C846.012 80.7647 847.322 79.2846 849.278 79.2846C849.941 79.3205 850.489 79.5178 850.919 79.8766C851.35 80.2354 851.565 80.7108 851.565 81.3029C851.565 81.9487 851.377 82.4152 851 82.7022C850.623 82.9893 850.246 83.1417 849.87 83.1597C849.08 83.1597 848.686 82.7829 848.686 82.0295C848.686 81.6886 848.784 81.3926 848.982 81.1414C849.179 80.8903 849.394 80.7019 849.627 80.5763L849.87 80.4417C849.583 80.3341 849.313 80.2803 849.062 80.2803C848.847 80.2803 848.641 80.37 848.443 80.5494C848.246 80.7288 848.111 80.98 848.04 81.3029C847.914 81.8231 847.771 82.5228 847.609 83.4019C847.448 84.2809 847.304 85.0255 847.179 85.6354C847.053 86.2454 846.99 86.5683 846.99 86.6042C846.99 86.6401 847.484 86.658 848.47 86.658C849.278 86.658 849.744 86.667 849.87 86.6849C849.995 86.7029 850.094 86.7567 850.166 86.8464C850.184 86.9182 850.166 87.0706 850.112 87.3039C850.058 87.5371 850.013 87.6806 849.977 87.7344C849.941 87.8241 849.861 87.869 849.735 87.869C849.609 87.869 849.125 87.878 848.282 87.8959H846.775L846.156 91.1789C845.295 95.6281 844.694 98.4088 844.353 99.5211C843.869 101.046 843.241 102.176 842.469 102.912C841.806 103.486 841.151 103.773 840.505 103.773C839.931 103.773 839.41 103.603 838.944 103.262C838.478 102.921 838.244 102.436 838.244 101.808C838.244 101.145 838.433 100.66 838.81 100.355C839.186 100.05 839.563 99.8979 839.94 99.8979C840.729 99.8979 841.124 100.275 841.124 101.028C841.124 101.369 841.025 101.665 840.828 101.916C840.63 102.167 840.415 102.356 840.182 102.481L839.94 102.616Z" fill="#A52A2A"/>
<path d="M855.411 92.5469C855.284 92.4454 855.221 92.3566 855.221 92.2805C855.221 92.2297 857.365 87.7891 861.654 78.9586C865.942 70.1281 868.137 65.662 868.238 65.5605C868.314 65.3829 868.67 65.2941 869.304 65.2941C869.888 65.2941 870.243 65.3829 870.37 65.5605C870.446 65.662 872.628 70.1281 876.917 78.9586C881.205 87.7891 883.362 92.2297 883.387 92.2805C883.387 92.3566 883.324 92.4454 883.197 92.5469H855.411ZM872.768 79.4534L868.086 69.8616L858.685 89.0452L868.048 89.0832H877.45C877.45 89.0325 875.889 85.8225 872.768 79.4534Z" fill="#A52A2A"/>
<path d="M887.155 81.5469C887.333 80.4811 888.018 79.2504 889.211 77.8548C890.403 76.4592 891.875 75.7487 893.626 75.7233C894.514 75.7233 895.326 75.9517 896.062 76.4084C896.798 76.8652 897.343 77.4361 897.699 78.1212C898.764 76.5226 900.046 75.7233 901.543 75.7233C902.482 75.7233 903.294 76.0024 903.979 76.5607C904.664 77.1189 905.019 77.8675 905.045 78.8063C905.045 79.5422 904.867 80.1385 904.512 80.5953C904.157 81.052 903.814 81.3312 903.484 81.4327C903.154 81.5342 902.863 81.5849 902.609 81.5849C902.127 81.5849 901.733 81.4454 901.429 81.1662C901.124 80.8871 900.972 80.5192 900.972 80.0624C900.972 78.8952 901.606 78.0958 902.875 77.6645C902.596 77.3346 902.089 77.1697 901.353 77.1697C901.023 77.1697 900.782 77.195 900.63 77.2458C899.665 77.6518 898.955 78.4892 898.498 79.7579C896.976 85.3658 896.214 88.6392 896.214 89.5781C896.214 90.2886 896.417 90.7961 896.823 91.1006C897.229 91.4051 897.673 91.5573 898.155 91.5573C899.094 91.5573 900.021 91.1386 900.934 90.3013C901.848 89.4639 902.469 88.4362 902.799 87.2182C902.875 86.9644 902.951 86.8249 903.027 86.7995C903.104 86.7741 903.307 86.7487 903.636 86.7234H903.789C904.169 86.7234 904.36 86.8249 904.36 87.0279C904.36 87.0532 904.334 87.1928 904.284 87.4466C903.878 88.8929 903.091 90.1744 901.924 91.2909C900.756 92.4074 899.399 92.9656 897.851 92.9656C896.075 92.9656 894.73 92.1663 893.816 90.5677C892.776 92.1409 891.583 92.9276 890.238 92.9276H890.01C888.767 92.9276 887.879 92.5977 887.346 91.9379C886.813 91.2782 886.534 90.5804 886.508 89.8445C886.508 89.0325 886.749 88.3727 887.231 87.8652C887.714 87.3577 888.285 87.104 888.944 87.104C890.035 87.104 890.581 87.6369 890.581 88.7026C890.581 89.2101 890.429 89.6542 890.124 90.0348C889.82 90.4154 889.528 90.6692 889.249 90.7961C888.97 90.9229 888.805 90.9864 888.754 90.9864L888.64 91.0244C888.64 91.0498 888.716 91.1006 888.868 91.1767C889.02 91.2528 889.223 91.3416 889.477 91.4431C889.731 91.5446 889.972 91.5827 890.2 91.5573C891.114 91.5573 891.901 90.9864 892.56 89.8445C892.789 89.4385 893.08 88.5757 893.436 87.2562C893.791 85.9367 894.146 84.5665 894.501 83.1455C894.857 81.7245 895.06 80.8871 895.11 80.6334C895.237 79.9482 895.301 79.4534 895.301 79.1489C895.301 78.4384 895.11 77.9309 894.73 77.6264C894.349 77.3219 893.918 77.1697 893.436 77.1697C892.421 77.1697 891.469 77.5757 890.581 78.3877C889.693 79.1997 889.071 80.24 888.716 81.5088C888.665 81.7372 888.602 81.864 888.526 81.8894C888.449 81.9148 888.246 81.9402 887.917 81.9655H887.384C887.231 81.8133 887.155 81.6737 887.155 81.5469Z" fill="#A52A2A"/>
<path d="M912.239 102.025H912.163C911.858 102.025 911.63 101.847 911.478 101.492V82.9932L911.516 64.4948C911.769 64.1649 912.01 64 912.239 64C912.569 64 912.822 64.1903 913 64.5709V101.492C912.797 101.847 912.569 102.025 912.315 102.025H912.239Z" fill="#A52A2A"/>
<path d="M608.413 25.7438C607.678 25.7438 607.311 25.505 607.311 25.0272C607.311 24.8802 607.402 24.4392 607.586 23.7042C607.77 22.9692 607.862 22.326 607.862 21.7748C607.862 20.6355 607.476 19.9372 606.704 19.68C605.932 19.4227 604.15 19.2941 601.357 19.2941H598.49C598.454 19.3676 597.81 21.9034 596.561 26.9015C595.311 31.8996 594.687 34.4721 594.687 34.6191C594.687 34.7661 594.889 34.8396 595.293 34.8396C595.697 34.8396 597.167 34.8764 599.703 34.9499C603.158 34.9499 605.436 34.9131 606.539 34.8396C607.641 34.7661 608.744 34.5272 609.846 34.123C611.647 33.535 613.135 32.5059 614.312 31.0359C615.488 29.5659 616.792 27.1587 618.225 23.8144C618.593 23.0059 618.832 22.5649 618.942 22.4914C619.199 22.4179 619.475 22.3812 619.769 22.3812C620.504 22.3812 620.871 22.62 620.871 23.0978C617.013 32.4324 614.991 37.1917 614.808 37.3754C614.697 37.4489 609.442 37.4857 599.042 37.4857H588.623C584.874 37.4857 583 37.2835 583 36.8793C583 36.8058 583.055 36.5485 583.165 36.1075C583.312 35.5195 583.459 35.1887 583.606 35.1152C583.753 35.0417 584.176 34.9866 584.874 34.9499C585.867 34.9499 586.969 34.8947 588.182 34.7845C588.696 34.6742 589.045 34.4537 589.229 34.123C589.303 33.9392 590.607 28.7758 593.143 18.6326C595.679 8.48943 596.965 3.34434 597.002 3.19734C597.002 2.94009 596.928 2.81146 596.781 2.81146C596.487 2.70121 595.514 2.60933 593.86 2.53583H592.151C591.93 2.31533 591.82 2.16832 591.82 2.09482C591.82 2.02132 591.857 1.70894 591.93 1.15768C592.077 0.532921 592.261 0.14704 592.482 3.74019e-05H623.021C623.279 0.14704 623.407 0.349168 623.407 0.606422C623.407 0.790175 623.168 2.84821 622.691 6.78052C622.213 10.7128 621.956 12.7341 621.919 12.8444C621.845 13.1016 621.478 13.2303 620.816 13.2303H620.155C619.898 13.0465 619.769 12.8076 619.769 12.5136L619.934 11.2457C620.045 10.3637 620.1 9.40819 620.1 8.37918C620.1 7.27666 619.971 6.35789 619.714 5.62288C619.457 4.88787 619.107 4.31823 618.666 3.91398C618.225 3.50972 617.582 3.21572 616.737 3.03196C615.892 2.84821 615.028 2.71958 614.146 2.64608C613.264 2.57258 612.088 2.53583 610.618 2.53583H608.027C604.793 2.57258 603.084 2.62771 602.9 2.70121C602.753 2.77471 602.643 2.94009 602.57 3.19734C602.533 3.30759 601.963 5.56775 600.861 9.97783C599.758 14.3879 599.189 16.6297 599.152 16.7032C599.997 16.7399 600.879 16.7583 601.798 16.7583H603.231C605.657 16.7583 607.329 16.4827 608.248 15.9314C609.166 15.3802 609.993 13.8918 610.728 11.4662C610.875 10.8782 610.986 10.5475 611.059 10.474C611.133 10.4005 611.445 10.3453 611.996 10.3086C612.18 10.3086 612.327 10.3086 612.437 10.3086C612.547 10.3086 612.639 10.327 612.713 10.3637C612.786 10.4005 612.823 10.4188 612.823 10.4188C612.823 10.4188 612.86 10.4923 612.933 10.6393C613.007 10.7863 613.062 10.8598 613.099 10.8598L611.28 18.1365C610.067 23.0243 609.405 25.505 609.295 25.5785C609.185 25.6887 608.891 25.7438 608.413 25.7438Z" fill="black"/>
<path d="M622.987 30.7496C622.806 30.5677 622.715 30.4378 622.715 30.3598C622.715 30.2559 622.754 30.048 622.832 29.7363C622.909 29.4245 622.974 29.2426 623.026 29.1906C623.078 29.0607 623.195 28.9957 623.377 28.9957C623.559 28.9957 624.222 28.9828 625.365 28.9568H627.43L628.171 25.8389C628.249 25.553 628.34 25.1763 628.444 24.7086C628.548 24.2409 628.639 23.9031 628.717 23.6953C628.795 23.4874 628.872 23.2276 628.95 22.9158C629.028 22.604 629.132 22.3832 629.262 22.2532C629.392 22.1233 629.522 21.9674 629.652 21.7856C629.782 21.6037 629.964 21.4868 630.198 21.4348C630.431 21.3828 630.665 21.3568 630.899 21.3568C631.367 21.3828 631.692 21.5257 631.873 21.7856C632.055 22.0454 632.146 22.2922 632.146 22.5261C632.146 22.7079 632.029 23.3185 631.796 24.3578C631.562 25.3971 631.302 26.4235 631.016 27.4368L630.626 28.8788C630.626 28.9308 631.276 28.9568 632.575 28.9568H634.563C634.745 29.1387 634.836 29.2816 634.836 29.3855C634.836 29.9571 634.667 30.4118 634.329 30.7496H630.159L628.756 36.4008C627.742 40.558 627.236 42.7925 627.236 43.1043C627.236 44.1956 627.586 44.7413 628.288 44.7413C629.197 44.7413 630.081 44.2995 630.938 43.4161C631.796 42.5327 632.484 41.4415 633.004 40.1423C633.056 39.9864 633.121 39.8955 633.199 39.8695C633.277 39.8435 633.471 39.8175 633.783 39.7916H633.939C634.329 39.7916 634.524 39.8955 634.524 40.1033C634.524 40.1813 634.485 40.3372 634.407 40.571C634.277 40.9868 634.043 41.4804 633.705 42.052C633.367 42.6237 632.926 43.2343 632.38 43.8838C631.835 44.5334 631.172 45.079 630.392 45.5207C629.613 45.9624 628.821 46.1833 628.015 46.1833C627.236 46.1833 626.495 45.9884 625.794 45.5987C625.092 45.2089 624.585 44.5334 624.274 43.572C624.222 43.3642 624.196 43.0134 624.196 42.5197V41.8182L625.56 36.3618C626.469 32.6983 626.937 30.8535 626.963 30.8275C626.963 30.7756 626.3 30.7496 624.975 30.7496H622.987Z" fill="black"/>
<path d="M643.878 46.1832C641.929 46.1832 640.357 45.5467 639.162 44.2735C637.966 43.0003 637.369 41.4674 637.369 39.6746C637.369 37.9857 637.759 36.3878 638.538 34.8808C639.318 33.3738 640.383 32.0616 641.734 30.9444C643.709 29.3594 645.722 28.567 647.775 28.567C648.606 28.567 649.126 28.58 649.334 28.6059C649.672 28.6839 650.009 28.7748 650.347 28.8788C650.685 28.9827 651.14 29.1906 651.711 29.5023C652.283 29.8141 652.751 30.2039 653.114 30.6716C653.478 31.1393 653.816 31.7758 654.128 32.5813C654.44 33.3868 654.595 34.2962 654.595 35.3095C654.595 38.0896 653.478 40.597 651.244 42.8315C649.009 45.066 646.554 46.1832 643.878 46.1832ZM640.76 41.0776C640.76 42.3768 641.097 43.3121 641.773 43.8838C642.449 44.4554 643.215 44.7412 644.072 44.7412C645.216 44.7412 646.294 44.3255 647.307 43.494C648.321 42.6626 649.126 41.5713 649.724 40.2202C649.958 39.6746 650.256 38.7132 650.62 37.3361C650.984 35.959 651.166 34.7638 651.166 33.7505C651.166 32.6073 650.932 31.7369 650.464 31.1393C649.841 30.3598 649.009 29.97 647.97 29.97C646.333 29.97 644.891 30.7235 643.644 32.2305C642.682 33.3738 641.968 34.8938 641.5 36.7905C641.032 38.6872 640.786 40.1163 640.76 41.0776Z" fill="black"/>
<path d="M655.959 30.7495C655.777 30.5676 655.687 30.4377 655.687 30.3598C655.687 30.2558 655.725 30.048 655.803 29.7362C655.881 29.4244 655.946 29.2425 655.998 29.1906C656.05 29.0606 656.167 28.9957 656.349 28.9957C656.531 28.9957 657.194 28.9827 658.337 28.9567H660.402L661.143 25.8388C661.221 25.553 661.312 25.1762 661.416 24.7085C661.52 24.2409 661.611 23.9031 661.689 23.6952C661.766 23.4874 661.844 23.2275 661.922 22.9157C662 22.6039 662.104 22.3831 662.234 22.2532C662.364 22.1233 662.494 21.9674 662.624 21.7855C662.754 21.6036 662.936 21.4867 663.17 21.4347C663.403 21.3828 663.637 21.3568 663.871 21.3568C664.339 21.3828 664.664 21.5257 664.845 21.7855C665.027 22.0453 665.118 22.2922 665.118 22.526C665.118 22.7079 665.001 23.3185 664.767 24.3578C664.534 25.3971 664.274 26.4234 663.988 27.4367L663.598 28.8788C663.598 28.9307 664.248 28.9567 665.547 28.9567H667.535C667.717 29.1386 667.807 29.2815 667.807 29.3854C667.807 29.957 667.639 30.4117 667.301 30.7495H663.131L661.727 36.4008C660.714 40.558 660.208 42.7925 660.208 43.1043C660.208 44.1956 660.558 44.7412 661.26 44.7412C662.169 44.7412 663.053 44.2995 663.91 43.4161C664.767 42.5327 665.456 41.4414 665.976 40.1423C666.028 39.9864 666.093 39.8954 666.171 39.8694C666.248 39.8435 666.443 39.8175 666.755 39.7915H666.911C667.301 39.7915 667.496 39.8954 667.496 40.1033C667.496 40.1812 667.457 40.3371 667.379 40.571C667.249 40.9867 667.015 41.4804 666.677 42.052C666.339 42.6236 665.898 43.2342 665.352 43.8838C664.806 44.5333 664.144 45.079 663.364 45.5207C662.585 45.9624 661.792 46.1832 660.987 46.1832C660.208 46.1832 659.467 45.9884 658.765 45.5986C658.064 45.2089 657.557 44.5333 657.245 43.572C657.194 43.3641 657.168 43.0133 657.168 42.5197V41.8181L658.532 36.3618C659.441 32.6982 659.909 30.8534 659.935 30.8275C659.935 30.7755 659.272 30.7495 657.947 30.7495H655.959Z" fill="black"/>
<path d="M670.302 39.6356C670.302 37.0114 671.289 34.517 673.264 32.1526C675.238 29.7882 677.46 28.593 679.928 28.567C681.253 28.567 682.423 29.2036 683.436 30.4767C683.852 29.6973 684.449 29.3075 685.229 29.3075C685.567 29.3075 685.865 29.4114 686.125 29.6193C686.385 29.8272 686.515 30.087 686.515 30.3988C686.515 30.7366 686.034 32.8152 685.073 36.6346C684.112 40.4541 683.618 42.6106 683.592 43.1043C683.592 43.7539 683.683 44.1826 683.865 44.3905C684.047 44.5983 684.319 44.7152 684.683 44.7412C684.917 44.7152 685.177 44.5983 685.463 44.3905C686.008 43.8708 686.541 42.6236 687.061 40.649C687.216 40.1293 687.346 39.8565 687.45 39.8305C687.502 39.8045 687.632 39.7915 687.84 39.7915H687.996C688.49 39.7915 688.736 39.9084 688.736 40.1423C688.736 40.2982 688.672 40.649 688.542 41.1946C688.412 41.7402 688.152 42.4418 687.762 43.2992C687.372 44.1566 686.957 44.8062 686.515 45.2479C686.177 45.5857 685.761 45.8585 685.268 46.0663C685.06 46.1183 684.748 46.1443 684.332 46.1443C683.449 46.1443 682.708 45.9494 682.111 45.5597C681.513 45.1699 681.124 44.7672 680.942 44.3515L680.708 43.7669C680.682 43.7409 680.63 43.7539 680.552 43.8058C680.5 43.8578 680.448 43.9098 680.396 43.9617C678.863 45.4168 677.304 46.1443 675.719 46.1443C674.29 46.1443 673.03 45.6246 671.939 44.5853C670.847 43.546 670.302 41.8961 670.302 39.6356ZM682.695 32.9711C682.695 32.8152 682.631 32.5294 682.501 32.1136C682.371 31.6979 682.072 31.2432 681.604 30.7496C681.137 30.2559 680.539 29.9961 679.811 29.9701C678.902 29.9701 678.032 30.3728 677.2 31.1783C676.369 31.9837 675.719 33.036 675.251 34.3352C674.498 36.3878 673.965 38.5184 673.654 40.7269C673.654 40.8048 673.654 40.9478 673.654 41.1556C673.654 41.3635 673.641 41.5194 673.615 41.6233C673.615 42.7925 673.848 43.598 674.316 44.0397C674.784 44.4814 675.342 44.7152 675.992 44.7412C676.979 44.7412 677.954 44.3125 678.915 43.4551C679.876 42.5977 680.448 41.9351 680.63 41.4674C680.682 41.3635 681.033 39.9734 681.682 37.2972C682.332 34.621 682.67 33.1789 682.695 32.9711Z" fill="black"/>
<path d="M694.193 43.4551C694.193 44.3125 694.518 44.7412 695.167 44.7412C696.129 44.7412 696.947 43.3771 697.623 40.6489C697.779 40.1293 697.908 39.8565 698.012 39.8305C698.064 39.8045 698.194 39.7915 698.402 39.7915H698.558C698.792 39.7915 698.948 39.7915 699.026 39.7915C699.104 39.7915 699.169 39.8175 699.221 39.8695C699.273 39.9214 699.299 40.0124 699.299 40.1423C699.273 40.2982 699.234 40.506 699.182 40.7659C699.13 41.0257 698.987 41.5194 698.753 42.2469C698.519 42.9744 698.259 43.585 697.973 44.0787C697.688 44.5723 697.285 45.053 696.765 45.5207C696.246 45.9884 695.648 46.2092 694.972 46.1833C694.037 46.1833 693.167 45.8974 692.361 45.3258C691.556 44.7542 691.14 43.7928 691.114 42.4417C691.114 42.13 691.127 41.9091 691.153 41.7792L693.686 31.7239C695.323 25.0983 696.142 21.6816 696.142 21.4737C696.142 21.3958 696.129 21.3308 696.103 21.2789C696.077 21.2269 696.025 21.1749 695.947 21.123C695.869 21.071 695.804 21.045 695.752 21.045C695.7 21.045 695.596 21.032 695.44 21.006C695.284 20.9801 695.18 20.9671 695.128 20.9671C695.076 20.9671 694.959 20.9541 694.778 20.9281C694.596 20.9021 694.466 20.9021 694.388 20.9281C694.128 20.9281 693.959 20.9281 693.881 20.9281C693.803 20.9281 693.699 20.9151 693.569 20.8891C693.439 20.8631 693.362 20.8242 693.336 20.7722C693.31 20.7202 693.297 20.6423 693.297 20.5384C693.297 20.4864 693.323 20.3045 693.375 19.9927C693.504 19.499 693.647 19.2262 693.803 19.1743C693.959 19.1223 694.894 19.0443 696.609 18.9404C696.999 18.9144 697.441 18.8885 697.934 18.8625C698.428 18.8365 698.818 18.7975 699.104 18.7455C699.389 18.6936 699.532 18.6806 699.532 18.7066C699.844 18.7066 700 18.8105 700 19.0184C700 19.3042 699.052 23.2016 697.155 30.7106C695.258 38.2196 694.284 42.1559 694.232 42.5197C694.232 42.5717 694.232 42.6756 694.232 42.8315C694.232 42.9874 694.219 43.1173 694.193 43.2212V43.4551Z" fill="black"/>
<path d="M695 193L686.34 208L703.66 208L695 193ZM695 409L703.66 394L686.34 394L695 409ZM693.5 206.5L693.5 395.5L696.5 395.5L696.5 206.5L693.5 206.5Z" fill="#FF2A23"/>
<path d="M695 97L686.34 112L703.66 112L695 97ZM695 192L703.66 177L686.34 177L695 192ZM693.5 110.5L693.5 178.5L696.5 178.5L696.5 110.5L693.5 110.5Z" fill="#64BC1F"/>
<path d="M695 72L686.34 87L703.66 87L695 72ZM695 97L703.66 82L686.34 82L695 97Z" fill="#B0833E"/>
<path d="M237.646 474.859V482.975H234.746C234.277 481.275 233.682 479.928 232.959 478.932C232.236 477.916 231.396 477.193 230.439 476.764C229.482 476.334 228.33 476.119 226.982 476.119C224.971 476.119 223.174 476.793 221.592 478.141C220.029 479.469 218.799 481.48 217.9 484.176C217.002 486.852 216.553 490.094 216.553 493.902C216.553 497.73 216.924 501.002 217.666 503.717C218.408 506.412 219.502 508.453 220.947 509.84C222.393 511.207 224.17 511.891 226.279 511.891C227.881 511.891 229.189 511.666 230.205 511.217C231.221 510.748 232.07 510.016 232.754 509.02C233.457 508.023 234.121 506.559 234.746 504.625H237.646V513.004C235.811 513.492 233.926 513.854 231.992 514.088C230.078 514.342 227.969 514.469 225.664 514.469C220.703 514.469 216.953 512.789 214.414 509.43C211.875 506.07 210.605 501.061 210.605 494.4C210.605 490.221 211.26 486.559 212.568 483.414C213.896 480.27 215.84 477.838 218.398 476.119C220.957 474.4 224.014 473.541 227.568 473.541C229.346 473.541 230.986 473.639 232.49 473.834C233.994 474.01 235.713 474.352 237.646 474.859ZM251.533 506.676C251.533 508.355 251.611 509.527 251.768 510.191C251.924 510.836 252.217 511.334 252.646 511.686C253.096 512.018 253.818 512.311 254.814 512.564V514H243.184V512.564C244.16 512.311 244.834 512.047 245.205 511.773C245.596 511.5 245.869 511.178 246.025 510.807C246.201 510.416 246.318 509.898 246.377 509.254C246.455 508.59 246.494 507.73 246.494 506.676V482.154C246.494 480.279 246.475 478.971 246.436 478.229C246.416 477.486 246.338 476.861 246.201 476.354C246.084 475.826 245.908 475.416 245.674 475.123C245.459 474.83 245.156 474.596 244.766 474.42C244.395 474.244 243.711 474.068 242.715 473.893V472.369L249.775 472.076H251.533V506.676ZM268.379 474.508V480.191H262.988V474.508H268.379ZM260 512.564C260.762 512.33 261.299 512.125 261.611 511.949C261.943 511.773 262.217 511.529 262.432 511.217C262.666 510.904 262.842 510.426 262.959 509.781C263.096 509.137 263.164 508.131 263.164 506.764V493.99C263.164 492.74 263.145 491.734 263.105 490.973C263.066 490.211 262.93 489.605 262.695 489.156C262.461 488.688 262.1 488.346 261.611 488.131C261.143 487.896 260.469 487.701 259.59 487.545V485.992L266.416 485.729H268.203V506.676C268.203 508.355 268.281 509.527 268.438 510.191C268.594 510.836 268.887 511.334 269.316 511.686C269.766 512.018 270.488 512.311 271.484 512.564V514H260V512.564ZM298.525 486.666V492.789H294.805C294.473 491.52 294.062 490.523 293.574 489.801C293.086 489.059 292.52 488.541 291.875 488.248C291.23 487.955 290.43 487.809 289.473 487.809C288.105 487.809 286.895 488.248 285.84 489.127C284.785 490.006 283.945 491.344 283.32 493.141C282.715 494.938 282.412 497.135 282.412 499.732C282.412 501.393 282.529 502.916 282.764 504.303C282.998 505.67 283.398 506.842 283.965 507.818C284.531 508.795 285.283 509.557 286.221 510.104C287.158 510.65 288.32 510.924 289.707 510.924C291.055 510.924 292.305 510.66 293.457 510.133C294.629 509.605 295.84 508.678 297.09 507.35L298.76 509.283C297.764 510.377 296.885 511.227 296.123 511.832C295.361 512.418 294.541 512.916 293.662 513.326C292.803 513.717 291.943 514 291.084 514.176C290.244 514.371 289.326 514.469 288.33 514.469C284.639 514.469 281.816 513.248 279.863 510.807C277.91 508.346 276.934 504.801 276.934 500.172C276.934 497.281 277.48 494.723 278.574 492.496C279.668 490.25 281.201 488.521 283.174 487.311C285.146 486.1 287.422 485.494 290 485.494C291.602 485.494 293.076 485.592 294.424 485.787C295.791 485.963 297.158 486.256 298.525 486.666ZM311.006 497.682H311.943C312.588 497.682 313.115 497.613 313.525 497.477C314.014 497.301 314.551 497.008 315.137 496.598C315.723 496.168 316.553 495.455 317.627 494.459C318.525 493.619 319.199 492.906 319.648 492.32C320.117 491.734 320.439 491.197 320.615 490.709C320.771 490.299 320.85 489.889 320.85 489.479C320.85 488.893 320.664 488.434 320.293 488.102C319.941 487.77 319.355 487.545 318.535 487.428V485.992H331.162V487.428C330.264 487.604 329.307 488.004 328.291 488.629C327.275 489.254 326.23 490.074 325.156 491.09L318.418 497.477L326.855 508.492C327.832 509.781 328.711 510.738 329.492 511.363C330.293 511.969 331.162 512.369 332.1 512.564V514H320.85V512.564C321.357 512.506 321.729 512.398 321.963 512.242C322.217 512.066 322.344 511.783 322.344 511.393C322.344 511.1 322.285 510.816 322.168 510.543C322.07 510.25 321.855 509.859 321.523 509.371C321.191 508.883 320.586 508.033 319.707 506.822L316.221 502.135C315.557 501.256 315.078 500.68 314.785 500.406C314.512 500.133 314.219 499.938 313.906 499.82C313.594 499.703 313.174 499.645 312.646 499.645H311.006V506.676C311.006 508.355 311.084 509.527 311.24 510.191C311.396 510.836 311.689 511.334 312.119 511.686C312.568 512.018 313.291 512.311 314.287 512.564V514H302.656V512.564C303.633 512.311 304.307 512.047 304.678 511.773C305.068 511.5 305.342 511.178 305.498 510.807C305.674 510.416 305.791 509.898 305.85 509.254C305.928 508.59 305.967 507.73 305.967 506.676V482.154C305.967 480.279 305.947 478.971 305.908 478.229C305.889 477.486 305.811 476.861 305.674 476.354C305.557 475.826 305.381 475.416 305.146 475.123C304.932 474.83 304.629 474.596 304.238 474.42C303.867 474.244 303.184 474.068 302.188 473.893V472.369L309.248 472.076H311.006V497.682ZM355.742 490.592L355.859 490.621C357.383 489.078 358.584 488.004 359.463 487.398C360.361 486.773 361.24 486.305 362.1 485.992C362.979 485.68 363.916 485.523 364.912 485.523C365.986 485.523 366.943 485.65 367.783 485.904C368.623 486.158 369.355 486.549 369.98 487.076C370.625 487.584 371.143 488.219 371.533 488.98C371.943 489.723 372.246 490.621 372.441 491.676C372.637 492.711 372.734 494.029 372.734 495.631V506.676C372.734 508.375 372.803 509.537 372.939 510.162C373.096 510.768 373.359 511.246 373.73 511.598C374.121 511.93 374.893 512.252 376.045 512.564V514H364.502V512.564C365.264 512.33 365.811 512.125 366.143 511.949C366.475 511.773 366.748 511.529 366.963 511.217C367.197 510.904 367.373 510.426 367.49 509.781C367.627 509.117 367.695 508.121 367.695 506.793V499.117C367.695 496.52 367.559 494.537 367.285 493.17C367.031 491.783 366.514 490.748 365.732 490.064C364.971 489.381 363.896 489.039 362.51 489.039C361.729 489.039 361.025 489.176 360.4 489.449C359.775 489.723 359.053 490.211 358.232 490.914C357.412 491.617 356.787 492.34 356.357 493.082C355.947 493.824 355.742 494.615 355.742 495.455V506.676C355.742 508.004 355.771 508.951 355.83 509.518C355.908 510.084 356.045 510.562 356.24 510.953C356.436 511.324 356.729 511.637 357.119 511.891C357.529 512.125 358.154 512.35 358.994 512.564V514H347.393V512.564C348.252 512.33 348.867 512.105 349.238 511.891C349.609 511.676 349.893 511.402 350.088 511.07C350.303 510.738 350.459 510.26 350.557 509.635C350.654 509.01 350.703 508.023 350.703 506.676V482.154C350.703 480.279 350.684 478.971 350.645 478.229C350.625 477.486 350.547 476.861 350.41 476.354C350.293 475.826 350.117 475.416 349.883 475.123C349.668 474.83 349.365 474.596 348.975 474.42C348.604 474.244 347.92 474.068 346.924 473.893V472.369L353.984 472.076H355.742V490.592ZM404.404 509.02C403.154 510.328 402.002 511.354 400.947 512.096C399.912 512.838 398.77 513.424 397.52 513.854C396.27 514.264 394.893 514.469 393.389 514.469C389.365 514.469 386.328 513.268 384.277 510.865C382.227 508.443 381.201 504.879 381.201 500.172C381.201 497.262 381.719 494.693 382.754 492.467C383.809 490.24 385.303 488.521 387.236 487.311C389.17 486.1 391.396 485.494 393.916 485.494C395.889 485.494 397.568 485.807 398.955 486.432C400.342 487.057 401.445 487.916 402.266 489.01C403.105 490.084 403.75 491.451 404.199 493.111C404.668 494.752 404.932 496.9 404.99 499.557H386.533V500.084C386.533 502.389 386.787 504.332 387.295 505.914C387.822 507.477 388.672 508.707 389.844 509.605C391.035 510.484 392.578 510.924 394.473 510.924C396.074 510.924 397.51 510.631 398.779 510.045C400.068 509.439 401.348 508.463 402.617 507.115L404.404 509.02ZM399.482 497.125C399.365 495.016 399.102 493.297 398.691 491.969C398.281 490.621 397.666 489.596 396.846 488.893C396.025 488.17 394.951 487.809 393.623 487.809C391.611 487.809 390 488.619 388.789 490.24C387.598 491.842 386.895 494.137 386.68 497.125H399.482ZM418.203 490.855L418.613 490.943C419.688 489.635 420.684 488.609 421.602 487.867C422.52 487.105 423.506 486.52 424.561 486.109C425.635 485.699 426.846 485.494 428.193 485.494C429.326 485.494 430.352 485.553 431.27 485.67V492.408H427.959C427.49 491.354 426.992 490.592 426.465 490.123C425.938 489.635 425.215 489.391 424.297 489.391C423.594 489.391 422.891 489.596 422.188 490.006C421.504 490.416 420.84 491.012 420.195 491.793C419.551 492.574 419.102 493.307 418.848 493.99C418.613 494.674 418.496 495.484 418.496 496.422V506.676C418.496 508.453 418.604 509.684 418.818 510.367C419.033 511.031 419.385 511.52 419.873 511.832C420.381 512.145 421.133 512.389 422.129 512.564V514H410.322V512.564C411.064 512.33 411.592 512.125 411.904 511.949C412.236 511.773 412.52 511.529 412.754 511.217C412.988 510.904 413.164 510.426 413.281 509.781C413.398 509.137 413.457 508.131 413.457 506.764V493.99C413.457 492.74 413.438 491.734 413.398 490.973C413.359 490.211 413.223 489.605 412.988 489.156C412.754 488.688 412.393 488.346 411.904 488.131C411.436 487.896 410.762 487.701 409.883 487.545V486.021L416.738 485.729H418.525L418.203 490.855ZM457.666 509.02C456.416 510.328 455.264 511.354 454.209 512.096C453.174 512.838 452.031 513.424 450.781 513.854C449.531 514.264 448.154 514.469 446.65 514.469C442.627 514.469 439.59 513.268 437.539 510.865C435.488 508.443 434.463 504.879 434.463 500.172C434.463 497.262 434.98 494.693 436.016 492.467C437.07 490.24 438.564 488.521 440.498 487.311C442.432 486.1 444.658 485.494 447.178 485.494C449.15 485.494 450.83 485.807 452.217 486.432C453.604 487.057 454.707 487.916 455.527 489.01C456.367 490.084 457.012 491.451 457.461 493.111C457.93 494.752 458.193 496.9 458.252 499.557H439.795V500.084C439.795 502.389 440.049 504.332 440.557 505.914C441.084 507.477 441.934 508.707 443.105 509.605C444.297 510.484 445.84 510.924 447.734 510.924C449.336 510.924 450.771 510.631 452.041 510.045C453.33 509.439 454.609 508.463 455.879 507.115L457.666 509.02ZM452.744 497.125C452.627 495.016 452.363 493.297 451.953 491.969C451.543 490.621 450.928 489.596 450.107 488.893C449.287 488.17 448.213 487.809 446.885 487.809C444.873 487.809 443.262 488.619 442.051 490.24C440.859 491.842 440.156 494.137 439.941 497.125H452.744ZM472.52 474.01L470.615 501.812H467.773L466.338 474.01H472.52ZM472.227 507.203V514H466.367V507.203H472.227Z" fill="black"/>
</svg>
