<svg width="634" height="301" viewBox="0 0 634 301" fill="none" xmlns="http://www.w3.org/2000/svg">
<path d="M98.0588 157.182C94.9882 137.402 69.9874 141.957 52 157.182V216L574 212.877V157.182C574 157.182 549.435 180.085 525.894 157.182C502.353 134.279 470.624 173.838 475.741 157.182C480.859 140.526 421.042 184.443 427.635 157.182C434.228 129.921 386.329 167.481 383.624 157.182C380.918 146.883 342.464 137.896 337.565 157.182C332.665 176.468 329.819 154.595 289.459 157.182C273.55 145.928 251.588 150.936 239.306 157.182C227.024 163.428 197.341 137.402 193.247 157.182C189.153 176.962 149.235 157.182 146.165 157.182C143.094 157.182 101.129 176.962 98.0588 157.182Z" fill="#B0833E" stroke="black" stroke-width="0.5"/>
<rect x="203.25" y="43.25" width="167.5" height="108.5" fill="#D9D9D9" stroke="black" stroke-width="0.5"/>
<path d="M457 96L442 87.3397V104.66L457 96ZM371 97.5H443.5V94.5H371V97.5Z" fill="black"/>
<path d="M403.603 29.5661C403.603 28.031 403.02 27.2634 401.853 27.2634C400.379 27.2634 398.844 28.1538 397.248 29.9345C395.651 31.7152 394.331 34.4477 393.287 38.1319C393.226 38.1933 393.164 38.2854 393.103 38.4083C393.042 38.5311 393.011 38.6232 393.011 38.6846C393.011 38.746 392.95 38.8074 392.827 38.8688C392.704 38.9302 392.612 38.9609 392.55 38.9609C392.489 38.9609 392.366 38.9609 392.182 38.9609C391.998 38.9609 391.752 38.9609 391.445 38.9609H390.156C389.787 38.5925 389.603 38.3162 389.603 38.1319C389.603 37.7021 389.849 36.8117 390.34 35.4609C390.831 34.11 391.568 32.5135 392.55 30.6713C393.533 28.8292 394.884 27.2634 396.603 25.9739C398.322 24.6844 400.257 24.009 402.406 23.9476C404.985 23.9476 406.98 24.6844 408.393 26.1581C409.805 27.6318 410.542 29.3511 410.603 31.3161C410.603 32.3599 410.511 33.1582 410.327 33.7108C410.327 34.0793 409.866 35.4302 408.945 37.7635C408.024 40.0969 407.073 42.8294 406.09 45.961C405.108 49.0926 404.555 51.8251 404.432 54.1584C404.432 55.8163 404.586 57.1672 404.893 58.2111C405.691 60.8515 407.625 62.1717 410.695 62.1717C412.967 62.1717 415.086 61.1278 417.051 59.04C419.016 56.9523 420.551 54.5268 421.656 51.7637C422.761 49.0005 423.652 46.4522 424.327 44.1188C425.003 41.7855 425.34 40.0969 425.34 39.053C425.34 37.6407 425.095 36.4126 424.603 35.3688C424.112 34.3249 423.56 33.5266 422.945 32.974C422.331 32.4214 421.779 31.8687 421.288 31.3161C420.796 30.7634 420.551 30.088 420.551 29.2897C420.551 27.9388 421.134 26.6801 422.301 25.5134C423.467 24.3467 424.726 23.7634 426.077 23.7634C427.244 23.7634 428.288 24.316 429.209 25.4213C430.13 26.5266 430.621 28.3073 430.682 30.7634C430.682 32.4214 430.314 34.9696 429.577 38.4083C428.84 41.8469 427.704 45.6846 426.169 49.9215C424.634 54.1584 422.454 57.812 419.63 60.8822C416.805 63.9524 413.551 65.5182 409.866 65.5796C405.937 65.5796 402.805 64.5664 400.472 62.5401C398.2 60.5752 397.064 57.6585 397.064 53.79C397.064 51.8865 397.309 49.9215 397.8 47.8952C398.292 45.8689 399.55 42.2767 401.577 37.1188C402.928 33.1889 403.603 30.6713 403.603 29.5661Z" fill="black"/>
<path d="M424.263 1.84216C424.263 1.35092 424.416 0.921095 424.723 0.55267C425.03 0.184245 425.491 3.27975e-05 426.105 3.27975e-05C426.535 3.27975e-05 426.903 0.153543 427.21 0.460564C427.517 0.70618 427.824 1.28952 428.131 2.21058C428.745 4.48253 430.004 6.23255 431.908 7.46064C432.583 7.89046 432.921 8.4431 432.921 9.11855C432.921 9.67118 432.829 10.0396 432.645 10.2238C432.46 10.408 432.031 10.6844 431.355 11.0528C428.715 12.4037 426.412 14.3379 424.447 16.8555C424.324 16.9783 424.171 17.1625 423.987 17.4081C423.802 17.6537 423.649 17.8379 423.526 17.9607C423.403 18.0836 423.25 18.145 423.066 18.145C422.881 18.145 422.666 18.1757 422.421 18.2371C421.991 18.2371 421.592 18.0836 421.223 17.7765C420.855 17.4695 420.64 17.009 420.579 16.3949C420.579 15.2283 422.022 13.4168 424.908 10.9607H409.158L393.407 10.8686C392.609 10.3159 392.21 9.73259 392.21 9.11855C392.21 8.68872 392.609 8.07468 393.407 7.27642H426.473C425 4.94307 424.263 3.13164 424.263 1.84216Z" fill="black"/>
<path d="M40.2561 260.633L46.4458 260.768C49.1567 260.768 50.738 260.723 51.1898 260.633H51.5061V263.434H47.3946L42.1537 277.169C41.3404 279.307 40.482 281.566 39.5784 283.946C38.6747 286.326 37.997 288.103 37.5452 289.277C37.0934 290.452 36.8525 291.085 36.8223 291.175C36.6717 291.476 36.4759 291.702 36.235 291.853C36.0844 291.913 35.6778 291.943 35.0151 291.943H34.6988C34.247 291.943 33.9458 291.913 33.7952 291.853C33.6446 291.792 33.4488 291.566 33.2079 291.175C33.2079 291.145 33.0422 290.708 32.7109 289.865C32.3796 289.021 31.8976 287.771 31.2651 286.115C30.6326 284.458 30.0302 282.862 29.4579 281.326L25.753 271.657L22.0482 281.326C21.2651 283.404 20.4067 285.663 19.4729 288.103C18.8103 289.88 18.4036 290.919 18.253 291.22C18.1024 291.521 17.9217 291.732 17.7109 291.853C17.5603 291.913 17.1536 291.943 16.491 291.943H16.0392C15.3464 291.943 14.8946 291.687 14.6838 291.175C14.6838 291.115 14.4578 290.497 14.006 289.323C13.5542 288.148 12.8615 286.356 11.9277 283.946C10.994 281.536 10.1356 279.277 9.35242 277.169L4.15663 263.434H0V260.633H0.496989C0.768073 260.723 2.99699 260.768 7.18374 260.768C11.6416 260.768 14.2319 260.723 14.9548 260.633H15.5422V263.434H13.5091C12.1536 263.434 11.4759 263.449 11.4759 263.479L18.6597 282.274L21.4609 274.955L24.2621 267.636L22.6808 263.434H18.5241V260.633H19.0211C19.2922 260.723 21.5211 260.768 25.7079 260.768C30.1657 260.768 32.7561 260.723 33.479 260.633H34.0663V263.434H32.0332C30.6777 263.434 30 263.449 30 263.479L37.1838 282.274C37.2139 282.274 38.4187 279.142 40.7982 272.877C43.1778 266.612 44.3675 263.464 44.3675 263.434H39.8043V260.633H40.2561Z" fill="black"/>
<path d="M65.6022 291.853C63.825 291.853 62.2437 291.627 60.8582 291.175C59.4726 290.723 58.3732 290.151 57.56 289.458C56.7467 288.765 56.0539 287.952 55.4817 287.018C54.9094 286.085 54.5479 285.196 54.3973 284.353C54.2467 283.509 54.1413 282.636 54.0811 281.732C54.0811 280.136 54.3521 278.705 54.8943 277.44C55.4365 276.175 56.0991 275.151 56.8823 274.368C57.6654 273.585 58.569 272.967 59.5931 272.515C60.6172 272.063 61.5208 271.717 62.304 271.476C63.0871 271.235 63.8552 271.145 64.6082 271.205H65.2407C66.4455 271.205 67.1534 271.22 67.3642 271.25C70.4365 271.612 72.8311 272.741 74.5479 274.639C76.2648 276.536 77.1232 278.871 77.1232 281.642C77.1232 283.6 76.7016 285.301 75.8582 286.747C75.0148 288.193 73.9305 289.323 72.6052 290.136C70.8582 291.28 68.5238 291.853 65.6022 291.853ZM70.6624 281.235V280.332C70.6624 279.428 70.6473 278.705 70.6172 278.163C70.5871 277.621 70.4817 277.018 70.301 276.356C70.1202 275.693 69.8341 275.181 69.4425 274.82C69.051 274.458 68.5389 274.157 67.9064 273.916C67.2738 273.675 66.4305 273.539 65.3762 273.509C64.1413 273.509 63.0871 273.826 62.2136 274.458C61.5509 274.97 61.1142 275.663 60.9034 276.536C60.6925 277.41 60.572 278.976 60.5419 281.235C60.5419 282.079 60.5419 282.696 60.5419 283.088C60.5419 283.479 60.572 284.021 60.6323 284.714C60.6925 285.407 60.7829 285.934 60.9034 286.295C61.0238 286.657 61.2046 287.063 61.4455 287.515C61.6865 287.967 61.9877 288.314 62.3491 288.554C62.7106 288.795 63.1624 288.976 63.7046 289.097C64.2467 289.217 64.8793 289.307 65.6022 289.368C67.4395 289.368 68.7497 288.856 69.5329 287.832C69.9546 287.32 70.2407 286.597 70.3913 285.663C70.5419 284.729 70.6323 283.253 70.6624 281.235Z" fill="black"/>
<path d="M96.9125 278.389C96.9125 278.389 96.4457 278.389 95.5119 278.389C94.5782 278.389 93.8252 278.103 93.2529 277.53C92.6806 276.958 92.3945 276.22 92.3945 275.316C92.3945 274.804 92.4999 274.307 92.7107 273.825C92.8011 273.735 92.8463 273.66 92.8463 273.6C92.5451 273.6 92.2288 273.675 91.8975 273.825C91.5661 273.976 91.1445 274.262 90.6324 274.684C90.1204 275.106 89.6987 275.798 89.3673 276.762C89.036 277.726 88.7951 278.931 88.6445 280.377C88.6143 280.618 88.5993 282.124 88.5993 284.895V288.826H92.53V291.627H92.0782C91.536 291.536 89.4728 291.491 85.8884 291.491C82.4547 291.491 80.6023 291.536 80.3312 291.627H79.9246V288.826H83.042V282.139V277.937C83.042 276.431 83.0119 275.527 82.9517 275.226C82.8914 274.925 82.6956 274.729 82.3643 274.639C81.9426 274.518 81.3252 274.458 80.5119 274.458H79.9246V271.657H80.0601L83.9456 271.476C86.536 271.356 87.8463 271.295 87.8764 271.295H88.1023V272.922L88.1475 274.548C89.2318 272.41 90.7981 271.341 92.8463 271.341H93.1173C95.0149 271.341 96.4005 271.747 97.274 272.56C98.1475 273.374 98.5842 274.307 98.5842 275.362C98.5842 276.205 98.3131 276.913 97.771 277.485L96.9125 278.389Z" fill="black"/>
<path d="M101.476 260.633L105.588 260.452C108.329 260.331 109.714 260.271 109.744 260.271H110.015V280.106L117.063 274.368H115.663V271.566H116.07C116.521 271.657 118.344 271.702 121.536 271.702C123.585 271.702 124.789 271.657 125.151 271.566H125.422V274.368H121.536L115.708 279.112L123.298 288.826H126.551V291.627H126.19C125.738 291.536 124.187 291.491 121.536 291.491C118.344 291.491 116.476 291.536 115.934 291.627H115.527V288.826H116.205L116.883 288.78L111.777 282.319L110.738 283.088L109.789 283.856V288.826H112.907V291.627H112.545C112.003 291.536 110.196 291.491 107.124 291.491C103.78 291.491 101.973 291.536 101.702 291.627H101.341V288.826H104.458V276.627C104.458 274.97 104.458 273.148 104.458 271.16C104.458 269.172 104.473 267.952 104.503 267.5C104.503 265.723 104.473 264.654 104.413 264.292C104.353 263.931 104.142 263.705 103.78 263.615C103.359 263.494 102.741 263.434 101.928 263.434H101.341V260.633H101.476Z" fill="black"/>
<path d="M154.609 260.633L158.72 260.452C161.461 260.332 162.847 260.271 162.877 260.271H163.148V274.051C163.148 275.919 163.148 277.967 163.148 280.196C163.148 282.425 163.133 283.78 163.103 284.262C163.103 286.25 163.133 287.455 163.193 287.877C163.253 288.298 163.464 288.554 163.826 288.645C164.247 288.765 164.865 288.826 165.678 288.826H166.265V290.226C166.265 291.16 166.25 291.627 166.22 291.627C165.618 291.627 164.142 291.672 161.792 291.762C159.443 291.853 157.967 291.898 157.365 291.898C157.335 291.898 157.319 291.567 157.319 290.904V289.91L156.868 290.226C154.94 291.341 152.892 291.898 150.723 291.898C147.53 291.898 145.03 290.934 143.223 289.006C141.416 287.079 140.497 284.579 140.467 281.506C140.467 280.271 140.663 279.082 141.054 277.937C141.446 276.792 142.063 275.708 142.907 274.684C143.75 273.66 144.85 272.847 146.205 272.244C147.56 271.642 149.172 271.341 151.039 271.341C153.66 271.341 155.844 271.898 157.591 273.012V268.72V266.551C157.591 265.286 157.56 264.503 157.5 264.202C157.44 263.901 157.244 263.705 156.913 263.615C156.491 263.494 155.874 263.434 155.06 263.434H154.473V260.633H154.609ZM157.319 275.813C155.844 274.338 154.036 273.6 151.898 273.6C151.506 273.6 150.979 273.705 150.316 273.916C149.654 274.127 149.082 274.443 148.6 274.865C147.907 275.467 147.47 276.235 147.289 277.169C147.109 278.103 147.003 279.338 146.973 280.874V281.642C146.973 282.907 146.988 283.841 147.018 284.443C147.048 285.045 147.169 285.708 147.38 286.431C147.591 287.154 147.907 287.771 148.328 288.283C149.202 289.127 150.347 289.548 151.762 289.548C153.871 289.548 155.618 288.735 157.003 287.109L157.319 286.702V275.813Z" fill="black"/>
<path d="M180.588 291.853C178.81 291.853 177.229 291.627 175.844 291.175C174.458 290.723 173.359 290.151 172.545 289.458C171.732 288.765 171.039 287.952 170.467 287.018C169.895 286.085 169.533 285.196 169.383 284.353C169.232 283.509 169.127 282.636 169.066 281.732C169.066 280.136 169.337 278.705 169.88 277.44C170.422 276.175 171.084 275.151 171.868 274.368C172.651 273.585 173.554 272.967 174.578 272.515C175.603 272.063 176.506 271.717 177.289 271.476C178.072 271.235 178.841 271.145 179.594 271.205H180.226C181.431 271.205 182.139 271.22 182.35 271.25C185.422 271.612 187.816 272.741 189.533 274.639C191.25 276.536 192.109 278.871 192.109 281.642C192.109 283.6 191.687 285.301 190.844 286.747C190 288.193 188.916 289.323 187.591 290.136C185.844 291.28 183.509 291.853 180.588 291.853ZM185.648 281.235V280.332C185.648 279.428 185.633 278.705 185.603 278.163C185.572 277.621 185.467 277.018 185.286 276.356C185.106 275.693 184.819 275.181 184.428 274.82C184.036 274.458 183.524 274.157 182.892 273.916C182.259 273.675 181.416 273.539 180.362 273.509C179.127 273.509 178.072 273.826 177.199 274.458C176.536 274.97 176.1 275.663 175.889 276.536C175.678 277.41 175.557 278.976 175.527 281.235C175.527 282.079 175.527 282.696 175.527 283.088C175.527 283.479 175.557 284.021 175.618 284.714C175.678 285.407 175.768 285.934 175.889 286.295C176.009 286.657 176.19 287.063 176.431 287.515C176.672 287.967 176.973 288.314 177.334 288.554C177.696 288.795 178.148 288.976 178.69 289.097C179.232 289.217 179.865 289.307 180.588 289.368C182.425 289.368 183.735 288.856 184.518 287.832C184.94 287.32 185.226 286.597 185.377 285.663C185.527 284.729 185.618 283.253 185.648 281.235Z" fill="black"/>
<path d="M195.407 271.657C200.739 271.416 203.419 271.295 203.449 271.295H203.721V273.238L203.766 275.136C204.007 274.744 204.308 274.353 204.669 273.961C205.031 273.569 205.693 273.103 206.657 272.56C207.621 272.018 208.721 271.627 209.955 271.386C210.317 271.325 210.859 271.295 211.582 271.295C212.486 271.295 213.239 271.341 213.841 271.431C214.443 271.521 215.091 271.717 215.784 272.018C216.477 272.319 217.049 272.801 217.501 273.464C217.952 274.127 218.284 274.97 218.495 275.994C218.555 276.325 218.6 278.554 218.63 282.681V288.826H221.748V291.627H221.341C220.799 291.536 218.916 291.491 215.693 291.491C212.23 291.491 210.362 291.536 210.091 291.627H209.684V288.826H212.802V282.862V279.202C212.802 277.003 212.666 275.527 212.395 274.774C212.124 274.021 211.446 273.63 210.362 273.6C209.007 273.6 207.757 274.036 206.612 274.91C205.468 275.783 204.715 276.988 204.353 278.524C204.293 278.795 204.248 280.588 204.218 283.901V288.826H207.335V291.627H206.928C206.386 291.536 204.519 291.491 201.326 291.491C198.103 291.491 196.221 291.536 195.678 291.627H195.272V288.826H198.389V282.139V277.937C198.389 276.431 198.359 275.527 198.299 275.226C198.239 274.925 198.043 274.729 197.711 274.639C197.29 274.518 196.672 274.458 195.859 274.458H195.272V271.657H195.407Z" fill="black"/>
<path d="M223.915 281.461C223.915 278.238 224.969 275.723 227.078 273.916C229.186 272.109 231.746 271.205 234.758 271.205H235.255C238.237 271.205 240.542 271.973 242.168 273.509C243.915 275.256 244.789 277.636 244.789 280.648C244.789 281.16 244.668 281.476 244.427 281.597C244.186 281.717 243.493 281.792 242.349 281.823C242.078 281.823 241.385 281.823 240.27 281.823C239.156 281.823 238.147 281.807 237.243 281.777H230.376V282.184C230.376 283.148 230.436 283.976 230.557 284.669C230.677 285.362 230.933 286.07 231.325 286.792C231.716 287.515 232.319 288.088 233.132 288.509C233.945 288.931 234.999 289.217 236.295 289.368C236.475 289.398 236.731 289.413 237.063 289.413C238.659 289.413 239.969 288.871 240.993 287.786C241.325 287.365 241.581 286.973 241.761 286.612C241.942 286.25 242.048 286.009 242.078 285.889C242.108 285.768 242.228 285.678 242.439 285.618C242.65 285.557 242.966 285.527 243.388 285.527H243.614C244.397 285.527 244.789 285.798 244.789 286.341C244.789 286.551 244.713 286.853 244.563 287.244C244.412 287.636 244.096 288.103 243.614 288.645C243.132 289.187 242.575 289.699 241.942 290.181C241.31 290.663 240.436 291.07 239.322 291.401C238.207 291.732 236.987 291.898 235.662 291.898C232.319 291.898 229.533 290.979 227.304 289.142C225.075 287.304 223.945 284.744 223.915 281.461ZM239.773 279.157C239.593 277.048 239.066 275.573 238.192 274.729C237.319 273.886 236.295 273.464 235.12 273.464C234.307 273.464 233.554 273.645 232.861 274.006C232.168 274.368 231.641 274.865 231.28 275.497C230.798 276.28 230.511 277.455 230.421 279.021V279.609H239.773V279.157Z" fill="black"/>
<path d="M259.022 260.633L263.133 260.452C265.874 260.332 267.26 260.271 267.29 260.271H267.561V273.148C269.609 271.913 271.974 271.295 274.654 271.295C277.696 271.295 280.121 272.244 281.928 274.142C283.736 276.039 284.654 278.539 284.684 281.642C284.684 284.624 283.706 287.079 281.748 289.006C279.79 290.934 277.124 291.898 273.751 291.898H273.615C271.115 291.898 268.826 291.009 266.748 289.232L264.805 291.582L263.404 291.627H262.004V278.027C262.004 276.19 262.004 274.172 262.004 271.973C262.004 269.774 262.019 268.419 262.049 267.907C262.049 265.919 262.019 264.729 261.959 264.338C261.898 263.946 261.687 263.705 261.326 263.615C260.904 263.494 260.287 263.434 259.474 263.434H258.886V260.633H259.022ZM267.832 286.883L268.058 287.154C268.209 287.335 268.359 287.515 268.51 287.696C268.66 287.877 268.901 288.088 269.233 288.329C269.564 288.57 269.895 288.78 270.227 288.961C270.558 289.142 270.949 289.292 271.401 289.413C271.853 289.533 272.35 289.594 272.892 289.594C274.127 289.594 275.212 289.277 276.145 288.645C277.079 288.012 277.681 287.033 277.953 285.708C278.133 284.835 278.224 283.344 278.224 281.235C278.224 280.211 278.209 279.398 278.178 278.795C278.148 278.193 278.028 277.515 277.817 276.762C277.606 276.009 277.335 275.437 277.004 275.045C276.672 274.654 276.16 274.323 275.468 274.051C274.775 273.78 273.977 273.645 273.073 273.645C271.236 273.645 269.609 274.292 268.193 275.588L267.832 275.904V286.883Z" fill="black"/>
<path d="M290.242 296.235C290.242 296.476 290.287 296.732 290.377 297.003C290.468 297.274 290.694 297.56 291.055 297.862C291.417 298.163 291.883 298.329 292.456 298.359C292.908 298.329 293.344 298.238 293.766 298.088C294.188 297.937 294.549 297.756 294.85 297.545C295.152 297.335 295.453 297.079 295.754 296.777C296.055 296.476 296.296 296.19 296.477 295.919C296.658 295.648 296.838 295.362 297.019 295.06C297.2 294.759 297.335 294.503 297.426 294.292C297.516 294.082 297.606 293.871 297.697 293.66C297.787 293.449 297.832 293.328 297.832 293.298L298.6 291.627L290.784 274.368H287.621V271.566H287.983C288.435 271.657 290.121 271.702 293.043 271.702C296.236 271.702 298.103 271.657 298.645 271.566H299.052V274.368H297.968C297.275 274.368 296.929 274.398 296.929 274.458L301.673 284.804L306.417 274.368H304.248V271.566H304.564C304.926 271.657 306.341 271.702 308.811 271.702C311.01 271.702 312.2 271.657 312.38 271.566H312.652V274.368H309.489L304.79 284.759C301.537 291.868 299.895 295.467 299.865 295.557C299.022 297.124 297.938 298.359 296.612 299.262C295.287 300.166 293.871 300.633 292.365 300.663C290.98 300.663 289.82 300.241 288.886 299.398C287.953 298.554 287.486 297.47 287.486 296.145C287.486 295.06 287.802 294.307 288.435 293.886C289.067 293.464 289.715 293.238 290.377 293.208C291.1 293.208 291.748 293.434 292.32 293.886C292.892 294.338 293.224 294.97 293.314 295.783V296.145H290.242V296.235Z" fill="black"/>
<path d="M339.083 291.627C338.54 291.536 336.492 291.491 332.938 291.491C329.504 291.491 327.652 291.536 327.381 291.627H326.974V288.826H330.092V274.368H327.064V271.566H330.092V268.901L330.137 266.235L330.227 265.783C330.679 264.187 331.673 262.892 333.209 261.898C334.745 260.904 336.824 260.286 339.444 260.045C339.504 260.045 339.715 260.045 340.077 260.045C340.438 260.045 340.709 260.03 340.89 260C341.884 260.06 342.727 260.256 343.42 260.588C344.113 260.919 344.595 261.356 344.866 261.898C345.137 262.44 345.333 262.877 345.453 263.208C345.574 263.539 345.619 263.886 345.589 264.247C345.589 265.151 345.287 265.889 344.685 266.461C344.083 267.033 343.345 267.335 342.471 267.365C341.628 267.365 340.905 267.094 340.302 266.551C339.7 266.009 339.384 265.256 339.354 264.292C339.354 263.389 339.564 262.726 339.986 262.304H339.851C339.429 262.304 338.947 262.38 338.405 262.53C337.863 262.681 337.26 263.072 336.598 263.705C335.935 264.338 335.543 265.211 335.423 266.325C335.393 266.476 335.378 267.41 335.378 269.127V271.566H340.528V274.368H335.649V288.826H339.534V291.627H339.083Z" fill="black"/>
<path d="M363.885 278.389C363.885 278.389 363.419 278.389 362.485 278.389C361.551 278.389 360.798 278.103 360.226 277.53C359.653 276.958 359.367 276.22 359.367 275.316C359.367 274.804 359.473 274.307 359.684 273.825C359.774 273.735 359.819 273.66 359.819 273.6C359.518 273.6 359.202 273.675 358.87 273.825C358.539 273.976 358.117 274.262 357.605 274.684C357.093 275.106 356.672 275.798 356.34 276.762C356.009 277.726 355.768 278.931 355.617 280.377C355.587 280.618 355.572 282.124 355.572 284.895V288.826H359.503V291.627H359.051C358.509 291.536 356.446 291.491 352.861 291.491C349.428 291.491 347.575 291.536 347.304 291.627H346.897V288.826H350.015V282.139V277.937C350.015 276.431 349.985 275.527 349.925 275.226C349.864 274.925 349.669 274.729 349.337 274.639C348.916 274.518 348.298 274.458 347.485 274.458H346.897V271.657H347.033L350.919 271.476C353.509 271.356 354.819 271.295 354.849 271.295H355.075V272.922L355.12 274.548C356.205 272.41 357.771 271.341 359.819 271.341H360.09C361.988 271.341 363.373 271.747 364.247 272.56C365.12 273.374 365.557 274.307 365.557 275.362C365.557 276.205 365.286 276.913 364.744 277.485L363.885 278.389Z" fill="black"/>
<path d="M370.257 264.066C370.257 262.892 370.649 261.958 371.432 261.265C372.215 260.572 373.134 260.226 374.188 260.226C375.212 260.286 376.085 260.663 376.808 261.356C377.531 262.048 377.893 262.952 377.893 264.066C377.893 265.211 377.531 266.13 376.808 266.822C376.085 267.515 375.182 267.877 374.097 267.907C372.983 267.907 372.064 267.56 371.341 266.868C370.619 266.175 370.257 265.241 370.257 264.066ZM369.082 271.657L373.149 271.476L377.215 271.295H377.486V288.826H380.287V291.627H379.926C379.474 291.536 377.742 291.491 374.73 291.491C371.597 291.491 369.76 291.536 369.218 291.627H368.811V288.826H371.929V282.184C371.929 277.696 371.914 275.392 371.884 275.271C371.733 274.729 370.935 274.458 369.489 274.458H368.947V271.657H369.082Z" fill="black"/>
<path d="M401.612 285.708H402.109C402.711 285.708 403.012 285.919 403.012 286.341C403.012 286.491 402.907 286.823 402.696 287.335C402.485 287.847 402.003 288.509 401.25 289.323C400.497 290.136 399.564 290.768 398.449 291.22C397.033 291.672 395.663 291.898 394.338 291.898C391.627 291.898 389.353 291.28 387.515 290.045C384.624 288.208 383.178 285.392 383.178 281.597C383.178 278.524 384.112 276.085 385.979 274.277C388.027 272.199 390.814 271.16 394.338 271.16C396.536 271.16 398.419 271.491 399.985 272.154C401.551 272.816 402.35 273.991 402.38 275.678C402.38 276.702 402.094 277.47 401.521 277.982C400.949 278.494 400.196 278.765 399.262 278.795C398.208 278.795 397.425 278.479 396.913 277.847C396.401 277.214 396.13 276.491 396.1 275.678C396.1 274.865 396.295 274.217 396.687 273.735H396.461C395.979 273.675 395.407 273.645 394.744 273.645H394.609C394.247 273.645 393.931 273.66 393.66 273.69C393.389 273.72 392.997 273.826 392.485 274.006C391.973 274.187 391.567 274.443 391.265 274.774C390.964 275.106 390.648 275.633 390.317 276.356C389.985 277.079 389.774 277.907 389.684 278.841C389.654 279.082 389.639 279.865 389.639 281.19C389.639 282.154 389.669 282.922 389.729 283.494C389.789 284.066 389.925 284.789 390.136 285.663C390.347 286.536 390.753 287.244 391.356 287.786C391.958 288.329 392.711 288.75 393.615 289.051C394.187 289.262 394.895 289.368 395.738 289.368H396.145C397.922 289.368 399.247 288.389 400.121 286.431C400.271 286.07 400.407 285.859 400.527 285.798C400.648 285.738 401.009 285.708 401.612 285.708Z" fill="black"/>
<path d="M416.792 289.413C418.238 289.413 418.96 288.103 418.96 285.482V285.076V283.63H421.762V285.166C421.762 286.28 421.732 286.943 421.671 287.154C421.491 288.268 421.024 289.217 420.271 290C419.518 290.783 418.554 291.356 417.379 291.717L416.792 291.853H415.662C413.433 291.853 411.732 291.371 410.557 290.407C409.804 289.835 409.322 289.127 409.111 288.283C408.9 287.44 408.78 286.145 408.75 284.398C408.75 284.067 408.75 283.479 408.75 282.636C408.75 281.792 408.765 281.1 408.795 280.557V274.368H405.451V272.063H405.632C406.626 272.063 407.605 271.717 408.569 271.024C409.503 270.332 410.256 269.323 410.828 267.997C411.4 266.672 411.732 265.196 411.822 263.569V262.937H414.623V271.566H420.903V274.368H414.623V280.829V282.274V284.895C414.623 286.431 414.683 287.455 414.804 287.967C414.924 288.479 415.241 288.871 415.753 289.142C416.114 289.323 416.46 289.413 416.792 289.413Z" fill="black"/>
<path d="M427.952 264.066C427.952 262.892 428.343 261.958 429.126 261.265C429.909 260.572 430.828 260.226 431.882 260.226C432.906 260.286 433.78 260.663 434.503 261.356C435.226 262.048 435.587 262.952 435.587 264.066C435.587 265.211 435.226 266.13 434.503 266.822C433.78 267.515 432.876 267.877 431.792 267.907C430.678 267.907 429.759 267.56 429.036 266.868C428.313 266.175 427.952 265.241 427.952 264.066ZM426.777 271.657L430.843 271.476L434.909 271.295H435.181V288.826H437.982V291.627H437.62C437.169 291.536 435.437 291.491 432.425 291.491C429.292 291.491 427.455 291.536 426.912 291.627H426.506V288.826H429.623V282.184C429.623 277.696 429.608 275.392 429.578 275.271C429.428 274.729 428.629 274.458 427.184 274.458H426.641V271.657H426.777Z" fill="black"/>
<path d="M452.079 291.853C450.302 291.853 448.721 291.627 447.335 291.175C445.95 290.723 444.851 290.151 444.037 289.458C443.224 288.765 442.531 287.952 441.959 287.018C441.387 286.085 441.025 285.196 440.875 284.353C440.724 283.509 440.619 282.636 440.558 281.732C440.558 280.136 440.829 278.705 441.372 277.44C441.914 276.175 442.576 275.151 443.36 274.368C444.143 273.585 445.046 272.967 446.07 272.515C447.095 272.063 447.998 271.717 448.781 271.476C449.564 271.235 450.332 271.145 451.085 271.205H451.718C452.923 271.205 453.631 271.22 453.841 271.25C456.914 271.612 459.308 272.741 461.025 274.639C462.742 276.536 463.601 278.871 463.601 281.642C463.601 283.6 463.179 285.301 462.335 286.747C461.492 288.193 460.408 289.323 459.082 290.136C457.335 291.28 455.001 291.853 452.079 291.853ZM457.14 281.235V280.332C457.14 279.428 457.125 278.705 457.095 278.163C457.064 277.621 456.959 277.018 456.778 276.356C456.598 275.693 456.311 275.181 455.92 274.82C455.528 274.458 455.016 274.157 454.384 273.916C453.751 273.675 452.908 273.539 451.854 273.509C450.619 273.509 449.564 273.826 448.691 274.458C448.028 274.97 447.591 275.663 447.381 276.536C447.17 277.41 447.049 278.976 447.019 281.235C447.019 282.079 447.019 282.696 447.019 283.088C447.019 283.479 447.049 284.021 447.11 284.714C447.17 285.407 447.26 285.934 447.381 286.295C447.501 286.657 447.682 287.063 447.923 287.515C448.164 287.967 448.465 288.314 448.826 288.554C449.188 288.795 449.64 288.976 450.182 289.097C450.724 289.217 451.357 289.307 452.079 289.368C453.917 289.368 455.227 288.856 456.01 287.832C456.432 287.32 456.718 286.597 456.869 285.663C457.019 284.729 457.11 283.253 457.14 281.235Z" fill="black"/>
<path d="M466.899 271.657C472.231 271.416 474.911 271.295 474.941 271.295H475.212V273.238L475.258 275.136C475.499 274.744 475.8 274.353 476.161 273.961C476.523 273.569 477.185 273.103 478.149 272.56C479.113 272.018 480.212 271.627 481.447 271.386C481.809 271.325 482.351 271.295 483.074 271.295C483.978 271.295 484.731 271.341 485.333 271.431C485.935 271.521 486.583 271.717 487.276 272.018C487.969 272.319 488.541 272.801 488.993 273.464C489.444 274.127 489.776 274.97 489.987 275.994C490.047 276.325 490.092 278.554 490.122 282.681V288.826H493.24V291.627H492.833C492.291 291.536 490.408 291.491 487.185 291.491C483.722 291.491 481.854 291.536 481.583 291.627H481.176V288.826H484.294V282.862V279.202C484.294 277.003 484.158 275.527 483.887 274.774C483.616 274.021 482.938 273.63 481.854 273.6C480.499 273.6 479.249 274.036 478.104 274.91C476.959 275.783 476.206 276.988 475.845 278.524C475.785 278.795 475.74 280.588 475.709 283.901V288.826H478.827V291.627H478.42C477.878 291.536 476.011 291.491 472.818 291.491C469.595 291.491 467.712 291.536 467.17 291.627H466.764V288.826H469.881V282.139V277.937C469.881 276.431 469.851 275.527 469.791 275.226C469.731 274.925 469.535 274.729 469.203 274.639C468.782 274.518 468.164 274.458 467.351 274.458H466.764V271.657H466.899Z" fill="black"/>
<path d="M546.596 260.633L552.786 260.768C555.497 260.768 557.078 260.723 557.53 260.633H557.846V263.434H553.735L548.494 277.169C547.681 279.307 546.822 281.566 545.918 283.946C545.015 286.326 544.337 288.103 543.885 289.277C543.434 290.452 543.193 291.085 543.162 291.175C543.012 291.476 542.816 291.702 542.575 291.853C542.424 291.913 542.018 291.943 541.355 291.943H541.039C540.587 291.943 540.286 291.913 540.135 291.853C539.985 291.792 539.789 291.566 539.548 291.175C539.548 291.145 539.382 290.708 539.051 289.865C538.72 289.021 538.238 287.771 537.605 286.115C536.973 284.458 536.37 282.862 535.798 281.326L532.093 271.657L528.388 281.326C527.605 283.404 526.747 285.663 525.813 288.103C525.15 289.88 524.744 290.919 524.593 291.22C524.443 291.521 524.262 291.732 524.051 291.853C523.9 291.913 523.494 291.943 522.831 291.943H522.379C521.686 291.943 521.235 291.687 521.024 291.175C521.024 291.115 520.798 290.497 520.346 289.323C519.894 288.148 519.202 286.356 518.268 283.946C517.334 281.536 516.476 279.277 515.693 277.169L510.497 263.434H506.34V260.633H506.837C507.108 260.723 509.337 260.768 513.524 260.768C517.982 260.768 520.572 260.723 521.295 260.633H521.882V263.434H519.849C518.494 263.434 517.816 263.449 517.816 263.479L525 282.274L527.801 274.955L530.602 267.636L529.021 263.434H524.864V260.633H525.361C525.632 260.723 527.861 260.768 532.048 260.768C536.506 260.768 539.096 260.723 539.819 260.633H540.406V263.434H538.373C537.018 263.434 536.34 263.449 536.34 263.479L543.524 282.274C543.554 282.274 544.759 279.142 547.138 272.877C549.518 266.612 550.708 263.464 550.708 263.434H546.144V260.633H546.596Z" fill="black"/>
<path d="M575.458 276.582C574.765 276.28 574.418 275.844 574.418 275.271C574.418 274.639 574.72 274.202 575.322 273.961C575.473 273.901 580.955 273.871 591.768 273.871H607.988C608.018 273.901 608.078 273.946 608.168 274.006C608.259 274.066 608.349 274.127 608.44 274.187C608.53 274.247 608.62 274.322 608.711 274.413C608.801 274.503 608.861 274.609 608.891 274.729C608.922 274.85 608.952 275.015 608.982 275.226C608.982 275.768 608.65 276.22 607.988 276.582H575.458ZM575.458 286.702C574.765 286.431 574.418 285.979 574.418 285.347C574.418 284.744 574.75 284.307 575.412 284.036C575.503 284.006 580.955 283.991 591.768 283.991H607.988L608.214 284.127C608.334 284.217 608.425 284.277 608.485 284.307C608.545 284.338 608.62 284.413 608.711 284.533C608.801 284.654 608.861 284.774 608.891 284.895C608.922 285.015 608.952 285.166 608.982 285.347C608.982 285.979 608.65 286.431 607.988 286.702H575.458Z" fill="black"/>
<path d="M614.857 265.874C614.857 264.127 615.671 262.711 617.297 261.627C618.924 260.542 621.032 260 623.622 260C625.641 260 627.342 260.181 628.728 260.542C630.113 260.904 631.138 261.416 631.8 262.078C632.463 262.741 632.9 263.359 633.11 263.931C633.321 264.503 633.457 265.166 633.517 265.919C633.517 267.847 632.523 269.413 630.535 270.618C626.77 272.847 624.888 275.422 624.888 278.344V278.841C624.888 279.835 624.842 280.422 624.752 280.603C624.662 280.783 624.345 280.889 623.803 280.919H623.487H623.171C622.659 280.919 622.357 280.844 622.267 280.693C622.177 280.542 622.116 280.091 622.086 279.338V278.66C622.147 276.341 622.568 274.368 623.351 272.741C623.984 271.386 624.857 270.091 625.972 268.856C626.695 268.072 627.056 267.003 627.056 265.648C627.056 264.232 626.876 263.329 626.514 262.937C626.153 262.545 625.189 262.35 623.622 262.35C622.779 262.35 622.026 262.41 621.363 262.53C620.701 262.651 620.249 262.771 620.008 262.892C619.767 263.012 619.632 263.103 619.601 263.163L619.692 263.253C619.752 263.283 619.827 263.329 619.918 263.389C620.008 263.449 620.098 263.524 620.189 263.615C620.279 263.705 620.385 263.841 620.505 264.021C620.626 264.202 620.731 264.353 620.821 264.473C620.912 264.594 620.987 264.804 621.047 265.106C621.107 265.407 621.138 265.663 621.138 265.874C621.138 266.807 620.851 267.575 620.279 268.178C619.707 268.78 618.939 269.082 617.975 269.082C617.101 269.082 616.363 268.81 615.761 268.268C615.159 267.726 614.857 266.928 614.857 265.874ZM619.647 287.741C619.647 286.566 620.038 285.633 620.821 284.94C621.604 284.247 622.523 283.901 623.577 283.901C624.601 283.961 625.475 284.338 626.198 285.03C626.921 285.723 627.282 286.627 627.282 287.741C627.282 288.886 626.921 289.804 626.198 290.497C625.475 291.19 624.571 291.551 623.487 291.582C622.342 291.582 621.424 291.235 620.731 290.542C620.038 289.85 619.677 288.916 619.647 287.741Z" fill="black"/>
<path d="M52 216L77 230.434L77 201.566L52 216ZM574 216L549 201.566L549 230.434L574 216ZM74.5 218.5L551.5 218.5L551.5 213.5L74.5 213.5L74.5 218.5Z" fill="black"/>
<path d="M317.401 208.433C317.134 208.219 317 208.032 317 207.872C317 207.765 321.519 198.406 330.556 179.797C339.594 161.187 344.219 151.775 344.433 151.562C344.594 151.187 345.342 151 346.679 151C347.909 151 348.658 151.187 348.925 151.562C349.086 151.775 353.684 161.187 362.722 179.797C371.759 198.406 376.305 207.765 376.358 207.872C376.358 208.032 376.225 208.219 375.957 208.433H317.401ZM353.979 180.84L344.112 160.626L324.299 201.054L344.032 201.134H363.845C363.845 201.027 360.556 194.262 353.979 180.84Z" fill="black"/>
<path d="M384.299 185.251C384.674 183.005 386.118 180.412 388.631 177.471C391.144 174.529 394.246 173.032 397.936 172.979C399.807 172.979 401.519 173.46 403.069 174.423C404.62 175.385 405.77 176.588 406.519 178.032C408.765 174.663 411.465 172.979 414.62 172.979C416.599 172.979 418.31 173.567 419.754 174.743C421.198 175.92 421.946 177.497 422 179.476C422 181.027 421.626 182.283 420.877 183.246C420.128 184.209 419.406 184.797 418.711 185.011C418.016 185.225 417.401 185.332 416.866 185.332C415.85 185.332 415.021 185.037 414.38 184.449C413.738 183.861 413.417 183.086 413.417 182.123C413.417 179.663 414.754 177.979 417.428 177.07C416.84 176.374 415.77 176.027 414.219 176.027C413.524 176.027 413.016 176.08 412.695 176.187C410.663 177.043 409.166 178.808 408.203 181.481C404.995 193.3 403.39 200.198 403.39 202.177C403.39 203.674 403.818 204.743 404.674 205.385C405.529 206.027 406.465 206.348 407.481 206.348C409.46 206.348 411.412 205.465 413.337 203.701C415.262 201.936 416.572 199.77 417.267 197.203C417.428 196.668 417.588 196.374 417.749 196.321C417.909 196.267 418.337 196.214 419.032 196.16H419.353C420.155 196.16 420.556 196.374 420.556 196.802C420.556 196.856 420.503 197.15 420.396 197.685C419.54 200.733 417.882 203.433 415.422 205.786C412.963 208.139 410.102 209.316 406.84 209.316C403.096 209.316 400.262 207.631 398.337 204.262C396.144 207.578 393.631 209.235 390.797 209.235H390.315C387.695 209.235 385.823 208.54 384.7 207.15C383.578 205.759 382.989 204.289 382.936 202.738C382.936 201.027 383.444 199.636 384.46 198.567C385.476 197.497 386.679 196.963 388.069 196.963C390.369 196.963 391.519 198.086 391.519 200.332C391.519 201.401 391.198 202.337 390.556 203.139C389.914 203.941 389.299 204.476 388.711 204.743C388.123 205.011 387.775 205.144 387.668 205.144L387.428 205.225C387.428 205.278 387.588 205.385 387.909 205.545C388.23 205.706 388.658 205.893 389.192 206.107C389.727 206.321 390.235 206.401 390.717 206.348C392.642 206.348 394.299 205.144 395.69 202.738C396.171 201.882 396.786 200.064 397.535 197.283C398.283 194.503 399.032 191.615 399.781 188.62C400.529 185.626 400.957 183.861 401.064 183.326C401.332 181.882 401.465 180.84 401.465 180.198C401.465 178.701 401.064 177.631 400.262 176.989C399.46 176.348 398.551 176.027 397.535 176.027C395.396 176.027 393.39 176.882 391.519 178.594C389.647 180.305 388.337 182.497 387.588 185.171C387.481 185.652 387.348 185.92 387.187 185.973C387.027 186.027 386.599 186.08 385.904 186.134H384.781C384.46 185.813 384.299 185.519 384.299 185.251Z" fill="black"/>
<path d="M110.069 117.128C109.356 117.128 109 116.919 109 116.5C109 116.416 109.063 116.122 109.189 115.62C109.356 114.949 109.524 114.572 109.691 114.488C109.859 114.404 110.341 114.341 111.137 114.299C112.269 114.299 113.526 114.237 114.909 114.111C115.496 113.985 115.894 113.734 116.103 113.357C116.187 113.147 117.675 107.259 120.566 95.693C123.458 84.1268 124.924 78.2599 124.966 78.0922C124.966 77.7989 124.883 77.6522 124.715 77.6522C124.38 77.5265 123.269 77.4217 121.383 77.3379H119.435C119.183 77.0865 119.058 76.9188 119.058 76.835C119.058 76.7512 119.099 76.395 119.183 75.7664C119.351 75.054 119.56 74.614 119.812 74.4464H153.693C153.987 74.614 154.133 74.8445 154.133 75.1378C154.133 75.3474 153.861 77.6941 153.316 82.1781C152.771 86.6621 152.478 88.967 152.436 89.0927C152.352 89.386 151.933 89.5327 151.179 89.5327H150.425C150.131 89.3232 149.985 89.0508 149.985 88.7155C149.985 88.6736 150.047 88.1708 150.173 87.2069C150.299 86.2431 150.362 85.1325 150.362 83.8753C150.362 82.6181 150.215 81.5914 149.922 80.7952C149.628 79.999 149.23 79.3494 148.727 78.8466C148.225 78.3437 147.449 78.0084 146.402 77.8408C145.354 77.6732 144.285 77.5265 143.196 77.4008C142.106 77.2751 140.598 77.2541 138.67 77.3379H137.224C133.788 77.3798 131.965 77.4427 131.755 77.5265C131.546 77.6103 131.399 77.7779 131.315 78.0294C131.273 78.0713 130.561 80.8162 129.178 86.264L127.166 94.3729H130.624C130.749 94.3729 131.231 94.3729 132.07 94.3729C132.908 94.3729 133.494 94.352 133.83 94.3101C134.165 94.2682 134.626 94.2053 135.213 94.1215C135.799 94.0377 136.302 93.891 136.721 93.6815C137.14 93.4719 137.496 93.2205 137.79 92.9272C138.335 92.4243 138.796 91.7328 139.173 90.8528C139.55 89.9727 139.822 89.1765 139.99 88.4641C140.158 87.7517 140.262 87.3745 140.304 87.3326C140.43 87.1231 140.828 87.0183 141.499 87.0183H142.253C142.546 87.2279 142.693 87.4374 142.693 87.6469C142.693 87.7726 142.043 90.5175 140.744 95.8816C139.445 101.246 138.733 104.011 138.607 104.179C138.523 104.472 138.104 104.619 137.35 104.619H136.595C136.302 104.368 136.155 104.116 136.155 103.865C136.155 103.739 136.26 103.278 136.47 102.482C136.679 101.686 136.784 100.847 136.784 99.9674C136.784 98.7522 136.365 97.9978 135.527 97.7045C134.689 97.4112 132.824 97.2645 129.932 97.2645H126.475L124.464 105.248C123.123 110.444 122.452 113.168 122.452 113.419C122.452 114.006 124.317 114.299 128.047 114.299H129.618C129.869 114.551 129.995 114.698 129.995 114.74C129.995 114.781 129.953 115.2 129.869 115.997C129.702 116.541 129.492 116.94 129.241 117.191H128.172C126.454 117.107 123.29 117.065 118.68 117.065C115.956 117.065 113.882 117.065 112.457 117.065C111.032 117.065 110.236 117.086 110.069 117.128Z" fill="black"/>
<path d="M152.714 133.82C152.774 133.82 152.863 133.849 152.981 133.908C153.1 133.968 153.263 134.012 153.47 134.042C153.677 134.071 153.855 134.086 154.003 134.086C154.388 134.086 154.744 133.894 155.07 133.508C155.396 133.123 155.633 132.694 155.781 132.22C156.077 131.42 156.581 129.153 157.292 125.42C158.003 121.687 158.684 118.132 159.336 114.754C159.988 111.376 160.314 109.673 160.314 109.643V109.51H158.225C156.833 109.51 156.092 109.48 156.003 109.421C155.885 109.332 155.825 109.184 155.825 108.977L156.136 107.732C156.196 107.584 156.314 107.51 156.492 107.51C156.67 107.51 157.366 107.495 158.581 107.466C160.003 107.466 160.714 107.451 160.714 107.421C160.714 107.362 160.847 106.621 161.114 105.199C161.381 103.777 161.558 102.918 161.647 102.621C162.743 97.7328 164.906 95.2885 168.136 95.2885C169.232 95.3477 170.136 95.6736 170.847 96.2662C171.558 96.8588 171.913 97.6439 171.913 98.6216C171.913 99.6882 171.602 100.459 170.98 100.933C170.358 101.407 169.736 101.658 169.113 101.688C167.81 101.688 167.158 101.066 167.158 99.8215C167.158 99.2586 167.321 98.7698 167.647 98.355C167.973 97.9402 168.328 97.6291 168.713 97.4217L169.113 97.1995C168.639 97.0217 168.195 96.9328 167.78 96.9328C167.425 96.9328 167.084 97.081 166.758 97.3772C166.432 97.6735 166.21 98.0883 166.091 98.6216C165.884 99.4808 165.647 100.636 165.38 102.088C165.114 103.54 164.877 104.769 164.669 105.777C164.462 106.784 164.358 107.317 164.358 107.377C164.358 107.436 165.173 107.466 166.802 107.466C168.136 107.466 168.906 107.48 169.113 107.51C169.321 107.54 169.484 107.629 169.602 107.777C169.632 107.895 169.602 108.147 169.513 108.532C169.425 108.917 169.35 109.154 169.291 109.243C169.232 109.391 169.099 109.465 168.891 109.465C168.684 109.465 167.884 109.48 166.491 109.51H164.003L162.98 114.932C161.558 122.28 160.566 126.872 160.003 128.709C159.203 131.227 158.166 133.094 156.892 134.308C155.796 135.257 154.714 135.731 153.648 135.731C152.7 135.731 151.84 135.449 151.07 134.886C150.3 134.323 149.915 133.523 149.915 132.486C149.915 131.39 150.226 130.59 150.848 130.086C151.47 129.583 152.092 129.331 152.714 129.331C154.018 129.331 154.67 129.953 154.67 131.198C154.67 131.76 154.507 132.249 154.181 132.664C153.855 133.079 153.5 133.39 153.114 133.597L152.714 133.82Z" fill="black"/>
<path d="M154.278 59.2572C154.278 58.922 154.383 58.6286 154.592 58.3772C154.802 58.1258 155.116 58 155.535 58C155.828 58 156.08 58.1048 156.289 58.3143C156.499 58.482 156.708 58.8801 156.918 59.5087C157.337 61.0592 158.196 62.2536 159.495 63.0917C159.956 63.385 160.187 63.7622 160.187 64.2232C160.187 64.6003 160.124 64.8518 159.998 64.9775C159.872 65.1032 159.579 65.2918 159.118 65.5432C157.316 66.4652 155.745 67.7852 154.404 69.5034C154.32 69.5872 154.215 69.7129 154.089 69.8806C153.964 70.0482 153.859 70.1739 153.775 70.2577C153.691 70.3415 153.586 70.3834 153.461 70.3834C153.335 70.3834 153.188 70.4044 153.021 70.4463C152.727 70.4463 152.455 70.3415 152.203 70.132C151.952 69.9225 151.805 69.6082 151.763 69.1891C151.763 68.3929 152.748 67.1566 154.718 65.4804H143.969L133.22 65.4175C132.675 65.0403 132.403 64.6422 132.403 64.2232C132.403 63.9298 132.675 63.5108 133.22 62.966H155.786C154.781 61.3735 154.278 60.1373 154.278 59.2572Z" fill="black"/>
<path d="M128 152L153 166.434L153 137.566L128 152ZM261 149.5L150.5 149.5L150.5 154.5L261 154.5L261 149.5Z" fill="black"/>
</svg>
