<svg width="634" height="302" viewBox="0 0 634 302" fill="none" xmlns="http://www.w3.org/2000/svg">
<path d="M98.0588 158.182C94.9882 138.402 69.9874 142.957 52 158.182V217L574 213.877V158.182C574 158.182 549.435 181.085 525.894 158.182C502.353 135.279 470.624 174.838 475.741 158.182C480.859 141.526 421.042 185.443 427.635 158.182C434.228 130.921 386.329 168.481 383.624 158.182C380.918 147.883 342.464 138.896 337.565 158.182C332.665 177.468 329.819 155.595 289.459 158.182C273.55 146.927 251.588 151.936 239.306 158.182C227.024 164.428 197.341 138.402 193.247 158.182C189.153 177.962 149.235 158.182 146.165 158.182C143.094 158.182 101.129 177.962 98.0588 158.182Z" fill="#B0833E" stroke="black" stroke-width="0.5"/>
<rect x="98.25" y="43.25" width="167.5" height="108.5" fill="#D9D9D9" stroke="black" stroke-width="0.5"/>
<path d="M352 96L337 87.3397V104.66L352 96ZM266 97.5H338.5V94.5H266V97.5Z" fill="black"/>
<path d="M298.603 29.5661C298.603 28.031 298.02 27.2634 296.853 27.2634C295.379 27.2634 293.844 28.1538 292.248 29.9345C290.651 31.7152 289.331 34.4477 288.287 38.1319C288.226 38.1933 288.164 38.2854 288.103 38.4083C288.042 38.5311 288.011 38.6232 288.011 38.6846C288.011 38.746 287.95 38.8074 287.827 38.8688C287.704 38.9302 287.612 38.9609 287.55 38.9609C287.489 38.9609 287.366 38.9609 287.182 38.9609C286.998 38.9609 286.752 38.9609 286.445 38.9609H285.156C284.787 38.5925 284.603 38.3162 284.603 38.1319C284.603 37.7021 284.849 36.8117 285.34 35.4609C285.831 34.11 286.568 32.5135 287.55 30.6713C288.533 28.8292 289.884 27.2634 291.603 25.9739C293.322 24.6844 295.257 24.009 297.406 23.9476C299.985 23.9476 301.98 24.6844 303.393 26.1581C304.805 27.6318 305.542 29.3511 305.603 31.3161C305.603 32.3599 305.511 33.1582 305.327 33.7108C305.327 34.0793 304.866 35.4302 303.945 37.7635C303.024 40.0969 302.073 42.8294 301.09 45.961C300.108 49.0926 299.555 51.8251 299.432 54.1584C299.432 55.8163 299.586 57.1672 299.893 58.2111C300.691 60.8515 302.625 62.1717 305.695 62.1717C307.967 62.1717 310.086 61.1278 312.051 59.04C314.016 56.9523 315.551 54.5268 316.656 51.7637C317.761 49.0005 318.652 46.4522 319.327 44.1188C320.003 41.7855 320.34 40.0969 320.34 39.053C320.34 37.6407 320.095 36.4126 319.603 35.3688C319.112 34.3249 318.56 33.5266 317.945 32.974C317.331 32.4214 316.779 31.8687 316.288 31.3161C315.796 30.7634 315.551 30.088 315.551 29.2897C315.551 27.9388 316.134 26.6801 317.301 25.5134C318.467 24.3467 319.726 23.7634 321.077 23.7634C322.244 23.7634 323.288 24.316 324.209 25.4213C325.13 26.5266 325.621 28.3073 325.682 30.7634C325.682 32.4214 325.314 34.9696 324.577 38.4083C323.84 41.8469 322.704 45.6846 321.169 49.9215C319.634 54.1584 317.454 57.812 314.63 60.8822C311.805 63.9524 308.551 65.5182 304.866 65.5796C300.937 65.5796 297.805 64.5664 295.472 62.5401C293.2 60.5752 292.064 57.6585 292.064 53.79C292.064 51.8865 292.309 49.9215 292.8 47.8952C293.292 45.8689 294.55 42.2767 296.577 37.1188C297.928 33.1889 298.603 30.6713 298.603 29.5661Z" fill="black"/>
<path d="M319.263 1.84216C319.263 1.35092 319.416 0.921095 319.723 0.55267C320.03 0.184245 320.491 3.27975e-05 321.105 3.27975e-05C321.535 3.27975e-05 321.903 0.153543 322.21 0.460564C322.517 0.70618 322.824 1.28952 323.131 2.21058C323.745 4.48253 325.004 6.23255 326.908 7.46064C327.583 7.89046 327.921 8.4431 327.921 9.11855C327.921 9.67118 327.829 10.0396 327.645 10.2238C327.46 10.408 327.031 10.6844 326.355 11.0528C323.715 12.4037 321.412 14.3379 319.447 16.8555C319.324 16.9783 319.171 17.1625 318.987 17.4081C318.802 17.6537 318.649 17.8379 318.526 17.9607C318.403 18.0836 318.25 18.145 318.066 18.145C317.881 18.145 317.666 18.1757 317.421 18.2371C316.991 18.2371 316.592 18.0836 316.223 17.7765C315.855 17.4695 315.64 17.009 315.579 16.3949C315.579 15.2283 317.022 13.4168 319.908 10.9607H304.158L288.407 10.8686C287.609 10.3159 287.21 9.73259 287.21 9.11855C287.21 8.68872 287.609 8.07468 288.407 7.27642H321.473C320 4.94307 319.263 3.13164 319.263 1.84216Z" fill="black"/>
<path d="M40.2561 261.633L46.4458 261.768C49.1567 261.768 50.738 261.723 51.1898 261.633H51.5061V264.434H47.3946L42.1537 278.169C41.3404 280.307 40.482 282.566 39.5784 284.946C38.6747 287.326 37.997 289.103 37.5452 290.277C37.0934 291.452 36.8525 292.085 36.8223 292.175C36.6717 292.476 36.4759 292.702 36.235 292.853C36.0844 292.913 35.6778 292.943 35.0151 292.943H34.6988C34.247 292.943 33.9458 292.913 33.7952 292.853C33.6446 292.792 33.4488 292.566 33.2079 292.175C33.2079 292.145 33.0422 291.708 32.7109 290.865C32.3796 290.021 31.8976 288.771 31.2651 287.115C30.6326 285.458 30.0302 283.862 29.4579 282.326L25.753 272.657L22.0482 282.326C21.2651 284.404 20.4067 286.663 19.4729 289.103C18.8103 290.88 18.4036 291.919 18.253 292.22C18.1024 292.521 17.9217 292.732 17.7109 292.853C17.5603 292.913 17.1536 292.943 16.491 292.943H16.0392C15.3464 292.943 14.8946 292.687 14.6838 292.175C14.6838 292.115 14.4578 291.497 14.006 290.323C13.5542 289.148 12.8615 287.356 11.9277 284.946C10.994 282.536 10.1356 280.277 9.35242 278.169L4.15663 264.434H0V261.633H0.496989C0.768073 261.723 2.99699 261.768 7.18374 261.768C11.6416 261.768 14.2319 261.723 14.9548 261.633H15.5422V264.434H13.5091C12.1536 264.434 11.4759 264.449 11.4759 264.479L18.6597 283.274L21.4609 275.955L24.2621 268.636L22.6808 264.434H18.5241V261.633H19.0211C19.2922 261.723 21.5211 261.768 25.7079 261.768C30.1657 261.768 32.7561 261.723 33.479 261.633H34.0663V264.434H32.0332C30.6777 264.434 30 264.449 30 264.479L37.1838 283.274C37.2139 283.274 38.4187 280.142 40.7982 273.877C43.1778 267.612 44.3675 264.464 44.3675 264.434H39.8043V261.633H40.2561Z" fill="black"/>
<path d="M65.6022 292.853C63.825 292.853 62.2437 292.627 60.8582 292.175C59.4726 291.723 58.3732 291.151 57.56 290.458C56.7467 289.765 56.0539 288.952 55.4817 288.018C54.9094 287.085 54.5479 286.196 54.3973 285.353C54.2467 284.509 54.1413 283.636 54.0811 282.732C54.0811 281.136 54.3521 279.705 54.8943 278.44C55.4365 277.175 56.0991 276.151 56.8823 275.368C57.6654 274.585 58.569 273.967 59.5931 273.515C60.6172 273.063 61.5208 272.717 62.304 272.476C63.0871 272.235 63.8552 272.145 64.6082 272.205H65.2407C66.4455 272.205 67.1534 272.22 67.3642 272.25C70.4365 272.612 72.8311 273.741 74.5479 275.639C76.2648 277.536 77.1232 279.871 77.1232 282.642C77.1232 284.6 76.7016 286.301 75.8582 287.747C75.0148 289.193 73.9305 290.322 72.6052 291.136C70.8582 292.28 68.5238 292.853 65.6022 292.853ZM70.6624 282.235V281.332C70.6624 280.428 70.6473 279.705 70.6172 279.163C70.5871 278.621 70.4817 278.018 70.301 277.356C70.1202 276.693 69.8341 276.181 69.4425 275.819C69.051 275.458 68.5389 275.157 67.9064 274.916C67.2738 274.675 66.4305 274.539 65.3762 274.509C64.1413 274.509 63.0871 274.825 62.2136 275.458C61.5509 275.97 61.1142 276.663 60.9034 277.536C60.6925 278.41 60.572 279.976 60.5419 282.235C60.5419 283.078 60.5419 283.696 60.5419 284.088C60.5419 284.479 60.572 285.021 60.6323 285.714C60.6925 286.407 60.7829 286.934 60.9034 287.295C61.0238 287.657 61.2046 288.063 61.4455 288.515C61.6865 288.967 61.9877 289.313 62.3491 289.554C62.7106 289.795 63.1624 289.976 63.7046 290.097C64.2467 290.217 64.8793 290.307 65.6022 290.368C67.4395 290.368 68.7497 289.856 69.5329 288.832C69.9546 288.319 70.2407 287.597 70.3913 286.663C70.5419 285.729 70.6323 284.253 70.6624 282.235Z" fill="black"/>
<path d="M96.9123 279.389C96.9123 279.389 96.4454 279.389 95.5117 279.389C94.5779 279.389 93.8249 279.103 93.2526 278.53C92.6804 277.958 92.3942 277.22 92.3942 276.316C92.3942 275.804 92.4996 275.307 92.7105 274.825C92.8008 274.735 92.846 274.66 92.846 274.6C92.5448 274.6 92.2285 274.675 91.8972 274.825C91.5659 274.976 91.1442 275.262 90.6322 275.684C90.1201 276.106 89.6984 276.798 89.3671 277.762C89.0358 278.726 88.7948 279.931 88.6442 281.377C88.6141 281.618 88.599 283.124 88.599 285.895V289.826H92.5298V292.627H92.0779C91.5358 292.536 89.4725 292.491 85.8882 292.491C82.4544 292.491 80.602 292.536 80.3309 292.627H79.9243V289.826H83.0418V283.139V278.937C83.0418 277.431 83.0117 276.527 82.9514 276.226C82.8912 275.925 82.6954 275.729 82.3641 275.639C81.9424 275.518 81.3249 275.458 80.5117 275.458H79.9243V272.657H80.0599L83.9454 272.476C86.5358 272.356 87.846 272.295 87.8761 272.295H88.102V273.922L88.1472 275.548C89.2316 273.41 90.7978 272.341 92.846 272.341H93.1171C95.0147 272.341 96.4002 272.747 97.2737 273.56C98.1472 274.374 98.584 275.307 98.584 276.362C98.584 277.205 98.3129 277.913 97.7707 278.485L96.9123 279.389Z" fill="black"/>
<path d="M101.476 261.633L105.587 261.452C108.328 261.331 109.714 261.271 109.744 261.271H110.015V281.106L117.063 275.368H115.663V272.566H116.069C116.521 272.657 118.343 272.702 121.536 272.702C123.584 272.702 124.789 272.657 125.151 272.566H125.422V275.368H121.536L115.708 280.112L123.298 289.826H126.551V292.627H126.19C125.738 292.536 124.187 292.491 121.536 292.491C118.343 292.491 116.476 292.536 115.934 292.627H115.527V289.826H116.205L116.883 289.78L111.777 283.319L110.738 284.088L109.789 284.856V289.826H112.907V292.627H112.545C112.003 292.536 110.196 292.491 107.123 292.491C103.78 292.491 101.973 292.536 101.702 292.627H101.34V289.826H104.458V277.627C104.458 275.97 104.458 274.148 104.458 272.16C104.458 270.172 104.473 268.952 104.503 268.5C104.503 266.723 104.473 265.654 104.413 265.292C104.352 264.931 104.142 264.705 103.78 264.615C103.358 264.494 102.741 264.434 101.928 264.434H101.34V261.633H101.476Z" fill="black"/>
<path d="M154.608 261.633L158.72 261.452C161.461 261.331 162.846 261.271 162.876 261.271H163.148V275.051C163.148 276.919 163.148 278.967 163.148 281.196C163.148 283.425 163.132 284.78 163.102 285.262C163.102 287.25 163.132 288.455 163.193 288.877C163.253 289.298 163.464 289.554 163.825 289.645C164.247 289.765 164.864 289.825 165.678 289.825H166.265V291.226C166.265 292.16 166.25 292.627 166.22 292.627C165.617 292.627 164.142 292.672 161.792 292.762C159.443 292.853 157.967 292.898 157.364 292.898C157.334 292.898 157.319 292.566 157.319 291.904V290.91L156.867 291.226C154.94 292.341 152.892 292.898 150.723 292.898C147.53 292.898 145.03 291.934 143.223 290.006C141.416 288.078 140.497 285.578 140.467 282.506C140.467 281.271 140.663 280.081 141.054 278.937C141.446 277.792 142.063 276.708 142.907 275.684C143.75 274.66 144.849 273.847 146.205 273.244C147.56 272.642 149.172 272.341 151.039 272.341C153.66 272.341 155.843 272.898 157.59 274.012V269.72V267.551C157.59 266.286 157.56 265.503 157.5 265.202C157.44 264.901 157.244 264.705 156.913 264.615C156.491 264.494 155.873 264.434 155.06 264.434H154.473V261.633H154.608ZM157.319 276.813C155.843 275.338 154.036 274.6 151.898 274.6C151.506 274.6 150.979 274.705 150.316 274.916C149.654 275.127 149.081 275.443 148.599 275.865C147.907 276.467 147.47 277.235 147.289 278.169C147.108 279.103 147.003 280.338 146.973 281.874V282.642C146.973 283.907 146.988 284.841 147.018 285.443C147.048 286.045 147.169 286.708 147.379 287.431C147.59 288.154 147.907 288.771 148.328 289.283C149.202 290.127 150.346 290.548 151.762 290.548C153.87 290.548 155.617 289.735 157.003 288.109L157.319 287.702V276.813Z" fill="black"/>
<path d="M180.588 292.853C178.81 292.853 177.229 292.627 175.844 292.175C174.458 291.723 173.359 291.151 172.545 290.458C171.732 289.765 171.039 288.952 170.467 288.018C169.895 287.085 169.533 286.196 169.383 285.353C169.232 284.509 169.127 283.636 169.066 282.732C169.066 281.136 169.337 279.705 169.88 278.44C170.422 277.175 171.084 276.151 171.868 275.368C172.651 274.585 173.554 273.967 174.578 273.515C175.603 273.063 176.506 272.717 177.289 272.476C178.072 272.235 178.841 272.145 179.594 272.205H180.226C181.431 272.205 182.139 272.22 182.35 272.25C185.422 272.612 187.816 273.741 189.533 275.639C191.25 277.536 192.109 279.871 192.109 282.642C192.109 284.6 191.687 286.301 190.844 287.747C190 289.193 188.916 290.322 187.591 291.136C185.844 292.28 183.509 292.853 180.588 292.853ZM185.648 282.235V281.332C185.648 280.428 185.633 279.705 185.603 279.163C185.572 278.621 185.467 278.018 185.286 277.356C185.106 276.693 184.819 276.181 184.428 275.819C184.036 275.458 183.524 275.157 182.892 274.916C182.259 274.675 181.416 274.539 180.362 274.509C179.127 274.509 178.072 274.825 177.199 275.458C176.536 275.97 176.1 276.663 175.889 277.536C175.678 278.41 175.557 279.976 175.527 282.235C175.527 283.078 175.527 283.696 175.527 284.088C175.527 284.479 175.557 285.021 175.618 285.714C175.678 286.407 175.768 286.934 175.889 287.295C176.009 287.657 176.19 288.063 176.431 288.515C176.672 288.967 176.973 289.313 177.334 289.554C177.696 289.795 178.148 289.976 178.69 290.097C179.232 290.217 179.865 290.307 180.588 290.368C182.425 290.368 183.735 289.856 184.518 288.832C184.94 288.319 185.226 287.597 185.377 286.663C185.527 285.729 185.618 284.253 185.648 282.235Z" fill="black"/>
<path d="M195.407 272.657C200.738 272.416 203.419 272.295 203.449 272.295H203.72V274.238L203.765 276.136C204.006 275.744 204.308 275.353 204.669 274.961C205.031 274.569 205.693 274.103 206.657 273.56C207.621 273.018 208.72 272.627 209.955 272.386C210.317 272.325 210.859 272.295 211.582 272.295C212.485 272.295 213.238 272.341 213.841 272.431C214.443 272.521 215.091 272.717 215.784 273.018C216.476 273.319 217.049 273.801 217.5 274.464C217.952 275.127 218.284 275.97 218.494 276.994C218.555 277.325 218.6 279.554 218.63 283.681V289.826H221.747V292.627H221.341C220.799 292.536 218.916 292.491 215.693 292.491C212.229 292.491 210.362 292.536 210.091 292.627H209.684V289.826H212.802V283.862V280.202C212.802 278.003 212.666 276.527 212.395 275.774C212.124 275.021 211.446 274.63 210.362 274.6C209.006 274.6 207.756 275.036 206.612 275.91C205.467 276.783 204.714 277.988 204.353 279.524C204.293 279.795 204.247 281.588 204.217 284.901V289.826H207.335V292.627H206.928C206.386 292.536 204.518 292.491 201.326 292.491C198.103 292.491 196.22 292.536 195.678 292.627H195.271V289.826H198.389V283.139V278.937C198.389 277.431 198.359 276.527 198.299 276.226C198.238 275.925 198.043 275.729 197.711 275.639C197.29 275.518 196.672 275.458 195.859 275.458H195.271V272.657H195.407Z" fill="black"/>
<path d="M223.915 282.461C223.915 279.238 224.969 276.723 227.078 274.916C229.186 273.109 231.746 272.205 234.758 272.205H235.255C238.237 272.205 240.542 272.973 242.168 274.509C243.915 276.256 244.789 278.636 244.789 281.648C244.789 282.16 244.668 282.476 244.427 282.597C244.186 282.717 243.493 282.792 242.349 282.822C242.078 282.822 241.385 282.822 240.27 282.822C239.156 282.822 238.147 282.807 237.243 282.777H230.376V283.184C230.376 284.148 230.436 284.976 230.557 285.669C230.677 286.362 230.933 287.069 231.325 287.792C231.716 288.515 232.319 289.088 233.132 289.509C233.945 289.931 234.999 290.217 236.295 290.368C236.475 290.398 236.731 290.413 237.063 290.413C238.659 290.413 239.969 289.871 240.993 288.786C241.325 288.365 241.581 287.973 241.761 287.612C241.942 287.25 242.048 287.009 242.078 286.889C242.108 286.768 242.228 286.678 242.439 286.618C242.65 286.557 242.966 286.527 243.388 286.527H243.614C244.397 286.527 244.789 286.798 244.789 287.341C244.789 287.551 244.713 287.853 244.563 288.244C244.412 288.636 244.096 289.103 243.614 289.645C243.132 290.187 242.575 290.699 241.942 291.181C241.31 291.663 240.436 292.069 239.322 292.401C238.207 292.732 236.987 292.898 235.662 292.898C232.319 292.898 229.533 291.979 227.304 290.142C225.075 288.304 223.945 285.744 223.915 282.461ZM239.773 280.157C239.593 278.048 239.066 276.572 238.192 275.729C237.319 274.886 236.295 274.464 235.12 274.464C234.307 274.464 233.554 274.645 232.861 275.006C232.168 275.368 231.641 275.865 231.28 276.497C230.798 277.28 230.511 278.455 230.421 280.021V280.609H239.773V280.157Z" fill="black"/>
<path d="M259.022 261.633L263.133 261.452C265.874 261.331 267.26 261.271 267.29 261.271H267.561V274.148C269.609 272.913 271.974 272.295 274.654 272.295C277.696 272.295 280.121 273.244 281.928 275.142C283.736 277.039 284.654 279.539 284.684 282.642C284.684 285.624 283.706 288.078 281.748 290.006C279.79 291.934 277.124 292.898 273.751 292.898H273.615C271.115 292.898 268.826 292.009 266.748 290.232L264.805 292.582L263.404 292.627H262.004V279.027C262.004 277.19 262.004 275.172 262.004 272.973C262.004 270.774 262.019 269.419 262.049 268.907C262.049 266.919 262.019 265.729 261.959 265.337C261.898 264.946 261.687 264.705 261.326 264.615C260.904 264.494 260.287 264.434 259.474 264.434H258.886V261.633H259.022ZM267.832 287.883L268.058 288.154C268.209 288.335 268.359 288.515 268.51 288.696C268.66 288.877 268.901 289.088 269.233 289.328C269.564 289.569 269.895 289.78 270.227 289.961C270.558 290.142 270.949 290.292 271.401 290.413C271.853 290.533 272.35 290.594 272.892 290.594C274.127 290.594 275.212 290.277 276.145 289.645C277.079 289.012 277.681 288.033 277.953 286.708C278.133 285.835 278.224 284.344 278.224 282.235C278.224 281.211 278.209 280.398 278.178 279.795C278.148 279.193 278.028 278.515 277.817 277.762C277.606 277.009 277.335 276.437 277.004 276.045C276.672 275.654 276.16 275.322 275.468 275.051C274.775 274.78 273.977 274.645 273.073 274.645C271.236 274.645 269.609 275.292 268.193 276.588L267.832 276.904V287.883Z" fill="black"/>
<path d="M290.242 297.235C290.242 297.476 290.287 297.732 290.377 298.003C290.468 298.274 290.694 298.56 291.055 298.862C291.417 299.163 291.883 299.329 292.456 299.359C292.908 299.329 293.344 299.238 293.766 299.088C294.188 298.937 294.549 298.756 294.85 298.545C295.152 298.335 295.453 298.079 295.754 297.777C296.055 297.476 296.296 297.19 296.477 296.919C296.658 296.648 296.838 296.362 297.019 296.06C297.2 295.759 297.335 295.503 297.426 295.292C297.516 295.082 297.606 294.871 297.697 294.66C297.787 294.449 297.832 294.328 297.832 294.298L298.6 292.627L290.784 275.368H287.621V272.566H287.983C288.435 272.657 290.121 272.702 293.043 272.702C296.236 272.702 298.103 272.657 298.645 272.566H299.052V275.368H297.968C297.275 275.368 296.929 275.398 296.929 275.458L301.673 285.804L306.417 275.368H304.248V272.566H304.564C304.926 272.657 306.341 272.702 308.811 272.702C311.01 272.702 312.2 272.657 312.38 272.566H312.652V275.368H309.489L304.79 285.759C301.537 292.868 299.895 296.467 299.865 296.557C299.022 298.124 297.938 299.359 296.612 300.262C295.287 301.166 293.871 301.633 292.365 301.663C290.98 301.663 289.82 301.241 288.886 300.398C287.953 299.554 287.486 298.47 287.486 297.145C287.486 296.06 287.802 295.307 288.435 294.886C289.067 294.464 289.715 294.238 290.377 294.208C291.1 294.208 291.748 294.434 292.32 294.886C292.892 295.338 293.224 295.97 293.314 296.783V297.145H290.242V297.235Z" fill="black"/>
<path d="M339.083 292.627C338.54 292.536 336.492 292.491 332.938 292.491C329.504 292.491 327.652 292.536 327.381 292.627H326.974V289.826H330.092V275.368H327.064V272.566H330.092V269.901L330.137 267.235L330.227 266.783C330.679 265.187 331.673 263.892 333.209 262.898C334.745 261.904 336.824 261.286 339.444 261.045C339.504 261.045 339.715 261.045 340.077 261.045C340.438 261.045 340.709 261.03 340.89 261C341.884 261.06 342.727 261.256 343.42 261.588C344.113 261.919 344.595 262.356 344.866 262.898C345.137 263.44 345.333 263.877 345.453 264.208C345.574 264.539 345.619 264.886 345.589 265.247C345.589 266.151 345.287 266.889 344.685 267.461C344.083 268.033 343.345 268.335 342.471 268.365C341.628 268.365 340.905 268.094 340.302 267.551C339.7 267.009 339.384 266.256 339.354 265.292C339.354 264.389 339.564 263.726 339.986 263.304H339.851C339.429 263.304 338.947 263.38 338.405 263.53C337.863 263.681 337.26 264.072 336.598 264.705C335.935 265.338 335.543 266.211 335.423 267.325C335.393 267.476 335.378 268.41 335.378 270.127V272.566H340.528V275.368H335.649V289.826H339.534V292.627H339.083Z" fill="black"/>
<path d="M363.885 279.389C363.885 279.389 363.419 279.389 362.485 279.389C361.551 279.389 360.798 279.103 360.226 278.53C359.653 277.958 359.367 277.22 359.367 276.316C359.367 275.804 359.473 275.307 359.684 274.825C359.774 274.735 359.819 274.66 359.819 274.6C359.518 274.6 359.202 274.675 358.87 274.825C358.539 274.976 358.117 275.262 357.605 275.684C357.093 276.106 356.672 276.798 356.34 277.762C356.009 278.726 355.768 279.931 355.617 281.377C355.587 281.618 355.572 283.124 355.572 285.895V289.826H359.503V292.627H359.051C358.509 292.536 356.446 292.491 352.861 292.491C349.428 292.491 347.575 292.536 347.304 292.627H346.897V289.826H350.015V283.139V278.937C350.015 277.431 349.985 276.527 349.925 276.226C349.864 275.925 349.669 275.729 349.337 275.639C348.916 275.518 348.298 275.458 347.485 275.458H346.897V272.657H347.033L350.919 272.476C353.509 272.356 354.819 272.295 354.849 272.295H355.075V273.922L355.12 275.548C356.205 273.41 357.771 272.341 359.819 272.341H360.09C361.988 272.341 363.373 272.747 364.247 273.56C365.12 274.374 365.557 275.307 365.557 276.362C365.557 277.205 365.286 277.913 364.744 278.485L363.885 279.389Z" fill="black"/>
<path d="M370.257 265.066C370.257 263.892 370.648 262.958 371.432 262.265C372.215 261.572 373.133 261.226 374.188 261.226C375.212 261.286 376.085 261.663 376.808 262.356C377.531 263.048 377.892 263.952 377.892 265.066C377.892 266.211 377.531 267.13 376.808 267.822C376.085 268.515 375.182 268.877 374.097 268.907C372.983 268.907 372.064 268.56 371.341 267.868C370.618 267.175 370.257 266.241 370.257 265.066ZM369.082 272.657L373.148 272.476L377.215 272.295H377.486V289.826H380.287V292.627H379.926C379.474 292.536 377.742 292.491 374.73 292.491C371.597 292.491 369.76 292.536 369.218 292.627H368.811V289.826H371.929V283.184C371.929 278.696 371.913 276.392 371.883 276.271C371.733 275.729 370.935 275.458 369.489 275.458H368.947V272.657H369.082Z" fill="black"/>
<path d="M401.612 286.708H402.109C402.711 286.708 403.013 286.919 403.013 287.341C403.013 287.491 402.907 287.822 402.696 288.335C402.485 288.847 402.004 289.509 401.251 290.322C400.498 291.136 399.564 291.768 398.449 292.22C397.034 292.672 395.663 292.898 394.338 292.898C391.627 292.898 389.353 292.28 387.516 291.045C384.624 289.208 383.178 286.392 383.178 282.597C383.178 279.524 384.112 277.084 385.979 275.277C388.028 273.199 390.814 272.16 394.338 272.16C396.537 272.16 398.419 272.491 399.985 273.154C401.552 273.816 402.35 274.991 402.38 276.678C402.38 277.702 402.094 278.47 401.522 278.982C400.949 279.494 400.196 279.765 399.263 279.795C398.208 279.795 397.425 279.479 396.913 278.847C396.401 278.214 396.13 277.491 396.1 276.678C396.1 275.865 396.296 275.217 396.687 274.735H396.461C395.979 274.675 395.407 274.645 394.745 274.645H394.609C394.248 274.645 393.931 274.66 393.66 274.69C393.389 274.72 392.998 274.825 392.485 275.006C391.973 275.187 391.567 275.443 391.266 275.774C390.964 276.106 390.648 276.633 390.317 277.356C389.985 278.078 389.775 278.907 389.684 279.841C389.654 280.081 389.639 280.865 389.639 282.19C389.639 283.154 389.669 283.922 389.729 284.494C389.79 285.066 389.925 285.789 390.136 286.663C390.347 287.536 390.754 288.244 391.356 288.786C391.958 289.328 392.711 289.75 393.615 290.051C394.187 290.262 394.895 290.368 395.738 290.368H396.145C397.922 290.368 399.248 289.389 400.121 287.431C400.272 287.069 400.407 286.859 400.528 286.798C400.648 286.738 401.01 286.708 401.612 286.708Z" fill="black"/>
<path d="M416.792 290.413C418.238 290.413 418.961 289.103 418.961 286.482V286.075V284.63H421.762V286.166C421.762 287.28 421.732 287.943 421.672 288.154C421.491 289.268 421.024 290.217 420.271 291C419.518 291.783 418.554 292.356 417.379 292.717L416.792 292.853H415.663C413.434 292.853 411.732 292.371 410.557 291.407C409.804 290.835 409.322 290.127 409.111 289.283C408.9 288.44 408.78 287.145 408.75 285.398C408.75 285.066 408.75 284.479 408.75 283.636C408.75 282.792 408.765 282.1 408.795 281.557V275.368H405.452V273.063H405.632C406.626 273.063 407.605 272.717 408.569 272.024C409.503 271.331 410.256 270.322 410.828 268.997C411.4 267.672 411.732 266.196 411.822 264.569V263.937H414.623V272.566H420.903V275.368H414.623V281.828V283.274V285.895C414.623 287.431 414.684 288.455 414.804 288.967C414.925 289.479 415.241 289.871 415.753 290.142C416.114 290.322 416.461 290.413 416.792 290.413Z" fill="black"/>
<path d="M427.952 265.066C427.952 263.892 428.343 262.958 429.126 262.265C429.909 261.572 430.828 261.226 431.882 261.226C432.906 261.286 433.78 261.663 434.503 262.356C435.226 263.048 435.587 263.952 435.587 265.066C435.587 266.211 435.226 267.13 434.503 267.822C433.78 268.515 432.876 268.877 431.792 268.907C430.678 268.907 429.759 268.56 429.036 267.868C428.313 267.175 427.952 266.241 427.952 265.066ZM426.777 272.657L430.843 272.476L434.909 272.295H435.181V289.826H437.982V292.627H437.62C437.169 292.536 435.437 292.491 432.425 292.491C429.292 292.491 427.455 292.536 426.912 292.627H426.506V289.826H429.623V283.184C429.623 278.696 429.608 276.392 429.578 276.271C429.428 275.729 428.629 275.458 427.184 275.458H426.641V272.657H426.777Z" fill="black"/>
<path d="M452.08 292.853C450.303 292.853 448.721 292.627 447.336 292.175C445.95 291.723 444.851 291.151 444.038 290.458C443.224 289.765 442.531 288.952 441.959 288.018C441.387 287.085 441.025 286.196 440.875 285.353C440.724 284.509 440.619 283.636 440.559 282.732C440.559 281.136 440.83 279.705 441.372 278.44C441.914 277.175 442.577 276.151 443.36 275.368C444.143 274.585 445.047 273.967 446.071 273.515C447.095 273.063 447.998 272.717 448.781 272.476C449.565 272.235 450.333 272.145 451.086 272.205H451.718C452.923 272.205 453.631 272.22 453.842 272.25C456.914 272.612 459.309 273.741 461.025 275.639C462.742 277.536 463.601 279.871 463.601 282.642C463.601 284.6 463.179 286.301 462.336 287.747C461.492 289.193 460.408 290.322 459.083 291.136C457.336 292.28 455.001 292.853 452.08 292.853ZM457.14 282.235V281.332C457.14 280.428 457.125 279.705 457.095 279.163C457.065 278.621 456.959 278.018 456.778 277.356C456.598 276.693 456.312 276.181 455.92 275.819C455.528 275.458 455.016 275.157 454.384 274.916C453.751 274.675 452.908 274.539 451.854 274.509C450.619 274.509 449.565 274.825 448.691 275.458C448.028 275.97 447.592 276.663 447.381 277.536C447.17 278.41 447.05 279.976 447.019 282.235C447.019 283.078 447.019 283.696 447.019 284.088C447.019 284.479 447.05 285.021 447.11 285.714C447.17 286.407 447.26 286.934 447.381 287.295C447.501 287.657 447.682 288.063 447.923 288.515C448.164 288.967 448.465 289.313 448.827 289.554C449.188 289.795 449.64 289.976 450.182 290.097C450.724 290.217 451.357 290.307 452.08 290.368C453.917 290.368 455.227 289.856 456.01 288.832C456.432 288.319 456.718 287.597 456.869 286.663C457.019 285.729 457.11 284.253 457.14 282.235Z" fill="black"/>
<path d="M466.899 272.657C472.231 272.416 474.911 272.295 474.941 272.295H475.212V274.238L475.258 276.136C475.499 275.744 475.8 275.353 476.161 274.961C476.523 274.569 477.185 274.103 478.149 273.56C479.113 273.018 480.212 272.627 481.447 272.386C481.809 272.325 482.351 272.295 483.074 272.295C483.978 272.295 484.731 272.341 485.333 272.431C485.935 272.521 486.583 272.717 487.276 273.018C487.969 273.319 488.541 273.801 488.993 274.464C489.444 275.127 489.776 275.97 489.987 276.994C490.047 277.325 490.092 279.554 490.122 283.681V289.826H493.24V292.627H492.833C492.291 292.536 490.408 292.491 487.185 292.491C483.722 292.491 481.854 292.536 481.583 292.627H481.176V289.826H484.294V283.862V280.202C484.294 278.003 484.158 276.527 483.887 275.774C483.616 275.021 482.938 274.63 481.854 274.6C480.499 274.6 479.249 275.036 478.104 275.91C476.959 276.783 476.206 277.988 475.845 279.524C475.785 279.795 475.74 281.588 475.709 284.901V289.826H478.827V292.627H478.42C477.878 292.536 476.011 292.491 472.818 292.491C469.595 292.491 467.712 292.536 467.17 292.627H466.764V289.826H469.881V283.139V278.937C469.881 277.431 469.851 276.527 469.791 276.226C469.731 275.925 469.535 275.729 469.203 275.639C468.782 275.518 468.164 275.458 467.351 275.458H466.764V272.657H466.899Z" fill="black"/>
<path d="M546.596 261.633L552.786 261.768C555.497 261.768 557.078 261.723 557.53 261.633H557.846V264.434H553.735L548.494 278.169C547.681 280.307 546.822 282.566 545.919 284.946C545.015 287.326 544.337 289.103 543.886 290.277C543.434 291.452 543.193 292.085 543.163 292.175C543.012 292.476 542.816 292.702 542.575 292.853C542.425 292.913 542.018 292.943 541.355 292.943H541.039C540.587 292.943 540.286 292.913 540.136 292.853C539.985 292.792 539.789 292.566 539.548 292.175C539.548 292.145 539.383 291.708 539.051 290.865C538.72 290.021 538.238 288.771 537.605 287.115C536.973 285.458 536.37 283.862 535.798 282.326L532.093 272.657L528.389 282.326C527.605 284.404 526.747 286.663 525.813 289.103C525.151 290.88 524.744 291.919 524.593 292.22C524.443 292.521 524.262 292.732 524.051 292.853C523.901 292.913 523.494 292.943 522.831 292.943H522.38C521.687 292.943 521.235 292.687 521.024 292.175C521.024 292.115 520.798 291.497 520.346 290.323C519.895 289.148 519.202 287.356 518.268 284.946C517.334 282.536 516.476 280.277 515.693 278.169L510.497 264.434H506.34V261.633H506.837C507.108 261.723 509.337 261.768 513.524 261.768C517.982 261.768 520.572 261.723 521.295 261.633H521.883V264.434H519.849C518.494 264.434 517.816 264.449 517.816 264.479L525 283.274L527.801 275.955L530.602 268.636L529.021 264.434H524.864V261.633H525.361C525.633 261.723 527.861 261.768 532.048 261.768C536.506 261.768 539.096 261.723 539.819 261.633H540.407V264.434H538.374C537.018 264.434 536.34 264.449 536.34 264.479L543.524 283.274C543.554 283.274 544.759 280.142 547.139 273.877C549.518 267.612 550.708 264.464 550.708 264.434H546.145V261.633H546.596Z" fill="black"/>
<path d="M575.458 277.581C574.765 277.28 574.418 276.844 574.418 276.271C574.418 275.639 574.72 275.202 575.322 274.961C575.473 274.901 580.955 274.871 591.768 274.871H607.988C608.018 274.901 608.078 274.946 608.168 275.006C608.259 275.066 608.349 275.127 608.44 275.187C608.53 275.247 608.62 275.322 608.711 275.413C608.801 275.503 608.861 275.609 608.891 275.729C608.922 275.85 608.952 276.015 608.982 276.226C608.982 276.768 608.65 277.22 607.988 277.581H575.458ZM575.458 287.702C574.765 287.431 574.418 286.979 574.418 286.347C574.418 285.744 574.75 285.307 575.412 285.036C575.503 285.006 580.955 284.991 591.768 284.991H607.988L608.214 285.127C608.334 285.217 608.425 285.277 608.485 285.307C608.545 285.338 608.62 285.413 608.711 285.533C608.801 285.654 608.861 285.774 608.891 285.895C608.922 286.015 608.952 286.166 608.982 286.347C608.982 286.979 608.65 287.431 607.988 287.702H575.458Z" fill="black"/>
<path d="M614.857 266.874C614.857 265.127 615.671 263.711 617.297 262.627C618.924 261.542 621.032 261 623.622 261C625.641 261 627.342 261.181 628.728 261.542C630.113 261.904 631.138 262.416 631.8 263.078C632.463 263.741 632.9 264.359 633.11 264.931C633.321 265.503 633.457 266.166 633.517 266.919C633.517 268.847 632.523 270.413 630.535 271.618C626.77 273.847 624.888 276.422 624.888 279.344V279.841C624.888 280.834 624.842 281.422 624.752 281.603C624.662 281.783 624.345 281.889 623.803 281.919H623.487H623.171C622.659 281.919 622.357 281.844 622.267 281.693C622.177 281.542 622.116 281.091 622.086 280.337V279.66C622.147 277.341 622.568 275.368 623.351 273.741C623.984 272.386 624.857 271.09 625.972 269.856C626.695 269.072 627.056 268.003 627.056 266.648C627.056 265.232 626.876 264.328 626.514 263.937C626.153 263.545 625.189 263.35 623.622 263.35C622.779 263.35 622.026 263.41 621.363 263.53C620.701 263.651 620.249 263.771 620.008 263.892C619.767 264.012 619.632 264.103 619.601 264.163L619.692 264.253C619.752 264.283 619.827 264.328 619.918 264.389C620.008 264.449 620.098 264.524 620.189 264.615C620.279 264.705 620.385 264.84 620.505 265.021C620.626 265.202 620.731 265.353 620.821 265.473C620.912 265.594 620.987 265.804 621.047 266.106C621.107 266.407 621.138 266.663 621.138 266.874C621.138 267.807 620.851 268.575 620.279 269.178C619.707 269.78 618.939 270.081 617.975 270.081C617.101 270.081 616.363 269.81 615.761 269.268C615.159 268.726 614.857 267.928 614.857 266.874ZM619.647 288.741C619.647 287.566 620.038 286.633 620.821 285.94C621.604 285.247 622.523 284.901 623.577 284.901C624.601 284.961 625.475 285.337 626.198 286.03C626.921 286.723 627.282 287.627 627.282 288.741C627.282 289.886 626.921 290.804 626.198 291.497C625.475 292.19 624.571 292.551 623.487 292.581C622.342 292.581 621.424 292.235 620.731 291.542C620.038 290.85 619.677 289.916 619.647 288.741Z" fill="black"/>
</svg>
